<?xml version="1.0" encoding="utf-8" ?>
<svg baseProfile="tiny" height="1024" version="1.2" width="1024" xmlns="http://www.w3.org/2000/svg" xmlns:ev="http://www.w3.org/2001/xml-events" xmlns:xlink="http://www.w3.org/1999/xlink"><defs /><polygon fill="#fff" fill-opacity="0.2" points="353,691 352,692 352,693 345,700 345,701 343,703 343,704 342,705 342,706 341,707 341,708 340,709 340,710 339,711 339,714 338,715 338,734 339,733 341,733 342,732 344,732 345,731 347,731 348,730 350,730 351,729 352,729 353,728 354,728 355,727 356,727 358,725 359,725 362,722 362,721 363,720 363,719 364,718 364,716 365,715 365,708 364,707 364,704 363,703 363,701 361,699 361,698 359,696 359,695 355,691" stroke="#fff" stroke-width="10" /><polygon fill="#fff" fill-opacity="0.2" points="692,682 690,684 690,685 687,688 687,689 686,690 686,691 685,692 685,693 684,694 684,695 683,696 683,698 682,699 682,710 683,711 683,712 684,713 684,714 688,718 689,718 690,719 691,719 692,720 696,720 697,719 698,719 703,714 703,713 704,712 704,711 705,710 705,699 704,698 704,697 703,696 703,695 702,694 702,693 701,692 701,691 699,689 699,688 695,684 695,683 694,682" stroke="#fff" stroke-width="10" /><polygon fill="#fff" fill-opacity="0.2" points="729,626 729,627 727,629 727,630 726,631 726,632 724,634 724,635 723,636 723,637 722,638 722,639 721,640 721,642 720,643 720,646 719,647 719,651 718,652 718,663 719,664 719,666 720,667 720,668 721,669 721,670 723,672 723,673 725,675 726,675 728,677 729,677 730,678 731,678 732,679 733,678 735,678 738,675 739,675 740,674 740,673 742,671 742,670 743,669 743,668 744,667 744,664 745,663 745,658 744,657 744,653 743,652 743,649 742,648 742,647 741,646 741,645 740,644 740,643 739,642 739,641 738,640 738,639 737,638 737,637 735,635 735,634 734,633 734,632 733,631 733,630 732,629 732,628 730,626" stroke="#fff" stroke-width="10" /><polygon fill="#fff" fill-opacity="0.2" points="313,617 313,618 312,619 312,620 311,621 311,622 309,624 309,625 306,628 306,629 304,631 304,632 300,636 300,637 296,641 296,642 292,646 292,647 289,650 289,651 287,653 287,654 286,655 286,656 284,658 284,659 283,660 283,661 282,662 282,663 281,664 281,665 280,666 280,668 279,669 279,671 278,672 278,676 277,677 277,683 276,684 276,707 277,707 278,706 281,706 282,705 294,705 295,704 299,704 300,703 302,703 303,702 305,702 306,701 307,701 308,700 309,700 310,699 311,699 312,698 313,698 317,694 318,694 322,690 322,689 324,687 324,686 325,685 325,684 326,683 326,682 327,681 327,679 328,678 328,676 329,675 329,672 330,671 330,652 329,651 329,648 328,647 328,644 327,643 327,641 326,640 326,639 325,638 325,637 324,636 324,634 323,633 323,632 322,631 322,630 321,629 321,628 320,627 320,626 319,625 319,624 318,623 318,622 315,619 315,618 314,617" stroke="#fff" stroke-width="10" /><polygon fill="#fff" fill-opacity="0.2" points="309,662 310,661 311,661 312,662 312,668 311,669 311,671 310,672 310,673 309,674 309,675 308,676 308,677 306,679 306,680 304,682 304,683 299,688 299,689 292,696 291,696 288,699 287,699 286,698 286,697 287,696 287,695 288,694 288,692 290,690 290,689 291,688 291,687 292,686 292,685 293,684 293,683 295,681 295,680 298,677 298,676 304,670 304,669 306,667 306,666 309,663" stroke="#fff" stroke-width="10" /><polygon fill="#fff" fill-opacity="0.2" points="276,604 275,605 274,605 274,612 275,613 279,613 280,612 281,612 282,611 282,607 280,605 278,605 277,604" stroke="#fff" stroke-width="10" /><polygon fill="#fff" fill-opacity="0.2" points="766,590 766,591 764,593 764,594 763,595 763,596 761,598 761,599 759,601 759,602 758,603 758,605 757,606 757,609 756,610 756,615 757,616 757,619 758,620 758,621 763,626 764,626 765,627 767,627 768,626 769,626 770,625 771,625 777,619 777,618 778,617 778,615 779,614 779,609 778,608 778,605 777,604 777,603 776,602 776,601 775,600 775,599 772,596 772,595 770,593 770,592 768,590" stroke="#fff" stroke-width="10" /><polygon fill="#fff" fill-opacity="0.2" points="447,422 446,423 445,423 444,424 442,424 441,425 440,425 439,426 437,426 436,427 434,427 433,428 431,428 430,429 428,429 427,430 426,430 425,431 423,431 422,432 421,432 420,433 419,433 418,434 416,434 415,435 414,435 413,436 412,436 412,437 416,441 417,441 435,459 436,459 439,462 440,462 444,466 445,466 447,468 448,468 449,469 450,469 451,470 452,470 453,471 454,471 456,473 457,473 458,474 459,474 460,475 462,475 463,476 464,476 465,477 466,477 467,478 469,478 470,479 472,479 473,480 475,480 476,481 478,481 479,482 481,482 482,483 485,483 486,484 489,484 490,485 497,485 498,486 499,486 498,485 498,484 497,484 468,455 468,454 464,450 464,449 462,447 462,446 460,444 460,443 458,441 458,440 457,439 457,438 455,436 455,435 454,434 454,433 453,432 453,431 452,430 452,429 451,428 451,427 450,426 450,424 449,423 449,422" stroke="#fff" stroke-width="10" /><polygon fill="#fff" fill-opacity="0.2" points="427,437 428,436 430,436 432,438 432,439 433,440 433,441 434,442 434,443 433,444 424,444 423,443 423,440 426,437" stroke="#fff" stroke-width="10" /><polygon fill="#fff" fill-opacity="0.2" points="598,421 598,423 597,424 597,425 596,426 596,427 595,428 595,429 594,430 594,431 593,432 593,433 592,434 592,435 591,436 591,437 589,439 589,440 587,442 587,443 585,445 585,446 582,449 582,450 580,452 580,453 574,459 574,460 558,476 557,476 550,483 550,484 547,487 548,487 549,486 553,486 554,485 557,485 558,484 561,484 562,483 565,483 566,482 568,482 569,481 571,481 572,480 574,480 575,479 576,479 577,478 579,478 580,477 581,477 582,476 583,476 585,474 586,474 587,473 588,473 589,472 590,472 591,471 592,471 593,470 594,470 595,469 596,469 598,467 599,467 602,464 603,464 607,460 608,460 613,455 614,455 623,446 624,446 628,442 628,441 629,440 630,440 632,438 632,437 631,436 629,436 628,435 627,435 626,434 625,434 624,433 623,433 622,432 621,432 620,431 619,431 618,430 617,430 616,429 615,429 614,428 613,428 612,427 611,427 610,426 609,426 608,425 607,425 606,424 605,424 604,423 603,423 602,422 601,422 600,421" stroke="#fff" stroke-width="10" /><polygon fill="#fff" fill-opacity="0.2" points="510,409 509,410 500,410 499,411 492,411 491,412 487,412 486,413 482,413 481,414 478,414 477,415 474,415 473,416 470,416 469,417 465,417 465,418 467,420 467,421 468,422 468,423 470,425 470,426 471,427 471,428 472,429 472,430 473,431 473,432 474,433 474,434 475,435 475,436 477,438 477,439 480,442 480,443 483,446 483,447 491,455 491,456 498,463 499,463 507,471 508,471 510,473 511,473 512,474 513,474 514,475 514,470 513,469 513,444 514,443 514,409" stroke="#fff" stroke-width="10" /><polygon fill="#fff" fill-opacity="0.2" points="532,407 532,472 531,473 533,473 534,472 535,472 536,471 537,471 540,468 541,468 553,456 554,456 554,455 559,450 559,449 563,445 563,444 565,442 565,441 566,440 566,439 568,437 568,436 570,434 570,433 573,430 573,429 574,428 574,427 576,425 576,424 577,423 577,422 578,421 578,420 579,419 579,418 581,416 580,415 578,415 577,414 572,414 571,413 567,413 566,412 562,412 561,411 557,411 556,410 550,410 549,409 543,409 542,408 536,408 535,407" stroke="#fff" stroke-width="10" /><polygon fill="#fff" fill-opacity="0.2" points="616,347 616,359 615,360 615,367 614,368 614,374 613,375 613,379 612,380 612,383 611,384 611,387 610,388 610,391 609,392 609,394 608,395 608,397 607,398 607,399 606,400 606,402 605,403 605,406 606,406 607,407 610,407 611,408 613,408 614,409 615,409 616,410 617,410 618,411 619,411 620,412 621,412 622,413 623,413 624,414 625,414 626,415 627,415 628,416 630,416 631,417 632,417 633,418 634,418 635,419 637,419 639,421 640,421 641,422 643,422 643,421 644,420 644,419 645,418 645,417 646,416 646,415 648,413 648,412 649,411 649,410 651,408 651,407 652,406 652,405 653,404 653,403 654,402 654,401 655,400 655,399 656,398 656,397 657,396 657,394 658,393 658,392 659,391 659,390 660,389 660,387 661,386 661,384 662,383 662,382 663,381 663,378 664,377 664,375 665,374 665,370 666,369 666,365 667,364 667,357 668,356 668,349 669,348 624,348 623,347" stroke="#fff" stroke-width="10" /><polygon fill="#fff" fill-opacity="0.2" points="532,347 532,391 547,391 548,392 555,392 556,393 561,393 562,394 566,394 567,395 571,395 572,396 576,396 577,397 580,397 581,398 583,398 584,399 586,399 587,400 588,400 588,399 589,398 589,395 590,394 590,392 591,391 591,389 592,388 592,386 593,385 593,382 594,381 594,379 595,378 595,374 596,373 596,369 597,368 597,363 598,362 598,349 599,348 598,347 584,347 583,348 534,348 533,347" stroke="#fff" stroke-width="10" /><polygon fill="#fff" fill-opacity="0.2" points="447,347 447,358 448,359 448,367 449,368 449,373 450,374 450,377 451,378 451,382 452,383 452,385 453,386 453,389 454,390 454,393 455,394 455,396 456,397 456,398 457,399 457,401 458,401 459,400 461,400 462,399 465,399 466,398 471,398 472,397 475,397 476,396 480,396 481,395 485,395 486,394 493,394 494,393 511,393 512,392 514,392 514,384 513,383 513,372 514,371 514,347 508,347 507,348 451,348 450,347" stroke="#fff" stroke-width="10" /><polygon fill="#fff" fill-opacity="0.2" points="375,347 375,356 376,357 376,364 377,365 377,369 378,370 378,373 379,374 379,376 380,377 380,379 381,380 381,382 382,383 382,385 383,386 383,387 384,388 384,390 385,391 385,393 386,394 386,395 387,396 387,397 388,398 388,399 389,400 389,401 390,402 390,403 391,404 391,405 392,406 392,407 393,408 393,409 394,410 394,412 395,413 395,414 396,415 396,416 397,417 397,418 398,419 398,420 399,421 399,422 400,423 401,422 402,422 403,421 404,421 405,420 406,420 407,419 408,419 409,418 410,418 411,417 412,417 413,416 415,416 416,415 417,415 418,414 419,414 420,413 422,413 423,412 425,412 426,411 428,411 429,410 430,410 431,409 433,409 434,408 436,408 437,407 439,407 440,406 441,406 441,405 440,404 440,402 439,401 439,400 438,399 438,397 437,396 437,395 436,394 436,391 435,390 435,388 434,387 434,384 433,383 433,379 432,378 432,373 431,372 431,365 430,364 430,356 429,355 429,348 428,347 424,347 423,348 376,348" stroke="#fff" stroke-width="10" /><polygon fill="#fff" fill-opacity="0.2" points="386,354 387,353 390,356 390,359 391,360 391,366 392,367 392,374 391,375 388,372 388,371 387,370 387,369 386,369 384,367 384,364 383,363 383,355 384,354" stroke="#fff" stroke-width="10" /><polygon fill="#fff" fill-opacity="0.2" points="745,333 744,334 742,334 741,335 739,335 738,336 736,336 733,339 732,339 729,342 729,343 727,345 727,346 726,347 726,348 725,349 725,351 724,352 724,355 723,356 723,431 722,432 722,466 716,472 715,472 671,516 671,517 643,545 643,546 631,558 630,558 629,559 624,559 623,558 622,558 621,557 620,557 618,555 617,555 614,552 614,550 616,548 616,547 627,536 628,536 636,528 636,527 643,520 643,519 654,508 654,507 662,499 662,498 676,484 676,483 690,469 690,468 692,466 692,465 693,464 693,461 694,460 694,455 693,454 693,452 692,451 692,449 690,447 690,446 688,444 687,444 685,442 684,442 683,441 682,441 681,440 677,440 676,439 670,439 669,440 666,440 664,442 663,442 662,443 661,443 649,455 648,455 639,464 638,464 619,483 618,483 605,496 605,497 584,518 584,519 579,524 578,524 563,539 562,539 557,544 556,544 544,556 544,557 542,559 542,560 540,562 540,563 539,564 539,566 538,567 538,568 537,569 537,571 536,572 536,574 535,575 535,578 534,579 534,582 533,583 533,587 532,588 532,602 531,603 531,609 532,610 532,770 534,770 535,769 587,769 588,770 614,770 615,769 638,769 639,770 640,770 640,764 641,763 641,759 640,758 640,660 641,659 641,653 642,652 642,648 643,647 643,644 644,643 644,641 645,640 645,639 646,638 646,637 663,620 663,619 672,610 672,609 741,540 742,540 747,535 748,535 752,531 753,531 756,528 757,528 759,526 760,526 760,525 761,524 761,522 762,521 762,372 763,371 763,344 762,343 762,340 758,336 757,336 756,335 755,335 754,334 751,334 750,333" stroke="#fff" stroke-width="10" /><polygon fill="#fff" fill-opacity="0.2" points="290,333 289,334 287,334 285,336 284,336 283,337 283,338 282,339 282,341 281,342 281,367 280,368 280,506 281,507 281,519 282,520 282,523 282,521 283,520 283,516 284,515 284,497 285,496 285,494 286,493 288,493 290,495 290,496 291,497 291,514 290,515 290,528 291,529 291,530 324,563 325,563 380,618 380,619 391,630 391,631 400,640 400,641 402,643 402,644 403,645 403,648 404,649 404,656 405,657 405,696 406,697 406,770 409,770 410,769 429,769 430,770 483,770 484,769 509,769 510,770 513,770 513,597 512,596 512,588 511,587 511,582 510,581 510,578 509,577 509,574 508,573 508,571 507,570 507,569 506,568 506,566 505,565 505,564 503,562 503,561 499,557 499,556 497,554 496,554 488,546 487,546 446,505 446,504 435,493 435,492 422,479 421,479 414,472 414,471 413,471 412,470 412,469 394,451 393,451 386,444 385,444 383,442 382,442 381,441 380,441 379,440 378,440 377,439 375,439 374,438 364,438 363,439 361,439 360,440 359,440 357,442 356,442 351,447 351,448 350,449 350,451 349,452 349,453 348,454 348,461 349,462 349,464 350,465 350,466 353,469 353,470 387,504 387,505 403,521 403,522 415,534 415,535 416,535 417,536 417,537 419,539 420,539 425,544 426,544 429,547 430,547 431,548 431,549 432,549 433,550 433,553 432,554 432,555 431,556 430,556 429,557 428,557 427,558 426,558 425,559 423,559 422,560 418,560 417,559 416,559 414,557 413,557 404,548 404,547 378,521 378,520 354,496 353,496 346,489 345,489 340,484 339,484 334,479 333,479 326,472 325,472 322,469 322,468 321,467 321,458 320,457 320,376 321,375 321,363 320,362 320,356 319,355 319,353 318,352 318,350 317,349 317,348 316,347 316,346 314,344 314,343 309,338 308,338 306,336 304,336 303,335 302,335 301,334 299,334 298,333" stroke="#fff" stroke-width="10" /><polygon fill="#fff" fill-opacity="0.2" points="716,290 715,291 715,295 714,296 714,312 715,313 715,315 716,316 717,316 718,317 721,317 722,316 723,316 725,314 725,293 724,292 724,291 723,290" stroke="#fff" stroke-width="10" /><polygon fill="#fff" fill-opacity="0.2" points="744,278 743,279 743,280 742,281 742,282 741,283 742,284 742,285 743,286 743,287 755,299 758,299 762,295 762,292 752,282 751,282 747,278" stroke="#fff" stroke-width="10" /><polygon fill="#fff" fill-opacity="0.2" points="694,278 693,279 692,279 689,282 688,282 679,291 679,292 678,293 678,294 682,298 683,298 684,299 685,299 686,298 687,298 696,289 697,289 699,287 699,286 700,285 700,283 699,282 699,281 697,279 696,279 695,278" stroke="#fff" stroke-width="10" /><polygon fill="#fff" fill-opacity="0.2" points="584,271 583,272 582,272 581,273 578,273 577,274 575,274 574,275 571,275 570,276 566,276 565,277 561,277 560,278 555,278 554,279 548,279 547,280 531,280 531,287 532,288 532,330 599,330 599,325 598,324 598,319 597,318 597,314 596,313 596,308 595,307 595,304 594,303 594,299 593,298 593,295 592,294 592,290 591,289 591,287 590,286 590,284 589,283 589,281 588,280 588,279 587,278 587,276 586,275 586,274 585,273 585,272" stroke="#fff" stroke-width="10" /><polygon fill="#fff" fill-opacity="0.2" points="462,271 461,272 461,273 460,274 460,275 459,276 459,278 458,279 458,281 457,282 457,284 456,285 456,287 455,288 455,290 454,291 454,293 453,294 453,297 452,298 452,301 451,302 451,305 450,306 450,310 449,311 449,316 448,317 448,323 447,324 447,330 448,329 483,329 484,330 514,330 514,280 498,280 497,279 492,279 491,278 486,278 485,277 482,277 481,276 476,276 475,275 472,275 471,274 468,274 467,273 466,273 465,272 463,272" stroke="#fff" stroke-width="10" /><polygon fill="#fff" fill-opacity="0.2" points="760,254 759,255 751,255 751,256 750,257 750,263 751,264 775,264 778,261 778,258 777,257 777,256 776,255 775,255 774,254" stroke="#fff" stroke-width="10" /><polygon fill="#fff" fill-opacity="0.2" points="670,254 669,255 668,255 667,256 667,257 666,258 666,262 668,264 689,264 689,263 690,262 690,257 689,256 689,255 687,255 686,254" stroke="#fff" stroke-width="10" /><polygon fill="#fff" fill-opacity="0.2" points="637,250 635,252 634,252 633,253 632,253 630,255 629,255 628,256 627,256 626,257 625,257 624,258 622,258 621,259 620,259 619,260 617,260 616,261 614,261 613,262 611,262 610,263 609,263 608,264 606,264 605,265 603,265 602,266 601,266 601,268 602,269 602,270 603,271 603,272 604,273 604,275 605,276 605,277 606,278 606,280 607,281 607,283 608,284 608,286 609,287 609,290 610,291 610,294 611,295 611,297 612,298 612,301 613,302 613,306 614,307 614,312 615,313 615,319 616,320 616,330 669,330 668,329 668,324 667,323 667,318 666,317 666,313 665,312 665,308 664,307 664,304 663,303 663,301 662,300 662,298 661,297 661,295 660,294 660,292 659,291 659,290 658,289 658,287 657,286 657,284 656,283 656,282 655,281 655,279 654,278 654,277 653,276 653,275 651,273 651,272 650,271 650,270 649,269 649,268 647,266 647,265 646,264 646,263 644,261 644,260 642,258 642,257 640,255 640,254 639,253 639,252" stroke="#fff" stroke-width="10" /><polygon fill="#fff" fill-opacity="0.2" points="329,250 328,251 327,251 318,260 318,261 317,262 317,263 316,264 316,267 315,268 315,275 316,276 316,279 317,280 330,280 331,279 333,279 334,278 335,278 338,275 338,274 339,273 339,272 340,271 340,265 339,264 339,263 338,262 338,261 337,260 337,259 335,257 335,256 333,254 333,253 330,250" stroke="#fff" stroke-width="10" /><polygon fill="#fff" fill-opacity="0.2" points="405,248 405,249 404,250 404,251 403,252 403,253 402,254 402,255 400,257 400,258 399,259 399,260 397,262 397,263 396,264 396,265 394,267 394,268 393,269 393,270 392,271 392,272 390,274 390,275 389,276 389,277 388,278 388,280 387,281 387,282 386,283 386,284 385,285 385,287 384,288 384,290 383,291 383,292 382,293 382,296 381,297 381,299 380,300 380,303 379,304 379,306 378,307 378,311 377,312 377,315 376,316 376,322 375,323 375,329 390,329 391,330 429,330 429,328 430,327 430,316 431,315 431,310 432,309 432,305 433,304 433,300 434,299 434,296 435,295 435,291 436,290 436,288 437,287 437,285 438,284 438,282 439,281 439,279 440,278 440,276 441,275 441,274 442,273 442,272 443,271 443,270 444,269 444,268 445,267 445,266 444,266 443,265 441,265 440,264 438,264 437,263 436,263 435,262 433,262 432,261 430,261 429,260 427,260 426,259 424,259 423,258 422,258 421,257 420,257 419,256 418,256 417,255 416,255 415,254 414,254 412,252 411,252 408,249 407,249 406,248" stroke="#fff" stroke-width="10" /><polygon fill="#fff" fill-opacity="0.2" points="384,318 385,317 386,318 385,319" stroke="#fff" stroke-width="10" /><polygon fill="#fff" fill-opacity="0.2" points="410,261 411,261 412,262 412,263 413,264 413,269 412,270 412,271 410,273 410,274 408,276 408,278 407,279 407,280 406,281 406,282 405,283 405,285 403,287 403,288 402,289 402,291 401,292 401,293 400,294 400,296 399,297 399,298 398,299 398,300 397,301 397,302 396,303 396,305 395,306 395,308 394,309 394,311 393,312 393,314 392,315 392,317 390,319 389,318 388,318 387,317 387,316 386,317 385,316 385,314 386,313 386,310 387,309 387,307 388,306 388,304 389,303 389,301 390,300 390,299 391,298 391,296 392,295 392,294 393,293 393,291 394,290 394,288 395,287 395,286 396,285 396,283 397,282 397,281 398,280 398,279 399,278 399,277 400,276 400,275 401,274 401,273 402,272 402,271 403,270 403,269 404,268 404,267 406,265 406,264 407,263 408,263" stroke="#fff" stroke-width="10" /><polygon fill="#fff" fill-opacity="0.2" points="715,246 714,247 713,247 708,252 708,254 707,255 707,257 706,258 706,262 707,263 707,265 708,266 708,267 709,268 709,269 711,271 712,271 714,273 715,273 716,274 724,274 725,273 727,273 731,269 731,268 733,266 733,263 734,262 734,258 733,257 733,255 732,254 732,253 731,252 731,251 728,248 727,248 726,247 725,247 724,246" stroke="#fff" stroke-width="10" /><polygon fill="#fff" fill-opacity="0.2" points="756,219 755,220 754,220 746,228 745,228 742,231 742,232 740,234 740,237 742,239 743,239 745,241 746,241 755,232 756,232 763,225 763,224 762,223 762,222 760,220 759,220 758,219" stroke="#fff" stroke-width="10" /><polygon fill="#fff" fill-opacity="0.2" points="682,219 679,222 679,223 678,224 678,225 681,228 681,229 682,229 690,237 691,237 693,239 696,239 701,234 686,219" stroke="#fff" stroke-width="10" /><polygon fill="#fff" fill-opacity="0.2" points="718,206 717,207 716,207 715,208 715,209 714,210 714,228 715,229 715,230 716,231 721,231 722,230 723,230 724,229 724,228 725,227 725,209 722,206" stroke="#fff" stroke-width="10" /><polygon fill="#fff" fill-opacity="0.2" points="531,205 532,206 532,262 531,263 539,263 540,262 546,262 547,261 553,261 554,260 559,260 560,259 564,259 565,258 568,258 569,257 572,257 573,256 574,256 575,255 576,255 575,254 575,253 573,251 573,250 571,248 571,247 568,244 568,243 566,241 566,240 562,236 562,235 559,232 559,231 555,227 555,226 549,220 549,219 543,213 542,213 537,208 536,208 534,206 533,206 532,205" stroke="#fff" stroke-width="10" /><polygon fill="#fff" fill-opacity="0.2" points="515,205 514,206 512,206 511,207 510,207 506,211 505,211 492,224 492,225 487,230 487,231 484,234 484,235 480,239 480,240 478,242 478,243 477,244 477,245 475,247 475,248 473,250 473,251 472,252 472,253 471,254 471,255 470,256 472,256 473,257 475,257 476,258 480,258 481,259 485,259 486,260 491,260 492,261 498,261 499,262 507,262 508,263 514,263 514,206" stroke="#fff" stroke-width="10" /><polygon fill="#fff" fill-opacity="0.2" points="548,194 561,207 561,208 566,213 566,214 570,218 570,219 574,223 574,224 579,229 579,230 582,233 582,234 584,236 584,237 586,239 586,240 588,242 588,243 589,244 589,245 590,246 590,247 591,248 591,249 592,250 594,250 595,249 597,249 598,248 600,248 601,247 603,247 604,246 605,246 606,245 607,245 608,244 610,244 611,243 612,243 613,242 614,242 615,241 616,241 617,240 618,240 619,239 620,239 621,238 622,238 623,237 624,237 625,236 626,236 623,233 622,233 616,227 615,227 610,222 609,222 606,219 605,219 603,217 602,217 600,215 599,215 597,213 596,213 594,211 593,211 592,210 591,210 589,208 588,208 587,207 586,207 585,206 584,206 583,205 582,205 581,204 579,204 578,203 577,203 576,202 574,202 573,201 572,201 571,200 569,200 568,199 566,199 565,198 563,198 562,197 560,197 559,196 556,196 555,195 552,195 551,194" stroke="#fff" stroke-width="10" /><polygon fill="#fff" fill-opacity="0.2" points="493,194 492,195 490,195 489,196 487,196 486,197 484,197 483,198 481,198 480,199 478,199 477,200 475,200 474,201 472,201 471,202 469,202 468,203 466,203 465,204 463,204 462,205 460,205 459,206 458,206 457,207 456,207 455,208 453,208 451,210 450,210 449,211 448,211 446,213 445,213 443,215 442,215 441,216 440,216 437,219 436,219 434,221 433,221 430,224 429,224 418,235 419,236 420,236 421,237 422,237 423,238 424,238 425,239 426,239 427,240 428,240 430,242 431,242 432,243 434,243 435,244 436,244 437,245 439,245 440,246 441,246 442,247 445,247 446,248 447,248 448,249 450,249 451,250 452,250 453,251 453,249 454,248 454,247 455,246 455,245 456,244 456,243 458,241 458,240 460,238 460,237 461,236 461,235 463,233 463,232 466,229 466,228 468,226 468,225 471,222 471,221 476,216 476,215 486,205 487,205 493,199 494,199 499,194" stroke="#fff" stroke-width="10" /><polygon fill="#fff" fill-opacity="0.2" points="456,216 457,215 458,216 458,218 457,219 457,220 455,222 454,222 450,226 449,226 439,236 438,236 437,237 434,237 433,236 431,236 429,234 429,233 438,224 439,224 442,221 443,221 444,220 445,220 446,219 447,219 448,218 449,218 450,217 452,217 453,216" stroke="#fff" stroke-width="10" /><polygon fill="#fff" fill-opacity="0.2" points="452,149 451,150 306,150 305,151 298,151 297,152 293,152 292,153 289,153 288,154 285,154 284,155 282,155 281,156 279,156 278,157 276,157 275,158 273,158 272,159 270,159 269,160 267,160 266,161 265,161 264,162 263,162 262,163 260,163 259,164 258,164 257,165 256,165 254,167 253,167 252,168 251,168 249,170 248,170 246,172 245,172 243,174 242,174 241,175 240,175 237,178 236,178 230,184 229,184 220,193 220,194 214,200 214,201 212,203 212,204 210,206 210,207 208,209 208,210 206,212 206,213 205,214 205,215 204,216 204,217 203,218 203,219 202,220 202,221 201,222 201,223 200,224 200,225 199,226 199,228 198,229 198,230 197,231 197,233 196,234 196,237 195,238 195,240 194,241 194,244 193,245 193,248 192,249 192,255 191,256 191,262 190,263 190,712 191,713 191,720 192,721 192,725 193,726 193,729 194,730 194,733 195,734 195,736 196,737 196,739 197,740 197,742 198,743 198,744 199,745 199,746 200,747 200,749 201,750 201,751 202,752 202,753 203,754 203,755 204,756 204,757 205,758 205,759 206,760 206,761 207,762 207,763 209,765 209,766 211,768 211,769 213,771 213,772 215,774 215,775 219,779 219,780 223,784 223,785 230,792 231,792 236,797 237,797 239,799 240,799 243,802 244,802 246,804 247,804 249,806 250,806 251,807 252,807 253,808 254,808 255,809 256,809 257,810 258,810 259,811 260,811 261,812 262,812 263,813 264,813 265,814 266,814 267,815 269,815 270,816 272,816 273,817 275,817 276,818 278,818 279,819 282,819 283,820 285,820 286,821 290,821 291,822 294,822 295,823 302,823 303,824 349,824 350,825 363,825 364,824 444,824 445,825 455,825 456,824 747,824 748,823 752,823 753,822 757,822 758,821 761,821 762,820 765,820 766,819 769,819 770,818 772,818 773,817 775,817 776,816 777,816 778,815 780,815 781,814 782,814 783,813 785,813 786,812 787,812 788,811 789,811 790,810 791,810 792,809 793,809 794,808 795,808 796,807 797,807 798,806 799,806 801,804 802,804 803,803 804,803 807,800 808,800 810,798 811,798 828,781 828,780 833,775 833,774 836,771 836,770 837,769 837,768 838,767 838,766 840,764 840,763 842,761 842,760 843,759 843,758 844,757 844,756 845,755 845,754 846,753 846,752 847,751 847,750 848,749 848,747 849,746 849,745 850,744 850,742 851,741 851,739 852,738 852,736 853,735 853,732 854,731 854,728 855,727 855,724 856,723 856,718 857,717 857,709 858,708 858,688 857,687 857,640 858,639 858,500 857,499 857,474 858,473 858,466 857,465 857,458 858,457 858,356 857,355 857,344 858,343 858,268 857,267 857,259 856,258 856,254 855,253 855,249 854,248 854,245 853,244 853,242 852,241 852,238 851,237 851,235 850,234 850,232 849,231 849,230 848,229 848,227 847,226 847,224 846,223 846,222 845,221 845,220 844,219 844,218 843,217 843,216 841,214 841,213 840,212 840,211 839,210 839,209 837,207 837,206 835,204 835,203 833,201 833,200 831,198 831,197 827,193 827,192 817,182 816,182 811,177 810,177 808,175 807,175 804,172 803,172 801,170 800,170 799,169 798,169 797,168 796,168 795,167 794,167 793,166 792,166 791,165 790,165 789,164 788,164 787,163 786,163 785,162 784,162 783,161 782,161 781,160 779,160 778,159 776,159 775,158 773,158 772,157 771,157 770,156 768,156 767,155 765,155 764,154 761,154 760,153 757,153 756,152 751,152 750,151 742,151 741,150 606,150 605,149 604,150 596,150 595,149 588,149 587,150 552,150 551,149 540,149 539,150 508,150 507,149" stroke="#fff" stroke-width="10" /><polygon fill="#fff" fill-opacity="0.2" points="502,172 503,171 537,171 538,172 548,172 549,173 554,173 555,174 560,174 561,175 564,175 565,176 568,176 569,177 572,177 573,178 575,178 576,179 578,179 579,180 581,180 582,181 584,181 585,182 586,182 587,183 588,183 589,184 590,184 591,185 592,185 593,186 594,186 595,187 596,187 599,190 600,190 603,193 604,193 605,192 605,191 609,187 611,187 612,186 615,186 616,185 726,185 727,186 741,186 742,187 747,187 748,188 752,188 753,189 755,189 756,190 758,190 759,191 761,191 762,192 764,192 765,193 766,193 767,194 768,194 769,195 770,195 771,196 772,196 773,197 774,197 775,198 776,198 778,200 779,200 780,201 781,201 783,203 784,203 788,207 789,207 798,216 798,217 802,221 802,222 805,225 805,226 807,228 807,229 808,230 808,231 809,232 809,233 811,235 811,237 812,238 812,239 813,240 813,241 814,242 814,244 815,245 815,247 816,248 816,250 817,251 817,253 818,254 818,256 819,257 819,261 820,262 820,279 821,280 821,315 820,316 820,323 821,324 821,705 820,706 820,713 819,714 819,718 818,719 818,722 817,723 817,725 816,726 816,728 815,729 815,731 814,732 814,733 813,734 813,735 812,736 812,737 811,738 811,739 810,740 810,741 809,742 809,743 808,744 808,745 806,747 806,748 804,750 804,751 801,754 801,755 786,770 785,770 783,772 782,772 779,775 778,775 777,776 776,776 775,777 774,777 773,778 772,778 771,779 770,779 769,780 768,780 767,781 766,781 765,782 764,782 763,783 762,783 761,784 759,784 758,785 757,785 756,786 753,786 752,787 750,787 749,788 745,788 744,789 736,789 735,790 690,790 689,789 648,789 647,790 532,790 531,789 522,789 521,790 310,790 309,789 304,789 303,788 299,788 298,787 295,787 294,786 292,786 291,785 289,785 288,784 286,784 285,783 284,783 283,782 282,782 281,781 280,781 279,780 278,780 277,779 276,779 275,778 274,778 273,777 272,777 271,776 270,776 268,774 267,774 264,771 263,771 255,763 254,763 252,761 252,760 245,753 245,752 242,749 242,748 241,747 241,746 239,744 239,743 238,742 238,741 237,740 237,739 236,738 236,736 235,735 235,734 234,733 234,731 233,730 233,729 232,728 232,726 231,725 231,722 230,721 230,718 229,717 229,714 228,713 228,707 227,706 227,532 226,531 226,524 227,523 227,504 226,503 226,428 227,427 227,261 228,260 228,256 229,255 229,252 230,251 230,248 231,247 231,245 232,244 232,243 233,242 233,240 234,239 234,238 235,237 235,236 236,235 236,233 237,232 237,231 239,229 239,228 240,227 240,226 242,224 242,223 246,219 246,218 255,209 256,209 260,205 261,205 264,202 265,202 267,200 268,200 270,198 271,198 272,197 273,197 275,195 276,195 277,194 278,194 279,193 281,193 282,192 283,192 284,191 285,191 286,190 288,190 289,189 291,189 292,188 294,188 295,187 298,187 299,186 303,186 304,185 421,185 422,186 434,186 435,187 438,187 440,189 441,189 444,192 445,192 449,188 450,188 452,186 453,186 454,185 455,185 456,184 457,184 458,183 459,183 460,182 461,182 462,181 463,181 464,180 466,180 467,179 468,179 469,178 472,178 473,177 475,177 476,176 479,176 480,175 483,175 484,174 488,174 489,173 494,173 495,172" stroke="#fff" stroke-width="10" /></svg>