<?xml version="1.0" encoding="utf-8" ?>
<svg baseProfile="tiny" height="1024" version="1.2" width="1024" xmlns="http://www.w3.org/2000/svg" xmlns:ev="http://www.w3.org/2001/xml-events" xmlns:xlink="http://www.w3.org/1999/xlink"><defs /><polygon fill="#000" fill-opacity="0.2" points="310,662 310,663 307,666 307,667 305,669 305,670 299,676 299,677 296,680 296,681 294,683 294,684 293,685 293,686 292,687 292,688 291,689 291,690 289,692 289,694 288,695 288,696 287,697 287,698 288,698 291,695 292,695 298,689 298,688 303,683 303,682 305,680 305,679 307,677 307,676 308,675 308,674 309,673 309,672 310,671 310,669 311,668 311,662" stroke="#000" stroke-width="10" /><polygon fill="#000" fill-opacity="0.2" points="428,437 427,438 426,438 424,440 424,443 433,443 433,442 432,441 432,440 431,439 431,438 430,437" stroke="#000" stroke-width="10" /><polygon fill="#000" fill-opacity="0.2" points="387,354 386,355 384,355 384,363 385,364 385,367 386,368 387,368 388,369 388,370 389,371 389,372 391,374 391,367 390,366 390,360 389,359 389,356" stroke="#000" stroke-width="10" /><polygon fill="#000" fill-opacity="0.2" points="410,262 408,264 407,264 407,265 405,267 405,268 404,269 404,270 403,271 403,272 402,273 402,274 401,275 401,276 400,277 400,278 399,279 399,280 398,281 398,282 397,283 397,285 396,286 396,287 395,288 395,290 394,291 394,293 393,294 393,295 392,296 392,298 391,299 391,300 390,301 390,303 389,304 389,306 388,307 388,309 387,310 387,313 386,314 386,316 387,315 388,316 388,317 389,317 390,318 391,317 391,315 392,314 392,312 393,311 393,309 394,308 394,306 395,305 395,303 396,302 396,301 397,300 397,299 398,298 398,297 399,296 399,294 400,293 400,292 401,291 401,289 402,288 402,287 404,285 404,283 405,282 405,281 406,280 406,279 407,278 407,276 409,274 409,273 411,271 411,270 412,269 412,264 411,263 411,262" stroke="#000" stroke-width="10" /><polygon fill="#000" fill-opacity="0.2" points="457,216 456,217 453,217 452,218 450,218 449,219 448,219 447,220 446,220 445,221 444,221 443,222 442,222 439,225 438,225 430,233 430,234 431,235 433,235 434,236 437,236 438,235 439,235 449,225 450,225 454,221 455,221 456,220 456,219 457,218" stroke="#000" stroke-width="10" /><polygon fill="#000" fill-opacity="0.2" points="503,172 502,173 495,173 494,174 489,174 488,175 484,175 483,176 480,176 479,177 476,177 475,178 473,178 472,179 469,179 468,180 467,180 466,181 464,181 463,182 462,182 461,183 460,183 459,184 458,184 457,185 456,185 455,186 454,186 453,187 452,187 450,189 449,189 445,193 444,193 441,190 440,190 438,188 435,188 434,187 422,187 421,186 304,186 303,187 299,187 298,188 295,188 294,189 292,189 291,190 289,190 288,191 286,191 285,192 284,192 283,193 282,193 281,194 279,194 278,195 277,195 276,196 275,196 273,198 272,198 271,199 270,199 268,201 267,201 265,203 264,203 261,206 260,206 256,210 255,210 247,218 247,219 243,223 243,224 241,226 241,227 240,228 240,229 238,231 238,232 237,233 237,235 236,236 236,237 235,238 235,239 234,240 234,242 233,243 233,244 232,245 232,247 231,248 231,251 230,252 230,255 229,256 229,260 228,261 228,427 227,428 227,503 228,504 228,523 227,524 227,531 228,532 228,706 229,707 229,713 230,714 230,717 231,718 231,721 232,722 232,725 233,726 233,728 234,729 234,730 235,731 235,733 236,734 236,735 237,736 237,738 238,739 238,740 239,741 239,742 240,743 240,744 242,746 242,747 243,748 243,749 246,752 246,753 253,760 253,761 254,762 255,762 263,770 264,770 267,773 268,773 270,775 271,775 272,776 273,776 274,777 275,777 276,778 277,778 278,779 279,779 280,780 281,780 282,781 283,781 284,782 285,782 286,783 288,783 289,784 291,784 292,785 294,785 295,786 298,786 299,787 303,787 304,788 309,788 310,789 521,789 522,788 531,788 532,789 647,789 648,788 689,788 690,789 735,789 736,788 744,788 745,787 749,787 750,786 752,786 753,785 756,785 757,784 758,784 759,783 761,783 762,782 763,782 764,781 765,781 766,780 767,780 768,779 769,779 770,778 771,778 772,777 773,777 774,776 775,776 776,775 777,775 778,774 779,774 782,771 783,771 785,769 786,769 800,755 800,754 803,751 803,750 805,748 805,747 807,745 807,744 808,743 808,742 809,741 809,740 810,739 810,738 811,737 811,736 812,735 812,734 813,733 813,732 814,731 814,729 815,728 815,726 816,725 816,723 817,722 817,719 818,718 818,714 819,713 819,706 820,705 820,324 819,323 819,316 820,315 820,280 819,279 819,262 818,261 818,257 817,256 817,254 816,253 816,251 815,250 815,248 814,247 814,245 813,244 813,242 812,241 812,240 811,239 811,238 810,237 810,235 808,233 808,232 807,231 807,230 806,229 806,228 804,226 804,225 801,222 801,221 797,217 797,216 789,208 788,208 784,204 783,204 781,202 780,202 779,201 778,201 776,199 775,199 774,198 773,198 772,197 771,197 770,196 769,196 768,195 767,195 766,194 765,194 764,193 762,193 761,192 759,192 758,191 756,191 755,190 753,190 752,189 748,189 747,188 742,188 741,187 727,187 726,186 616,186 615,187 612,187 611,188 609,188 606,191 606,192 604,194 603,194 600,191 599,191 596,188 595,188 594,187 593,187 592,186 591,186 590,185 589,185 588,184 587,184 586,183 585,183 584,182 582,182 581,181 579,181 578,180 576,180 575,179 573,179 572,178 569,178 568,177 565,177 564,176 561,176 560,175 555,175 554,174 549,174 548,173 538,173 537,172" stroke="#000" stroke-width="10" /><polygon fill="#000" fill-opacity="0.2" points="353,690 355,690 360,695 360,696 362,698 362,699 364,701 364,703 365,704 365,707 366,708 366,715 365,716 365,718 364,719 364,720 363,721 363,722 359,726 358,726 356,728 355,728 354,729 353,729 352,730 351,730 350,731 348,731 347,732 345,732 344,733 342,733 341,734 339,734 338,735 337,734 337,715 338,714 338,711 339,710 339,709 340,708 340,707 341,706 341,705 342,704 342,703 344,701 344,700 351,693 351,692" stroke="#000" stroke-width="10" /><polygon fill="#000" fill-opacity="0.2" points="692,681 694,681 696,683 696,684 700,688 700,689 702,691 702,692 703,693 703,694 704,695 704,696 705,697 705,698 706,699 706,710 705,711 705,712 704,713 704,714 698,720 697,720 696,721 692,721 691,720 690,720 689,719 688,719 683,714 683,713 682,712 682,711 681,710 681,699 682,698 682,696 683,695 683,694 684,693 684,692 685,691 685,690 686,689 686,688 689,685 689,684" stroke="#000" stroke-width="10" /><polygon fill="#000" fill-opacity="0.2" points="728,626 729,625 730,625 733,628 733,629 734,630 734,631 735,632 735,633 736,634 736,635 738,637 738,638 739,639 739,640 740,641 740,642 741,643 741,644 742,645 742,646 743,647 743,648 744,649 744,652 745,653 745,657 746,658 746,663 745,664 745,667 744,668 744,669 743,670 743,671 741,673 741,674 739,676 738,676 735,679 733,679 732,680 731,679 730,679 729,678 728,678 726,676 725,676 722,673 722,672 720,670 720,669 719,668 719,667 718,666 718,664 717,663 717,652 718,651 718,647 719,646 719,643 720,642 720,640 721,639 721,638 722,637 722,636 723,635 723,634 725,632 725,631 726,630 726,629 728,627" stroke="#000" stroke-width="10" /><polygon fill="#000" fill-opacity="0.2" points="312,617 313,616 314,616 316,618 316,619 319,622 319,623 320,624 320,625 321,626 321,627 322,628 322,629 323,630 323,631 324,632 324,633 325,634 325,636 326,637 326,638 327,639 327,640 328,641 328,643 329,644 329,647 330,648 330,651 331,652 331,671 330,672 330,675 329,676 329,678 328,679 328,681 327,682 327,683 326,684 326,685 325,686 325,687 323,689 323,690 318,695 317,695 313,699 312,699 311,700 310,700 309,701 308,701 307,702 306,702 305,703 303,703 302,704 300,704 299,705 295,705 294,706 282,706 281,707 278,707 277,708 276,708 275,707 275,684 276,683 276,677 277,676 277,672 278,671 278,669 279,668 279,666 280,665 280,664 281,663 281,662 282,661 282,660 283,659 283,658 285,656 285,655 286,654 286,653 288,651 288,650 291,647 291,646 295,642 295,641 299,637 299,636 303,632 303,631 305,629 305,628 308,625 308,624 310,622 310,621 311,620 311,619 312,618" stroke="#000" stroke-width="10" /><polygon fill="#000" fill-opacity="0.2" points="275,604 276,603 277,603 278,604 280,604 283,607 283,611 281,613 280,613 279,614 275,614 273,612 273,605 274,604" stroke="#000" stroke-width="10" /><polygon fill="#000" fill-opacity="0.2" points="765,590 766,589 768,589 771,592 771,593 773,595 773,596 776,599 776,600 777,601 777,602 778,603 778,604 779,605 779,608 780,609 780,614 779,615 779,617 778,618 778,619 771,626 770,626 769,627 768,627 767,628 765,628 764,627 763,627 757,621 757,620 756,619 756,616 755,615 755,610 756,609 756,606 757,605 757,603 758,602 758,601 760,599 760,598 762,596 762,595 763,594 763,593 765,591" stroke="#000" stroke-width="10" /><polygon fill="#000" fill-opacity="0.2" points="446,422 447,421 449,421 450,422 450,423 451,424 451,426 452,427 452,428 453,429 453,430 454,431 454,432 455,433 455,434 456,435 456,436 458,438 458,439 459,440 459,441 461,443 461,444 463,446 463,447 465,449 465,450 469,454 469,455 497,483 498,483 499,484 499,485 500,486 499,487 498,487 497,486 490,486 489,485 486,485 485,484 482,484 481,483 479,483 478,482 476,482 475,481 473,481 472,480 470,480 469,479 467,479 466,478 465,478 464,477 463,477 462,476 460,476 459,475 458,475 457,474 456,474 454,472 453,472 452,471 451,471 450,470 449,470 448,469 447,469 445,467 444,467 440,463 439,463 436,460 435,460 417,442 416,442 411,437 411,436 412,435 413,435 414,434 415,434 416,433 418,433 419,432 420,432 421,431 422,431 423,430 425,430 426,429 427,429 428,428 430,428 431,427 433,427 434,426 436,426 437,425 439,425 440,424 441,424 442,423 444,423 445,422" stroke="#000" stroke-width="10" /><polygon fill="#000" fill-opacity="0.2" points="597,421 598,420 600,420 601,421 602,421 603,422 604,422 605,423 606,423 607,424 608,424 609,425 610,425 611,426 612,426 613,427 614,427 615,428 616,428 617,429 618,429 619,430 620,430 621,431 622,431 623,432 624,432 625,433 626,433 627,434 628,434 629,435 631,435 633,437 633,438 630,441 629,441 629,442 624,447 623,447 614,456 613,456 608,461 607,461 603,465 602,465 599,468 598,468 596,470 595,470 594,471 593,471 592,472 591,472 590,473 589,473 588,474 587,474 586,475 585,475 583,477 582,477 581,478 580,478 579,479 577,479 576,480 575,480 574,481 572,481 571,482 569,482 568,483 566,483 565,484 562,484 561,485 558,485 557,486 554,486 553,487 549,487 548,488 547,488 546,487 549,484 549,483 557,475 558,475 573,460 573,459 579,453 579,452 581,450 581,449 584,446 584,445 586,443 586,442 588,440 588,439 590,437 590,436 591,435 591,434 592,433 592,432 593,431 593,430 594,429 594,428 595,427 595,426 596,425 596,424 597,423" stroke="#000" stroke-width="10" /><polygon fill="#000" fill-opacity="0.2" points="509,409 510,408 514,408 515,409 515,443 514,444 514,469 515,470 515,475 514,476 513,475 512,475 511,474 510,474 508,472 507,472 499,464 498,464 490,456 490,455 482,447 482,446 479,443 479,442 476,439 476,438 474,436 474,435 473,434 473,433 472,432 472,431 471,430 471,429 470,428 470,427 469,426 469,425 467,423 467,422 466,421 466,420 464,418 464,417 465,416 469,416 470,415 473,415 474,414 477,414 478,413 481,413 482,412 486,412 487,411 491,411 492,410 499,410 500,409" stroke="#000" stroke-width="10" /><polygon fill="#000" fill-opacity="0.2" points="531,407 532,406 535,406 536,407 542,407 543,408 549,408 550,409 556,409 557,410 561,410 562,411 566,411 567,412 571,412 572,413 577,413 578,414 580,414 582,416 580,418 580,419 579,420 579,421 578,422 578,423 577,424 577,425 575,427 575,428 574,429 574,430 571,433 571,434 569,436 569,437 567,439 567,440 566,441 566,442 564,444 564,445 560,449 560,450 555,455 555,456 554,457 553,457 541,469 540,469 537,472 536,472 535,473 534,473 533,474 531,474 530,473 531,472" stroke="#000" stroke-width="10" /><polygon fill="#000" fill-opacity="0.2" points="615,347 616,346 623,346 624,347 669,347 670,348 669,349 669,356 668,357 668,364 667,365 667,369 666,370 666,374 665,375 665,377 664,378 664,381 663,382 663,383 662,384 662,386 661,387 661,389 660,390 660,391 659,392 659,393 658,394 658,396 657,397 657,398 656,399 656,400 655,401 655,402 654,403 654,404 653,405 653,406 652,407 652,408 650,410 650,411 649,412 649,413 647,415 647,416 646,417 646,418 645,419 645,420 644,421 644,422 643,423 641,423 640,422 639,422 637,420 635,420 634,419 633,419 632,418 631,418 630,417 628,417 627,416 626,416 625,415 624,415 623,414 622,414 621,413 620,413 619,412 618,412 617,411 616,411 615,410 614,410 613,409 611,409 610,408 607,408 606,407 605,407 604,406 604,403 605,402 605,400 606,399 606,398 607,397 607,395 608,394 608,392 609,391 609,388 610,387 610,384 611,383 611,380 612,379 612,375 613,374 613,368 614,367 614,360 615,359" stroke="#000" stroke-width="10" /><polygon fill="#000" fill-opacity="0.2" points="531,347 532,346 533,346 534,347 583,347 584,346 598,346 600,348 599,349 599,362 598,363 598,368 597,369 597,373 596,374 596,378 595,379 595,381 594,382 594,385 593,386 593,388 592,389 592,391 591,392 591,394 590,395 590,398 589,399 589,400 588,401 587,401 586,400 584,400 583,399 581,399 580,398 577,398 576,397 572,397 571,396 567,396 566,395 562,395 561,394 556,394 555,393 548,393 547,392 532,392 531,391" stroke="#000" stroke-width="10" /><polygon fill="#000" fill-opacity="0.2" points="446,347 447,346 450,346 451,347 507,347 508,346 514,346 515,347 515,371 514,372 514,383 515,384 515,392 514,393 512,393 511,394 494,394 493,395 486,395 485,396 481,396 480,397 476,397 475,398 472,398 471,399 466,399 465,400 462,400 461,401 459,401 458,402 457,402 456,401 456,399 455,398 455,397 454,396 454,394 453,393 453,390 452,389 452,386 451,385 451,383 450,382 450,378 449,377 449,374 448,373 448,368 447,367 447,359 446,358" stroke="#000" stroke-width="10" /><polygon fill="#000" fill-opacity="0.2" points="374,347 375,346 376,347 423,347 424,346 428,346 430,348 430,355 431,356 431,364 432,365 432,372 433,373 433,378 434,379 434,383 435,384 435,387 436,388 436,390 437,391 437,394 438,395 438,396 439,397 439,399 440,400 440,401 441,402 441,404 442,405 442,406 441,407 440,407 439,408 437,408 436,409 434,409 433,410 431,410 430,411 429,411 428,412 426,412 425,413 423,413 422,414 420,414 419,415 418,415 417,416 416,416 415,417 413,417 412,418 411,418 410,419 409,419 408,420 407,420 406,421 405,421 404,422 403,422 402,423 401,423 400,424 398,422 398,421 397,420 397,419 396,418 396,417 395,416 395,415 394,414 394,413 393,412 393,410 392,409 392,408 391,407 391,406 390,405 390,404 389,403 389,402 388,401 388,400 387,399 387,398 386,397 386,396 385,395 385,394 384,393 384,391 383,390 383,388 382,387 382,386 381,385 381,383 380,382 380,380 379,379 379,377 378,376 378,374 377,373 377,370 376,369 376,365 375,364 375,357 374,356" stroke="#000" stroke-width="10" /><polygon fill="#000" fill-opacity="0.2" points="744,333 745,332 750,332 751,333 754,333 755,334 756,334 757,335 758,335 763,340 763,343 764,344 764,371 763,372 763,521 762,522 762,524 761,525 761,526 760,527 759,527 757,529 756,529 753,532 752,532 748,536 747,536 742,541 741,541 673,609 673,610 664,619 664,620 647,637 647,638 646,639 646,640 645,641 645,643 644,644 644,647 643,648 643,652 642,653 642,659 641,660 641,758 642,759 642,763 641,764 641,770 640,771 639,771 638,770 615,770 614,771 588,771 587,770 535,770 534,771 532,771 531,770 531,610 530,609 530,603 531,602 531,588 532,587 532,583 533,582 533,579 534,578 534,575 535,574 535,572 536,571 536,569 537,568 537,567 538,566 538,564 539,563 539,562 541,560 541,559 543,557 543,556 556,543 557,543 562,538 563,538 578,523 579,523 583,519 583,518 604,497 604,496 618,482 619,482 638,463 639,463 648,454 649,454 661,442 662,442 663,441 664,441 666,439 669,439 670,438 676,438 677,439 681,439 682,440 683,440 684,441 685,441 687,443 688,443 691,446 691,447 693,449 693,451 694,452 694,454 695,455 695,460 694,461 694,464 693,465 693,466 691,468 691,469 677,483 677,484 663,498 663,499 655,507 655,508 644,519 644,520 637,527 637,528 628,537 627,537 617,547 617,548 615,550 615,552 617,554 618,554 620,556 621,556 622,557 623,557 624,558 629,558 630,557 631,557 642,546 642,545 670,517 670,516 715,471 716,471 721,466 721,432 722,431 722,356 723,355 723,352 724,351 724,349 725,348 725,347 726,346 726,345 728,343 728,342 732,338 733,338 736,335 738,335 739,334 741,334 742,333" stroke="#000" stroke-width="10" /><polygon fill="#000" fill-opacity="0.2" points="289,333 290,332 298,332 299,333 301,333 302,334 303,334 304,335 306,335 308,337 309,337 315,343 315,344 317,346 317,347 318,348 318,349 319,350 319,352 320,353 320,355 321,356 321,362 322,363 322,375 321,376 321,457 322,458 322,467 323,468 323,469 325,471 326,471 333,478 334,478 339,483 340,483 345,488 346,488 353,495 354,495 379,520 379,521 405,547 405,548 413,556 414,556 416,558 417,558 418,559 422,559 423,558 425,558 426,557 427,557 428,556 429,556 430,555 431,555 431,554 432,553 432,550 431,550 430,549 430,548 429,548 426,545 425,545 420,540 419,540 416,537 416,536 415,536 414,535 414,534 402,522 402,521 386,505 386,504 352,470 352,469 349,466 349,465 348,464 348,462 347,461 347,454 348,453 348,452 349,451 349,449 350,448 350,447 356,441 357,441 359,439 360,439 361,438 363,438 364,437 374,437 375,438 377,438 378,439 379,439 380,440 381,440 382,441 383,441 385,443 386,443 393,450 394,450 413,469 413,470 414,470 415,471 415,472 421,478 422,478 436,492 436,493 447,504 447,505 487,545 488,545 496,553 497,553 500,556 500,557 504,561 504,562 506,564 506,565 507,566 507,568 508,569 508,570 509,571 509,573 510,574 510,577 511,578 511,581 512,582 512,587 513,588 513,596 514,597 514,770 513,771 510,771 509,770 484,770 483,771 430,771 429,770 410,770 409,771 406,771 405,770 405,697 404,696 404,657 403,656 403,649 402,648 402,645 401,644 401,643 399,641 399,640 390,631 390,630 379,619 379,618 325,564 324,564 290,530 290,529 289,528 289,515 290,514 290,497 289,496 289,495 288,494 286,494 286,496 285,497 285,515 284,516 284,520 283,521 283,523 282,524 281,523 281,520 280,519 280,507 279,506 279,368 280,367 280,342 281,341 281,339 282,338 282,337 284,335 285,335 287,333" stroke="#000" stroke-width="10" /><polygon fill="#000" fill-opacity="0.2" points="716,289 723,289 725,291 725,292 726,293 726,314 723,317 722,317 721,318 718,318 717,317 716,317 714,315 714,313 713,312 713,296 714,295 714,291" stroke="#000" stroke-width="10" /><polygon fill="#000" fill-opacity="0.2" points="744,277 747,277 751,281 752,281 763,292 763,295 758,300 755,300 742,287 742,286 741,285 741,284 740,283 741,282 741,281 742,280 742,279" stroke="#000" stroke-width="10" /><polygon fill="#000" fill-opacity="0.2" points="693,278 694,277 695,277 696,278 697,278 700,281 700,282 701,283 701,285 700,286 700,287 697,290 696,290 687,299 686,299 685,300 684,300 683,299 682,299 677,294 677,293 678,292 678,291 688,281 689,281 692,278" stroke="#000" stroke-width="10" /><polygon fill="#000" fill-opacity="0.2" points="583,271 584,270 586,272 586,273 587,274 587,275 588,276 588,278 589,279 589,280 590,281 590,283 591,284 591,286 592,287 592,289 593,290 593,294 594,295 594,298 595,299 595,303 596,304 596,307 597,308 597,313 598,314 598,318 599,319 599,324 600,325 600,330 599,331 532,331 531,330 531,288 530,287 530,280 531,279 547,279 548,278 554,278 555,277 560,277 561,276 565,276 566,275 570,275 571,274 574,274 575,273 577,273 578,272 581,272 582,271" stroke="#000" stroke-width="10" /><polygon fill="#000" fill-opacity="0.2" points="462,270 463,271 465,271 466,272 467,272 468,273 471,273 472,274 475,274 476,275 481,275 482,276 485,276 486,277 491,277 492,278 497,278 498,279 514,279 515,280 515,330 514,331 484,331 483,330 448,330 447,331 446,330 446,324 447,323 447,317 448,316 448,311 449,310 449,306 450,305 450,302 451,301 451,298 452,297 452,294 453,293 453,291 454,290 454,288 455,287 455,285 456,284 456,282 457,281 457,279 458,278 458,276 459,275 459,274 460,273 460,272" stroke="#000" stroke-width="10" /><polygon fill="#000" fill-opacity="0.2" points="759,254 760,253 774,253 775,254 776,254 778,256 778,257 779,258 779,261 775,265 751,265 749,263 749,257 750,256 750,255 751,254" stroke="#000" stroke-width="10" /><polygon fill="#000" fill-opacity="0.2" points="669,254 670,253 686,253 687,254 689,254 690,255 690,256 691,257 691,262 690,263 690,264 689,265 668,265 665,262 665,258 666,257 666,256 668,254" stroke="#000" stroke-width="10" /><polygon fill="#000" fill-opacity="0.2" points="637,249 640,252 640,253 641,254 641,255 643,257 643,258 645,260 645,261 647,263 647,264 648,265 648,266 650,268 650,269 651,270 651,271 652,272 652,273 654,275 654,276 655,277 655,278 656,279 656,281 657,282 657,283 658,284 658,286 659,287 659,289 660,290 660,291 661,292 661,294 662,295 662,297 663,298 663,300 664,301 664,303 665,304 665,307 666,308 666,312 667,313 667,317 668,318 668,323 669,324 669,329 670,330 669,331 616,331 615,330 615,320 614,319 614,313 613,312 613,307 612,306 612,302 611,301 611,298 610,297 610,295 609,294 609,291 608,290 608,287 607,286 607,284 606,283 606,281 605,280 605,278 604,277 604,276 603,275 603,273 602,272 602,271 601,270 601,269 600,268 600,266 601,265 602,265 603,264 605,264 606,263 608,263 609,262 610,262 611,261 613,261 614,260 616,260 617,259 619,259 620,258 621,258 622,257 624,257 625,256 626,256 627,255 628,255 629,254 630,254 632,252 633,252 634,251 635,251" stroke="#000" stroke-width="10" /><polygon fill="#000" fill-opacity="0.2" points="328,250 329,249 330,249 334,253 334,254 336,256 336,257 338,259 338,260 339,261 339,262 340,263 340,264 341,265 341,271 340,272 340,273 339,274 339,275 335,279 334,279 333,280 331,280 330,281 317,281 315,279 315,276 314,275 314,268 315,267 315,264 316,263 316,262 317,261 317,260 327,250" stroke="#000" stroke-width="10" /><polygon fill="#000" fill-opacity="0.2" points="404,248 405,247 406,247 407,248 408,248 411,251 412,251 414,253 415,253 416,254 417,254 418,255 419,255 420,256 421,256 422,257 423,257 424,258 426,258 427,259 429,259 430,260 432,260 433,261 435,261 436,262 437,262 438,263 440,263 441,264 443,264 444,265 445,265 446,266 446,267 445,268 445,269 444,270 444,271 443,272 443,273 442,274 442,275 441,276 441,278 440,279 440,281 439,282 439,284 438,285 438,287 437,288 437,290 436,291 436,295 435,296 435,299 434,300 434,304 433,305 433,309 432,310 432,315 431,316 431,327 430,328 430,330 429,331 391,331 390,330 375,330 374,329 374,323 375,322 375,316 376,315 376,312 377,311 377,307 378,306 378,304 379,303 379,300 380,299 380,297 381,296 381,293 382,292 382,291 383,290 383,288 384,287 384,285 385,284 385,283 386,282 386,281 387,280 387,278 388,277 388,276 389,275 389,274 391,272 391,271 392,270 392,269 393,268 393,267 395,265 395,264 396,263 396,262 398,260 398,259 399,258 399,257 401,255 401,254 402,253 402,252 403,251 403,250 404,249" stroke="#000" stroke-width="10" /><polygon fill="#000" fill-opacity="0.2" points="714,246 715,245 724,245 725,246 726,246 727,247 728,247 732,251 732,252 733,253 733,254 734,255 734,257 735,258 735,262 734,263 734,266 732,268 732,269 727,274 725,274 724,275 716,275 715,274 714,274 712,272 711,272 708,269 708,268 707,267 707,266 706,265 706,263 705,262 705,258 706,257 706,255 707,254 707,252 713,246" stroke="#000" stroke-width="10" /><polygon fill="#000" fill-opacity="0.2" points="755,219 756,218 758,218 759,219 760,219 763,222 763,223 764,224 764,225 756,233 755,233 746,242 745,242 743,240 742,240 739,237 739,234 741,232 741,231 745,227 746,227 754,219" stroke="#000" stroke-width="10" /><polygon fill="#000" fill-opacity="0.2" points="682,218 686,218 702,234 696,240 693,240 691,238 690,238 682,230 681,230 680,229 680,228 677,225 677,224 678,223 678,222" stroke="#000" stroke-width="10" /><polygon fill="#000" fill-opacity="0.2" points="717,206 718,205 722,205 726,209 726,227 725,228 725,229 723,231 722,231 721,232 716,232 714,230 714,229 713,228 713,210 714,209 714,208 716,206" stroke="#000" stroke-width="10" /><polygon fill="#000" fill-opacity="0.2" points="511,206 512,205 514,205 515,206 515,263 514,264 508,264 507,263 499,263 498,262 492,262 491,261 486,261 485,260 481,260 480,259 476,259 475,258 473,258 472,257 470,257 469,256 470,255 470,254 471,253 471,252 472,251 472,250 474,248 474,247 476,245 476,244 477,243 477,242 479,240 479,239 483,235 483,234 486,231 486,230 491,225 491,224 505,210 506,210 510,206" stroke="#000" stroke-width="10" /><polygon fill="#000" fill-opacity="0.2" points="530,205 531,204 532,204 533,205 534,205 536,207 537,207 542,212 543,212 550,219 550,220 556,226 556,227 560,231 560,232 563,235 563,236 567,240 567,241 569,243 569,244 572,247 572,248 574,250 574,251 576,253 576,254 577,255 576,256 575,256 574,257 573,257 572,258 569,258 568,259 565,259 564,260 560,260 559,261 554,261 553,262 547,262 546,263 540,263 539,264 531,264 530,263 531,262 531,206" stroke="#000" stroke-width="10" /><polygon fill="#000" fill-opacity="0.2" points="514,205 515,204 516,205 515,206" stroke="#000" stroke-width="10" /><polygon fill="#000" fill-opacity="0.2" points="547,194 548,193 551,193 552,194 555,194 556,195 559,195 560,196 562,196 563,197 565,197 566,198 568,198 569,199 571,199 572,200 573,200 574,201 576,201 577,202 578,202 579,203 581,203 582,204 583,204 584,205 585,205 586,206 587,206 588,207 589,207 591,209 592,209 593,210 594,210 596,212 597,212 599,214 600,214 602,216 603,216 605,218 606,218 609,221 610,221 615,226 616,226 622,232 623,232 627,236 626,237 625,237 624,238 623,238 622,239 621,239 620,240 619,240 618,241 617,241 616,242 615,242 614,243 613,243 612,244 611,244 610,245 608,245 607,246 606,246 605,247 604,247 603,248 601,248 600,249 598,249 597,250 595,250 594,251 592,251 590,249 590,248 589,247 589,246 588,245 588,244 587,243 587,242 585,240 585,239 583,237 583,236 581,234 581,233 578,230 578,229 573,224 573,223 569,219 569,218 565,214 565,213 560,208 560,207" stroke="#000" stroke-width="10" /><polygon fill="#000" fill-opacity="0.2" points="492,194 493,193 499,193 500,194 494,200 493,200 487,206 486,206 477,215 477,216 472,221 472,222 469,225 469,226 467,228 467,229 464,232 464,233 462,235 462,236 461,237 461,238 459,240 459,241 457,243 457,244 456,245 456,246 455,247 455,248 454,249 454,251 453,252 452,251 451,251 450,250 448,250 447,249 446,249 445,248 442,248 441,247 440,247 439,246 437,246 436,245 435,245 434,244 432,244 431,243 430,243 428,241 427,241 426,240 425,240 424,239 423,239 422,238 421,238 420,237 419,237 417,235 429,223 430,223 433,220 434,220 436,218 437,218 440,215 441,215 442,214 443,214 445,212 446,212 448,210 449,210 450,209 451,209 453,207 455,207 456,206 457,206 458,205 459,205 460,204 462,204 463,203 465,203 466,202 468,202 469,201 471,201 472,200 474,200 475,199 477,199 478,198 480,198 481,197 483,197 484,196 486,196 487,195 489,195 490,194" stroke="#000" stroke-width="10" /><polygon fill="#000" fill-opacity="0.2" points="0,0 0,1023 1023,1023 1023,0" stroke="#000" stroke-width="10" /><polygon fill="#000" fill-opacity="0.2" points="451,149 452,148 507,148 508,149 539,149 540,148 551,148 552,149 587,149 588,148 595,148 596,149 604,149 605,148 606,149 741,149 742,150 750,150 751,151 756,151 757,152 760,152 761,153 764,153 765,154 767,154 768,155 770,155 771,156 772,156 773,157 775,157 776,158 778,158 779,159 781,159 782,160 783,160 784,161 785,161 786,162 787,162 788,163 789,163 790,164 791,164 792,165 793,165 794,166 795,166 796,167 797,167 798,168 799,168 800,169 801,169 803,171 804,171 807,174 808,174 810,176 811,176 816,181 817,181 828,192 828,193 832,197 832,198 834,200 834,201 836,203 836,204 838,206 838,207 840,209 840,210 841,211 841,212 842,213 842,214 844,216 844,217 845,218 845,219 846,220 846,221 847,222 847,223 848,224 848,226 849,227 849,229 850,230 850,231 851,232 851,234 852,235 852,237 853,238 853,241 854,242 854,244 855,245 855,248 856,249 856,253 857,254 857,258 858,259 858,267 859,268 859,343 858,344 858,355 859,356 859,457 858,458 858,465 859,466 859,473 858,474 858,499 859,500 859,639 858,640 858,687 859,688 859,708 858,709 858,717 857,718 857,723 856,724 856,727 855,728 855,731 854,732 854,735 853,736 853,738 852,739 852,741 851,742 851,744 850,745 850,746 849,747 849,749 848,750 848,751 847,752 847,753 846,754 846,755 845,756 845,757 844,758 844,759 843,760 843,761 841,763 841,764 839,766 839,767 838,768 838,769 837,770 837,771 834,774 834,775 829,780 829,781 811,799 810,799 808,801 807,801 804,804 803,804 802,805 801,805 799,807 798,807 797,808 796,808 795,809 794,809 793,810 792,810 791,811 790,811 789,812 788,812 787,813 786,813 785,814 783,814 782,815 781,815 780,816 778,816 777,817 776,817 775,818 773,818 772,819 770,819 769,820 766,820 765,821 762,821 761,822 758,822 757,823 753,823 752,824 748,824 747,825 456,825 455,826 445,826 444,825 364,825 363,826 350,826 349,825 303,825 302,824 295,824 294,823 291,823 290,822 286,822 285,821 283,821 282,820 279,820 278,819 276,819 275,818 273,818 272,817 270,817 269,816 267,816 266,815 265,815 264,814 263,814 262,813 261,813 260,812 259,812 258,811 257,811 256,810 255,810 254,809 253,809 252,808 251,808 250,807 249,807 247,805 246,805 244,803 243,803 240,800 239,800 237,798 236,798 231,793 230,793 222,785 222,784 218,780 218,779 214,775 214,774 212,772 212,771 210,769 210,768 208,766 208,765 206,763 206,762 205,761 205,760 204,759 204,758 203,757 203,756 202,755 202,754 201,753 201,752 200,751 200,750 199,749 199,747 198,746 198,745 197,744 197,743 196,742 196,740 195,739 195,737 194,736 194,734 193,733 193,730 192,729 192,726 191,725 191,721 190,720 190,713 189,712 189,263 190,262 190,256 191,255 191,249 192,248 192,245 193,244 193,241 194,240 194,238 195,237 195,234 196,233 196,231 197,230 197,229 198,228 198,226 199,225 199,224 200,223 200,222 201,221 201,220 202,219 202,218 203,217 203,216 204,215 204,214 205,213 205,212 207,210 207,209 209,207 209,206 211,204 211,203 213,201 213,200 219,194 219,193 229,183 230,183 236,177 237,177 240,174 241,174 242,173 243,173 245,171 246,171 248,169 249,169 251,167 252,167 253,166 254,166 256,164 257,164 258,163 259,163 260,162 262,162 263,161 264,161 265,160 266,160 267,159 269,159 270,158 272,158 273,157 275,157 276,156 278,156 279,155 281,155 282,154 284,154 285,153 288,153 289,152 292,152 293,151 297,151 298,150 305,150 306,149" stroke="#000" stroke-width="10" /></svg>