<?xml version="1.0" encoding="UTF-8" standalone="no"?>
<!-- Created with Inkscape (http://www.inkscape.org/) -->

<svg
   width="40.216667mm"
   height="41.274998mm"
   viewBox="0 0 40.216667 41.274998"
   version="1.1"
   id="svg1"
   inkscape:version="1.3.2 (091e20ef0f, 2023-11-25)"
   sodipodi:docname="cloudRain.svg"
   xmlns:inkscape="http://www.inkscape.org/namespaces/inkscape"
   xmlns:sodipodi="http://sodipodi.sourceforge.net/DTD/sodipodi-0.dtd"
   xmlns="http://www.w3.org/2000/svg"
   xmlns:svg="http://www.w3.org/2000/svg">
  <sodipodi:namedview
     id="namedview1"
     pagecolor="#ffffff"
     bordercolor="#000000"
     borderopacity="0.25"
     inkscape:showpageshadow="2"
     inkscape:pageopacity="0.0"
     inkscape:pagecheckerboard="0"
     inkscape:deskcolor="#d1d1d1"
     inkscape:document-units="mm"
     inkscape:zoom="0.79731341"
     inkscape:cx="132.94647"
     inkscape:cy="153.64096"
     inkscape:window-width="1920"
     inkscape:window-height="1141"
     inkscape:window-x="0"
     inkscape:window-y="0"
     inkscape:window-maximized="1"
     inkscape:current-layer="layer1" />
  <defs
     id="defs1" />
  <g
     inkscape:label="Ebene 1"
     inkscape:groupmode="layer"
     id="layer1"
     transform="translate(-69.585417,-107.68542)">
    <polygon
       fill="#000000"
       fill-opacity="0.4"
       points="522,438 520,440 520,442 519,443 519,445 518,446 518,450 519,451 519,453 520,454 520,455 522,457 522,458 523,458 525,460 526,460 527,461 536,461 537,460 538,460 539,459 540,459 542,457 542,456 544,454 544,451 545,450 545,446 544,445 544,443 543,442 543,441 542,440 542,439 541,438 541,437 540,436 540,435 538,433 538,432 536,430 536,429 532,425 531,425 527,429 527,430 525,432 525,433 523,435 523,436 522,437 "
       stroke="#000000"
       stroke-width="5"
       id="polygon1"
       transform="matrix(0.26458333,0,0,0.26458333,-40.084373,19.976042)" />
    <polygon
       fill="#000000"
       fill-opacity="0.4"
       points="482,438 481,439 481,440 480,441 480,442 479,443 479,453 480,454 480,455 485,460 486,460 487,461 496,461 497,460 498,460 499,459 500,459 503,456 503,455 504,454 504,453 505,452 505,445 504,444 504,442 503,441 503,440 502,439 502,438 501,437 501,436 500,435 500,434 498,432 498,431 495,428 495,427 494,426 493,426 492,425 491,425 488,428 488,429 486,431 486,432 484,434 484,435 482,437 "
       stroke="#000000"
       stroke-width="5"
       id="polygon2"
       transform="matrix(0.26458333,0,0,0.26458333,-40.084373,19.976042)" />
    <polygon
       fill="#000000"
       fill-opacity="0.4"
       points="444,435 443,436 443,437 442,438 442,439 441,440 441,441 440,442 440,443 439,444 439,452 440,453 440,454 441,455 441,456 444,459 445,459 446,460 447,460 448,461 457,461 458,460 459,460 464,455 464,454 465,453 465,444 464,443 464,441 463,440 463,439 462,438 462,437 460,435 460,434 458,432 458,431 456,429 456,428 453,425 452,425 451,426 450,426 449,427 449,428 446,431 446,432 444,434 "
       stroke="#000000"
       stroke-width="5"
       id="polygon3"
       transform="matrix(0.26458333,0,0,0.26458333,-40.084373,19.976042)" />
    <polygon
       fill="#000000"
       fill-opacity="0.4"
       points="470,362 469,363 469,364 466,367 466,368 465,369 465,370 464,371 464,374 463,375 463,377 462,378 461,377 460,377 459,376 454,376 453,377 452,377 451,378 450,378 449,379 449,380 447,382 443,382 442,383 441,383 436,388 436,389 435,390 435,396 436,397 436,399 438,401 438,402 439,402 441,404 442,404 443,405 539,405 540,404 541,404 545,400 545,399 546,398 546,390 545,389 545,388 542,385 541,385 540,384 538,384 537,383 534,383 533,384 532,383 532,382 531,381 531,380 530,379 530,378 529,377 529,376 524,371 523,371 522,370 521,370 520,369 518,369 517,368 509,368 508,369 506,369 505,370 504,370 503,369 503,368 501,366 501,365 496,360 495,360 494,359 493,359 492,358 490,358 489,357 480,357 479,358 477,358 476,359 475,359 474,360 473,360 471,362 "
       stroke="#000000"
       stroke-width="5"
       id="polygon19"
       transform="matrix(0.26458333,0,0,0.26458333,-40.084373,19.976042)" />
    <polygon
       fill="#000000"
       fill-opacity="0.4"
       points="558,337 560,339 560,340 562,342 562,343 563,344 563,347 564,348 564,472 563,473 563,476 562,477 562,478 557,483 556,483 555,484 553,484 552,485 428,485 427,484 426,484 425,483 424,483 419,478 419,477 418,476 418,475 417,474 417,346 418,345 418,343 419,342 419,341 423,337 424,337 425,336 426,336 427,335 430,335 431,334 550,334 551,335 554,335 555,336 556,336 557,337 "
       stroke="#000000"
       stroke-width="5"
       id="polygon36"
       transform="matrix(0.26458333,0,0,0.26458333,-40.084373,19.976042)" />
  </g>
</svg>
