<?xml version="1.0" encoding="utf-8" ?>
<svg baseProfile="tiny" height="1024" version="1.2" width="1024" xmlns="http://www.w3.org/2000/svg" xmlns:ev="http://www.w3.org/2001/xml-events" xmlns:xlink="http://www.w3.org/1999/xlink"><defs /><polygon fill="#000" fill-opacity="0.2" points="760,725 759,726 757,726 756,727 754,727 752,729 751,729 749,731 748,731 747,732 747,733 744,736 744,737 743,738 743,745 744,745 745,746 749,746 750,747 753,747 754,746 754,745 755,744 755,743 756,742 756,741 757,740 757,739 760,736 766,736 767,737 768,737 770,739 770,740 771,741 771,747 770,748 770,749 768,751 768,752 759,761 758,761 743,776 743,777 741,779 741,780 739,782 739,784 738,785 738,789 784,789 784,786 785,785 785,779 784,778 784,776 761,776 760,775 764,771 765,771 771,765 772,765 781,756 781,755 782,754 782,753 783,752 783,750 784,749 784,742 783,741 783,737 782,736 782,735 780,733 780,732 776,728 775,728 774,727 773,727 772,726 769,726 768,725" stroke="#000" stroke-width="10" /><polygon fill="#000" fill-opacity="0.2" points="691,673 690,674 685,674 684,675 682,675 681,676 679,676 678,677 677,677 676,678 675,678 673,680 672,680 669,683 668,683 666,685 666,686 662,690 662,691 660,693 660,694 659,695 659,696 658,697 658,699 657,700 657,703 656,704 656,708 655,709 655,721 654,722 654,727 655,728 655,736 656,737 656,741 657,742 657,745 658,746 658,748 659,749 659,750 660,751 660,752 661,753 661,754 664,757 664,758 668,762 669,762 672,765 673,765 675,767 676,767 677,768 678,768 679,769 681,769 682,770 684,770 685,771 689,771 690,772 705,772 706,771 709,771 710,770 712,770 713,769 714,769 715,768 716,768 717,767 718,767 720,765 721,765 729,757 729,756 730,755 730,754 731,753 731,752 732,751 732,750 733,749 733,747 734,746 734,744 735,743 735,737 736,736 736,708 735,707 735,703 734,702 734,700 733,699 733,697 732,696 732,695 731,694 731,693 730,692 730,691 728,689 728,688 720,680 719,680 718,679 717,679 716,678 715,678 714,677 713,677 712,676 711,676 710,675 708,675 707,674 702,674 701,673" stroke="#000" stroke-width="10" /><polygon fill="#000" fill-opacity="0.2" points="691,689 692,688 697,688 698,689 701,689 702,690 703,690 704,691 705,691 706,692 707,692 712,697 712,698 713,699 713,701 714,702 714,705 715,706 715,734 714,735 714,740 713,741 713,743 712,744 712,745 711,746 711,747 707,751 706,751 704,753 702,753 701,754 691,754 690,753 688,753 687,752 686,752 685,751 684,751 681,748 681,747 679,745 679,744 678,743 678,742 677,741 677,739 676,738 676,734 675,733 675,724 674,723 674,712 675,711 675,705 676,704 676,703 677,702 677,700 679,698 679,697 685,691 686,691 687,690 688,690 689,689" stroke="#000" stroke-width="10" /><polygon fill="#000" fill-opacity="0.2" points="608,664 607,665 602,665 601,666 598,666 597,667 595,667 594,668 593,668 592,669 591,669 590,670 589,670 587,672 586,672 583,675 582,675 581,676 581,677 577,681 577,682 575,684 575,685 574,686 574,687 573,688 573,690 572,691 572,692 571,693 571,695 570,696 570,699 569,700 569,705 568,706 568,715 567,716 567,723 568,724 568,732 569,733 569,738 570,739 570,742 571,743 571,745 572,746 572,747 573,748 573,749 574,750 574,751 576,753 576,754 585,763 586,763 587,764 588,764 590,766 591,766 592,767 593,767 594,768 596,768 597,769 598,769 599,770 601,770 602,771 607,771 608,772 621,772 622,771 627,771 628,770 630,770 631,769 632,769 633,768 634,768 635,767 636,767 637,766 638,766 640,764 641,764 643,762 644,762 648,758 648,756 647,755 647,754 646,753 646,752 643,749 643,748 642,748 641,747 641,746 640,746 638,744 636,744 631,749 630,749 629,750 628,750 627,751 625,751 624,752 621,752 620,753 613,753 612,754 611,754 610,753 605,753 604,752 603,752 602,751 601,751 599,749 598,749 595,746 595,745 593,743 593,742 591,740 591,738 590,737 590,733 589,732 589,722 588,721 588,714 589,713 589,705 590,704 590,701 591,700 591,697 592,696 592,695 594,693 594,692 600,686 601,686 603,684 605,684 606,683 608,683 609,682 618,682 619,683 622,683 623,684 624,684 625,685 626,685 627,686 628,686 629,687 630,687 632,689 633,689 636,692 637,692 638,693 640,693 641,692 641,691 643,689 643,688 645,686 645,685 647,683 647,682 648,681 648,678 647,677 647,676 644,673 643,673 640,670 639,670 638,669 637,669 636,668 635,668 634,667 633,667 632,666 630,666 629,665 625,665 624,664" stroke="#000" stroke-width="10" /><polygon fill="#000" fill-opacity="0.2" points="357,647 353,651 353,652 352,653 352,688 353,689 355,689 356,690 387,690 389,688 389,652 388,651 388,649 386,647" stroke="#000" stroke-width="10" /><polygon fill="#000" fill-opacity="0.2" points="279,646 278,647 276,647 273,650 273,651 272,652 272,686 273,687 273,688 274,689 276,689 277,690 300,690 301,689 308,689 309,688 310,688 310,653 309,652 309,649 308,648 307,648 306,647 302,647 301,646" stroke="#000" stroke-width="10" /><polygon fill="#000" fill-opacity="0.2" points="438,535 437,536 435,536 432,539 432,540 431,541 431,549 430,550 430,574 431,575 431,576 432,576 433,577 465,577 466,576 466,575 467,574 467,564 466,563 466,543 465,542 465,538 464,537 463,537 462,536 441,536 440,535" stroke="#000" stroke-width="10" /><polygon fill="#000" fill-opacity="0.2" points="359,535 358,536 355,536 353,538 353,539 352,540 352,546 351,547 351,575 352,576 354,576 355,577 386,577 387,576 388,576 388,575 389,574 389,565 388,564 388,540 387,539 387,538 386,537 384,537 383,536 361,536 360,535" stroke="#000" stroke-width="10" /><polygon fill="#000" fill-opacity="0.2" points="278,535 277,536 276,536 273,539 273,540 272,541 272,574 274,576 275,576 276,577 307,577 308,576 309,576 310,575 310,555 309,554 309,538 307,536 297,536 296,535" stroke="#000" stroke-width="10" /><polygon fill="#000" fill-opacity="0.2" points="516,534 515,535 512,535 510,537 510,539 509,540 509,553 508,554 508,572 509,573 509,575 510,576 512,576 513,577 543,577 544,576 545,576 545,552 544,551 544,537 543,536 538,536 537,535 522,535 521,534" stroke="#000" stroke-width="10" /><polygon fill="#000" fill-opacity="0.2" points="768,503 767,504 765,504 763,506 762,506 759,509 758,509 755,512 754,512 750,516 749,516 748,517 748,518 741,525 741,526 740,527 754,541 755,541 761,547 762,547 768,553 769,553 775,559 775,548 774,547 774,539 773,538 773,531 772,530 772,524 771,523 771,517 770,516 770,506 769,505 769,503" stroke="#000" stroke-width="10" /><polygon fill="#000" fill-opacity="0.2" points="686,503 686,509 685,510 685,519 684,520 684,531 683,532 683,542 682,543 682,553 681,554 681,559 685,555 686,555 715,526 716,526 716,525 711,520 710,520 708,518 707,518 704,515 703,515 699,511 698,511 695,508 694,508 692,506 691,506 689,504 688,504 687,503" stroke="#000" stroke-width="10" /><polygon fill="#000" fill-opacity="0.2" points="276,477 273,480 273,481 272,482 272,513 274,515 276,515 277,516 308,516 309,515 310,515 310,481 309,480 309,479 307,477" stroke="#000" stroke-width="10" /><polygon fill="#000" fill-opacity="0.2" points="512,476 510,478 510,479 509,480 509,514 510,515 514,515 515,516 544,516 545,515 545,512 546,511 546,500 545,499 545,480 544,479 544,478 542,476" stroke="#000" stroke-width="10" /><polygon fill="#000" fill-opacity="0.2" points="436,476 435,477 432,477 432,478 431,479 431,514 433,516 466,516 466,514 467,513 467,494 466,493 466,481 465,480 465,478 464,477 452,477 451,476" stroke="#000" stroke-width="10" /><polygon fill="#000" fill-opacity="0.2" points="355,476 353,478 353,479 352,480 352,515 353,515 354,516 387,516 389,514 389,484 388,483 388,480 387,479 387,478 386,477 377,477 376,476" stroke="#000" stroke-width="10" /><polygon fill="#000" fill-opacity="0.2" points="727,451 694,484 694,485 693,486 693,487 696,490 697,490 699,492 700,492 701,493 702,493 705,496 706,496 717,507 718,507 726,515 728,515 738,505 738,504 743,499 744,499 745,498 746,498 749,495 750,495 751,494 752,494 754,492 755,492 756,491 757,491 758,490 759,490 760,489 761,489 763,487 755,479 755,478 737,460 737,459 729,451" stroke="#000" stroke-width="10" /><polygon fill="#000" fill-opacity="0.2" points="761,421 760,422 759,422 756,425 755,425 749,431 748,431 738,441 738,443 739,443 742,446 743,446 746,449 746,450 756,460 757,460 760,463 761,463 763,465 764,465 765,466 765,467 765,458 764,457 764,448 763,447 763,439 762,438 762,422" stroke="#000" stroke-width="10" /><polygon fill="#000" fill-opacity="0.2" points="693,421 693,433 692,434 692,443 691,444 691,457 690,458 690,466 691,466 695,462 696,462 705,453 706,453 708,451 708,450 712,446 712,445 715,442 715,439 712,436 711,436 708,433 707,433 695,421" stroke="#000" stroke-width="10" /><polygon fill="#000" fill-opacity="0.2" points="728,372 726,374 726,375 723,378 723,379 707,395 707,396 704,399 703,399 700,402 700,403 699,404 700,405 700,406 702,408 703,408 709,414 710,414 717,421 718,421 724,427 724,428 726,430 728,430 731,427 732,427 734,425 734,424 736,422 737,422 749,410 750,410 752,408 753,408 754,407 755,407 756,406 757,406 757,405 738,386 738,385 735,382 735,381 733,379 733,378 730,375 730,374 729,373 729,372" stroke="#000" stroke-width="10" /><polygon fill="#000" fill-opacity="0.2" points="751,348 750,349 749,349 739,359 739,360 738,361 738,364 754,380 755,380 756,381 756,370 755,369 755,362 754,361 754,348" stroke="#000" stroke-width="10" /><polygon fill="#000" fill-opacity="0.2" points="700,346 700,351 699,352 699,361 698,362 698,375 697,376 697,383 698,382 699,382 702,379 703,379 707,375 707,374 711,370 711,369 716,364 716,361 704,349 703,349" stroke="#000" stroke-width="10" /><polygon fill="#000" fill-opacity="0.2" points="706,330 706,331 709,334 709,335 710,336 711,336 723,348 723,349 725,351 728,351 748,331 707,331" stroke="#000" stroke-width="10" /><polygon fill="#000" fill-opacity="0.2" points="0,0 0,1023 1023,1023 1023,0" stroke="#000" stroke-width="10" /><polygon fill="#000" fill-opacity="0.2" points="637,317 638,316 640,316 641,317 641,321 642,322 642,360 643,361 643,385 644,386 644,415 645,416 645,460 646,461 646,491 647,492 647,525 648,526 648,559 649,560 649,592 648,593 632,593 631,592 592,592 591,593 588,593 587,594 586,594 584,596 584,599 583,600 583,603 584,604 587,604 588,605 615,605 616,606 647,606 648,605 694,605 695,604 763,604 764,605 799,605 800,606 800,629 799,630 799,662 798,663 798,675 799,676 799,703 798,704 798,722 799,723 799,777 800,778 800,797 799,798 795,798 794,799 791,799 790,800 789,800 786,803 785,803 783,805 782,805 781,806 780,806 778,808 777,808 775,810 774,810 771,813 770,813 768,815 765,815 764,816 756,816 755,817 588,817 587,816 564,816 563,817 532,817 531,816 531,806 532,805 532,766 531,765 531,692 530,691 530,680 529,679 529,678 527,676 510,676 509,675 454,675 453,676 450,676 449,677 448,677 447,678 447,724 446,725 446,770 447,771 447,799 446,800 446,811 447,812 447,815 445,817 420,817 419,816 416,816 415,817 262,817 261,816 252,816 251,815 248,815 247,814 245,814 244,813 243,813 242,812 241,812 240,811 239,811 238,810 237,810 236,809 234,809 233,808 232,808 231,807 229,807 228,806 228,720 227,719 227,660 228,659 228,652 227,651 227,412 228,411 228,392 227,391 227,357 228,356 229,356 230,357 231,357 234,360 235,360 237,362 238,362 239,363 240,363 242,365 243,365 244,366 245,366 247,368 248,368 249,369 250,369 252,371 253,371 254,372 255,372 256,373 257,373 258,374 259,374 261,376 262,376 264,378 265,378 266,379 267,379 269,381 270,381 271,382 272,382 273,383 274,383 276,385 277,385 278,386 279,386 280,387 281,387 283,389 284,389 285,390 286,390 289,393 290,393 292,395 293,395 294,396 295,396 297,398 298,398 299,399 301,399 303,401 304,401 305,402 306,402 307,403 308,403 310,405 311,405 312,406 313,406 314,407 315,407 317,409 318,409 320,411 321,411 322,412 323,412 324,413 325,413 326,414 327,414 329,416 330,416 331,417 332,417 334,419 335,419 336,420 337,420 339,422 340,422 341,423 342,423 344,425 345,425 346,426 347,426 348,427 349,427 350,428 352,428 352,427 353,426 353,382 352,381 352,375 353,374 355,374 356,375 358,375 359,376 360,376 361,377 362,377 364,379 365,379 367,381 368,381 369,382 370,382 372,384 373,384 374,385 375,385 376,386 377,386 378,387 379,387 380,388 381,388 382,389 383,389 384,390 385,390 386,391 387,391 389,393 390,393 391,394 392,394 393,395 394,395 396,397 397,397 398,398 399,398 400,399 401,399 403,401 404,401 405,402 406,402 407,403 408,403 410,405 411,405 412,406 413,406 415,408 416,408 417,409 418,409 420,411 421,411 422,412 423,412 424,413 425,413 427,415 428,415 429,416 430,416 431,417 432,417 433,418 434,418 435,419 436,419 438,421 439,421 440,422 441,422 442,423 443,423 444,424 445,424 447,426 448,426 449,427 450,427 451,428 452,428 453,429 454,429 455,430 456,430 458,432 459,432 461,434 462,434 463,435 464,435 465,436 468,436 469,435 469,425 468,424 468,395 469,394 469,382 468,381 468,377 469,376 471,376 472,377 473,377 475,379 476,379 478,381 479,381 480,382 481,382 483,384 484,384 485,385 486,385 488,387 489,387 490,388 491,388 492,389 493,389 495,391 496,391 497,392 498,392 499,393 500,393 501,394 502,394 503,395 504,395 505,396 506,396 508,398 509,398 510,399 511,399 513,401 514,401 517,404 518,404 520,406 521,406 522,407 523,407 525,409 526,409 528,411 529,411 530,412 531,412 533,414 534,414 535,415 536,415 538,417 539,417 541,419 542,419 543,420 544,420 545,421 546,421 548,423 549,423 551,425 552,425 554,427 555,427 556,428 557,428 558,429 559,429 561,431 562,431 563,432 564,432 565,433 566,433 567,434 568,434 569,435 570,435 572,437 573,437 575,439 576,439 578,441 579,441 581,443 582,443 584,445 585,445 587,447 588,447 590,449 591,449 593,451 594,451 596,453 597,453 598,454 599,454 600,455 601,455 602,456 604,456 605,457 611,457 611,456 610,456 607,453 606,453 593,440 592,440 591,439 590,439 589,438 588,438 587,437 586,437 585,436 583,436 580,433 580,413 581,412 581,382 582,381 582,348 583,347 583,328 584,327 584,319 585,318 588,318 589,317" stroke="#000" stroke-width="10" /><polygon fill="#000" fill-opacity="0.2" points="686,313 687,312 688,312 689,313 717,313 718,312 755,312 756,313 765,313 766,314 766,319 767,320 767,329 768,330 768,339 769,340 769,349 770,350 770,361 771,362 771,373 772,374 772,381 773,382 773,390 774,391 774,401 775,402 775,411 776,412 776,420 777,421 777,427 778,428 778,434 779,435 779,443 780,444 780,453 781,454 781,461 782,462 782,470 783,471 783,478 784,479 784,487 785,488 785,498 786,499 786,507 787,508 787,516 788,517 788,523 789,524 789,531 790,532 790,539 791,540 791,549 792,550 792,558 793,559 793,568 794,569 794,580 795,581 795,592 794,593 793,592 786,592 785,593 780,593 779,592 779,591 780,590 779,589 779,587 778,586 778,585 771,578 771,577 754,560 754,559 752,557 751,557 745,551 744,551 739,546 738,546 735,543 735,542 728,535 716,547 715,547 700,562 700,563 678,585 678,586 677,587 677,592 676,593 673,593 672,592 669,592 668,593 661,593 660,592 661,591 661,585 662,584 662,579 663,578 663,572 664,571 664,564 665,563 665,552 666,551 666,541 667,540 667,530 668,529 668,518 669,517 669,505 670,504 670,496 671,495 671,487 672,486 672,480 673,479 673,471 674,470 674,460 675,459 675,447 676,446 676,435 677,434 677,426 678,425 678,418 679,417 679,407 680,406 680,398 681,397 681,386 682,385 682,372 683,371 683,354 684,353 684,341 685,340 685,315 686,314" stroke="#000" stroke-width="10" /><polygon fill="#000" fill-opacity="0.2" points="436,283 437,282 444,282 445,283 447,283 448,284 449,284 450,285 451,285 455,289 455,290 456,291 456,292 457,293 457,303 456,304 456,305 455,306 455,307 453,309 453,310 452,311 451,311 449,313 448,313 447,314 445,314 444,315 438,315 437,314 435,314 434,313 433,313 427,307 427,306 426,305 426,303 425,302 425,294 426,293 426,291 428,289 428,288 431,285 432,285 434,283" stroke="#000" stroke-width="10" /><polygon fill="#000" fill-opacity="0.2" points="586,266 587,267 619,267 620,266 640,266 641,267 641,281 642,282 642,294 643,295 642,296 631,296 630,297 589,297 588,296 584,296 583,295 583,286 584,285 584,268" stroke="#000" stroke-width="10" /><polygon fill="#000" fill-opacity="0.2" points="483,229 484,228 492,228 493,229 496,229 497,230 499,230 500,231 501,231 503,233 504,233 510,239 510,240 512,242 512,244 513,245 513,248 514,249 514,255 513,256 513,259 512,260 512,261 511,262 511,263 509,265 509,266 505,270 504,270 502,272 501,272 500,273 499,273 498,274 496,274 495,275 483,275 482,274 480,274 479,273 478,273 477,272 476,272 469,265 469,264 468,263 468,262 467,261 467,259 466,258 466,246 467,245 467,242 468,241 468,240 469,239 469,238 476,231 477,231 478,230 479,230 480,229" stroke="#000" stroke-width="10" /><polygon fill="#000" fill-opacity="0.2" points="341,214 342,213 350,213 351,214 355,214 356,215 359,215 360,216 361,216 362,217 364,217 366,219 367,219 368,220 369,220 371,222 372,222 375,225 376,225 383,232 383,233 386,236 386,237 388,239 388,240 389,241 389,243 390,244 390,246 391,247 391,254 392,255 392,261 391,262 391,267 390,268 390,271 389,272 389,273 388,274 388,276 387,277 387,278 386,279 386,280 384,282 384,283 382,285 382,286 379,289 379,290 376,293 375,293 371,297 370,297 368,299 367,299 366,300 365,300 364,301 363,301 362,302 360,302 359,303 358,303 357,304 354,304 353,305 337,305 336,304 333,304 332,303 331,303 330,302 329,302 328,301 327,301 326,300 325,300 323,298 321,298 320,297 319,297 319,303 320,304 320,312 319,313 319,316 318,317 318,319 317,320 317,322 316,323 316,324 314,326 314,327 310,331 310,332 307,335 306,335 303,338 302,338 300,340 299,340 298,341 297,341 296,342 295,342 294,343 292,343 291,344 289,344 288,345 275,345 274,344 271,344 270,343 269,343 268,342 267,342 265,340 264,340 256,332 256,331 254,329 254,328 253,327 253,326 252,325 252,324 251,323 251,321 250,320 250,317 249,316 249,303 250,302 250,299 251,298 251,296 252,295 252,294 253,293 253,292 255,290 255,289 261,283 262,283 265,280 266,280 267,279 268,279 269,278 270,278 271,277 273,277 274,276 277,276 278,275 290,275 291,276 295,276 296,277 300,277 301,278 303,278 303,274 302,273 302,268 301,267 301,254 302,253 302,249 303,248 303,245 304,244 304,242 305,241 305,240 306,239 306,238 308,236 308,235 311,232 311,231 319,223 320,223 323,220 324,220 325,219 326,219 328,217 329,217 330,216 332,216 333,215 336,215 337,214" stroke="#000" stroke-width="10" /><polygon fill="#000" fill-opacity="0.2" points="525,202 526,201 537,201 538,202 539,202 540,203 541,203 545,207 545,208 547,210 547,212 548,213 548,223 547,224 547,225 546,226 546,227 545,228 545,229 543,231 542,231 540,233 539,233 538,234 536,234 535,235 526,235 525,234 524,234 523,233 522,233 517,228 517,227 516,226 516,225 515,224 515,222 514,221 514,214 515,213 515,211 517,209 517,208 523,202" stroke="#000" stroke-width="10" /><polygon fill="#000" fill-opacity="0.2" points="401,170 402,169 411,169 412,170 417,170 418,171 421,171 422,172 424,172 425,173 426,173 427,174 429,174 430,175 431,175 433,177 434,177 436,179 437,179 442,184 442,185 444,187 444,188 445,189 445,190 446,191 446,192 447,193 447,194 448,195 448,197 449,198 449,201 450,202 450,211 451,212 450,213 450,221 449,222 449,224 448,225 448,227 447,228 447,229 445,231 445,232 444,233 444,234 442,236 442,237 435,244 434,244 431,247 430,247 429,248 428,248 427,249 426,249 425,250 423,250 422,251 419,251 418,252 404,252 403,251 401,251 400,250 399,250 397,248 397,244 396,243 396,240 395,239 395,236 394,235 394,234 393,233 393,232 392,231 392,230 391,229 391,228 388,225 388,224 385,221 385,220 384,219 383,219 380,216 379,216 377,214 375,214 373,212 371,212 370,211 369,211 368,210 368,202 369,201 369,198 370,197 370,195 371,194 371,193 372,192 372,191 373,190 373,189 374,188 374,187 376,185 376,184 382,178 383,178 385,176 386,176 388,174 389,174 390,173 391,173 392,172 394,172 395,171 397,171 398,170" stroke="#000" stroke-width="10" /><polygon fill="#000" fill-opacity="0.2" points="443,152 444,151 523,151 524,152 547,152 548,151 605,151 606,152 628,152 629,153 629,154 628,155 628,156 627,157 626,157 625,158 624,158 623,159 621,159 620,160 619,160 618,161 616,161 615,162 614,162 613,163 612,163 611,164 610,164 608,166 607,166 605,168 604,168 598,174 598,175 595,178 595,179 594,180 594,181 592,183 592,184 591,185 591,188 590,189 590,190 589,191 548,191 547,190 544,190 543,189 542,189 539,186 538,186 537,185 526,185 525,186 523,186 522,187 521,187 518,190 517,190 516,191 460,191 459,190 459,187 458,186 458,185 457,184 457,183 456,182 456,181 455,180 455,179 453,177 453,176 442,165 441,165 439,163 438,163 436,161 435,161 434,160 433,160 432,159 430,159 429,158 427,158 426,157 424,157 423,156 421,156 420,155 418,155 417,154 418,153 420,153 421,152" stroke="#000" stroke-width="10" /><polygon fill="#000" fill-opacity="0.2" points="273,152 274,151 303,151 304,152 339,152 340,151 369,151 370,152 393,152 394,151 398,151 399,152 400,152 401,153 400,154 398,154 397,155 394,155 393,156 391,156 390,157 387,157 386,158 384,158 383,159 381,159 380,160 379,160 378,161 377,161 375,163 374,163 365,172 365,173 363,175 363,176 361,178 361,179 360,180 360,181 359,182 359,184 358,185 358,188 357,189 357,190 356,191 274,191 273,192 265,192 264,193 260,193 259,194 257,194 256,195 253,195 252,196 250,196 249,197 248,197 247,198 245,198 244,199 243,199 242,200 241,200 240,201 239,201 238,202 237,202 236,203 235,203 234,204 233,204 232,205 231,205 229,207 228,207 226,209 225,209 222,212 221,212 209,224 209,225 206,228 206,229 205,230 205,231 203,233 203,234 201,236 201,237 200,238 200,239 199,240 199,241 198,242 198,244 197,245 197,246 196,247 196,248 195,249 195,251 194,252 194,254 193,255 193,257 192,258 192,260 191,261 191,264 190,265 190,270 189,271 189,291 188,292 188,435 189,436 189,455 188,456 188,475 189,476 189,479 188,480 188,491 189,492 189,517 188,518 188,562 189,563 189,603 188,604 189,605 189,749 190,750 190,754 191,755 191,758 192,759 192,762 193,763 193,765 194,766 194,767 195,768 195,770 196,771 196,772 197,773 197,774 198,775 198,776 199,777 199,778 200,779 200,780 201,781 201,782 202,783 202,784 203,785 203,786 205,788 205,789 207,791 207,792 210,795 210,796 217,803 217,804 226,813 227,813 229,815 230,815 232,817 233,817 234,818 235,818 237,820 238,820 239,821 240,821 241,822 242,822 243,823 245,823 246,824 247,824 248,825 249,825 250,826 252,826 253,827 256,827 257,828 259,828 260,829 265,829 266,830 281,830 282,831 327,831 328,830 359,830 360,831 371,831 372,830 439,830 440,831 471,831 472,830 555,830 556,831 631,831 632,830 655,830 656,831 742,831 743,830 753,830 754,829 758,829 759,828 761,828 762,827 764,827 765,826 767,826 768,825 769,825 770,824 771,824 772,823 773,823 774,822 775,822 776,821 777,821 778,820 779,820 780,819 781,819 782,818 783,818 784,817 785,817 786,816 787,816 788,815 789,815 791,813 792,813 794,811 795,811 797,809 798,809 803,804 803,803 805,801 805,800 807,798 807,797 810,794 810,793 812,791 812,790 814,788 814,787 815,786 815,785 817,783 817,782 818,781 818,780 819,779 819,778 820,777 820,776 821,775 821,774 822,773 822,772 823,771 823,769 824,768 824,767 825,766 825,763 826,762 826,760 827,759 827,756 828,755 828,276 827,275 827,268 826,267 826,264 825,263 825,260 824,259 824,257 823,256 823,254 822,253 822,251 821,250 821,248 820,247 820,246 819,245 819,244 818,243 818,242 817,241 817,240 816,239 816,238 815,237 815,236 814,235 814,234 812,232 812,231 810,229 810,228 808,226 808,225 804,221 804,220 796,212 795,212 790,207 789,207 786,204 785,204 784,203 783,203 782,202 781,202 779,200 777,200 776,199 775,199 774,198 773,198 772,197 771,197 770,196 769,196 768,195 766,195 765,194 763,194 762,193 760,193 759,192 755,192 754,191 749,191 748,190 747,190 746,189 746,188 747,187 747,186 748,185 748,184 750,182 750,181 751,180 751,179 752,178 752,176 753,175 753,156 752,155 752,153 753,152 759,152 760,153 764,153 765,154 768,154 769,155 772,155 773,156 775,156 776,157 778,157 779,158 781,158 782,159 784,159 785,160 787,160 788,161 789,161 790,162 792,162 793,163 794,163 795,164 796,164 797,165 798,165 799,166 800,166 801,167 802,167 803,168 804,168 805,169 806,169 808,171 809,171 810,172 811,172 814,175 815,175 817,177 818,177 821,180 822,180 836,194 836,195 840,199 840,200 843,203 843,204 846,207 846,208 848,210 848,211 850,213 850,214 852,216 852,217 853,218 853,219 854,220 854,221 856,223 856,224 857,225 857,227 858,228 858,229 859,230 859,231 860,232 860,234 861,235 861,236 862,237 862,239 863,240 863,242 864,243 864,245 865,246 865,248 866,249 866,252 867,253 867,257 868,258 868,261 869,262 869,266 870,267 870,274 871,275 871,752 870,753 870,759 869,760 869,763 868,764 868,768 867,769 867,771 866,772 866,775 865,776 865,778 864,779 864,782 863,783 863,785 862,786 862,787 861,788 861,790 860,791 860,792 859,793 859,794 858,795 858,796 857,797 857,798 856,799 856,800 855,801 855,802 854,803 854,804 852,806 852,807 850,809 850,810 848,812 848,813 846,815 846,816 843,819 843,820 838,825 838,826 825,839 824,839 819,844 818,844 815,847 814,847 812,849 811,849 809,851 808,851 807,852 806,852 805,853 804,853 802,855 801,855 800,856 799,856 798,857 797,857 796,858 795,858 794,859 792,859 791,860 790,860 789,861 787,861 786,862 784,862 783,863 781,863 780,864 778,864 777,865 774,865 773,866 770,866 769,867 766,867 765,868 761,868 760,869 755,869 754,870 744,870 743,871 732,871 731,870 596,870 595,871 584,871 583,870 549,870 548,871 276,871 275,870 264,870 263,869 257,869 256,868 251,868 250,867 247,867 246,866 243,866 242,865 240,865 239,864 237,864 236,863 234,863 233,862 231,862 230,861 229,861 228,860 227,860 226,859 225,859 224,858 222,858 221,857 220,857 219,856 218,856 217,855 216,855 215,854 214,854 213,853 212,853 210,851 209,851 207,849 206,849 203,846 202,846 200,844 199,844 194,839 193,839 180,826 180,825 175,820 175,819 172,816 172,815 170,813 170,812 168,810 168,809 166,807 166,806 165,805 165,804 163,802 163,801 162,800 162,799 161,798 161,797 160,796 160,795 159,794 159,793 158,792 158,790 157,789 157,788 156,787 156,786 155,785 155,783 154,782 154,780 153,779 153,777 152,776 152,774 151,773 151,770 150,769 150,766 149,765 149,762 148,761 148,757 147,756 147,748 146,747 146,277 147,276 147,268 148,267 148,263 149,262 149,258 150,257 150,254 151,253 151,250 152,249 152,247 153,246 153,243 154,242 154,240 155,239 155,238 156,237 156,235 157,234 157,233 158,232 158,230 159,229 159,228 160,227 160,226 161,225 161,224 162,223 162,222 163,221 163,220 164,219 164,218 166,216 166,215 167,214 167,213 169,211 169,210 172,207 172,206 176,202 176,201 184,193 184,192 185,191 186,191 197,180 198,180 201,177 202,177 204,175 205,175 207,173 208,173 210,171 211,171 212,170 213,170 215,168 216,168 217,167 218,167 219,166 220,166 221,165 222,165 223,164 224,164 225,163 227,163 228,162 229,162 230,161 232,161 233,160 235,160 236,159 238,159 239,158 241,158 242,157 244,157 245,156 248,156 249,155 252,155 253,154 256,154 257,153 262,153 263,152" stroke="#000" stroke-width="10" /><polygon fill="#000" fill-opacity="0.2" points="681,117 682,116 699,116 700,117 703,117 704,118 706,118 707,119 709,119 710,120 711,120 712,121 713,121 715,123 716,123 724,131 724,132 727,135 727,136 728,137 728,138 729,139 729,140 730,141 730,143 731,144 731,145 732,146 732,149 733,150 733,153 734,154 734,166 733,167 733,171 732,172 732,174 731,175 731,176 730,177 730,179 729,180 729,181 727,183 727,184 726,185 726,186 725,187 725,188 722,191 722,192 716,198 715,198 712,201 711,201 710,202 708,202 707,203 706,203 705,204 703,204 702,205 699,205 698,206 681,206 680,205 678,205 677,204 675,204 674,203 673,203 672,202 671,202 670,201 669,202 669,209 668,210 668,212 667,213 667,214 666,215 666,216 665,217 665,218 664,219 664,220 662,222 662,223 659,226 659,227 654,232 653,232 652,233 651,233 650,234 649,234 648,235 647,235 646,236 644,236 643,237 641,237 640,238 636,238 635,239 631,239 630,238 626,238 625,237 623,237 622,236 621,236 620,235 619,235 617,233 616,233 608,225 608,224 607,223 607,222 606,221 606,220 605,219 605,218 604,217 604,215 603,214 603,210 602,209 602,202 603,201 603,196 604,195 604,194 605,193 605,192 606,191 606,190 607,189 607,188 610,185 610,184 615,179 616,179 618,177 619,177 620,176 621,176 622,175 623,175 624,174 626,174 627,173 632,173 633,172 637,172 638,173 646,173 646,166 645,165 645,161 644,160 644,155 645,154 645,150 646,149 646,146 647,145 647,143 648,142 648,141 649,140 649,139 651,137 651,136 661,126 662,126 664,124 665,124 667,122 668,122 669,121 670,121 671,120 672,120 673,119 674,119 675,118 677,118 678,117" stroke="#000" stroke-width="10" /></svg>