<?xml version="1.0" encoding="UTF-8" standalone="no"?>
<svg
   height="1024"
   version="1.2"
   width="1024"
   id="svg59"
   sodipodi:docname="mobility_.svg"
   inkscape:version="1.3.2 (091e20ef0f, 2023-11-25)"
   xmlns:inkscape="http://www.inkscape.org/namespaces/inkscape"
   xmlns:sodipodi="http://sodipodi.sourceforge.net/DTD/sodipodi-0.dtd"
   xmlns="http://www.w3.org/2000/svg"
   xmlns:svg="http://www.w3.org/2000/svg">
  <sodipodi:namedview
     id="namedview59"
     pagecolor="#ffffff"
     bordercolor="#000000"
     borderopacity="0.25"
     inkscape:showpageshadow="2"
     inkscape:pageopacity="0.0"
     inkscape:pagecheckerboard="0"
     inkscape:deskcolor="#d1d1d1"
     inkscape:zoom="0.87402344"
     inkscape:cx="512"
     inkscape:cy="512"
     inkscape:window-width="1920"
     inkscape:window-height="1141"
     inkscape:window-x="0"
     inkscape:window-y="0"
     inkscape:window-maximized="1"
     inkscape:current-layer="svg59" />
  <defs
     id="defs1" />
  <rect
     fill="#fff"
     height="1024"
     width="1024"
     x="0"
     y="0"
     id="rect1" />
  <polygon
     fill="#000"
     fill-opacity="0.4"
     points="506,790 506,791 507,792 507,810 506,811 506,832 525,832 526,831 526,815 525,814 525,791 524,792 512,792 511,791 507,791"
     stroke="#000"
     stroke-width="5"
     id="polygon1" />
  <polygon
     fill="#000000"
     fill-opacity="0.4"
     points="813,799 815,799 816,798 817,798 818,797 819,797 821,795 822,795 822,794 824,792 824,791 825,790 825,789 826,788 826,778 825,777 825,775 824,774 824,773 820,769 819,769 818,768 817,768 816,767 815,767 814,766 804,766 803,767 802,767 801,768 800,768 794,774 794,776 793,777 793,779 792,780 792,785 793,786 793,789 794,790 794,791 795,792 795,793 799,797 800,797 801,798 802,798 803,799 806,799 807,800 812,800 "
     stroke="#000000"
     stroke-width="5"
     id="polygon2"
     transform="translate(2,4)" />
  <polygon
     fill="#000000"
     fill-opacity="0.4"
     points="636,798 637,799 643,799 644,798 646,798 647,797 648,797 654,791 654,790 655,789 655,787 656,786 656,777 655,776 655,775 654,774 654,773 649,768 648,768 646,766 644,766 643,765 637,765 636,766 634,766 633,767 632,767 631,768 630,768 626,772 626,773 624,775 624,777 623,778 623,781 622,782 623,783 623,787 624,788 624,789 626,791 626,792 630,796 631,796 632,797 633,797 634,798 "
     stroke="#000000"
     stroke-width="5"
     id="polygon3"
     transform="translate(2,4)" />
  <polygon
     fill="#000"
     fill-opacity="0.4"
     points="506,721 506,723 507,724 507,735 506,736 506,759 507,760 507,761 506,762 526,762 526,722 525,722 524,723 512,723 511,722 507,722"
     stroke="#000"
     stroke-width="5"
     id="polygon4" />
  <polygon
     fill="#000000"
     fill-opacity="0.4"
     points="447,690 446,689 443,689 442,688 438,688 435,691 435,692 434,693 434,694 433,695 433,701 435,703 435,704 438,707 439,707 440,708 449,708 451,706 451,704 452,703 452,695 451,694 451,693 448,690 "
     stroke="#000000"
     stroke-width="5"
     id="polygon5"
     transform="translate(-4,48)" />
  <polygon
     fill="#000"
     fill-opacity="0.4"
     points="507,655 507,677 506,678 506,687 507,688 507,695 508,694 525,694 526,693 526,673 525,672 525,658 526,657 526,656 508,656"
     stroke="#000"
     stroke-width="5"
     id="polygon6" />
  <polygon
     fill="#000000"
     fill-opacity="0.4"
     points="364,661 364,660 361,657 361,656 358,653 358,652 355,649 355,648 338,631 337,631 334,628 333,628 332,627 304,627 304,667 310,667 311,666 367,666 367,664 "
     stroke="#000000"
     stroke-width="5"
     id="polygon7"
     transform="translate(-4,48)" />
  <polygon
     fill="#000000"
     fill-opacity="0.4"
     points="237,634 234,637 233,637 221,649 221,650 218,653 218,654 215,657 215,658 213,660 213,662 212,663 212,664 211,665 263,665 264,666 285,666 285,627 277,627 276,626 254,626 253,627 249,627 248,628 247,628 246,629 245,629 243,631 242,631 240,633 239,633 238,634 "
     stroke="#000000"
     stroke-width="5"
     id="polygon8"
     transform="translate(-4,48)" />
  <polygon
     fill="#000000"
     fill-opacity="0.4"
     points="836,649 836,648 834,646 834,645 831,642 831,641 821,631 820,631 818,629 817,629 814,626 813,626 811,624 810,624 809,623 808,623 807,622 806,622 805,621 804,621 803,620 802,620 801,619 799,619 798,618 796,618 795,617 792,617 791,616 787,616 786,615 786,699 793,699 794,698 815,698 816,699 844,699 845,698 845,686 844,685 844,671 843,670 843,666 842,665 842,662 841,661 841,659 840,658 840,656 839,655 839,654 838,653 838,652 837,651 837,650 "
     stroke="#000000"
     stroke-width="5"
     id="polygon9"
     transform="translate(2,4)" />
  <polygon
     fill="#000000"
     fill-opacity="0.4"
     points="760,616 759,617 743,617 742,616 694,616 693,615 693,698 735,698 736,699 761,699 761,680 760,679 760,672 761,671 761,617 "
     stroke="#000000"
     stroke-width="5"
     id="polygon10"
     transform="translate(2,4)" />
  <polygon
     fill="#000000"
     fill-opacity="0.4"
     points="602,698 662,698 663,699 669,699 669,680 668,679 668,631 669,630 669,616 607,616 606,615 602,615 "
     stroke="#000000"
     stroke-width="5"
     id="polygon11"
     transform="translate(2,4)" />
  <polygon
     fill="#000"
     fill-opacity="0.4"
     points="507,586 506,587 507,588 507,603 506,604 506,615 507,616 507,628 526,628 526,586 525,587 508,587"
     stroke="#000"
     stroke-width="5"
     id="polygon12" />
  <polygon
     fill="#000"
     fill-opacity="0.4"
     points="874,491 874,505 873,506 873,510 879,510 880,509 883,509 884,510 914,510 914,505 913,504 913,492 876,492 875,491"
     stroke="#000"
     stroke-width="5"
     id="polygon13" />
  <polygon
     fill="#000"
     fill-opacity="0.4"
     points="801,491 801,510 802,510 803,509 817,509 818,510 842,510 842,492 830,492 829,491"
     stroke="#000"
     stroke-width="5"
     id="polygon14" />
  <polygon
     fill="#000"
     fill-opacity="0.4"
     points="728,491 728,510 730,510 731,509 765,509 766,510 769,510 769,491"
     stroke="#000"
     stroke-width="5"
     id="polygon15" />
  <polygon
     fill="#000"
     fill-opacity="0.4"
     points="658,491 658,509 695,509 695,491"
     stroke="#000"
     stroke-width="5"
     id="polygon16" />
  <polygon
     fill="#000"
     fill-opacity="0.4"
     points="589,491 589,510 591,510 592,509 626,509 627,510 627,494 628,493 628,491"
     stroke="#000"
     stroke-width="5"
     id="polygon17" />
  <polygon
     fill="#000"
     fill-opacity="0.4"
     points="387,491 387,510 431,510 431,508 430,507 430,492 410,492 409,491"
     stroke="#000"
     stroke-width="5"
     id="polygon18" />
  <polygon
     fill="#000"
     fill-opacity="0.4"
     points="315,491 316,492 316,510 356,510 356,491"
     stroke="#000"
     stroke-width="5"
     id="polygon19" />
  <polygon
     fill="#000"
     fill-opacity="0.4"
     points="244,491 244,510 284,510 284,492 266,492 265,491"
     stroke="#000"
     stroke-width="5"
     id="polygon20" />
  <polygon
     fill="#000"
     fill-opacity="0.4"
     points="173,491 174,492 174,503 173,504 173,510 190,510 191,509 211,509 212,510 213,510 213,491 210,491 209,492 196,492 195,491"
     stroke="#000"
     stroke-width="5"
     id="polygon21" />
  <polygon
     fill="#000"
     fill-opacity="0.4"
     points="509,453 508,454 503,454 502,455 500,455 499,456 497,456 496,457 495,457 494,458 493,458 492,459 491,459 490,460 489,460 487,462 486,462 478,470 478,471 476,473 476,474 474,476 474,477 473,478 473,479 472,480 472,481 471,482 471,483 470,484 470,487 469,488 469,491 468,492 468,510 469,511 469,514 470,515 470,517 471,518 471,520 472,521 472,522 473,523 473,524 474,525 474,526 475,527 475,528 476,529 476,530 478,532 478,533 480,535 481,535 485,539 486,539 488,541 489,541 490,542 491,542 492,543 493,543 494,544 495,544 496,545 497,545 498,546 500,546 501,547 503,547 504,548 506,548 507,549 509,549 510,550 518,550 519,549 521,549 522,548 523,548 524,547 527,547 528,546 530,546 531,545 533,545 534,544 535,544 536,543 538,543 539,542 540,542 542,540 543,540 545,538 546,538 551,533 551,532 554,529 554,528 556,526 556,525 557,524 557,523 558,522 558,520 559,519 559,517 560,516 560,513 561,512 561,508 562,507 562,492 561,491 561,487 560,486 560,483 559,482 559,481 558,480 558,479 557,478 557,477 556,476 556,475 554,473 554,472 545,463 544,463 541,460 540,460 539,459 538,459 536,457 534,457 533,456 531,456 530,455 528,455 527,454 523,454 522,453"
     stroke="#000"
     stroke-width="5"
     id="polygon22" />
  <polygon
     fill="#000"
     fill-opacity="0.4"
     points="506,380 507,381 507,421 506,422 526,422 526,380"
     stroke="#000"
     stroke-width="5"
     id="polygon25" />
  <polygon
     fill="#000"
     fill-opacity="0.4"
     points="507,311 507,353 511,353 512,352 526,352 526,312 509,312 508,311"
     stroke="#000"
     stroke-width="5"
     id="polygon28" />
  <polygon
     fill="#000"
     fill-opacity="0.4"
     points="507,243 507,284 516,284 517,283 526,283 526,244 508,244"
     stroke="#000"
     stroke-width="5"
     id="polygon29" />
  <polygon
     fill="#000"
     fill-opacity="0.4"
     points="507,174 507,197 506,198 506,215 507,216 525,216 526,215 526,195 525,194 525,180 526,179 526,175 510,175 509,174"
     stroke="#000"
     stroke-width="5"
     id="polygon36" />
  <polygon
     fill="#000000"
     fill-opacity="0.4"
     points="846,768 846,769 847,770 847,773 848,774 848,789 847,790 847,793 846,794 846,796 845,797 845,798 844,799 844,800 843,801 843,802 842,803 842,804 839,807 839,808 835,812 834,812 831,815 830,815 828,817 827,817 826,818 825,818 824,819 822,819 821,820 819,820 818,821 814,821 813,822 806,822 805,821 800,821 799,820 797,820 796,819 794,819 793,818 792,818 791,817 790,817 788,815 787,815 784,812 783,812 780,809 780,808 776,804 776,803 774,801 774,800 773,799 773,797 772,796 772,795 771,794 771,790 770,789 770,778 771,777 771,773 772,772 772,770 773,769 773,767 774,766 774,765 775,764 775,763 776,762 776,761 784,753 785,753 788,750 789,750 790,749 791,749 792,748 793,748 794,747 795,747 796,746 798,746 799,745 803,745 804,744 815,744 816,745 821,745 822,746 824,746 825,747 826,747 827,748 828,748 829,749 830,749 832,751 833,751 835,753 836,753 839,756 839,757 842,760 842,761 844,763 844,764 845,765 845,767 "
     stroke="#000000"
     stroke-width="5"
     id="polygon39"
     transform="translate(2,4)" />
  <polygon
     fill="#000000"
     fill-opacity="0.4"
     points="676,768 676,769 677,770 677,773 678,774 678,787 677,788 677,791 676,792 676,794 675,795 675,797 674,798 674,799 673,800 673,801 672,802 672,803 671,804 671,805 667,809 667,810 666,811 665,811 661,815 660,815 658,817 657,817 656,818 655,818 654,819 652,819 651,820 648,820 647,821 634,821 633,820 629,820 628,819 627,819 626,818 624,818 623,817 622,817 621,816 620,816 618,814 617,814 609,806 609,805 607,803 607,802 606,801 606,800 605,799 605,798 604,797 604,796 603,795 603,794 602,793 602,790 601,789 601,783 600,782 600,779 601,778 601,773 602,772 602,770 603,769 603,767 604,766 604,765 605,764 605,763 607,761 607,760 613,754 614,754 617,751 618,751 620,749 621,749 622,748 623,748 624,747 626,747 627,746 628,746 629,745 633,745 634,744 648,744 649,745 652,745 653,746 655,746 656,747 657,747 658,748 659,748 660,749 661,749 666,754 667,754 668,755 668,756 672,760 672,761 673,762 673,763 674,764 674,765 675,766 675,767 "
     stroke="#000000"
     stroke-width="5"
     id="polygon40"
     transform="translate(2,4)" />
  <polygon
     fill="#000000"
     fill-opacity="0.4"
     points="385,758 384,757 383,757 382,756 381,756 373,748 373,747 371,745 371,743 370,742 370,740 369,739 369,724 370,723 370,721 371,720 371,719 372,718 372,717 375,714 375,713 378,710 379,710 382,707 383,707 384,706 385,706 386,705 388,705 389,704 398,704 399,705 402,705 403,706 404,706 405,707 406,707 407,708 408,708 410,710 411,710 413,712 414,712 417,715 417,716 418,717 418,718 419,719 419,721 420,722 420,726 421,727 421,735 420,736 420,739 419,740 419,741 418,742 418,743 417,744 417,745 416,746 416,747 407,756 406,756 405,757 404,757 403,758 400,758 399,759 388,759 387,758 "
     stroke="#000000"
     stroke-width="5"
     id="polygon41"
     transform="translate(-4,48)" />
  <polygon
     fill="#000000"
     fill-opacity="0.4"
     points="214,757 212,755 211,755 209,753 209,752 206,749 206,748 205,747 205,746 204,745 204,744 203,743 203,741 202,740 202,736 201,735 201,729 202,728 202,724 203,723 203,721 204,720 204,719 205,718 205,717 206,716 206,715 209,712 209,711 211,709 212,709 216,705 217,705 218,704 219,704 220,703 223,703 224,702 235,702 236,703 239,703 240,704 241,704 242,705 243,705 244,706 245,706 252,713 252,714 253,715 253,717 254,718 254,721 255,722 255,734 254,735 254,739 253,740 253,742 252,743 252,744 251,745 251,746 249,748 249,749 243,755 242,755 240,757 239,757 238,758 237,758 236,759 233,759 232,760 222,760 221,759 218,759 217,758 216,758 215,757 "
     stroke="#000000"
     stroke-width="5"
     id="polygon42"
     transform="translate(-4,48)" />
  <polygon
     fill="#000000"
     fill-opacity="0.4"
     points="393,664 394,664 395,665 406,665 407,666 415,666 416,667 423,667 424,668 428,668 429,669 433,669 434,670 436,670 437,671 439,671 440,672 442,672 443,673 444,673 445,674 446,674 447,675 448,675 449,676 450,676 455,681 455,682 456,683 456,687 457,688 457,737 456,738 448,738 447,737 434,737 433,736 433,727 432,726 432,722 431,721 431,718 430,717 430,716 429,715 429,714 428,713 428,712 427,711 427,710 425,708 425,707 418,700 417,700 415,698 414,698 412,696 410,696 409,695 408,695 407,694 406,694 405,693 402,693 401,692 387,692 386,693 384,693 383,694 381,694 380,695 379,695 378,696 377,696 376,697 375,697 373,699 372,699 366,705 366,706 363,709 363,710 362,711 362,712 360,714 360,716 359,717 359,718 358,719 358,722 357,723 357,737 356,738 268,738 267,737 267,725 266,724 266,719 265,718 265,715 264,714 264,713 263,712 263,710 262,709 262,708 260,706 260,705 257,702 257,701 252,696 251,696 248,693 247,693 246,692 245,692 243,690 241,690 240,689 238,689 237,688 225,688 224,689 221,689 220,690 219,690 218,691 216,691 215,692 214,692 212,694 211,694 210,695 209,695 207,697 206,697 200,703 200,704 198,706 198,707 196,709 196,710 194,712 194,713 193,714 193,716 192,717 192,719 191,720 191,724 190,725 190,734 189,735 190,736 190,737 189,738 162,738 161,737 162,736 162,664 163,663 165,663 166,662 170,662 171,663 181,663 184,660 184,659 187,656 187,655 189,653 189,652 192,649 192,648 195,645 195,644 199,640 199,639 213,625 214,625 218,621 219,621 221,619 222,619 224,617 225,617 227,615 229,615 231,613 233,613 234,612 235,612 236,611 238,611 239,610 241,610 242,609 247,609 248,608 258,608 259,607 280,607 281,608 311,608 312,607 321,607 322,608 331,608 332,609 334,609 335,610 337,610 338,611 340,611 341,612 343,612 344,613 345,613 346,614 347,614 348,615 349,615 351,617 352,617 354,619 355,619 359,623 360,623 370,633 370,634 375,639 375,640 378,643 378,644 381,647 381,648 384,651 384,652 387,655 387,656 390,659 390,660 393,663 "
     stroke="#000000"
     stroke-width="5"
     id="polygon43"
     transform="translate(-4,48)" />
  <polygon
     fill="#000000"
     fill-opacity="0.4"
     points="817,595 818,595 819,596 820,596 821,597 822,597 824,599 825,599 826,600 827,600 829,602 830,602 831,603 832,603 836,607 837,607 848,618 848,619 852,623 852,624 855,627 855,628 857,630 857,631 858,632 858,633 860,635 860,636 861,637 861,638 862,639 862,640 863,641 863,642 864,643 864,645 865,646 865,647 866,648 866,650 867,651 867,653 868,654 868,657 869,658 869,661 870,662 870,666 871,667 871,762 872,763 872,774 871,775 871,788 870,789 870,793 869,794 868,794 867,793 864,793 863,794 861,794 860,793 860,791 861,790 861,770 860,769 860,765 859,764 859,762 858,761 858,760 857,759 857,758 856,757 856,756 855,755 855,754 852,751 852,750 844,742 843,742 840,739 839,739 837,737 836,737 835,736 834,736 833,735 832,735 831,734 830,734 829,733 828,733 827,732 824,732 823,731 818,731 817,730 802,730 801,731 796,731 795,732 793,732 792,733 789,733 788,734 787,734 786,735 785,735 784,736 783,736 782,737 781,737 779,739 778,739 775,742 774,742 767,749 767,750 764,753 764,754 762,756 762,757 761,758 761,759 760,760 760,761 759,762 759,764 758,765 758,767 757,768 757,771 756,772 756,791 757,792 756,793 712,793 711,792 693,792 692,791 692,772 691,771 691,768 690,767 690,765 689,764 689,762 688,761 688,760 687,759 687,758 686,757 686,756 685,755 685,754 682,751 682,750 672,740 671,740 669,738 668,738 666,736 665,736 664,735 663,735 662,734 661,734 660,733 658,733 657,732 655,732 654,731 651,731 650,730 628,730 627,731 624,731 623,732 620,732 619,733 617,733 616,734 615,734 614,735 613,735 611,737 610,737 608,739 607,739 603,743 602,743 598,747 598,748 595,751 595,752 594,753 594,754 592,756 592,757 591,758 591,759 590,760 590,761 589,762 589,764 588,765 588,768 587,769 587,776 586,777 586,781 587,782 587,788 588,789 588,791 589,792 588,793 572,793 571,794 570,793 570,708 571,707 571,648 570,647 570,635 571,634 571,624 572,623 572,620 573,619 573,617 574,616 574,615 575,614 575,612 576,611 576,610 577,609 577,608 580,605 580,604 587,597 588,597 591,594 592,594 594,592 595,592 596,591 597,591 598,590 600,590 601,589 603,589 604,588 610,588 611,587 707,587 708,588 719,588 720,587 749,587 750,588 761,588 762,587 786,587 787,588 795,588 796,589 800,589 801,590 804,590 805,591 807,591 808,592 810,592 811,593 813,593 814,594 816,594 "
     stroke="#000000"
     stroke-width="5"
     id="polygon44"
     transform="translate(2,4)" />
  <g
     id="g59"
     transform="matrix(1.1387505,0,0,1.1528844,-124.41208,-20.708549)">
    <polygon
       fill="#000000"
       fill-opacity="0.4"
       points="774,428 775,429 775,430 776,431 776,435 775,436 775,437 773,439 773,440 772,441 771,441 769,443 768,443 767,444 760,444 753,437 753,436 750,433 750,432 745,427 745,426 738,419 738,418 731,411 731,410 725,404 725,401 731,395 732,395 736,391 737,391 739,389 742,389 750,397 750,398 754,402 754,403 760,409 760,410 763,413 763,414 768,419 768,420 772,424 772,425 774,427 "
       stroke="#000000"
       stroke-width="5"
       id="polygon47"
       transform="translate(14,-110)" />
    <polygon
       fill="#000000"
       fill-opacity="0.4"
       points="796,375 797,374 802,374 805,377 805,378 809,382 810,382 822,394 823,394 842,413 843,413 844,414 845,414 846,415 847,415 849,417 850,417 856,423 856,427 855,428 855,430 853,432 853,433 846,440 845,440 843,442 842,442 841,443 840,443 839,444 838,444 837,443 835,443 834,442 833,442 830,439 829,439 825,435 825,434 819,428 818,428 808,418 807,418 796,407 795,407 790,402 789,402 785,398 784,398 775,389 775,388 774,387 773,387 768,382 768,381 767,380 767,376 766,375 766,366 767,365 767,363 768,362 768,361 772,357 775,357 777,359 777,362 778,363 778,367 779,368 779,372 780,373 780,376 781,377 781,379 782,380 782,381 783,382 783,383 785,383 789,379 790,379 792,377 793,377 795,375 "
       stroke="#000000"
       stroke-width="5"
       id="polygon50"
       transform="translate(14,-110)" />
    <polygon
       fill="#000000"
       fill-opacity="0.4"
       points="675,430 675,428 677,426 677,425 678,424 678,423 680,421 680,420 681,419 681,418 682,417 682,416 684,414 684,413 685,412 685,411 686,410 686,409 688,407 688,406 689,405 689,404 691,402 691,401 692,400 692,399 693,398 693,397 695,395 695,394 697,392 697,391 699,389 699,388 701,386 701,385 705,381 705,380 709,376 708,375 708,374 707,373 707,372 706,371 706,370 705,369 705,368 704,367 704,366 703,365 703,364 702,363 702,362 701,361 701,359 700,358 700,357 699,356 699,355 698,354 698,352 697,351 697,350 696,349 696,348 695,347 695,346 694,345 694,344 693,343 692,343 691,344 688,344 687,345 682,345 681,346 678,346 677,347 672,347 671,348 666,348 665,349 655,349 654,350 654,362 653,363 653,374 652,375 652,385 651,386 651,398 650,399 650,425 649,426 649,428 648,429 648,430 646,432 646,433 643,436 642,436 639,439 638,439 637,440 636,440 635,441 634,441 633,442 630,442 629,443 625,443 624,444 614,444 613,443 612,443 611,442 610,442 607,439 606,439 603,436 603,435 600,432 600,431 599,430 599,428 598,427 598,425 597,424 597,418 598,417 598,414 599,413 599,412 600,411 600,410 606,404 607,404 608,403 611,403 612,402 621,402 622,403 623,403 624,404 625,404 629,408 629,409 630,410 630,412 629,413 623,413 622,412 615,412 612,415 612,416 611,417 611,421 612,422 612,424 614,426 624,426 625,425 627,425 628,424 629,424 630,423 631,423 633,421 634,421 636,419 636,416 637,415 637,396 638,395 638,360 639,359 639,345 640,344 640,342 643,339 644,339 647,336 648,336 649,335 650,335 651,334 652,334 653,333 655,333 656,332 659,332 660,331 667,331 668,330 672,330 673,329 677,329 678,328 680,328 681,327 683,327 684,326 686,326 687,325 688,325 689,324 690,324 691,323 693,323 694,322 695,322 696,321 697,321 698,320 699,320 700,319 701,319 702,318 703,318 704,317 706,317 707,316 717,316 718,317 720,317 726,323 726,324 729,327 729,328 736,335 737,335 739,337 740,337 741,338 742,338 744,340 745,340 747,342 748,342 751,345 752,345 758,351 758,356 757,357 752,357 751,356 748,356 747,355 746,355 745,354 744,354 743,353 742,353 737,348 737,350 738,351 738,354 739,355 739,357 740,358 740,360 741,361 741,363 742,364 742,367 743,368 743,375 744,376 744,379 743,380 743,383 741,385 741,386 739,388 738,388 736,390 735,390 733,392 732,392 731,393 730,393 729,394 728,394 727,395 726,395 724,397 723,397 717,403 717,404 715,406 715,407 712,410 712,411 710,413 710,414 708,416 708,417 707,418 707,419 705,421 705,422 704,423 704,424 702,426 702,427 701,428 701,429 699,431 699,432 698,433 698,434 697,435 697,436 695,438 695,439 690,444 689,444 688,445 686,445 685,444 684,444 683,443 682,443 675,436 675,435 674,434 674,431 "
       stroke="#000000"
       stroke-width="5"
       id="polygon52"
       transform="translate(14,-110)" />
    <polygon
       fill="#000000"
       fill-opacity="0.4"
       points="686,275 687,275 688,274 696,274 697,275 699,275 700,276 701,276 702,277 703,277 709,283 709,284 710,285 710,286 711,287 711,289 712,290 712,295 711,296 711,300 710,301 710,302 708,304 708,305 706,307 705,307 702,310 701,310 699,312 697,312 696,313 688,313 687,312 685,312 684,311 683,311 682,310 681,310 675,304 675,303 674,302 674,300 673,299 673,292 674,291 674,289 675,288 675,287 676,286 676,285 677,284 677,283 684,276 685,276 "
       stroke="#000000"
       stroke-width="5"
       id="polygon53"
       transform="translate(14,-110)" />
  </g>
  <g
     id="g60"
     transform="matrix(1.1078306,0,0,1.1172745,-28.697292,-13.062602)">
    <polygon
       fill="#000000"
       fill-opacity="0.4"
       points="250,229 248,227 248,226 245,223 244,223 241,226 241,227 239,229 239,230 236,233 236,234 233,237 233,238 231,240 231,242 254,242 254,241 253,240 253,236 252,235 252,233 251,232 251,231 250,230 "
       stroke="#000000"
       stroke-width="5"
       id="polygon30"
       transform="translate(-10,36)" />
    <polygon
       fill="#000000"
       fill-opacity="0.4"
       points="388,246 388,244 387,243 387,242 386,241 386,239 385,238 385,237 384,236 384,235 383,234 383,233 382,232 382,231 381,230 381,229 380,228 380,226 379,225 379,224 377,222 377,221 376,220 376,219 374,219 371,222 371,223 369,225 369,226 367,228 367,229 366,230 366,231 365,232 365,234 364,235 364,237 363,238 363,242 362,243 362,251 363,252 363,256 364,257 364,259 365,260 365,262 366,263 366,264 367,265 367,266 368,267 368,268 370,270 370,271 377,278 378,278 381,281 382,281 384,283 385,283 386,284 388,284 389,285 391,285 392,286 395,286 396,287 409,287 410,286 413,286 414,285 415,285 416,284 418,284 419,283 420,283 422,281 423,281 427,277 428,277 428,276 433,271 433,270 435,268 435,267 436,266 436,265 437,264 437,262 438,261 438,260 439,259 439,255 440,254 440,240 439,239 439,236 438,235 438,233 437,232 437,230 436,229 436,228 434,226 434,225 432,223 432,222 426,216 425,216 422,213 421,213 420,212 419,212 418,211 417,211 416,210 414,210 413,209 410,209 409,208 395,208 394,209 392,209 392,211 393,212 393,213 394,214 394,215 395,216 395,217 396,218 396,219 397,220 397,222 398,223 398,224 399,225 399,226 400,227 400,228 401,229 401,231 402,232 402,234 403,235 403,236 406,239 407,239 410,242 410,243 411,244 411,251 409,253 409,254 408,255 407,255 405,257 397,257 396,256 395,256 390,251 390,249 389,248 389,247 "
       stroke="#000000"
       stroke-width="5"
       id="polygon31"
       transform="translate(-10,36)" />
    <polygon
       fill="#000000"
       fill-opacity="0.4"
       points="194,278 197,281 198,281 200,283 201,283 202,284 203,284 204,285 207,285 208,286 211,286 212,287 224,287 225,286 228,286 229,285 231,285 232,284 233,284 234,283 235,283 236,282 237,282 239,280 240,280 248,272 248,271 251,268 251,267 252,266 252,265 253,264 253,260 218,260 217,259 215,259 214,258 213,258 209,254 209,253 208,252 208,251 207,250 207,244 208,243 208,242 209,241 209,240 210,239 211,239 214,236 214,235 215,234 215,233 217,231 217,230 219,228 219,227 221,225 221,224 223,222 223,221 226,218 226,217 229,214 229,213 230,212 230,211 231,210 228,210 227,209 225,209 224,208 211,208 210,209 207,209 206,210 204,210 203,211 202,211 201,212 200,212 198,214 197,214 195,216 194,216 187,223 187,224 185,226 185,227 183,229 183,230 182,231 182,233 181,234 181,237 180,238 180,242 179,243 179,249 180,250 180,255 181,256 181,259 182,260 182,262 183,263 183,264 184,265 184,266 185,267 185,268 187,270 187,271 190,274 190,275 193,278 "
       stroke="#000000"
       stroke-width="5"
       id="polygon32"
       transform="translate(-10,36)" />
    <polygon
       fill="#000000"
       fill-opacity="0.4"
       points="271,218 270,217 270,216 269,215 269,214 268,213 268,212 267,211 267,210 266,209 266,208 265,207 265,206 264,205 264,204 263,203 263,202 262,201 262,200 261,199 258,202 258,203 255,206 255,207 256,208 256,209 263,216 263,217 265,219 265,220 267,222 267,223 268,224 268,225 269,226 269,228 270,229 270,231 271,232 271,234 272,235 272,239 273,240 273,242 281,242 281,240 280,239 280,237 279,236 279,235 278,234 278,232 277,231 277,230 275,228 275,226 274,225 274,224 273,223 273,222 272,221 272,220 271,219 "
       stroke="#000000"
       stroke-width="5"
       id="polygon33"
       transform="translate(-10,36)" />
    <polygon
       fill="#000000"
       fill-opacity="0.4"
       points="300,235 301,234 302,234 304,232 304,231 306,229 307,229 310,226 310,225 330,205 330,204 332,202 333,202 333,201 345,189 345,188 276,188 277,189 277,191 278,192 278,194 279,195 279,196 280,197 280,198 281,199 281,200 282,201 282,202 283,203 283,204 284,205 284,206 285,207 285,209 286,210 286,211 287,212 287,213 288,214 288,215 290,217 290,218 291,219 291,220 292,221 292,222 293,223 293,224 294,225 294,226 295,227 295,228 296,229 296,230 297,231 297,232 298,233 298,234 299,235 "
       stroke="#000000"
       stroke-width="5"
       id="polygon34"
       transform="translate(-10,36)" />
    <polygon
       fill="#000000"
       fill-opacity="0.4"
       points="308,271 309,270 313,270 321,278 321,281 318,284 317,284 316,285 315,285 314,286 310,286 309,287 290,287 289,286 289,282 288,281 288,274 289,273 293,273 294,272 305,272 306,271 "
       stroke="#000000"
       stroke-width="5"
       id="polygon54"
       transform="translate(-10,36)" />
    <polygon
       fill="#000000"
       fill-opacity="0.4"
       points="406,155 407,156 407,157 408,158 408,159 409,160 409,163 410,164 410,167 409,168 409,172 408,173 408,174 407,175 407,176 406,177 406,178 405,179 405,180 400,185 399,185 398,186 396,186 395,187 387,187 384,184 384,183 383,182 383,178 385,176 386,176 387,175 388,175 390,173 391,173 393,171 393,170 394,169 394,166 393,165 393,164 392,163 390,163 389,162 370,162 371,163 371,164 372,165 372,166 373,167 373,168 374,169 374,170 375,171 375,173 376,174 376,175 377,176 377,177 378,178 378,179 379,180 379,181 380,182 380,183 381,184 381,185 382,186 382,188 383,189 383,190 384,191 384,193 387,193 388,192 391,192 392,191 414,191 415,192 418,192 419,193 421,193 422,194 423,194 424,195 426,195 427,196 428,196 429,197 430,197 432,199 433,199 435,201 436,201 441,206 442,206 443,207 443,208 448,213 448,214 451,217 451,218 452,219 452,220 453,221 453,222 454,223 454,224 455,225 455,226 456,227 456,230 457,231 457,234 458,235 458,241 459,242 459,253 458,254 458,259 457,260 457,262 456,263 456,265 455,266 455,268 454,269 454,271 453,272 453,273 452,274 452,275 451,276 451,277 448,280 448,281 445,284 445,285 438,292 437,292 434,295 433,295 431,297 430,297 429,298 428,298 427,299 426,299 425,300 424,300 423,301 422,301 421,302 419,302 418,303 414,303 413,304 408,304 407,305 396,305 395,304 391,304 390,303 387,303 386,302 384,302 383,301 381,301 380,300 379,300 378,299 377,299 376,298 375,298 374,297 373,297 372,296 371,296 369,294 368,294 362,288 361,288 359,286 359,285 355,281 355,280 353,278 353,277 351,275 351,274 350,273 350,271 349,270 349,269 348,268 348,266 347,265 347,263 346,262 346,259 345,258 345,252 344,251 344,243 345,242 345,236 346,235 346,232 347,231 347,229 348,228 348,227 349,226 349,224 351,222 351,221 353,219 353,218 355,216 355,215 358,212 358,211 368,201 367,200 367,199 366,198 366,197 365,196 365,195 364,194 354,204 354,205 331,228 331,229 317,243 317,244 318,244 319,245 325,245 326,246 328,246 330,248 330,255 329,256 329,257 326,260 320,260 319,259 310,259 309,260 309,261 306,264 305,264 304,265 303,265 302,266 294,266 293,265 291,265 290,264 289,264 287,262 287,261 285,259 276,259 275,258 273,260 273,262 272,263 272,265 271,266 271,267 270,268 270,269 269,270 269,271 268,272 268,273 267,274 267,275 265,277 265,278 262,281 262,282 250,294 249,294 247,296 246,296 244,298 243,298 242,299 241,299 240,300 239,300 238,301 236,301 235,302 233,302 232,303 229,303 228,304 222,304 221,305 213,305 212,304 206,304 205,303 203,303 202,302 199,302 198,301 197,301 196,300 194,300 193,299 192,299 191,298 190,298 188,296 187,296 186,295 185,295 173,283 173,282 170,279 170,278 169,277 169,276 168,275 168,274 167,273 167,272 166,271 166,269 165,268 165,267 164,266 164,264 163,263 163,260 162,259 162,254 161,253 161,240 162,239 162,235 163,234 163,231 164,230 164,228 165,227 165,226 166,225 166,223 167,222 167,221 169,219 169,218 171,216 171,215 174,212 174,211 182,203 183,203 186,200 187,200 189,198 190,198 191,197 192,197 193,196 194,196 195,195 196,195 197,194 198,194 199,193 201,193 202,192 205,192 206,191 215,191 216,190 217,190 218,191 230,191 231,192 233,192 234,193 236,193 237,194 239,194 240,195 241,195 242,194 242,193 243,192 243,191 246,188 246,187 252,181 252,179 251,178 251,177 249,175 249,174 248,173 248,171 247,170 247,168 246,167 246,165 240,165 239,166 235,166 234,165 232,165 230,163 230,161 229,160 229,155 230,154 230,150 231,149 231,148 232,147 271,147 272,146 280,146 281,147 281,148 282,149 282,161 280,163 277,163 276,164 265,164 267,166 267,168 268,169 268,170 288,170 289,171 299,171 300,170 351,170 352,171 356,171 356,169 355,168 355,166 354,165 354,164 353,163 353,161 352,160 352,159 351,158 351,155 350,154 350,151 351,150 351,148 352,147 353,147 354,146 396,146 397,147 399,147 406,154 "
       stroke="#000000"
       stroke-width="5"
       id="polygon56"
       transform="translate(-10,36)" />
  </g>
  <polygon
     fill="#000"
     fill-opacity="0.4"
     points="483,82 484,81 485,81 486,82 506,82 507,83 507,144 525,144 525,84 524,83 525,82 549,82 550,83 549,84 549,107 550,108 550,123 549,124 549,379 550,380 550,408 549,409 549,439 550,440 551,440 552,441 553,441 554,442 555,442 559,446 560,446 572,458 572,459 575,462 575,463 578,466 578,467 934,467 935,468 935,535 934,536 933,535 586,535 585,534 581,534 580,533 579,533 577,535 577,536 574,539 574,540 571,543 571,544 556,559 555,559 552,562 551,562 550,563 550,579 549,580 549,607 550,608 550,633 549,634 549,679 550,680 550,687 549,688 549,930 550,931 550,938 549,939 548,938 526,938 525,937 525,863 507,863 507,937 506,938 486,938 485,939 484,939 483,938 483,564 482,564 481,563 480,563 479,562 478,562 477,561 476,561 474,559 473,559 469,555 468,555 459,546 459,545 455,541 455,540 454,539 454,538 453,537 453,536 452,535 452,534 442,534 441,535 240,535 239,534 200,534 199,535 152,535 151,534 132,534 131,535 120,535 119,534 106,534 105,535 95,535 94,534 94,511 95,510 99,510 100,509 108,509 109,510 139,510 140,509 141,510 142,510 142,491 141,492 97,492 96,493 95,493 94,492 94,482 95,481 95,468 96,467 435,467 436,466 447,466 448,467 453,467 453,466 455,464 455,463 472,446 473,446 476,443 477,443 479,441 480,441 481,440 482,440 484,438 484,437 483,436"
     stroke="#000"
     stroke-width="5"
     id="polygon58" />
  <polygon
     fill="#000000"
     fill-opacity="0.4"
     points="935,655 936,656 936,679 935,680 935,711 936,712 936,760 935,761 935,771 934,772 934,778 933,779 933,785 932,786 932,790 931,791 931,794 930,795 930,799 929,800 929,802 928,803 928,806 927,807 927,810 926,811 926,813 925,814 925,815 924,816 924,818 923,819 923,820 922,821 922,823 921,824 921,825 920,826 920,827 919,828 919,829 918,830 918,832 917,833 917,834 916,835 916,836 915,837 915,838 914,839 914,840 912,842 912,843 911,844 911,845 910,846 910,847 908,849 908,850 906,852 906,853 905,854 905,855 903,857 903,858 901,860 901,861 899,863 899,864 897,866 897,867 892,872 892,873 884,881 884,882 876,890 875,890 868,897 867,897 864,900 863,900 859,904 858,904 856,906 855,906 853,908 852,908 850,910 849,910 847,912 846,912 844,914 843,914 842,915 841,915 840,916 839,916 837,918 836,918 835,919 834,919 833,920 832,920 831,921 829,921 828,922 827,922 826,923 825,923 824,924 823,924 822,925 820,925 819,926 818,926 817,927 815,927 814,928 812,928 811,929 809,929 808,930 806,930 805,931 803,931 802,932 799,932 798,933 795,933 794,934 791,934 790,935 786,935 785,936 780,936 779,937 770,937 769,938 746,938 745,939 732,939 731,938 706,938 705,939 690,939 689,938 608,938 607,939 604,939 603,938 572,938 571,939 569,939 568,938 568,937 569,936 569,908 568,907 568,903 570,901 571,902 591,902 592,901 615,901 616,902 673,902 674,901 687,901 688,902 711,902 712,901 719,901 720,902 769,902 770,901 778,901 779,900 782,900 783,899 787,899 788,898 790,898 791,897 793,897 794,896 796,896 797,895 799,895 800,894 801,894 802,893 804,893 805,892 806,892 807,891 809,891 810,890 811,890 812,889 813,889 814,888 815,888 816,887 818,887 819,886 820,886 822,884 823,884 824,883 825,883 826,882 827,882 829,880 830,880 832,878 833,878 835,876 836,876 839,873 840,873 843,870 844,870 848,866 849,866 860,855 860,854 864,850 864,849 869,844 869,843 871,841 871,840 873,838 873,837 875,835 875,834 877,832 877,831 878,830 878,829 880,827 880,826 881,825 881,824 882,823 882,822 883,821 883,820 884,819 884,818 885,817 885,816 886,815 886,814 887,813 887,811 888,810 888,808 889,807 889,806 890,805 890,803 891,802 891,799 892,798 892,796 893,795 893,792 894,791 894,788 895,787 895,783 896,782 896,778 897,777 897,770 898,769 898,648 897,647 897,553 898,552 935,552 936,553 936,554 935,555 "
     stroke="#000000"
     stroke-width="5"
     id="polygon45"
     transform="translate(-3.5,1.5)" />
  <polygon
     fill="#000000"
     fill-opacity="0.4"
     points="133,775 134,776 134,781 135,782 135,785 136,786 136,789 137,790 137,793 138,794 138,796 139,797 139,800 140,801 140,803 141,804 141,805 142,806 142,808 143,809 143,811 144,812 144,813 145,814 145,815 146,816 146,817 147,818 147,819 148,820 148,821 149,822 149,823 151,825 151,826 152,827 152,828 154,830 154,831 156,833 156,834 157,835 157,836 160,839 160,840 162,842 162,843 165,846 165,847 170,852 170,853 176,859 176,860 181,865 182,865 189,872 190,872 194,876 195,876 197,878 198,878 200,880 201,880 203,882 204,882 205,883 206,883 208,885 209,885 210,886 211,886 212,887 213,887 214,888 215,888 216,889 217,889 218,890 219,890 220,891 222,891 223,892 224,892 225,893 227,893 228,894 229,894 230,895 233,895 234,896 236,896 237,897 240,897 241,898 245,898 246,899 250,899 251,900 258,900 259,901 278,901 279,902 291,902 292,901 462,901 463,902 463,938 462,939 455,939 454,938 392,938 391,939 300,939 299,938 258,938 257,937 250,937 249,936 244,936 243,935 239,935 238,934 234,934 233,933 231,933 230,932 227,932 226,931 224,931 223,930 221,930 220,929 218,929 217,928 215,928 214,927 212,927 211,926 210,926 209,925 207,925 206,924 205,924 204,923 203,923 202,922 201,922 200,921 199,921 198,920 197,920 196,919 195,919 194,918 193,918 191,916 190,916 188,914 187,914 185,912 184,912 182,910 181,910 179,908 178,908 176,906 175,906 173,904 172,904 170,902 169,902 164,897 163,897 156,890 155,890 147,882 147,881 138,872 138,871 134,867 134,866 132,864 132,863 129,860 129,859 127,857 127,856 125,854 125,853 124,852 124,851 122,849 122,848 121,847 121,846 119,844 119,843 118,842 118,841 117,840 117,839 116,838 116,837 114,835 114,833 113,832 113,831 112,830 112,829 111,828 111,827 110,826 110,824 109,823 109,822 108,821 108,819 107,818 107,816 106,815 106,814 105,813 105,811 104,810 104,808 103,807 103,805 102,804 102,801 101,800 101,798 100,797 100,794 99,793 99,790 98,789 98,786 97,785 97,781 96,780 96,774 95,773 95,761 94,760 94,692 95,691 95,672 94,671 94,606 95,605 95,562 94,561 94,553 95,552 131,552 132,553 132,768 133,769 "
     stroke="#000000"
     stroke-width="5"
     id="polygon46"
     transform="translate(-3.5,1.5)" />
  <polygon
     fill="#000000"
     fill-opacity="0.4"
     points="783,83 784,84 788,84 789,85 793,85 794,86 798,86 799,87 802,87 803,88 805,88 806,89 809,89 810,90 812,90 813,91 816,91 817,92 818,92 819,93 821,93 822,94 823,94 824,95 825,95 826,96 827,96 828,97 829,97 830,98 831,98 832,99 834,99 836,101 837,101 838,102 839,102 840,103 841,103 842,104 843,104 845,106 846,106 848,108 849,108 851,110 852,110 854,112 855,112 858,115 859,115 863,119 864,119 869,124 870,124 886,140 886,141 891,146 891,147 895,151 895,152 898,155 898,156 901,159 901,160 903,162 903,163 905,165 905,166 906,167 906,168 908,170 908,171 909,172 909,173 911,175 911,176 912,177 912,178 913,179 913,180 914,181 914,182 915,183 915,184 916,185 916,186 917,187 917,188 918,189 918,190 919,191 919,192 920,193 920,194 921,195 921,196 922,197 922,199 923,200 923,202 924,203 924,204 925,205 925,207 926,208 926,210 927,211 927,213 928,214 928,217 929,218 929,221 930,222 930,225 931,226 931,230 932,231 932,235 933,236 933,241 934,242 934,249 935,250 935,447 934,448 900,448 899,449 898,448 898,408 897,407 897,404 898,403 898,396 897,395 897,244 896,243 896,236 895,235 895,231 894,230 894,227 893,226 893,223 892,222 892,219 891,218 891,216 890,215 890,214 889,213 889,211 888,210 888,208 887,207 887,206 886,205 886,204 885,203 885,202 884,201 884,200 883,199 883,198 882,197 882,196 881,195 881,194 880,193 880,192 879,191 879,190 877,188 877,187 875,185 875,184 873,182 873,181 871,179 871,178 868,175 868,174 863,169 863,168 856,161 856,160 848,152 847,152 843,148 842,148 838,144 837,144 835,142 834,142 832,140 831,140 830,139 829,139 827,137 826,137 825,136 824,136 822,134 821,134 820,133 819,133 818,132 817,132 816,131 814,131 813,130 812,130 811,129 810,129 809,128 808,128 807,127 805,127 804,126 802,126 801,125 799,125 798,124 796,124 795,123 793,123 792,122 789,122 788,121 785,121 784,120 780,120 779,119 775,119 774,118 767,118 766,117 569,117 568,116 569,115 569,83 570,82 587,82 588,81 764,81 765,82 776,82 777,83 "
     stroke="#000000"
     stroke-width="5"
     id="polygon57"
     transform="translate(-3.5,1.5)" />
  <polygon
     fill="#000000"
     fill-opacity="0.4"
     points="463,114 464,115 464,116 463,117 262,117 261,118 256,118 255,119 251,119 250,120 246,120 245,121 243,121 242,122 239,122 238,123 236,123 235,124 233,124 232,125 230,125 229,126 228,126 227,127 225,127 224,128 222,128 221,129 220,129 219,130 217,130 216,131 215,131 214,132 213,132 212,133 211,133 210,134 209,134 207,136 206,136 205,137 204,137 203,138 202,138 201,139 200,139 198,141 197,141 196,142 195,142 193,144 192,144 189,147 188,147 184,151 183,151 167,167 167,168 163,172 163,173 160,176 160,177 157,180 157,181 155,183 155,184 153,186 153,187 152,188 152,189 150,191 150,192 149,193 149,194 148,195 148,197 147,198 147,199 146,200 146,201 145,202 145,203 144,204 144,205 143,206 143,208 142,209 142,211 141,212 141,213 140,214 140,216 139,217 139,219 138,220 138,223 137,224 137,227 136,228 136,231 135,232 135,236 134,237 134,241 133,242 133,247 132,248 132,447 131,448 96,448 95,447 95,249 96,248 96,240 97,239 97,234 98,233 98,230 99,229 99,225 100,224 100,221 101,220 101,217 102,216 102,214 103,213 103,211 104,210 104,208 105,207 105,205 106,204 106,203 107,202 107,200 108,199 108,197 109,196 109,195 110,194 110,192 111,191 111,190 112,189 112,188 113,187 113,186 114,185 114,184 115,183 115,182 116,181 116,180 117,179 117,178 118,177 118,176 120,174 120,173 121,172 121,171 123,169 123,168 124,167 124,166 126,164 126,163 128,161 128,160 130,158 130,157 133,154 133,153 136,150 136,149 142,143 142,142 160,124 161,124 166,119 167,119 170,116 171,116 174,113 175,113 177,111 178,111 180,109 181,109 183,107 184,107 185,106 186,106 188,104 189,104 190,103 191,103 192,102 193,102 194,101 195,101 197,99 198,99 199,98 200,98 201,97 202,97 203,96 205,96 206,95 207,95 208,94 209,94 210,93 212,93 213,92 214,92 215,91 218,91 219,90 221,90 222,89 225,89 226,88 228,88 229,87 232,87 233,86 236,86 237,85 241,85 242,84 247,84 248,83 254,83 255,82 265,82 266,81 455,81 456,82 462,82 463,83 "
     stroke="#000000"
     stroke-width="5"
     id="polygon59"
     transform="translate(-3.5,1.5)" />
</svg>
