<?xml version="1.0" encoding="utf-8" ?>
<svg baseProfile="tiny" height="1024" version="1.2" width="1024" xmlns="http://www.w3.org/2000/svg" xmlns:ev="http://www.w3.org/2001/xml-events" xmlns:xlink="http://www.w3.org/1999/xlink"><defs /><rect fill="#000" height="1024" width="1024" x="0" y="0" /><polygon fill="#fff" fill-opacity="0.2" points="618,869 617,870 576,870 575,871 568,871 567,872 566,872 564,874 563,874 563,875 562,876 562,883 565,886 566,886 567,887 571,887 572,888 669,888 670,889 721,889 722,888 768,888 769,887 782,887 783,886 786,886 787,885 789,885 790,884 791,884 793,882 793,879 794,878 793,877 793,876 791,874 790,874 789,873 788,873 787,872 785,872 784,871 780,871 779,870 733,870 732,869 695,869 694,870 666,870 665,869" stroke="#fff" stroke-width="10" /><polygon fill="#fff" fill-opacity="0.2" points="254,869 253,870 228,870 227,871 218,871 217,872 216,872 215,873 214,873 213,874 213,875 212,876 212,881 213,882 213,883 214,883 216,885 219,885 220,886 231,886 232,887 293,887 294,888 319,888 320,887 355,887 356,886 360,886 361,885 375,885 376,884 378,884 381,881 381,877 379,875 379,874 378,874 376,872 374,872 373,871 355,871 354,870 296,870 295,869" stroke="#fff" stroke-width="10" /><polygon fill="#fff" fill-opacity="0.2" points="281,818 280,819 278,819 278,820 276,822 276,824 277,825 277,826 278,827 279,827 280,828 282,828 283,829 285,829 286,828 286,826 287,825 287,820 285,818" stroke="#fff" stroke-width="10" /><polygon fill="#fff" fill-opacity="0.2" points="242,754 243,755 240,758 243,755" stroke="#fff" stroke-width="10" /><polygon fill="#fff" fill-opacity="0.2" points="784,744 777,751 777,752 775,754 775,755 774,756 774,757 772,759 772,760 770,762 770,763 769,764 769,765 768,766 768,767 767,768 767,769 766,770 766,772 765,773 765,774 764,775 764,778 763,779 763,785 764,786 764,789 765,790 765,791 766,792 766,793 767,794 767,795 771,799 772,799 774,801 776,801 777,802 779,802 780,803 789,803 790,802 792,802 793,801 795,801 797,799 798,799 803,794 803,793 805,791 805,790 806,789 806,787 807,786 807,782 808,781 808,778 807,777 807,772 806,771 806,769 805,768 805,766 804,765 804,764 803,763 803,762 801,760 801,759 800,758 800,757 798,755 798,754 796,752 796,751 794,749 794,748 791,745 790,745 789,744" stroke="#fff" stroke-width="10" /><polygon fill="#fff" fill-opacity="0.2" points="630,741 628,743 627,743 625,745 625,746 623,748 623,749 621,751 621,752 620,753 620,754 618,756 618,757 617,758 617,759 616,760 616,762 615,763 615,764 614,765 614,766 613,767 613,769 612,770 612,773 611,774 611,784 612,785 612,787 613,788 613,789 614,790 614,791 615,792 615,793 622,800 623,800 624,801 625,801 626,802 628,802 629,803 636,803 637,802 639,802 640,801 641,801 642,800 643,800 646,797 647,797 649,795 649,794 652,791 652,790 653,789 653,788 654,787 654,784 655,783 655,771 654,770 654,768 653,767 653,765 652,764 652,763 651,762 651,761 650,760 650,759 649,758 649,757 648,756 648,755 647,754 647,753 645,751 645,750 643,748 643,747 637,741" stroke="#fff" stroke-width="10" /><polygon fill="#fff" fill-opacity="0.2" points="555,741 554,742 553,742 548,747 548,748 546,750 546,751 545,752 545,753 544,754 544,755 543,756 543,757 542,758 542,759 541,760 541,761 540,762 540,763 539,764 539,765 538,766 538,768 537,769 537,771 536,772 536,778 535,779 536,780 536,785 537,786 537,788 538,789 538,790 539,791 539,792 540,793 540,794 545,799 546,799 548,801 549,801 550,802 552,802 553,803 561,803 562,802 564,802 565,801 567,801 575,793 575,792 576,791 576,790 577,789 577,788 578,787 578,785 579,784 579,771 578,770 578,767 577,766 577,765 576,764 576,762 575,761 575,760 574,759 574,758 572,756 572,755 571,754 571,753 570,752 570,751 569,750 569,749 567,747 567,746 563,742 562,742 561,741" stroke="#fff" stroke-width="10" /><polygon fill="#fff" fill-opacity="0.2" points="708,740 707,741 706,741 705,742 704,742 702,744 702,745 700,747 700,748 698,750 698,751 696,753 696,754 695,755 695,756 694,757 694,759 693,760 693,761 692,762 692,764 691,765 691,766 690,767 690,768 689,769 689,771 688,772 688,786 689,787 689,788 691,790 691,791 692,792 692,793 698,799 699,799 700,800 701,800 702,801 705,801 706,802 714,802 715,801 717,801 718,800 719,800 721,798 722,798 729,791 729,790 730,789 730,788 731,787 731,785 732,784 732,772 731,771 731,769 730,768 730,767 729,766 729,765 728,764 728,763 727,762 727,761 726,760 726,759 725,758 725,757 724,756 724,755 722,753 722,752 721,751 721,750 720,749 720,748 718,746 718,745 715,742 714,742 713,741 711,741 710,740" stroke="#fff" stroke-width="10" /><polygon fill="#fff" fill-opacity="0.2" points="384,700 383,701 382,701 381,702 380,702 379,703 378,703 376,705 376,707 375,708 375,719 376,720 376,725 377,726 377,728 380,731 382,731 383,732 388,732 389,731 390,731 393,728 393,726 394,725 394,717 395,716 395,711 394,710 394,706 393,705 393,704 390,701 389,701 388,700" stroke="#fff" stroke-width="10" /><polygon fill="#fff" fill-opacity="0.2" points="334,693 333,694 332,694 327,699 327,700 325,702 325,703 323,705 323,706 322,707 322,708 321,709 321,710 320,711 320,712 319,713 319,714 318,715 318,716 317,717 317,718 315,720 315,721 314,722 314,723 313,724 313,725 312,726 312,728 311,729 311,730 310,731 310,733 309,734 309,737 308,738 308,749 309,750 309,753 310,754 310,757 311,758 311,760 312,761 312,762 314,764 314,765 319,770 320,770 321,771 322,771 323,772 325,772 326,773 330,773 331,774 338,774 339,773 341,773 342,772 344,772 345,771 346,771 347,770 348,770 355,763 355,762 356,761 356,760 357,759 357,758 358,757 358,756 359,755 359,752 360,751 360,738 359,737 359,734 358,733 358,731 357,730 357,728 356,727 356,726 355,725 355,724 354,723 354,722 353,721 353,720 352,719 352,718 351,717 351,716 350,715 350,714 349,713 349,712 348,711 348,710 347,709 347,708 346,707 346,706 345,705 345,704 344,703 344,702 342,700 342,699 341,698 341,697 339,695 339,694 338,693" stroke="#fff" stroke-width="10" /><polygon fill="#fff" fill-opacity="0.2" points="332,724 333,723 335,723 336,724 336,725 337,726 337,727 338,728 338,730 339,731 339,732 340,733 340,735 341,736 341,738 342,739 342,747 341,748 341,749 339,751 339,752 338,753 337,753 336,754 332,754 327,749 327,748 326,747 326,738 327,737 327,734 328,733 328,731 329,730 329,729 331,727 331,726 332,725" stroke="#fff" stroke-width="10" /><polygon fill="#fff" fill-opacity="0.2" points="280,689 279,690 278,690 276,692 276,693 275,694 275,699 276,700 276,703 279,706 282,706 283,707 284,707 285,706 287,706 291,702 291,700 292,699 292,694 291,693 291,692 289,690 288,690 287,689" stroke="#fff" stroke-width="10" /><polygon fill="#fff" fill-opacity="0.2" points="826,684 824,686 823,686 810,699 810,700 808,702 808,703 807,704 807,705 806,706 806,709 805,710 805,723 806,724 806,725 807,726 807,727 808,728 808,729 811,732 811,733 812,734 813,734 815,736 816,736 817,737 818,737 819,738 822,738 823,739 827,739 828,738 831,738 832,737 834,737 835,736 836,736 837,735 838,735 843,730 843,729 845,727 845,726 846,725 846,723 847,722 847,709 846,708 846,707 845,706 845,704 844,703 844,702 843,701 843,700 842,699 842,698 841,697 841,696 840,695 840,694 838,692 838,691 832,685 831,685 830,684" stroke="#fff" stroke-width="10" /><polygon fill="#fff" fill-opacity="0.2" points="230,671 229,672 228,672 227,673 226,673 222,677 222,678 219,681 219,682 216,685 216,686 214,688 214,689 212,691 212,692 210,694 210,695 208,697 208,698 207,699 207,700 205,702 205,703 202,706 202,707 200,709 200,710 198,712 198,713 196,715 196,716 194,718 194,719 193,720 193,721 192,722 192,723 191,724 191,725 190,726 190,727 189,728 189,730 188,731 188,735 187,736 187,750 188,751 188,754 189,755 189,757 190,758 190,760 191,761 191,762 192,763 192,764 194,766 194,767 202,775 203,775 206,778 207,778 208,779 209,779 211,781 213,781 214,782 215,782 216,783 219,783 220,784 223,784 224,785 229,785 230,786 233,786 234,785 239,785 240,784 242,784 243,783 244,783 245,782 246,782 247,781 248,781 249,780 250,780 251,779 252,779 254,777 255,777 266,766 266,765 267,764 267,763 268,762 268,761 269,760 269,759 270,758 270,756 271,755 271,751 272,750 272,737 271,736 271,732 270,731 270,729 269,728 269,727 268,726 268,724 266,722 266,721 265,720 265,719 264,718 264,717 263,716 263,715 262,714 262,713 260,711 260,710 259,709 259,708 257,706 257,705 255,703 255,702 254,701 254,700 251,697 251,696 249,694 249,693 247,691 247,690 245,688 245,687 244,686 244,685 242,683 242,682 241,681 241,680 239,678 239,677 234,672 233,672 232,671" stroke="#fff" stroke-width="10" /><polygon fill="#fff" fill-opacity="0.2" points="228,699 229,698 230,698 231,699 231,701 232,702 232,703 234,705 234,706 235,707 235,708 236,709 236,710 237,711 237,712 238,713 238,714 239,715 239,716 240,717 240,718 242,720 242,721 243,722 243,723 244,724 244,725 245,726 245,727 246,728 246,729 247,730 247,731 248,732 248,733 249,734 249,736 250,737 250,740 251,741 251,749 250,750 250,753 249,754 249,755 248,756 248,757 247,758 247,759 244,762 243,762 242,763 241,762 241,763 240,764 239,763 239,761 239,764 238,765 236,765 235,766 226,766 225,765 224,765 223,764 222,764 219,761 218,761 215,758 215,757 211,753 211,752 210,751 210,750 209,749 209,748 208,747 208,745 207,744 207,733 208,732 208,730 210,728 210,727 211,726 211,725 212,724 212,723 213,722 213,721 214,720 214,719 216,717 216,716 220,712 220,711 223,708 223,707 225,705 225,704 226,703 226,702 228,700" stroke="#fff" stroke-width="10" /><polygon fill="#fff" fill-opacity="0.2" points="676,630 676,631 677,631" stroke="#fff" stroke-width="10" /><polygon fill="#fff" fill-opacity="0.2" points="331,561 326,566 326,567 324,569 324,570 322,572 322,573 320,575 320,576 319,577 319,578 318,579 318,580 316,582 316,583 314,585 314,586 312,588 312,589 311,590 311,591 310,592 310,593 308,595 308,596 307,597 307,598 305,600 305,601 303,603 303,604 302,605 302,606 301,607 301,608 300,609 300,610 299,611 299,612 298,613 298,614 297,615 297,617 296,618 296,625 295,626 295,628 296,629 296,636 297,637 297,640 298,641 298,642 299,643 299,644 300,645 300,646 302,648 302,649 309,656 310,656 312,658 313,658 314,659 315,659 316,660 318,660 319,661 320,661 321,662 324,662 325,663 330,663 331,664 337,664 338,663 341,663 342,662 344,662 345,661 346,661 347,660 349,660 350,659 351,659 353,657 354,657 361,650 361,649 362,648 362,647 364,645 364,644 365,643 365,642 366,641 366,640 367,639 367,638 368,637 368,635 369,634 369,620 368,619 368,616 367,615 367,613 366,612 366,610 365,609 365,608 364,607 364,606 363,605 363,604 361,602 361,601 360,600 360,599 359,598 359,597 358,596 358,595 357,594 357,593 355,591 355,590 354,589 354,588 353,587 353,586 352,585 352,584 351,583 351,582 350,581 350,580 348,578 348,577 347,576 347,575 346,574 346,573 345,572 345,571 344,570 344,569 343,568 343,567 341,565 341,564 339,562 338,562 337,561" stroke="#fff" stroke-width="10" /><polygon fill="#fff" fill-opacity="0.2" points="332,591 333,590 334,590 335,591 335,594 336,595 336,596 337,597 337,599 338,600 338,601 339,602 339,603 340,604 340,605 341,606 341,607 342,608 342,609 343,610 343,611 344,612 344,613 346,615 346,616 347,617 347,618 348,619 348,620 349,621 349,622 350,623 350,629 349,630 349,631 347,633 347,634 345,636 345,637 342,640 341,640 340,641 339,641 338,642 330,642 329,641 328,641 327,640 326,640 325,639 324,639 320,635 320,634 317,631 317,630 316,629 316,619 317,618 317,616 318,615 318,614 319,613 319,612 321,610 321,609 322,608 322,607 324,605 324,604 325,603 325,602 327,600 327,599 329,597 329,596 330,595 330,594 332,592" stroke="#fff" stroke-width="10" /><polygon fill="#fff" fill-opacity="0.2" points="382,560 381,561 380,561 375,566 375,567 374,568 374,571 375,572 375,574 377,576 377,577 378,578 379,578 380,579 380,580 377,583 377,585 376,586 376,592 377,593 377,596 378,597 379,597 380,598 382,598 383,599 387,599 388,598 389,598 390,597 391,597 391,596 392,595 392,592 393,591 393,589 392,588 392,584 391,583 391,581 390,580 390,579 393,576 393,575 394,574 394,566 393,565 393,564 390,561 389,561 388,560" stroke="#fff" stroke-width="10" /><polygon fill="#fff" fill-opacity="0.2" points="279,558 278,559 277,559 275,561 274,561 273,562 273,563 272,564 272,573 273,574 273,575 276,578 276,579 275,580 275,582 274,583 274,589 277,592 279,592 280,593 282,593 283,592 285,592 286,591 286,589 287,588 287,580 288,579 288,578 289,577 289,576 290,575 290,573 291,572 291,568 290,567 290,565 289,564 289,563 287,561 287,560 286,560 285,559 284,559 283,558" stroke="#fff" stroke-width="10" /><polygon fill="#fff" fill-opacity="0.2" points="228,557 227,558 226,558 222,562 222,563 220,565 220,566 218,568 218,569 215,572 215,573 211,577 211,578 208,581 208,582 205,585 205,586 204,587 204,588 202,590 202,591 201,592 201,593 200,594 200,595 199,596 199,597 198,598 198,599 197,600 197,601 196,602 196,604 195,605 195,606 194,607 194,609 193,610 193,614 192,615 192,622 193,623 193,627 194,628 194,630 195,631 195,632 196,633 196,634 197,635 197,636 198,637 198,638 199,639 199,640 203,644 203,645 204,645 207,648 208,648 209,649 210,649 212,651 213,651 214,652 216,652 217,653 219,653 220,654 222,654 223,655 237,655 238,654 241,654 242,653 243,653 244,652 245,652 246,651 247,651 248,650 249,650 251,648 252,648 255,645 256,645 257,644 257,643 259,641 259,640 261,638 261,637 262,636 262,635 263,634 263,632 264,631 264,628 265,627 265,624 266,623 266,615 265,614 265,610 264,609 264,607 263,606 263,605 262,604 262,603 261,602 261,601 260,600 260,599 259,598 259,597 257,595 257,594 255,592 255,591 253,589 253,588 251,586 251,585 249,583 249,582 247,580 247,579 246,578 246,577 244,575 244,574 242,572 242,571 241,570 241,569 240,568 240,567 239,566 239,565 237,563 237,562 233,558 231,558 230,557" stroke="#fff" stroke-width="10" /><polygon fill="#fff" fill-opacity="0.2" points="229,585 231,587 231,588 232,589 232,590 233,591 233,592 234,593 234,594 235,595 235,596 236,597 236,598 238,600 238,601 239,602 239,603 240,604 240,605 241,606 241,607 242,608 242,609 243,610 243,611 244,612 244,613 245,614 245,615 246,616 246,620 245,621 245,622 244,623 244,624 242,626 242,627 239,630 238,630 237,631 236,631 235,632 233,632 232,633 228,633 227,632 225,632 224,631 222,631 220,629 219,629 216,626 216,625 214,623 214,622 212,620 212,612 213,611 213,609 214,608 214,607 215,606 215,605 218,602 218,601 222,597 222,596 224,594 224,593 225,592 225,591 226,590 226,589 227,588 227,587" stroke="#fff" stroke-width="10" /><polygon fill="#fff" fill-opacity="0.2" points="659,487 658,488 657,488 656,489 655,489 650,494 650,495 646,499 646,500 644,502 644,503 642,505 642,506 641,507 641,508 640,509 640,512 639,513 639,515 643,519 644,519 645,520 646,520 647,521 651,521 653,519 654,519 654,518 655,517 655,516 656,515 656,514 657,513 657,511 658,510 658,509 659,508 660,508 662,506 663,506 664,505 665,505 668,502 668,501 669,500 669,499 670,498 670,495 669,494 669,493 664,488 662,488 661,487" stroke="#fff" stroke-width="10" /><polygon fill="#fff" fill-opacity="0.2" points="225,464 224,465 223,465 221,467 220,467 212,475 212,476 209,479 209,480 208,481 208,482 206,484 206,485 204,487 204,488 203,489 203,490 202,491 202,492 201,493 201,494 200,495 200,496 199,497 199,498 198,499 198,502 197,503 197,513 198,514 198,518 199,519 199,521 200,522 200,523 201,524 201,525 203,527 203,528 211,536 212,536 213,537 214,537 215,538 216,538 217,539 219,539 220,540 222,540 223,541 238,541 239,540 241,540 242,539 243,539 244,538 245,538 246,537 247,537 256,528 256,527 258,525 258,524 259,523 259,522 260,521 260,520 261,519 261,517 262,516 262,505 261,504 261,501 260,500 260,499 259,498 259,497 257,495 257,494 256,493 256,492 254,490 254,489 253,488 253,487 251,485 251,484 249,482 249,481 247,479 247,478 244,475 244,474 241,471 241,470 238,467 237,467 235,465 233,465 232,464" stroke="#fff" stroke-width="10" /><polygon fill="#fff" fill-opacity="0.2" points="228,481 229,480 232,483 232,485 233,486 233,487 235,489 235,490 237,492 237,493 239,495 239,496 240,497 240,498 241,499 241,500 242,501 242,502 243,503 243,507 244,508 243,509 243,511 242,512 242,513 237,518 236,518 235,519 234,519 233,520 225,520 224,519 223,519 222,518 221,518 216,513 216,512 215,511 215,502 216,501 216,500 217,499 217,498 219,496 219,495 221,493 221,492 223,490 223,489 225,487 225,486 226,485 226,484 228,482" stroke="#fff" stroke-width="10" /><polygon fill="#fff" fill-opacity="0.2" points="679,440 678,441 673,441 672,442 668,442 667,443 664,443 663,444 661,444 660,445 658,445 657,446 655,446 654,447 652,447 651,448 650,448 649,449 648,449 647,450 646,450 645,451 644,451 643,452 642,452 640,454 639,454 636,457 635,457 630,462 629,462 621,470 621,471 616,476 616,477 614,479 614,480 612,482 612,483 610,485 610,486 608,488 608,489 607,490 607,491 606,492 606,493 605,494 605,496 604,497 604,498 603,499 603,501 602,502 602,504 601,505 601,507 600,508 600,511 599,512 599,514 598,515 598,518 597,519 597,523 596,524 596,527 595,528 594,528 593,527 590,527 589,526 570,526 569,527 565,527 564,528 561,528 560,529 558,529 557,530 555,530 554,531 553,531 552,532 551,532 550,533 549,533 548,534 547,534 546,535 545,535 543,537 542,537 539,540 538,540 530,548 530,549 528,551 528,552 526,554 526,555 524,557 524,558 523,559 523,560 522,561 522,562 521,563 521,564 520,565 520,568 519,569 519,570 518,571 518,573 517,574 515,574 514,575 509,575 508,576 506,576 505,577 504,577 503,578 502,578 500,580 499,580 490,589 490,590 488,592 488,593 487,594 487,595 486,596 486,597 484,599 484,601 483,602 483,603 482,604 482,606 481,607 481,610 480,611 480,615 479,616 479,622 478,623 478,631 479,632 479,638 480,639 480,642 481,643 481,645 482,646 482,648 483,649 483,650 484,651 484,652 485,653 485,654 486,655 486,656 487,657 487,658 488,659 488,660 490,662 490,663 495,668 495,669 497,671 498,671 502,675 503,675 505,677 506,677 508,679 509,679 510,680 511,680 512,681 513,681 514,682 515,682 516,683 518,683 519,684 521,684 522,685 524,685 525,686 528,686 529,687 534,687 535,688 589,688 590,687 613,687 614,688 653,688 654,687 657,687 658,686 659,686 660,685 662,685 663,684 665,684 666,683 667,683 668,682 669,682 670,681 671,681 673,679 674,679 677,676 678,676 684,670 685,670 687,668 690,668 691,669 692,669 693,670 694,670 695,671 700,671 701,672 734,672 735,673 793,673 794,672 798,672 799,671 801,671 802,670 804,670 805,669 807,669 808,668 809,668 810,667 811,667 812,666 813,666 814,665 815,665 816,664 817,664 818,663 819,663 820,662 821,662 823,660 824,660 826,658 827,658 829,656 830,656 834,652 835,652 847,640 847,639 850,636 850,635 852,633 852,632 854,630 854,629 856,627 856,626 857,625 857,624 858,623 858,622 859,621 859,620 860,619 860,617 861,616 861,615 862,614 862,612 863,611 863,610 864,609 864,606 865,605 865,602 866,601 866,598 867,597 867,591 868,590 868,573 867,572 867,566 866,565 866,561 865,560 865,558 864,557 864,555 863,554 863,552 862,551 862,549 861,548 861,547 860,546 860,545 859,544 859,543 858,542 858,541 857,540 857,539 855,537 855,536 853,534 853,533 851,531 851,530 847,526 847,525 839,517 838,517 835,514 834,514 832,512 831,512 829,510 828,510 827,509 826,509 825,508 823,508 822,507 821,507 820,506 819,506 818,505 817,505 816,504 814,504 813,503 811,503 810,502 808,502 807,501 803,501 802,500 793,500 792,499 788,499 787,500 779,500 778,501 776,501 775,502 772,502 771,501 771,500 770,499 770,498 769,497 769,495 768,494 768,493 767,492 767,490 766,489 766,488 765,487 765,486 764,485 764,484 763,483 763,482 761,480 761,479 760,478 760,477 758,475 758,474 754,470 754,469 746,461 745,461 740,456 739,456 737,454 736,454 734,452 733,452 732,451 731,451 730,450 729,450 728,449 727,449 726,448 725,448 724,447 722,447 721,446 719,446 718,445 716,445 715,444 713,444 712,443 709,443 708,442 703,442 702,441 698,441 697,440" stroke="#fff" stroke-width="10" /><polygon fill="#fff" fill-opacity="0.2" points="573,548 574,547 589,547 590,548 594,548 595,549 597,549 598,550 599,550 600,551 601,551 602,552 603,552 604,553 605,553 607,555 608,555 619,566 619,567 621,569 621,570 622,571 622,572 623,573 623,575 624,576 624,578 625,579 625,587 624,588 623,588 617,594 617,598 616,599 616,600 618,602 619,602 620,603 621,603 622,602 624,602 625,601 626,601 627,600 628,600 629,599 631,599 632,598 633,598 634,597 636,597 637,596 640,596 641,595 653,595 654,596 657,596 658,597 660,597 661,598 662,598 663,599 664,599 665,600 666,600 669,603 670,603 671,604 671,605 674,608 674,609 675,610 675,611 676,612 676,613 677,614 677,616 678,617 678,619 679,620 679,623 680,624 680,629 679,630 677,628 677,622 677,623 676,624 677,625 677,628 679,630 679,632 678,633 677,633 676,634 677,633 678,633 679,634 679,635 678,636 678,638 677,639 677,640 676,641 676,643 675,644 675,645 674,646 674,647 673,648 673,649 671,651 671,652 670,653 669,652 669,654 665,658 664,658 662,660 660,660 659,659 660,660 660,661 659,662 658,661 658,662 656,664 654,664 653,665 651,665 650,666 649,665 648,666 538,666 537,665 533,665 532,664 530,664 529,663 527,663 526,662 525,662 524,661 523,661 522,660 521,660 519,658 518,658 509,649 509,648 507,646 507,645 505,643 505,642 504,641 504,639 503,638 503,637 502,636 502,634 501,633 501,629 500,628 500,621 501,620 501,615 502,614 502,612 503,611 503,610 505,608 505,607 507,605 507,604 513,598 514,598 516,596 517,596 518,595 519,595 520,594 521,594 522,593 526,593 527,592 538,592 539,593 546,593 546,591 547,590 547,587 546,586 546,584 540,578 540,574 541,573 541,571 542,570 542,568 544,566 544,565 549,560 550,560 554,556 555,556 557,554 558,554 560,552 562,552 563,551 564,551 565,550 566,550 567,549 569,549 570,548" stroke="#fff" stroke-width="10" /><polygon fill="#fff" fill-opacity="0.2" points="677,463 678,462 696,462 697,463 702,463 703,464 705,464 706,465 708,465 709,466 711,466 712,467 713,467 714,468 715,468 716,469 717,469 718,470 719,470 721,472 722,472 724,474 725,474 728,477 729,477 733,481 733,482 737,486 737,487 740,490 740,491 741,492 741,493 742,494 742,495 744,497 744,498 745,499 745,500 746,501 746,502 747,503 747,504 748,505 748,507 749,508 749,510 750,511 750,515 749,516 749,518 748,519 748,520 747,521 747,524 746,525 746,528 745,529 745,534 748,537 752,537 753,536 754,536 756,534 757,534 759,532 760,532 762,530 763,530 764,529 765,529 766,528 767,528 768,527 769,527 770,526 771,526 772,525 774,525 775,524 777,524 778,523 783,523 784,522 795,522 796,523 800,523 801,524 803,524 804,525 806,525 807,526 808,526 809,527 810,527 811,528 812,528 813,529 814,529 816,531 817,531 819,533 820,533 825,538 824,539 825,538 830,543 830,544 832,546 832,547 835,550 835,551 837,553 837,555 838,556 838,557 839,558 839,560 840,561 840,564 841,565 841,567 842,568 842,575 843,576 843,588 842,589 843,590 842,591 842,597 841,598 841,601 840,602 840,605 839,606 839,607 838,608 838,610 837,611 837,612 836,613 836,614 835,615 835,616 832,619 832,620 830,622 830,623 828,625 828,626 823,631 822,631 816,637 815,637 812,640 811,640 810,641 809,641 807,643 806,643 805,644 804,644 803,645 802,645 801,646 799,646 798,647 796,647 795,648 793,648 792,649 788,649 787,650 770,650 769,651 768,650 767,651 766,651 765,650 764,650 763,651 762,650 757,650 756,651 755,650 754,650 753,651 752,650 750,650 749,651 748,650 747,651 739,651 738,650 737,651 707,651 706,650 698,650 697,651 696,650 696,649 697,648 697,645 698,644 698,641 699,640 699,636 700,635 700,630 701,629 701,615 700,614 700,611 699,610 699,609 698,608 698,606 697,605 697,603 696,602 696,601 695,600 695,599 694,598 694,597 693,596 693,595 691,593 691,592 690,591 690,590 681,581 680,581 678,579 677,579 676,578 675,578 674,577 673,577 672,576 671,576 670,575 668,575 667,574 664,574 663,573 650,573 648,571 648,570 647,569 647,568 646,567 646,566 645,565 645,564 644,563 644,562 643,561 643,560 642,559 642,558 641,557 641,556 637,552 637,551 630,544 629,544 625,540 624,540 623,539 622,539 621,538 620,538 618,536 618,533 619,532 619,526 620,525 620,520 621,519 621,516 622,515 622,512 623,511 623,509 624,508 624,506 625,505 625,503 626,502 626,501 627,500 627,499 628,498 628,497 629,496 629,495 630,494 630,493 632,491 632,490 646,476 647,476 649,474 650,474 652,472 653,472 654,471 655,471 656,470 657,470 658,469 659,469 661,467 663,467 664,466 665,466 666,465 668,465 669,464 672,464 673,463" stroke="#fff" stroke-width="10" /><polygon fill="#fff" fill-opacity="0.2" points="331,439 330,440 329,440 328,441 327,441 326,442 326,443 324,445 324,446 321,449 321,450 320,451 320,452 318,454 318,455 316,457 316,458 315,459 315,460 313,462 313,463 312,464 312,465 310,467 310,468 309,469 309,470 307,472 307,473 305,475 305,476 303,478 303,479 301,481 301,482 300,483 300,484 299,485 299,486 298,487 298,488 297,489 297,490 296,491 296,492 295,493 295,495 294,496 294,500 293,501 293,507 294,508 294,513 295,514 295,517 296,518 296,519 297,520 297,521 298,522 298,523 299,524 299,525 300,526 300,527 308,535 309,535 310,536 311,536 312,537 313,537 314,538 315,538 316,539 317,539 318,540 320,540 321,541 323,541 324,542 327,542 328,543 338,543 339,542 342,542 343,541 344,541 345,540 346,540 347,539 348,539 349,538 350,538 351,537 352,537 354,535 355,535 362,528 362,527 364,525 364,524 366,522 366,521 367,520 367,518 368,517 368,515 369,514 369,511 370,510 370,499 369,498 369,496 368,495 368,493 367,492 367,490 366,489 366,488 365,487 365,486 364,485 364,484 362,482 362,481 361,480 361,479 360,478 360,477 359,476 359,475 357,473 357,472 356,471 356,470 354,468 354,467 353,466 353,465 351,463 351,462 350,461 350,460 348,458 348,457 347,456 347,455 345,453 345,452 344,451 344,450 342,448 342,447 340,445 340,444 337,441 336,441 335,440 333,440 332,439" stroke="#fff" stroke-width="10" /><polygon fill="#fff" fill-opacity="0.2" points="331,470 332,469 333,469 334,470 334,471 335,472 335,473 336,474 336,475 337,476 337,477 339,479 339,480 340,481 340,482 341,483 341,484 342,485 342,486 343,487 343,488 344,489 344,490 345,491 345,492 346,493 346,494 347,495 347,496 348,497 348,498 349,499 349,500 350,501 350,503 351,504 351,508 350,509 350,511 349,512 349,513 348,514 348,515 341,522 339,522 338,523 337,523 336,524 330,524 329,523 327,523 326,522 325,522 324,521 323,521 322,520 321,520 316,515 316,514 314,512 314,510 313,509 313,505 312,504 312,503 313,502 313,500 314,499 314,498 315,497 315,496 316,495 316,493 317,492 317,491 318,490 318,488 319,487 319,486 322,483 322,482 327,477 327,476 329,474 329,473 331,471" stroke="#fff" stroke-width="10" /><polygon fill="#fff" fill-opacity="0.2" points="302,361 301,362 300,362 299,363 298,363 296,365 296,367 295,368 295,413 296,414 296,415 300,419 302,419 303,420 309,420 310,419 311,419 312,418 313,418 315,416 315,415 316,414 316,413 317,412 317,370 316,369 316,367 311,362 309,362 308,361" stroke="#fff" stroke-width="10" /><polygon fill="#fff" fill-opacity="0.2" points="366,343 365,344 361,344 359,346 358,346 357,347 357,348 354,351 354,352 353,353 353,357 354,358 354,359 356,361 356,362 358,364 358,365 362,369 362,370 368,376 368,377 375,384 375,385 377,387 377,388 383,394 384,394 385,395 390,395 391,394 392,394 393,393 394,393 398,389 398,388 399,387 399,386 400,385 400,381 399,380 399,379 396,376 396,375 392,371 392,370 387,365 387,364 383,360 383,359 380,356 380,355 377,352 377,351 374,348 374,347 371,344 369,344 368,343" stroke="#fff" stroke-width="10" /><polygon fill="#fff" fill-opacity="0.2" points="243,343 242,344 241,344 233,352 233,353 230,356 230,357 225,362 225,363 221,367 221,368 216,373 216,374 214,376 214,377 212,379 212,386 213,387 213,388 215,390 215,391 216,391 218,393 219,393 220,394 221,394 222,395 227,395 228,394 229,394 231,392 231,391 234,388 234,387 236,385 236,384 238,382 238,381 242,377 242,376 248,370 248,369 256,361 256,360 257,359 257,358 258,357 258,356 259,355 259,353 258,352 258,351 257,350 257,349 255,347 255,346 254,346 252,344 251,344 250,343" stroke="#fff" stroke-width="10" /><polygon fill="#fff" fill-opacity="0.2" points="691,335 690,336 689,336 686,339 686,340 685,341 685,376 686,377 686,378 690,382 692,382 693,383 695,383 696,382 698,382 699,381 700,381 702,379 702,378 703,377 703,376 704,375 704,366 703,365 703,340 699,336 698,336 697,335" stroke="#fff" stroke-width="10" /><polygon fill="#fff" fill-opacity="0.2" points="627,334 623,338 623,339 622,340 622,375 626,379 627,379 628,380 629,380 630,381 632,381 633,380 635,380 640,375 640,372 641,371 641,365 640,364 640,338 638,336 637,336 635,334" stroke="#fff" stroke-width="10" /><polygon fill="#fff" fill-opacity="0.2" points="567,333 566,334 565,334 564,335 563,335 560,338 560,339 559,340 559,347 560,348 560,373 561,374 561,375 563,377 564,377 565,378 566,378 567,379 572,379 573,378 574,378 575,377 576,377 578,375 578,374 579,373 579,346 580,345 580,342 579,341 579,338 575,334 573,334 572,333" stroke="#fff" stroke-width="10" /><polygon fill="#fff" fill-opacity="0.2" points="756,332 755,333 753,333 749,337 749,338 748,339 748,374 749,375 749,376 752,379 753,379 754,380 755,380 756,381 758,381 759,380 761,380 762,379 763,379 766,376 766,374 767,373 767,360 766,359 766,342 767,341 766,340 766,338 765,337 765,336 762,333 760,333 759,332" stroke="#fff" stroke-width="10" /><polygon fill="#fff" fill-opacity="0.2" points="818,331 817,332 815,332 811,336 811,337 810,338 810,372 811,373 811,374 812,375 812,376 813,377 814,377 816,379 822,379 823,378 824,378 826,376 827,376 827,375 828,374 828,370 829,369 829,365 828,364 828,360 829,359 829,338 828,337 828,335 826,333 825,333 824,332 821,332 820,331" stroke="#fff" stroke-width="10" /><polygon fill="#fff" fill-opacity="0.2" points="408,298 407,299 405,299 404,300 403,300 401,302 401,303 399,305 399,307 398,308 398,313 399,314 399,315 403,319 404,319 406,321 407,321 409,323 410,323 412,325 413,325 414,326 415,326 417,328 418,328 419,329 420,329 422,331 423,331 425,333 426,333 428,335 429,335 431,337 432,337 433,338 434,338 435,339 436,339 437,340 443,340 444,339 445,339 448,336 448,335 449,334 449,333 450,332 450,330 451,329 451,326 450,325 450,323 445,318 444,318 443,317 442,317 441,316 440,316 439,315 438,315 436,313 435,313 434,312 433,312 431,310 430,310 429,309 428,309 426,307 425,307 424,306 423,306 422,305 421,305 420,304 419,304 417,302 416,302 415,301 414,301 412,299 409,299" stroke="#fff" stroke-width="10" /><polygon fill="#fff" fill-opacity="0.2" points="201,298 200,299 199,299 198,300 197,300 196,301 195,301 193,303 192,303 190,305 189,305 188,306 187,306 185,308 184,308 182,310 181,310 180,311 179,311 178,312 177,312 175,314 174,314 173,315 172,315 170,317 169,317 164,322 164,323 163,324 163,331 164,332 164,334 166,336 166,337 168,339 169,339 170,340 177,340 178,339 179,339 181,337 182,337 184,335 185,335 188,332 189,332 190,331 191,331 193,329 194,329 196,327 197,327 199,325 200,325 202,323 203,323 205,321 206,321 207,320 208,320 210,318 211,318 213,316 213,315 214,314 214,307 213,306 213,305 210,302 210,301 209,300 208,300 207,299 205,299 204,298" stroke="#fff" stroke-width="10" /><polygon fill="#fff" fill-opacity="0.2" points="815,278 817,280 818,279 819,279 818,279 817,280" stroke="#fff" stroke-width="10" /><polygon fill="#fff" fill-opacity="0.2" points="802,278 803,279 803,280 802,281 801,280 802,281 802,282 801,283 802,282 802,281 803,280 804,281 805,280 807,282 805,280 804,281 803,280 803,279" stroke="#fff" stroke-width="10" /><polygon fill="#fff" fill-opacity="0.2" points="809,267 809,268 810,269 810,270 811,271 810,270 810,269 809,268" stroke="#fff" stroke-width="10" /><polygon fill="#fff" fill-opacity="0.2" points="817,265 818,265 819,266 818,265" stroke="#fff" stroke-width="10" /><polygon fill="#fff" fill-opacity="0.2" points="818,262 819,262 820,263 819,262" stroke="#fff" stroke-width="10" /><polygon fill="#fff" fill-opacity="0.2" points="825,260 825,261 824,262 825,261 826,262 827,262 828,263 827,262 826,262 825,261" stroke="#fff" stroke-width="10" /><polygon fill="#fff" fill-opacity="0.2" points="828,258 830,260 829,261 830,260" stroke="#fff" stroke-width="10" /><polygon fill="#fff" fill-opacity="0.2" points="821,256 822,257 823,257 822,257" stroke="#fff" stroke-width="10" /><polygon fill="#fff" fill-opacity="0.2" points="419,247 418,248 416,248 414,250 414,251 412,253 412,255 411,256 411,260 412,261 412,263 413,264 413,265 417,269 419,269 420,270 424,270 425,269 467,269 471,265 471,264 472,263 472,261 473,260 473,254 472,253 472,252 467,247" stroke="#fff" stroke-width="10" /><polygon fill="#fff" fill-opacity="0.2" points="153,247 152,248 147,248 146,249 145,249 142,252 142,254 141,255 141,261 142,262 142,264 147,269 149,269 150,270 169,270 170,269 175,269 176,270 179,270 180,269 187,269 188,270 193,270 194,269 196,269 197,268 198,268 199,267 199,266 201,264 201,263 202,262 202,254 201,253 201,252 197,248 194,248 193,247" stroke="#fff" stroke-width="10" /><polygon fill="#fff" fill-opacity="0.2" points="825,244 824,245 825,244 826,245" stroke="#fff" stroke-width="10" /><polygon fill="#fff" fill-opacity="0.2" points="352,242 352,243 353,243" stroke="#fff" stroke-width="10" /><polygon fill="#fff" fill-opacity="0.2" points="574,238 573,239 572,239 570,241 570,242 568,244 568,245 567,246 567,247 569,249 570,249 571,250 572,250 573,251 575,251 576,252 577,252 578,253 580,253 581,252 582,252 584,250 584,248 585,247 585,243 584,242 584,241 583,240 582,240 581,239 579,239 578,238" stroke="#fff" stroke-width="10" /><polygon fill="#fff" fill-opacity="0.2" points="826,235 826,237 827,236 828,237 828,236 827,236" stroke="#fff" stroke-width="10" /><polygon fill="#fff" fill-opacity="0.2" points="832,232 833,233 834,232 835,232 836,233 836,234 836,233 837,232 836,233 835,232 834,232 833,233" stroke="#fff" stroke-width="10" /><polygon fill="#fff" fill-opacity="0.2" points="267,232 266,233 265,233 264,234 264,235 263,236 263,237 262,238 262,239 261,240 261,242 260,243 260,247 259,248 259,258 260,259 260,260 261,260 262,261 263,261 264,262 272,262 275,259 275,257 276,256 276,251 277,250 277,247 278,246 278,244 279,243 279,242 280,241 280,238 279,237 279,236 278,236 276,234 275,234 274,233 272,233 271,232" stroke="#fff" stroke-width="10" /><polygon fill="#fff" fill-opacity="0.2" points="807,218 806,219 806,220 805,221 804,221 804,222 807,222 808,221 809,221 810,222 809,223 810,223 811,222 812,223 812,225 812,224 813,223 814,224 814,225 818,225 819,226 818,227 819,227 820,226 821,227 821,228 820,229 821,229 823,231 822,232 823,233 824,232 825,233 826,233 827,232 828,233 828,234 828,233 829,232 830,232 828,230 828,229 824,225 825,224 824,224 823,223 821,225 820,224 820,223 821,222 820,222 818,220 816,220 814,218 812,218 810,220 809,219 808,219" stroke="#fff" stroke-width="10" /><polygon fill="#fff" fill-opacity="0.2" points="827,232 828,231 829,232 828,233" stroke="#fff" stroke-width="10" /><polygon fill="#fff" fill-opacity="0.2" points="822,232 823,231 824,232 823,233" stroke="#fff" stroke-width="10" /><polygon fill="#fff" fill-opacity="0.2" points="826,230 827,229 828,230 828,231 827,232 826,231" stroke="#fff" stroke-width="10" /><polygon fill="#fff" fill-opacity="0.2" points="825,229 826,230 826,231 827,232 826,233 825,233 823,231" stroke="#fff" stroke-width="10" /><polygon fill="#fff" fill-opacity="0.2" points="822,228 823,227 824,228 823,229" stroke="#fff" stroke-width="10" /><polygon fill="#fff" fill-opacity="0.2" points="820,226 821,225 822,225 823,226 822,227 821,227" stroke="#fff" stroke-width="10" /><polygon fill="#fff" fill-opacity="0.2" points="816,224 817,223 818,224 817,225" stroke="#fff" stroke-width="10" /><polygon fill="#fff" fill-opacity="0.2" points="818,222 819,221 820,222 820,225 819,226 818,225" stroke="#fff" stroke-width="10" /><polygon fill="#fff" fill-opacity="0.2" points="814,221 815,220 816,221 815,222" stroke="#fff" stroke-width="10" /><polygon fill="#fff" fill-opacity="0.2" points="813,219 814,218 815,219 814,220" stroke="#fff" stroke-width="10" /><polygon fill="#fff" fill-opacity="0.2" points="806,219 807,218 808,219 807,220" stroke="#fff" stroke-width="10" /><polygon fill="#fff" fill-opacity="0.2" points="735,212 734,213 733,213 728,218 728,221 727,222 727,224 728,225 728,227 730,229 731,229 732,230 733,230 734,231 739,231 741,229 741,228 742,227 742,218 741,217 741,214 739,212" stroke="#fff" stroke-width="10" /><polygon fill="#fff" fill-opacity="0.2" points="292,210 291,211 290,211 289,212 288,212 286,214 285,214 280,219 280,225 281,226 281,227 282,228 282,229 283,230 283,231 285,233 287,233 288,232 291,232 292,231 293,231 294,230 296,230 297,229 298,229 299,228 300,228 302,226 302,225 303,224 303,217 302,216 302,215 301,214 301,213 298,210" stroke="#fff" stroke-width="10" /><polygon fill="#fff" fill-opacity="0.2" points="436,174 435,175 434,175 433,176 432,176 430,178 429,178 427,180 426,180 424,182 423,182 421,184 420,184 417,187 416,187 414,189 413,189 411,191 410,191 409,192 408,192 406,194 405,194 399,200 399,209 400,210 400,211 402,213 402,214 403,215 404,215 406,217 411,217 412,216 413,216 414,215 415,215 417,213 418,213 420,211 421,211 423,209 424,209 426,207 427,207 429,205 430,205 431,204 432,204 434,202 435,202 436,201 437,201 439,199 440,199 442,197 443,197 445,195 446,195 451,190 451,182 450,181 450,180 445,175 444,175 443,174" stroke="#fff" stroke-width="10" /><polygon fill="#fff" fill-opacity="0.2" points="300,174 299,175 292,175 291,176 287,176 286,177 283,177 282,178 279,178 278,179 277,179 276,180 274,180 273,181 272,181 271,182 270,182 269,183 268,183 267,184 266,184 264,186 263,186 262,187 261,187 258,190 257,190 255,192 254,192 241,205 241,206 238,209 238,210 236,212 236,213 234,215 234,216 232,218 232,219 231,220 231,221 230,222 230,223 229,224 229,226 228,227 228,228 227,229 227,231 226,232 226,235 225,236 225,240 224,241 224,247 223,248 223,270 224,271 224,276 225,277 225,280 226,281 226,283 227,284 227,286 228,287 228,289 229,290 229,291 230,292 230,294 231,295 231,296 233,298 233,299 234,300 234,301 236,303 236,304 239,307 239,308 243,312 243,313 254,324 255,324 258,327 259,327 261,329 262,329 264,331 265,331 267,333 268,333 269,334 270,334 271,335 272,335 273,336 274,336 275,337 276,337 277,338 279,338 280,339 282,339 283,340 286,340 287,341 291,341 292,342 297,342 298,343 309,343 310,342 318,342 319,341 322,341 323,340 327,340 328,339 330,339 331,338 333,338 334,337 336,337 337,336 339,336 340,335 341,335 342,334 343,334 344,333 345,333 346,332 347,332 348,331 349,331 350,330 351,330 353,328 354,328 357,325 358,325 369,314 369,313 373,309 373,308 375,306 375,305 377,303 377,302 379,300 379,299 380,298 380,297 381,296 381,295 382,294 382,293 383,292 383,290 384,289 384,288 385,287 385,285 386,284 386,282 387,281 387,279 388,278 388,275 389,274 389,269 390,268 390,250 389,249 389,243 388,242 388,239 387,238 387,236 386,235 386,232 385,231 385,230 384,229 384,227 383,226 383,225 382,224 382,223 381,222 381,221 380,220 380,219 379,218 379,217 377,215 377,214 375,212 375,211 373,209 373,208 369,204 369,203 360,194 359,194 356,191 355,191 352,188 351,188 349,186 348,186 347,185 346,185 344,183 343,183 342,182 341,182 340,181 339,181 338,180 336,180 335,179 334,179 333,178 330,178 329,177 327,177 326,176 321,176 320,175 313,175 312,174" stroke="#fff" stroke-width="10" /><polygon fill="#fff" fill-opacity="0.2" points="298,196 299,195 309,195 310,196 315,196 316,197 320,197 321,198 323,198 324,199 326,199 327,200 328,200 329,201 331,201 333,203 334,203 335,204 336,204 337,205 338,205 340,207 341,207 345,211 346,211 352,217 352,218 356,222 356,223 358,225 358,226 360,228 360,230 362,232 362,233 363,234 363,235 364,236 364,239 365,240 365,243 366,244 366,251 367,252 367,266 366,267 366,273 365,274 365,277 364,278 364,280 363,281 363,283 362,284 362,285 361,286 361,287 360,288 360,289 359,290 359,291 358,292 358,293 356,295 356,296 351,301 351,302 350,303 349,303 344,308 343,308 340,311 339,311 338,312 337,312 335,314 334,314 333,315 332,315 331,316 330,316 329,317 327,317 326,318 324,318 323,319 321,319 320,320 317,320 316,321 298,321 297,320 293,320 292,319 289,319 288,318 286,318 285,317 283,317 282,316 281,316 280,315 279,315 278,314 277,314 275,312 274,312 272,310 271,310 269,308 268,308 256,296 256,295 254,293 254,292 253,291 253,290 251,288 251,287 250,286 250,285 249,284 249,282 248,281 248,280 247,279 247,276 246,275 246,273 245,272 245,268 244,267 244,261 243,260 243,255 244,254 244,245 245,244 245,241 246,240 246,238 247,237 247,235 248,234 248,232 249,231 249,230 250,229 250,228 252,226 252,225 253,224 253,223 267,209 268,209 271,206 272,206 274,204 275,204 277,202 278,202 279,201 280,201 281,200 282,200 283,199 285,199 286,198 287,198 288,197 291,197 292,196" stroke="#fff" stroke-width="10" /><polygon fill="#fff" fill-opacity="0.2" points="172,174 171,175 170,175 169,176 168,176 164,180 164,181 163,182 163,185 162,186 162,187 163,188 163,190 164,191 164,192 169,197 170,197 171,198 172,198 173,199 174,199 176,201 177,201 178,202 179,202 180,203 181,203 183,205 184,205 186,207 187,207 190,210 191,210 193,212 194,212 196,214 197,214 198,215 199,215 200,216 201,216 202,217 206,217 208,215 209,215 210,214 210,213 212,211 212,210 213,209 213,207 214,206 214,201 213,200 213,199 209,195 208,195 206,193 205,193 203,191 202,191 201,190 200,190 197,187 196,187 194,185 193,185 191,183 190,183 188,181 187,181 185,179 184,179 182,177 181,177 179,175 177,175 176,174" stroke="#fff" stroke-width="10" /><polygon fill="#fff" fill-opacity="0.2" points="646,169 642,173 642,174 640,176 640,177 639,178 639,179 638,180 638,181 637,182 637,183 636,184 636,186 635,187 635,189 634,190 634,193 633,194 635,196 636,196 638,198 640,198 641,199 644,199 645,200 646,200 650,196 650,195 651,194 651,193 652,192 652,191 654,189 654,188 655,187 655,186 657,184 657,183 658,182 658,178 657,177 657,176 651,170 650,170 649,169" stroke="#fff" stroke-width="10" /><polygon fill="#fff" fill-opacity="0.2" points="386,120 385,121 383,121 382,122 381,122 378,125 378,126 376,128 376,129 374,131 374,132 371,135 371,136 367,140 367,141 362,146 362,147 358,151 358,152 355,155 355,156 354,157 354,163 355,164 355,165 360,170 361,170 362,171 363,171 364,172 369,172 370,171 371,171 374,168 374,167 377,164 377,163 380,160 380,159 383,156 383,155 390,148 390,147 395,142 395,141 397,139 397,138 399,136 399,129 398,128 398,127 397,126 397,125 395,123 394,123 393,122 392,122 391,121 389,121 388,120" stroke="#fff" stroke-width="10" /><polygon fill="#fff" fill-opacity="0.2" points="222,120 221,121 219,121 217,123 216,123 216,124 214,126 214,127 213,128 213,135 214,136 214,137 216,139 216,140 219,143 219,144 223,148 223,149 226,152 226,153 230,157 230,158 233,161 233,162 235,164 235,165 241,171 243,171 244,172 246,172 247,171 249,171 250,170 251,170 252,169 253,169 255,167 255,166 256,165 256,164 257,163 257,162 258,161 258,158 257,157 257,156 254,153 254,152 249,147 249,146 245,142 245,141 242,138 242,137 239,134 239,133 236,130 236,129 234,127 234,126 229,121 228,121 227,120" stroke="#fff" stroke-width="10" /><polygon fill="#fff" fill-opacity="0.2" points="679,118 678,119 672,119 671,120 668,120 667,121 664,121 663,122 660,122 659,123 657,123 656,124 655,124 654,125 652,125 651,126 650,126 649,127 648,127 647,128 645,128 644,129 643,129 642,130 641,130 639,132 638,132 636,134 635,134 634,135 633,135 630,138 629,138 625,142 624,142 618,148 618,149 613,154 613,155 610,158 610,159 609,160 609,161 608,162 608,163 607,164 607,165 606,166 606,167 604,169 604,171 603,172 603,173 602,174 602,175 601,176 601,178 600,179 600,181 599,182 599,184 598,185 598,187 597,188 585,188 584,189 581,189 580,190 576,190 575,191 573,191 572,192 570,192 569,193 568,193 567,194 565,194 564,195 563,195 562,196 561,196 559,198 558,198 555,201 554,201 550,205 549,205 545,209 545,210 542,213 542,214 539,217 539,218 537,220 537,221 536,222 536,223 535,224 535,225 534,226 534,228 533,229 533,230 532,231 532,233 531,234 531,236 530,237 530,240 529,241 529,245 528,246 528,258 529,259 529,264 530,265 530,269 531,270 531,273 532,274 532,276 533,277 533,278 534,279 534,281 535,282 535,283 536,284 536,285 538,287 538,288 539,289 539,290 541,292 541,293 545,297 545,298 552,305 553,305 556,308 557,308 559,310 560,310 562,312 563,312 565,314 566,314 567,315 568,315 569,316 570,316 571,317 572,317 573,318 575,318 576,319 578,319 579,320 581,320 582,321 586,321 587,322 591,322 592,323 599,323 600,324 635,324 636,325 640,325 641,324 671,324 672,325 689,325 690,324 699,324 700,323 706,323 707,322 711,322 712,321 714,321 715,320 716,320 717,319 718,319 719,318 720,318 721,317 722,317 725,314 727,314 728,313 732,313 733,312 739,312 740,311 777,311 778,310 802,310 803,309 810,309 811,308 813,308 814,307 817,307 818,306 819,306 820,305 822,305 823,304 824,304 825,303 826,303 827,302 828,302 829,301 830,301 831,300 832,300 834,298 835,298 837,296 838,296 841,293 842,293 849,286 850,286 850,285 856,279 856,278 858,276 858,275 859,274 859,273 860,272 860,271 861,270 861,269 862,268 862,267 863,266 863,264 864,263 864,262 865,261 865,259 866,258 866,255 867,254 867,250 868,249 868,230 867,229 867,225 866,224 866,221 865,220 865,218 864,217 864,215 863,214 863,213 862,212 862,210 861,209 861,208 859,206 859,205 858,204 858,203 856,201 856,200 854,198 854,197 851,194 851,193 844,186 843,186 840,183 839,183 838,182 837,182 835,180 834,180 833,179 832,179 831,178 830,178 829,177 828,177 827,176 826,176 825,175 823,175 822,174 821,174 820,173 818,173 817,172 814,172 813,171 808,171 807,170 792,170 791,171 786,171 785,172 782,172 781,173 779,173 778,174 777,174 776,175 775,175 773,177 772,176 772,175 771,174 771,173 770,172 770,171 769,170 769,169 768,168 768,167 767,166 767,165 766,164 766,163 765,162 765,161 763,159 763,158 761,156 761,155 758,152 758,151 746,139 745,139 741,135 740,135 738,133 737,133 735,131 734,131 733,130 732,130 731,129 730,129 729,128 728,128 727,127 726,127 725,126 723,126 722,125 721,125 720,124 718,124 717,123 716,123 715,122 712,122 711,121 709,121 708,120 704,120 703,119 698,119 697,118" stroke="#fff" stroke-width="10" /><polygon fill="#fff" fill-opacity="0.2" points="827,271 828,270 829,271 829,273 828,274 827,273 828,274 827,275 827,276 826,277 824,275 825,274 824,273 826,271" stroke="#fff" stroke-width="10" /><polygon fill="#fff" fill-opacity="0.2" points="833,267 834,266 835,267 834,268" stroke="#fff" stroke-width="10" /><polygon fill="#fff" fill-opacity="0.2" points="826,267 827,266 829,268 829,269 827,271 825,269 826,268" stroke="#fff" stroke-width="10" /><polygon fill="#fff" fill-opacity="0.2" points="825,266 826,265 827,266 826,267" stroke="#fff" stroke-width="10" /><polygon fill="#fff" fill-opacity="0.2" points="836,258 837,257 838,258 837,259" stroke="#fff" stroke-width="10" /><polygon fill="#fff" fill-opacity="0.2" points="834,258 835,257 837,259 837,261 836,262 835,262 835,265 834,266 833,265 833,261 834,260 835,260 834,259" stroke="#fff" stroke-width="10" /><polygon fill="#fff" fill-opacity="0.2" points="832,257 833,256 834,256 835,257 834,258 834,260 833,261 832,260" stroke="#fff" stroke-width="10" /><polygon fill="#fff" fill-opacity="0.2" points="835,256 836,255 837,256 836,257" stroke="#fff" stroke-width="10" /><polygon fill="#fff" fill-opacity="0.2" points="831,252 832,253 832,254 831,255 830,255 829,254" stroke="#fff" stroke-width="10" /><polygon fill="#fff" fill-opacity="0.2" points="836,251 837,250 838,251 837,252" stroke="#fff" stroke-width="10" /><polygon fill="#fff" fill-opacity="0.2" points="833,250 834,251 834,252 834,251 835,250 836,251 836,252 837,253 836,254 834,254 835,255 834,256 833,256 832,255 832,253 831,252" stroke="#fff" stroke-width="10" /><polygon fill="#fff" fill-opacity="0.2" points="833,250 834,249 835,250 834,251" stroke="#fff" stroke-width="10" /><polygon fill="#fff" fill-opacity="0.2" points="835,249 836,248 837,249 836,250" stroke="#fff" stroke-width="10" /><polygon fill="#fff" fill-opacity="0.2" points="840,248 841,247 842,248 841,249" stroke="#fff" stroke-width="10" /><polygon fill="#fff" fill-opacity="0.2" points="835,240 836,239 837,239 838,240 838,241 839,242 838,243 837,243 836,242 836,241" stroke="#fff" stroke-width="10" /><polygon fill="#fff" fill-opacity="0.2" points="842,238 843,237 844,238 844,239 843,240 843,246 842,247 841,246 841,242 841,246 840,247 839,246 839,244 838,243 839,242 838,241 838,239 839,238" stroke="#fff" stroke-width="10" /><polygon fill="#fff" fill-opacity="0.2" points="838,237 839,236 840,237 839,238" stroke="#fff" stroke-width="10" /><polygon fill="#fff" fill-opacity="0.2" points="836,237 837,236 839,238 838,239 837,239 836,238" stroke="#fff" stroke-width="10" /><polygon fill="#fff" fill-opacity="0.2" points="839,236 840,235 843,235 844,236 843,237 842,237 841,238" stroke="#fff" stroke-width="10" /><polygon fill="#fff" fill-opacity="0.2" points="793,193 794,192 808,192 809,193 812,193 813,194 814,194 815,195 817,195 819,197 820,197 821,198 822,198 824,200 825,200 834,209 834,210 836,212 836,213 837,214 837,215 838,216 838,217 839,218 839,219 838,220 839,219 840,220 840,221 841,222 841,223 842,224 842,229 841,230 841,231 841,230 842,229 843,230 843,232 842,233 840,233 839,232 840,233 843,233 844,234 843,235 839,235 838,234 839,235 839,236 838,237 837,236 835,236 834,235 836,237 836,239 835,240 833,240 832,239 832,238 833,237 834,238 832,236 833,237 831,239 830,238 830,236 830,238 829,239 828,239 829,239 830,238 831,239 832,239 833,240 835,240 836,241 836,242 837,243 838,243 839,244 838,245 836,245 835,244 835,245 837,245 838,246 838,248 837,249 836,248 836,247 834,247 832,245 833,244 832,244 831,243 832,244 832,245 831,246 830,245 831,246 832,245 834,247 835,247 836,248 835,249 833,249 832,248 833,249 833,250 832,251 831,251 830,250 829,250 828,249 827,250 826,249 827,250 828,249 829,250 830,250 831,251 831,252 830,253 829,253 828,252 829,253 829,254 830,255 829,256 830,257 829,256 830,255 832,255 833,256 832,257 832,260 833,261 833,262 832,263 831,262 830,263 830,264 830,263 831,262 833,264 833,268 832,269 831,268 832,269 830,271 829,271 828,270 829,269 829,268 828,267 828,266 827,266 826,265 826,264 826,265 825,266 824,266 823,267 822,266 821,267 822,266 823,267 824,266 825,266 826,267 824,269 825,269 826,270 826,271 825,272 824,271 825,272 824,273 823,273 822,272 822,271 821,272 819,270 821,272 820,273 819,273 818,272 819,273 819,274 818,275 817,274 818,275 818,276 817,277 816,276 817,277 818,277 818,275 819,274 820,275 819,274 821,272 822,272 823,273 822,274 823,273 824,273 825,274 823,276 824,275 825,276 825,277 822,280 821,280 820,281 819,281 818,282 817,282 816,283 815,283 814,284 812,284 811,285 804,285 803,286 726,286 725,285 722,285 721,284 720,284 719,283 717,283 715,281 714,281 713,280 712,280 710,278 709,278 701,270 701,269 699,267 699,266 698,265 698,264 697,263 697,262 696,261 696,260 695,259 695,257 694,256 694,251 693,250 693,244 694,243 694,239 695,238 695,237 700,232 701,232 703,230 704,230 705,229 706,229 707,228 710,228 711,227 723,227 723,225 724,224 724,221 723,220 723,219 722,218 722,212 723,211 723,209 724,208 724,207 731,200 732,200 734,198 735,198 736,197 737,197 738,196 740,196 741,195 746,195 747,194 749,194 750,195 757,195 758,196 760,196 761,197 763,197 765,199 766,199 774,207 774,208 776,210 776,211 777,212 777,213 778,214 778,215 779,216 779,218 780,219 780,224 779,225 779,234 785,234 786,233 790,233 791,232 793,232 794,231 796,231 797,230 798,230 799,229 800,229 801,228 801,227 802,226 802,219 801,218 801,214 800,213 800,211 799,210 799,208 798,207 798,206 797,205 797,204 795,202 795,201 792,198 792,197 789,194 790,193" stroke="#fff" stroke-width="10" /><polygon fill="#fff" fill-opacity="0.2" points="682,140 683,139 690,139 691,140 698,140 699,141 702,141 703,142 706,142 707,143 708,143 709,144 711,144 712,145 713,145 714,146 715,146 716,147 717,147 718,148 719,148 721,150 722,150 724,152 725,152 728,155 729,155 742,168 742,169 744,171 744,172 745,173 745,175 746,176 745,177 740,177 739,178 737,178 736,179 734,179 733,180 731,180 730,181 728,181 727,182 725,182 724,183 723,183 722,184 721,184 719,186 718,186 717,187 716,187 714,189 713,189 710,192 709,192 705,196 704,196 700,200 699,200 688,211 688,212 685,215 685,216 683,218 683,219 681,221 681,222 679,224 679,225 678,226 678,227 677,228 677,229 676,230 676,233 675,234 675,237 674,238 674,257 675,258 675,262 676,263 676,265 677,266 677,269 678,270 678,271 679,272 679,274 680,275 680,276 681,277 681,278 683,280 683,281 684,282 684,283 688,287 688,288 693,293 694,293 696,295 697,295 700,298 701,298 703,300 702,301 688,301 687,302 640,302 639,301 624,301 623,302 612,302 611,301 599,301 598,300 594,300 593,299 591,299 590,298 589,298 588,297 586,297 585,296 584,296 583,295 581,295 580,294 579,294 578,293 577,293 576,292 575,292 574,291 573,291 568,286 567,286 564,283 564,282 560,278 560,277 558,275 558,274 557,273 557,272 556,271 556,269 555,268 555,267 554,266 554,262 553,261 553,256 552,255 552,246 553,245 553,242 554,241 554,239 555,238 555,236 556,235 556,234 557,233 557,232 559,230 559,229 567,221 568,221 571,218 572,218 574,216 575,216 576,215 577,215 578,214 579,214 580,213 581,213 582,212 584,212 585,211 587,211 588,210 593,210 594,209 612,209 613,210 615,210 616,209 616,205 617,204 617,199 618,198 618,194 619,193 619,190 620,189 620,187 621,186 621,183 622,182 622,181 623,180 623,179 624,178 624,177 625,176 625,175 626,174 626,173 628,171 628,170 632,166 632,165 641,156 642,156 644,154 645,154 647,152 648,152 650,150 651,150 653,148 654,148 655,147 656,147 657,146 658,146 659,145 661,145 662,144 663,144 664,143 667,143 668,142 670,142 671,141 674,141 675,140" stroke="#fff" stroke-width="10" /><polygon fill="#fff" fill-opacity="0.2" points="303,95 302,96 301,96 300,97 299,97 295,101 295,103 294,104 294,145 295,146 295,148 296,149 296,150 299,153 300,153 301,154 302,154 303,155 309,155 310,154 311,154 312,153 313,153 316,150 316,148 317,147 317,104 316,103 316,101 315,100 315,99 314,98 313,98 311,96 309,96 308,95" stroke="#fff" stroke-width="10" /></svg>