<?xml version="1.0" encoding="utf-8" ?>
<svg baseProfile="tiny" height="1024" version="1.2" width="1024" xmlns="http://www.w3.org/2000/svg" xmlns:ev="http://www.w3.org/2001/xml-events" xmlns:xlink="http://www.w3.org/1999/xlink"><defs /><rect fill="#fff" height="1024" width="1024" x="0" y="0" /><polygon fill="#000" fill-opacity="0.2" points="690,589 689,590 687,590 686,591 684,591 683,592 682,592 681,593 680,593 679,594 678,594 677,595 676,595 675,596 674,596 673,597 672,597 671,598 670,598 668,600 667,600 666,601 664,601 663,602 663,640 662,641 662,645 663,646 663,647 664,648 665,648 666,649 667,649 668,650 669,650 670,651 671,651 672,652 673,652 674,653 676,653 677,654 678,654 679,655 680,655 681,656 682,656 683,657 684,657 685,658 687,658 688,659 691,659 692,660 697,660 698,659 700,659 701,658 703,658 704,657 705,657 707,655 708,655 712,651 713,651 714,650 715,650 716,649 717,649 718,648 720,648 721,647 725,647 726,646 727,646 727,614 726,613 726,603 725,602 724,602 722,600 721,600 720,599 719,599 718,598 717,598 715,596 714,596 713,595 712,595 711,594 710,594 709,593 708,593 707,592 706,592 705,591 704,591 703,590 701,590 700,589" stroke="#000" stroke-width="10" /><polygon fill="#000" fill-opacity="0.2" points="341,261 340,262 339,262 338,263 338,264 336,266 336,267 335,268 335,269 333,271 333,272 331,274 331,275 325,281 324,281 319,286 318,286 311,293 311,295 317,301 318,301 319,302 322,302 323,301 324,301 325,300 326,300 328,298 329,298 337,290 337,289 340,286 340,285 343,282 343,281 345,279 345,278 347,276 347,275 348,274 348,272 349,271 349,270 350,269 350,266 351,265 350,264 349,264 347,262 343,262 342,261" stroke="#000" stroke-width="10" /><polygon fill="#000" fill-opacity="0.2" points="617,252 616,253 615,253 612,256 612,257 611,258 611,261 612,262 612,263 613,264 614,264 615,265 620,265 622,263 623,263 623,262 624,261 624,260 625,259 624,258 624,257 623,256 623,255 621,253 620,253 619,252" stroke="#000" stroke-width="10" /><polygon fill="#000" fill-opacity="0.2" points="231,240 230,241 228,241 226,243 226,244 225,245 225,246 224,247 224,253 226,255 226,256 227,256 228,257 234,257 238,253 238,245 237,244 237,243 236,242 235,242 234,241 232,241" stroke="#000" stroke-width="10" /><polygon fill="#000" fill-opacity="0.2" points="798,220 797,221 794,221 793,222 792,222 791,223 790,223 789,224 788,224 786,226 785,226 778,233 778,234 775,237 775,238 774,239 774,240 773,241 775,239 776,240 777,240 778,241 786,241 787,242 788,242 789,241 792,241 793,240 794,240 795,239 796,239 797,238 798,238 799,237 802,237 803,236 808,236 809,235 810,236 811,235 812,236 813,235 817,235 818,234 819,234 822,231 822,229 821,228 821,227 820,226 820,225 816,221 814,221 813,220" stroke="#000" stroke-width="10" /><polygon fill="#000" fill-opacity="0.2" points="542,204 541,205 540,205 538,207 537,207 530,214 530,215 528,217 528,218 526,220 526,221 525,222 525,223 523,225 523,226 521,228 521,229 520,230 520,232 519,233 519,237 518,238 518,260 519,261 519,265 520,266 520,269 521,270 521,272 522,273 522,275 523,276 523,277 526,280 531,280 532,279 533,279 534,278 534,274 533,273 533,268 532,267 532,262 531,261 531,243 532,242 532,240 533,239 533,236 534,235 534,232 535,231 535,229 536,228 536,227 538,225 539,225 540,224 541,224 542,223 543,223 544,222 545,222 549,218 549,217 550,216 550,208 549,207 549,205 548,204" stroke="#000" stroke-width="10" /><polygon fill="#000" fill-opacity="0.2" points="249,200 247,202 246,202 241,207 241,208 238,211 238,212 236,214 236,215 234,217 234,218 232,220 232,221 231,222 231,225 230,226 230,229 233,232 235,232 236,233 239,233 240,232 241,232 242,231 242,230 243,229 243,228 244,227 244,226 245,225 245,224 258,211 258,206 257,205 257,204 256,203 256,202 254,200" stroke="#000" stroke-width="10" /><polygon fill="#000" fill-opacity="0.2" points="571,190 570,191 567,191 566,192 564,192 562,194 561,194 559,196 559,204 560,205 562,205 563,206 565,206 566,207 569,207 570,208 576,208 577,207 579,207 580,206 583,206 584,205 597,205 598,204 599,205 600,204 600,203 601,202 601,200 600,199 600,198 599,197 599,196 597,194 596,194 595,193 594,193 593,192 591,192 590,191 589,191 588,190" stroke="#000" stroke-width="10" /><polygon fill="#000" fill-opacity="0.2" points="281,187 280,188 279,188 274,193 274,194 273,195 273,198 274,199 274,201 277,204 278,204 279,205 288,205 289,204 291,204 292,203 293,203 295,201 295,199 296,198 296,195 295,194 295,192 290,187" stroke="#000" stroke-width="10" /><polygon fill="#000" fill-opacity="0.2" points="680,137 679,138 678,138 677,139 676,139 674,141 673,141 666,148 665,148 664,149 664,150 658,156 658,157 656,159 656,162 655,163 655,166 656,167 656,169 657,170 658,170 660,172 662,172 663,173 667,173 669,171 670,171 672,169 672,168 673,167 673,161 674,160 674,159 676,157 682,157 683,156 684,156 685,155 686,155 688,153 688,152 689,151 689,143 688,142 688,141 684,137" stroke="#000" stroke-width="10" /><polygon fill="#000" fill-opacity="0.2" points="712,127 711,128 710,128 708,130 707,130 705,132 705,134 704,135 704,139 708,143 709,143 710,144 711,144 712,145 718,145 719,144 721,144 722,143 727,143 728,142 737,142 738,141 739,141 741,139 741,133 738,130 734,130 733,129 727,129 726,128 722,128 721,127" stroke="#000" stroke-width="10" /><polygon fill="#000" fill-opacity="0.2" points="0,0 0,1023 1023,1023 1023,0" stroke="#000" stroke-width="10" /><polygon fill="#000" fill-opacity="0.2" points="690,828 691,827 697,827 698,828 699,828 700,829 701,829 707,835 707,836 709,838 709,841 710,842 710,847 709,848 709,850 708,851 708,852 703,857 702,857 701,858 700,858 699,859 697,859 696,860 690,860 689,859 687,859 686,858 685,858 678,851 678,849 677,848 677,841 678,840 678,839 680,837 680,836 688,828" stroke="#000" stroke-width="10" /><polygon fill="#000" fill-opacity="0.2" points="260,790 261,789 265,789 266,790 268,790 269,791 270,791 271,792 272,792 277,797 277,798 278,799 278,801 279,802 279,807 278,808 278,811 277,812 276,812 275,813 267,813 266,812 263,812 262,811 261,811 260,810 258,810 257,809 256,809 255,808 254,808 251,805 251,804 250,803 250,800 251,799 251,797 252,796 252,795 254,793 255,793 257,791 258,791 259,790" stroke="#000" stroke-width="10" /><polygon fill="#000" fill-opacity="0.2" points="309,782 310,781 317,781 318,782 320,782 323,785 323,792 322,793 322,794 321,795 321,796 320,797 320,798 317,801 317,802 315,804 315,805 314,806 314,807 313,808 313,809 312,810 312,811 311,812 311,817 314,820 315,820 316,821 320,821 321,822 325,822 326,823 331,823 332,824 335,824 336,825 338,825 339,826 342,826 343,827 349,827 350,828 355,828 356,829 359,829 360,830 363,830 364,831 367,831 368,832 370,832 371,833 373,833 374,834 375,834 378,837 378,839 377,840 374,840 373,841 364,841 363,842 310,842 309,841 308,841 307,840 306,840 299,833 298,833 297,832 295,832 294,831 292,831 290,829 290,815 289,814 289,800 290,799 290,797 291,796 291,795 292,794 292,793 293,792 293,791 299,785 300,785 301,784 302,784 303,783 305,783 306,782" stroke="#000" stroke-width="10" /><polygon fill="#000" fill-opacity="0.2" points="836,753 837,752 842,752 843,753 845,753 846,754 847,754 848,755 849,755 854,760 854,761 856,763 856,764 857,765 857,766 858,767 858,773 857,774 857,776 856,777 856,779 851,784 850,784 848,786 846,786 845,787 842,787 841,788 840,788 839,787 835,787 834,786 833,786 832,785 831,785 825,779 825,778 823,776 823,775 822,774 822,772 821,771 821,766 822,765 822,764 823,763 823,762 824,761 824,760 827,757 828,757 831,754 832,754 833,753" stroke="#000" stroke-width="10" /><polygon fill="#000" fill-opacity="0.2" points="192,733 203,733 205,735 205,736 206,737 206,755 205,756 205,757 206,757 207,756 208,756 209,755 210,755 212,753 213,753 221,745 223,745 224,744 225,745 227,745 233,751 233,753 234,754 234,757 231,760 230,760 229,761 228,761 227,762 226,762 225,763 224,763 223,764 222,764 221,765 220,765 218,767 217,767 214,770 214,772 215,773 216,773 217,774 218,774 219,775 221,775 222,776 224,776 225,777 227,777 228,778 231,778 232,779 234,779 235,780 235,781 236,782 236,786 235,787 235,789 234,790 234,791 233,792 233,793 228,798 226,798 225,799 221,799 212,790 211,790 209,788 208,788 206,786 206,803 207,804 207,809 203,813 202,813 201,814 196,814 195,813 194,813 193,812 192,812 190,810 190,807 189,806 189,802 190,801 190,787 188,787 186,789 185,789 179,795 178,795 178,796 175,799 174,799 173,800 171,800 170,799 169,799 168,798 167,798 164,795 164,794 163,793 163,792 162,791 162,789 161,788 161,786 160,785 165,780 166,780 167,779 168,779 169,778 170,778 171,777 173,777 175,775 176,775 177,774 178,774 179,773 180,773 181,772 182,772 182,770 181,769 180,769 178,767 177,767 175,765 174,765 173,764 172,764 171,763 170,763 169,762 167,762 166,761 165,761 162,758 162,757 161,756 161,755 162,754 162,752 163,751 163,749 164,748 164,747 166,745 167,745 168,744 173,744 174,745 176,745 180,749 180,750 181,750 187,756 188,756 190,758 191,757 191,750 190,749 190,743 189,742 189,737 190,736 190,735" stroke="#000" stroke-width="10" /><polygon fill="#000" fill-opacity="0.2" points="378,733 379,732 388,732 391,735 391,736 392,737 392,740 391,741 391,749 390,750 390,757 392,757 393,756 394,756 397,753 398,753 407,744 412,744 417,749 417,750 418,751 418,752 419,753 419,758 418,759 418,760 417,761 416,761 415,762 414,762 413,763 411,763 410,764 409,764 408,765 407,765 406,766 405,766 403,768 402,768 399,771 399,773 401,775 402,775 403,776 404,776 405,777 407,777 408,778 409,778 410,779 412,779 413,780 414,780 415,781 416,781 417,782 418,782 420,784 420,786 421,787 420,788 420,790 419,791 419,792 418,793 418,794 413,799 407,799 400,792 399,792 396,789 395,789 394,788 393,788 392,787 391,787 391,799 392,800 392,803 393,804 393,807 392,808 392,809 389,812 388,812 386,814 381,814 380,813 379,813 374,808 374,805 375,804 375,797 376,796 376,787 375,786 374,787 373,787 371,789 370,789 361,798 360,798 359,799 358,799 357,800 355,800 354,799 353,799 352,798 351,798 348,795 348,794 347,793 347,792 346,791 346,785 348,783 349,783 350,782 351,782 353,780 354,780 355,779 356,779 358,777 359,777 360,776 361,776 363,774 364,774 365,773 366,773 367,772 364,769 363,769 362,768 361,768 360,767 359,767 358,766 357,766 356,765 355,765 354,764 352,764 351,763 350,763 349,762 348,762 345,759 345,754 346,753 346,752 347,751 347,750 350,747 351,747 353,745 359,745 366,752 367,752 372,757 373,757 374,758 376,758 376,753 375,752 375,747 374,746 374,737 375,736 375,735 377,733" stroke="#000" stroke-width="10" /><polygon fill="#000" fill-opacity="0.2" points="767,729 768,728 776,728 777,729 779,729 780,730 781,730 786,735 786,736 787,737 787,738 788,739 788,749 787,750 787,751 784,754 784,755 783,756 782,756 780,758 779,758 778,759 777,759 776,760 772,760 771,761 770,760 767,760 766,759 765,759 764,758 763,758 759,754 759,753 758,752 758,751 757,750 757,749 756,748 756,739 757,738 757,737 758,736 758,735 762,731 763,731 765,729" stroke="#000" stroke-width="10" /><polygon fill="#000" fill-opacity="0.2" points="610,729 611,728 619,728 620,729 621,729 622,730 623,730 624,731 625,731 631,737 631,738 632,739 632,741 633,742 633,749 632,750 632,751 631,752 631,753 626,758 625,758 623,760 622,760 621,761 620,761 619,762 617,762 616,763 615,762 610,762 609,761 608,761 607,760 606,760 604,758 603,758 600,755 600,754 599,753 599,751 598,750 598,742 599,741 599,739 600,738 600,737 603,734 603,733 605,731 606,731 608,729" stroke="#000" stroke-width="10" /><polygon fill="#000" fill-opacity="0.2" points="845,605 846,604 849,604 850,605 852,605 853,606 854,606 860,612 860,613 861,614 861,615 862,616 862,624 861,625 861,626 860,627 860,628 854,634 853,634 852,635 850,635 849,636 843,636 842,635 841,635 840,634 839,634 833,628 833,627 832,626 832,625 831,624 831,616 832,615 832,613 838,607 839,607 840,606 841,606 842,605" stroke="#000" stroke-width="10" /><polygon fill="#000" fill-opacity="0.2" points="536,605 537,604 544,604 545,605 546,605 547,606 548,606 555,613 555,615 556,616 556,624 555,625 555,627 554,628 554,629 549,634 548,634 547,635 546,635 545,636 541,636 540,637 539,636 536,636 535,635 534,635 527,628 527,627 526,626 526,623 525,622 525,617 526,616 526,614 527,613 527,612 533,606 534,606 535,605" stroke="#000" stroke-width="10" /><polygon fill="#000" fill-opacity="0.2" points="767,475 768,474 774,474 775,475 777,475 778,476 779,476 781,478 782,478 784,480 784,481 786,483 786,485 787,486 787,494 786,495 786,496 785,497 785,498 784,499 784,500 780,504 779,504 778,505 776,505 775,506 774,505 773,506 769,506 768,505 766,505 765,504 764,504 760,500 760,499 758,497 758,496 757,495 757,491 756,490 756,487 757,486 757,484 758,483 758,482 759,481 759,480 762,477 763,477 765,475" stroke="#000" stroke-width="10" /><polygon fill="#000" fill-opacity="0.2" points="613,475 614,474 617,474 618,475 620,475 621,476 622,476 623,477 624,477 628,481 628,482 629,483 629,484 630,485 630,487 631,488 631,492 630,493 630,495 629,496 629,497 628,498 628,499 624,503 623,503 622,504 621,504 620,505 612,505 611,504 609,504 602,497 602,496 601,495 601,485 602,484 602,483 603,482 603,481 608,476 609,476 610,475" stroke="#000" stroke-width="10" /><polygon fill="#000" fill-opacity="0.2" points="689,436 690,435 697,435 698,436 699,436 700,437 701,437 706,442 706,444 707,445 707,448 706,449 706,451 705,452 705,474 706,473 708,473 709,472 710,472 711,471 712,471 713,470 714,470 715,469 716,469 717,468 718,468 719,467 720,467 721,466 728,466 729,467 730,467 731,468 732,468 735,471 735,472 736,473 736,474 737,475 737,481 736,482 736,483 731,488 730,488 729,489 728,489 727,490 726,490 725,491 724,491 723,492 722,492 721,493 720,493 719,494 718,494 717,495 716,495 714,497 713,497 712,498 711,498 710,499 709,499 707,501 706,501 705,502 705,564 706,565 707,565 708,566 709,566 710,567 711,567 712,568 713,568 714,569 715,569 716,570 717,570 718,571 719,571 721,573 723,573 724,574 725,574 726,575 727,575 728,576 729,576 730,577 731,577 732,578 733,578 734,579 735,579 736,580 737,580 738,581 739,581 740,582 741,582 742,583 743,583 744,584 745,583 746,583 747,582 748,582 749,581 750,581 752,579 753,579 754,578 755,578 756,577 757,577 759,575 760,575 761,574 762,574 763,573 764,573 765,572 766,572 767,571 768,571 769,570 770,570 771,569 772,569 774,567 775,567 776,566 777,566 778,565 779,565 781,563 782,563 783,562 784,562 785,561 786,561 787,560 788,560 789,559 790,559 791,558 792,558 793,557 795,557 796,556 796,554 795,553 795,530 796,529 796,519 797,518 797,515 798,514 798,513 803,508 804,508 805,507 807,507 808,506 812,506 813,507 815,507 819,511 819,513 820,514 820,539 821,539 822,538 823,538 825,536 826,536 828,534 829,534 830,533 831,533 833,531 834,531 835,530 836,530 839,527 840,527 842,525 843,525 845,523 846,523 848,521 849,521 850,520 851,520 852,519 855,519 856,518 857,519 859,519 860,520 861,520 862,521 863,521 867,525 867,526 868,527 868,531 869,532 869,534 868,535 868,537 867,538 867,539 863,543 862,543 860,545 858,545 857,546 856,546 855,547 854,547 853,548 851,548 850,549 849,549 848,550 847,550 845,552 844,552 842,554 841,554 840,555 839,555 838,556 837,556 836,557 835,557 836,558 837,558 838,559 839,559 840,560 841,560 842,561 843,561 844,562 845,562 846,563 847,563 848,564 849,564 850,565 851,565 852,566 853,566 856,569 857,569 858,570 858,571 860,573 860,578 859,579 859,581 858,582 858,583 852,589 851,589 850,590 846,590 845,589 844,589 843,588 841,588 840,587 839,587 838,586 836,586 835,585 834,585 833,584 832,584 831,583 830,583 829,582 828,582 826,580 825,580 824,579 823,579 822,578 820,578 819,577 818,577 817,576 815,576 814,575 812,575 811,574 809,574 808,573 807,573 805,575 804,575 802,577 801,577 799,579 798,579 797,580 796,580 795,581 794,581 793,582 792,582 791,583 790,583 789,584 788,584 787,585 786,585 785,586 784,586 782,588 781,588 780,589 779,589 778,590 777,590 776,591 775,591 774,592 773,592 772,593 771,593 770,594 769,594 768,595 767,595 766,596 765,596 764,597 763,597 762,598 761,598 760,599 759,599 758,600 757,600 756,601 755,601 755,605 754,606 754,619 753,620 753,643 754,643 755,644 756,644 757,645 758,645 759,646 760,646 761,647 762,647 764,649 765,649 766,650 767,650 768,651 769,651 770,652 771,652 772,653 773,653 774,654 775,654 776,655 777,655 778,656 779,656 780,657 781,657 782,658 783,658 784,659 785,659 786,660 787,660 788,661 789,661 790,662 791,662 792,663 793,663 794,664 795,664 796,665 797,665 799,667 800,667 801,668 802,668 803,669 804,669 806,671 807,671 810,674 813,674 814,673 815,673 817,671 818,671 819,670 820,670 821,669 822,669 823,668 824,668 825,667 827,667 828,666 829,666 830,665 831,665 832,664 834,664 835,663 836,663 837,662 838,662 839,661 840,661 842,659 843,659 844,658 845,658 846,657 851,657 853,659 854,659 855,660 855,661 857,663 857,664 858,665 858,666 859,667 859,669 860,670 860,672 859,673 859,675 854,680 853,680 852,681 851,681 850,682 849,682 848,683 847,683 846,684 845,684 844,685 843,685 842,686 841,686 840,687 839,687 838,688 837,688 837,689 838,689 840,691 841,691 843,693 845,693 847,695 849,695 850,696 851,696 852,697 853,697 854,698 856,698 857,699 858,699 859,700 860,700 861,701 862,701 863,702 864,702 866,704 867,704 868,705 868,706 869,707 869,708 870,709 870,712 869,713 869,717 868,718 868,719 867,720 867,721 865,723 865,724 864,725 863,725 862,726 861,726 860,727 855,727 854,726 853,726 851,724 850,724 846,720 845,720 842,717 841,717 839,715 838,715 837,714 836,714 834,712 833,712 832,711 831,711 829,709 828,709 827,708 826,708 823,705 822,705 822,706 823,707 823,726 822,727 822,729 821,730 821,731 819,733 818,733 816,735 813,735 812,736 810,736 809,735 808,735 807,734 806,734 804,732 803,732 798,727 798,726 797,725 797,721 796,720 796,690 795,689 794,689 793,688 792,688 790,686 789,686 788,685 787,685 786,684 785,684 784,683 783,683 782,682 781,682 780,681 779,681 778,680 777,680 775,678 774,678 773,677 772,677 771,676 770,676 769,675 768,675 767,674 766,674 765,673 763,673 762,672 761,672 759,670 758,670 757,669 756,669 755,668 754,668 753,667 752,667 751,666 750,666 749,665 747,665 747,667 746,668 744,668 743,669 740,669 739,670 737,670 736,671 734,671 733,672 732,672 731,673 730,673 729,674 728,674 727,675 726,675 725,676 724,676 723,677 722,677 721,678 719,678 717,680 716,680 715,681 714,681 713,682 712,682 711,683 710,683 709,684 708,684 707,685 706,685 705,686 705,734 706,735 707,735 710,738 711,738 713,740 714,740 716,742 717,742 718,743 719,743 720,744 721,744 722,745 723,745 725,747 726,747 727,748 728,748 729,749 730,749 731,750 732,750 733,751 734,751 738,755 738,757 739,758 739,760 738,761 738,765 737,766 737,767 736,768 736,769 732,773 731,773 730,774 724,774 723,773 722,773 721,772 720,772 716,768 715,768 713,766 712,766 710,764 709,764 705,760 705,775 706,776 706,787 707,788 707,799 706,800 706,801 701,806 700,806 699,807 698,807 697,808 691,808 690,807 689,807 688,806 687,806 682,801 682,800 681,799 681,796 680,795 680,789 681,788 681,787 682,786 682,785 683,784 683,761 684,760 683,760 681,762 680,762 678,764 677,764 669,772 668,772 667,773 666,773 665,774 661,774 660,773 658,773 657,772 656,772 653,769 653,768 652,767 652,763 651,762 651,756 652,755 652,753 656,749 657,749 658,748 659,748 661,746 662,746 663,745 664,745 665,744 666,744 667,743 668,743 669,742 670,742 671,741 672,741 673,740 674,740 675,739 676,739 678,737 679,737 681,735 682,735 684,733 684,727 683,726 683,687 682,686 681,686 680,685 679,685 678,684 677,684 676,683 675,683 674,682 673,682 672,681 671,681 669,679 668,679 667,678 666,678 665,677 664,677 663,676 662,676 660,674 659,674 658,673 657,673 656,672 654,672 653,671 650,671 649,670 647,670 645,668 644,668 641,665 640,666 639,666 637,668 636,668 634,670 633,670 631,672 630,672 629,673 628,673 627,674 626,674 625,675 624,675 623,676 621,676 620,677 619,677 617,679 616,679 615,680 614,680 613,681 612,681 611,682 610,682 609,683 608,683 607,684 606,684 605,685 604,685 603,686 602,686 601,687 600,687 599,688 597,688 596,689 595,689 595,691 594,692 594,700 593,701 593,723 592,724 592,726 591,727 591,728 586,733 585,733 584,734 583,734 582,735 580,735 579,736 577,736 576,735 573,735 572,734 571,734 568,731 568,730 567,729 567,726 566,725 566,717 567,716 567,704 563,708 562,708 560,710 559,710 557,712 556,712 554,714 553,714 550,717 549,717 545,721 544,721 540,725 539,725 537,727 535,727 534,728 530,728 529,727 528,727 522,721 522,720 521,719 521,716 520,715 520,714 521,713 521,710 522,709 522,708 527,703 528,703 530,701 531,701 532,700 533,700 534,699 535,699 536,698 537,698 538,697 539,697 541,695 542,695 543,694 544,694 545,693 546,693 547,692 548,692 549,691 550,691 552,689 553,689 553,688 552,688 550,686 549,686 548,685 547,685 546,684 545,684 544,683 543,683 542,682 541,682 540,681 539,681 538,680 537,680 533,676 533,675 532,674 532,668 533,667 533,665 535,663 535,662 538,659 539,659 540,658 545,658 546,659 547,659 548,660 550,660 551,661 552,661 553,662 555,662 556,663 558,663 559,664 560,664 561,665 564,665 565,666 566,666 567,667 569,667 570,668 571,668 572,669 573,669 574,670 576,670 577,671 578,671 579,672 580,672 581,673 582,673 584,671 585,671 586,670 587,670 588,669 589,669 591,667 592,667 593,666 594,666 595,665 596,665 597,664 598,664 599,663 600,663 601,662 602,662 603,661 604,661 605,660 606,660 608,658 609,658 610,657 611,657 612,656 613,656 614,655 615,655 617,653 618,653 619,652 620,652 621,651 622,651 623,650 624,650 625,649 626,649 627,648 628,648 629,647 630,647 632,645 633,645 634,644 635,644 636,643 636,614 637,613 637,602 636,601 635,601 634,600 633,600 631,598 630,598 629,597 628,597 627,596 626,596 625,595 624,595 623,594 622,594 621,593 620,593 619,592 618,592 617,591 616,591 615,590 614,590 612,588 611,588 610,587 609,587 608,586 607,586 606,585 605,585 604,584 603,584 602,583 601,583 600,582 599,582 597,580 595,580 593,578 592,578 591,577 590,577 588,575 587,575 584,572 583,572 582,571 581,571 579,573 577,573 576,574 575,574 574,575 572,575 571,576 570,576 569,577 568,577 567,578 566,578 565,579 564,579 563,580 562,580 561,581 560,581 559,582 558,582 557,583 556,583 555,584 554,584 552,586 551,586 550,587 549,587 548,588 547,588 546,589 543,589 542,588 541,588 535,582 535,581 534,580 534,579 533,578 533,575 532,574 532,571 533,570 533,568 536,565 537,565 539,563 540,563 541,562 542,562 543,561 544,561 545,560 547,560 548,559 550,559 551,558 552,558 553,557 554,557 554,556 553,555 552,555 551,554 550,554 549,553 548,553 547,552 546,552 545,551 544,551 543,550 542,550 541,549 540,549 539,548 537,548 536,547 535,547 534,546 532,546 531,545 530,545 529,544 528,544 527,543 526,543 523,540 523,539 521,537 521,535 520,534 520,530 521,529 521,527 522,526 522,525 528,519 529,519 530,518 536,518 537,519 539,519 541,521 542,521 543,522 544,522 545,523 546,523 548,525 549,525 551,527 552,527 553,528 554,528 555,529 556,529 557,530 558,530 559,531 560,531 562,533 563,533 564,534 565,534 569,538 569,513 570,512 570,511 575,506 577,506 578,505 580,505 581,506 584,506 585,507 586,507 587,508 588,508 591,511 591,512 592,513 592,514 593,515 593,543 594,544 594,554 595,555 596,555 598,557 600,557 601,558 602,558 603,559 604,559 606,561 608,561 610,563 611,563 612,564 613,564 614,565 615,565 617,567 618,567 619,568 620,568 622,570 623,570 624,571 625,571 626,572 627,572 629,574 630,574 631,575 632,575 633,576 634,576 635,577 636,577 638,579 639,579 640,580 641,580 643,582 644,582 645,583 646,583 647,584 648,583 649,583 651,581 652,581 654,579 655,579 656,578 657,578 658,577 659,577 660,576 661,576 662,575 663,575 664,574 665,574 666,573 667,573 668,572 669,572 671,570 672,570 673,569 674,569 677,566 678,566 680,564 681,564 682,563 683,563 684,562 684,560 683,559 683,503 681,501 680,501 679,500 678,500 676,498 675,498 674,497 673,497 672,496 671,496 669,494 668,494 667,493 666,493 665,492 664,492 663,491 662,491 661,490 660,490 658,488 657,488 652,483 652,481 651,480 651,476 652,475 652,474 653,473 653,472 657,468 658,468 659,467 661,467 662,466 665,466 666,467 668,467 670,469 671,469 672,470 673,470 674,471 675,471 677,473 678,473 679,474 680,474 681,475 682,475 683,476 684,476 684,471 683,470 683,458 682,457 682,450 681,449 681,444 682,443 682,442 688,436" stroke="#000" stroke-width="10" /><polygon fill="#000" fill-opacity="0.2" points="287,435 288,434 295,434 296,435 298,435 302,439 302,474 304,474 305,473 308,473 309,472 310,472 311,471 313,471 314,470 315,470 316,469 318,469 319,468 320,468 321,467 323,467 324,466 327,466 328,467 330,467 333,470 333,472 334,473 334,488 331,491 330,491 329,492 328,492 327,493 325,493 324,494 322,494 321,495 318,495 317,496 316,496 315,497 313,497 312,498 311,498 310,499 309,499 308,500 306,500 305,501 302,501 302,571 303,571 304,570 305,570 306,569 307,569 308,568 309,568 310,567 311,567 312,566 313,566 314,565 316,565 318,563 319,563 320,562 321,562 322,561 323,561 324,560 325,560 327,558 328,558 330,556 331,556 332,555 333,555 335,553 336,553 337,552 338,552 340,550 341,550 343,548 344,548 345,547 346,547 348,545 349,545 351,543 352,543 353,542 354,542 356,540 357,540 358,539 359,539 360,538 361,538 362,537 363,537 364,536 365,536 366,535 367,535 369,533 370,533 372,531 374,531 375,530 375,523 376,522 376,493 381,488 382,488 383,487 385,487 386,486 390,486 391,487 393,487 394,488 395,488 396,489 396,490 397,491 397,493 398,494 398,519 399,518 400,518 401,517 402,517 403,516 404,516 405,515 406,515 407,514 408,514 409,513 410,513 412,511 413,511 414,510 415,510 416,509 417,509 418,508 419,508 421,506 422,506 423,505 425,505 426,504 428,504 429,503 434,503 435,504 436,504 438,506 438,507 439,508 439,509 440,510 440,518 439,519 439,520 435,524 434,524 432,526 431,526 430,527 429,527 428,528 427,528 425,530 424,530 423,531 422,531 421,532 420,532 418,534 417,534 416,535 415,535 414,536 413,536 412,537 411,537 409,539 408,539 406,541 407,542 408,542 410,544 411,544 412,545 414,545 415,546 416,546 417,547 419,547 420,548 421,548 422,549 423,549 424,550 426,550 427,551 428,551 429,552 430,552 432,554 433,554 435,556 435,557 436,558 436,560 435,561 435,562 434,563 434,565 432,567 432,568 428,572 427,572 426,573 424,573 423,572 421,572 420,571 418,571 417,570 416,570 415,569 414,569 413,568 412,568 411,567 410,567 409,566 408,566 407,565 406,565 405,564 403,564 402,563 401,563 400,562 399,562 397,560 396,560 390,554 389,554 388,553 387,553 386,552 383,552 382,553 380,553 379,554 378,554 376,556 375,556 374,557 373,557 372,558 371,558 370,559 369,559 368,560 367,560 366,561 365,561 364,562 363,562 361,564 360,564 359,565 358,565 357,566 356,566 355,567 354,567 353,568 352,568 351,569 350,569 349,570 348,570 347,571 346,571 344,573 343,573 342,574 341,574 340,575 339,575 338,576 337,576 336,577 335,577 334,578 333,578 331,580 330,580 329,581 328,581 326,583 325,583 322,586 321,586 318,589 318,590 320,592 321,592 323,594 324,594 325,595 326,595 327,596 328,596 329,597 330,597 331,598 332,598 333,599 335,599 337,601 338,601 339,602 340,602 341,603 342,603 344,605 345,605 347,607 348,607 350,609 351,609 352,610 353,610 354,611 355,611 356,612 357,612 358,613 359,613 360,614 361,614 362,615 363,615 364,616 365,616 366,617 368,617 369,618 370,618 371,619 372,619 373,620 374,620 375,621 376,621 377,622 378,622 379,623 380,623 381,624 382,624 383,625 384,625 386,627 391,627 392,626 393,626 395,624 396,624 397,623 398,623 400,621 401,621 402,620 403,620 404,619 405,619 406,618 407,618 408,617 409,617 410,616 412,616 413,615 414,615 415,614 416,614 417,613 418,613 419,612 420,612 422,610 427,610 431,614 431,615 432,616 432,617 433,618 433,619 434,620 434,623 435,624 435,625 434,626 434,628 433,629 432,629 431,630 430,630 429,631 428,631 427,632 426,632 425,633 424,633 423,634 422,634 421,635 420,635 419,636 418,636 416,638 415,638 414,639 413,639 411,641 410,641 408,643 410,643 412,645 413,645 415,647 416,647 418,649 419,649 420,650 421,650 423,652 424,652 426,654 427,654 428,655 429,655 431,657 432,657 433,658 434,658 435,659 436,659 437,660 438,660 439,661 440,661 442,663 443,663 445,665 445,666 446,667 446,670 445,671 445,674 444,675 444,676 443,677 443,678 439,682 436,682 435,683 434,682 431,682 430,681 429,681 427,679 426,679 425,678 424,678 422,676 421,676 420,675 419,675 418,674 417,674 415,672 414,672 412,670 411,670 409,668 408,668 407,667 406,667 405,666 404,666 402,664 401,664 398,661 398,684 397,685 397,687 395,689 394,689 393,690 392,690 391,691 387,691 386,690 382,690 381,689 380,689 377,686 377,685 376,684 376,660 375,659 375,647 373,645 372,645 371,644 370,644 369,643 368,643 367,642 366,642 364,640 362,640 360,638 358,638 357,637 356,637 355,636 354,636 353,635 352,635 351,634 349,634 348,633 347,633 346,632 345,632 344,631 343,631 342,630 341,630 340,629 339,629 338,628 336,628 334,626 333,626 332,625 331,625 329,623 328,623 327,622 326,622 325,621 324,621 323,620 322,620 321,619 320,619 319,618 318,618 317,617 316,617 315,616 314,616 313,615 311,615 310,614 306,614 305,613 302,613 302,617 303,618 303,629 302,630 302,679 305,682 306,682 310,686 311,686 313,688 314,688 316,690 317,690 319,692 320,692 321,693 322,693 323,694 324,694 325,695 326,695 327,696 328,696 330,698 331,698 335,702 335,707 334,708 334,711 333,712 333,713 332,714 332,715 328,719 327,719 326,720 322,720 321,719 320,719 319,718 318,718 316,716 315,716 313,714 312,714 311,713 310,713 309,712 308,712 307,711 306,711 305,710 304,710 303,709 302,709 302,715 303,716 303,744 302,745 302,749 299,752 298,752 297,753 288,753 287,752 284,752 281,749 281,734 280,733 280,719 281,718 281,712 279,712 278,713 276,713 275,714 274,714 273,715 272,715 270,717 269,717 268,718 267,718 266,719 265,719 264,720 263,720 262,721 261,721 260,722 256,722 255,721 254,721 249,716 249,715 248,714 248,711 247,710 247,704 253,698 254,698 256,696 257,696 259,694 260,694 261,693 262,693 265,690 266,690 269,687 270,687 280,677 280,673 281,672 281,663 280,662 280,636 281,635 281,613 280,612 280,610 277,610 276,611 275,611 274,612 273,612 270,615 269,615 268,616 267,616 265,618 264,618 263,619 262,619 261,620 260,620 259,621 258,621 256,623 255,623 254,624 253,624 251,626 250,626 249,627 248,627 247,628 246,628 245,629 244,629 242,631 241,631 240,632 239,632 238,633 237,633 236,634 235,634 233,636 232,636 231,637 230,637 229,638 228,638 227,639 226,639 224,641 223,641 222,642 221,642 220,643 219,643 218,644 217,644 216,645 215,645 214,646 213,646 212,647 212,686 211,687 211,688 210,689 209,689 208,690 207,690 206,691 205,691 204,692 198,692 197,691 196,691 195,690 194,690 191,687 191,686 190,685 190,676 189,675 189,663 188,664 187,664 186,665 185,665 183,667 182,667 181,668 180,668 178,670 177,670 175,672 174,672 173,673 172,673 170,675 169,675 167,677 166,677 163,680 162,680 161,681 160,681 159,682 153,682 150,679 150,678 148,676 148,674 147,673 147,671 146,670 146,665 147,664 147,663 151,659 152,659 153,658 154,658 155,657 156,657 158,655 159,655 160,654 161,654 162,653 163,653 164,652 165,652 166,651 167,651 168,650 169,650 170,649 171,649 172,648 173,648 175,646 176,646 177,645 178,645 179,644 180,644 181,643 182,643 182,642 181,642 180,641 179,641 178,640 177,640 176,639 175,639 174,638 173,638 172,637 170,637 169,636 168,636 167,635 165,635 164,634 163,634 162,633 160,633 159,632 158,632 154,628 154,626 153,625 153,622 154,621 154,619 156,617 156,616 157,615 158,615 161,612 162,612 163,611 168,611 169,612 170,612 171,613 172,613 173,614 174,614 175,615 176,615 177,616 178,616 179,617 181,617 182,618 183,618 184,619 186,619 187,620 188,620 189,621 191,621 192,622 193,622 194,623 196,623 197,624 198,624 199,625 200,625 201,626 206,626 207,625 208,625 209,624 210,624 211,623 212,623 213,622 214,622 215,621 216,621 217,620 218,620 219,619 220,619 222,617 223,617 224,616 225,616 226,615 227,615 229,613 230,613 232,611 233,611 234,610 235,610 237,608 238,608 241,605 242,605 244,603 245,603 247,601 248,601 250,599 251,599 254,596 255,596 259,592 260,592 264,588 264,587 265,586 262,583 261,583 259,581 258,581 257,580 256,580 255,579 254,579 253,578 252,578 251,577 250,577 249,576 248,576 246,574 245,574 244,573 243,573 242,572 240,572 239,571 238,571 236,569 235,569 234,568 233,568 232,567 231,567 229,565 228,565 227,564 226,564 225,563 224,563 223,562 222,562 221,561 220,561 219,560 217,560 216,559 215,559 214,558 213,558 212,557 211,557 210,556 208,556 207,555 205,555 201,559 199,559 198,560 195,560 194,561 191,561 190,562 188,562 187,563 186,563 185,564 183,564 182,565 181,565 180,566 179,566 178,567 177,567 175,569 174,569 173,570 172,570 171,571 170,571 169,572 160,572 154,566 154,565 153,564 153,559 158,554 159,554 160,553 161,553 163,551 164,551 165,550 166,550 168,548 169,548 170,547 171,547 172,546 173,546 174,545 175,545 176,544 177,544 178,543 179,543 180,542 181,542 181,541 180,541 179,540 178,540 177,539 176,539 175,538 174,538 173,537 172,537 171,536 170,536 168,534 167,534 166,533 164,533 163,532 162,532 161,531 160,531 159,530 158,530 157,529 156,529 155,528 154,528 153,527 152,527 147,522 147,520 146,519 146,517 147,516 147,513 148,512 148,511 149,510 149,509 151,507 151,506 153,504 161,504 162,505 163,505 164,506 165,506 166,507 167,507 168,508 169,508 170,509 171,509 172,510 173,510 174,511 176,511 177,512 178,512 179,513 180,513 181,514 182,514 183,515 184,515 185,516 186,516 187,517 188,517 189,518 190,518 190,508 191,507 191,493 192,492 192,491 193,490 194,490 195,489 196,489 197,488 203,488 204,489 206,489 207,490 208,490 210,492 210,493 211,494 211,516 212,517 212,531 213,532 215,532 216,533 218,533 219,534 220,534 221,535 222,535 223,536 224,536 225,537 226,537 227,538 228,538 230,540 231,540 233,542 234,542 236,544 237,544 238,545 239,545 241,547 242,547 243,548 244,548 246,550 247,550 248,551 249,551 251,553 252,553 253,554 254,554 255,555 256,555 257,556 258,556 259,557 260,557 262,559 263,559 264,560 265,560 266,561 267,561 268,562 269,562 270,563 271,563 272,564 273,564 274,565 275,565 276,566 277,566 278,567 279,567 281,569 281,557 280,556 280,501 278,501 277,500 274,500 273,499 270,499 269,498 267,498 266,497 263,497 262,496 259,496 258,495 255,495 254,494 253,494 250,491 250,471 253,468 254,468 255,467 257,467 258,468 261,468 262,469 264,469 265,470 266,470 267,471 269,471 270,472 271,472 272,473 273,473 274,474 275,474 276,475 278,475 280,477 280,441 282,439 282,438 283,437 284,437 286,435" stroke="#000" stroke-width="10" /><polygon fill="#000" fill-opacity="0.2" points="679,356 680,355 687,355 688,356 689,356 695,362 695,368 692,371 692,372 688,376 688,377 682,383 681,383 678,386 677,386 675,388 674,388 672,390 671,390 670,391 669,391 668,392 662,392 661,391 660,391 659,390 657,390 655,388 654,388 653,387 653,385 654,384 654,381 655,380 655,379 656,378 656,377 675,358 676,358 678,356" stroke="#000" stroke-width="10" /><polygon fill="#000" fill-opacity="0.2" points="758,355 759,354 764,354 765,355 767,355 772,360 772,361 773,362 773,366 758,381 757,381 753,385 752,385 750,387 749,387 748,388 747,388 746,389 744,389 743,390 732,390 731,389 728,389 727,388 723,388 722,387 721,387 720,386 719,386 716,383 716,382 717,381 717,380 718,379 718,378 723,373 724,373 726,371 727,371 728,370 729,370 730,369 731,369 732,368 733,368 734,367 735,367 739,363 741,363 742,362 745,362 746,361 748,361 749,360 750,360 753,357 754,357 756,355" stroke="#000" stroke-width="10" /><polygon fill="#000" fill-opacity="0.2" points="607,354 615,354 620,359 620,361 621,362 621,366 620,367 620,368 617,371 617,372 614,375 613,375 613,376 612,377 611,377 600,388 599,388 593,394 592,394 590,396 589,396 588,397 587,397 586,398 582,398 581,397 579,397 575,393 575,392 574,391 574,389 575,388 575,386 576,385 576,384 578,382 578,381 595,364 596,364 604,356 605,356" stroke="#000" stroke-width="10" /><polygon fill="#000" fill-opacity="0.2" points="838,354 839,353 841,353 842,354 843,354 844,355 845,355 846,356 847,356 852,361 852,363 853,364 853,365 852,366 852,367 851,368 851,369 850,370 850,371 846,375 846,376 841,381 840,381 836,385 835,385 834,386 821,386 819,388 817,388 816,389 814,389 813,390 812,390 811,391 808,391 807,392 803,392 801,390 801,388 802,387 802,385 807,380 808,380 810,378 811,378 814,375 814,374 832,356 833,356 834,355 835,355 836,354" stroke="#000" stroke-width="10" /><polygon fill="#000" fill-opacity="0.2" points="536,351 542,351 543,352 544,352 545,353 546,353 550,357 550,358 551,359 551,361 552,362 552,363 551,364 551,366 550,367 550,368 548,370 548,371 542,377 542,378 535,385 534,385 531,388 530,388 529,389 527,389 526,390 521,390 520,389 519,389 513,383 513,382 514,381 514,379 515,378 515,377 517,375 517,374 518,373 518,372 520,370 520,369 523,366 523,365 526,362 526,361 530,357 530,356 532,354 533,354" stroke="#000" stroke-width="10" /><polygon fill="#000" fill-opacity="0.2" points="289,347 290,346 292,346 293,347 295,347 297,349 298,349 300,351 300,352 301,353 301,354 302,355 302,397 296,403 295,403 294,404 292,404 291,405 290,404 287,404 285,402 284,402 282,400 282,399 281,398 281,397 280,396 280,355 281,354 281,353 286,348 287,348 288,347" stroke="#000" stroke-width="10" /><polygon fill="#000" fill-opacity="0.2" points="238,347 239,346 245,346 246,347 248,347 254,353 254,355 255,356 255,365 254,366 254,367 253,368 253,369 252,370 252,371 248,375 247,375 246,376 243,376 242,377 241,377 240,376 238,376 237,375 236,375 235,374 234,374 233,373 233,372 230,369 230,367 229,366 229,362 228,361 228,360 229,359 229,355 231,353 231,352 235,348 236,348 237,347" stroke="#000" stroke-width="10" /><polygon fill="#000" fill-opacity="0.2" points="336,346 337,345 339,345 340,346 343,346 344,347 345,347 352,354 352,355 353,356 353,359 354,360 354,362 353,363 353,366 352,367 352,368 351,369 351,370 349,372 349,373 348,374 347,374 345,376 343,376 342,377 337,377 336,376 335,376 334,375 333,375 329,371 329,370 327,368 327,366 326,365 326,355 327,354 327,352 332,347 333,347 334,346" stroke="#000" stroke-width="10" /><polygon fill="#000" fill-opacity="0.2" points="368,316 369,315 374,315 376,317 377,317 383,323 383,324 389,330 389,331 392,334 393,334 404,345 404,346 405,347 405,353 404,354 404,355 403,356 403,357 400,360 399,360 398,361 393,361 392,360 390,360 367,337 367,336 363,332 363,331 362,330 362,328 361,327 361,323 362,322 362,321 367,316" stroke="#000" stroke-width="10" /><polygon fill="#000" fill-opacity="0.2" points="209,316 210,315 214,315 215,316 217,316 221,320 221,321 222,322 222,329 221,330 221,331 207,345 207,346 202,351 202,352 193,361 192,361 191,362 186,362 185,361 184,361 179,356 179,355 178,354 178,352 177,351 177,348 178,347 178,346 197,327 197,326 205,318 206,318 208,316" stroke="#000" stroke-width="10" /><polygon fill="#000" fill-opacity="0.2" points="405,283 406,282 410,282 411,283 415,283 416,284 417,284 419,286 420,286 423,289 423,290 425,292 425,294 426,295 426,300 425,301 425,302 424,303 424,304 423,305 423,306 421,308 420,308 418,310 417,310 416,311 409,311 408,310 407,310 406,309 405,309 398,302 398,301 397,300 397,299 396,298 396,296 395,295 395,294 396,293 396,290 397,289 397,288 402,283" stroke="#000" stroke-width="10" /><polygon fill="#000" fill-opacity="0.2" points="169,283 170,282 177,282 178,283 180,283 182,285 183,285 185,287 185,288 187,290 187,292 188,293 187,294 187,297 186,298 186,299 185,300 185,301 177,309 176,309 175,310 173,310 172,311 167,311 166,310 165,310 164,309 163,309 158,304 158,302 157,301 157,293 158,292 158,291 164,285 165,285 166,284 167,284 168,283" stroke="#000" stroke-width="10" /><polygon fill="#000" fill-opacity="0.2" points="403,239 404,238 407,238 408,239 443,239 444,240 446,240 451,245 451,248 452,249 452,250 451,251 451,253 450,254 450,255 446,259 445,259 444,260 404,260 403,259 402,259 397,254 397,252 396,251 396,246 397,245 397,244 398,243 398,242 401,239" stroke="#000" stroke-width="10" /><polygon fill="#000" fill-opacity="0.2" points="176,239 177,238 178,239 180,239 182,241 183,241 184,242 184,243 186,245 186,252 184,254 184,255 181,258 180,258 179,259 178,259 177,260 143,260 142,261 141,261 140,260 138,260 133,255 133,254 132,253 132,246 133,245 133,244 137,240 138,240 139,239" stroke="#000" stroke-width="10" /><polygon fill="#000" fill-opacity="0.2" points="409,186 410,185 412,185 413,186 416,186 417,187 418,187 419,188 420,188 423,191 423,192 424,193 424,194 425,195 425,196 426,197 426,201 425,202 425,204 424,205 424,206 420,210 419,210 417,212 416,212 415,213 412,213 411,214 406,214 405,213 404,213 403,212 402,212 398,208 398,207 397,206 397,204 396,203 396,197 397,196 397,195 398,194 398,193 403,188 404,188 405,187 406,187 407,186" stroke="#000" stroke-width="10" /><polygon fill="#000" fill-opacity="0.2" points="167,186 168,185 172,185 173,186 176,186 177,187 178,187 180,189 181,189 184,192 184,193 185,194 185,195 186,196 186,197 187,198 187,203 186,204 186,206 185,207 185,208 182,211 181,211 179,213 177,213 176,214 169,214 168,213 166,213 165,212 164,212 159,207 159,206 158,205 158,204 157,203 157,195 158,194 158,193 159,192 159,191 162,188 163,188 164,187 165,187 166,186" stroke="#000" stroke-width="10" /><polygon fill="#000" fill-opacity="0.2" points="281,165 282,164 297,164 298,165 304,165 305,166 308,166 309,167 313,167 314,168 316,168 317,169 319,169 320,170 322,170 323,171 324,171 325,172 326,172 327,173 328,173 329,174 330,174 331,175 332,175 334,177 335,177 337,179 338,179 341,182 342,182 346,186 347,186 356,195 356,196 360,200 360,201 362,203 362,204 363,205 363,206 364,207 364,208 365,209 365,210 367,212 367,213 368,214 368,216 369,217 369,218 370,219 370,220 371,221 371,223 372,224 372,226 373,227 373,229 374,230 374,233 375,234 375,240 376,241 376,252 375,253 375,261 374,262 374,266 373,267 373,270 372,271 372,274 371,275 371,277 370,278 370,279 369,280 369,281 368,282 368,283 367,284 367,285 366,286 366,287 365,288 365,289 363,291 363,292 360,295 360,296 358,298 358,299 355,302 355,303 342,316 341,316 338,319 337,319 335,321 334,321 333,322 332,322 331,323 330,323 329,324 328,324 327,325 326,325 325,326 323,326 322,327 321,327 320,328 317,328 316,329 313,329 312,330 307,330 306,331 301,331 300,332 281,332 280,331 275,331 274,330 269,330 268,329 266,329 265,328 262,328 261,327 260,327 259,326 257,326 256,325 255,325 254,324 253,324 252,323 251,323 250,322 249,322 247,320 246,320 244,318 243,318 241,316 240,316 234,310 233,310 229,306 229,305 224,300 224,299 221,296 221,295 219,293 219,292 218,291 218,290 216,288 216,287 215,286 215,285 214,284 214,283 213,282 213,280 212,279 212,277 211,276 211,274 210,273 210,270 209,269 209,267 208,266 209,265 209,264 208,263 208,261 207,260 207,241 208,240 208,239 207,238 208,237 208,232 209,231 209,227 210,226 210,224 211,223 211,221 212,220 212,218 213,217 213,216 214,215 214,214 215,213 215,212 216,211 216,210 218,208 218,207 219,206 219,205 221,203 221,202 224,199 224,198 229,193 229,192 236,185 237,185 241,181 242,181 244,179 245,179 247,177 248,177 249,176 250,176 252,174 253,174 254,173 255,173 256,172 257,172 258,171 259,171 260,170 262,170 263,169 265,169 266,168 268,168 269,167 272,167 273,166 276,166 277,165" stroke="#000" stroke-width="10" /><polygon fill="#000" fill-opacity="0.2" points="391,136 399,136 400,137 401,137 405,141 405,142 406,143 406,150 401,155 401,156 400,157 399,157 381,175 381,176 377,180 376,180 375,181 374,181 373,182 369,182 368,181 367,181 362,176 362,174 361,173 361,167 375,153 375,152" stroke="#000" stroke-width="10" /><polygon fill="#000" fill-opacity="0.2" points="184,137 185,136 191,136 192,137 193,137 203,147 203,148 211,156 211,157 215,161 216,161 220,165 220,166 221,167 221,168 222,169 222,173 221,174 221,175 220,176 220,177 216,181 214,181 213,182 209,182 208,181 207,181 206,180 205,180 184,159 184,158 179,153 179,152 177,150 177,144 178,143 178,142 183,137" stroke="#000" stroke-width="10" /><polygon fill="#000" fill-opacity="0.2" points="335,119 336,118 345,118 346,119 347,119 352,124 352,125 353,126 353,129 354,130 354,134 353,135 353,137 352,138 352,139 351,140 351,141 349,143 349,144 347,146 346,146 345,147 344,147 343,148 341,148 340,149 337,149 336,148 334,148 332,146 331,146 328,143 328,142 327,141 327,139 326,138 326,130 327,129 327,127 328,126 328,125 334,119" stroke="#000" stroke-width="10" /><polygon fill="#000" fill-opacity="0.2" points="237,119 238,118 245,118 246,119 248,119 253,124 253,125 254,126 254,127 255,128 255,131 256,132 256,135 255,136 255,139 254,140 254,141 253,142 253,143 249,147 248,147 247,148 245,148 244,149 241,149 240,148 238,148 237,147 236,147 231,142 231,141 230,140 230,139 229,138 229,134 228,133 228,132 229,131 229,127 230,126 230,125 236,119" stroke="#000" stroke-width="10" /><polygon fill="#000" fill-opacity="0.2" points="704,99 705,98 706,99 707,98 708,99 709,98 731,98 732,99 737,99 738,100 743,100 744,101 748,101 749,102 752,102 753,103 755,103 756,104 758,104 759,105 760,105 761,106 763,106 764,107 765,107 767,109 768,109 769,110 770,110 771,111 772,111 774,113 775,113 777,115 778,115 781,118 782,118 785,121 786,121 801,136 801,137 804,140 804,141 806,143 806,144 808,146 808,147 809,148 809,149 810,150 810,151 812,153 812,154 813,155 813,157 814,158 814,159 815,160 815,161 816,162 816,164 817,165 817,167 818,168 818,171 819,172 819,180 818,181 816,179 808,179 807,178 806,179 798,179 797,180 793,180 792,181 790,181 789,182 787,182 786,183 784,183 783,184 781,184 779,186 778,186 777,187 776,187 775,188 774,188 772,190 771,190 769,192 768,192 756,204 756,205 753,208 753,209 751,211 751,212 749,214 749,215 747,217 747,218 746,219 746,220 745,221 745,222 744,223 744,224 743,225 743,227 742,228 742,229 741,230 741,232 740,233 740,234 739,235 739,238 738,239 738,243 737,244 737,259 738,260 738,261 740,263 740,264 743,264 744,265 745,264 748,264 750,262 750,256 751,255 751,248 752,247 752,242 753,241 753,237 754,236 754,234 755,233 755,231 756,230 756,229 757,228 757,227 759,225 759,224 761,222 761,221 764,218 764,217 777,204 778,204 782,200 783,200 785,198 786,198 787,197 788,197 790,195 791,195 792,194 793,194 794,193 795,193 796,192 798,192 799,191 801,191 802,190 804,190 805,189 808,189 809,188 819,188 820,189 826,189 827,190 829,190 830,191 833,191 834,192 835,192 836,193 838,193 839,194 841,194 842,195 843,195 844,196 845,196 846,197 847,197 849,199 850,199 851,200 852,200 854,202 855,202 857,204 858,204 867,213 867,214 870,217 870,218 873,221 873,222 875,224 875,225 876,226 876,227 877,228 877,229 878,230 878,231 879,232 879,233 880,234 880,236 881,237 881,238 882,239 882,242 883,243 883,246 884,247 884,251 885,252 885,258 886,259 886,261 885,262 885,274 884,275 884,278 883,279 883,282 882,283 882,286 881,287 881,288 880,289 880,291 879,292 879,293 878,294 878,295 877,296 877,297 876,298 876,299 874,301 874,302 871,305 871,306 869,308 869,309 867,311 867,312 854,325 853,325 850,328 849,328 847,330 846,330 845,331 844,331 842,333 841,333 840,334 839,334 838,335 837,335 836,336 835,336 834,337 832,337 831,338 829,338 828,339 826,339 825,340 821,340 820,341 792,341 791,340 732,340 731,341 676,341 675,340 597,340 596,341 572,341 571,340 565,340 564,339 560,339 559,338 556,338 555,337 553,337 552,336 550,336 549,335 548,335 547,334 546,334 545,333 544,333 543,332 542,332 541,331 540,331 538,329 537,329 536,328 535,328 533,326 532,326 529,323 528,323 525,320 524,320 519,315 519,314 513,308 513,307 510,304 510,303 509,302 509,301 507,299 507,298 506,297 506,296 504,294 504,293 503,292 503,291 502,290 502,289 501,288 501,287 500,286 500,285 499,284 499,281 498,280 498,278 497,277 497,275 496,274 496,269 495,268 495,262 494,261 494,247 495,246 495,239 496,238 495,237 495,236 496,235 496,231 497,230 497,227 498,226 498,224 499,223 499,221 500,220 500,219 501,218 501,217 502,216 502,215 503,214 503,212 504,211 504,210 505,209 505,208 507,206 507,205 508,204 508,203 511,200 511,199 513,197 513,196 530,179 531,179 533,177 534,177 537,174 538,174 539,173 540,173 542,171 543,171 544,170 545,170 546,169 547,169 548,168 549,168 550,167 552,167 553,166 554,166 555,165 557,165 558,164 561,164 562,163 566,163 567,162 569,162 570,161 571,162 573,162 574,161 589,161 590,162 594,162 595,163 600,163 601,164 603,164 604,165 606,165 607,166 609,166 610,167 611,167 615,171 616,171 618,173 619,173 621,175 622,175 625,178 626,178 632,184 633,184 637,188 637,189 641,193 641,194 643,196 643,197 644,198 644,199 645,200 645,201 646,202 646,203 647,204 647,205 648,206 648,207 649,208 649,209 650,210 650,212 651,213 651,216 652,217 652,219 653,220 653,223 654,224 654,226 655,227 655,228 656,229 666,229 667,228 668,228 668,226 669,225 669,221 668,220 668,216 667,215 667,212 666,211 666,209 665,208 665,207 664,206 664,204 663,203 663,202 662,201 662,200 661,199 661,198 660,197 660,196 659,195 659,194 656,191 656,190 653,187 653,186 649,182 649,181 640,172 639,172 635,168 634,168 632,166 631,166 630,165 627,165 626,164 625,164 624,163 624,162 625,161 625,159 626,158 626,157 627,156 627,155 629,153 629,152 631,150 631,149 633,147 633,146 636,143 636,142 639,139 639,138 645,132 645,131 649,127 650,127 657,120 658,120 661,117 662,117 664,115 665,115 666,114 667,114 669,112 670,112 671,111 672,111 674,109 675,109 676,108 677,108 678,107 679,107 680,106 681,106 682,105 684,105 685,104 686,104 687,103 689,103 690,102 693,102 694,101 697,101 698,100 700,100 701,99" stroke="#000" stroke-width="10" /><polygon fill="#000" fill-opacity="0.2" points="289,89 290,88 293,88 294,89 296,89 300,93 300,94 301,95 301,118 302,119 302,138 301,139 301,140 297,144 296,144 295,145 294,145 293,146 288,146 287,145 286,145 281,140 281,139 280,138 280,96 287,89" stroke="#000" stroke-width="10" /></svg>