<?xml version="1.0" encoding="UTF-8" standalone="no"?>
<!-- Created with Inkscape (http://www.inkscape.org/) -->

<svg
   width="28.574999mm"
   height="28.310417mm"
   viewBox="0 0 28.574999 28.310417"
   version="1.1"
   id="svg1"
   inkscape:version="1.3.2 (091e20ef0f, 2023-11-25)"
   sodipodi:docname="windpower2.svg"
   xmlns:inkscape="http://www.inkscape.org/namespaces/inkscape"
   xmlns:sodipodi="http://sodipodi.sourceforge.net/DTD/sodipodi-0.dtd"
   xmlns="http://www.w3.org/2000/svg"
   xmlns:svg="http://www.w3.org/2000/svg">
  <sodipodi:namedview
     id="namedview1"
     pagecolor="#ffffff"
     bordercolor="#000000"
     borderopacity="0.25"
     inkscape:showpageshadow="2"
     inkscape:pageopacity="0.0"
     inkscape:pagecheckerboard="0"
     inkscape:deskcolor="#d1d1d1"
     inkscape:document-units="mm"
     inkscape:zoom="0.79731341"
     inkscape:cx="53.931113"
     inkscape:cy="53.304007"
     inkscape:window-width="1920"
     inkscape:window-height="1141"
     inkscape:window-x="0"
     inkscape:window-y="0"
     inkscape:window-maximized="1"
     inkscape:current-layer="layer1" />
  <defs
     id="defs1" />
  <g
     inkscape:label="Ebene 1"
     inkscape:groupmode="layer"
     id="layer1"
     transform="translate(-90.487499,-134.40833)">
    <polygon
       fill="#000000"
       fill-opacity="0.4"
       points="364,347 365,348 381,348 381,347 378,347 377,346 365,346 "
       stroke="#000000"
       stroke-width="5"
       id="polygon1"
       transform="matrix(0.26458333,0,0,0.26458333,1.190625,66.013541)" />
    <polygon
       fill="#000000"
       fill-opacity="0.4"
       points="365,342 364,343 381,343 381,342 "
       stroke="#000000"
       stroke-width="5"
       id="polygon2"
       transform="matrix(0.26458333,0,0,0.26458333,1.190625,66.013541)" />
    <polygon
       fill="#000000"
       fill-opacity="0.4"
       points="365,338 364,339 381,339 381,338 "
       stroke="#000000"
       stroke-width="5"
       id="polygon4"
       transform="matrix(0.26458333,0,0,0.26458333,1.190625,66.013541)" />
    <polygon
       fill="#000000"
       fill-opacity="0.4"
       points="425,343 425,341 424,341 423,340 415,340 414,339 414,303 413,302 411,302 410,303 410,339 409,340 400,340 398,342 400,344 424,344 "
       stroke="#000000"
       stroke-width="5"
       id="polygon9"
       transform="matrix(0.26458333,0,0,0.26458333,1.190625,66.013541)" />
    <polygon
       fill="#000000"
       fill-opacity="0.4"
       points="424,308 426,310 427,310 429,312 431,312 432,311 432,309 430,307 429,307 427,305 426,305 424,303 423,303 421,301 420,301 419,300 417,300 416,301 416,303 417,304 418,304 420,306 421,306 423,308 "
       stroke="#000000"
       stroke-width="5"
       id="polygon11"
       transform="matrix(0.26458333,0,0,0.26458333,1.190625,66.013541)" />
    <polygon
       fill="#000000"
       fill-opacity="0.4"
       points="400,307 401,307 403,305 404,305 405,304 406,304 408,302 408,300 407,299 405,299 404,300 403,300 401,302 400,302 397,305 397,308 398,309 "
       stroke="#000000"
       stroke-width="5"
       id="polygon13"
       transform="matrix(0.26458333,0,0,0.26458333,1.190625,66.013541)" />
    <polygon
       fill="#000000"
       fill-opacity="0.4"
       points="357,299 355,301 355,302 354,303 354,306 353,307 353,314 354,315 354,317 355,318 355,319 356,320 356,321 364,329 364,335 381,335 381,329 389,321 389,320 390,319 390,318 391,317 391,315 392,314 392,307 391,306 391,304 390,303 390,301 388,299 388,298 385,295 384,295 382,293 381,293 380,292 378,292 377,291 369,291 368,292 365,292 364,293 363,293 361,295 360,295 357,298 "
       stroke="#000000"
       stroke-width="5"
       id="polygon16"
       transform="matrix(0.26458333,0,0,0.26458333,1.190625,66.013541)" />
    <polygon
       fill="#000000"
       fill-opacity="0.4"
       points="386,303 387,304 387,306 388,307 388,314 387,315 387,317 385,319 385,320 378,327 378,329 377,330 377,331 376,332 375,331 375,323 376,322 376,320 377,319 377,318 380,315 370,315 369,316 367,316 367,317 369,319 369,320 370,321 370,324 371,325 371,331 370,332 369,332 368,331 368,328 367,327 367,326 363,322 362,322 360,320 360,319 358,317 358,315 357,314 357,307 358,306 358,304 359,303 359,302 364,297 365,297 366,296 367,296 368,295 376,295 377,296 379,296 381,298 382,298 386,302 "
       stroke="#000000"
       stroke-width="5"
       id="polygon17"
       transform="matrix(0.26458333,0,0,0.26458333,1.190625,66.013541)" />
    <polygon
       fill="#000000"
       fill-opacity="0.4"
       points="410,276 410,294 413,294 414,293 414,276 413,275 411,275 "
       stroke="#000000"
       stroke-width="5"
       id="polygon28"
       transform="matrix(0.26458333,0,0,0.26458333,1.190625,66.013541)" />
    <polygon
       fill="#000000"
       fill-opacity="0.4"
       points="340,262 341,261 442,261 443,262 443,362 442,363 341,363 340,362 "
       stroke="#000000"
       stroke-width="5"
       id="polygon33"
       transform="matrix(0.26458333,0,0,0.26458333,1.190625,66.013541)" />
  </g>
</svg>
