<?xml version="1.0" encoding="UTF-8" standalone="no"?>
<!-- Created with Inkscape (http://www.inkscape.org/) -->

<svg
   width="38.893749mm"
   height="41.010418mm"
   viewBox="0 0 38.893749 41.010418"
   version="1.1"
   id="svg1"
   inkscape:version="1.3.2 (091e20ef0f, 2023-11-25)"
   sodipodi:docname="windpower.svg"
   xmlns:inkscape="http://www.inkscape.org/namespaces/inkscape"
   xmlns:sodipodi="http://sodipodi.sourceforge.net/DTD/sodipodi-0.dtd"
   xmlns="http://www.w3.org/2000/svg"
   xmlns:svg="http://www.w3.org/2000/svg">
  <sodipodi:namedview
     id="namedview1"
     pagecolor="#ffffff"
     bordercolor="#000000"
     borderopacity="0.25"
     inkscape:showpageshadow="2"
     inkscape:pageopacity="0.0"
     inkscape:pagecheckerboard="0"
     inkscape:deskcolor="#d1d1d1"
     inkscape:document-units="mm"
     inkscape:zoom="0.79731341"
     inkscape:cx="-430.19469"
     inkscape:cy="79.642458"
     inkscape:window-width="1920"
     inkscape:window-height="1141"
     inkscape:window-x="0"
     inkscape:window-y="0"
     inkscape:window-maximized="1"
     inkscape:current-layer="layer1" />
  <defs
     id="defs1" />
  <g
     inkscape:label="Ebene 1"
     inkscape:groupmode="layer"
     id="layer1"
     transform="translate(-218.81041,-127.52917)">
    <polygon
       fill="#000000"
       fill-opacity="0.4"
       points="323,261 322,260 317,260 315,262 315,263 314,264 314,296 324,296 324,263 323,262 "
       stroke="#000000"
       stroke-width="5"
       id="polygon23"
       transform="matrix(0.26458333,0,0,0.26458333,152.53229,85.328125)" />
    <polygon
       fill="#000000"
       fill-opacity="0.4"
       points="370,230 368,228 358,228 357,229 350,229 349,230 349,234 350,235 368,235 370,233 "
       stroke="#000000"
       stroke-width="5"
       id="polygon27"
       transform="matrix(0.26458333,0,0,0.26458333,152.53229,85.328125)" />
    <polygon
       fill="#000000"
       fill-opacity="0.4"
       points="295,225 293,223 276,223 275,224 274,224 274,228 276,230 293,230 294,229 295,229 "
       stroke="#000000"
       stroke-width="5"
       id="polygon28"
       transform="matrix(0.26458333,0,0,0.26458333,152.53229,85.328125)" />
    <polygon
       fill="#000000"
       fill-opacity="0.4"
       points="345,213 346,213 357,202 357,200 356,199 356,198 352,198 350,200 349,200 339,210 339,214 340,214 341,215 343,215 "
       stroke="#000000"
       stroke-width="5"
       id="polygon30"
       transform="matrix(0.26458333,0,0,0.26458333,152.53229,85.328125)" />
    <polygon
       fill="#000000"
       fill-opacity="0.4"
       points="305,208 304,207 304,206 292,194 288,194 287,195 287,198 300,211 302,211 303,210 304,210 304,209 "
       stroke="#000000"
       stroke-width="5"
       id="polygon31"
       transform="matrix(0.26458333,0,0,0.26458333,152.53229,85.328125)" />
    <polygon
       fill="#000000"
       fill-opacity="0.4"
       points="319,223 318,224 317,224 316,225 315,225 312,228 312,229 311,230 311,234 309,236 308,236 307,237 306,237 305,238 304,238 303,239 302,239 301,240 300,240 298,242 297,242 296,243 295,243 294,244 293,244 292,245 291,245 290,246 289,246 287,248 286,248 285,249 284,249 283,250 282,250 281,251 280,251 277,254 277,257 278,258 279,258 280,259 281,258 283,258 284,257 285,257 287,255 288,255 289,254 290,254 291,253 292,253 293,252 294,252 295,251 296,251 297,250 298,250 300,248 301,248 302,247 303,247 304,246 305,246 306,245 307,245 308,244 309,244 310,243 311,243 313,241 315,241 316,242 317,242 318,243 323,243 324,242 326,242 331,247 332,247 339,254 340,254 348,262 349,262 356,269 357,269 358,270 360,270 362,268 362,265 355,258 354,258 346,250 345,250 337,242 336,242 330,236 330,235 331,234 331,231 330,230 330,229 329,228 329,227 326,224 326,217 327,216 327,204 328,203 328,192 329,191 329,181 328,180 328,179 323,179 322,180 322,185 321,186 321,198 320,199 320,211 319,212 "
       stroke="#000000"
       stroke-width="5"
       id="polygon34"
       transform="matrix(0.26458333,0,0,0.26458333,152.53229,85.328125)" />
    <polygon
       fill="#000000"
       fill-opacity="0.4"
       points="393,170 394,171 394,174 395,175 395,299 394,300 394,303 393,304 393,305 388,310 387,310 386,311 384,311 383,312 264,312 263,311 262,311 261,310 260,310 255,305 255,304 254,303 254,302 253,301 253,173 254,172 254,171 255,170 255,169 260,164 261,164 262,163 263,163 264,162 383,162 384,163 386,163 387,164 388,164 393,169 "
       stroke="#000000"
       stroke-width="5"
       id="polygon40"
       transform="matrix(0.26458333,0,0,0.26458333,152.53229,85.328125)" />
  </g>
</svg>
