<?xml version="1.0" encoding="UTF-8" standalone="no"?>
<svg
   data-name="Ebene 1"
   id="MS_Klimadashboard_Icons_k_abfall_gesamt_svg__Ebene_1"
   viewBox="0 0 46.03 63.47"
   class="h-10 md:h-14"
   version="1.1"
   sodipodi:docname="garbage.svg"
   inkscape:version="1.3.2 (091e20ef0f, 2023-11-25)"
   xmlns:inkscape="http://www.inkscape.org/namespaces/inkscape"
   xmlns:sodipodi="http://sodipodi.sourceforge.net/DTD/sodipodi-0.dtd"
   xmlns="http://www.w3.org/2000/svg"
   xmlns:svg="http://www.w3.org/2000/svg">
  <sodipodi:namedview
     id="namedview2"
     pagecolor="#ffffff"
     bordercolor="#000000"
     borderopacity="0.25"
     inkscape:showpageshadow="2"
     inkscape:pageopacity="0.0"
     inkscape:pagecheckerboard="0"
     inkscape:deskcolor="#d1d1d1"
     inkscape:zoom="14.10115"
     inkscape:cx="23.047766"
     inkscape:cy="31.735001"
     inkscape:window-width="1920"
     inkscape:window-height="1141"
     inkscape:window-x="0"
     inkscape:window-y="0"
     inkscape:window-maximized="1"
     inkscape:current-layer="MS_Klimadashboard_Icons_k_abfall_gesamt_svg__Ebene_1" />
  <defs
     id="defs1">
    <style
       id="style1">.MS_Klimadashboard_Icons_k_abfall_gesamt_svg__cls-1{fill:#34c17b}</style>
  </defs>
  <path
     class="MS_Klimadashboard_Icons_k_abfall_gesamt_svg__cls-1"
     d="M37.13 63.47H16.38c-1.34 0-2.46-.96-2.65-2.29L7.69 22.65a.998.998 0 0 1 1.97-.31l6.04 38.55c.05.34.33.58.67.58h20.75c.35 0 .63-.24.68-.57l6.06-38.37H18.77c-.55 0-1-.45-1-1s.45-1 1-1h26.26c.29 0 .57.13.76.35.19.22.27.52.23.81L39.78 61.2c-.19 1.31-1.31 2.27-2.66 2.27Z"
     id="path1"
     style="fill:#000000;fill-opacity:1" />
  <path
     class="MS_Klimadashboard_Icons_k_abfall_gesamt_svg__cls-1"
     d="M4.06 25.07c-.42 0-.84-.07-1.25-.2a3.998 3.998 0 0 1-2.36-2.02 4.026 4.026 0 0 1 1.78-5.45l5.94-3.02-.73-1.39c-1.63-3.05-.47-6.86 2.58-8.5L17.01.75a6.27 6.27 0 0 1 8.5 2.57l.96 1.71 6.79-3.46a4.051 4.051 0 0 1 5.45 1.77 4.04 4.04 0 0 1-1.77 5.46l-8.19 4.18c-.49.25-1.1.05-1.34-.44-.25-.49-.06-1.09.44-1.35l8.19-4.18c.84-.43 1.28-1.37 1.07-2.3a2.065 2.065 0 0 0-2.94-1.37l-7.64 3.89a.998.998 0 0 1-1.33-.4l-1.44-2.57a4.263 4.263 0 0 0-5.8-1.77l-6.99 3.74a4.283 4.283 0 0 0-1.75 5.8l1.21 2.29c.12.24.15.51.07.77-.08.25-.26.47-.5.59l-6.84 3.48c-.85.43-1.29 1.37-1.08 2.29.04.17.1.33.17.46.26.51.68.87 1.21 1.04.52.17 1.08.12 1.56-.12l16.27-8.29a.987.987 0 0 1 1.34.44c.25.49.06 1.09-.44 1.35L5.9 24.62c-.58.3-1.21.44-1.84.44Zm10.3-11.1c-.11 0-.22-.02-.33-.05-.26-.09-.47-.28-.59-.53l-.71-1.57c-.14-.24-.27-.56-.35-.89-.49-1.92 1.49-3 2.8-3.72l2.08-1.17c1.39-.77 2.98-1.4 4.31.94l.9 1.75c.25.49.06 1.09-.42 1.35l-7.24 3.8a.92.92 0 0 1-.46.11Zm4.91-6.65c-.2 0-.48.16-1.02.46l-2.1 1.18c-.63.34-1.93 1.06-1.82 1.47.04.16.11.32.2.48l.31.69 5.42-2.85-.43-.83c-.23-.41-.34-.6-.56-.6ZM19.99 53.4c-.5 0-.94-.38-.99-.89l-2.59-23.49a1 1 0 0 1 .88-1.1 1 1 0 0 1 1.1.88l2.59 23.49a1 1 0 0 1-.88 1.1h-.11ZM33.5 53.4h-.11a.985.985 0 0 1-.88-1.1l2.59-23.49c.06-.55.54-.94 1.1-.88.55.06.95.55.88 1.1l-2.59 23.49c-.06.51-.49.89-.99.89ZM26.85 53.4c-.55 0-1-.45-1-1V28.91c0-.55.45-1 1-1s1 .45 1 1V52.4c0 .55-.45 1-1 1Z"
     id="path2"
     style="fill:#000000;fill-opacity:1" />
</svg>
