<?xml version="1.0" encoding="UTF-8" standalone="no"?>
<svg
   data-name="Ebene 1"
   id="MS_Klimadashboard_Icons_Klimakenntage_eis_svg__Ebene_1"
   viewBox="0 0 40 40"
   class="aspect-square h-5 md:h-8"
   version="1.1"
   sodipodi:docname="ice.svg"
   inkscape:version="1.3.2 (091e20ef0f, 2023-11-25)"
   xmlns:inkscape="http://www.inkscape.org/namespaces/inkscape"
   xmlns:sodipodi="http://sodipodi.sourceforge.net/DTD/sodipodi-0.dtd"
   xmlns="http://www.w3.org/2000/svg"
   xmlns:svg="http://www.w3.org/2000/svg">
  <sodipodi:namedview
     id="namedview9"
     pagecolor="#ffffff"
     bordercolor="#000000"
     borderopacity="0.25"
     inkscape:showpageshadow="2"
     inkscape:pageopacity="0.0"
     inkscape:pagecheckerboard="0"
     inkscape:deskcolor="#d1d1d1"
     inkscape:zoom="22.375"
     inkscape:cx="19.977654"
     inkscape:cy="19.01676"
     inkscape:window-width="1920"
     inkscape:window-height="1141"
     inkscape:window-x="0"
     inkscape:window-y="0"
     inkscape:window-maximized="1"
     inkscape:current-layer="MS_Klimadashboard_Icons_Klimakenntage_eis_svg__Gruppe_361" />
  <defs
     id="defs1">
    <style
       id="style1">.MS_Klimadashboard_Icons_Klimakenntage_eis_svg__cls-2{fill:#14b3d9}</style>
    <filter
       style="color-interpolation-filters:sRGB;"
       inkscape:label="Duochrome"
       id="filter25"
       x="0"
       y="0"
       width="1"
       height="1">
      <feColorMatrix
         type="luminanceToAlpha"
         result="colormatrix1"
         id="feColorMatrix21" />
      <feFlood
         flood-opacity="1"
         flood-color="rgb(0,0,0)"
         result="flood1"
         id="feFlood21" />
      <feComposite
         in2="colormatrix1"
         operator="out"
         result="composite1"
         id="feComposite21" />
      <feFlood
         flood-opacity="1"
         flood-color="rgb(255,255,0)"
         result="flood2"
         id="feFlood22" />
      <feComposite
         in2="colormatrix1"
         result="composite2"
         operator="in"
         id="feComposite22" />
      <feComposite
         in="composite2"
         in2="composite1"
         k2="1"
         k3="1"
         operator="arithmetic"
         result="composite3"
         id="feComposite23" />
      <feColorMatrix
         in="composite3"
         type="matrix"
         values="2 -1 0 0 0 0 2 -1 0 0 -1 0 2 0 0 0 0 0 1 0 "
         result="colormatrix2"
         id="feColorMatrix23" />
      <feComposite
         in="colormatrix2"
         in2="composite3"
         operator="arithmetic"
         k2="0"
         result="composite4"
         id="feComposite24" />
      <feBlend
         in="composite4"
         in2="composite3"
         mode="normal"
         result="blend"
         id="feBlend24" />
      <feComposite
         in2="SourceGraphic"
         operator="in"
         id="feComposite25" />
    </filter>
  </defs>
  <g
     data-name="Gruppe 361"
     id="MS_Klimadashboard_Icons_Klimakenntage_eis_svg__Gruppe_361"
     style="filter:url(#filter25)">
    <g
       data-name="Gruppe 176"
       id="MS_Klimadashboard_Icons_Klimakenntage_eis_svg__Gruppe_176"
       style="fill:#000000;fill-opacity:1">
      <g
         data-name="Gruppe 172"
         id="MS_Klimadashboard_Icons_Klimakenntage_eis_svg__Gruppe_172"
         style="fill:#000000;fill-opacity:1">
        <path
           class="MS_Klimadashboard_Icons_Klimakenntage_eis_svg__cls-2"
           d="M19.99 39.43c-.67 0-1.21-.54-1.21-1.21l.03-36.43c0-.67.54-1.21 1.21-1.21.67 0 1.21.54 1.21 1.21l-.03 36.43c0 .67-.54 1.21-1.21 1.21Z"
           id="path1"
           style="fill:#000000;fill-opacity:1" />
        <path
           class="MS_Klimadashboard_Icons_Klimakenntage_eis_svg__cls-2"
           d="M19.99 11.44h-.02c-.35 0-.68-.16-.9-.43L12.33 3.1c-.43-.51-.37-1.27.14-1.71.51-.43 1.27-.37 1.71.14l5.85 6.87 6.11-6.69c.45-.49 1.22-.53 1.71-.08s.53 1.22.08 1.71l-7.04 7.71c-.23.25-.55.39-.89.39ZM26.92 37.72c-.32 0-.64-.13-.88-.38l-6.27-6.66-6.56 6.09c-.49.46-1.26.43-1.71-.06-.46-.49-.43-1.26.06-1.71L19 28.09c.49-.45 1.25-.43 1.71.06l7.09 7.53c.46.49.44 1.25-.05 1.71-.23.22-.53.33-.83.33Z"
           id="path2"
           style="fill:#000000;fill-opacity:1" />
      </g>
      <g
         data-name="Gruppe 173"
         id="MS_Klimadashboard_Icons_Klimakenntage_eis_svg__Gruppe_173"
         style="fill:#000000;fill-opacity:1">
        <path
           class="MS_Klimadashboard_Icons_Klimakenntage_eis_svg__cls-2"
           d="m37.79 20.78-35.58-.09c-.67 0-1.21-.55-1.21-1.21 0-.67.54-1.21 1.21-1.21l35.58.09c.67 0 1.21.55 1.21 1.21 0 .67-.54 1.21-1.21 1.21Z"
           id="path3"
           style="fill:#000000;fill-opacity:1" />
        <path
           class="MS_Klimadashboard_Icons_Klimakenntage_eis_svg__cls-2"
           d="M37 28.22c-.29 0-.58-.1-.82-.32l-8.17-7.45c-.25-.23-.39-.55-.39-.89s.14-.67.39-.89l8.24-7.53c.49-.45 1.26-.42 1.71.08.45.49.42 1.26-.08 1.71l-7.27 6.64 7.19 6.56c.49.45.53 1.22.08 1.71-.24.26-.57.39-.89.39ZM2.8 27.74c-.33 0-.66-.13-.9-.4-.45-.49-.42-1.26.08-1.71l6.92-6.31-7.37-7.03c-.48-.46-.5-1.23-.04-1.71s1.23-.5 1.71-.04l8.33 7.92c.24.23.38.55.38.89 0 .34-.15.66-.4.88l-7.89 7.19c-.23.21-.52.32-.82.32Z"
           id="path4"
           style="fill:#000000;fill-opacity:1" />
      </g>
      <g
         data-name="Gruppe 174"
         id="MS_Klimadashboard_Icons_Klimakenntage_eis_svg__Gruppe_174"
         style="fill:#000000;fill-opacity:1">
        <path
           class="MS_Klimadashboard_Icons_Klimakenntage_eis_svg__cls-2"
           d="M10.46 30.19c-.32 0-.64-.13-.88-.38-.46-.49-.44-1.25.05-1.71l10.56-10c.48-.46 1.25-.44 1.71.05.46.49.44 1.25-.05 1.71l-10.56 10c-.23.22-.53.33-.83.33Z"
           id="path5"
           style="fill:#000000;fill-opacity:1" />
        <path
           class="MS_Klimadashboard_Icons_Klimakenntage_eis_svg__cls-2"
           d="M21.02 20.18c-.28 0-.56-.1-.79-.3-.51-.44-.56-1.2-.12-1.71l8.72-10.05c.44-.5 1.2-.56 1.71-.12.51.44.56 1.2.12 1.71l-8.72 10.05c-.24.28-.58.42-.92.42Z"
           id="path6"
           style="fill:#000000;fill-opacity:1" />
        <path
           class="MS_Klimadashboard_Icons_Klimakenntage_eis_svg__cls-2"
           d="M30.34 14.26c-.09 0-.19-.01-.28-.03-2.51-.6-4.19-3.11-4.75-5.34a1.211 1.211 0 1 1 2.35-.59c.38 1.52 1.52 3.23 2.97 3.58.65.15 1.05.81.9 1.46-.13.56-.63.93-1.18.93ZM14.38 30.22c-.44 0-.87-.24-1.08-.67l-.11-.21c-.96-1.91-1.47-2.47-3.21-2.73a1.21 1.21 0 0 1-1.01-1.38c.1-.66.72-1.12 1.38-1.01 2.74.42 3.8 1.64 5.01 4.04l.11.21a1.214 1.214 0 0 1-1.08 1.76Z"
           id="path7"
           style="fill:#000000;fill-opacity:1" />
      </g>
      <g
         data-name="Gruppe 175"
         id="MS_Klimadashboard_Icons_Klimakenntage_eis_svg__Gruppe_175"
         style="fill:#000000;fill-opacity:1">
        <path
           class="MS_Klimadashboard_Icons_Klimakenntage_eis_svg__cls-2"
           d="M16.15 16.91c-.31 0-.62-.12-.86-.36L9.3 10.52c-.47-.47-.47-1.24 0-1.71s1.24-.47 1.71 0L17 14.84c.47.47.47 1.24 0 1.71-.24.23-.54.35-.85.35ZM29.34 30.19c-.31 0-.62-.12-.86-.36l-5.24-5.28c-.47-.47-.47-1.24 0-1.71s1.24-.47 1.71 0l5.24 5.28c.47.47.47 1.24 0 1.71-.24.23-.54.35-.85.35Z"
           id="path8"
           style="fill:#000000;fill-opacity:1" />
        <path
           class="MS_Klimadashboard_Icons_Klimakenntage_eis_svg__cls-2"
           d="M25.89 30.59a1.217 1.217 0 0 1-1.07-1.78c.98-1.86 1.9-3.61 4.51-4.55.63-.23 1.32.1 1.55.73.23.63-.1 1.32-.73 1.55-1.65.59-2.2 1.52-3.19 3.4-.22.41-.64.65-1.07.65ZM10.16 15.25c-.54 0-1.04-.37-1.18-.92-.16-.65.24-1.31.89-1.47 1.84-.45 2.37-.98 2.87-2.81.17-.65.84-1.03 1.49-.85.65.18 1.03.84.85 1.49-.73 2.67-1.94 3.86-4.63 4.52-.1.02-.19.04-.29.04Z"
           id="path9"
           style="fill:#000000;fill-opacity:1" />
      </g>
    </g>
  </g>
</svg>
