<?xml version="1.0" encoding="UTF-8" standalone="no"?>
<svg
   data-name="Ebene 1"
   viewBox="0 0 40 40"
   class="aspect-square h-5 md:h-8"
   version="1.1"
   id="svg1"
   sodipodi:docname="moon.svg"
   inkscape:version="1.3.2 (091e20ef0f, 2023-11-25)"
   xmlns:inkscape="http://www.inkscape.org/namespaces/inkscape"
   xmlns:sodipodi="http://sodipodi.sourceforge.net/DTD/sodipodi-0.dtd"
   xmlns="http://www.w3.org/2000/svg"
   xmlns:svg="http://www.w3.org/2000/svg">
  <defs
     id="defs1" />
  <sodipodi:namedview
     id="namedview1"
     pagecolor="#ffffff"
     bordercolor="#000000"
     borderopacity="0.25"
     inkscape:showpageshadow="2"
     inkscape:pageopacity="0.0"
     inkscape:pagecheckerboard="0"
     inkscape:deskcolor="#d1d1d1"
     inkscape:zoom="22.375"
     inkscape:cx="19.977654"
     inkscape:cy="20"
     inkscape:window-width="1920"
     inkscape:window-height="1141"
     inkscape:window-x="0"
     inkscape:window-y="0"
     inkscape:window-maximized="1"
     inkscape:current-layer="svg1" />
  <path
     d="M23.53 39.19c-2.5 0-5.02-.5-7.43-1.5A19.07 19.07 0 0 1 5.75 27.28c-1.95-4.74-1.93-9.95.04-14.68C8.81 5.41 15.72.82 23.48.82h.44c.92.02 1.71.6 2 1.47.29.87.02 1.8-.71 2.37-2.17 1.71-3.82 4-4.79 6.62-2.77 7.47.94 16.09 8.28 19.21 1.61.68 3.29 1.08 5.02 1.19.89.05 1.63.64 1.88 1.5s-.05 1.76-.78 2.29c-3.36 2.45-7.3 3.71-11.29 3.71Zm-.62-35.86c-6.52.22-12.26 4.16-14.8 10.24a16.555 16.555 0 0 0-.04 12.76 16.54 16.54 0 0 0 9 9.05c5.09 2.13 10.76 1.63 15.37-1.31-1.62-.2-3.2-.63-4.72-1.28-8.69-3.7-12.92-13.54-9.64-22.38 1.02-2.74 2.68-5.17 4.84-7.08Zm10.65 30.85Z"
     style="fill:#000000;fill-opacity:1"
     id="path1" />
</svg>
