<?xml version="1.0" encoding="UTF-8" standalone="no"?>
<svg
   data-name="Ebene 1"
   viewBox="0 0 159.25 160.91"
   class="w-40"
   version="1.1"
   id="svg1"
   sodipodi:docname="pv.svg"
   inkscape:version="1.3.2 (091e20ef0f, 2023-11-25)"
   xmlns:inkscape="http://www.inkscape.org/namespaces/inkscape"
   xmlns:sodipodi="http://sodipodi.sourceforge.net/DTD/sodipodi-0.dtd"
   xmlns="http://www.w3.org/2000/svg"
   xmlns:svg="http://www.w3.org/2000/svg">
  <defs
     id="defs1" />
  <sodipodi:namedview
     id="namedview1"
     pagecolor="#ffffff"
     bordercolor="#000000"
     borderopacity="0.25"
     inkscape:showpageshadow="2"
     inkscape:pageopacity="0.0"
     inkscape:pagecheckerboard="0"
     inkscape:deskcolor="#d1d1d1"
     inkscape:zoom="5.5621153"
     inkscape:cx="79.645957"
     inkscape:cy="80.455002"
     inkscape:window-width="1920"
     inkscape:window-height="1141"
     inkscape:window-x="0"
     inkscape:window-y="0"
     inkscape:window-maximized="1"
     inkscape:current-layer="svg1" />
  <path
     d="M43.02 159.66h87.09M28.33 14.13c-7.8 0-14.12 6.32-14.12 14.12s6.32 14.12 14.12 14.12 14.12-6.32 14.12-14.12-6.32-14.12-14.12-14.12Zm0-12.88v7.8m0 38.56v6.66M1.25 28.37h7.8m38.89 0h7.8M47.48 9.18l-5.51 5.51M14.7 41.96l-5.51 5.51m32.78-5.51 5.51 5.51M14.69 14.69 9.18 9.18m134.49 53.58H28.93l-14.34 66.09H158l-14.33-66.09Zm-57.38 0v66.09M57.27 62.76l-3.59 22.03-3.59 22.03-3.58 22.03m68.84-66.09 3.58 22.03 3.58 22.03 3.6 22.03M25.64 85.49h106.71M20.89 108.05h121.78m-62.52 26.59v23.12m12.26-20.15v21.29"
     style="fill:none;stroke:#000000;stroke-linecap:round;stroke-linejoin:round;stroke-width:2.5px;stroke-opacity:1"
     id="path1" />
</svg>
