<?xml version="1.0" encoding="UTF-8" standalone="no"?>
<svg
   data-name="Ebene 1"
   viewBox="0 0 44.94 58.38"
   class="aspect-square h-10 fill-primary stroke-primary text-primary md:h-14"
   version="1.1"
   id="svg1"
   sodipodi:docname="rain.svg"
   inkscape:version="1.3.2 (091e20ef0f, 2023-11-25)"
   xmlns:inkscape="http://www.inkscape.org/namespaces/inkscape"
   xmlns:sodipodi="http://sodipodi.sourceforge.net/DTD/sodipodi-0.dtd"
   xmlns="http://www.w3.org/2000/svg"
   xmlns:svg="http://www.w3.org/2000/svg">
  <defs
     id="defs1" />
  <sodipodi:namedview
     id="namedview1"
     pagecolor="#ffffff"
     bordercolor="#000000"
     borderopacity="0.25"
     inkscape:showpageshadow="2"
     inkscape:pageopacity="0.0"
     inkscape:pagecheckerboard="0"
     inkscape:deskcolor="#d1d1d1"
     inkscape:zoom="15.330592"
     inkscape:cx="22.438794"
     inkscape:cy="29.190001"
     inkscape:window-width="1920"
     inkscape:window-height="1141"
     inkscape:window-x="0"
     inkscape:window-y="0"
     inkscape:window-maximized="1"
     inkscape:current-layer="svg1" />
  <path
     d="M13.13 58.38C5.89 58.38 0 52.49 0 45.25c0-5.28 6.75-19.35 10.77-27.28a2.64 2.64 0 0 1 2.36-1.45c1 0 1.91.56 2.36 1.45 4.02 7.92 10.77 22 10.77 27.28 0 7.24-5.89 13.13-13.13 13.13Zm0-39.36c-.09 0-.12.06-.13.08C6.43 32.05 2.5 41.82 2.5 45.25c0 5.86 4.77 10.63 10.63 10.63s10.63-4.77 10.63-10.63c0-3.42-3.93-13.2-10.5-26.15s-.04-.08-.13-.08ZM34.95 31.6c-5.51 0-9.99-4.48-9.99-9.99 0-4 5.06-14.52 8.08-20.44C33.41.45 34.14 0 34.95 0s1.54.45 1.91 1.17c3.02 5.92 8.07 16.44 8.07 20.44 0 5.51-4.48 9.99-9.99 9.99Zm0-28.67c-4.63 9.15-7.49 16.27-7.49 18.68 0 4.13 3.36 7.49 7.49 7.49s7.49-3.36 7.49-7.49c0-2.41-2.86-9.54-7.49-18.68Z"
     style="fill:#000000;fill-opacity:1"
     id="path1" />
</svg>
