<?xml version="1.0" encoding="UTF-8" standalone="no"?>
<svg
   data-name="Ebene 1"
   viewBox="0 0 22.13 66.02"
   class="w-6 h-10 fill-primary stroke-primary text-primary md:h-14"
   version="1.1"
   id="svg1"
   sodipodi:docname="temperature.svg"
   inkscape:version="1.3.2 (091e20ef0f, 2023-11-25)"
   xmlns:inkscape="http://www.inkscape.org/namespaces/inkscape"
   xmlns:sodipodi="http://sodipodi.sourceforge.net/DTD/sodipodi-0.dtd"
   xmlns="http://www.w3.org/2000/svg"
   xmlns:svg="http://www.w3.org/2000/svg">
  <defs
     id="defs1" />
  <sodipodi:namedview
     id="namedview1"
     pagecolor="#ffffff"
     bordercolor="#000000"
     borderopacity="0.25"
     inkscape:showpageshadow="2"
     inkscape:pageopacity="0.0"
     inkscape:pagecheckerboard="0"
     inkscape:deskcolor="#d1d1d1"
     inkscape:zoom="13.556499"
     inkscape:cx="11.064804"
     inkscape:cy="33.009998"
     inkscape:window-width="1920"
     inkscape:window-height="1141"
     inkscape:window-x="0"
     inkscape:window-y="0"
     inkscape:window-maximized="1"
     inkscape:current-layer="svg1" />
  <path
     d="M11.07 66.02c-.24 0-.48 0-.73-.02C4.9 65.66.47 61.31.03 55.88c-.28-3.48 1.07-6.86 3.65-9.17V5.36C3.68 2.4 6.09 0 9.04 0h3.79a5.62 5.62 0 0 1 5.61 5.61v41.1c2.35 2.1 3.68 5.07 3.68 8.24s-1.27 5.98-3.49 8.07c-2.08 1.95-4.74 3-7.56 3ZM9.04 2.5a2.86 2.86 0 0 0-2.86 2.86v41.93c0 .38-.17.74-.47.98a8.579 8.579 0 0 0-3.19 7.41c.34 4.2 3.77 7.56 7.98 7.83 2.39.15 4.68-.67 6.42-2.3 1.74-1.64 2.71-3.85 2.71-6.24 0-2.62-1.17-5.05-3.21-6.69-.3-.24-.47-.6-.47-.98V5.61c0-1.72-1.4-3.11-3.11-3.11H9.05Zm2.02 57.78c-3.02 0-5.48-2.46-5.48-5.48 0-2.37 1.51-4.39 3.62-5.15V9.23a1.25 1.25 0 0 1 2.5 0v9.44h1.57a1.25 1.25 0 0 1 0 2.5H11.7v7.3h1.57a1.25 1.25 0 0 1 0 2.5H11.7v7.62h1.57a1.25 1.25 0 0 1 0 2.5H11.7v8.27c2.72.32 4.84 2.64 4.84 5.44 0 3.02-2.46 5.48-5.48 5.48Zm0-8.46c-1.64 0-2.98 1.34-2.98 2.98s1.34 2.98 2.98 2.98 2.98-1.34 2.98-2.98-1.34-2.98-2.98-2.98Z"
     style="fill:#000000;fill-opacity:1"
     id="path1" />
</svg>
