<?xml version="1.0" encoding="utf-8" ?>
<svg baseProfile="tiny" height="1024" version="1.2" width="1024" xmlns="http://www.w3.org/2000/svg" xmlns:ev="http://www.w3.org/2001/xml-events" xmlns:xlink="http://www.w3.org/1999/xlink"><defs /><rect fill="#fff" height="1024" width="1024" x="0" y="0" /><polygon fill="#000" fill-opacity="0.4" points="472,328 471,329 468,329 466,331 465,331 463,333 463,335 462,336 462,339 463,340 463,342 465,344 466,344 468,346 469,346 470,347 474,347 475,348 477,348 478,347 480,347 485,342 485,340 486,339 486,335 485,334 485,333 482,330 481,330 480,329 478,329 477,328" stroke="#000" stroke-width="5" /><polygon fill="#000" fill-opacity="0.4" points="387,306 387,307 384,310 384,311 380,315 380,316 377,319 377,320 375,322 375,323 373,325 373,326 372,327 372,328 371,329 400,329 399,328 399,324 398,323 398,321 397,320 397,319 396,318 396,317 395,316 395,315 394,314 394,313 392,311 392,310 388,306" stroke="#000" stroke-width="5" /><polygon fill="#000" fill-opacity="0.4" points="620,287 619,288 616,288 615,289 613,289 615,291 615,292 616,293 616,294 618,296 618,297 619,298 619,299 620,300 620,301 621,302 621,303 623,305 623,306 624,307 624,308 626,310 626,311 628,313 628,314 630,316 630,317 631,318 631,319 633,321 633,322 635,324 636,324 637,325 639,325 641,327 642,327 644,329 644,330 646,332 646,333 647,334 647,336 648,337 648,345 647,346 647,348 646,349 646,350 640,356 639,356 638,357 635,357 634,358 629,358 628,357 626,357 625,356 624,356 622,354 621,354 618,351 618,350 616,348 616,347 615,346 615,345 614,344 614,343 613,342 613,340 611,338 611,337 610,336 610,335 608,333 608,332 606,330 606,329 605,328 605,327 603,325 603,324 602,323 602,322 600,320 600,319 598,317 598,316 597,315 597,314 595,312 595,311 594,310 594,309 593,308 593,307 592,306 592,305 591,305 590,306 590,307 587,310 587,311 585,313 585,314 583,316 583,318 582,319 582,321 581,322 581,325 580,326 580,331 579,332 579,347 580,348 580,352 581,353 581,355 582,356 582,358 583,359 583,360 584,361 584,362 585,363 585,364 586,365 586,366 588,368 588,369 589,370 589,371 592,374 592,375 597,380 598,380 601,383 602,383 604,385 605,385 606,386 607,386 608,387 609,387 610,388 612,388 613,389 615,389 616,390 618,390 619,391 623,391 624,392 629,392 630,393 634,393 635,392 642,392 643,391 646,391 647,390 649,390 650,389 652,389 653,388 654,388 655,387 656,387 657,386 658,386 659,385 660,385 662,383 663,383 672,374 672,373 675,370 675,369 677,367 677,366 678,365 678,364 679,363 679,361 680,360 680,359 681,358 681,355 682,354 682,350 683,349 683,331 682,330 682,326 681,325 681,323 680,322 680,320 679,319 679,318 678,317 678,315 677,314 677,313 675,311 675,310 672,307 672,306 664,298 663,298 660,295 659,295 658,294 657,294 656,293 655,293 654,292 653,292 652,291 651,291 650,290 648,290 647,289 645,289 644,288 640,288 639,287" stroke="#000" stroke-width="5" /><polygon fill="#000" fill-opacity="0.4" points="339,287 338,288 335,288 334,289 332,289 331,290 330,290 329,291 327,291 326,292 325,292 324,293 323,293 321,295 320,295 318,297 317,297 315,299 314,299 307,306 307,307 303,311 303,312 302,313 302,314 301,315 301,316 300,317 300,318 299,319 299,321 298,322 298,324 297,325 297,329 296,330 296,338 295,339 295,344 296,345 296,352 297,353 297,356 298,357 298,359 299,360 299,362 300,363 300,364 302,366 302,367 304,369 304,370 309,375 309,376 311,378 312,378 317,383 318,383 320,385 321,385 322,386 323,386 324,387 325,387 327,389 329,389 330,390 331,390 332,391 335,391 336,392 342,392 343,393 350,393 351,392 356,392 357,391 361,391 362,390 364,390 365,389 367,389 368,388 369,388 370,387 372,387 373,386 374,386 375,385 376,385 378,383 379,383 383,379 384,379 389,374 389,373 391,371 391,370 393,368 393,367 394,366 394,365 395,364 395,363 396,362 396,360 397,359 397,357 357,357 356,358 345,358 344,357 342,357 341,356 340,356 334,350 334,349 333,348 333,347 332,346 332,344 331,343 331,338 332,337 332,334 333,333 333,332 334,331 334,330 339,325 340,325 342,323 343,323 345,321 345,320 348,317 348,316 349,315 349,314 351,312 351,311 353,309 353,308 356,305 356,304 358,302 358,301 362,297 362,296 366,292 366,291 367,290 366,290 365,289 363,289 362,288 356,288 355,287" stroke="#000" stroke-width="5" /><polygon fill="#000" fill-opacity="0.4" points="413,272 413,273 406,280 405,280 405,282 409,286 409,287 412,290 412,291 415,294 415,295 417,297 417,298 418,299 418,300 419,301 419,302 420,303 420,304 421,305 421,306 422,307 422,308 423,309 423,310 424,311 424,313 425,314 425,316 426,317 426,319 427,320 427,322 428,323 428,326 429,327 429,328 443,328 444,327 444,326 445,325 445,323 444,322 444,320 443,319 443,318 442,317 442,316 440,314 440,313 438,311 438,310 437,309 437,308 435,306 435,305 434,304 434,303 432,301 432,300 430,298 430,297 428,295 428,294 427,293 427,292 425,290 425,289 423,287 423,286 422,285 422,284 420,282 420,281 419,280 419,279 417,277 417,276 415,274 415,273 414,272" stroke="#000" stroke-width="5" /><polygon fill="#000" fill-opacity="0.4" points="440,264 440,265 441,266 441,267 442,268 442,269 443,270 443,271 445,273 445,274 446,275 446,276 448,278 448,279 450,281 450,282 452,284 452,285 454,287 454,288 455,289 455,290 457,292 457,293 459,295 459,296 460,297 460,298 462,300 462,301 464,303 464,304 468,308 469,308 470,307 480,307 481,308 483,308 484,309 485,309 486,310 487,310 488,311 489,311 489,310 501,298 501,297 509,289 509,288 521,276 521,275 522,274 523,274 523,273 529,267 530,267 530,265 528,265 527,266 526,265 525,265 524,266 493,266 492,265 445,265 444,264" stroke="#000" stroke-width="5" /><polygon fill="#000" fill-opacity="0.4" points="511,178 510,179 505,179 504,180 502,180 501,181 500,181 499,182 498,182 492,188 492,189 489,192 489,193 487,195 487,196 485,198 483,198 482,199 456,199 455,200 408,200 407,199 364,199 363,200 350,200 349,201 343,201 342,202 338,202 337,203 334,203 333,204 330,204 329,205 327,205 326,206 324,206 323,207 321,207 320,208 318,208 317,209 315,209 314,210 313,210 312,211 310,211 309,212 308,212 307,213 306,213 305,214 304,214 303,215 302,215 301,216 300,216 299,217 298,217 297,218 296,218 295,219 294,219 293,220 292,220 290,222 289,222 287,224 286,224 282,228 281,228 279,230 278,230 274,234 273,234 260,247 260,248 255,253 255,254 252,257 252,258 250,260 250,261 248,263 248,264 247,265 247,266 245,268 245,269 243,271 243,272 242,273 242,274 241,275 241,276 240,277 240,278 239,279 239,280 238,281 238,282 237,283 237,284 236,285 236,286 235,287 235,288 234,289 234,291 233,292 233,294 232,295 232,296 231,297 231,299 230,300 230,302 229,303 229,305 228,306 228,308 227,309 227,311 226,312 226,315 225,316 225,318 224,319 224,323 223,324 223,329 222,330 222,337 221,338 221,648 222,649 222,654 223,655 223,660 224,661 224,665 225,666 225,668 226,669 226,672 227,673 227,675 228,676 228,679 229,680 229,682 230,683 230,685 231,686 231,688 232,689 232,691 233,692 233,693 234,694 234,696 235,697 235,698 236,699 236,700 237,701 237,702 238,703 238,704 239,705 239,706 240,707 240,708 241,709 241,710 242,711 242,712 243,713 243,714 245,716 245,717 247,719 247,720 249,722 249,723 251,725 251,726 254,729 254,730 257,733 257,734 262,739 262,740 272,750 273,750 279,756 280,756 284,760 285,760 288,763 289,763 291,765 292,765 294,767 295,767 296,768 297,768 298,769 299,769 301,771 302,771 303,772 304,772 305,773 306,773 307,774 308,774 309,775 310,775 311,776 312,776 313,777 315,777 316,778 318,778 319,779 321,779 322,780 324,780 325,781 328,781 329,782 332,782 333,783 336,783 337,784 340,784 341,785 344,785 345,786 349,786 350,787 356,787 357,788 361,788 362,789 630,789 631,788 652,788 653,787 663,787 664,786 668,786 669,785 672,785 673,784 676,784 677,783 679,783 680,782 682,782 683,781 685,781 686,780 688,780 689,779 691,779 692,778 694,778 695,777 697,777 698,776 700,776 701,775 702,775 703,774 704,774 705,773 706,773 707,772 708,772 709,771 711,771 712,770 713,770 714,769 715,769 717,767 718,767 720,765 721,765 723,763 724,763 727,760 728,760 730,758 731,758 736,753 737,753 750,740 750,739 756,733 756,732 759,729 759,728 761,726 761,725 763,723 763,722 765,720 765,719 767,717 767,716 769,714 769,713 770,712 770,711 771,710 771,709 772,708 772,707 773,706 773,705 774,704 774,703 775,702 775,701 776,700 776,699 777,698 777,696 778,695 778,694 779,693 779,691 780,690 780,688 781,687 781,685 782,684 782,683 783,682 783,680 784,679 784,676 785,675 785,672 786,671 786,668 787,667 787,664 788,663 788,659 789,658 789,652 790,651 790,392 791,391 791,345 790,344 790,338 789,337 789,332 788,331 788,327 787,326 787,322 786,321 786,318 785,317 785,314 784,313 784,311 783,310 783,307 782,306 782,303 781,302 781,300 780,299 780,298 779,297 779,295 778,294 778,293 777,292 777,291 776,290 776,289 775,288 775,286 774,285 774,284 773,283 773,282 772,281 772,280 771,279 771,278 769,276 769,275 768,274 768,273 766,271 766,270 765,269 765,268 763,266 763,265 761,263 761,262 759,260 759,259 755,255 755,254 751,250 751,249 735,233 734,233 730,229 729,229 726,226 725,226 723,224 722,224 720,222 719,222 717,220 716,220 715,219 714,219 712,217 711,217 710,216 709,216 708,215 707,215 706,214 705,214 704,213 703,213 702,212 701,212 700,211 699,211 698,210 696,210 695,209 694,209 693,208 691,208 690,207 688,207 687,206 686,206 685,205 682,205 681,204 678,204 677,203 674,203 673,202 668,202 667,201 662,201 661,200 655,200 654,199 610,199 609,200 601,200 595,194 595,193 589,187 589,186 588,186 585,183 584,183 582,181 581,181 580,180 578,180 577,179 575,179 574,178" stroke="#000" stroke-width="5" /><polygon fill="#000" fill-opacity="0.4" points="708,582 709,581 733,581 734,582 737,582 738,583 739,583 745,589 745,590 747,592 747,599 746,600 746,602 745,603 745,604 741,608 740,608 738,610 737,610 736,611 732,611 731,612 688,612 687,611 684,611 683,610 683,583 684,582" stroke="#000" stroke-width="5" /><polygon fill="#000" fill-opacity="0.4" points="683,507 684,506 733,506 734,507 737,507 738,508 739,508 740,509 741,509 744,512 744,513 746,515 746,516 747,517 747,524 746,525 746,526 745,527 745,528 740,533 739,533 738,534 737,534 736,535 733,535 732,536 713,536 712,535 701,535 700,536 685,536 683,534 683,532 684,531 684,515 683,514" stroke="#000" stroke-width="5" /><polygon fill="#000" fill-opacity="0.4" points="635,462 636,461 653,461 654,462 662,462 663,463 666,463 667,464 668,464 673,469 673,470 674,471 674,493 673,494 673,499 674,500 674,553 675,554 675,558 674,559 674,583 673,584 673,604 674,605 674,619 675,620 675,639 674,640 674,641 673,642 673,643 668,648 666,648 665,649 642,649 641,648 637,648 635,646 635,636 636,635 636,629 637,628 637,547 636,546 636,525 635,524 635,500 636,499 636,474 635,473" stroke="#000" stroke-width="5" /><polygon fill="#000" fill-opacity="0.4" points="523,204 524,203 556,203 557,204 558,204 560,206 560,207 563,210 563,211 564,212 564,213 565,214 565,215 567,217 567,218 568,219 568,220 569,221 569,222 571,224 571,225 572,226 572,227 573,228 573,229 575,231 575,232 576,233 576,234 577,235 577,236 579,238 579,239 581,241 581,242 583,244 583,245 586,248 586,249 588,251 588,252 591,255 591,256 593,258 593,259 596,262 596,263 597,264 599,264 600,263 602,263 603,262 605,262 606,261 608,261 609,260 612,260 613,259 618,259 619,258 627,258 628,257 639,257 640,258 647,258 648,259 652,259 653,260 656,260 657,261 659,261 660,262 661,262 662,263 664,263 665,264 666,264 667,265 668,265 669,266 670,266 672,268 673,268 674,269 675,269 677,271 678,271 681,274 682,274 696,288 696,289 698,291 698,292 700,294 700,295 701,296 701,297 702,298 702,299 703,300 703,301 704,302 704,303 705,304 705,305 706,306 706,307 707,308 707,309 708,310 708,311 709,312 709,314 710,315 710,317 711,318 711,322 712,323 712,329 713,330 713,346 712,347 712,354 711,355 711,360 710,361 710,364 709,365 709,367 708,368 708,370 707,371 707,372 706,373 706,375 705,376 705,377 703,379 703,380 702,381 702,382 700,384 700,385 699,386 699,387 695,391 695,392 681,406 680,406 678,408 677,408 675,410 674,410 672,412 671,412 670,413 668,413 667,414 666,414 665,415 664,415 663,416 661,416 660,417 658,417 657,418 654,418 653,419 650,419 649,420 644,420 643,421 621,421 620,420 615,420 614,419 611,419 610,418 607,418 606,417 604,417 603,416 601,416 600,415 599,415 598,414 597,414 596,413 595,413 594,412 593,412 592,411 591,411 590,410 589,410 587,408 586,408 584,406 583,406 579,402 578,402 573,397 573,396 568,391 568,390 566,388 566,387 564,385 564,384 562,382 562,381 561,380 561,379 560,378 560,377 558,375 558,374 557,373 557,371 556,370 556,369 555,368 555,366 554,365 554,363 553,362 553,359 552,358 552,354 551,353 551,326 552,325 552,320 553,319 553,315 554,314 554,313 555,312 555,310 556,309 556,308 557,307 557,306 558,305 558,304 559,303 559,301 561,299 561,298 562,297 562,296 564,294 564,293 566,291 566,290 571,285 571,284 575,280 575,278 572,275 572,274 569,271 569,270 567,268 567,267 566,266 566,265 555,276 555,277 550,282 550,283 542,291 542,292 515,319 515,320 510,325 510,326 508,328 508,329 507,330 508,331 508,341 507,342 507,343 506,344 506,346 505,347 505,348 504,349 504,350 502,352 502,353 494,361 493,361 491,363 490,363 489,364 487,364 486,365 481,365 481,379 482,379 483,380 490,380 492,382 492,399 491,400 450,400 449,399 448,399 447,398 447,384 448,383 448,380 449,379 459,379 460,378 462,378 462,365 460,365 459,364 458,364 452,358 452,357 427,357 427,360 426,361 426,363 425,364 425,365 424,366 424,368 423,369 423,370 422,371 422,372 421,373 421,374 420,375 420,376 419,377 419,378 418,379 418,380 417,381 417,382 415,384 415,385 413,387 413,388 409,392 409,393 396,406 395,406 392,409 391,409 390,410 389,410 387,412 386,412 385,413 383,413 382,414 381,414 380,415 378,415 377,416 375,416 374,417 372,417 371,418 369,418 368,419 361,419 360,420 358,420 358,427 357,428 357,443 356,444 356,451 357,452 357,467 358,468 358,474 359,475 359,479 360,480 360,483 361,484 361,487 362,488 362,490 363,491 363,493 364,494 364,495 365,496 365,498 367,500 367,501 368,502 368,503 369,504 369,505 371,507 371,508 373,510 373,511 385,523 386,523 389,526 390,526 392,528 393,528 394,529 395,529 396,530 397,530 398,531 399,531 400,532 401,532 402,533 403,533 404,534 405,534 406,535 408,535 409,536 411,536 412,537 414,537 415,538 418,538 419,539 425,539 426,540 431,540 432,541 441,541 442,542 455,542 456,543 472,543 473,542 473,541 474,540 474,538 475,537 475,535 476,534 476,532 477,531 477,530 478,529 478,528 479,527 479,526 480,525 480,524 481,523 481,522 482,521 482,520 484,518 484,517 487,514 487,513 490,510 490,509 506,493 507,493 509,491 510,491 512,489 513,489 514,488 515,488 516,487 517,487 518,486 519,486 520,485 521,485 522,484 523,484 524,483 526,483 527,482 529,482 530,481 533,481 534,480 537,480 538,479 543,479 544,478 589,478 590,479 599,479 600,480 609,480 610,481 622,481 623,482 626,482 627,483 627,484 626,485 626,491 625,492 625,500 624,501 624,513 623,514 623,528 622,529 622,571 621,572 621,581 622,582 622,586 621,587 621,593 620,594 620,596 619,597 619,599 618,600 618,604 617,605 617,613 618,614 618,617 619,618 619,619 620,620 620,621 621,622 621,623 622,624 622,625 623,626 623,627 624,628 624,629 626,631 627,631 634,638 634,640 633,641 632,641 631,642 625,642 624,643 572,643 571,644 552,644 551,643 543,643 542,642 538,642 537,641 534,641 533,640 530,640 529,639 527,639 526,638 525,638 524,637 522,637 521,636 519,636 518,635 517,635 516,634 515,634 513,632 512,632 510,630 509,630 507,628 506,628 502,624 501,624 491,614 491,613 488,610 488,609 485,606 485,605 484,604 484,603 482,601 482,600 481,599 481,598 480,597 480,596 479,595 479,594 478,593 478,591 477,590 477,589 476,588 476,586 475,585 475,583 474,582 474,579 473,578 473,574 472,573 472,571 466,571 465,572 453,572 452,571 424,571 423,570 416,570 415,569 411,569 410,568 408,568 407,567 404,567 403,566 401,566 400,565 398,565 397,564 395,564 394,563 393,563 392,562 390,562 388,560 387,560 386,559 385,559 384,558 383,558 382,557 381,557 380,556 379,556 377,554 376,554 372,550 371,550 367,546 366,546 358,538 358,537 353,532 353,531 349,527 349,526 347,524 347,523 345,521 345,520 344,519 344,518 342,516 342,515 341,514 341,513 340,512 340,511 339,510 339,509 338,508 338,507 337,506 337,504 336,503 336,501 335,500 335,498 334,497 334,494 333,493 333,490 332,489 332,486 331,485 331,480 330,479 330,472 329,471 329,456 328,455 328,454 329,453 329,433 330,432 330,430 329,429 329,421 330,420 329,420 328,419 327,419 326,418 323,418 322,417 320,417 319,416 317,416 316,415 315,415 314,414 312,414 310,412 309,412 308,411 307,411 306,410 305,410 303,408 302,408 300,406 299,406 285,392 285,391 282,388 282,387 279,384 279,383 278,382 278,381 276,379 276,378 275,377 275,376 274,375 274,373 273,372 273,371 272,370 272,368 271,367 271,365 270,364 270,361 269,360 269,357 268,356 268,351 267,350 267,328 268,327 268,322 269,321 269,317 270,316 270,314 271,313 271,311 272,310 272,308 273,307 273,306 274,305 274,304 275,303 275,302 276,301 276,300 277,299 277,298 279,296 279,295 282,292 282,291 288,285 288,284 291,281 292,281 298,275 299,275 302,272 303,272 305,270 306,270 307,269 308,269 310,267 311,267 312,266 313,266 314,265 315,265 316,264 317,264 318,263 320,263 321,262 322,262 323,261 325,261 326,260 329,260 330,259 335,259 336,258 363,258 364,259 369,259 370,260 373,260 374,261 376,261 377,262 379,262 380,263 381,263 382,264 383,264 385,266 386,266 387,265 387,264 388,263 388,262 390,260 390,259 392,257 392,256 395,253 395,252 397,250 397,249 382,249 381,248 380,248 374,242 374,241 373,240 373,239 372,238 372,229 373,228 373,227 378,222 379,222 380,221 381,221 382,220 441,220 442,221 444,221 445,222 446,222 451,227 451,228 452,229 452,231 451,232 451,234 450,235 450,237 449,238 449,239 542,239 543,238 549,238 549,236 541,228 536,228 535,229 530,229 529,228 524,228 523,227 522,227 520,225 520,224 519,223 519,222 518,221 518,220 517,219 517,210 519,208 519,207 522,204" stroke="#000" stroke-width="5" /><polygon fill="#000" fill-opacity="0.4" points="0,0 0,1023 1023,1023 1023,0" stroke="#000" stroke-width="5" /><polygon fill="#000" fill-opacity="0.4" points="350,152 351,151 658,151 659,152 669,152 670,153 678,153 679,154 683,154 684,155 689,155 690,156 692,156 693,157 696,157 697,158 700,158 701,159 703,159 704,160 706,160 707,161 710,161 711,162 713,162 714,163 716,163 717,164 718,164 719,165 721,165 722,166 723,166 724,167 725,167 726,168 727,168 728,169 730,169 731,170 732,170 733,171 734,171 735,172 736,172 738,174 739,174 740,175 741,175 742,176 743,176 745,178 746,178 747,179 748,179 751,182 752,182 754,184 755,184 758,187 759,187 763,191 764,191 769,196 770,196 788,214 788,215 792,219 792,220 795,223 795,224 797,226 797,227 799,229 799,230 802,233 802,234 804,236 804,237 807,240 807,241 808,242 808,243 810,245 810,246 812,248 812,249 813,250 813,251 814,252 814,253 815,254 815,255 816,256 816,257 818,259 818,260 819,261 819,262 820,263 820,264 821,265 821,267 822,268 822,269 823,270 823,271 824,272 824,274 825,275 825,276 826,277 826,278 827,279 827,281 828,282 828,284 829,285 829,288 830,289 830,291 831,292 831,294 832,295 832,298 833,299 833,302 834,303 834,307 835,308 835,312 836,313 836,317 837,318 837,323 838,324 838,329 839,330 839,336 840,337 840,340 841,341 841,649 840,650 840,658 839,659 839,663 838,664 838,670 837,671 837,675 836,676 836,680 835,681 835,684 834,685 834,687 833,688 833,691 832,692 832,694 831,695 831,698 830,699 830,702 829,703 829,706 828,707 828,709 827,710 827,711 826,712 826,714 825,715 825,717 824,718 824,719 823,720 823,722 822,723 822,724 821,725 821,726 820,727 820,728 819,729 819,730 818,731 818,732 817,733 817,734 816,735 816,736 814,738 814,739 813,740 813,741 812,742 812,743 811,744 811,745 809,747 809,748 807,750 807,751 805,753 805,754 804,755 804,756 801,759 801,760 798,763 798,764 795,767 795,768 792,771 792,772 787,777 787,778 775,790 774,790 767,797 766,797 762,801 761,801 758,804 757,804 755,806 754,806 752,808 751,808 749,810 748,810 747,811 746,811 744,813 743,813 742,814 741,814 739,816 738,816 737,817 736,817 735,818 734,818 733,819 732,819 731,820 730,820 729,821 728,821 727,822 726,822 725,823 724,823 723,824 722,824 721,825 719,825 718,826 716,826 715,827 713,827 712,828 711,828 710,829 707,829 706,830 705,830 704,831 701,831 700,832 698,832 697,833 694,833 693,834 690,834 689,835 685,835 684,836 680,836 679,837 674,837 673,838 667,838 666,839 660,839 659,840 640,840 639,841 620,841 619,840 615,840 614,841 362,841 361,840 352,840 351,839 346,839 345,838 340,838 339,837 335,837 334,836 330,836 329,835 325,835 324,834 320,834 319,833 316,833 315,832 312,832 311,831 308,831 307,830 304,830 303,829 302,829 301,828 299,828 298,827 296,827 295,826 294,826 293,825 291,825 290,824 289,824 288,823 287,823 286,822 285,822 284,821 282,821 281,820 280,820 279,819 278,819 277,818 276,818 275,817 274,817 273,816 272,816 271,815 270,815 268,813 267,813 266,812 265,812 263,810 262,810 261,809 260,809 258,807 257,807 254,804 253,804 249,800 248,800 243,795 242,795 231,784 230,784 229,783 229,782 220,773 220,772 215,767 215,766 212,763 212,762 210,760 210,759 208,757 208,756 206,754 206,753 204,751 204,750 202,748 202,747 200,745 200,744 199,743 199,742 198,741 198,740 197,739 197,738 196,737 196,736 195,735 195,734 194,733 194,732 193,731 193,730 192,729 192,728 191,727 191,726 190,725 190,724 189,723 189,722 188,721 188,720 187,719 187,717 186,716 186,714 185,713 185,712 184,711 184,709 183,708 183,706 182,705 182,703 181,702 181,700 180,699 180,697 179,696 179,694 178,693 178,690 177,689 177,686 176,685 176,682 175,681 175,678 174,677 174,673 173,672 173,668 172,667 172,661 171,660 171,650 170,649 170,600 171,599 171,564 170,563 170,496 171,495 171,464 170,463 170,432 171,431 171,412 170,411 170,400 171,399 171,384 170,383 170,380 171,379 171,339 172,338 172,332 173,331 173,325 174,324 174,321 175,320 175,315 176,314 176,310 177,309 177,306 178,305 178,302 179,301 179,298 180,297 180,294 181,293 181,290 182,289 182,287 183,286 183,283 184,282 184,280 185,279 185,277 186,276 186,275 187,274 187,272 188,271 188,270 189,269 189,267 190,266 190,265 191,264 191,263 192,262 192,261 193,260 193,258 195,256 195,255 196,254 196,253 197,252 197,251 198,250 198,249 199,248 199,247 201,245 201,244 202,243 202,242 203,241 203,240 205,238 205,237 207,235 207,234 210,231 210,230 213,227 213,226 216,223 216,222 220,218 220,217 228,209 228,208 230,206 231,206 244,193 245,193 249,189 250,189 254,185 255,185 258,182 259,182 261,180 262,180 263,179 264,179 266,177 267,177 268,176 269,176 270,175 271,175 272,174 273,174 274,173 275,173 277,171 278,171 279,170 280,170 281,169 283,169 284,168 285,168 286,167 287,167 288,166 289,166 290,165 292,165 293,164 295,164 296,163 298,163 299,162 301,162 302,161 305,161 306,160 308,160 309,159 311,159 312,158 315,158 316,157 319,157 320,156 324,156 325,155 329,155 330,154 335,154 336,153 343,153 344,152" stroke="#000" stroke-width="5" /></svg>