<?xml version="1.0" encoding="UTF-8" standalone="no"?>
<svg
   height="1024"
   version="1.2"
   width="1024"
   id="svg30"
   sodipodi:docname="buildingEnergy_black_on_white.svg"
   inkscape:version="1.3.2 (091e20ef0f, 2023-11-25)"
   xmlns:inkscape="http://www.inkscape.org/namespaces/inkscape"
   xmlns:sodipodi="http://sodipodi.sourceforge.net/DTD/sodipodi-0.dtd"
   xmlns="http://www.w3.org/2000/svg"
   xmlns:svg="http://www.w3.org/2000/svg">
  <sodipodi:namedview
     id="namedview30"
     pagecolor="#ffffff"
     bordercolor="#000000"
     borderopacity="0.25"
     inkscape:showpageshadow="2"
     inkscape:pageopacity="0.0"
     inkscape:pagecheckerboard="0"
     inkscape:deskcolor="#d1d1d1"
     inkscape:zoom="0.6180279"
     inkscape:cx="598.67847"
     inkscape:cy="623.75825"
     inkscape:window-width="1920"
     inkscape:window-height="1141"
     inkscape:window-x="0"
     inkscape:window-y="0"
     inkscape:window-maximized="1"
     inkscape:current-layer="svg30" />
  <defs
     id="defs1" />
  <rect
     fill="#fff"
     height="1024"
     width="1024"
     x="0"
     y="0"
     id="rect1" />
  <polygon
     fill="#000"
     fill-opacity="0.4"
     points="355,711 354,712 349,712 345,716 345,745 346,746 346,747 372,747 373,746 373,744 374,743 372,741 371,741 370,740 355,740 353,738 353,736 352,735 352,734 353,733 365,733 366,732 368,732 368,731 369,730 369,727 354,727 353,726 353,719 354,718 359,718 360,719 372,719 373,718 372,717 372,716 371,715 371,714 368,711"
     stroke="#000"
     stroke-width="5"
     id="polygon1" />
  <polygon
     fill="#000"
     fill-opacity="0.4"
     points="346,646 345,647 345,677 346,678 346,681 371,681 373,679 373,676 372,675 370,675 369,674 355,674 353,672 353,667 354,666 368,666 368,661 367,660 358,660 357,659 354,659 353,658 353,654 354,653 361,653 362,652 371,652 373,650 373,649 372,648 372,647 371,646"
     stroke="#000"
     stroke-width="5"
     id="polygon2" />
  <polygon
     fill="#000"
     fill-opacity="0.4"
     points="346,580 345,581 345,611 346,612 346,615 347,616 371,616 373,614 373,611 372,611 371,610 365,610 364,609 355,609 353,607 353,603 354,602 359,602 360,601 367,601 367,595 355,595 353,593 353,589 354,588 356,588 357,587 371,587 372,586 373,586 373,583 372,582 372,581 371,581 370,580"
     stroke="#000"
     stroke-width="5"
     id="polygon3" />
  <polygon
     fill="#000"
     fill-opacity="0.4"
     points="346,515 345,516 345,550 346,551 365,551 366,550 367,550 368,549 369,549 374,544 374,540 375,539 375,531 376,530 376,528 375,527 375,524 369,518 368,518 367,517 366,517 365,516 364,516 363,515"
     stroke="#000"
     stroke-width="5"
     id="polygon4" />
  <polygon
     fill="#000"
     fill-opacity="0.4"
     points="352,524 353,523 362,523 367,528 367,529 368,530 368,538 365,541 365,542 363,544 354,544 352,542"
     stroke="#000"
     stroke-width="5"
     id="polygon5" />
  <polygon
     fill="#000"
     fill-opacity="0.4"
     points="347,450 346,451 346,454 345,455 345,461 346,462 346,472 345,473 345,483 346,484 346,485 347,485 348,486 353,486 354,485 363,485 364,486 372,486 373,485 373,482 374,481 374,479 373,479 372,478 355,478 354,477 354,472 355,471 366,471 367,470 369,470 369,465 368,464 355,464 353,462 353,459 354,458 361,458 362,457 371,457 372,456 373,456 373,453 372,452 372,451 371,450"
     stroke="#000"
     stroke-width="5"
     id="polygon6" />
  <polygon
     fill="#000"
     fill-opacity="0.4"
     points="336,201 335,202 325,202 324,203 320,203 319,204 315,204 314,205 311,205 310,206 308,206 307,207 304,207 303,208 301,208 300,209 299,209 298,210 296,210 295,211 294,211 293,212 292,212 291,213 290,213 289,214 288,214 286,216 285,216 284,217 283,217 282,218 281,218 279,220 278,220 275,223 274,223 271,226 270,226 259,237 259,238 254,243 254,244 251,247 251,248 249,250 249,251 248,252 248,253 246,255 246,256 245,257 245,258 244,259 244,260 243,261 243,262 242,263 242,264 241,265 241,266 240,267 240,269 239,270 239,271 238,272 238,275 237,276 237,278 236,279 236,281 235,282 235,285 234,286 234,289 233,290 233,294 232,295 232,303 231,304 231,708 232,709 232,715 233,716 233,721 234,722 234,725 235,726 235,729 236,730 236,733 237,734 237,736 238,737 238,738 239,739 239,741 240,742 240,743 241,744 241,745 242,746 242,747 243,748 243,749 244,750 244,751 246,753 246,754 248,756 248,757 250,759 250,760 252,762 252,763 254,765 254,766 258,770 258,771 267,780 268,780 271,783 272,783 275,786 276,786 277,787 278,787 280,789 281,789 282,790 283,790 285,792 286,792 287,793 288,793 289,794 290,794 291,795 292,795 293,796 294,796 295,797 297,797 298,798 299,798 300,799 302,799 303,800 305,800 306,801 308,801 309,802 312,802 313,803 318,803 319,804 323,804 324,805 339,805 340,806 358,806 359,805 716,805 717,804 722,804 723,803 727,803 728,802 731,802 732,801 734,801 735,800 737,800 738,799 740,799 741,798 742,798 743,797 745,797 746,796 747,796 748,795 750,795 751,794 753,794 754,793 755,793 756,792 757,792 758,791 759,791 760,790 761,790 762,789 763,789 765,787 766,787 768,785 769,785 773,781 774,781 789,766 789,765 792,762 792,761 795,758 795,757 797,755 797,754 798,753 798,752 799,751 799,750 800,749 800,748 802,746 802,745 803,744 803,742 804,741 804,740 805,739 805,738 806,737 806,735 807,734 807,732 808,731 808,729 809,728 809,725 810,724 810,721 811,720 811,716 812,715 812,708 813,707 813,660 812,659 812,340 813,339 813,316 812,315 812,298 811,297 811,292 810,291 810,288 809,287 809,284 808,283 808,280 807,279 807,277 806,276 806,274 805,273 805,272 804,271 804,269 803,268 803,267 802,266 802,265 801,264 801,263 800,262 800,261 799,260 799,259 798,258 798,257 797,256 797,255 795,253 795,252 794,251 794,250 791,247 791,246 788,243 788,242 774,228 773,228 769,224 768,224 765,221 764,221 762,219 761,219 759,217 758,217 757,216 756,216 755,215 754,215 753,214 752,214 751,213 750,213 748,211 747,211 746,210 744,210 743,209 742,209 741,208 739,208 738,207 735,207 734,206 732,206 731,205 728,205 727,204 722,204 721,203 713,203 712,202 695,202 694,201 564,201 563,202 494,202 493,201"
     stroke="#000"
     stroke-width="5"
     id="polygon7" />
  <polygon
     fill="#000"
     fill-opacity="0.4"
     points="337,703 338,702 571,702 572,703 581,703 582,704 585,704 586,705 587,705 588,706 589,706 596,713 596,714 598,716 598,718 599,719 599,721 600,722 600,723 601,724 601,726 602,727 602,730 603,731 603,735 604,736 603,737 603,739 602,740 602,741 597,746 597,747 592,752 591,752 590,753 589,753 588,754 586,754 585,755 584,755 583,756 579,756 578,757 488,757 487,758 342,758 341,757 338,757 337,756 335,756 334,755 332,755 330,753 329,753 328,752 327,752 321,746 321,745 319,743 319,742 318,741 318,740 317,739 317,738 316,737 316,734 315,733 315,722 316,721 316,719 317,718 317,717 319,715 319,714 326,707 327,707 328,706 329,706 330,705 331,705 332,704 333,704 334,703"
     stroke="#000"
     stroke-width="5"
     id="polygon8" />
  <polygon
     fill="#000"
     fill-opacity="0.4"
     points="337,637 338,636 539,636 540,637 543,637 544,638 545,638 546,639 547,639 549,641 550,641 558,649 558,650 559,651 559,652 560,653 560,655 561,656 561,659 562,660 562,667 561,668 561,671 560,672 560,673 559,674 559,675 558,676 558,677 556,679 556,680 551,685 550,685 548,687 547,687 546,688 545,688 544,689 543,689 542,690 538,690 537,691 534,691 533,690 371,690 370,691 352,691 351,690 338,690 337,689 334,689 333,688 332,688 331,687 330,687 329,686 328,686 324,682 323,682 322,681 322,680 319,677 319,676 317,674 317,672 316,671 316,669 315,668 315,665 314,664 314,658 315,657 315,654 316,653 316,652 317,651 317,650 319,648 319,647 323,643 324,643 327,640 328,640 329,639 330,639 331,638 333,638 334,637"
     stroke="#000"
     stroke-width="5"
     id="polygon9" />
  <polygon
     fill="#000"
     fill-opacity="0.4"
     points="337,572 338,571 524,571 525,572 526,572 527,573 529,573 531,575 532,575 541,584 541,585 542,586 542,587 543,588 543,589 544,590 544,593 545,594 545,603 544,604 544,606 543,607 543,608 542,609 542,610 541,611 541,612 532,621 531,621 529,623 528,623 527,624 525,624 524,625 520,625 519,626 518,625 338,625 337,624 334,624 333,623 332,623 331,622 330,622 328,620 327,620 319,612 319,611 318,610 318,609 317,608 317,607 316,606 316,604 315,603 315,599 314,598 314,593 315,592 315,589 316,588 316,587 317,586 317,585 319,583 319,582 323,578 324,578 327,575 328,575 329,574 330,574 331,573 333,573 334,572"
     stroke="#000"
     stroke-width="5"
     id="polygon10" />
  <polygon
     fill="#000"
     fill-opacity="0.4"
     points="455,506 456,505 503,505 504,506 507,506 508,507 510,507 511,508 512,508 514,510 515,510 522,517 522,518 524,520 524,521 525,522 525,524 526,525 526,530 527,531 527,535 526,536 526,539 525,540 525,542 524,543 524,545 522,547 522,548 514,556 513,556 512,557 511,557 510,558 508,558 507,559 504,559 503,560 337,560 336,559 334,559 333,558 332,558 331,557 330,557 329,556 328,556 325,553 324,553 321,550 321,549 319,547 319,546 318,545 318,544 317,543 317,542 316,541 316,539 315,538 315,526 316,525 316,523 317,522 317,521 318,520 318,519 319,518 319,517 324,512 325,512 327,510 328,510 329,509 330,509 331,508 332,508 333,507 336,507 337,506"
     stroke="#000"
     stroke-width="5"
     id="polygon11" />
  <polygon
     fill="#000"
     fill-opacity="0.4"
     points="716,440 717,439 725,439 726,440 726,443 727,444 727,478 726,479 722,479 721,478 630,478 629,477 623,477 624,478 624,499 623,500 623,523 624,524 623,525 623,526 637,526 638,527 651,527 652,526 675,526 676,527 722,527 723,528 724,528 725,529 725,542 724,543 724,551 725,552 725,561 724,562 716,562 715,561 674,561 673,560 631,560 630,561 623,561 623,562 624,563 624,591 691,591 692,592 707,592 708,591 725,591 726,592 726,621 725,622 705,622 704,621 633,621 632,622 623,622 623,653 624,654 647,654 648,655 655,655 656,654 675,654 676,653 705,653 706,652 715,652 716,651 727,651 728,652 728,663 727,664 727,689 726,690 632,690 631,689 588,689 587,690 585,688 585,560 586,559 586,558 585,557 585,480 586,479 586,441 587,440"
     stroke="#000"
     stroke-width="5"
     id="polygon12" />
  <polygon
     fill="#000"
     fill-opacity="0.4"
     points="469,440 470,439 489,439 490,440 492,440 493,441 495,441 496,442 497,442 499,444 500,444 506,450 506,451 508,453 508,455 509,456 509,457 510,458 510,461 511,462 511,472 510,473 510,475 509,476 509,478 507,480 507,481 504,484 504,485 503,486 502,486 498,490 497,490 496,491 495,491 494,492 493,492 492,493 491,493 490,494 487,494 486,495 338,495 337,494 335,494 334,493 332,493 331,492 330,492 329,491 328,491 320,483 320,482 318,480 318,479 317,478 317,476 316,475 316,473 315,472 315,460 316,459 316,458 317,457 317,455 318,454 318,453 326,445 327,445 328,444 329,444 330,443 331,443 332,442 333,442 334,441 337,441 338,440"
     stroke="#000"
     stroke-width="5"
     id="polygon13" />
  <polygon
     fill="#000"
     fill-opacity="0.4"
     points="515,230 516,229 529,229 530,230 531,230 532,231 533,231 534,232 535,232 536,233 537,233 539,235 540,235 542,237 543,237 545,239 546,239 549,242 550,242 552,244 553,244 556,247 557,247 560,250 561,250 563,252 564,252 566,254 567,254 570,257 571,257 574,260 575,260 578,263 579,263 583,267 584,267 587,270 588,270 592,274 593,274 596,277 597,277 600,280 601,280 605,284 606,284 608,286 609,286 612,289 613,289 617,293 618,293 621,296 622,296 625,299 626,299 629,302 630,302 632,304 633,304 636,307 637,307 640,310 641,310 643,312 644,312 647,315 648,315 650,317 651,317 656,322 656,316 657,315 657,257 658,256 658,253 660,251 700,251 702,253 702,254 703,255 703,288 704,289 704,301 703,302 703,332 704,333 704,344 705,345 705,357 706,358 706,364 709,367 710,367 712,369 713,369 715,371 716,371 718,373 719,373 721,375 722,375 725,378 726,378 728,380 729,380 731,382 732,382 735,385 736,385 738,387 739,387 742,390 743,390 746,393 747,393 750,396 751,396 754,399 755,399 758,402 759,402 763,406 764,406 767,409 768,409 770,411 771,411 774,414 775,414 779,418 779,419 780,420 780,425 781,426 781,435 780,436 780,438 779,439 779,440 778,441 778,442 777,443 777,444 773,448 772,448 771,449 770,449 769,450 768,450 767,451 758,451 757,450 756,450 755,449 754,449 753,448 752,448 748,444 747,444 743,440 742,440 740,438 739,438 737,436 736,436 734,434 733,434 730,431 729,431 726,428 725,428 721,424 720,424 717,421 716,421 713,418 712,418 708,414 707,414 703,410 702,410 698,406 697,406 692,401 691,401 687,397 686,397 682,393 681,393 678,390 677,390 673,386 672,386 668,382 667,382 663,378 662,378 659,375 658,375 655,372 654,372 650,368 649,368 646,365 645,365 642,362 641,362 638,359 637,359 632,354 631,354 627,350 626,350 622,346 621,346 617,342 616,342 613,339 612,339 609,336 608,336 605,333 604,333 600,329 599,329 597,327 596,327 593,324 592,324 588,320 587,320 584,317 583,317 579,313 578,313 575,310 574,310 569,305 568,305 564,301 563,301 560,298 559,298 555,294 554,294 551,291 550,291 547,288 546,288 545,287 544,287 541,284 540,284 538,282 537,282 534,279 533,279 526,272 525,272 523,270 517,276 516,276 513,279 512,279 510,281 509,281 505,285 504,285 501,288 500,288 498,290 497,290 494,293 493,293 490,296 489,296 486,299 485,299 481,303 480,303 476,307 475,307 471,311 470,311 466,315 465,315 462,318 461,318 457,322 456,322 452,326 451,326 448,329 447,329 444,332 443,332 439,336 438,336 434,340 433,340 430,343 429,343 426,346 425,346 423,348 422,348 419,351 418,351 416,353 415,353 411,357 410,357 406,361 405,361 403,363 402,363 399,366 398,366 394,370 393,370 390,373 389,373 386,376 385,376 383,378 382,378 379,381 378,381 374,385 373,385 369,389 368,389 365,392 364,392 361,395 360,395 358,397 357,397 354,400 353,400 351,402 350,402 348,404 347,404 343,408 342,408 337,413 336,413 330,419 329,419 326,422 325,422 322,425 321,425 319,427 318,427 314,431 313,431 307,437 306,437 303,440 302,440 299,443 298,443 295,446 294,446 292,448 291,448 290,449 288,449 287,450 284,450 283,451 279,451 278,450 275,450 274,449 273,449 266,442 266,441 265,440 265,438 264,437 264,424 265,423 265,420 266,419 266,418 270,414 271,414 274,411 275,411 280,406 281,406 284,403 285,403 289,399 290,399 294,395 295,395 298,392 299,392 302,389 303,389 305,387 306,387 309,384 310,384 313,381 314,381 317,378 318,378 322,374 323,374 326,371 327,371 331,367 332,367 336,363 337,363 339,361 340,361 343,358 344,358 347,355 348,355 352,351 353,351 356,348 357,348 360,345 361,345 364,342 365,342 369,338 370,338 373,335 374,335 378,331 379,331 381,329 382,329 384,327 385,327 387,325 388,325 392,321 393,321 395,319 396,319 400,315 401,315 405,311 406,311 409,308 410,308 413,305 414,305 417,302 418,302 421,299 422,299 426,295 427,295 430,292 431,292 435,288 436,288 439,285 440,285 443,282 444,282 447,279 448,279 450,277 451,277 454,274 455,274 458,271 459,271 463,267 464,267 468,263 469,263 472,260 473,260 476,257 477,257 480,254 481,254 484,251 485,251 489,247 490,247 493,244 494,244 498,240 499,240 502,237 503,237 505,235 506,235 508,233 509,233 511,231 512,231 513,230"
     stroke="#000"
     stroke-width="5"
     id="polygon14" />
  <polygon
     fill="#000"
     fill-opacity="0.4"
     points="0,0 0,1023 1023,1023 1023,0"
     stroke="#000"
     stroke-width="5"
     id="polygon15" />
  <polygon
     fill="#000"
     fill-opacity="0.4"
     points="474,165 475,164 491,164 492,165 535,165 536,164 623,164 624,165 655,165 656,164 695,164 696,165 719,165 720,166 724,166 725,167 730,167 731,168 734,168 735,169 739,169 740,170 743,170 744,171 746,171 747,172 749,172 750,173 752,173 753,174 755,174 756,175 757,175 758,176 760,176 761,177 762,177 763,178 764,178 765,179 767,179 769,181 771,181 773,183 774,183 775,184 776,184 777,185 778,185 780,187 781,187 783,189 784,189 786,191 787,191 790,194 791,194 794,197 795,197 800,202 801,202 809,210 809,211 814,216 814,217 818,221 818,222 821,225 821,226 823,228 823,229 825,231 825,232 827,234 827,235 828,236 828,237 829,238 829,239 831,241 831,242 832,243 832,244 833,245 833,246 834,247 834,248 835,249 835,250 836,251 836,253 837,254 837,255 838,256 838,257 839,258 839,260 840,261 840,263 841,264 841,266 842,267 842,268 843,269 843,272 844,273 844,275 845,276 845,279 846,280 846,283 847,284 847,289 848,290 848,295 849,296 849,306 850,307 850,708 849,709 849,717 848,718 848,723 847,724 847,728 846,729 846,733 845,734 845,736 844,737 844,740 843,741 843,743 842,744 842,746 841,747 841,748 840,749 840,751 839,752 839,753 838,754 838,756 837,757 837,758 836,759 836,760 835,761 835,762 834,763 834,764 833,765 833,766 832,767 832,768 830,770 830,771 829,772 829,773 827,775 827,776 824,779 824,780 821,783 821,784 817,788 817,789 812,794 812,795 803,804 802,804 797,809 796,809 792,813 791,813 789,815 788,815 786,817 785,817 783,819 782,819 781,820 780,820 778,822 777,822 775,824 774,824 773,825 772,825 771,826 770,826 769,827 768,827 767,828 765,828 764,829 762,829 761,830 760,830 759,831 758,831 757,832 754,832 753,833 751,833 750,834 748,834 747,835 745,835 744,836 741,836 740,837 737,837 736,838 733,838 732,839 728,839 727,840 722,840 721,841 712,841 711,842 348,842 347,841 321,841 320,840 314,840 313,839 310,839 309,838 305,838 304,837 301,837 300,836 297,836 296,835 293,835 292,834 290,834 289,833 287,833 286,832 284,832 283,831 282,831 281,830 280,830 279,829 277,829 276,828 275,828 274,827 273,827 272,826 271,826 270,825 269,825 268,824 267,824 265,822 264,822 263,821 262,821 260,819 259,819 257,817 256,817 254,815 253,815 251,813 250,813 246,809 245,809 229,793 229,792 225,788 225,787 222,784 222,783 219,780 219,779 217,777 217,776 216,775 216,774 214,772 214,771 213,770 213,769 211,767 211,766 210,765 210,764 209,763 209,762 208,761 208,760 207,759 207,758 206,757 206,756 205,755 205,753 204,752 204,751 203,750 203,748 202,747 202,745 201,744 201,742 200,741 200,739 199,738 199,736 198,735 198,732 197,731 197,728 196,727 196,723 195,722 195,717 194,716 194,705 193,704 193,660 194,659 194,300 195,299 195,293 196,292 196,288 197,287 197,283 198,282 198,280 199,279 199,275 200,274 200,272 201,271 201,268 202,267 202,265 203,264 203,262 204,261 204,260 205,259 205,257 206,256 206,255 207,254 207,252 208,251 208,250 209,249 209,248 210,247 210,246 211,245 211,244 213,242 213,241 214,240 214,239 215,238 215,237 217,235 217,234 219,232 219,231 221,229 221,228 223,226 223,225 225,223 225,222 229,218 229,217 247,199 248,199 251,196 252,196 255,193 256,193 259,190 260,190 262,188 263,188 265,186 266,186 267,185 268,185 270,183 271,183 272,182 273,182 274,181 275,181 276,180 277,180 278,179 280,179 281,178 282,178 283,177 284,177 285,176 287,176 288,175 290,175 291,174 293,174 294,173 295,173 296,172 299,172 300,171 302,171 303,170 306,170 307,169 310,169 311,168 315,168 316,167 321,167 322,166 327,166 328,165"
     stroke="#000"
     stroke-width="5"
     id="polygon30" />
</svg>
