<?xml version="1.0" encoding="UTF-8" standalone="no"?>
<svg
   height="1024"
   version="1.2"
   width="1024"
   id="svg19"
   sodipodi:docname="buildingEnergy_white_on_transparent.svg"
   inkscape:version="1.3.2 (091e20ef0f, 2023-11-25)"
   xmlns:inkscape="http://www.inkscape.org/namespaces/inkscape"
   xmlns:sodipodi="http://sodipodi.sourceforge.net/DTD/sodipodi-0.dtd"
   xmlns="http://www.w3.org/2000/svg"
   xmlns:svg="http://www.w3.org/2000/svg">
  <sodipodi:namedview
     id="namedview19"
     pagecolor="#ffffff"
     bordercolor="#000000"
     borderopacity="0.25"
     inkscape:showpageshadow="2"
     inkscape:pageopacity="0.0"
     inkscape:pagecheckerboard="0"
     inkscape:deskcolor="#d1d1d1"
     inkscape:zoom="0.87402344"
     inkscape:cx="512"
     inkscape:cy="512"
     inkscape:window-width="1920"
     inkscape:window-height="1141"
     inkscape:window-x="0"
     inkscape:window-y="0"
     inkscape:window-maximized="1"
     inkscape:current-layer="svg19" />
  <defs
     id="defs1" />
  <polygon
     fill="#fff"
     fill-opacity="0.4"
     points="338,703 337,704 334,704 333,705 332,705 331,706 330,706 329,707 328,707 327,708 326,708 320,714 320,715 318,717 318,718 317,719 317,721 316,722 316,733 317,734 317,737 318,738 318,739 319,740 319,741 320,742 320,743 322,745 322,746 327,751 328,751 329,752 330,752 332,754 334,754 335,755 337,755 338,756 341,756 342,757 487,757 488,756 578,756 579,755 583,755 584,754 585,754 586,753 588,753 589,752 590,752 591,751 592,751 596,747 596,746 601,741 601,740 602,739 602,737 603,736 602,735 602,731 601,730 601,727 600,726 600,724 599,723 599,722 598,721 598,719 597,718 597,716 595,714 595,713 589,707 588,707 587,706 586,706 585,705 582,705 581,704 572,704 571,703"
     stroke="#fff"
     stroke-width="5"
     id="polygon2" />
  <polygon
     fill="#fff"
     fill-opacity="0.4"
     points="354,711 355,710 368,710 372,714 372,715 373,716 373,717 374,718 372,720 360,720 359,719 354,719 354,726 369,726 370,727 370,730 369,731 369,732 368,733 366,733 365,734 353,734 353,735 354,736 354,738 355,739 370,739 371,740 372,740 375,743 374,744 374,746 372,748 346,748 345,747 345,746 344,745 344,716 349,711"
     stroke="#fff"
     stroke-width="5"
     id="polygon3" />
  <polygon
     fill="#fff"
     fill-opacity="0.4"
     points="338,637 337,638 334,638 333,639 331,639 330,640 329,640 328,641 327,641 324,644 323,644 320,647 320,648 318,650 318,651 317,652 317,653 316,654 316,657 315,658 315,664 316,665 316,668 317,669 317,671 318,672 318,674 320,676 320,677 323,680 323,681 324,681 328,685 329,685 330,686 331,686 332,687 333,687 334,688 337,688 338,689 351,689 352,690 370,690 371,689 533,689 534,690 537,690 538,689 542,689 543,688 544,688 545,687 546,687 547,686 548,686 550,684 551,684 555,680 555,679 557,677 557,676 558,675 558,674 559,673 559,672 560,671 560,668 561,667 561,660 560,659 560,656 559,655 559,653 558,652 558,651 557,650 557,649 550,642 549,642 547,640 546,640 545,639 544,639 543,638 540,638 539,637"
     stroke="#fff"
     stroke-width="5"
     id="polygon4" />
  <polygon
     fill="#fff"
     fill-opacity="0.4"
     points="346,645 371,645 373,647 373,648 374,649 374,650 371,653 362,653 361,654 354,654 354,658 357,658 358,659 367,659 369,661 369,666 368,667 354,667 354,672 355,673 369,673 370,674 372,674 374,676 374,679 371,682 346,682 345,681 345,678 344,677 344,647"
     stroke="#fff"
     stroke-width="5"
     id="polygon5" />
  <polygon
     fill="#fff"
     fill-opacity="0.4"
     points="338,572 337,573 334,573 333,574 331,574 330,575 329,575 328,576 327,576 324,579 323,579 320,582 320,583 318,585 318,586 317,587 317,588 316,589 316,592 315,593 315,598 316,599 316,603 317,604 317,606 318,607 318,608 319,609 319,610 320,611 320,612 327,619 328,619 330,621 331,621 332,622 333,622 334,623 337,623 338,624 518,624 519,625 520,624 524,624 525,623 527,623 528,622 529,622 531,620 532,620 540,612 540,611 541,610 541,609 542,608 542,607 543,606 543,604 544,603 544,594 543,593 543,590 542,589 542,588 541,587 541,586 540,585 540,584 532,576 531,576 529,574 527,574 526,573 525,573 524,572"
     stroke="#fff"
     stroke-width="5"
     id="polygon6" />
  <polygon
     fill="#fff"
     fill-opacity="0.4"
     points="346,579 370,579 371,580 372,580 373,581 373,582 374,583 374,586 373,587 372,587 371,588 357,588 356,589 354,589 354,593 355,594 367,594 368,595 368,601 367,602 360,602 359,603 354,603 354,607 355,608 364,608 365,609 371,609 372,610 373,610 374,611 374,614 371,617 347,617 345,615 345,612 344,611 344,581"
     stroke="#fff"
     stroke-width="5"
     id="polygon7" />
  <polygon
     fill="#fff"
     fill-opacity="0.4"
     points="353,524 353,542 354,543 363,543 364,542 364,541 367,538 367,530 366,529 366,528 362,524"
     stroke="#fff"
     stroke-width="5"
     id="polygon8" />
  <polygon
     fill="#fff"
     fill-opacity="0.4"
     points="456,506 455,507 337,507 336,508 333,508 332,509 331,509 330,510 329,510 328,511 327,511 325,513 324,513 320,517 320,518 319,519 319,520 318,521 318,522 317,523 317,525 316,526 316,538 317,539 317,541 318,542 318,543 319,544 319,545 320,546 320,547 322,549 322,550 324,552 325,552 328,555 329,555 330,556 331,556 332,557 333,557 334,558 336,558 337,559 503,559 504,558 507,558 508,557 510,557 511,556 512,556 513,555 514,555 521,548 521,547 523,545 523,543 524,542 524,540 525,539 525,536 526,535 526,531 525,530 525,525 524,524 524,522 523,521 523,520 521,518 521,517 515,511 514,511 512,509 511,509 510,508 508,508 507,507 504,507 503,506"
     stroke="#fff"
     stroke-width="5"
     id="polygon9" />
  <polygon
     fill="#fff"
     fill-opacity="0.4"
     points="346,514 363,514 364,515 365,515 366,516 367,516 368,517 369,517 376,524 376,527 377,528 377,530 376,531 376,539 375,540 375,544 369,550 368,550 367,551 366,551 365,552 346,552 344,550 344,516"
     stroke="#fff"
     stroke-width="5"
     id="polygon10" />
  <polygon
     fill="#fff"
     fill-opacity="0.4"
     points="717,440 716,441 587,441 587,479 586,480 586,557 587,558 587,559 586,560 586,688 587,689 588,688 631,688 632,689 726,689 726,664 727,663 727,652 716,652 715,653 706,653 705,654 676,654 675,655 656,655 655,656 648,656 647,655 624,655 622,653 622,622 623,621 632,621 633,620 704,620 705,621 725,621 725,592 708,592 707,593 692,593 691,592 624,592 623,591 623,563 622,562 622,561 623,560 630,560 631,559 673,559 674,560 715,560 716,561 724,561 724,552 723,551 723,543 724,542 724,529 723,529 722,528 676,528 675,527 652,527 651,528 638,528 637,527 623,527 622,526 622,525 623,524 622,523 622,500 623,499 623,478 622,477 623,476 629,476 630,477 721,477 722,478 726,478 726,444 725,443 725,440"
     stroke="#fff"
     stroke-width="5"
     id="polygon11" />
  <polygon
     fill="#fff"
     fill-opacity="0.4"
     points="470,440 469,441 338,441 337,442 334,442 333,443 332,443 331,444 330,444 329,445 328,445 327,446 326,446 319,453 319,454 318,455 318,457 317,458 317,459 316,460 316,472 317,473 317,475 318,476 318,478 319,479 319,480 321,482 321,483 328,490 329,490 330,491 331,491 332,492 334,492 335,493 337,493 338,494 486,494 487,493 490,493 491,492 492,492 493,491 494,491 495,490 496,490 497,489 498,489 502,485 503,485 503,484 506,481 506,480 508,478 508,476 509,475 509,473 510,472 510,462 509,461 509,458 508,457 508,456 507,455 507,453 505,451 505,450 500,445 499,445 497,443 496,443 495,442 493,442 492,441 490,441 489,440"
     stroke="#fff"
     stroke-width="5"
     id="polygon12" />
  <polygon
     fill="#fff"
     fill-opacity="0.4"
     points="347,449 371,449 373,451 373,452 374,453 374,456 373,457 372,457 371,458 362,458 361,459 354,459 354,462 355,463 368,463 370,465 370,470 369,471 367,471 366,472 355,472 355,477 372,477 373,478 374,478 375,479 375,481 374,482 374,485 372,487 364,487 363,486 354,486 353,487 348,487 347,486 346,486 345,485 345,484 344,483 344,473 345,472 345,462 344,461 344,455 345,454 345,451"
     stroke="#fff"
     stroke-width="5"
     id="polygon13" />
  <polygon
     fill="#fff"
     fill-opacity="0.4"
     points="516,230 515,231 513,231 512,232 511,232 509,234 508,234 506,236 505,236 503,238 502,238 499,241 498,241 494,245 493,245 490,248 489,248 485,252 484,252 481,255 480,255 477,258 476,258 473,261 472,261 469,264 468,264 464,268 463,268 459,272 458,272 455,275 454,275 451,278 450,278 448,280 447,280 444,283 443,283 440,286 439,286 436,289 435,289 431,293 430,293 427,296 426,296 422,300 421,300 418,303 417,303 414,306 413,306 410,309 409,309 406,312 405,312 401,316 400,316 396,320 395,320 393,322 392,322 388,326 387,326 385,328 384,328 382,330 381,330 379,332 378,332 374,336 373,336 370,339 369,339 365,343 364,343 361,346 360,346 357,349 356,349 353,352 352,352 348,356 347,356 344,359 343,359 340,362 339,362 337,364 336,364 332,368 331,368 327,372 326,372 323,375 322,375 318,379 317,379 314,382 313,382 310,385 309,385 306,388 305,388 303,390 302,390 299,393 298,393 295,396 294,396 290,400 289,400 285,404 284,404 281,407 280,407 275,412 274,412 271,415 270,415 267,418 267,419 266,420 266,423 265,424 265,437 266,438 266,440 267,441 267,442 273,448 274,448 275,449 278,449 279,450 283,450 284,449 287,449 288,448 290,448 291,447 292,447 294,445 295,445 298,442 299,442 302,439 303,439 306,436 307,436 313,430 314,430 318,426 319,426 321,424 322,424 325,421 326,421 329,418 330,418 336,412 337,412 342,407 343,407 347,403 348,403 350,401 351,401 353,399 354,399 357,396 358,396 360,394 361,394 364,391 365,391 368,388 369,388 373,384 374,384 378,380 379,380 382,377 383,377 385,375 386,375 389,372 390,372 393,369 394,369 398,365 399,365 402,362 403,362 405,360 406,360 410,356 411,356 415,352 416,352 418,350 419,350 422,347 423,347 425,345 426,345 429,342 430,342 433,339 434,339 438,335 439,335 443,331 444,331 447,328 448,328 451,325 452,325 456,321 457,321 461,317 462,317 465,314 466,314 470,310 471,310 475,306 476,306 480,302 481,302 485,298 486,298 489,295 490,295 493,292 494,292 497,289 498,289 500,287 501,287 504,284 505,284 509,280 510,280 512,278 513,278 516,275 517,275 523,269 525,271 526,271 533,278 534,278 537,281 538,281 540,283 541,283 544,286 545,286 546,287 547,287 550,290 551,290 554,293 555,293 559,297 560,297 563,300 564,300 568,304 569,304 574,309 575,309 578,312 579,312 583,316 584,316 587,319 588,319 592,323 593,323 596,326 597,326 599,328 600,328 604,332 605,332 608,335 609,335 612,338 613,338 616,341 617,341 621,345 622,345 626,349 627,349 631,353 632,353 637,358 638,358 641,361 642,361 645,364 646,364 649,367 650,367 654,371 655,371 658,374 659,374 662,377 663,377 667,381 668,381 672,385 673,385 677,389 678,389 681,392 682,392 686,396 687,396 691,400 692,400 697,405 698,405 702,409 703,409 707,413 708,413 712,417 713,417 716,420 717,420 720,423 721,423 725,427 726,427 729,430 730,430 733,433 734,433 736,435 737,435 739,437 740,437 742,439 743,439 747,443 748,443 752,447 753,447 754,448 755,448 756,449 757,449 758,450 767,450 768,449 769,449 770,448 771,448 772,447 773,447 776,444 776,443 777,442 777,441 778,440 778,439 779,438 779,436 780,435 780,426 779,425 779,420 778,419 778,418 775,415 774,415 771,412 770,412 768,410 767,410 764,407 763,407 759,403 758,403 755,400 754,400 751,397 750,397 747,394 746,394 743,391 742,391 739,388 738,388 736,386 735,386 732,383 731,383 729,381 728,381 726,379 725,379 722,376 721,376 719,374 718,374 716,372 715,372 713,370 712,370 710,368 709,368 705,364 705,358 704,357 704,345 703,344 703,333 702,332 702,302 703,301 703,289 702,288 702,255 701,254 701,253 700,252 660,252 659,253 659,256 658,257 658,315 657,316 657,322 656,323 651,318 650,318 648,316 647,316 644,313 643,313 641,311 640,311 637,308 636,308 633,305 632,305 630,303 629,303 626,300 625,300 622,297 621,297 618,294 617,294 613,290 612,290 609,287 608,287 606,285 605,285 601,281 600,281 597,278 596,278 593,275 592,275 588,271 587,271 584,268 583,268 579,264 578,264 575,261 574,261 571,258 570,258 567,255 566,255 564,253 563,253 561,251 560,251 557,248 556,248 553,245 552,245 550,243 549,243 546,240 545,240 543,238 542,238 540,236 539,236 537,234 536,234 535,233 534,233 533,232 532,232 531,231 530,231 529,230"
     stroke="#fff"
     stroke-width="5"
     id="polygon17" />
  <polygon
     fill="#fff"
     fill-opacity="0.4"
     points="475,165 474,166 328,166 327,167 322,167 321,168 316,168 315,169 311,169 310,170 307,170 306,171 303,171 302,172 300,172 299,173 296,173 295,174 294,174 293,175 291,175 290,176 288,176 287,177 285,177 284,178 283,178 282,179 281,179 280,180 278,180 277,181 276,181 275,182 274,182 273,183 272,183 271,184 270,184 268,186 267,186 266,187 265,187 263,189 262,189 260,191 259,191 256,194 255,194 252,197 251,197 248,200 247,200 230,217 230,218 226,222 226,223 224,225 224,226 222,228 222,229 220,231 220,232 218,234 218,235 216,237 216,238 215,239 215,240 214,241 214,242 212,244 212,245 211,246 211,247 210,248 210,249 209,250 209,251 208,252 208,254 207,255 207,256 206,257 206,259 205,260 205,261 204,262 204,264 203,265 203,267 202,268 202,271 201,272 201,274 200,275 200,279 199,280 199,282 198,283 198,287 197,288 197,292 196,293 196,299 195,300 195,659 194,660 194,704 195,705 195,716 196,717 196,722 197,723 197,727 198,728 198,731 199,732 199,735 200,736 200,738 201,739 201,741 202,742 202,744 203,745 203,747 204,748 204,750 205,751 205,752 206,753 206,755 207,756 207,757 208,758 208,759 209,760 209,761 210,762 210,763 211,764 211,765 212,766 212,767 214,769 214,770 215,771 215,772 217,774 217,775 218,776 218,777 220,779 220,780 223,783 223,784 226,787 226,788 230,792 230,793 245,808 246,808 250,812 251,812 253,814 254,814 256,816 257,816 259,818 260,818 262,820 263,820 264,821 265,821 267,823 268,823 269,824 270,824 271,825 272,825 273,826 274,826 275,827 276,827 277,828 279,828 280,829 281,829 282,830 283,830 284,831 286,831 287,832 289,832 290,833 292,833 293,834 296,834 297,835 300,835 301,836 304,836 305,837 309,837 310,838 313,838 314,839 320,839 321,840 347,840 348,841 711,841 712,840 721,840 722,839 727,839 728,838 732,838 733,837 736,837 737,836 740,836 741,835 744,835 745,834 747,834 748,833 750,833 751,832 753,832 754,831 757,831 758,830 759,830 760,829 761,829 762,828 764,828 765,827 767,827 768,826 769,826 770,825 771,825 772,824 773,824 774,823 775,823 777,821 778,821 780,819 781,819 782,818 783,818 785,816 786,816 788,814 789,814 791,812 792,812 796,808 797,808 802,803 803,803 811,795 811,794 816,789 816,788 820,784 820,783 823,780 823,779 826,776 826,775 828,773 828,772 829,771 829,770 831,768 831,767 832,766 832,765 833,764 833,763 834,762 834,761 835,760 835,759 836,758 836,757 837,756 837,754 838,753 838,752 839,751 839,749 840,748 840,747 841,746 841,744 842,743 842,741 843,740 843,737 844,736 844,734 845,733 845,729 846,728 846,724 847,723 847,718 848,717 848,709 849,708 849,307 848,306 848,296 847,295 847,290 846,289 846,284 845,283 845,280 844,279 844,276 843,275 843,273 842,272 842,269 841,268 841,267 840,266 840,264 839,263 839,261 838,260 838,258 837,257 837,256 836,255 836,254 835,253 835,251 834,250 834,249 833,248 833,247 832,246 832,245 831,244 831,243 830,242 830,241 828,239 828,238 827,237 827,236 826,235 826,234 824,232 824,231 822,229 822,228 820,226 820,225 817,222 817,221 813,217 813,216 808,211 808,210 801,203 800,203 795,198 794,198 791,195 790,195 787,192 786,192 784,190 783,190 781,188 780,188 778,186 777,186 776,185 775,185 774,184 773,184 771,182 769,182 767,180 765,180 764,179 763,179 762,178 761,178 760,177 758,177 757,176 756,176 755,175 753,175 752,174 750,174 749,173 747,173 746,172 744,172 743,171 740,171 739,170 735,170 734,169 731,169 730,168 725,168 724,167 720,167 719,166 696,166 695,165 656,165 655,166 624,166 623,165 536,165 535,166 492,166 491,165"
     stroke="#fff"
     stroke-width="5"
     id="polygon18" />
  <polygon
     fill="#fff"
     fill-opacity="0.4"
     points="335,201 336,200 493,200 494,201 563,201 564,200 694,200 695,201 712,201 713,202 721,202 722,203 727,203 728,204 731,204 732,205 734,205 735,206 738,206 739,207 741,207 742,208 743,208 744,209 746,209 747,210 748,210 750,212 751,212 752,213 753,213 754,214 755,214 756,215 757,215 758,216 759,216 761,218 762,218 764,220 765,220 768,223 769,223 773,227 774,227 789,242 789,243 792,246 792,247 795,250 795,251 796,252 796,253 798,255 798,256 799,257 799,258 800,259 800,260 801,261 801,262 802,263 802,264 803,265 803,266 804,267 804,268 805,269 805,271 806,272 806,273 807,274 807,276 808,277 808,279 809,280 809,283 810,284 810,287 811,288 811,291 812,292 812,297 813,298 813,315 814,316 814,339 813,340 813,659 814,660 814,707 813,708 813,715 812,716 812,720 811,721 811,724 810,725 810,728 809,729 809,731 808,732 808,734 807,735 807,737 806,738 806,739 805,740 805,741 804,742 804,744 803,745 803,746 801,748 801,749 800,750 800,751 799,752 799,753 798,754 798,755 796,757 796,758 793,761 793,762 790,765 790,766 774,782 773,782 769,786 768,786 766,788 765,788 763,790 762,790 761,791 760,791 759,792 758,792 757,793 756,793 755,794 754,794 753,795 751,795 750,796 748,796 747,797 746,797 745,798 743,798 742,799 741,799 740,800 738,800 737,801 735,801 734,802 732,802 731,803 728,803 727,804 723,804 722,805 717,805 716,806 359,806 358,807 340,807 339,806 324,806 323,805 319,805 318,804 313,804 312,803 309,803 308,802 306,802 305,801 303,801 302,800 300,800 299,799 298,799 297,798 295,798 294,797 293,797 292,796 291,796 290,795 289,795 288,794 287,794 286,793 285,793 283,791 282,791 281,790 280,790 278,788 277,788 276,787 275,787 272,784 271,784 268,781 267,781 257,771 257,770 253,766 253,765 251,763 251,762 249,760 249,759 247,757 247,756 245,754 245,753 243,751 243,750 242,749 242,748 241,747 241,746 240,745 240,744 239,743 239,742 238,741 238,739 237,738 237,737 236,736 236,734 235,733 235,730 234,729 234,726 233,725 233,722 232,721 232,716 231,715 231,709 230,708 230,304 231,303 231,295 232,294 232,290 233,289 233,286 234,285 234,282 235,281 235,279 236,278 236,276 237,275 237,272 238,271 238,270 239,269 239,267 240,266 240,265 241,264 241,263 242,262 242,261 243,260 243,259 244,258 244,257 245,256 245,255 247,253 247,252 248,251 248,250 250,248 250,247 253,244 253,243 258,238 258,237 270,225 271,225 274,222 275,222 278,219 279,219 281,217 282,217 283,216 284,216 285,215 286,215 288,213 289,213 290,212 291,212 292,211 293,211 294,210 295,210 296,209 298,209 299,208 300,208 301,207 303,207 304,206 307,206 308,205 310,205 311,204 314,204 315,203 319,203 320,202 324,202 325,201"
     stroke="#fff"
     stroke-width="5"
     id="polygon19" />
</svg>
