<?xml version="1.0" encoding="utf-8" ?>
<svg baseProfile="tiny" height="653" version="1.2" width="648" xmlns="http://www.w3.org/2000/svg" xmlns:ev="http://www.w3.org/2001/xml-events" xmlns:xlink="http://www.w3.org/1999/xlink"><defs /><polygon fill="#fff" fill-opacity="0.4" points="525,529 524,530 524,531 523,532 523,533 522,534 522,535 520,537 520,538 519,539 519,540 518,541 518,542 516,544 516,545 515,546 515,547 514,548 514,549 513,550 513,551 512,552 512,554 511,555 511,557 512,558 512,562 513,563 513,564 517,568 519,568 520,569 526,569 527,568 528,568 529,567 530,567 532,565 533,565 534,564 534,563 536,561 536,560 537,559 537,554 536,553 536,551 535,550 535,549 534,548 534,546 532,544 532,543 531,542 531,541 530,540 530,539 529,538 529,537 528,536 528,535 527,534 527,533 526,532 526,531 525,530" stroke="#fff" stroke-width="5" /><polygon fill="#fff" fill-opacity="0.4" points="216,402 215,403 214,403 213,404 212,404 211,405 210,405 209,406 207,406 206,407 205,407 204,408 203,408 202,409 201,409 200,410 198,410 196,412 195,412 194,413 193,413 192,414 191,414 190,415 189,415 188,416 187,416 186,417 185,417 184,418 183,418 181,420 183,422 183,423 188,428 188,429 197,438 198,438 204,444 205,444 208,447 209,447 211,449 212,449 215,452 216,452 218,454 219,454 221,456 222,456 223,457 224,457 226,459 227,459 229,461 230,461 231,462 232,462 233,463 234,463 235,464 236,464 237,465 239,465 240,466 241,466 242,467 243,467 244,468 246,468 247,469 248,469 249,470 251,470 252,471 254,471 255,472 257,472 258,473 260,473 261,474 262,474 263,475 265,475 266,476 268,476 269,477 271,477 272,478 275,478 276,479 279,479 279,478 275,474 274,474 271,471 270,471 245,446 245,445 241,441 241,440 238,437 238,436 236,434 236,433 234,431 234,430 232,428 232,427 230,425 230,424 228,422 228,421 226,419 226,418 225,417 225,416 224,415 224,414 222,412 222,410 221,409 221,408 220,407 220,406 219,405 219,403 218,402" stroke="#fff" stroke-width="5" /><polygon fill="#fff" fill-opacity="0.4" points="339,390 338,391 337,391 336,392 335,392 329,398 329,399 328,400 328,401 327,402 327,403 326,404 326,405 325,406 325,407 324,408 324,409 323,410 323,411 322,412 322,413 321,414 321,415 320,416 320,418 319,419 319,421 318,422 318,423 317,424 317,426 316,427 316,429 315,430 315,433 314,434 314,437 313,438 313,441 312,442 312,449 311,450 311,458 310,459 310,479 309,480 309,484 310,484 311,485 312,484 320,484 321,483 329,483 329,482 330,481 330,458 331,457 331,448 332,447 332,439 333,438 333,434 334,433 334,429 335,428 335,426 336,425 336,423 337,422 337,421 338,420 338,418 339,417 339,415 340,414 340,413 341,412 341,411 342,410 342,409 343,408 343,407 344,406 344,405 346,403 346,400 347,399 347,395 346,394 346,393 343,390" stroke="#fff" stroke-width="5" /><polygon fill="#fff" fill-opacity="0.4" points="286,388 285,389 276,389 275,390 267,390 266,391 260,391 259,392 253,392 252,393 249,393 248,394 244,394 243,395 238,395 237,396 234,396 235,397 235,399 236,400 236,402 237,403 237,404 238,405 238,406 239,407 239,408 240,409 240,410 241,411 241,412 243,414 243,415 245,417 245,418 247,420 247,421 249,423 249,424 251,426 251,427 254,430 254,431 257,434 257,435 262,440 262,441 277,456 278,456 283,461 284,461 286,463 287,463 289,465 290,465 293,468 293,465 294,464 294,444 293,443 293,388" stroke="#fff" stroke-width="5" /><polygon fill="#fff" fill-opacity="0.4" points="215,317 215,328 216,329 216,337 217,338 217,342 218,343 218,348 219,349 219,353 220,354 220,358 221,359 221,363 222,364 222,367 223,368 223,371 224,372 224,374 225,375 225,377 226,378 226,380 229,380 230,379 232,379 233,378 236,378 237,377 240,377 241,376 246,376 247,375 254,375 255,374 263,374 264,373 271,373 272,372 290,372 291,371 292,372 293,371 293,323 292,322 292,319 293,318 246,318 245,317" stroke="#fff" stroke-width="5" /><polygon fill="#fff" fill-opacity="0.4" points="140,317 140,329 141,330 141,335 142,336 142,341 143,342 143,345 144,346 144,350 145,351 145,354 146,355 146,357 147,358 147,361 148,362 148,364 149,365 149,367 150,368 150,369 151,370 151,372 152,373 152,374 153,375 153,376 154,377 154,378 155,379 155,380 156,381 156,383 157,384 157,385 158,386 158,387 159,388 159,389 161,391 161,392 162,393 162,394 163,395 163,396 164,397 164,398 166,400 166,401 168,403 168,404 171,407 173,405 174,405 176,403 177,403 179,401 180,401 181,400 182,400 183,399 184,399 186,397 187,397 188,396 189,396 190,395 191,395 192,394 193,394 194,393 195,393 196,392 197,392 198,391 199,391 200,390 202,390 204,388 205,388 206,387 207,387 208,386 209,386 210,385 211,385 211,384 210,383 210,382 209,381 209,379 208,378 208,376 207,375 207,373 206,372 206,369 205,368 205,366 204,365 204,361 203,360 203,357 202,356 202,352 201,351 201,346 200,345 200,338 199,337 199,327 198,326 198,317 194,317 193,318 153,318 152,317" stroke="#fff" stroke-width="5" /><polygon fill="#fff" fill-opacity="0.4" points="230,232 230,234 229,235 229,236 228,237 228,238 227,239 227,241 226,242 226,244 225,245 225,248 224,249 224,252 223,253 223,256 222,257 222,260 221,261 221,264 220,265 220,268 219,269 219,273 218,274 218,278 217,279 217,285 216,286 216,295 215,296 215,300 294,300 293,299 293,245 292,244 286,244 285,243 280,243 279,242 273,242 272,241 268,241 267,240 263,240 262,239 259,239 258,238 255,238 254,237 251,237 250,236 246,236 245,235 242,235 241,234 238,234 237,233 235,233 234,232" stroke="#fff" stroke-width="5" /><polygon fill="#fff" fill-opacity="0.4" points="504,211 503,212 502,212 501,213 500,213 498,215 496,215 495,216 494,216 493,217 492,217 491,218 490,218 489,219 487,219 486,220 485,220 484,221 482,221 481,222 479,222 478,223 476,223 475,224 472,224 471,225 469,225 468,226 465,226 464,227 462,227 461,228 459,228 458,229 455,229 454,230 452,230 451,231 449,231 448,232 446,232 445,233 442,233 441,234 439,234 438,235 437,235 436,236 434,236 433,237 431,237 430,238 428,238 427,239 425,239 424,240 422,240 421,241 420,241 419,242 417,242 416,243 414,243 413,244 412,244 411,245 409,245 408,246 406,246 405,247 404,247 403,248 401,248 400,249 399,249 398,250 397,250 396,251 395,251 394,252 393,252 392,253 391,253 390,254 389,254 388,255 387,255 386,256 385,256 383,258 382,258 381,259 380,259 378,261 377,261 376,262 375,262 374,263 373,263 371,265 370,265 368,267 367,267 365,269 364,269 361,272 360,272 358,274 357,274 353,278 352,278 340,290 340,291 337,294 337,295 334,298 334,299 332,301 332,302 331,303 331,304 329,306 329,307 328,308 328,309 327,310 327,311 326,312 326,314 325,315 325,316 324,317 324,319 323,320 323,322 322,323 322,326 321,327 321,331 320,332 320,339 319,340 319,359 320,360 320,365 321,366 321,369 322,370 322,372 323,373 323,375 324,376 324,377 325,378 325,379 326,380 326,381 327,382 327,383 330,386 334,382 334,381 337,378 337,377 340,374 340,373 346,367 346,366 354,358 354,357 360,351 360,350 365,345 365,344 374,335 374,334 376,332 376,331 373,331 372,330 371,330 369,328 368,328 365,325 365,324 363,322 363,321 362,320 362,316 364,314 367,314 368,315 369,315 370,316 371,316 374,319 375,319 377,321 378,321 380,323 381,323 382,324 384,324 386,322 387,322 387,321 388,320 389,320 401,308 401,307 412,296 413,296 421,288 422,288 427,283 428,283 431,280 432,280 437,275 438,275 440,273 441,273 442,272 443,272 445,274 445,275 446,276 446,281 445,282 445,283 423,305 423,306 409,320 409,321 402,328 402,329 395,336 395,337 392,340 392,341 388,345 388,346 384,350 384,351 381,354 381,355 376,360 376,361 373,364 373,365 370,368 370,369 368,371 368,372 367,373 367,374 366,375 366,376 365,377 365,378 364,379 364,380 363,381 363,382 362,383 362,384 360,386 360,388 358,390 358,391 357,392 357,393 356,394 356,396 354,398 354,399 353,400 353,401 351,403 351,404 350,405 351,406 351,407 353,407 354,408 355,408 356,409 357,409 358,410 359,410 360,411 362,411 363,412 365,412 366,413 371,413 372,414 387,414 388,413 395,413 396,412 400,412 401,411 403,411 404,410 406,410 407,409 409,409 410,408 411,408 412,407 414,407 415,406 416,406 417,405 418,405 419,404 420,404 422,402 423,402 425,400 426,400 428,398 429,398 431,396 432,396 432,395 433,394 434,394 434,393 437,390 438,390 440,388 440,387 445,382 445,381 449,377 449,376 452,373 452,372 454,370 454,369 457,366 457,365 459,363 459,362 460,361 460,360 461,359 461,358 463,356 463,355 464,354 464,353 465,352 465,351 466,350 466,349 467,348 467,347 468,346 468,345 469,344 469,342 470,341 470,340 471,339 471,337 472,336 472,335 473,334 473,333 474,332 474,330 475,329 475,327 476,326 476,324 477,323 477,321 478,320 478,318 479,317 479,316 480,315 480,313 481,312 481,310 482,309 482,307 483,306 483,304 484,303 484,300 485,299 485,297 486,296 486,293 487,292 487,289 488,288 488,285 489,284 489,281 490,280 490,278 491,277 491,274 492,273 492,269 493,268 493,266 494,265 494,262 495,261 495,258 496,257 496,255 497,254 497,251 498,250 498,247 499,246 499,242 500,241 500,237 501,236 501,233 502,232 502,227 503,226 503,220 504,219" stroke="#fff" stroke-width="5" /><polygon fill="#fff" fill-opacity="0.4" points="404,350 405,349 411,349 412,350 415,350 419,354 419,355 420,356 420,359 419,360 419,361 416,364 414,364 413,365 394,365 393,364 389,364 388,363 387,363 386,362 385,362 383,360 383,359 388,354 389,354 391,352 392,352 393,351 395,351 396,350" stroke="#fff" stroke-width="5" /><polygon fill="#fff" fill-opacity="0.4" points="175,209 173,211 173,213 172,214 172,215 171,216 171,217 170,218 170,219 168,221 168,222 166,224 166,225 164,227 164,228 163,229 163,230 162,231 162,232 160,234 160,235 159,236 159,237 158,238 158,239 157,240 157,242 156,243 156,244 155,245 155,246 154,247 154,249 153,250 153,251 152,252 152,254 151,255 151,257 150,258 150,260 149,261 149,263 148,264 148,266 147,267 147,269 146,270 146,273 145,274 145,277 144,278 144,282 143,283 143,287 142,288 142,293 141,294 141,301 155,301 156,300 199,300 199,287 200,286 200,278 201,277 201,272 202,271 202,266 203,265 203,261 204,260 204,256 205,255 205,252 206,251 206,249 207,248 207,246 208,245 208,243 209,242 209,240 210,239 210,237 211,236 211,234 212,233 212,231 213,230 213,228 214,227 214,225 212,225 211,224 209,224 208,223 207,223 206,222 204,222 203,221 202,221 201,220 200,220 199,219 198,219 197,218 195,218 194,217 193,217 192,216 191,216 190,215 189,215 188,214 187,214 185,212 184,212 183,211 182,211 181,210 179,210 178,209" stroke="#fff" stroke-width="5" /><polygon fill="#fff" fill-opacity="0.4" points="421,185 420,186 419,186 416,189 416,190 415,191 415,202 416,203 416,207 417,208 417,209 419,211 420,211 421,212 425,212 426,211 427,211 428,210 428,209 430,207 430,205 431,204 431,192 430,191 430,189 427,186 425,186 424,185" stroke="#fff" stroke-width="5" /><polygon fill="#fff" fill-opacity="0.4" points="380,169 379,170 378,170 375,173 374,173 369,178 369,179 367,181 367,187 368,188 368,189 371,192 372,192 373,193 375,193 376,192 378,192 380,190 381,190 387,184 387,183 389,181 389,180 390,179 390,177 389,176 389,175 388,174 388,173 384,169" stroke="#fff" stroke-width="5" /><polygon fill="#fff" fill-opacity="0.4" points="463,168 462,169 461,169 459,171 459,172 458,173 458,174 457,175 457,178 458,179 458,180 463,185 463,186 468,191 469,191 470,192 472,192 473,193 474,193 475,192 476,192 479,189 479,188 480,187 480,182 479,181 479,180 478,179 478,178 476,176 476,175 471,170 470,170 468,168" stroke="#fff" stroke-width="5" /><polygon fill="#fff" fill-opacity="0.4" points="293,156 290,159 289,159 286,162 285,162 283,164 282,164 276,170 275,170 263,182 263,183 262,184 261,184 259,186 259,187 252,194 252,195 249,198 249,199 246,202 246,203 245,204 245,205 243,207 243,208 242,209 242,210 240,212 240,213 239,214 239,215 238,216 238,217 239,217 240,218 243,218 244,219 247,219 248,220 251,220 252,221 256,221 257,222 261,222 262,223 266,223 267,224 272,224 273,225 281,225 282,226 294,226 294,224 293,223" stroke="#fff" stroke-width="5" /><polygon fill="#fff" fill-opacity="0.4" points="277,144 276,145 271,145 270,146 267,146 266,147 263,147 262,148 260,148 259,149 257,149 256,150 254,150 253,151 252,151 251,152 249,152 248,153 246,153 245,154 244,154 243,155 242,155 241,156 240,156 239,157 238,157 237,158 236,158 235,159 234,159 233,160 232,160 231,161 230,161 229,162 228,162 227,163 226,163 225,164 224,164 223,165 222,165 220,167 219,167 217,169 216,169 214,171 213,171 210,174 209,174 204,179 203,179 190,192 190,193 189,194 190,194 194,198 195,198 197,200 198,200 200,202 201,202 202,203 203,203 204,204 205,204 206,205 207,205 208,206 209,206 210,207 211,207 212,208 213,208 214,209 215,209 216,210 218,210 219,211 222,211 223,210 223,209 225,207 225,206 226,205 226,204 227,203 227,202 228,201 228,200 229,199 229,198 231,196 231,195 233,193 233,192 237,188 237,187 241,183 241,182 246,177 246,176 266,156 267,156 279,144 280,144" stroke="#fff" stroke-width="5" /><polygon fill="#fff" fill-opacity="0.4" points="479,129 478,130 476,130 473,133 473,135 472,136 472,140 473,141 473,142 477,146 481,146 482,147 486,147 487,146 490,146 491,145 492,145 495,142 495,141 496,140 496,135 495,134 495,133 492,130 490,130 489,129" stroke="#fff" stroke-width="5" /><polygon fill="#fff" fill-opacity="0.4" points="356,129 355,130 353,130 349,134 349,136 348,137 348,138 349,139 349,141 354,146 356,146 357,147 364,147 365,146 368,146 372,142 372,139 373,138 373,135 372,134 372,133 369,130 368,130 367,129" stroke="#fff" stroke-width="5" /><polygon fill="#fff" fill-opacity="0.4" points="421,101 420,102 414,102 413,103 411,103 410,104 408,104 407,105 406,105 405,106 404,106 400,110 399,110 396,113 396,114 393,117 393,118 392,119 392,120 390,122 390,124 389,125 389,127 388,128 388,145 389,146 389,147 390,148 390,150 391,151 391,152 392,153 392,154 394,156 394,157 397,160 397,161 401,165 402,165 403,166 404,166 405,167 406,167 407,168 408,168 409,169 410,169 411,170 413,170 414,171 419,171 420,172 424,172 425,171 431,171 432,170 434,170 435,169 437,169 438,168 439,168 440,167 441,167 443,165 444,165 452,157 452,156 454,154 454,153 455,152 455,150 456,149 456,147 457,146 457,142 458,141 458,131 457,130 457,126 456,125 456,123 455,122 455,121 454,120 454,119 453,118 453,117 451,115 451,114 444,107 443,107 442,106 441,106 440,105 439,105 438,104 436,104 435,103 433,103 432,102 427,102 426,101" stroke="#fff" stroke-width="5" /><polygon fill="#fff" fill-opacity="0.4" points="282,86 281,87 274,87 273,88 267,88 266,89 263,89 262,90 258,90 257,91 254,91 253,92 251,92 250,93 247,93 246,94 244,94 243,95 241,95 240,96 237,96 236,97 234,97 233,98 231,98 230,99 228,99 227,100 226,100 225,101 223,101 222,102 221,102 220,103 219,103 218,104 216,104 215,105 214,105 213,106 212,106 211,107 210,107 209,108 208,108 207,109 206,109 205,110 204,110 203,111 202,111 201,112 200,112 198,114 197,114 195,116 194,116 193,117 192,117 190,119 189,119 187,121 186,121 184,123 183,123 180,126 179,126 177,128 176,128 172,132 171,132 163,140 162,140 146,156 146,157 139,164 139,165 134,170 134,171 130,175 130,176 127,179 127,180 124,183 124,184 122,186 122,187 120,189 120,190 118,192 118,193 117,194 117,195 115,197 115,198 114,199 114,200 112,202 112,203 111,204 111,205 110,206 110,207 109,208 109,209 108,210 108,211 107,212 107,213 106,214 106,215 105,216 105,217 104,218 104,219 103,220 103,221 102,222 102,224 101,225 101,226 100,227 100,229 99,230 99,231 98,232 98,234 97,235 97,236 96,237 96,239 95,240 95,242 94,243 94,245 93,246 93,248 92,249 92,252 91,253 91,255 90,256 90,259 89,260 89,263 88,264 88,268 87,269 87,273 86,274 86,280 85,281 85,287 84,288 84,295 83,296 83,304 82,305 82,329 83,330 83,341 84,342 84,348 85,349 85,354 86,355 86,359 87,360 87,364 88,365 88,368 89,369 89,371 90,372 90,375 91,376 91,378 92,379 92,381 93,382 93,384 94,385 94,386 95,387 95,389 96,390 96,391 97,392 97,393 98,394 98,395 99,396 99,397 100,398 100,400 101,401 101,402 102,403 102,404 103,405 103,406 104,407 104,408 105,409 105,410 106,411 106,412 108,414 108,415 109,416 109,417 110,418 110,419 112,421 112,422 113,423 113,424 115,426 115,427 116,428 116,429 119,432 119,433 121,435 121,436 124,439 124,440 126,442 126,443 130,447 130,448 133,451 133,452 137,456 137,457 158,478 159,478 165,484 166,484 171,489 172,489 175,492 176,492 178,494 179,494 182,497 183,497 185,499 186,499 188,501 189,501 190,502 191,502 193,504 194,504 196,506 197,506 199,508 200,508 201,509 202,509 204,511 205,511 206,512 207,512 208,513 209,513 210,514 211,514 212,515 213,515 214,516 215,516 216,517 217,517 218,518 219,518 220,519 222,519 223,520 224,520 225,521 227,521 228,522 229,522 230,523 232,523 233,524 234,524 235,525 237,525 238,526 240,526 241,527 243,527 244,528 247,528 248,529 251,529 252,530 254,530 255,531 258,531 259,532 262,532 263,533 267,533 268,534 273,534 274,535 280,535 281,536 290,536 291,537 325,537 326,536 336,536 337,535 345,535 346,534 351,534 352,533 358,533 359,532 363,532 364,531 368,531 369,530 371,530 372,529 375,529 376,528 378,528 379,527 381,527 382,526 384,526 385,525 387,525 388,524 390,524 391,523 392,523 393,522 395,522 396,521 398,521 399,520 400,520 401,519 402,519 403,518 404,518 405,517 406,517 407,516 408,516 409,515 410,515 411,514 412,514 413,513 414,513 415,512 416,512 417,511 418,511 419,510 420,510 422,508 423,508 424,507 425,507 427,505 428,505 429,504 430,504 432,502 433,502 434,501 435,501 437,499 438,499 440,497 441,497 444,494 445,494 448,491 449,491 453,487 454,487 459,482 460,482 477,465 477,464 483,458 483,457 489,451 489,450 491,448 491,447 494,444 494,443 496,441 496,440 498,438 498,437 500,435 500,434 502,432 502,431 504,429 504,428 505,427 505,426 506,425 506,424 508,422 508,421 510,419 510,418 511,417 511,416 512,415 512,414 513,413 513,412 514,411 514,410 515,409 515,408 516,407 516,406 517,405 517,404 518,403 518,402 519,401 519,399 520,398 520,397 521,396 521,395 522,394 522,392 523,391 523,389 524,388 524,386 525,385 525,383 526,382 526,380 527,379 527,377 528,376 528,374 529,373 529,371 530,370 530,366 531,365 531,362 532,361 532,357 533,356 533,353 534,352 534,348 535,347 535,342 536,341 536,332 537,331 537,322 538,321 538,313 537,312 537,311 535,309 534,309 533,308 531,308 530,307 514,307 513,308 512,308 511,309 510,309 509,310 508,310 508,311 507,312 507,315 506,316 506,327 505,328 505,335 504,336 504,340 503,341 503,345 502,346 502,350 501,351 501,354 500,355 500,358 499,359 499,361 498,362 498,365 497,366 497,368 496,369 496,371 495,372 495,374 494,375 494,377 493,378 493,379 492,380 492,382 491,383 491,384 490,385 490,387 489,388 489,389 488,390 488,391 487,392 487,393 486,394 486,395 485,396 485,397 484,398 484,399 483,400 483,401 482,402 482,403 481,404 481,405 479,407 479,408 478,409 478,410 476,412 476,413 475,414 475,415 473,417 473,418 471,420 471,421 469,423 469,424 467,426 467,427 464,430 464,431 460,435 460,436 452,444 452,445 439,458 438,458 432,464 431,464 428,467 427,467 424,470 423,470 421,472 420,472 417,475 416,475 414,477 413,477 412,478 411,478 409,480 408,480 406,482 405,482 404,483 403,483 402,484 401,484 400,485 399,485 398,486 397,486 395,488 394,488 393,489 391,489 390,490 389,490 388,491 387,491 386,492 384,492 383,493 382,493 381,494 379,494 378,495 377,495 376,496 374,496 373,497 371,497 370,498 367,498 366,499 363,499 362,500 359,500 358,501 355,501 354,502 351,502 350,503 347,503 346,504 341,504 340,505 335,505 334,506 325,506 324,507 299,507 298,506 288,506 287,505 281,505 280,504 276,504 275,503 271,503 270,502 267,502 266,501 264,501 263,500 260,500 259,499 256,499 255,498 252,498 251,497 249,497 248,496 247,496 246,495 244,495 243,494 242,494 241,493 240,493 239,492 237,492 236,491 235,491 234,490 232,490 231,489 230,489 229,488 228,488 227,487 226,487 225,486 224,486 223,485 222,485 221,484 220,484 219,483 218,483 217,482 216,482 214,480 213,480 212,479 211,479 209,477 208,477 206,475 205,475 203,473 202,473 199,470 198,470 196,468 195,468 191,464 190,464 186,460 185,460 180,455 179,455 167,443 167,442 160,435 160,434 155,429 155,428 152,425 152,424 149,421 149,420 147,418 147,417 145,415 145,414 144,413 144,412 143,411 143,410 141,408 141,407 140,406 140,405 138,403 138,402 136,400 136,399 135,398 135,397 134,396 134,395 133,394 133,393 132,392 132,391 131,390 131,389 130,388 130,386 129,385 129,384 128,383 128,381 127,380 127,379 126,378 126,376 125,375 125,373 124,372 124,370 123,369 123,368 122,367 122,364 121,363 121,360 120,359 120,356 119,355 119,352 118,351 118,346 117,345 117,341 116,340 116,335 115,334 115,327 114,326 114,302 115,301 115,293 116,292 116,287 117,286 117,282 118,281 118,277 119,276 119,272 120,271 120,268 121,267 121,265 122,264 122,261 123,260 123,258 124,257 124,254 125,253 125,251 126,250 126,248 127,247 127,246 128,245 128,243 129,242 129,241 130,240 130,238 131,237 131,236 132,235 132,234 133,233 133,232 134,231 134,230 135,229 135,228 136,227 136,226 137,225 137,224 138,223 138,222 139,221 139,220 140,219 140,218 142,216 142,215 143,214 143,213 145,211 145,210 146,209 146,208 148,206 148,205 149,204 149,203 151,201 151,200 153,198 153,197 156,194 156,193 161,188 161,187 165,183 165,182 177,170 177,169 179,167 180,167 187,160 188,160 194,154 195,154 199,150 200,150 203,147 204,147 205,146 206,146 208,144 209,144 211,142 212,142 213,141 214,141 216,139 217,139 218,138 219,138 220,137 221,137 222,136 223,136 224,135 225,135 226,134 227,134 228,133 229,133 230,132 232,132 233,131 234,131 235,130 237,130 238,129 239,129 240,128 242,128 243,127 244,127 245,126 247,126 248,125 250,125 251,124 253,124 254,123 257,123 258,122 261,122 262,121 265,121 266,120 269,120 270,119 273,119 274,118 279,118 280,117 287,117 288,116 297,116 298,115 301,115 302,114 304,114 306,112 306,111 307,110 307,92 306,91 306,89 305,88 305,87 304,86" stroke="#fff" stroke-width="5" /><polygon fill="#fff" fill-opacity="0.4" points="471,82 469,84 468,84 457,95 457,99 458,100 458,102 462,106 463,106 464,107 465,106 468,106 470,104 471,104 477,98 477,97 479,95 479,94 480,93 480,88 479,87 479,86 476,83 474,83 473,82" stroke="#fff" stroke-width="5" /><polygon fill="#fff" fill-opacity="0.4" points="375,82 374,83 372,83 368,87 368,89 367,90 367,91 368,92 368,93 369,94 369,95 370,96 370,97 373,100 373,101 375,103 376,103 378,105 379,105 380,106 382,106 383,105 384,105 389,100 389,99 390,98 390,96 389,95 389,93 387,91 387,90 382,85 381,85 379,83 377,83 376,82" stroke="#fff" stroke-width="5" /><polygon fill="#fff" fill-opacity="0.4" points="420,61 416,65 416,67 415,68 415,78 416,79 416,83 417,84 417,85 418,86 419,86 420,87 426,87 430,83 430,81 431,80 431,67 430,66 430,64 427,61" stroke="#fff" stroke-width="5" /></svg>