<?xml version="1.0" encoding="utf-8" ?>
<svg baseProfile="tiny" height="1024" version="1.2" width="1024" xmlns="http://www.w3.org/2000/svg" xmlns:ev="http://www.w3.org/2001/xml-events" xmlns:xlink="http://www.w3.org/1999/xlink"><defs /><polygon fill="#fff" fill-opacity="0.4" points="692,689 691,690 689,690 688,691 687,691 686,692 685,692 680,697 680,698 678,700 678,702 677,703 677,704 676,705 676,711 675,712 675,723 676,724 676,733 677,734 677,738 678,739 678,741 679,742 679,743 680,744 680,745 682,747 682,748 684,750 685,750 686,751 687,751 688,752 690,752 691,753 701,753 702,752 704,752 706,750 707,750 710,747 710,746 711,745 711,744 712,743 712,741 713,740 713,735 714,734 714,706 713,705 713,702 712,701 712,699 711,698 711,697 707,693 706,693 705,692 704,692 703,691 702,691 701,690 698,690 697,689" stroke="#fff" stroke-width="5" /><polygon fill="#fff" fill-opacity="0.4" points="638,317 637,318 589,318 588,319 585,319 585,327 584,328 584,347 583,348 583,381 582,382 582,412 581,413 581,433 583,435 585,435 586,436 587,436 588,437 589,437 590,438 591,438 592,439 593,439 606,452 607,452 610,455 611,455 612,456 612,457 611,458 605,458 604,457 602,457 601,456 600,456 599,455 598,455 597,454 596,454 594,452 593,452 591,450 590,450 588,448 587,448 585,446 584,446 582,444 581,444 579,442 578,442 576,440 575,440 573,438 572,438 570,436 569,436 568,435 567,435 566,434 565,434 564,433 563,433 562,432 561,432 559,430 558,430 557,429 556,429 555,428 554,428 552,426 551,426 549,424 548,424 546,422 545,422 544,421 543,421 542,420 541,420 539,418 538,418 536,416 535,416 534,415 533,415 531,413 530,413 529,412 528,412 526,410 525,410 523,408 522,408 521,407 520,407 518,405 517,405 514,402 513,402 511,400 510,400 509,399 508,399 506,397 505,397 504,396 503,396 502,395 501,395 500,394 499,394 498,393 497,393 496,392 495,392 493,390 492,390 491,389 490,389 489,388 488,388 486,386 485,386 484,385 483,385 481,383 480,383 479,382 478,382 476,380 475,380 473,378 472,378 471,377 469,377 469,381 470,382 470,394 469,395 469,424 470,425 470,435 468,437 465,437 464,436 463,436 462,435 461,435 459,433 458,433 456,431 455,431 454,430 453,430 452,429 451,429 450,428 449,428 448,427 447,427 445,425 444,425 443,424 442,424 441,423 440,423 439,422 438,422 436,420 435,420 434,419 433,419 432,418 431,418 430,417 429,417 428,416 427,416 425,414 424,414 423,413 422,413 421,412 420,412 418,410 417,410 416,409 415,409 413,407 412,407 411,406 410,406 408,404 407,404 406,403 405,403 404,402 403,402 401,400 400,400 399,399 398,399 397,398 396,398 394,396 393,396 392,395 391,395 390,394 389,394 387,392 386,392 385,391 384,391 383,390 382,390 381,389 380,389 379,388 378,388 377,387 376,387 375,386 374,386 373,385 372,385 370,383 369,383 368,382 367,382 365,380 364,380 362,378 361,378 360,377 359,377 358,376 356,376 355,375 353,375 353,381 354,382 354,426 353,427 353,428 352,429 350,429 349,428 348,428 347,427 346,427 345,426 344,426 342,424 341,424 340,423 339,423 337,421 336,421 335,420 334,420 332,418 331,418 330,417 329,417 327,415 326,415 325,414 324,414 323,413 322,413 321,412 320,412 318,410 317,410 315,408 314,408 313,407 312,407 311,406 310,406 308,404 307,404 306,403 305,403 304,402 303,402 301,400 299,400 298,399 297,399 295,397 294,397 293,396 292,396 290,394 289,394 286,391 285,391 284,390 283,390 281,388 280,388 279,387 278,387 277,386 276,386 274,384 273,384 272,383 271,383 270,382 269,382 267,380 266,380 265,379 264,379 262,377 261,377 259,375 258,375 257,374 256,374 255,373 254,373 253,372 252,372 250,370 249,370 248,369 247,369 245,367 244,367 243,366 242,366 240,364 239,364 238,363 237,363 235,361 234,361 231,358 230,358 229,357 228,357 228,391 229,392 229,411 228,412 228,651 229,652 229,659 228,660 228,719 229,720 229,806 231,806 232,807 233,807 234,808 236,808 237,809 238,809 239,810 240,810 241,811 242,811 243,812 244,812 245,813 247,813 248,814 251,814 252,815 261,815 262,816 415,816 416,815 419,815 420,816 445,816 446,815 446,812 445,811 445,800 446,799 446,771 445,770 445,725 446,724 446,678 448,676 449,676 450,675 453,675 454,674 509,674 510,675 527,675 530,678 530,679 531,680 531,691 532,692 532,765 533,766 533,805 532,806 532,816 563,816 564,815 587,815 588,816 755,816 756,815 764,815 765,814 768,814 770,812 771,812 774,809 775,809 777,807 778,807 780,805 781,805 782,804 783,804 785,802 786,802 789,799 790,799 791,798 794,798 795,797 799,797 799,778 798,777 798,723 797,722 797,704 798,703 798,676 797,675 797,663 798,662 798,630 799,629 799,606 764,606 763,605 695,605 694,606 648,606 647,607 616,607 615,606 588,606 587,605 584,605 582,603 582,600 583,599 583,596 586,593 587,593 588,592 591,592 592,591 631,591 632,592 648,592 648,560 647,559 647,526 646,525 646,492 645,491 645,461 644,460 644,416 643,415 643,386 642,385 642,361 641,360 641,322 640,321 640,317" stroke="#fff" stroke-width="5" /><polygon fill="#fff" fill-opacity="0.4" points="759,725 760,724 768,724 769,725 772,725 773,726 774,726 775,727 776,727 781,732 781,733 783,735 783,736 784,737 784,741 785,742 785,749 784,750 784,752 783,753 783,754 782,755 782,756 772,766 771,766 765,772 764,772 761,775 784,775 785,776 785,778 786,779 786,785 785,786 785,789 784,790 738,790 737,789 737,785 738,784 738,782 740,780 740,779 742,777 742,776 758,760 759,760 767,752 767,751 769,749 769,748 770,747 770,741 769,740 769,739 768,738 767,738 766,737 760,737 758,739 758,740 757,741 757,742 756,743 756,744 755,745 755,746 753,748 750,748 749,747 745,747 744,746 743,746 742,745 742,738 743,737 743,736 746,733 746,732 748,730 749,730 751,728 752,728 754,726 756,726 757,725" stroke="#fff" stroke-width="5" /><polygon fill="#fff" fill-opacity="0.4" points="690,673 691,672 701,672 702,673 707,673 708,674 710,674 711,675 712,675 713,676 714,676 715,677 716,677 717,678 718,678 719,679 720,679 729,688 729,689 731,691 731,692 732,693 732,694 733,695 733,696 734,697 734,699 735,700 735,702 736,703 736,707 737,708 737,736 736,737 736,743 735,744 735,746 734,747 734,749 733,750 733,751 732,752 732,753 731,754 731,755 730,756 730,757 721,766 720,766 718,768 717,768 716,769 715,769 714,770 713,770 712,771 710,771 709,772 706,772 705,773 690,773 689,772 685,772 684,771 682,771 681,770 679,770 678,769 677,769 676,768 675,768 673,766 672,766 669,763 668,763 663,758 663,757 660,754 660,753 659,752 659,751 658,750 658,749 657,748 657,746 656,745 656,742 655,741 655,737 654,736 654,728 653,727 653,722 654,721 654,709 655,708 655,704 656,703 656,700 657,699 657,697 658,696 658,695 659,694 659,693 661,691 661,690 665,686 665,685 668,682 669,682 672,679 673,679 675,677 676,677 677,676 678,676 679,675 681,675 682,674 684,674 685,673" stroke="#fff" stroke-width="5" /><polygon fill="#fff" fill-opacity="0.4" points="607,664 608,663 624,663 625,664 629,664 630,665 632,665 633,666 634,666 635,667 636,667 637,668 638,668 639,669 640,669 643,672 644,672 648,676 648,677 649,678 649,681 648,682 648,683 646,685 646,686 644,688 644,689 642,691 642,692 640,694 638,694 637,693 636,693 633,690 632,690 630,688 629,688 628,687 627,687 626,686 625,686 624,685 623,685 622,684 619,684 618,683 609,683 608,684 606,684 605,685 603,685 601,687 600,687 595,692 595,693 593,695 593,696 592,697 592,700 591,701 591,704 590,705 590,713 589,714 589,721 590,722 590,732 591,733 591,737 592,738 592,740 594,742 594,743 596,745 596,746 598,748 599,748 601,750 602,750 603,751 604,751 605,752 610,752 611,753 612,753 613,752 620,752 621,751 624,751 625,750 627,750 628,749 629,749 630,748 631,748 636,743 638,743 640,745 641,745 642,746 642,747 643,747 644,748 644,749 647,752 647,753 648,754 648,755 649,756 649,758 644,763 643,763 641,765 640,765 638,767 637,767 636,768 635,768 634,769 633,769 632,770 631,770 630,771 628,771 627,772 622,772 621,773 608,773 607,772 602,772 601,771 599,771 598,770 597,770 596,769 594,769 593,768 592,768 591,767 590,767 588,765 587,765 586,764 585,764 575,754 575,753 573,751 573,750 572,749 572,748 571,747 571,746 570,745 570,743 569,742 569,739 568,738 568,733 567,732 567,724 566,723 566,716 567,715 567,706 568,705 568,700 569,699 569,696 570,695 570,693 571,692 571,691 572,690 572,688 573,687 573,686 574,685 574,684 576,682 576,681 580,677 580,676 582,674 583,674 586,671 587,671 589,669 590,669 591,668 592,668 593,667 594,667 595,666 597,666 598,665 601,665 602,664" stroke="#fff" stroke-width="5" /><polygon fill="#fff" fill-opacity="0.4" points="357,646 386,646 389,649 389,651 390,652 390,688 387,691 356,691 355,690 353,690 351,688 351,653 352,652 352,651" stroke="#fff" stroke-width="5" /><polygon fill="#fff" fill-opacity="0.4" points="278,646 279,645 301,645 302,646 306,646 307,647 308,647 310,649 310,652 311,653 311,688 310,689 309,689 308,690 301,690 300,691 277,691 276,690 274,690 272,688 272,687 271,686 271,652 272,651 272,650 276,646" stroke="#fff" stroke-width="5" /><polygon fill="#fff" fill-opacity="0.4" points="437,535 438,534 440,534 441,535 462,535 463,536 464,536 466,538 466,542 467,543 467,563 468,564 468,574 467,575 467,576 465,578 433,578 432,577 431,577 430,576 430,575 429,574 429,550 430,549 430,541 431,540 431,539 435,535" stroke="#fff" stroke-width="5" /><polygon fill="#fff" fill-opacity="0.4" points="358,535 359,534 360,534 361,535 383,535 384,536 386,536 388,538 388,539 389,540 389,564 390,565 390,574 389,575 389,576 388,577 387,577 386,578 355,578 354,577 352,577 350,575 350,547 351,546 351,540 352,539 352,538 355,535" stroke="#fff" stroke-width="5" /><polygon fill="#fff" fill-opacity="0.4" points="277,535 278,534 296,534 297,535 307,535 310,538 310,554 311,555 311,575 309,577 308,577 307,578 276,578 275,577 274,577 271,574 271,541 272,540 272,539 276,535" stroke="#fff" stroke-width="5" /><polygon fill="#fff" fill-opacity="0.4" points="515,534 516,533 521,533 522,534 537,534 538,535 543,535 545,537 545,551 546,552 546,576 545,577 544,577 543,578 513,578 512,577 510,577 508,575 508,573 507,572 507,554 508,553 508,540 509,539 509,537 512,534" stroke="#fff" stroke-width="5" /><polygon fill="#fff" fill-opacity="0.4" points="276,476 307,476 310,479 310,480 311,481 311,515 310,516 309,516 308,517 277,517 276,516 274,516 271,513 271,482 272,481 272,480" stroke="#fff" stroke-width="5" /><polygon fill="#fff" fill-opacity="0.4" points="512,475 542,475 545,478 545,479 546,480 546,499 547,500 547,511 546,512 546,515 544,517 515,517 514,516 510,516 508,514 508,480 509,479 509,478" stroke="#fff" stroke-width="5" /><polygon fill="#fff" fill-opacity="0.4" points="435,476 436,475 451,475 452,476 464,476 466,478 466,480 467,481 467,493 468,494 468,513 467,514 467,516 466,517 433,517 430,514 430,479 431,478 431,477 432,476" stroke="#fff" stroke-width="5" /><polygon fill="#fff" fill-opacity="0.4" points="355,475 376,475 377,476 386,476 388,478 388,479 389,480 389,483 390,484 390,514 387,517 354,517 353,516 352,516 351,515 351,480 352,479 352,478" stroke="#fff" stroke-width="5" /><polygon fill="#fff" fill-opacity="0.4" points="687,313 687,314 686,315 686,340 685,341 685,353 684,354 684,371 683,372 683,385 682,386 682,397 681,398 681,406 680,407 680,417 679,418 679,425 678,426 678,434 677,435 677,446 676,447 676,459 675,460 675,470 674,471 674,479 673,480 673,486 672,487 672,495 671,496 671,504 670,505 670,517 669,518 669,529 668,530 668,540 667,541 667,551 666,552 666,563 665,564 665,571 664,572 664,578 663,579 663,584 662,585 662,591 661,592 668,592 669,591 672,591 673,592 676,592 676,587 677,586 677,585 699,563 699,562 715,546 716,546 728,534 736,542 736,543 738,545 739,545 744,550 745,550 751,556 752,556 755,559 755,560 772,577 772,578 779,585 779,586 780,587 780,589 781,590 780,591 780,592 785,592 786,591 793,591 794,592 794,581 793,580 793,569 792,568 792,559 791,558 791,550 790,549 790,540 789,539 789,532 788,531 788,524 787,523 787,517 786,516 786,508 785,507 785,499 784,498 784,488 783,487 783,479 782,478 782,471 781,470 781,462 780,461 780,454 779,453 779,444 778,443 778,435 777,434 777,428 776,427 776,421 775,420 775,412 774,411 774,402 773,401 773,391 772,390 772,382 771,381 771,374 770,373 770,362 769,361 769,350 768,349 768,340 767,339 767,330 766,329 766,320 765,319 765,314 756,314 755,313 718,313 717,314 689,314 688,313" stroke="#fff" stroke-width="5" /><polygon fill="#fff" fill-opacity="0.4" points="767,503 768,502 769,502 770,503 770,505 771,506 771,516 772,517 772,523 773,524 773,530 774,531 774,538 775,539 775,547 776,548 776,559 775,560 769,554 768,554 762,548 761,548 755,542 754,542 739,527 740,526 740,525 747,518 747,517 749,515 750,515 754,511 755,511 758,508 759,508 762,505 763,505 765,503" stroke="#fff" stroke-width="5" /><polygon fill="#fff" fill-opacity="0.4" points="685,503 686,502 687,502 688,503 689,503 691,505 692,505 694,507 695,507 698,510 699,510 703,514 704,514 707,517 708,517 710,519 711,519 717,525 717,526 716,527 715,527 686,556 685,556 681,560 680,559 680,554 681,553 681,543 682,542 682,532 683,531 683,520 684,519 684,510 685,509" stroke="#fff" stroke-width="5" /><polygon fill="#fff" fill-opacity="0.4" points="727,450 729,450 738,459 738,460 756,478 756,479 764,487 761,490 760,490 759,491 758,491 757,492 756,492 755,493 754,493 752,495 751,495 750,496 749,496 746,499 745,499 744,500 743,500 739,504 739,505 728,516 726,516 718,508 717,508 706,497 705,497 702,494 701,494 700,493 699,493 697,491 696,491 692,487 692,486 693,485 693,484" stroke="#fff" stroke-width="5" /><polygon fill="#fff" fill-opacity="0.4" points="760,421 761,420 763,422 763,438 764,439 764,447 765,448 765,457 766,458 766,467 765,468 764,467 764,466 763,466 761,464 760,464 757,461 756,461 745,450 745,449 743,447 742,447 739,444 738,444 737,443 737,441 748,430 749,430 755,424 756,424 759,421" stroke="#fff" stroke-width="5" /><polygon fill="#fff" fill-opacity="0.4" points="692,421 693,420 695,420 707,432 708,432 711,435 712,435 716,439 716,442 713,445 713,446 709,450 709,451 706,454 705,454 696,463 695,463 691,467 690,467 689,466 689,458 690,457 690,444 691,443 691,434 692,433" stroke="#fff" stroke-width="5" /><polygon fill="#fff" fill-opacity="0.4" points="728,371 729,371 730,372 730,373 731,374 731,375 734,378 734,379 736,381 736,382 739,385 739,386 758,405 758,406 757,407 756,407 755,408 754,408 753,409 752,409 750,411 749,411 737,423 736,423 735,424 735,425 732,428 731,428 728,431 726,431 723,428 723,427 718,422 717,422 710,415 709,415 703,409 702,409 699,406 699,405 698,404 699,403 699,402 703,398 704,398 706,396 706,395 722,379 722,378 725,375 725,374" stroke="#fff" stroke-width="5" /><polygon fill="#fff" fill-opacity="0.4" points="750,348 751,347 754,347 755,348 755,361 756,362 756,369 757,370 757,381 756,382 755,381 754,381 737,364 737,361 738,360 738,359 749,348" stroke="#fff" stroke-width="5" /><polygon fill="#fff" fill-opacity="0.4" points="699,346 700,345 703,348 704,348 717,361 717,364 712,369 712,370 708,374 708,375 703,380 702,380 699,383 698,383 697,384 696,383 696,376 697,375 697,362 698,361 698,352 699,351" stroke="#fff" stroke-width="5" /><polygon fill="#fff" fill-opacity="0.4" points="705,330 706,329 707,330 748,330 749,331 728,352 725,352 722,349 722,348 711,337 710,337 708,335 708,334 705,331" stroke="#fff" stroke-width="5" /><polygon fill="#fff" fill-opacity="0.4" points="437,283 436,284 434,284 432,286 431,286 429,288 429,289 427,291 427,293 426,294 426,302 427,303 427,305 428,306 428,307 433,312 434,312 435,313 437,313 438,314 444,314 445,313 447,313 448,312 449,312 451,310 452,310 452,309 454,307 454,306 455,305 455,304 456,303 456,293 455,292 455,291 454,290 454,289 451,286 450,286 449,285 448,285 447,284 445,284 444,283" stroke="#fff" stroke-width="5" /><polygon fill="#fff" fill-opacity="0.4" points="586,267 585,268 585,285 584,286 584,295 588,295 589,296 630,296 631,295 642,295 641,294 641,282 640,281 640,267 620,267 619,268 587,268" stroke="#fff" stroke-width="5" /><polygon fill="#fff" fill-opacity="0.4" points="484,229 483,230 480,230 479,231 478,231 477,232 476,232 470,238 470,239 469,240 469,241 468,242 468,245 467,246 467,258 468,259 468,261 469,262 469,263 470,264 470,265 476,271 477,271 478,272 479,272 480,273 482,273 483,274 495,274 496,273 498,273 499,272 500,272 501,271 502,271 504,269 505,269 508,266 508,265 510,263 510,262 511,261 511,260 512,259 512,256 513,255 513,249 512,248 512,245 511,244 511,242 509,240 509,239 504,234 503,234 501,232 500,232 499,231 497,231 496,230 493,230 492,229" stroke="#fff" stroke-width="5" /><polygon fill="#fff" fill-opacity="0.4" points="342,214 341,215 337,215 336,216 333,216 332,217 330,217 329,218 328,218 326,220 325,220 324,221 323,221 320,224 319,224 312,231 312,232 309,235 309,236 307,238 307,239 306,240 306,241 305,242 305,244 304,245 304,248 303,249 303,253 302,254 302,267 303,268 303,273 304,274 304,278 303,279 301,279 300,278 296,278 295,277 291,277 290,276 278,276 277,277 274,277 273,278 271,278 270,279 269,279 268,280 267,280 266,281 265,281 262,284 261,284 256,289 256,290 254,292 254,293 253,294 253,295 252,296 252,298 251,299 251,302 250,303 250,316 251,317 251,320 252,321 252,323 253,324 253,325 254,326 254,327 255,328 255,329 257,331 257,332 264,339 265,339 267,341 268,341 269,342 270,342 271,343 274,343 275,344 288,344 289,343 291,343 292,342 294,342 295,341 296,341 297,340 298,340 299,339 300,339 302,337 303,337 306,334 307,334 309,332 309,331 313,327 313,326 315,324 315,323 316,322 316,320 317,319 317,317 318,316 318,313 319,312 319,304 318,303 318,297 319,296 320,296 321,297 323,297 325,299 326,299 327,300 328,300 329,301 330,301 331,302 332,302 333,303 336,303 337,304 353,304 354,303 357,303 358,302 359,302 360,301 362,301 363,300 364,300 365,299 366,299 367,298 368,298 370,296 371,296 375,292 376,292 378,290 378,289 381,286 381,285 383,283 383,282 385,280 385,279 386,278 386,277 387,276 387,274 388,273 388,272 389,271 389,268 390,267 390,262 391,261 391,255 390,254 390,247 389,246 389,244 388,243 388,241 387,240 387,239 385,237 385,236 382,233 382,232 376,226 375,226 372,223 371,223 369,221 368,221 367,220 366,220 364,218 362,218 361,217 360,217 359,216 356,216 355,215 351,215 350,214" stroke="#fff" stroke-width="5" /><polygon fill="#fff" fill-opacity="0.4" points="526,202 525,203 523,203 518,208 518,209 516,211 516,213 515,214 515,221 516,222 516,224 517,225 517,226 518,227 518,228 522,232 523,232 524,233 525,233 526,234 535,234 536,233 538,233 539,232 540,232 542,230 543,230 544,229 544,228 545,227 545,226 546,225 546,224 547,223 547,213 546,212 546,210 544,208 544,207 541,204 540,204 539,203 538,203 537,202" stroke="#fff" stroke-width="5" /><polygon fill="#fff" fill-opacity="0.4" points="402,170 401,171 398,171 397,172 395,172 394,173 392,173 391,174 390,174 389,175 388,175 386,177 385,177 383,179 382,179 377,184 377,185 375,187 375,188 374,189 374,190 373,191 373,192 372,193 372,194 371,195 371,197 370,198 370,201 369,202 369,210 370,210 371,211 373,211 375,213 377,213 379,215 380,215 383,218 384,218 386,220 386,221 389,224 389,225 392,228 392,229 393,230 393,231 394,232 394,233 395,234 395,235 396,236 396,239 397,240 397,243 398,244 398,248 399,249 400,249 401,250 403,250 404,251 418,251 419,250 422,250 423,249 425,249 426,248 427,248 428,247 429,247 430,246 431,246 434,243 435,243 441,237 441,236 443,234 443,233 444,232 444,231 446,229 446,228 447,227 447,225 448,224 448,222 449,221 449,213 450,212 449,211 449,202 448,201 448,198 447,197 447,195 446,194 446,193 445,192 445,191 444,190 444,189 443,188 443,187 441,185 441,184 437,180 436,180 434,178 433,178 431,176 430,176 429,175 427,175 426,174 425,174 424,173 422,173 421,172 418,172 417,171 412,171 411,170" stroke="#fff" stroke-width="5" /><polygon fill="#fff" fill-opacity="0.4" points="444,152 443,153 421,153 420,154 418,154 420,154 421,155 423,155 424,156 426,156 427,157 429,157 430,158 432,158 433,159 434,159 435,160 436,160 438,162 439,162 441,164 442,164 454,176 454,177 456,179 456,180 457,181 457,182 458,183 458,184 459,185 459,186 460,187 460,190 516,190 517,189 518,189 521,186 522,186 523,185 525,185 526,184 537,184 538,185 539,185 542,188 543,188 544,189 547,189 548,190 589,190 589,189 590,188 590,185 591,184 591,183 593,181 593,180 594,179 594,178 597,175 597,174 604,167 605,167 607,165 608,165 610,163 611,163 612,162 613,162 614,161 615,161 616,160 618,160 619,159 620,159 621,158 623,158 624,157 625,157 626,156 627,156 627,155 628,154 628,153 606,153 605,152 548,152 547,153 524,153 523,152" stroke="#fff" stroke-width="5" /><polygon fill="#fff" fill-opacity="0.4" points="274,152 273,153 263,153 262,154 257,154 256,155 253,155 252,156 249,156 248,157 245,157 244,158 242,158 241,159 239,159 238,160 236,160 235,161 233,161 232,162 230,162 229,163 228,163 227,164 225,164 224,165 223,165 222,166 221,166 220,167 219,167 218,168 217,168 216,169 215,169 213,171 212,171 211,172 210,172 208,174 207,174 205,176 204,176 202,178 201,178 198,181 197,181 186,192 185,192 185,193 177,201 177,202 173,206 173,207 170,210 170,211 168,213 168,214 167,215 167,216 165,218 165,219 164,220 164,221 163,222 163,223 162,224 162,225 161,226 161,227 160,228 160,229 159,230 159,232 158,233 158,234 157,235 157,237 156,238 156,239 155,240 155,242 154,243 154,246 153,247 153,249 152,250 152,253 151,254 151,257 150,258 150,262 149,263 149,267 148,268 148,276 147,277 147,747 148,748 148,756 149,757 149,761 150,762 150,765 151,766 151,769 152,770 152,773 153,774 153,776 154,777 154,779 155,780 155,782 156,783 156,785 157,786 157,787 158,788 158,789 159,790 159,792 160,793 160,794 161,795 161,796 162,797 162,798 163,799 163,800 164,801 164,802 166,804 166,805 167,806 167,807 169,809 169,810 171,812 171,813 173,815 173,816 176,819 176,820 181,825 181,826 193,838 194,838 199,843 200,843 202,845 203,845 206,848 207,848 209,850 210,850 212,852 213,852 214,853 215,853 216,854 217,854 218,855 219,855 220,856 221,856 222,857 224,857 225,858 226,858 227,859 228,859 229,860 230,860 231,861 233,861 234,862 236,862 237,863 239,863 240,864 242,864 243,865 246,865 247,866 250,866 251,867 256,867 257,868 263,868 264,869 275,869 276,870 548,870 549,869 583,869 584,870 595,870 596,869 731,869 732,870 743,870 744,869 754,869 755,868 760,868 761,867 765,867 766,866 769,866 770,865 773,865 774,864 777,864 778,863 780,863 781,862 783,862 784,861 786,861 787,860 789,860 790,859 791,859 792,858 794,858 795,857 796,857 797,856 798,856 799,855 800,855 801,854 802,854 804,852 805,852 806,851 807,851 808,850 809,850 811,848 812,848 814,846 815,846 818,843 819,843 824,838 825,838 837,826 837,825 842,820 842,819 845,816 845,815 847,813 847,812 849,810 849,809 851,807 851,806 853,804 853,803 854,802 854,801 855,800 855,799 856,798 856,797 857,796 857,795 858,794 858,793 859,792 859,791 860,790 860,788 861,787 861,786 862,785 862,783 863,782 863,779 864,778 864,776 865,775 865,772 866,771 866,769 867,768 867,764 868,763 868,760 869,759 869,753 870,752 870,275 869,274 869,267 868,266 868,262 867,261 867,258 866,257 866,253 865,252 865,249 864,248 864,246 863,245 863,243 862,242 862,240 861,239 861,237 860,236 860,235 859,234 859,232 858,231 858,230 857,229 857,228 856,227 856,225 855,224 855,223 853,221 853,220 852,219 852,218 851,217 851,216 849,214 849,213 847,211 847,210 845,208 845,207 842,204 842,203 839,200 839,199 835,195 835,194 822,181 821,181 818,178 817,178 815,176 814,176 811,173 810,173 809,172 808,172 806,170 805,170 804,169 803,169 802,168 801,168 800,167 799,167 798,166 797,166 796,165 795,165 794,164 793,164 792,163 790,163 789,162 788,162 787,161 785,161 784,160 782,160 781,159 779,159 778,158 776,158 775,157 773,157 772,156 769,156 768,155 765,155 764,154 760,154 759,153 753,153 753,155 754,156 754,175 753,176 753,178 752,179 752,180 751,181 751,182 749,184 749,185 748,186 748,187 747,188 747,189 748,189 749,190 754,190 755,191 759,191 760,192 762,192 763,193 765,193 766,194 768,194 769,195 770,195 771,196 772,196 773,197 774,197 775,198 776,198 777,199 779,199 781,201 782,201 783,202 784,202 785,203 786,203 789,206 790,206 795,211 796,211 805,220 805,221 809,225 809,226 811,228 811,229 813,231 813,232 815,234 815,235 816,236 816,237 817,238 817,239 818,240 818,241 819,242 819,243 820,244 820,245 821,246 821,247 822,248 822,250 823,251 823,253 824,254 824,256 825,257 825,259 826,260 826,263 827,264 827,267 828,268 828,275 829,276 829,755 828,756 828,759 827,760 827,762 826,763 826,766 825,767 825,768 824,769 824,771 823,772 823,773 822,774 822,775 821,776 821,777 820,778 820,779 819,780 819,781 818,782 818,783 816,785 816,786 815,787 815,788 813,790 813,791 811,793 811,794 808,797 808,798 806,800 806,801 804,803 804,804 798,810 797,810 795,812 794,812 792,814 791,814 789,816 788,816 787,817 786,817 785,818 784,818 783,819 782,819 781,820 780,820 779,821 778,821 777,822 776,822 775,823 774,823 773,824 772,824 771,825 770,825 769,826 768,826 767,827 765,827 764,828 762,828 761,829 759,829 758,830 754,830 753,831 743,831 742,832 656,832 655,831 632,831 631,832 556,832 555,831 472,831 471,832 440,832 439,831 372,831 371,832 360,832 359,831 328,831 327,832 282,832 281,831 266,831 265,830 260,830 259,829 257,829 256,828 253,828 252,827 250,827 249,826 248,826 247,825 246,825 245,824 243,824 242,823 241,823 240,822 239,822 238,821 237,821 235,819 234,819 233,818 232,818 230,816 229,816 227,814 226,814 216,804 216,803 209,796 209,795 206,792 206,791 204,789 204,788 202,786 202,785 201,784 201,783 200,782 200,781 199,780 199,779 198,778 198,777 197,776 197,775 196,774 196,773 195,772 195,771 194,770 194,768 193,767 193,766 192,765 192,763 191,762 191,759 190,758 190,755 189,754 189,750 188,749 188,605 187,604 188,603 188,563 187,562 187,518 188,517 188,492 187,491 187,480 188,479 188,476 187,475 187,456 188,455 188,436 187,435 187,292 188,291 188,271 189,270 189,265 190,264 190,261 191,260 191,258 192,257 192,255 193,254 193,252 194,251 194,249 195,248 195,247 196,246 196,245 197,244 197,242 198,241 198,240 199,239 199,238 200,237 200,236 202,234 202,233 204,231 204,230 205,229 205,228 208,225 208,224 221,211 222,211 225,208 226,208 228,206 229,206 231,204 232,204 233,203 234,203 235,202 236,202 237,201 238,201 239,200 240,200 241,199 242,199 243,198 244,198 245,197 247,197 248,196 249,196 250,195 252,195 253,194 256,194 257,193 259,193 260,192 264,192 265,191 273,191 274,190 356,190 356,189 357,188 357,185 358,184 358,182 359,181 359,180 360,179 360,178 362,176 362,175 364,173 364,172 374,162 375,162 377,160 378,160 379,159 380,159 381,158 383,158 384,157 386,157 387,156 390,156 391,155 393,155 394,154 397,154 398,153 400,153 399,153 398,152 394,152 393,153 370,153 369,152 340,152 339,153 304,153 303,152" stroke="#fff" stroke-width="5" /><polygon fill="#fff" fill-opacity="0.4" points="682,117 681,118 678,118 677,119 675,119 674,120 673,120 672,121 671,121 670,122 669,122 668,123 667,123 665,125 664,125 662,127 661,127 652,136 652,137 650,139 650,140 649,141 649,142 648,143 648,145 647,146 647,149 646,150 646,154 645,155 645,160 646,161 646,165 647,166 647,173 646,174 638,174 637,173 633,173 632,174 627,174 626,175 624,175 623,176 622,176 621,177 620,177 619,178 618,178 616,180 615,180 611,184 611,185 608,188 608,189 607,190 607,191 606,192 606,193 605,194 605,195 604,196 604,201 603,202 603,209 604,210 604,214 605,215 605,217 606,218 606,219 607,220 607,221 608,222 608,223 609,224 609,225 616,232 617,232 619,234 620,234 621,235 622,235 623,236 625,236 626,237 630,237 631,238 635,238 636,237 640,237 641,236 643,236 644,235 646,235 647,234 648,234 649,233 650,233 651,232 652,232 653,231 654,231 658,227 658,226 661,223 661,222 663,220 663,219 664,218 664,217 665,216 665,215 666,214 666,213 667,212 667,210 668,209 668,202 670,200 671,201 672,201 673,202 674,202 675,203 677,203 678,204 680,204 681,205 698,205 699,204 702,204 703,203 705,203 706,202 707,202 708,201 710,201 711,200 712,200 715,197 716,197 721,192 721,191 724,188 724,187 725,186 725,185 726,184 726,183 728,181 728,180 729,179 729,177 730,176 730,175 731,174 731,172 732,171 732,167 733,166 733,154 732,153 732,150 731,149 731,146 730,145 730,144 729,143 729,141 728,140 728,139 727,138 727,137 726,136 726,135 723,132 723,131 716,124 715,124 713,122 712,122 711,121 710,121 709,120 707,120 706,119 704,119 703,118 700,118 699,117" stroke="#fff" stroke-width="5" /></svg>