<?xml version="1.0" encoding="utf-8" ?>
<svg baseProfile="tiny" height="1024" version="1.2" width="1024" xmlns="http://www.w3.org/2000/svg" xmlns:ev="http://www.w3.org/2001/xml-events" xmlns:xlink="http://www.w3.org/1999/xlink"><defs /><rect fill="#fff" height="1024" width="1024" x="0" y="0" /><polygon fill="#000" fill-opacity="0.4" points="686,684 685,685 683,685 682,686 681,686 679,688 679,689 678,690 678,699 677,700 677,704 678,705 678,715 679,716 679,717 681,719 682,719 684,721 688,721 689,722 690,722 691,721 694,721 695,720 696,720 699,717 699,716 700,715 700,696 699,695 699,690 698,689 698,688 696,686 695,686 694,685 692,685 691,684" stroke="#000" stroke-width="5" /><polygon fill="#000" fill-opacity="0.4" points="720,669 716,673 715,673 713,675 713,676 712,677 712,683 713,684 713,685 714,686 714,687 717,690 717,691 726,700 727,700 729,702 730,702 732,704 734,704 735,705 737,705 738,704 741,704 742,703 743,703 747,699 747,698 748,697 748,695 749,694 749,693 748,692 748,690 747,689 747,688 735,676 734,676 731,673 730,673 729,672 728,672 727,671 726,671 725,670 723,670 722,669" stroke="#000" stroke-width="5" /><polygon fill="#000" fill-opacity="0.4" points="652,669 651,670 650,670 649,671 648,671 647,672 646,672 644,674 643,674 640,677 639,677 636,680 635,680 633,682 633,683 630,686 630,687 629,688 629,694 630,695 630,696 635,701 636,701 637,702 638,702 639,703 645,703 646,702 647,702 648,701 649,701 651,699 652,699 660,691 660,690 663,687 663,686 664,685 664,684 665,683 665,678 664,677 664,676 663,675 663,674 662,673 662,672 660,670 659,670 658,669" stroke="#000" stroke-width="5" /><polygon fill="#000" fill-opacity="0.4" points="738,633 737,634 733,634 729,638 729,647 730,648 730,649 731,650 731,651 733,653 734,653 735,654 737,654 738,655 746,655 747,656 756,656 757,655 761,655 762,654 763,654 767,650 767,648 768,647 768,641 767,640 767,639 762,634 760,634 759,633" stroke="#000" stroke-width="5" /><polygon fill="#000" fill-opacity="0.4" points="624,632 623,633 620,633 618,635 617,635 614,638 614,639 613,640 613,648 617,652 618,652 619,653 621,653 622,654 641,654 642,653 645,653 646,652 647,652 651,648 651,647 652,646 652,636 651,635 651,634 650,634 649,633 647,633 646,632" stroke="#000" stroke-width="5" /><polygon fill="#000" fill-opacity="0.4" points="498,623 497,624 492,624 491,625 489,625 488,626 487,626 486,627 485,627 481,631 481,632 477,636 477,637 476,638 476,639 475,640 475,641 474,642 474,644 473,645 473,677 474,678 474,683 475,684 475,687 476,688 476,690 477,691 477,693 479,695 479,696 481,698 481,699 484,702 484,703 486,705 487,705 488,706 489,706 490,707 496,707 497,708 523,708 524,707 536,707 537,706 537,689 514,689 513,690 507,690 506,689 498,689 496,687 496,686 495,685 495,683 494,682 494,676 495,675 496,675 497,676 528,676 529,675 529,671 530,670 530,666 529,665 529,662 528,661 496,661 496,663 495,664 494,663 494,662 493,661 493,659 492,658 492,652 493,651 493,649 494,648 494,647 498,643 499,643 500,642 509,642 510,641 512,641 513,642 528,642 529,641 529,628 528,627 528,626 527,626 526,625 523,625 522,624 509,624 508,623" stroke="#000" stroke-width="5" /><polygon fill="#000" fill-opacity="0.4" points="687,611 686,612 681,612 680,613 678,613 677,614 676,614 674,616 673,616 670,619 669,619 660,628 660,629 659,630 659,635 660,636 661,636 663,638 664,637 665,638 666,638 667,639 668,639 669,638 672,638 677,633 678,633 680,631 682,631 683,630 685,630 686,629 696,629 697,630 698,630 699,631 700,631 705,636 705,637 706,638 706,639 707,640 707,643 708,644 708,657 710,659 713,659 714,658 716,658 716,657 719,654 719,653 720,652 720,651 721,650 721,648 722,647 722,640 721,639 721,638 720,637 720,636 719,635 719,634 718,633 718,632 717,631 717,630 716,629 716,628 715,627 715,626 714,625 714,623 713,622 713,621 711,619 711,618 709,616 708,616 707,615 706,615 705,614 703,614 702,613 699,613 698,612 693,612 692,611" stroke="#000" stroke-width="5" /><polygon fill="#000" fill-opacity="0.4" points="735,583 734,584 733,584 732,585 731,585 730,586 729,586 725,590 724,590 719,595 719,596 716,599 716,600 715,601 715,603 714,604 714,608 715,609 715,610 721,616 728,616 729,615 731,615 732,614 733,614 735,612 736,612 739,609 740,609 748,601 748,600 749,599 749,592 748,591 748,590 747,589 747,588 744,585 743,585 742,584 741,584 740,583" stroke="#000" stroke-width="5" /><polygon fill="#000" fill-opacity="0.4" points="637,583 636,584 635,584 634,585 633,585 630,588 630,590 629,591 629,596 630,597 630,598 631,599 631,600 634,603 634,604 641,611 642,611 645,614 646,614 648,616 649,616 650,617 655,617 656,616 657,616 658,615 659,615 664,610 664,609 665,608 665,604 664,603 664,601 661,598 661,597 656,592 655,592 651,588 650,588 648,586 647,586 645,584 644,584 643,583" stroke="#000" stroke-width="5" /><polygon fill="#000" fill-opacity="0.4" points="468,578 467,579 447,579 446,580 443,580 442,581 440,581 439,582 437,582 436,583 435,583 434,584 433,584 431,586 430,586 428,588 427,588 424,591 424,592 421,595 421,596 420,597 420,598 419,599 419,601 418,602 418,603 417,604 417,607 416,608 416,627 415,628 415,630 416,631 416,720 417,721 417,724 418,725 418,727 419,728 419,730 420,731 420,732 421,733 421,734 423,736 423,737 427,741 427,742 429,744 430,744 432,746 433,746 434,747 435,747 437,749 439,749 440,750 441,750 442,751 444,751 445,752 450,752 451,753 499,753 500,754 545,754 546,753 564,753 565,752 567,752 568,751 570,751 571,750 572,750 573,749 574,749 575,748 576,748 578,746 579,746 580,745 581,745 586,740 586,739 588,737 588,736 590,734 590,733 591,732 591,731 592,730 592,728 593,727 593,725 594,724 594,721 595,720 595,616 594,615 594,609 593,608 593,605 592,604 592,603 591,602 591,600 590,599 590,598 589,597 589,596 587,594 587,593 579,585 578,585 576,583 575,583 574,582 573,582 572,581 570,581 569,580 566,580 565,579 496,579 495,578" stroke="#000" stroke-width="5" /><polygon fill="#000" fill-opacity="0.4" points="449,601 450,600 525,600 526,601 561,601 562,602 563,602 570,609 570,610 571,611 571,613 572,614 572,629 571,630 571,698 572,699 572,718 571,719 571,720 570,721 570,722 563,729 561,729 560,730 530,730 529,731 487,731 486,730 459,730 458,731 451,731 450,730 449,730 448,729 447,729 441,723 441,722 439,720 439,716 438,715 438,612 439,611 439,610 440,609 440,608 445,603 446,603 448,601" stroke="#000" stroke-width="5" /><polygon fill="#000" fill-opacity="0.4" points="684,564 683,565 682,565 679,568 679,569 678,570 678,575 677,576 677,579 678,580 678,594 679,595 679,596 683,600 684,600 685,601 693,601 694,600 695,600 699,596 699,592 700,591 700,575 699,574 699,570 698,569 698,568 695,565 694,565 693,564" stroke="#000" stroke-width="5" /><polygon fill="#000" fill-opacity="0.4" points="544,494 543,495 543,500 542,501 542,502 541,503 540,502 510,502 509,503 507,503 506,502 481,502 480,501 474,501 473,500 470,500 469,499 457,499 456,500 455,500 454,501 454,502 453,503 453,505 452,506 452,509 453,510 453,512 454,513 454,514 455,515 455,516 459,520 460,520 461,521 462,521 463,522 465,522 466,523 481,523 482,524 481,525 481,537 482,538 482,539 483,540 483,541 484,542 484,543 491,550 492,550 493,551 494,551 495,552 496,552 497,553 499,553 500,554 515,554 516,553 518,553 519,552 520,552 521,551 522,551 524,549 525,549 531,543 531,542 533,540 533,538 534,537 534,527 533,527 532,526 533,525 549,525 550,524 552,524 553,523 554,523 555,522 556,522 559,519 559,518 561,516 561,515 563,513 563,511 564,510 564,503 563,502 563,500 562,499 562,498 559,495 552,495 551,494" stroke="#000" stroke-width="5" /><polygon fill="#000" fill-opacity="0.4" points="292,416 290,418 290,419 289,420 289,421 288,422 288,423 287,424 287,426 286,427 286,431 287,432 287,433 290,436 291,436 292,437 293,437 294,438 297,438 298,439 301,439 302,440 305,440 306,441 313,441 314,440 315,440 319,436 319,435 320,434 320,433 321,432 321,428 320,427 320,425 317,422 316,422 315,421 313,421 312,420 309,420 308,419 306,419 305,418 302,418 301,417 297,417 296,416" stroke="#000" stroke-width="5" /><polygon fill="#000" fill-opacity="0.4" points="718,415 717,416 712,416 711,417 707,417 706,418 702,418 701,419 699,419 698,420 697,420 696,421 695,421 695,422 694,423 694,424 693,425 693,432 694,433 694,434 696,436 696,437 697,438 698,438 700,440 710,440 711,439 715,439 716,438 718,438 719,437 722,437 723,436 724,436 725,435 727,435 729,433 730,433 730,432 731,431 731,425 730,424 730,422 729,421 729,420 725,416 724,416 723,415" stroke="#000" stroke-width="5" /><polygon fill="#000" fill-opacity="0.4" points="332,337 331,338 330,338 328,340 328,341 325,344 325,345 323,347 323,348 322,349 322,353 327,358 328,358 331,361 332,361 334,363 335,363 337,365 338,365 339,366 340,366 341,367 343,367 344,368 347,368 348,367 350,367 351,366 352,366 355,363 355,362 357,360 357,354 351,348 350,348 348,346 347,346 345,344 344,344 340,340 339,340 337,338 335,338 334,337" stroke="#000" stroke-width="5" /><polygon fill="#000" fill-opacity="0.4" points="679,336 678,337 677,337 676,338 675,338 674,339 673,339 671,341 670,341 668,343 667,343 666,344 665,344 664,345 663,345 661,347 660,347 658,349 658,350 657,351 657,352 656,353 657,354 657,357 658,358 658,359 659,360 659,361 660,362 660,363 664,367 665,367 666,368 668,368 669,367 671,367 672,366 673,366 674,365 675,365 677,363 678,363 680,361 681,361 683,359 684,359 687,356 688,356 693,351 693,348 692,347 692,345 690,343 690,342 684,336" stroke="#000" stroke-width="5" /><polygon fill="#000" fill-opacity="0.4" points="489,309 488,310 485,310 484,311 482,311 481,312 480,312 477,315 476,315 473,318 473,319 472,320 472,321 471,322 471,324 472,325 472,327 475,330 476,330 477,331 483,331 484,330 486,330 487,329 489,329 490,328 491,328 492,327 493,327 496,324 496,323 497,322 497,321 498,320 498,317 497,316 497,314 493,310 492,310 491,309" stroke="#000" stroke-width="5" /><polygon fill="#000" fill-opacity="0.4" points="496,266 495,267 488,267 487,268 483,268 482,269 480,269 479,270 476,270 475,271 474,271 473,272 471,272 470,273 469,273 468,274 467,274 466,275 465,275 464,276 463,276 462,277 461,277 460,278 459,278 458,279 457,279 455,281 454,281 452,283 451,283 449,285 448,285 445,288 444,288 429,303 429,304 426,307 426,308 425,309 425,310 423,312 423,313 422,314 422,315 421,316 421,317 420,318 420,319 419,320 419,321 418,322 418,323 417,324 417,326 416,327 416,329 415,330 415,332 414,333 414,336 413,337 413,341 412,342 412,346 411,347 411,371 412,372 412,377 413,378 413,382 414,383 414,386 415,387 415,389 416,390 416,392 417,393 417,395 418,396 418,397 419,398 419,399 420,400 420,401 421,402 421,403 423,405 423,406 425,408 425,409 427,411 427,412 433,418 433,419 444,430 444,431 451,438 451,439 452,440 452,441 453,442 453,459 452,460 452,476 453,477 453,484 454,485 455,485 456,486 457,486 458,487 471,487 472,488 484,488 485,487 542,487 543,488 557,488 558,487 560,487 562,485 562,484 563,483 563,472 564,471 564,453 563,452 563,440 564,439 564,438 566,436 566,435 580,421 580,420 587,413 587,412 589,410 589,409 591,407 591,406 593,404 593,403 595,401 595,400 596,399 596,398 597,397 597,396 598,395 598,393 599,392 599,390 600,389 600,387 601,386 601,384 602,383 602,380 603,379 603,373 604,372 604,352 603,351 603,346 602,345 602,341 601,340 601,338 600,337 600,334 599,333 599,331 598,330 598,328 597,327 597,325 596,324 596,322 595,321 595,320 594,319 594,318 593,317 593,316 591,314 591,313 589,311 589,310 586,307 586,306 583,303 583,302 569,288 568,288 564,284 563,284 561,282 560,282 559,281 558,281 556,279 555,279 554,278 553,278 552,277 551,277 549,275 548,275 547,274 545,274 544,273 543,273 542,272 540,272 539,271 537,271 536,270 534,270 533,269 529,269 528,268 523,268 522,267 514,267 513,266" stroke="#000" stroke-width="5" /><polygon fill="#000" fill-opacity="0.4" points="501,289 502,288 512,288 513,289 520,289 521,290 524,290 525,291 528,291 529,292 531,292 532,293 534,293 535,294 536,294 537,295 539,295 540,296 541,296 542,297 543,297 544,298 545,298 546,299 547,299 549,301 550,301 553,304 554,304 568,318 568,319 570,321 570,322 572,324 572,325 573,326 573,327 574,328 574,329 575,330 575,331 576,332 576,333 577,334 577,336 578,337 578,339 579,340 579,344 580,345 580,349 581,350 581,359 582,360 582,364 581,365 581,372 580,373 580,376 579,377 579,379 578,380 578,382 577,383 577,385 576,386 576,387 574,389 574,390 573,391 573,392 571,394 571,395 569,397 569,398 566,401 566,402 562,406 562,407 551,418 551,419 546,424 546,425 544,427 544,428 543,429 543,430 542,431 542,436 541,437 541,464 540,465 539,464 527,464 526,465 519,465 518,464 518,463 519,462 519,396 518,395 518,374 519,373 537,373 538,372 539,372 540,371 541,371 544,368 544,367 545,366 545,365 546,364 546,362 547,361 547,357 546,356 546,355 545,354 545,353 544,352 543,352 542,351 540,351 539,350 535,350 534,351 522,351 521,352 493,352 492,351 484,351 483,350 478,350 477,351 472,351 471,352 470,351 470,348 469,347 469,346 466,343 464,343 463,342 456,342 455,343 454,343 452,345 452,346 451,347 451,349 450,350 450,354 449,355 449,361 450,362 450,364 451,365 451,366 455,370 461,370 462,369 463,369 464,368 465,368 468,365 469,365 469,363 470,362 472,364 472,366 473,367 473,368 475,370 476,370 477,371 478,371 479,372 481,372 482,373 497,373 498,374 498,464 497,465 475,465 474,464 474,443 473,442 473,436 472,435 472,432 471,431 471,430 470,429 470,428 468,426 468,425 460,417 460,416 459,416 457,414 457,413 447,403 447,402 444,399 444,398 442,396 442,395 441,394 441,393 440,392 440,391 439,390 439,389 438,388 438,387 437,386 437,384 436,383 436,381 435,380 435,377 434,376 434,372 433,371 433,351 434,350 434,345 435,344 435,341 436,340 436,337 437,336 437,334 438,333 438,332 439,331 439,329 440,328 440,327 442,325 442,324 443,323 443,322 445,320 445,319 448,316 448,315 458,305 459,305 462,302 463,302 465,300 466,300 467,299 468,299 470,297 471,297 472,296 473,296 474,295 475,295 476,294 478,294 479,293 481,293 482,292 484,292 485,291 487,291 488,290 491,290 492,289" stroke="#000" stroke-width="5" /><polygon fill="#000" fill-opacity="0.4" points="498,212 497,213 484,213 483,214 475,214 474,215 468,215 467,216 462,216 461,217 458,217 457,218 453,218 452,219 449,219 448,220 444,220 443,221 440,221 439,222 437,222 436,223 434,223 433,224 431,224 430,225 428,225 427,226 425,226 424,227 422,227 421,228 419,228 418,229 417,229 416,230 414,230 413,231 412,231 411,232 409,232 408,233 407,233 406,234 404,234 403,235 402,235 401,236 400,236 399,237 397,237 396,238 395,238 394,239 393,239 392,240 391,240 390,241 389,241 388,242 387,242 386,243 385,243 383,245 382,245 381,246 380,246 379,247 378,247 376,249 375,249 374,250 373,250 372,251 371,251 369,253 368,253 367,254 366,254 364,256 363,256 360,259 359,259 357,261 356,261 353,264 352,264 349,267 348,267 343,272 342,272 339,275 338,275 334,279 333,279 327,285 326,285 314,297 314,298 307,305 307,306 301,312 301,313 297,317 297,318 294,321 294,322 291,325 291,326 288,329 288,330 286,332 286,333 284,335 284,336 282,338 282,339 281,340 281,341 279,343 279,344 278,345 278,346 277,347 277,348 276,349 276,350 274,352 274,353 273,354 273,355 272,356 272,357 271,358 271,359 270,360 270,361 269,362 269,363 268,364 268,365 267,366 267,367 266,368 266,369 265,370 265,371 264,372 264,374 263,375 263,376 262,377 262,379 261,380 261,381 260,382 260,384 259,385 259,386 258,387 258,389 257,390 257,392 256,393 256,395 255,396 255,398 254,399 254,402 253,403 253,405 252,406 252,408 251,409 251,412 250,413 250,415 249,416 249,420 248,421 248,425 247,426 247,430 246,431 246,437 245,438 245,445 244,446 244,453 243,454 243,483 244,484 244,486 249,491 250,491 251,492 261,492 262,491 264,491 266,489 267,489 268,488 269,488 270,487 270,472 271,471 271,454 272,453 272,446 273,445 273,440 274,439 274,434 275,433 275,429 276,428 276,426 277,425 277,422 278,421 278,419 279,418 279,415 280,414 280,412 281,411 281,409 282,408 282,407 283,406 283,404 284,403 284,401 285,400 285,398 286,397 286,396 287,395 287,393 288,392 288,391 289,390 289,388 290,387 290,386 291,385 291,384 292,383 292,382 293,381 293,379 294,378 294,377 295,376 295,375 296,374 296,373 297,372 297,371 299,369 299,368 300,367 300,366 301,365 301,364 303,362 303,361 304,360 304,359 306,357 306,356 307,355 307,354 309,352 309,351 310,350 310,349 312,347 312,346 313,345 313,344 316,341 316,340 319,337 319,336 326,329 326,328 337,317 337,316 338,315 339,315 339,314 346,307 347,307 354,300 355,300 360,295 361,295 364,292 365,292 370,287 371,287 373,285 374,285 376,283 377,283 378,282 379,282 381,280 382,280 383,281 381,283 381,284 380,285 380,291 381,292 381,293 382,294 382,295 384,297 384,298 385,299 385,300 387,302 387,303 388,304 388,305 393,310 394,310 395,311 396,311 397,310 399,310 400,309 401,309 402,308 403,308 404,307 405,307 407,305 407,304 409,302 409,301 410,300 410,298 409,297 409,295 407,293 407,292 406,291 406,290 405,289 405,288 403,286 403,285 402,284 402,283 401,282 401,281 398,278 398,277 397,276 396,276 395,275 394,275 393,276 391,276 390,277 389,277 388,278 387,278 385,280 384,280 383,279 386,276 387,276 389,274 390,274 391,273 392,273 393,272 394,272 396,270 397,270 398,269 399,269 400,268 401,268 402,267 403,267 404,266 405,266 406,265 408,265 409,264 410,264 411,263 412,263 413,262 414,262 415,261 417,261 418,260 419,260 420,259 422,259 423,258 424,258 425,257 427,257 428,256 430,256 431,255 434,255 435,254 437,254 438,253 440,253 441,252 443,252 444,251 447,251 448,250 451,250 452,249 455,249 456,248 459,248 460,247 464,247 465,246 469,246 470,245 475,245 476,244 484,244 485,243 499,243 500,242 521,242 522,243 531,243 532,244 538,244 539,245 545,245 546,246 551,246 552,247 556,247 557,248 560,248 561,249 564,249 565,250 568,250 569,251 572,251 573,252 575,252 576,253 578,253 579,254 581,254 582,255 585,255 586,256 587,256 588,257 591,257 592,258 593,258 594,259 596,259 597,260 598,260 599,261 600,261 601,262 602,262 603,263 604,263 605,264 606,264 607,265 609,265 610,266 611,266 612,267 613,267 614,268 615,268 616,269 617,269 619,271 620,271 622,273 622,274 621,275 620,275 618,277 618,278 613,283 613,284 611,286 611,287 609,289 609,290 607,292 607,293 606,294 606,299 607,300 607,301 608,302 608,303 613,308 614,308 615,309 621,309 622,308 623,308 628,303 628,302 630,300 630,299 631,298 631,297 633,295 633,294 634,293 634,291 635,290 635,284 634,283 635,282 637,282 638,283 639,283 640,284 641,284 643,286 644,286 646,288 647,288 649,290 650,290 654,294 655,294 661,300 662,300 685,323 685,324 698,337 698,338 701,341 701,342 703,344 703,345 704,346 704,347 706,349 706,350 707,351 707,352 708,353 708,354 709,355 709,356 711,358 711,359 712,360 712,361 714,363 714,364 715,365 715,366 716,367 716,368 717,369 717,370 718,371 718,372 719,373 719,374 720,375 720,376 721,377 721,378 722,379 722,380 723,381 723,382 724,383 724,384 725,385 725,386 726,387 726,388 727,389 727,390 728,391 728,393 729,394 729,395 730,396 730,398 731,399 731,400 732,401 732,402 733,403 733,405 734,406 734,407 735,408 735,410 736,411 736,412 737,413 737,415 738,416 738,418 739,419 739,421 740,422 740,425 741,426 741,429 742,430 742,436 743,437 743,446 744,447 744,457 745,458 745,480 746,481 746,485 749,488 750,488 751,489 752,489 753,490 754,490 755,491 759,491 760,492 763,492 764,491 767,491 769,489 770,489 773,486 773,477 774,476 773,475 773,454 772,453 772,444 771,443 771,437 770,436 770,431 769,430 769,425 768,424 768,421 767,420 767,417 766,416 766,412 765,411 765,409 764,408 764,406 763,405 763,402 762,401 762,399 761,398 761,396 760,395 760,393 759,392 759,391 758,390 758,388 757,387 757,385 756,384 756,383 755,382 755,380 754,379 754,378 753,377 753,376 752,375 752,374 751,373 751,372 750,371 750,370 749,369 749,368 748,367 748,366 747,365 747,364 746,363 746,362 745,361 745,360 744,359 744,358 743,357 743,356 742,355 742,354 741,353 741,352 739,350 739,349 738,348 738,347 736,345 736,344 734,342 734,341 732,339 732,338 730,336 730,335 728,333 728,332 726,330 726,329 724,327 724,326 721,323 721,322 718,319 718,318 715,315 715,314 710,309 710,308 678,276 677,276 672,271 671,271 666,266 665,266 663,264 662,264 658,260 657,260 655,258 654,258 652,256 651,256 649,254 648,254 646,252 645,252 644,251 643,251 641,249 640,249 639,248 638,248 637,247 636,247 634,245 633,245 632,244 631,244 630,243 629,243 628,242 627,242 626,241 625,241 624,240 623,240 622,239 621,239 620,238 619,238 618,237 617,237 616,236 615,236 614,235 613,235 612,234 610,234 609,233 608,233 607,232 606,232 605,231 604,231 603,230 601,230 600,229 598,229 597,228 595,228 594,227 592,227 591,226 589,226 588,225 586,225 585,224 583,224 582,223 580,223 579,222 576,222 575,221 572,221 571,220 568,220 567,219 563,219 562,218 558,218 557,217 553,217 552,216 547,216 546,215 541,215 540,214 531,214 530,213 513,213 512,212" stroke="#000" stroke-width="5" /><polygon fill="#000" fill-opacity="0.4" points="382,280 383,279 384,280 383,281" stroke="#000" stroke-width="5" /><polygon fill="#000" fill-opacity="0.4" points="348,171 347,172 329,172 328,173 323,173 322,174 318,174 317,175 313,175 312,176 308,176 307,177 304,177 303,178 301,178 300,179 298,179 297,180 295,180 294,181 292,181 291,182 289,182 288,183 286,183 285,184 284,184 283,185 281,185 280,186 278,186 277,187 276,187 275,188 274,188 273,189 272,189 271,190 270,190 269,191 268,191 267,192 266,192 265,193 264,193 263,194 262,194 261,195 260,195 258,197 257,197 255,199 254,199 252,201 251,201 248,204 247,204 243,208 242,208 237,213 236,213 226,223 226,224 219,231 219,232 215,236 215,237 212,240 212,241 209,244 209,245 208,246 208,247 207,248 207,249 205,251 205,252 204,253 204,254 202,256 202,257 201,258 201,259 200,260 200,261 199,262 199,263 198,264 198,266 197,267 197,268 196,269 196,271 195,272 195,273 194,274 194,276 193,277 193,279 192,280 192,282 191,283 191,285 190,286 190,288 189,289 189,292 188,293 188,296 187,297 187,299 186,300 186,304 185,305 185,309 184,310 184,316 183,317 183,686 184,687 184,699 185,700 185,707 186,708 186,714 187,715 187,719 188,720 188,723 189,724 189,726 190,727 190,729 191,730 191,733 192,734 192,736 193,737 193,738 194,739 194,741 195,742 195,744 196,745 196,746 197,747 197,748 198,749 198,750 199,751 199,753 200,754 200,755 201,756 201,757 202,758 202,759 203,760 203,761 204,762 204,763 206,765 206,766 207,767 207,768 209,770 209,771 211,773 211,774 213,776 213,777 215,779 215,780 218,783 218,784 223,789 223,790 236,803 237,803 241,807 242,807 246,811 247,811 249,813 250,813 252,815 253,815 255,817 256,817 258,819 259,819 260,820 261,820 262,821 263,821 265,823 267,823 269,825 271,825 272,826 273,826 274,827 276,827 277,828 278,828 279,829 281,829 282,830 283,830 284,831 287,831 288,832 290,832 291,833 294,833 295,834 298,834 299,835 303,835 304,836 308,836 309,837 314,837 315,838 321,838 322,839 335,839 336,840 689,840 690,839 700,839 701,838 706,838 707,837 711,837 712,836 715,836 716,835 720,835 721,834 723,834 724,833 727,833 728,832 730,832 731,831 733,831 734,830 736,830 737,829 739,829 740,828 741,828 742,827 744,827 745,826 746,826 747,825 748,825 749,824 750,824 751,823 752,823 753,822 754,822 755,821 756,821 758,819 759,819 760,818 761,818 763,816 764,816 765,815 766,815 768,813 769,813 771,811 772,811 775,808 776,808 778,806 779,806 786,799 787,799 789,797 789,796 790,795 791,795 795,791 795,790 799,786 799,785 803,781 803,780 805,778 805,777 807,775 807,774 809,772 809,771 811,769 811,768 812,767 812,766 814,764 814,763 815,762 815,761 816,760 816,759 817,758 817,757 818,756 818,755 819,754 819,753 820,752 820,751 821,750 821,748 822,747 822,746 823,745 823,743 824,742 824,740 825,739 825,737 826,736 826,735 827,734 827,731 828,730 828,728 829,727 829,723 830,722 830,720 831,719 831,715 832,714 832,710 833,709 833,703 834,702 834,688 835,687 835,676 834,675 834,317 833,316 833,310 832,309 832,305 831,304 831,301 830,300 830,297 829,296 829,293 828,292 828,289 827,288 827,286 826,285 826,283 825,282 825,280 824,279 824,278 823,277 823,275 822,274 822,272 821,271 821,270 820,269 820,268 819,267 819,265 818,264 818,263 817,262 817,261 815,259 815,258 814,257 814,256 813,255 813,254 811,252 811,251 810,250 810,249 808,247 808,246 806,244 806,243 804,241 804,240 802,238 802,237 800,235 800,234 795,229 795,228 782,215 781,215 774,208 773,208 769,204 768,204 766,202 765,202 763,200 762,200 760,198 759,198 757,196 756,196 755,195 754,195 752,193 751,193 750,192 749,192 748,191 747,191 746,190 745,190 744,189 743,189 742,188 741,188 740,187 738,187 737,186 736,186 735,185 734,185 733,184 731,184 730,183 728,183 727,182 725,182 724,181 722,181 721,180 718,180 717,179 714,179 713,178 711,178 710,177 707,177 706,176 703,176 702,175 698,175 697,174 693,174 692,173 686,173 685,172 660,172 659,171 564,171 563,172 552,172 551,171 536,171 535,172 464,172 463,171" stroke="#000" stroke-width="5" /><polygon fill="#000" fill-opacity="0.4" points="335,203 336,202 415,202 416,203 483,203 484,202 503,202 504,203 515,203 516,202 525,202 526,203 612,203 613,202 680,202 681,203 691,203 692,204 697,204 698,205 703,205 704,206 707,206 708,207 711,207 712,208 714,208 715,209 717,209 718,210 720,210 721,211 723,211 724,212 725,212 726,213 728,213 729,214 730,214 731,215 732,215 733,216 734,216 735,217 736,217 737,218 738,218 740,220 741,220 742,221 743,221 745,223 746,223 748,225 749,225 751,227 752,227 757,232 758,232 774,248 774,249 778,253 778,254 780,256 780,257 782,259 782,260 784,262 784,263 786,265 786,266 788,268 788,269 789,270 789,271 790,272 790,273 792,275 792,276 793,277 793,278 794,279 794,281 795,282 795,283 796,284 796,285 797,286 797,288 798,289 798,290 799,291 799,293 800,294 800,297 801,298 801,300 802,301 802,304 803,305 803,308 804,309 804,313 805,314 805,319 806,320 806,471 807,472 807,489 806,490 806,698 805,699 805,704 804,705 804,709 803,710 803,713 802,714 802,716 801,717 801,720 800,721 800,724 799,725 799,727 798,728 798,730 797,731 797,732 796,733 796,735 795,736 795,737 794,738 794,739 793,740 793,741 792,742 792,743 791,744 791,745 790,746 790,747 788,749 788,750 787,751 787,752 785,754 785,755 783,757 783,758 781,760 781,761 779,763 779,764 776,767 776,768 760,784 759,784 755,788 754,788 752,790 751,790 749,792 748,792 746,794 745,794 744,795 743,795 742,796 741,796 740,797 739,797 738,798 737,798 736,799 735,799 734,800 732,800 731,801 729,801 728,802 726,802 725,803 724,803 723,804 721,804 720,805 718,805 717,806 714,806 713,807 711,807 710,808 706,808 705,809 700,809 699,810 693,810 692,811 518,811 517,812 352,812 351,811 322,811 321,810 316,810 315,809 311,809 310,808 307,808 306,807 303,807 302,806 299,806 298,805 296,805 295,804 293,804 292,803 290,803 289,802 287,802 286,801 285,801 284,800 282,800 281,799 280,799 279,798 278,798 277,797 276,797 275,796 274,796 272,794 271,794 269,792 268,792 266,790 265,790 261,786 260,786 254,780 253,780 252,779 252,778 241,767 241,766 239,764 239,763 236,760 236,759 234,757 234,756 232,754 232,753 231,752 231,751 229,749 229,748 228,747 228,746 227,745 227,744 226,743 226,742 225,741 225,739 224,738 224,737 223,736 223,735 222,734 222,732 221,731 221,730 220,729 220,727 219,726 219,724 218,723 218,721 217,720 217,718 216,717 216,715 215,714 215,711 214,710 214,707 213,706 213,702 212,701 212,691 211,690 211,669 212,668 212,592 211,591 211,584 212,583 212,561 211,560 211,539 212,538 211,537 211,524 212,523 212,380 211,379 211,364 212,363 212,318 213,317 213,312 214,311 214,308 215,307 215,304 216,303 216,301 217,300 217,297 218,296 218,294 219,293 219,291 220,290 220,288 221,287 221,285 222,284 222,282 223,281 223,280 224,279 224,278 225,277 225,275 226,274 226,273 227,272 227,271 229,269 229,268 230,267 230,266 231,265 231,264 233,262 233,261 235,259 235,258 237,256 237,255 240,252 240,251 246,245 246,244 256,234 257,234 261,230 262,230 265,227 266,227 268,225 269,225 271,223 272,223 274,221 275,221 277,219 278,219 279,218 280,218 281,217 282,217 283,216 284,216 285,215 286,215 287,214 288,214 289,213 290,213 291,212 293,212 294,211 296,211 297,210 299,210 300,209 302,209 303,208 305,208 306,207 309,207 310,206 313,206 314,205 317,205 318,204 322,204 323,203" stroke="#000" stroke-width="5" /><polygon fill="#000" fill-opacity="0.4" points="0,0 0,1023 1023,1023 1023,0" stroke="#000" stroke-width="5" /><polygon fill="#000" fill-opacity="0.4" points="379,129 380,128 391,128 392,129 491,129 492,128 527,128 528,129 582,129 583,128 588,128 589,129 719,129 720,130 727,130 728,131 734,131 735,132 739,132 740,133 745,133 746,134 749,134 750,135 754,135 755,136 758,136 759,137 761,137 762,138 765,138 766,139 768,139 769,140 771,140 772,141 773,141 774,142 776,142 777,143 779,143 780,144 781,144 782,145 784,145 785,146 786,146 787,147 788,147 789,148 790,148 791,149 792,149 793,150 794,150 796,152 797,152 798,153 799,153 800,154 801,154 803,156 804,156 806,158 807,158 809,160 810,160 812,162 813,162 816,165 817,165 821,169 822,169 827,174 828,174 841,187 841,188 847,194 847,195 850,198 850,199 852,201 852,202 855,205 855,206 856,207 856,208 858,210 858,211 859,212 859,213 861,215 861,216 862,217 862,218 863,219 863,220 864,221 864,222 865,223 865,224 866,225 866,226 867,227 867,228 868,229 868,230 869,231 869,232 870,233 870,234 871,235 871,236 872,237 872,239 873,240 873,241 874,242 874,244 875,245 875,246 876,247 876,249 877,250 877,253 878,254 878,256 879,257 879,259 880,260 880,263 881,264 881,268 882,269 882,273 883,274 883,279 884,280 884,285 885,286 885,292 886,293 886,735 885,736 885,741 884,742 884,747 883,748 883,752 882,753 882,756 881,757 881,760 880,761 880,764 879,765 879,767 878,768 878,771 877,772 877,775 876,776 876,778 875,779 875,781 874,782 874,784 873,785 873,786 872,787 872,788 871,789 871,791 870,792 870,793 869,794 869,796 868,797 868,798 867,799 867,800 866,801 866,802 865,803 865,804 863,806 863,807 862,808 862,809 861,810 861,811 859,813 859,814 857,816 857,817 854,820 854,821 852,823 852,824 849,827 849,828 845,832 845,833 838,840 838,841 830,849 829,849 822,856 821,856 818,859 817,859 814,862 813,862 811,864 810,864 808,866 807,866 806,867 805,867 803,869 802,869 801,870 800,870 799,871 798,871 796,873 795,873 794,874 793,874 792,875 790,875 789,876 788,876 787,877 786,877 785,878 784,878 783,879 781,879 780,880 779,880 778,881 776,881 775,882 773,882 772,883 770,883 769,884 767,884 766,885 764,885 763,886 760,886 759,887 756,887 755,888 752,888 751,889 747,889 746,890 742,890 741,891 737,891 736,892 730,892 729,893 722,893 721,894 299,894 298,893 290,893 289,892 284,892 283,891 278,891 277,890 274,890 273,889 269,889 268,888 265,888 264,887 261,887 260,886 257,886 256,885 254,885 253,884 251,884 250,883 248,883 247,882 245,882 244,881 242,881 241,880 240,880 239,879 237,879 236,878 235,878 234,877 233,877 232,876 230,876 229,875 228,875 227,874 226,874 225,873 224,873 223,872 222,872 220,870 219,870 217,868 216,868 215,867 214,867 213,866 212,866 210,864 209,864 207,862 206,862 203,859 202,859 199,856 198,856 192,850 191,850 180,839 180,838 171,829 171,828 168,825 168,824 165,821 165,820 163,818 163,817 161,815 161,814 159,812 159,811 158,810 158,809 156,807 156,806 155,805 155,804 153,802 153,800 152,799 152,798 151,797 151,796 150,795 150,794 149,793 149,792 148,791 148,789 147,788 147,786 146,785 146,784 145,783 145,781 144,780 144,778 143,777 143,775 142,774 142,771 141,770 141,768 140,767 140,764 139,763 139,760 138,759 138,756 137,755 137,752 136,751 136,747 135,746 135,741 134,740 134,734 133,733 133,723 132,722 132,302 133,301 133,290 134,289 134,284 135,283 135,279 136,278 136,275 137,274 137,270 138,269 138,266 139,265 139,261 140,260 140,258 141,257 141,254 142,253 142,251 143,250 143,248 144,247 144,246 145,245 145,243 146,242 146,240 147,239 147,238 148,237 148,235 149,234 149,233 150,232 150,231 151,230 151,229 152,228 152,227 153,226 153,225 154,224 154,223 155,222 155,221 157,219 157,218 158,217 158,216 159,215 159,214 160,213 160,212 161,211 161,210 163,208 163,207 166,204 166,203 169,200 169,199 172,196 172,195 177,190 177,189 194,172 195,172 199,168 200,168 203,165 204,165 207,162 208,162 210,160 211,160 213,158 214,158 216,156 217,156 218,155 219,155 221,153 222,153 223,152 224,152 225,151 226,151 227,150 228,150 229,149 230,149 231,148 232,148 233,147 234,147 235,146 236,146 237,145 238,145 239,144 240,144 241,143 243,143 244,142 246,142 247,141 248,141 249,140 251,140 252,139 254,139 255,138 257,138 258,137 261,137 262,136 264,136 265,135 268,135 269,134 272,134 273,133 277,133 278,132 281,132 282,131 289,131 290,130 296,130 297,129" stroke="#000" stroke-width="5" /></svg>