<?xml version="1.0" encoding="utf-8" ?>
<svg baseProfile="tiny" height="1024" version="1.2" width="1024" xmlns="http://www.w3.org/2000/svg" xmlns:ev="http://www.w3.org/2001/xml-events" xmlns:xlink="http://www.w3.org/1999/xlink"><defs /><rect fill="#000" height="1024" width="1024" x="0" y="0" /><polygon fill="#fff" fill-opacity="0.4" points="450,601 449,602 448,602 446,604 445,604 441,608 441,609 440,610 440,611 439,612 439,715 440,716 440,720 442,722 442,723 447,728 448,728 449,729 450,729 451,730 458,730 459,729 486,729 487,730 529,730 530,729 560,729 561,728 563,728 569,722 569,721 570,720 570,719 571,718 571,699 570,698 570,630 571,629 571,614 570,613 570,611 569,610 569,609 563,603 562,603 561,602 526,602 525,601" stroke="#fff" stroke-width="5" /><polygon fill="#fff" fill-opacity="0.4" points="497,623 498,622 508,622 509,623 522,623 523,624 526,624 527,625 528,625 529,626 529,627 530,628 530,641 528,643 513,643 512,642 510,642 509,643 500,643 499,644 498,644 495,647 495,648 494,649 494,651 493,652 493,658 494,659 494,661 495,662 495,663 495,661 496,660 528,660 530,662 530,665 531,666 531,670 530,671 530,675 528,677 497,677 496,676 495,676 495,682 496,683 496,685 497,686 497,687 498,688 506,688 507,689 513,689 514,688 537,688 538,689 538,706 536,708 524,708 523,709 497,709 496,708 490,708 489,707 488,707 487,706 486,706 483,703 483,702 480,699 480,698 478,696 478,695 476,693 476,691 475,690 475,688 474,687 474,684 473,683 473,678 472,677 472,645 473,644 473,642 474,641 474,640 475,639 475,638 476,637 476,636 480,632 480,631 485,626 486,626 487,625 488,625 489,624 491,624 492,623" stroke="#fff" stroke-width="5" /><polygon fill="#fff" fill-opacity="0.4" points="502,289 501,290 492,290 491,291 488,291 487,292 485,292 484,293 482,293 481,294 479,294 478,295 476,295 475,296 474,296 473,297 472,297 471,298 470,298 468,300 467,300 466,301 465,301 463,303 462,303 459,306 458,306 449,315 449,316 446,319 446,320 444,322 444,323 443,324 443,325 441,327 441,328 440,329 440,331 439,332 439,333 438,334 438,336 437,337 437,340 436,341 436,344 435,345 435,350 434,351 434,371 435,372 435,376 436,377 436,380 437,381 437,383 438,384 438,386 439,387 439,388 440,389 440,390 441,391 441,392 442,393 442,394 443,395 443,396 445,398 445,399 448,402 448,403 458,413 458,414 459,415 460,415 461,416 461,417 469,425 469,426 471,428 471,429 472,430 472,431 473,432 473,435 474,436 474,442 475,443 475,464 497,464 497,374 482,374 481,373 479,373 478,372 477,372 476,371 475,371 472,368 472,367 471,366 471,364 470,363 470,365 469,366 468,366 465,369 464,369 463,370 462,370 461,371 455,371 450,366 450,365 449,364 449,362 448,361 448,355 449,354 449,350 450,349 450,347 451,346 451,345 454,342 455,342 456,341 463,341 464,342 466,342 470,346 470,347 471,348 471,351 472,350 477,350 478,349 483,349 484,350 492,350 493,351 521,351 522,350 534,350 535,349 539,349 540,350 542,350 543,351 544,351 546,353 546,354 547,355 547,356 548,357 548,361 547,362 547,364 546,365 546,366 545,367 545,368 541,372 540,372 539,373 538,373 537,374 519,374 519,395 520,396 520,462 519,463 519,464 526,464 527,463 539,463 540,464 540,437 541,436 541,431 542,430 542,429 543,428 543,427 545,425 545,424 550,419 550,418 561,407 561,406 565,402 565,401 568,398 568,397 570,395 570,394 572,392 572,391 573,390 573,389 575,387 575,386 576,385 576,383 577,382 577,380 578,379 578,377 579,376 579,373 580,372 580,365 581,364 581,360 580,359 580,350 579,349 579,345 578,344 578,340 577,339 577,337 576,336 576,334 575,333 575,332 574,331 574,330 573,329 573,328 572,327 572,326 571,325 571,324 569,322 569,321 567,319 567,318 554,305 553,305 550,302 549,302 547,300 546,300 545,299 544,299 543,298 542,298 541,297 540,297 539,296 537,296 536,295 535,295 534,294 532,294 531,293 529,293 528,292 525,292 524,291 521,291 520,290 513,290 512,289" stroke="#fff" stroke-width="5" /><polygon fill="#fff" fill-opacity="0.4" points="488,309 489,308 491,308 492,309 493,309 498,314 498,316 499,317 499,320 498,321 498,322 497,323 497,324 493,328 492,328 491,329 490,329 489,330 487,330 486,331 484,331 483,332 477,332 476,331 475,331 471,327 471,325 470,324 470,322 471,321 471,320 472,319 472,318 476,314 477,314 480,311 481,311 482,310 484,310 485,309" stroke="#fff" stroke-width="5" /><polygon fill="#fff" fill-opacity="0.4" points="336,203 335,204 323,204 322,205 318,205 317,206 314,206 313,207 310,207 309,208 306,208 305,209 303,209 302,210 300,210 299,211 297,211 296,212 294,212 293,213 291,213 290,214 289,214 288,215 287,215 286,216 285,216 284,217 283,217 282,218 281,218 280,219 279,219 278,220 277,220 275,222 274,222 272,224 271,224 269,226 268,226 266,228 265,228 262,231 261,231 257,235 256,235 247,244 247,245 241,251 241,252 238,255 238,256 236,258 236,259 234,261 234,262 232,264 232,265 231,266 231,267 230,268 230,269 228,271 228,272 227,273 227,274 226,275 226,277 225,278 225,279 224,280 224,281 223,282 223,284 222,285 222,287 221,288 221,290 220,291 220,293 219,294 219,296 218,297 218,300 217,301 217,303 216,304 216,307 215,308 215,311 214,312 214,317 213,318 213,363 212,364 212,379 213,380 213,523 212,524 212,537 213,538 212,539 212,560 213,561 213,583 212,584 212,591 213,592 213,668 212,669 212,690 213,691 213,701 214,702 214,706 215,707 215,710 216,711 216,714 217,715 217,717 218,718 218,720 219,721 219,723 220,724 220,726 221,727 221,729 222,730 222,731 223,732 223,734 224,735 224,736 225,737 225,738 226,739 226,741 227,742 227,743 228,744 228,745 229,746 229,747 230,748 230,749 232,751 232,752 233,753 233,754 235,756 235,757 237,759 237,760 240,763 240,764 242,766 242,767 253,778 253,779 254,779 260,785 261,785 265,789 266,789 268,791 269,791 271,793 272,793 274,795 275,795 276,796 277,796 278,797 279,797 280,798 281,798 282,799 284,799 285,800 286,800 287,801 289,801 290,802 292,802 293,803 295,803 296,804 298,804 299,805 302,805 303,806 306,806 307,807 310,807 311,808 315,808 316,809 321,809 322,810 351,810 352,811 517,811 518,810 692,810 693,809 699,809 700,808 705,808 706,807 710,807 711,806 713,806 714,805 717,805 718,804 720,804 721,803 723,803 724,802 725,802 726,801 728,801 729,800 731,800 732,799 734,799 735,798 736,798 737,797 738,797 739,796 740,796 741,795 742,795 743,794 744,794 745,793 746,793 748,791 749,791 751,789 752,789 754,787 755,787 759,783 760,783 775,768 775,767 778,764 778,763 780,761 780,760 782,758 782,757 784,755 784,754 786,752 786,751 787,750 787,749 789,747 789,746 790,745 790,744 791,743 791,742 792,741 792,740 793,739 793,738 794,737 794,736 795,735 795,733 796,732 796,731 797,730 797,728 798,727 798,725 799,724 799,721 800,720 800,717 801,716 801,714 802,713 802,710 803,709 803,705 804,704 804,699 805,698 805,490 806,489 806,472 805,471 805,320 804,319 804,314 803,313 803,309 802,308 802,305 801,304 801,301 800,300 800,298 799,297 799,294 798,293 798,291 797,290 797,289 796,288 796,286 795,285 795,284 794,283 794,282 793,281 793,279 792,278 792,277 791,276 791,275 789,273 789,272 788,271 788,270 787,269 787,268 785,266 785,265 783,263 783,262 781,260 781,259 779,257 779,256 777,254 777,253 773,249 773,248 758,233 757,233 752,228 751,228 749,226 748,226 746,224 745,224 743,222 742,222 741,221 740,221 738,219 737,219 736,218 735,218 734,217 733,217 732,216 731,216 730,215 729,215 728,214 726,214 725,213 724,213 723,212 721,212 720,211 718,211 717,210 715,210 714,209 712,209 711,208 708,208 707,207 704,207 703,206 698,206 697,205 692,205 691,204 681,204 680,203 613,203 612,204 526,204 525,203 516,203 515,204 504,204 503,203 484,203 483,204 416,204 415,203" stroke="#fff" stroke-width="5" /><polygon fill="#fff" fill-opacity="0.4" points="685,684 686,683 691,683 692,684 694,684 695,685 696,685 699,688 699,689 700,690 700,695 701,696 701,715 700,716 700,717 696,721 695,721 694,722 691,722 690,723 689,723 688,722 684,722 682,720 681,720 678,717 678,716 677,715 677,705 676,704 676,700 677,699 677,690 678,689 678,688 681,685 682,685 683,684" stroke="#fff" stroke-width="5" /><polygon fill="#fff" fill-opacity="0.4" points="720,668 722,668 723,669 725,669 726,670 727,670 728,671 729,671 730,672 731,672 734,675 735,675 748,688 748,689 749,690 749,692 750,693 750,694 749,695 749,697 748,698 748,699 743,704 742,704 741,705 738,705 737,706 735,706 734,705 732,705 730,703 729,703 727,701 726,701 716,691 716,690 713,687 713,686 712,685 712,684 711,683 711,677 712,676 712,675 715,672 716,672" stroke="#fff" stroke-width="5" /><polygon fill="#fff" fill-opacity="0.4" points="651,669 652,668 658,668 659,669 660,669 663,672 663,673 664,674 664,675 665,676 665,677 666,678 666,683 665,684 665,685 664,686 664,687 661,690 661,691 652,700 651,700 649,702 648,702 647,703 646,703 645,704 639,704 638,703 637,703 636,702 635,702 629,696 629,695 628,694 628,688 629,687 629,686 632,683 632,682 635,679 636,679 639,676 640,676 643,673 644,673 646,671 647,671 648,670 649,670 650,669" stroke="#fff" stroke-width="5" /><polygon fill="#fff" fill-opacity="0.4" points="737,633 738,632 759,632 760,633 762,633 768,639 768,640 769,641 769,647 768,648 768,650 763,655 762,655 761,656 757,656 756,657 747,657 746,656 738,656 737,655 735,655 734,654 733,654 730,651 730,650 729,649 729,648 728,647 728,638 733,633" stroke="#fff" stroke-width="5" /><polygon fill="#fff" fill-opacity="0.4" points="623,632 624,631 646,631 647,632 649,632 650,633 651,633 652,634 652,635 653,636 653,646 652,647 652,648 647,653 646,653 645,654 642,654 641,655 622,655 621,654 619,654 618,653 617,653 612,648 612,640 613,639 613,638 617,634 618,634 620,632" stroke="#fff" stroke-width="5" /><polygon fill="#fff" fill-opacity="0.4" points="686,611 687,610 692,610 693,611 698,611 699,612 702,612 703,613 705,613 706,614 707,614 708,615 709,615 712,618 712,619 714,621 714,622 715,623 715,625 716,626 716,627 717,628 717,629 718,630 718,631 719,632 719,633 720,634 720,635 721,636 721,637 722,638 722,639 723,640 723,647 722,648 722,650 721,651 721,652 720,653 720,654 717,657 717,658 716,659 714,659 713,660 710,660 707,657 707,644 706,643 706,640 705,639 705,638 704,637 704,636 700,632 699,632 698,631 697,631 696,630 686,630 685,631 683,631 682,632 680,632 678,634 677,634 672,639 669,639 668,640 667,640 666,639 665,639 664,638 663,639 661,637 660,637 658,635 658,630 659,629 659,628 669,618 670,618 673,615 674,615 676,613 677,613 678,612 680,612 681,611" stroke="#fff" stroke-width="5" /><polygon fill="#fff" fill-opacity="0.4" points="734,583 735,582 740,582 741,583 742,583 743,584 744,584 748,588 748,589 749,590 749,591 750,592 750,599 749,600 749,601 740,610 739,610 736,613 735,613 733,615 732,615 731,616 729,616 728,617 721,617 714,610 714,609 713,608 713,604 714,603 714,601 715,600 715,599 718,596 718,595 724,589 725,589 729,585 730,585 731,584 732,584 733,583" stroke="#fff" stroke-width="5" /><polygon fill="#fff" fill-opacity="0.4" points="636,583 637,582 643,582 644,583 645,583 647,585 648,585 650,587 651,587 655,591 656,591 662,597 662,598 665,601 665,603 666,604 666,608 665,609 665,610 659,616 658,616 657,617 656,617 655,618 650,618 649,617 648,617 646,615 645,615 642,612 641,612 633,604 633,603 630,600 630,599 629,598 629,597 628,596 628,591 629,590 629,588 633,584 634,584 635,583" stroke="#fff" stroke-width="5" /><polygon fill="#fff" fill-opacity="0.4" points="467,578 468,577 495,577 496,578 565,578 566,579 569,579 570,580 572,580 573,581 574,581 575,582 576,582 578,584 579,584 588,593 588,594 590,596 590,597 591,598 591,599 592,600 592,602 593,603 593,604 594,605 594,608 595,609 595,615 596,616 596,720 595,721 595,724 594,725 594,727 593,728 593,730 592,731 592,732 591,733 591,734 589,736 589,737 587,739 587,740 581,746 580,746 579,747 578,747 576,749 575,749 574,750 573,750 572,751 571,751 570,752 568,752 567,753 565,753 564,754 546,754 545,755 500,755 499,754 451,754 450,753 445,753 444,752 442,752 441,751 440,751 439,750 437,750 435,748 434,748 433,747 432,747 430,745 429,745 426,742 426,741 422,737 422,736 420,734 420,733 419,732 419,731 418,730 418,728 417,727 417,725 416,724 416,721 415,720 415,631 414,630 414,628 415,627 415,608 416,607 416,604 417,603 417,602 418,601 418,599 419,598 419,597 420,596 420,595 423,592 423,591 427,587 428,587 430,585 431,585 433,583 434,583 435,582 436,582 437,581 439,581 440,580 442,580 443,579 446,579 447,578" stroke="#fff" stroke-width="5" /><polygon fill="#fff" fill-opacity="0.4" points="683,564 684,563 693,563 694,564 695,564 699,568 699,569 700,570 700,574 701,575 701,591 700,592 700,596 695,601 694,601 693,602 685,602 684,601 683,601 678,596 678,595 677,594 677,580 676,579 676,576 677,575 677,570 678,569 678,568 682,564" stroke="#fff" stroke-width="5" /><polygon fill="#fff" fill-opacity="0.4" points="544,493 551,493 552,494 559,494 563,498 563,499 564,500 564,502 565,503 565,510 564,511 564,513 562,515 562,516 560,518 560,519 556,523 555,523 554,524 553,524 552,525 550,525 549,526 533,526 534,526 535,527 535,537 534,538 534,540 532,542 532,543 525,550 524,550 522,552 521,552 520,553 519,553 518,554 516,554 515,555 500,555 499,554 497,554 496,553 495,553 494,552 493,552 492,551 491,551 483,543 483,542 482,541 482,540 481,539 481,538 480,537 480,525 481,524 466,524 465,523 463,523 462,522 461,522 460,521 459,521 454,516 454,515 453,514 453,513 452,512 452,510 451,509 451,506 452,505 452,503 453,502 453,501 455,499 456,499 457,498 469,498 470,499 473,499 474,500 480,500 481,501 506,501 507,502 509,502 510,501 540,501 541,502 541,501 542,500 542,495" stroke="#fff" stroke-width="5" /><polygon fill="#fff" fill-opacity="0.4" points="292,415 296,415 297,416 301,416 302,417 305,417 306,418 308,418 309,419 312,419 313,420 315,420 316,421 317,421 321,425 321,427 322,428 322,432 321,433 321,434 320,435 320,436 315,441 314,441 313,442 306,442 305,441 302,441 301,440 298,440 297,439 294,439 293,438 292,438 291,437 290,437 286,433 286,432 285,431 285,427 286,426 286,424 287,423 287,422 288,421 288,420 289,419 289,418" stroke="#fff" stroke-width="5" /><polygon fill="#fff" fill-opacity="0.4" points="717,415 718,414 723,414 724,415 725,415 730,420 730,421 731,422 731,424 732,425 732,431 731,432 731,433 730,434 729,434 727,436 725,436 724,437 723,437 722,438 719,438 718,439 716,439 715,440 711,440 710,441 700,441 698,439 697,439 695,437 695,436 693,434 693,433 692,432 692,425 693,424 693,423 694,422 694,421 695,420 696,420 697,419 698,419 699,418 701,418 702,417 706,417 707,416 711,416 712,415" stroke="#fff" stroke-width="5" /><polygon fill="#fff" fill-opacity="0.4" points="331,337 332,336 334,336 335,337 337,337 339,339 340,339 344,343 345,343 347,345 348,345 350,347 351,347 358,354 358,360 356,362 356,363 352,367 351,367 350,368 348,368 347,369 344,369 343,368 341,368 340,367 339,367 338,366 337,366 335,364 334,364 332,362 331,362 328,359 327,359 321,353 321,349 322,348 322,347 324,345 324,344 327,341 327,340 330,337" stroke="#fff" stroke-width="5" /><polygon fill="#fff" fill-opacity="0.4" points="678,336 679,335 684,335 691,342 691,343 693,345 693,347 694,348 694,351 688,357 687,357 684,360 683,360 681,362 680,362 678,364 677,364 675,366 674,366 673,367 672,367 671,368 669,368 668,369 666,369 665,368 664,368 659,363 659,362 658,361 658,360 657,359 657,358 656,357 656,354 655,353 656,352 656,351 657,350 657,349 660,346 661,346 663,344 664,344 665,343 666,343 667,342 668,342 670,340 671,340 673,338 674,338 675,337 676,337 677,336" stroke="#fff" stroke-width="5" /><polygon fill="#fff" fill-opacity="0.4" points="393,275 394,274 395,274 396,275 397,275 399,277 399,278 402,281 402,282 403,283 403,284 404,285 404,286 406,288 406,289 407,290 407,291 408,292 408,293 410,295 410,297 411,298 411,300 410,301 410,302 408,304 408,305 405,308 404,308 403,309 402,309 401,310 400,310 399,311 397,311 396,312 395,312 394,311 393,311 387,305 387,304 386,303 386,302 384,300 384,299 383,298 383,297 381,295 381,294 380,293 380,292 379,291 379,285 380,284 380,283 384,279 385,279 387,277 388,277 389,276 390,276 391,275" stroke="#fff" stroke-width="5" /><polygon fill="#fff" fill-opacity="0.4" points="495,266 496,265 513,265 514,266 522,266 523,267 528,267 529,268 533,268 534,269 536,269 537,270 539,270 540,271 542,271 543,272 544,272 545,273 547,273 548,274 549,274 551,276 552,276 553,277 554,277 555,278 556,278 558,280 559,280 560,281 561,281 563,283 564,283 568,287 569,287 584,302 584,303 587,306 587,307 590,310 590,311 592,313 592,314 594,316 594,317 595,318 595,319 596,320 596,321 597,322 597,324 598,325 598,327 599,328 599,330 600,331 600,333 601,334 601,337 602,338 602,340 603,341 603,345 604,346 604,351 605,352 605,372 604,373 604,379 603,380 603,383 602,384 602,386 601,387 601,389 600,390 600,392 599,393 599,395 598,396 598,397 597,398 597,399 596,400 596,401 594,403 594,404 592,406 592,407 590,409 590,410 588,412 588,413 581,420 581,421 567,435 567,436 565,438 565,439 564,440 564,452 565,453 565,471 564,472 564,483 563,484 563,485 560,488 558,488 557,489 543,489 542,488 485,488 484,489 472,489 471,488 458,488 457,487 456,487 455,486 454,486 452,484 452,477 451,476 451,460 452,459 452,442 451,441 451,440 450,439 450,438 443,431 443,430 432,419 432,418 426,412 426,411 424,409 424,408 422,406 422,405 420,403 420,402 419,401 419,400 418,399 418,398 417,397 417,396 416,395 416,393 415,392 415,390 414,389 414,387 413,386 413,383 412,382 412,378 411,377 411,372 410,371 410,347 411,346 411,342 412,341 412,337 413,336 413,333 414,332 414,330 415,329 415,327 416,326 416,324 417,323 417,322 418,321 418,320 419,319 419,318 420,317 420,316 421,315 421,314 422,313 422,312 424,310 424,309 425,308 425,307 428,304 428,303 444,287 445,287 448,284 449,284 451,282 452,282 454,280 455,280 457,278 458,278 459,277 460,277 461,276 462,276 463,275 464,275 465,274 466,274 467,273 468,273 469,272 470,272 471,271 473,271 474,270 475,270 476,269 479,269 480,268 482,268 483,267 487,267 488,266" stroke="#fff" stroke-width="5" /><polygon fill="#fff" fill-opacity="0.4" points="497,212 498,211 512,211 513,212 530,212 531,213 540,213 541,214 546,214 547,215 552,215 553,216 557,216 558,217 562,217 563,218 567,218 568,219 571,219 572,220 575,220 576,221 579,221 580,222 582,222 583,223 585,223 586,224 588,224 589,225 591,225 592,226 594,226 595,227 597,227 598,228 600,228 601,229 603,229 604,230 605,230 606,231 607,231 608,232 609,232 610,233 612,233 613,234 614,234 615,235 616,235 617,236 618,236 619,237 620,237 621,238 622,238 623,239 624,239 625,240 626,240 627,241 628,241 629,242 630,242 631,243 632,243 633,244 634,244 636,246 637,246 638,247 639,247 640,248 641,248 643,250 644,250 645,251 646,251 648,253 649,253 651,255 652,255 654,257 655,257 657,259 658,259 662,263 663,263 665,265 666,265 671,270 672,270 677,275 678,275 711,308 711,309 716,314 716,315 719,318 719,319 722,322 722,323 725,326 725,327 727,329 727,330 729,332 729,333 731,335 731,336 733,338 733,339 735,341 735,342 737,344 737,345 739,347 739,348 740,349 740,350 742,352 742,353 743,354 743,355 744,356 744,357 745,358 745,359 746,360 746,361 747,362 747,363 748,364 748,365 749,366 749,367 750,368 750,369 751,370 751,371 752,372 752,373 753,374 753,375 754,376 754,377 755,378 755,379 756,380 756,382 757,383 757,384 758,385 758,387 759,388 759,390 760,391 760,392 761,393 761,395 762,396 762,398 763,399 763,401 764,402 764,405 765,406 765,408 766,409 766,411 767,412 767,416 768,417 768,420 769,421 769,424 770,425 770,430 771,431 771,436 772,437 772,443 773,444 773,453 774,454 774,475 775,476 774,477 774,486 770,490 769,490 767,492 764,492 763,493 760,493 759,492 755,492 754,491 753,491 752,490 751,490 750,489 749,489 745,485 745,481 744,480 744,458 743,457 743,447 742,446 742,437 741,436 741,430 740,429 740,426 739,425 739,422 738,421 738,419 737,418 737,416 736,415 736,413 735,412 735,411 734,410 734,408 733,407 733,406 732,405 732,403 731,402 731,401 730,400 730,399 729,398 729,396 728,395 728,394 727,393 727,391 726,390 726,389 725,388 725,387 724,386 724,385 723,384 723,383 722,382 722,381 721,380 721,379 720,378 720,377 719,376 719,375 718,374 718,373 717,372 717,371 716,370 716,369 715,368 715,367 714,366 714,365 713,364 713,363 711,361 711,360 710,359 710,358 708,356 708,355 707,354 707,353 706,352 706,351 705,350 705,349 703,347 703,346 702,345 702,344 700,342 700,341 697,338 697,337 684,324 684,323 662,301 661,301 655,295 654,295 650,291 649,291 647,289 646,289 644,287 643,287 641,285 640,285 639,284 638,284 637,283 635,283 636,284 636,290 635,291 635,293 634,294 634,295 632,297 632,298 631,299 631,300 629,302 629,303 623,309 622,309 621,310 615,310 614,309 613,309 607,303 607,302 606,301 606,300 605,299 605,294 606,293 606,292 608,290 608,289 610,287 610,286 612,284 612,283 617,278 617,277 620,274 621,274 621,273 620,272 619,272 617,270 616,270 615,269 614,269 613,268 612,268 611,267 610,267 609,266 607,266 606,265 605,265 604,264 603,264 602,263 601,263 600,262 599,262 598,261 597,261 596,260 594,260 593,259 592,259 591,258 588,258 587,257 586,257 585,256 582,256 581,255 579,255 578,254 576,254 575,253 573,253 572,252 569,252 568,251 565,251 564,250 561,250 560,249 557,249 556,248 552,248 551,247 546,247 545,246 539,246 538,245 532,245 531,244 522,244 521,243 500,243 499,244 485,244 484,245 476,245 475,246 470,246 469,247 465,247 464,248 460,248 459,249 456,249 455,250 452,250 451,251 448,251 447,252 444,252 443,253 441,253 440,254 438,254 437,255 435,255 434,256 431,256 430,257 428,257 427,258 425,258 424,259 423,259 422,260 420,260 419,261 418,261 417,262 415,262 414,263 413,263 412,264 411,264 410,265 409,265 408,266 406,266 405,267 404,267 403,268 402,268 401,269 400,269 399,270 398,270 397,271 396,271 394,273 393,273 392,274 391,274 390,275 389,275 387,277 386,277 382,281 381,281 379,283 378,283 377,284 376,284 374,286 373,286 371,288 370,288 365,293 364,293 361,296 360,296 355,301 354,301 347,308 346,308 340,314 340,315 339,316 338,316 338,317 327,328 327,329 320,336 320,337 317,340 317,341 314,344 314,345 313,346 313,347 311,349 311,350 310,351 310,352 308,354 308,355 307,356 307,357 305,359 305,360 304,361 304,362 302,364 302,365 301,366 301,367 300,368 300,369 298,371 298,372 297,373 297,374 296,375 296,376 295,377 295,378 294,379 294,381 293,382 293,383 292,384 292,385 291,386 291,387 290,388 290,390 289,391 289,392 288,393 288,395 287,396 287,397 286,398 286,400 285,401 285,403 284,404 284,406 283,407 283,408 282,409 282,411 281,412 281,414 280,415 280,418 279,419 279,421 278,422 278,425 277,426 277,428 276,429 276,433 275,434 275,439 274,440 274,445 273,446 273,453 272,454 272,471 271,472 271,487 269,489 268,489 267,490 266,490 264,492 262,492 261,493 251,493 250,492 249,492 243,486 243,484 242,483 242,454 243,453 243,446 244,445 244,438 245,437 245,431 246,430 246,426 247,425 247,421 248,420 248,416 249,415 249,413 250,412 250,409 251,408 251,406 252,405 252,403 253,402 253,399 254,398 254,396 255,395 255,393 256,392 256,390 257,389 257,387 258,386 258,385 259,384 259,382 260,381 260,380 261,379 261,377 262,376 262,375 263,374 263,372 264,371 264,370 265,369 265,368 266,367 266,366 267,365 267,364 268,363 268,362 269,361 269,360 270,359 270,358 271,357 271,356 272,355 272,354 273,353 273,352 275,350 275,349 276,348 276,347 277,346 277,345 278,344 278,343 280,341 280,340 281,339 281,338 283,336 283,335 285,333 285,332 287,330 287,329 290,326 290,325 293,322 293,321 296,318 296,317 300,313 300,312 306,306 306,305 313,298 313,297 326,284 327,284 333,278 334,278 338,274 339,274 342,271 343,271 348,266 349,266 352,263 353,263 356,260 357,260 359,258 360,258 363,255 364,255 366,253 367,253 368,252 369,252 371,250 372,250 373,249 374,249 375,248 376,248 378,246 379,246 380,245 381,245 382,244 383,244 385,242 386,242 387,241 388,241 389,240 390,240 391,239 392,239 393,238 394,238 395,237 396,237 397,236 399,236 400,235 401,235 402,234 403,234 404,233 406,233 407,232 408,232 409,231 411,231 412,230 413,230 414,229 416,229 417,228 418,228 419,227 421,227 422,226 424,226 425,225 427,225 428,224 430,224 431,223 433,223 434,222 436,222 437,221 439,221 440,220 443,220 444,219 448,219 449,218 452,218 453,217 457,217 458,216 461,216 462,215 467,215 468,214 474,214 475,213 483,213 484,212" stroke="#fff" stroke-width="5" /><polygon fill="#fff" fill-opacity="0.4" points="380,129 379,130 297,130 296,131 290,131 289,132 282,132 281,133 278,133 277,134 273,134 272,135 269,135 268,136 265,136 264,137 262,137 261,138 258,138 257,139 255,139 254,140 252,140 251,141 249,141 248,142 247,142 246,143 244,143 243,144 241,144 240,145 239,145 238,146 237,146 236,147 235,147 234,148 233,148 232,149 231,149 230,150 229,150 228,151 227,151 226,152 225,152 224,153 223,153 222,154 221,154 219,156 218,156 217,157 216,157 214,159 213,159 211,161 210,161 208,163 207,163 204,166 203,166 200,169 199,169 195,173 194,173 178,189 178,190 173,195 173,196 170,199 170,200 167,203 167,204 164,207 164,208 162,210 162,211 161,212 161,213 160,214 160,215 159,216 159,217 158,218 158,219 156,221 156,222 155,223 155,224 154,225 154,226 153,227 153,228 152,229 152,230 151,231 151,232 150,233 150,234 149,235 149,237 148,238 148,239 147,240 147,242 146,243 146,245 145,246 145,247 144,248 144,250 143,251 143,253 142,254 142,257 141,258 141,260 140,261 140,265 139,266 139,269 138,270 138,274 137,275 137,278 136,279 136,283 135,284 135,289 134,290 134,301 133,302 133,722 134,723 134,733 135,734 135,740 136,741 136,746 137,747 137,751 138,752 138,755 139,756 139,759 140,760 140,763 141,764 141,767 142,768 142,770 143,771 143,774 144,775 144,777 145,778 145,780 146,781 146,783 147,784 147,785 148,786 148,788 149,789 149,791 150,792 150,793 151,794 151,795 152,796 152,797 153,798 153,799 154,800 154,802 156,804 156,805 157,806 157,807 159,809 159,810 160,811 160,812 162,814 162,815 164,817 164,818 166,820 166,821 169,824 169,825 172,828 172,829 181,838 181,839 191,849 192,849 198,855 199,855 202,858 203,858 206,861 207,861 209,863 210,863 212,865 213,865 214,866 215,866 216,867 217,867 219,869 220,869 222,871 223,871 224,872 225,872 226,873 227,873 228,874 229,874 230,875 232,875 233,876 234,876 235,877 236,877 237,878 239,878 240,879 241,879 242,880 244,880 245,881 247,881 248,882 250,882 251,883 253,883 254,884 256,884 257,885 260,885 261,886 264,886 265,887 268,887 269,888 273,888 274,889 277,889 278,890 283,890 284,891 289,891 290,892 298,892 299,893 721,893 722,892 729,892 730,891 736,891 737,890 741,890 742,889 746,889 747,888 751,888 752,887 755,887 756,886 759,886 760,885 763,885 764,884 766,884 767,883 769,883 770,882 772,882 773,881 775,881 776,880 778,880 779,879 780,879 781,878 783,878 784,877 785,877 786,876 787,876 788,875 789,875 790,874 792,874 793,873 794,873 795,872 796,872 798,870 799,870 800,869 801,869 802,868 803,868 805,866 806,866 807,865 808,865 810,863 811,863 813,861 814,861 817,858 818,858 821,855 822,855 829,848 830,848 837,841 837,840 844,833 844,832 848,828 848,827 851,824 851,823 853,821 853,820 856,817 856,816 858,814 858,813 860,811 860,810 861,809 861,808 862,807 862,806 864,804 864,803 865,802 865,801 866,800 866,799 867,798 867,797 868,796 868,794 869,793 869,792 870,791 870,789 871,788 871,787 872,786 872,785 873,784 873,782 874,781 874,779 875,778 875,776 876,775 876,772 877,771 877,768 878,767 878,765 879,764 879,761 880,760 880,757 881,756 881,753 882,752 882,748 883,747 883,742 884,741 884,736 885,735 885,293 884,292 884,286 883,285 883,280 882,279 882,274 881,273 881,269 880,268 880,264 879,263 879,260 878,259 878,257 877,256 877,254 876,253 876,250 875,249 875,247 874,246 874,245 873,244 873,242 872,241 872,240 871,239 871,237 870,236 870,235 869,234 869,233 868,232 868,231 867,230 867,229 866,228 866,227 865,226 865,225 864,224 864,223 863,222 863,221 862,220 862,219 861,218 861,217 860,216 860,215 858,213 858,212 857,211 857,210 855,208 855,207 854,206 854,205 851,202 851,201 849,199 849,198 846,195 846,194 840,188 840,187 828,175 827,175 822,170 821,170 817,166 816,166 813,163 812,163 810,161 809,161 807,159 806,159 804,157 803,157 801,155 800,155 799,154 798,154 797,153 796,153 794,151 793,151 792,150 791,150 790,149 789,149 788,148 787,148 786,147 785,147 784,146 782,146 781,145 780,145 779,144 777,144 776,143 774,143 773,142 772,142 771,141 769,141 768,140 766,140 765,139 762,139 761,138 759,138 758,137 755,137 754,136 750,136 749,135 746,135 745,134 740,134 739,133 735,133 734,132 728,132 727,131 720,131 719,130 589,130 588,129 583,129 582,130 528,130 527,129 492,129 491,130 392,130 391,129" stroke="#fff" stroke-width="5" /><polygon fill="#fff" fill-opacity="0.4" points="347,171 348,170 463,170 464,171 535,171 536,170 551,170 552,171 563,171 564,170 659,170 660,171 685,171 686,172 692,172 693,173 697,173 698,174 702,174 703,175 706,175 707,176 710,176 711,177 713,177 714,178 717,178 718,179 721,179 722,180 724,180 725,181 727,181 728,182 730,182 731,183 733,183 734,184 735,184 736,185 737,185 738,186 740,186 741,187 742,187 743,188 744,188 745,189 746,189 747,190 748,190 749,191 750,191 751,192 752,192 754,194 755,194 756,195 757,195 759,197 760,197 762,199 763,199 765,201 766,201 768,203 769,203 773,207 774,207 781,214 782,214 796,228 796,229 801,234 801,235 803,237 803,238 805,240 805,241 807,243 807,244 809,246 809,247 811,249 811,250 812,251 812,252 814,254 814,255 815,256 815,257 816,258 816,259 818,261 818,262 819,263 819,264 820,265 820,267 821,268 821,269 822,270 822,271 823,272 823,274 824,275 824,277 825,278 825,279 826,280 826,282 827,283 827,285 828,286 828,288 829,289 829,292 830,293 830,296 831,297 831,300 832,301 832,304 833,305 833,309 834,310 834,316 835,317 835,675 836,676 836,687 835,688 835,702 834,703 834,709 833,710 833,714 832,715 832,719 831,720 831,722 830,723 830,727 829,728 829,730 828,731 828,734 827,735 827,736 826,737 826,739 825,740 825,742 824,743 824,745 823,746 823,747 822,748 822,750 821,751 821,752 820,753 820,754 819,755 819,756 818,757 818,758 817,759 817,760 816,761 816,762 815,763 815,764 813,766 813,767 812,768 812,769 810,771 810,772 808,774 808,775 806,777 806,778 804,780 804,781 800,785 800,786 796,790 796,791 791,796 790,796 790,797 787,800 786,800 779,807 778,807 776,809 775,809 772,812 771,812 769,814 768,814 766,816 765,816 764,817 763,817 761,819 760,819 759,820 758,820 756,822 755,822 754,823 753,823 752,824 751,824 750,825 749,825 748,826 747,826 746,827 745,827 744,828 742,828 741,829 740,829 739,830 737,830 736,831 734,831 733,832 731,832 730,833 728,833 727,834 724,834 723,835 721,835 720,836 716,836 715,837 712,837 711,838 707,838 706,839 701,839 700,840 690,840 689,841 336,841 335,840 322,840 321,839 315,839 314,838 309,838 308,837 304,837 303,836 299,836 298,835 295,835 294,834 291,834 290,833 288,833 287,832 284,832 283,831 282,831 281,830 279,830 278,829 277,829 276,828 274,828 273,827 272,827 271,826 269,826 267,824 265,824 263,822 262,822 261,821 260,821 259,820 258,820 256,818 255,818 253,816 252,816 250,814 249,814 247,812 246,812 242,808 241,808 237,804 236,804 222,790 222,789 217,784 217,783 214,780 214,779 212,777 212,776 210,774 210,773 208,771 208,770 206,768 206,767 205,766 205,765 203,763 203,762 202,761 202,760 201,759 201,758 200,757 200,756 199,755 199,754 198,753 198,751 197,750 197,749 196,748 196,747 195,746 195,745 194,744 194,742 193,741 193,739 192,738 192,737 191,736 191,734 190,733 190,730 189,729 189,727 188,726 188,724 187,723 187,720 186,719 186,715 185,714 185,708 184,707 184,700 183,699 183,687 182,686 182,317 183,316 183,310 184,309 184,305 185,304 185,300 186,299 186,297 187,296 187,293 188,292 188,289 189,288 189,286 190,285 190,283 191,282 191,280 192,279 192,277 193,276 193,274 194,273 194,272 195,271 195,269 196,268 196,267 197,266 197,264 198,263 198,262 199,261 199,260 200,259 200,258 201,257 201,256 203,254 203,253 204,252 204,251 206,249 206,248 207,247 207,246 208,245 208,244 211,241 211,240 214,237 214,236 218,232 218,231 225,224 225,223 236,212 237,212 242,207 243,207 247,203 248,203 251,200 252,200 254,198 255,198 257,196 258,196 260,194 261,194 262,193 263,193 264,192 265,192 266,191 267,191 268,190 269,190 270,189 271,189 272,188 273,188 274,187 275,187 276,186 277,186 278,185 280,185 281,184 283,184 284,183 285,183 286,182 288,182 289,181 291,181 292,180 294,180 295,179 297,179 298,178 300,178 301,177 303,177 304,176 307,176 308,175 312,175 313,174 317,174 318,173 322,173 323,172 328,172 329,171" stroke="#fff" stroke-width="5" /></svg>