<?xml version="1.0" encoding="utf-8" ?>
<svg baseProfile="tiny" height="1024" version="1.2" width="1024" xmlns="http://www.w3.org/2000/svg" xmlns:ev="http://www.w3.org/2001/xml-events" xmlns:xlink="http://www.w3.org/1999/xlink"><defs /><rect fill="#000" height="1024" width="1024" x="0" y="0" /><polygon fill="#fff" fill-opacity="0.4" points="232,757 230,759 229,759 220,768 219,768 217,770 216,770 214,772 213,772 212,773 211,773 210,774 209,774 207,776 207,777 206,778 217,789 218,789 223,794 224,794 229,799 230,799 232,801 236,801 248,789 249,789 256,782 257,782 260,779 261,779 262,778 263,778 264,777 265,777 265,776 261,772 260,772 257,769 256,769 253,766 252,766 249,763 248,763 246,761 245,761 244,760 243,760 242,759 241,759 240,758 239,758 238,757" stroke="#fff" stroke-width="5" /><polygon fill="#fff" fill-opacity="0.4" points="311,752 310,753 309,753 303,759 302,759 299,762 298,762 289,771 289,772 288,773 288,775 289,776 289,777 290,778 290,779 292,781 293,781 297,785 298,785 300,787 301,787 305,791 306,791 311,796 312,796 315,799 316,799 318,801 319,801 320,802 323,802 324,801 325,801 329,797 330,797 336,791 337,791 345,783 346,783 349,780 349,778 350,777 350,774 348,772 347,772 344,769 343,769 334,760 333,760 329,756 328,756 327,755 326,755 325,754 322,754 321,753 318,753 317,752" stroke="#fff" stroke-width="5" /><polygon fill="#fff" fill-opacity="0.4" points="311,759 312,758 313,758 317,762 317,763 310,770 309,770 305,774 304,774 301,777 299,777 297,775 297,772 303,766 304,766 309,761 309,760 310,759" stroke="#fff" stroke-width="5" /><polygon fill="#fff" fill-opacity="0.4" points="435,702 433,704 432,704 425,711 424,711 419,716 418,716 415,719 414,719 412,721 411,721 409,723 408,723 406,725 406,729 407,730 407,752 408,752 409,753 410,753 411,754 412,754 414,756 415,756 417,758 418,758 420,760 421,760 422,761 423,761 425,763 426,763 427,764 428,764 430,766 431,766 432,767 433,767 435,769 436,769 438,771 440,771 441,772 443,772 444,771 445,771 449,767 450,767 454,763 455,763 457,761 458,761 459,760 460,760 462,758 463,758 464,757 465,757 466,756 467,756 468,755 469,755 470,754 472,754 473,753 474,753 474,728 475,727 475,726 474,726 472,724 471,724 468,721 467,721 462,716 461,716 458,713 457,713 454,710 453,710 450,707 449,707 447,705 446,705 445,704 443,704 442,703 440,703 439,702" stroke="#fff" stroke-width="5" /><polygon fill="#fff" fill-opacity="0.4" points="436,712 437,712 439,714 439,715 440,716 440,720 439,721 439,722 437,724 437,725 434,728 434,729 431,732 430,732 428,734 427,734 425,736 424,736 421,739 419,739 416,736 416,735 415,734 415,733 414,732 414,731 415,730 416,730 417,729 418,729 420,727 421,727" stroke="#fff" stroke-width="5" /><polygon fill="#fff" fill-opacity="0.4" points="357,701 356,702 354,702 353,703 352,703 347,708 346,708 342,712 341,712 337,716 336,716 333,719 332,719 330,721 329,721 327,723 325,723 325,741 326,742 332,742 333,743 335,743 336,744 337,744 338,745 339,745 343,749 344,749 348,753 349,753 351,755 352,755 361,764 361,766 362,767 362,770 365,767 366,767 367,766 368,766 369,765 370,765 373,762 374,762 376,760 377,760 378,759 379,759 381,757 382,757 384,755 385,755 386,754 387,754 388,753 390,753 391,752 391,744 390,743 390,733 391,732 391,726 392,725 392,723 391,723 390,722 389,722 387,720 386,720 382,716 381,716 377,712 376,712 375,711 374,711 371,708 370,708 368,706 367,706 365,704 364,704 363,703 362,703 361,702 360,702 359,701" stroke="#fff" stroke-width="5" /><polygon fill="#fff" fill-opacity="0.4" points="355,711 357,713 357,714 358,715 358,721 357,722 357,723 350,730 349,730 347,732 346,732 344,734 343,734 342,735 341,735 339,737 338,737 337,738 335,738 333,736 333,731 336,728 337,728 338,727 339,727 349,717 349,716 352,713 353,713" stroke="#fff" stroke-width="5" /><polygon fill="#fff" fill-opacity="0.4" points="274,701 273,702 272,702 271,703 270,703 259,714 258,714 252,720 251,720 249,722 248,722 247,723 245,723 244,724 243,724 243,726 244,727 244,744 246,744 247,745 248,745 250,747 252,747 256,751 257,751 261,755 262,755 265,758 266,758 268,760 269,760 272,763 273,763 274,764 275,764 276,765 277,765 278,766 279,766 280,765 280,764 290,754 291,754 295,750 296,750 301,745 302,745 304,743 306,743 307,742 309,742 309,727 310,726 310,723 309,723 307,721 306,721 304,719 303,719 300,716 299,716 296,713 295,713 292,710 291,710 287,706 286,706 284,704 283,704 282,703 281,703 280,702 278,702 277,701" stroke="#fff" stroke-width="5" /><polygon fill="#fff" fill-opacity="0.4" points="272,713 273,713 275,715 275,718 276,719 275,720 275,722 274,723 274,724 273,725 273,726 266,733 265,733 264,734 263,734 262,735 261,735 260,736 259,736 255,740 254,740 253,739 252,739 251,738 251,737 250,736 250,735 252,733 252,732 253,731 254,731 257,728 258,728 267,719 267,718" stroke="#fff" stroke-width="5" /><polygon fill="#fff" fill-opacity="0.4" points="229,652 227,654 226,654 224,656 224,657 221,660 220,660 216,664 215,664 213,666 212,666 211,667 210,667 209,668 208,668 206,670 206,673 207,674 207,676 208,677 208,685 209,686 209,689 208,690 209,691 211,691 212,692 213,692 216,695 217,695 222,700 223,700 226,703 227,703 230,706 231,706 233,708 234,708 236,710 237,710 238,711 241,711 248,704 249,704 254,699 255,699 259,695 260,695 262,693 263,693 265,691 266,691 267,690 268,690 268,689 269,688 269,678 268,677 267,677 266,676 265,676 263,674 262,674 261,673 260,673 258,671 257,671 251,665 250,665 248,663 247,663 246,662 244,662 243,661 242,661 241,660 239,660 238,659 236,659 233,656 233,655 232,654 232,653 231,652" stroke="#fff" stroke-width="5" /><polygon fill="#fff" fill-opacity="0.4" points="234,658 235,659 235,667 231,671 231,672 226,677 225,677 222,680 221,680 219,682 219,683 218,684 216,682 216,681 215,680 215,679 213,677 215,675 216,675 218,673 219,673 228,664 228,663 230,661 231,661" stroke="#fff" stroke-width="5" /><polygon fill="#fff" fill-opacity="0.4" points="312,650 311,651 309,651 308,652 307,652 304,655 303,655 299,659 298,659 294,663 293,663 290,666 289,666 285,670 284,670 282,672 282,676 283,677 283,678 284,679 284,684 285,685 284,686 284,690 285,690 286,691 289,691 290,692 291,692 294,695 295,695 298,698 299,698 302,701 303,701 305,703 306,703 309,706 310,706 313,709 314,709 315,710 316,710 317,711 318,711 319,712 321,712 329,704 330,704 335,699 336,699 339,696 340,696 342,694 343,694 345,692 347,692 348,691 347,690 347,675 348,674 348,669 349,668 349,665 347,663 346,663 344,661 343,661 341,659 340,659 337,656 336,656 334,654 333,654 331,652 330,652 329,651 326,651 325,650" stroke="#fff" stroke-width="5" /><polygon fill="#fff" fill-opacity="0.4" points="310,658 313,658 315,660 315,662 312,665 312,666 307,671 307,672 298,681 297,681 297,682 296,683 295,683 292,680 292,679 291,678 291,677 292,676 292,675 294,673 295,673" stroke="#fff" stroke-width="5" /><polygon fill="#fff" fill-opacity="0.4" points="676,642 676,643 674,645 674,646 672,648 672,649 667,654 667,655 662,660 662,661 654,669 654,670 652,672 652,673 650,675 650,676 649,677 649,678 648,679 648,681 647,682 647,683 646,684 646,686 645,687 645,691 644,692 644,701 645,702 645,705 646,706 646,707 647,708 647,709 648,710 648,711 651,714 651,715 657,721 658,721 659,722 660,722 661,723 662,723 663,724 664,724 665,725 667,725 668,726 670,726 671,727 680,727 681,726 684,726 685,725 686,725 687,724 688,724 689,723 690,723 691,722 692,722 694,720 695,720 699,716 699,715 702,712 702,711 703,710 703,709 704,708 704,706 705,705 705,702 706,701 706,694 705,693 705,689 704,688 704,685 703,684 703,683 702,682 702,680 701,679 701,678 700,677 700,676 698,674 698,673 696,671 696,670 694,668 694,667 692,665 692,664 689,661 689,660 687,658 687,657 685,655 685,654 682,651 682,650 680,648 680,647 677,644 677,643" stroke="#fff" stroke-width="5" /><polygon fill="#fff" fill-opacity="0.4" points="669,664 672,664 674,666 674,668 673,669 673,670 672,671 672,673 670,675 670,676 666,680 666,681 664,683 664,687 663,688 663,689 664,690 664,703 663,704 658,704 655,701 655,700 654,699 654,689 655,688 655,684 656,683 656,681 657,680 657,679 658,678 658,677 660,675 660,674 663,671 663,670" stroke="#fff" stroke-width="5" /><polygon fill="#fff" fill-opacity="0.4" points="387,639 386,640 385,640 384,641 383,641 374,650 374,651 373,652 372,652 368,656 367,656 363,660 362,660 360,662 359,662 358,663 359,664 359,666 360,667 360,671 361,672 361,688 362,688 363,689 365,689 366,690 367,690 368,691 369,691 370,692 371,692 373,694 374,694 376,696 377,696 379,698 380,698 381,699 382,699 384,701 385,701 388,704 389,704 393,708 394,708 395,709 396,709 397,710 399,710 401,708 402,708 412,698 413,698 417,694 418,694 420,692 421,692 422,691 423,691 424,690 428,690 428,670 429,669 429,666 428,665 427,665 425,663 424,663 422,661 421,661 418,658 417,658 413,654 412,654 402,644 401,644 400,643 397,643 396,642 394,642 393,641 392,641 391,640 390,640 389,639" stroke="#fff" stroke-width="5" /><polygon fill="#fff" fill-opacity="0.4" points="386,651 387,650 389,650 391,652 391,657 388,660 388,661 384,665 384,666 382,668 381,668 379,670 378,670 371,677 370,677 368,675 368,674 367,673 367,672 366,671 366,669 368,667 369,667 371,665 372,665 374,663 375,663 376,662 376,661 381,656 381,655 385,651" stroke="#fff" stroke-width="5" /><polygon fill="#fff" fill-opacity="0.4" points="269,624 266,627 266,628 263,631 263,632 257,638 256,638 254,640 253,640 251,642 250,642 247,645 247,648 250,651 251,651 252,652 253,652 254,653 255,653 260,658 261,658 264,661 265,661 266,662 267,662 268,663 269,663 270,664 271,664 272,665 276,665 277,664 278,664 280,662 281,662 287,656 288,656 293,651 294,651 301,644 302,644 304,642 305,642 301,638 301,637 295,631 294,631 290,627 289,627 287,625 284,625 283,624" stroke="#fff" stroke-width="5" /><polygon fill="#fff" fill-opacity="0.4" points="273,632 275,632 276,633 276,634 277,635 277,639 276,640 276,641 271,646 270,646 267,649 266,649 264,651 263,651 261,653 258,653 256,651 256,649" stroke="#fff" stroke-width="5" /><polygon fill="#fff" fill-opacity="0.4" points="445,607 444,608 442,608 438,612 438,619 439,620 439,621 442,624 443,624 444,625 449,625 450,624 452,624 455,621 455,620 456,619 456,613 455,612 455,611 452,608 450,608 449,607" stroke="#fff" stroke-width="5" /><polygon fill="#fff" fill-opacity="0.4" points="329,578 326,581 326,582 315,593 314,593 308,599 307,599 303,603 302,603 299,606 300,607 300,608 301,609 301,622 302,622 303,623 304,623 306,625 307,625 308,626 309,626 310,627 311,627 312,628 313,628 315,630 316,630 317,631 318,631 320,633 321,633 322,634 323,634 324,635 325,635 327,637 328,637 329,638 330,638 331,639 332,639 333,640 334,640 335,641 336,641 338,643 339,643 340,644 341,644 342,645 346,645 350,641 351,641 356,636 357,636 361,632 362,632 364,630 365,630 367,628 368,628 369,627 371,627 371,606 372,605 372,603 371,602 370,602 369,601 368,601 366,599 365,599 364,598 363,598 359,594 358,594 355,591 354,591 350,587 349,587 345,583 345,582 344,581 343,581 342,580 340,580 339,579 332,579 331,578" stroke="#fff" stroke-width="5" /><polygon fill="#fff" fill-opacity="0.4" points="331,587 332,587 334,589 334,590 335,591 335,593 334,594 334,595 332,597 332,598 329,601 329,602 322,609 321,609 315,615 315,616 314,617 313,617 311,615 311,614 308,611 308,609 310,607 311,607 312,606 313,606 317,602 318,602 321,599 321,598 327,592 327,591" stroke="#fff" stroke-width="5" /><polygon fill="#fff" fill-opacity="0.4" points="421,573 420,574 419,574 418,575 417,575 414,578 414,579 413,580 413,588 414,589 414,590 418,594 420,594 421,595 426,595 427,594 429,594 433,590 433,589 434,588 434,587 435,586 435,582 434,581 434,579 432,577 432,576 431,576 429,574 427,574 426,573" stroke="#fff" stroke-width="5" /><polygon fill="#fff" fill-opacity="0.4" points="518,531 518,852 521,852 522,851 839,851 839,832 838,831 838,822 839,821 839,820 838,819 838,596 839,595 839,531 833,531 832,532 520,532 519,531" stroke="#fff" stroke-width="5" /><polygon fill="#fff" fill-opacity="0.4" points="775,650 777,650 778,651 778,653 779,654 779,655 780,656 780,658 781,659 781,661 782,662 782,663 783,664 783,666 784,667 784,669 785,670 785,672 786,673 786,675 787,676 787,679 788,680 788,685 789,686 789,709 788,710 788,715 787,716 787,718 786,719 786,722 785,723 785,726 784,727 784,730 783,731 783,732 782,733 782,735 781,736 781,737 780,738 780,739 778,741 778,742 776,744 776,745 775,746 775,747 773,749 773,750 770,753 770,754 768,756 768,757 766,759 766,760 764,762 764,763 760,767 760,768 759,769 759,770 758,771 758,778 757,779 757,780 752,785 751,785 750,786 749,786 748,787 747,787 746,788 746,795 745,796 745,805 744,806 744,807 743,808 742,808 739,805 738,805 737,804 736,804 735,803 734,803 733,802 732,802 731,801 730,801 729,800 728,800 727,799 726,799 725,798 724,798 722,796 721,796 720,795 718,795 717,794 715,794 714,793 711,793 710,792 708,792 707,791 706,791 705,790 703,790 702,789 701,789 699,787 698,787 695,784 694,784 692,782 692,781 693,780 694,780 699,775 699,774 700,773 700,772 701,771 701,770 703,768 703,767 704,766 704,765 706,763 706,762 708,760 708,759 710,757 710,756 711,755 711,754 713,752 713,751 715,749 715,748 717,746 717,745 720,742 720,741 722,739 722,738 724,736 724,735 725,734 726,734 727,735 727,736 728,737 728,738 729,739 729,740 730,741 730,743 731,744 731,747 732,748 732,751 733,752 733,753 734,753 735,752 737,752 738,751 740,751 741,750 742,750 743,749 744,749 745,748 746,748 747,747 748,747 750,745 751,745 754,742 754,740 751,737 751,735 752,734 752,733 753,732 753,731 756,728 756,727 757,726 757,725 758,724 758,723 759,722 759,721 760,720 760,718 761,717 761,716 762,715 762,713 763,712 763,708 764,707 764,700 765,699 765,691 764,690 764,684 763,683 763,679 762,678 762,676 761,675 761,673 760,672 760,671 759,670 759,669 758,668 758,666 757,665 757,664 756,663 756,660 757,659 759,659 760,658 762,658 763,657 764,657 765,656 767,656 768,655 769,655 771,653 772,653" stroke="#fff" stroke-width="5" /><polygon fill="#fff" fill-opacity="0.4" points="574,643 583,643 586,646 586,647 587,648 587,649 589,651 589,652 590,653 590,655 591,656 591,657 592,658 592,659 593,660 593,661 594,662 594,663 595,664 595,665 597,667 597,668 599,670 599,671 600,672 600,673 602,675 602,676 604,678 604,679 606,681 606,682 608,684 608,685 611,688 611,689 614,692 614,693 613,694 592,694 592,699 593,700 593,703 594,704 594,707 595,708 595,711 596,712 596,714 597,715 597,718 598,719 598,721 599,722 599,724 600,725 600,726 601,727 601,728 602,729 602,730 603,731 603,732 604,733 604,734 605,735 605,736 607,738 607,739 608,740 608,741 609,742 609,743 611,745 611,746 612,747 612,748 613,749 613,750 614,751 614,752 615,753 615,754 616,755 616,757 617,758 617,759 619,761 621,761 622,762 625,762 626,763 628,763 629,764 632,764 633,765 636,765 637,766 640,766 641,767 645,767 646,768 652,768 653,769 659,769 660,770 674,770 675,771 675,801 674,802 673,802 672,801 668,801 667,800 660,800 659,799 654,799 653,798 650,798 649,797 646,797 645,796 643,796 642,795 640,795 639,794 637,794 636,793 634,793 633,792 630,792 629,791 627,791 626,790 624,790 623,789 621,789 620,788 618,788 617,787 616,787 615,786 613,786 612,785 611,785 610,784 609,784 608,783 607,783 606,782 605,782 604,781 603,781 598,776 598,775 597,774 597,773 595,771 595,769 594,768 594,767 592,765 592,764 591,763 591,762 590,761 590,760 588,758 588,757 587,756 587,755 586,754 586,753 584,751 584,750 583,749 583,748 582,747 582,746 581,745 581,744 580,743 580,742 578,740 578,739 577,738 577,737 575,735 575,734 574,733 574,732 573,731 573,730 572,729 572,728 571,727 571,726 570,725 570,723 569,722 569,720 568,719 568,717 567,716 567,713 566,712 566,708 565,707 565,703 564,702 564,698 563,697 563,694 562,693 550,693 549,694 546,694 545,693 546,692 546,690 547,689 547,688 548,687 548,686 549,685 549,684 550,683 550,682 551,681 551,680 552,679 552,677 553,676 553,675 555,673 555,672 556,671 556,670 557,669 557,668 558,667 558,666 559,665 559,664 561,662 561,661 563,659 563,658 565,656 565,655 567,653 567,652 568,651 568,650 570,648 570,647" stroke="#fff" stroke-width="5" /><polygon fill="#fff" fill-opacity="0.4" points="675,618 676,617 678,617 679,618 679,619 681,621 681,622 683,624 683,625 684,626 684,627 685,628 685,629 687,631 687,632 688,633 688,634 690,636 690,637 691,638 691,639 693,641 693,642 695,644 695,645 698,648 698,649 699,650 699,651 701,653 701,654 703,656 703,657 706,660 706,661 708,663 708,664 710,666 710,667 711,668 711,669 712,670 712,671 713,672 713,673 714,674 714,675 715,676 715,678 716,679 716,680 717,681 717,683 718,684 718,687 719,688 719,693 720,694 720,702 719,703 719,708 718,709 718,711 717,712 717,713 716,714 716,715 714,717 714,718 713,719 713,720 711,722 711,723 702,732 701,732 699,734 698,734 696,736 695,736 694,737 693,737 692,738 691,738 690,739 688,739 687,740 684,740 683,741 680,741 679,742 674,742 673,741 668,741 667,740 664,740 663,739 661,739 660,738 658,738 657,737 656,737 654,735 653,735 651,733 650,733 639,722 639,721 637,719 637,718 636,717 636,716 635,715 635,714 634,713 634,711 633,710 633,707 632,706 632,700 631,699 631,696 632,695 632,688 633,687 633,684 634,683 634,681 635,680 635,678 636,677 636,675 637,674 637,673 638,672 638,671 640,669 640,668 641,667 641,666 643,664 643,663 646,660 646,659 651,654 651,653 656,648 656,647 659,644 659,643 661,641 661,640 663,638 663,637 665,635 665,634 666,633 666,632 667,631 667,630 669,628 669,627 671,625 671,624 673,622 673,621 675,619" stroke="#fff" stroke-width="5" /><polygon fill="#fff" fill-opacity="0.4" points="663,574 664,573 686,573 687,574 692,574 693,575 697,575 698,576 702,576 703,577 706,577 707,578 710,578 711,579 715,579 716,580 719,580 720,581 723,581 724,582 727,582 728,583 731,583 732,584 735,584 736,585 738,585 739,586 742,586 743,587 744,587 745,588 748,588 751,585 752,585 753,584 754,584 755,583 758,583 759,582 762,582 763,581 766,581 767,580 768,581 768,585 767,586 767,591 766,592 766,597 765,598 765,602 764,603 764,608 763,609 763,613 762,614 762,620 761,621 761,628 760,629 760,634 758,636 754,636 753,635 744,635 743,634 728,634 727,633 717,633 716,632 708,632 707,631 706,631 705,630 705,629 708,626 708,625 714,619 715,619 718,616 719,616 720,615 721,615 722,614 722,613 721,612 720,612 719,611 718,611 717,610 715,610 714,609 713,609 712,608 710,608 709,607 708,607 707,606 704,606 703,605 701,605 700,604 698,604 697,603 694,603 693,602 689,602 688,601 684,601 683,600 664,600 663,601 658,601 657,602 655,602 654,603 652,603 651,604 649,604 648,605 647,605 646,606 645,606 644,607 643,607 642,608 641,608 640,609 639,609 638,610 637,610 635,612 634,612 632,614 631,614 626,619 625,619 615,629 615,630 613,632 613,633 610,636 610,637 608,639 608,640 606,642 606,643 603,646 603,647 602,648 601,648 599,650 598,649 598,648 591,641 590,641 586,637 585,637 584,636 583,636 582,635 582,634 583,633 583,632 584,631 584,630 585,629 585,628 586,627 586,626 588,624 588,623 589,622 589,621 590,620 590,619 593,616 593,615 596,612 596,611 609,598 610,598 614,594 615,594 617,592 618,592 620,590 621,590 622,589 623,589 625,587 626,587 627,586 629,586 630,585 631,585 632,584 633,584 634,583 636,583 637,582 638,582 639,581 640,581 641,580 642,580 643,579 645,579 646,578 648,578 649,577 651,577 652,576 655,576 656,575 659,575 660,574" stroke="#fff" stroke-width="5" /><polygon fill="#fff" fill-opacity="0.4" points="179,531 179,533 180,534 180,852 193,852 194,851 307,851 308,852 343,852 344,851 477,851 478,852 500,852 500,847 499,846 499,532 456,532 455,531 418,531 417,532 340,532 339,531 315,531 314,532 310,532 309,531 211,531 210,532 183,532 182,531" stroke="#fff" stroke-width="5" /><polygon fill="#fff" fill-opacity="0.4" points="331,832 332,831 334,831 335,832 336,831 337,831 339,833 338,834 332,834 331,833" stroke="#fff" stroke-width="5" /><polygon fill="#fff" fill-opacity="0.4" points="271,796 272,796 274,798 274,799 276,801 276,804 275,805 275,806 274,807 274,808 267,815 266,815 264,817 263,817 261,819 260,819 255,824 254,823 254,822 250,818 250,816 255,811 256,811 257,810 258,810 261,807 262,807 265,804 265,803 268,800 268,799" stroke="#fff" stroke-width="5" /><polygon fill="#fff" fill-opacity="0.4" points="440,793 441,792 442,793 441,794" stroke="#fff" stroke-width="5" /><polygon fill="#fff" fill-opacity="0.4" points="373,789 374,788 375,788 377,790 377,791 378,792 378,796 377,797 377,798 369,806 368,806 361,813 360,813 357,816 356,816 354,818 351,818 350,817 349,817 346,814 346,812 348,810 349,810 350,809 351,809 352,808 353,808 372,789" stroke="#fff" stroke-width="5" /><polygon fill="#fff" fill-opacity="0.4" points="461,786 462,786 465,789 465,797 464,798 464,799 463,800 463,801 459,805 458,805 455,808 454,808 452,810 451,810 449,812 448,812 446,814 444,814 443,813 442,813 440,811 440,809 442,807 442,806 457,791 457,790" stroke="#fff" stroke-width="5" /><polygon fill="#fff" fill-opacity="0.4" points="197,547 198,546 202,546 203,547 482,547 483,548 483,711 484,712 484,735 483,736 483,744 484,745 484,759 483,760 483,775 484,776 484,779 483,780 478,780 477,779 474,779 473,778 470,778 469,777 461,777 459,779 458,779 455,782 454,782 449,787 448,787 446,789 445,789 443,791 443,792 442,793 441,792 441,791 440,792 440,793 441,794 440,795 440,796 438,798 438,799 436,801 436,802 432,806 432,810 433,811 433,813 434,814 434,816 436,818 437,818 439,820 440,820 451,831 451,833 450,834 398,834 397,835 396,835 395,834 395,832 396,831 396,830 402,824 403,824 405,822 406,822 407,821 408,821 409,820 410,820 411,819 420,819 420,818 419,817 419,812 418,811 418,808 417,807 417,791 413,787 412,787 408,783 407,783 402,778 402,777 401,777 395,771 394,771 392,769 388,769 387,770 386,770 385,771 384,771 383,772 382,772 379,775 378,775 374,779 373,779 371,781 370,781 368,783 367,783 364,786 363,786 357,792 356,792 348,800 347,800 344,803 343,803 341,805 340,805 339,806 338,806 336,808 335,808 333,810 332,810 331,811 330,811 329,812 329,820 330,821 330,832 331,833 330,834 311,834 310,833 310,816 311,815 311,812 310,811 309,811 308,810 307,810 302,805 301,805 296,800 295,800 290,795 289,795 287,793 286,793 283,790 282,790 280,788 278,788 277,787 270,787 269,788 268,788 266,790 265,790 257,798 256,798 247,807 246,807 243,810 243,812 244,813 244,815 245,816 245,827 246,828 246,831 248,833 247,834 230,834 229,833 230,832 230,813 228,813 227,812 226,812 225,811 224,811 220,807 219,807 216,804 215,804 213,802 212,802 208,798 207,798 202,793 201,793 197,789 197,765 198,764 200,764 202,762 203,762 205,760 206,760 209,757 210,757 213,754 214,754 217,751 218,751 221,748 222,748 224,746 225,746 226,745 229,745 230,744 230,742 229,741 229,727 230,726 230,724 228,722 227,722 226,721 225,721 222,718 221,718 216,713 215,713 210,708 209,708 206,705 205,705 204,704 203,704 202,703 200,703 199,702 198,702 196,700 197,699" stroke="#fff" stroke-width="5" /><polygon fill="#fff" fill-opacity="0.4" points="338,397 337,398 337,437 338,438 340,438 341,437 342,437 342,435 341,434 341,403 342,402 342,401 343,400 344,401 346,401 348,403 348,407 349,408 349,432 348,433 348,437 374,437 374,397" stroke="#fff" stroke-width="5" /><polygon fill="#fff" fill-opacity="0.4" points="782,360 780,362 780,363 779,364 779,365 777,367 777,368 775,370 775,371 774,372 774,373 772,375 772,376 771,377 771,378 770,379 770,380 768,382 768,383 767,384 767,385 766,386 766,387 765,388 765,389 764,390 764,391 763,392 763,393 762,394 762,395 761,396 761,397 760,398 760,400 759,401 759,402 758,403 758,407 757,408 757,416 758,417 758,420 759,421 759,422 760,423 760,424 761,425 761,426 763,428 763,429 766,432 767,432 769,434 770,434 771,435 772,435 773,436 775,436 776,437 786,437 787,436 789,436 790,435 791,435 792,434 793,434 795,432 796,432 800,428 800,427 802,425 802,424 803,423 803,422 804,421 804,419 805,418 805,415 806,414 806,405 805,404 805,401 804,400 804,398 803,397 803,396 802,395 802,394 801,393 801,392 800,391 800,390 798,388 798,387 797,386 797,385 796,384 796,383 794,381 794,380 793,379 793,378 792,377 792,376 790,374 790,373 789,372 789,371 787,369 787,368 786,367 786,366 785,365 785,364 783,362 783,361" stroke="#fff" stroke-width="5" /><polygon fill="#fff" fill-opacity="0.4" points="778,388 779,389 780,389 781,390 781,391 782,392 782,396 781,397 781,399 780,400 780,401 779,402 779,403 778,404 778,405 777,406 777,407 776,408 776,410 775,411 775,415 777,417 777,418 779,420 779,421 778,422 774,422 772,420 772,419 769,416 769,415 768,414 768,413 767,412 767,405 768,404 768,403 769,402 769,401 770,400 770,399 771,398 771,397 772,396 772,395 774,393 774,392" stroke="#fff" stroke-width="5" /><polygon fill="#fff" fill-opacity="0.4" points="338,316 337,317 337,382 339,382 340,381 349,381 350,382 374,382 374,317 344,317 343,316" stroke="#fff" stroke-width="5" /><polygon fill="#fff" fill-opacity="0.4" points="343,321 347,321 348,322 348,323 349,324 349,377 348,378 348,380 347,381 343,381 341,379 341,323" stroke="#fff" stroke-width="5" /><polygon fill="#fff" fill-opacity="0.4" points="213,297 213,310 214,311 219,311 220,310 233,310 234,311 237,311 238,310 238,297" stroke="#fff" stroke-width="5" /><polygon fill="#fff" fill-opacity="0.4" points="337,272 336,273 337,274 337,302 340,302 341,301 369,301 370,302 374,302 374,272 347,272 346,273 339,273 338,272" stroke="#fff" stroke-width="5" /><polygon fill="#fff" fill-opacity="0.4" points="343,274 347,274 348,275 348,298 347,299 347,300 346,301 343,301 341,299 341,276" stroke="#fff" stroke-width="5" /><polygon fill="#fff" fill-opacity="0.4" points="259,272 259,301 264,301 264,296 263,295 263,281 264,280 264,276 265,275 271,275 272,276 272,301 302,301 302,300 301,299 301,272" stroke="#fff" stroke-width="5" /><polygon fill="#fff" fill-opacity="0.4" points="353,235 352,236 350,236 346,240 346,241 345,242 345,248 346,249 346,250 349,253 350,253 351,254 353,254 354,255 356,255 357,254 359,254 364,249 364,243 363,242 363,241 358,236 355,236 354,235" stroke="#fff" stroke-width="5" /><polygon fill="#fff" fill-opacity="0.4" points="618,227 617,228 615,228 614,229 613,229 608,234 608,235 606,237 606,239 605,240 605,249 606,250 606,252 608,254 608,255 610,257 611,257 613,259 614,259 615,260 616,260 617,261 623,261 624,260 626,260 627,259 628,259 629,258 630,258 635,253 635,252 636,251 636,249 637,248 637,245 638,244 638,242 637,241 637,238 636,237 636,235 635,234 635,233 632,230 631,230 630,229 629,229 628,228 626,228 625,227" stroke="#fff" stroke-width="5" /><polygon fill="#fff" fill-opacity="0.4" points="274,227 273,228 271,228 270,229 269,229 267,231 266,231 266,232 264,234 264,235 263,236 263,242 264,243 264,244 265,245 265,246 270,251 273,251 274,252 275,252 276,251 280,251 281,250 282,250 283,249 284,249 287,246 287,245 288,244 288,235 287,234 287,233 284,230 283,230 281,228 279,228 278,227" stroke="#fff" stroke-width="5" /><polygon fill="#fff" fill-opacity="0.4" points="375,214 374,215 373,215 371,217 371,218 370,219 370,221 369,222 369,223 370,224 370,227 372,229 372,230 373,231 374,231 375,232 377,232 378,233 380,233 381,232 384,232 387,229 387,227 388,226 388,221 387,220 387,219 386,218 386,217 385,216 384,216 382,214" stroke="#fff" stroke-width="5" /><polygon fill="#fff" fill-opacity="0.4" points="302,195 301,196 300,196 299,197 298,197 293,202 292,202 292,203 291,204 291,205 290,206 290,214 291,215 291,216 292,217 292,218 296,222 297,222 298,223 299,223 300,224 306,224 307,223 309,223 310,222 311,222 312,221 313,221 316,218 316,217 317,216 317,215 318,214 318,212 319,211 319,207 318,206 318,204 317,203 317,202 316,201 316,200 314,198 313,198 311,196 310,196 309,195" stroke="#fff" stroke-width="5" /><polygon fill="#fff" fill-opacity="0.4" points="295,203 296,202 297,203 296,204" stroke="#fff" stroke-width="5" /><polygon fill="#fff" fill-opacity="0.4" points="296,201 297,200 298,201 298,202 297,203 296,202" stroke="#fff" stroke-width="5" /><polygon fill="#fff" fill-opacity="0.4" points="687,176 686,177 326,177 326,178 327,179 327,180 329,182 329,183 331,185 331,186 332,187 332,188 334,190 334,191 335,192 335,193 659,193 660,192 673,192 674,191 678,191 679,190 680,190 681,189 682,189 693,178 693,177 694,176" stroke="#fff" stroke-width="5" /><polygon fill="#fff" fill-opacity="0.4" points="738,156 737,157 735,157 734,158 732,158 731,159 730,159 729,160 727,160 726,161 725,161 725,162 724,163 724,169 723,170 723,174 722,175 722,180 721,181 721,186 720,187 720,193 719,194 719,201 718,202 718,203 717,204 715,204 714,205 710,205 709,206 705,206 704,207 702,207 701,208 697,208 696,209 694,209 693,210 689,210 688,211 684,211 683,212 680,212 679,213 675,213 674,214 670,214 669,215 665,215 664,216 661,216 660,217 656,217 655,218 651,218 650,219 647,219 646,220 641,220 641,221 647,227 647,228 648,229 648,230 649,231 649,232 650,233 650,235 651,236 651,239 652,240 652,249 651,250 651,252 650,253 650,255 649,256 649,257 648,258 648,259 647,260 647,261 639,269 640,270 640,271 641,272 641,274 642,275 642,277 643,278 643,281 644,282 644,286 643,287 642,287 641,288 640,288 639,289 638,289 636,291 635,291 633,293 632,293 630,295 629,295 627,297 626,297 625,298 622,298 620,296 619,296 617,294 616,294 615,293 614,293 613,292 612,292 611,291 610,291 609,290 608,290 606,288 605,288 603,286 602,286 601,285 601,284 602,283 602,280 603,279 603,276 604,275 604,271 600,267 600,266 596,262 596,261 595,260 595,259 594,258 594,256 593,255 593,254 592,253 592,248 591,247 591,246 592,245 592,238 593,237 593,235 594,234 594,232 595,231 595,229 596,228 595,228 594,229 590,229 589,230 586,230 585,231 582,231 581,232 577,232 576,233 573,233 572,234 568,234 567,235 565,235 564,236 561,236 560,237 557,237 556,238 553,238 552,239 549,239 548,240 544,240 543,241 539,241 538,242 534,242 533,243 530,243 529,244 526,244 525,245 523,245 522,246 518,246 517,247 514,247 513,248 509,248 508,249 505,249 504,250 501,250 500,251 497,251 496,252 492,252 491,253 488,253 487,254 484,254 483,255 480,255 479,256 475,256 474,257 470,257 469,258 464,258 463,259 460,259 459,260 455,260 454,261 451,261 450,262 446,262 445,263 445,265 446,266 446,268 447,269 447,271 448,272 448,273 449,274 449,278 450,279 450,284 451,285 451,288 452,289 452,291 453,292 453,294 454,295 454,298 455,299 455,307 456,308 456,379 455,380 455,381 454,382 444,382 443,383 443,384 440,387 440,388 434,394 434,395 429,400 429,401 427,403 427,404 426,405 426,410 427,411 427,425 426,426 426,447 425,448 421,448 420,449 330,449 329,450 329,454 328,455 328,470 327,471 327,481 326,482 326,501 325,502 302,502 301,501 301,319 302,318 302,317 292,317 291,316 276,316 275,317 274,317 273,316 271,316 271,317 272,318 272,339 273,340 273,478 272,479 273,480 272,481 272,494 271,495 271,496 270,497 267,497 266,496 266,495 265,494 265,490 264,489 264,318 265,317 265,316 260,316 260,352 259,353 259,365 260,366 260,375 259,376 259,490 260,491 260,501 259,502 240,502 238,500 238,325 226,325 225,324 216,324 215,325 214,325 214,328 213,329 213,471 214,472 214,499 212,501 201,501 200,502 198,502 197,501 197,452 196,451 196,332 197,331 197,272 196,271 196,264 197,263 197,198 196,197 196,194 197,193 248,193 249,192 250,192 251,191 251,188 252,187 252,185 253,184 253,183 254,182 254,180 255,179 255,177 179,177 179,178 180,179 180,511 195,511 196,512 211,512 212,511 236,511 237,512 260,512 261,511 369,511 370,512 394,512 395,511 595,511 596,510 635,510 636,511 663,511 664,510 695,510 696,511 719,511 720,510 727,510 728,511 839,511 839,495 838,494 838,216 839,215 839,212 838,211 838,186 839,185 839,177 838,176 837,177 790,177 789,178 792,181 792,182 795,185 795,186 796,187 796,188 798,190 798,192 799,193 821,193 823,195 822,196 822,500 821,501 766,501 765,502 739,502 738,501 738,481 737,481 736,482 724,482 723,481 708,481 707,480 552,480 551,481 419,481 418,480 398,480 398,502 397,503 396,503 395,502 394,503 385,503 384,502 374,502 373,501 373,472 372,471 372,466 373,465 425,465 426,466 426,467 427,468 427,470 428,469 497,469 498,470 517,470 517,430 516,429 516,381 511,381 510,380 510,366 509,365 509,356 510,355 510,285 511,284 516,284 517,283 521,283 522,282 526,282 527,281 530,281 531,280 535,280 536,279 539,279 540,278 543,278 544,277 547,277 548,276 551,276 552,275 555,275 556,274 559,274 560,273 564,273 565,272 569,272 570,271 575,271 576,270 580,270 581,269 585,269 586,270 586,273 585,274 585,280 584,281 584,287 583,288 583,291 582,292 582,295 581,296 581,299 580,300 580,303 579,304 579,306 578,307 578,310 577,311 577,315 576,316 576,320 575,321 575,324 574,325 574,328 573,329 573,332 572,333 572,337 571,338 571,341 570,342 570,345 569,346 569,349 568,350 568,353 567,354 567,356 566,357 566,360 565,361 565,364 564,365 564,369 563,370 563,373 562,374 562,378 561,379 561,382 560,383 560,387 559,388 559,390 558,391 558,394 557,395 557,398 556,399 556,402 555,403 555,405 554,406 554,409 553,410 553,412 552,413 552,416 551,417 551,420 550,421 550,424 549,425 549,428 548,429 548,432 547,433 547,436 546,437 546,441 545,442 545,444 544,445 544,448 543,449 543,451 542,452 542,456 541,457 541,460 540,461 540,465 539,466 539,470 558,470 559,469 563,469 564,468 565,468 566,467 568,467 569,466 570,466 571,465 572,465 573,464 575,464 576,463 577,463 578,462 579,462 580,461 581,461 582,460 583,460 584,459 585,459 586,458 587,458 588,457 589,457 590,456 591,456 592,455 593,455 594,454 595,454 596,453 597,453 599,451 600,451 601,450 602,450 603,449 604,449 605,448 606,448 607,447 608,447 609,446 610,446 611,445 613,445 614,444 615,444 617,442 618,442 619,441 620,441 622,439 623,439 624,438 625,439 626,439 627,440 628,440 629,441 630,441 631,442 632,442 633,443 634,443 635,444 636,444 637,445 638,445 639,446 640,446 641,447 642,447 643,448 644,448 646,450 647,450 648,451 649,451 650,452 652,452 653,453 654,453 655,454 656,454 657,455 658,455 660,457 661,457 662,458 663,458 664,459 665,459 666,460 667,460 668,461 670,461 671,462 672,462 673,463 674,463 675,464 676,464 677,465 678,465 679,466 680,466 681,467 683,467 684,468 685,468 686,469 688,469 689,470 711,470 711,469 710,468 710,464 709,463 709,460 708,459 708,456 707,455 707,452 706,451 706,448 705,447 705,444 704,443 704,440 703,439 703,436 702,435 702,432 701,431 701,428 700,427 700,424 699,423 699,421 698,420 698,417 697,416 697,413 696,412 696,409 695,408 695,405 694,404 694,402 693,401 693,398 692,397 692,394 691,393 691,390 690,389 690,386 689,385 689,382 688,381 688,378 687,377 687,374 686,373 686,370 685,369 685,366 684,365 684,363 683,362 683,359 682,358 682,355 681,354 681,352 680,351 680,348 679,347 679,345 678,344 678,342 677,341 677,338 676,337 676,334 675,333 675,330 674,329 674,326 673,325 673,322 672,321 672,318 671,317 671,314 670,313 670,311 669,310 669,308 668,307 668,304 667,303 667,301 666,300 666,297 665,296 665,293 664,292 664,289 663,288 663,284 662,283 662,281 661,280 661,277 660,276 660,273 659,272 659,269 658,268 658,266 657,265 657,262 656,261 656,258 655,257 655,255 656,254 657,254 658,253 663,253 664,252 667,252 668,251 672,251 673,250 676,250 677,249 681,249 682,248 686,248 687,247 690,247 691,246 694,246 695,245 698,245 699,244 703,244 704,243 707,243 708,242 713,242 714,241 717,241 718,240 722,240 723,239 725,239 726,238 729,241 729,242 731,244 731,245 733,247 733,248 735,250 735,251 737,253 737,254 738,255 738,256 740,258 740,259 742,261 742,262 744,264 744,265 746,267 746,268 747,269 747,270 749,272 749,273 751,275 751,276 753,278 753,279 755,281 755,282 757,284 757,285 758,286 758,287 760,289 760,290 761,291 761,292 763,292 764,291 770,291 771,292 771,324 770,325 770,340 773,340 774,341 781,341 782,340 786,340 785,339 785,332 786,331 786,325 785,325 783,323 783,290 782,289 782,286 781,285 781,284 780,283 780,280 781,279 781,272 782,271 782,265 783,264 783,224 782,223 782,218 781,217 781,215 780,214 780,211 779,210 779,209 778,208 778,206 777,205 777,204 776,203 776,201 775,200 775,199 774,198 774,197 773,196 773,195 771,193 771,192 770,191 770,190 768,188 768,187 766,185 766,184 764,182 764,181 760,177 760,176 741,157 740,157 739,156" stroke="#fff" stroke-width="5" /><polygon fill="#fff" fill-opacity="0.4" points="447,436 448,435 449,435 450,436 452,436 453,435 461,435 462,436 462,449 461,450 447,450 446,449 446,444 447,443" stroke="#fff" stroke-width="5" /><polygon fill="#fff" fill-opacity="0.4" points="479,435 480,434 481,435 494,435 495,436 495,450 494,451 480,451 479,450" stroke="#fff" stroke-width="5" /><polygon fill="#fff" fill-opacity="0.4" points="570,411 572,411 573,412 574,412 575,413 576,413 577,414 578,414 579,415 581,415 582,416 583,416 584,417 585,417 586,418 587,418 588,419 589,419 590,420 592,420 593,421 594,421 595,422 596,422 597,423 598,423 599,424 600,424 601,425 602,425 603,426 604,426 605,427 606,427 607,428 608,428 610,430 609,431 608,431 607,432 606,432 605,433 604,433 603,434 602,434 601,435 600,435 598,437 597,437 596,438 595,438 594,439 593,439 592,440 591,440 589,442 588,442 587,443 586,443 585,444 584,444 583,445 582,445 581,446 580,446 579,447 578,447 577,448 576,448 575,449 574,449 573,450 572,450 570,452 569,452 568,453 567,453 566,454 564,454 563,455 562,455 561,456 560,456 559,457 558,456 558,453 559,452 559,448 560,447 560,444 561,443 561,440 562,439 562,436 563,435 563,432 564,431 564,428 565,427 565,425 566,424 566,421 567,420 567,417 568,416 568,413" stroke="#fff" stroke-width="5" /><polygon fill="#fff" fill-opacity="0.4" points="676,411 677,410 679,410 680,411 680,413 681,414 681,416 682,417 682,420 683,421 683,424 684,425 684,428 685,429 685,431 686,432 686,435 687,436 687,438 688,439 688,442 689,443 689,446 690,447 690,450 691,451 691,453 692,454 692,456 691,457 690,457 689,456 688,456 687,455 686,455 685,454 684,454 683,453 682,453 681,452 680,452 679,451 678,451 677,450 676,450 675,449 674,449 673,448 672,448 671,447 670,447 669,446 668,446 666,444 665,444 664,443 663,443 662,442 661,442 660,441 659,441 658,440 657,440 656,439 655,439 654,438 653,438 652,437 651,437 650,436 649,436 648,435 647,435 646,434 645,434 644,433 643,433 642,432 640,432 638,430 641,427 643,427 644,426 645,426 646,425 647,425 648,424 649,424 650,423 651,423 652,422 653,422 654,421 656,421 658,419 659,419 660,418 661,418 662,417 663,417 664,416 666,416 667,415 668,415 669,414 670,414 671,413 672,413 673,412 674,412 675,411" stroke="#fff" stroke-width="5" /><polygon fill="#fff" fill-opacity="0.4" points="479,406 480,405 494,405 495,406 495,411 494,412 494,421 493,422 492,421 481,421 480,420 479,420 478,419 478,411 479,410" stroke="#fff" stroke-width="5" /><polygon fill="#fff" fill-opacity="0.4" points="446,406 447,405 461,405 462,406 462,409 463,410 463,420 461,422 455,422 454,421 448,421 447,420 447,416 446,415" stroke="#fff" stroke-width="5" /><polygon fill="#fff" fill-opacity="0.4" points="622,375 625,375 626,376 627,376 628,377 629,377 631,379 632,379 633,380 634,380 635,381 636,381 637,382 638,382 639,383 640,383 641,384 642,384 643,385 644,385 646,387 647,387 648,388 649,388 651,390 652,390 653,391 654,391 655,392 656,392 657,393 658,393 659,394 660,394 661,395 662,395 663,396 664,396 665,397 666,397 667,398 667,399 665,401 664,401 663,402 662,402 661,403 660,403 659,404 658,404 657,405 656,405 655,406 653,406 652,407 651,407 650,408 649,408 647,410 646,410 645,411 644,411 643,412 642,412 641,413 640,413 639,414 638,414 637,415 636,415 635,416 634,416 633,417 632,417 631,418 630,418 628,420 627,420 626,421 622,421 621,420 620,420 619,419 618,419 617,418 616,418 615,417 614,417 613,416 612,416 611,415 610,415 609,414 608,414 606,412 605,412 604,411 603,411 602,410 601,410 600,409 599,409 598,408 597,408 596,407 595,407 594,406 593,406 592,405 591,405 590,404 589,404 588,403 587,403 586,402 583,402 581,400 581,399 582,398 584,398 585,397 586,397 587,396 588,396 590,394 591,394 592,393 593,393 595,391 596,391 597,390 598,390 599,389 600,389 602,387 603,387 604,386 605,386 606,385 607,385 609,383 610,383 611,382 612,382 613,381 614,381 616,379 617,379 618,378 619,378" stroke="#fff" stroke-width="5" /><polygon fill="#fff" fill-opacity="0.4" points="662,353 663,352 664,352 665,353 665,354 666,355 666,357 667,358 667,362 668,363 668,366 669,367 669,369 670,370 670,373 671,374 671,376 672,377 672,379 673,380 673,383 674,384 674,385 673,386 672,386 671,385 670,385 669,384 668,384 667,383 666,383 665,382 664,382 663,381 662,381 661,380 660,380 658,378 657,378 656,377 655,377 654,376 653,376 652,375 651,375 650,374 649,374 648,373 647,373 645,371 644,371 643,370 642,370 640,368 638,368 637,367 637,366 639,364 640,364 641,363 642,363 643,362 644,362 645,361 646,361 647,360 648,360 649,359 651,359 652,358 653,358 654,357 655,357 657,355 658,355 659,354 660,354 661,353" stroke="#fff" stroke-width="5" /><polygon fill="#fff" fill-opacity="0.4" points="582,353 583,352 584,352 585,353 586,353 587,354 589,354 590,355 591,355 592,356 593,356 594,357 595,357 596,358 597,358 598,359 599,359 600,360 601,360 602,361 603,361 604,362 605,362 606,363 607,363 608,364 609,364 610,365 611,365 612,366 611,367 610,367 609,368 608,368 607,369 606,369 604,371 603,371 602,372 601,372 599,374 598,374 596,376 595,376 594,377 593,377 592,378 591,378 590,379 589,379 588,380 587,380 586,381 585,381 584,382 583,382 582,383 581,383 579,385 578,385 577,386 576,386 575,385 575,381 576,380 576,377 577,376 577,373 578,372 578,369 579,368 579,365 580,364 580,361 581,360 581,357 582,356" stroke="#fff" stroke-width="5" /><polygon fill="#fff" fill-opacity="0.4" points="218,328 219,327 220,327 222,329 222,330 223,331 223,477 222,478 222,492 221,493 220,493 219,492 219,486 218,485 218,464 217,463 217,331 218,330" stroke="#fff" stroke-width="5" /><polygon fill="#fff" fill-opacity="0.4" points="620,320 621,319 624,319 625,320 626,320 627,321 628,321 629,322 630,322 631,323 632,323 634,325 635,325 636,326 637,326 638,327 639,327 641,329 642,329 643,330 644,330 645,331 646,331 648,333 649,333 650,334 651,334 652,335 653,335 654,336 655,336 656,337 657,337 658,338 656,340 655,340 654,341 653,341 651,343 650,343 649,344 648,344 646,346 645,346 644,347 643,347 642,348 641,348 639,350 638,350 637,351 636,351 635,352 634,352 632,354 631,354 630,355 629,355 627,357 626,357 625,358 624,358 623,357 622,357 621,356 620,356 618,354 617,354 616,353 615,353 614,352 612,352 611,351 610,351 609,350 608,350 607,349 606,349 605,348 604,348 602,346 601,346 600,345 599,345 597,343 596,343 594,341 593,341 592,340 591,340 589,338 591,336 592,336 593,335 594,335 595,334 596,334 597,333 598,333 600,331 601,331 602,330 603,330 605,328 606,328 607,327 608,327 609,326 610,326 612,324 613,324 614,323 615,323 616,322 617,322 619,320" stroke="#fff" stroke-width="5" /><polygon fill="#fff" fill-opacity="0.4" points="648,301 649,300 650,300 651,301 651,302 652,303 652,306 653,307 653,309 654,310 654,312 655,313 655,315 656,316 656,318 657,319 657,320 656,321 655,320 654,320 652,318 651,318 650,317 649,317 648,316 647,316 646,315 644,315 643,314 642,314 641,313 640,313 639,312 638,312 637,311 636,311 635,310 635,308 637,306 638,306 639,305 640,305 641,304 642,304 643,303 644,303 646,301" stroke="#fff" stroke-width="5" /><polygon fill="#fff" fill-opacity="0.4" points="595,300 596,299 597,300 598,300 599,301 600,301 602,303 603,303 604,304 605,304 606,305 607,305 608,306 609,306 610,307 611,307 612,308 612,309 610,311 609,311 608,312 606,312 605,313 604,313 603,314 602,314 601,315 600,315 599,316 598,316 596,318 595,318 594,319 593,319 591,321 590,320 590,318 591,317 591,314 592,313 592,310 593,309 593,307 594,306 594,303 595,302" stroke="#fff" stroke-width="5" /><polygon fill="#fff" fill-opacity="0.4" points="490,292 491,291 494,291 495,292 495,380 493,382 471,382 470,381 470,297 469,296 471,294 478,294 479,293 485,293 486,292" stroke="#fff" stroke-width="5" /><polygon fill="#fff" fill-opacity="0.4" points="483,264 484,263 492,263 493,264 493,266 491,268 490,268 489,269 488,269 487,270 484,270 483,271 480,271 479,272 474,272 473,273 469,273 468,274 465,274 464,275 461,275 460,276 455,276 454,277 453,277 451,275 451,274 452,273 452,272 453,271 454,271 455,270 456,270 457,269 459,269 460,268 463,268 464,267 468,267 469,266 473,266 474,265 479,265 480,264" stroke="#fff" stroke-width="5" /><polygon fill="#fff" fill-opacity="0.4" points="571,244 572,243 573,243 575,245 575,250 574,251 570,251 569,252 566,252 565,253 563,253 562,254 559,254 558,255 555,255 554,256 549,256 548,257 544,257 543,258 539,258 538,259 535,259 534,260 532,260 531,259 531,258 535,254 535,253 536,252 537,252 538,251 540,251 541,250 544,250 545,249 548,249 549,248 553,248 554,247 559,247 560,246 564,246 565,245 567,245 568,244" stroke="#fff" stroke-width="5" /><polygon fill="#fff" fill-opacity="0.4" points="738,182 739,181 740,182 740,183 749,192 749,193 752,196 752,197 754,199 754,200 755,201 755,202 756,203 756,204 757,205 757,206 758,207 758,208 759,209 759,210 760,211 760,213 761,214 761,217 762,218 762,221 763,222 763,226 764,227 764,233 765,234 765,242 766,243 766,257 765,258 765,263 764,264 761,261 761,260 759,258 759,257 757,255 757,254 755,252 755,251 753,249 753,248 752,247 752,246 750,244 750,243 748,241 748,240 747,239 747,238 746,237 746,236 745,235 745,234 744,233 744,231 743,230 743,228 742,227 742,225 741,224 741,221 740,220 740,217 739,216 739,213 738,212 738,209 737,208 737,203 736,202 736,193 737,192 737,185 738,184" stroke="#fff" stroke-width="5" /></svg>