<?xml version="1.0" encoding="utf-8" ?>
<svg baseProfile="tiny" height="1024" version="1.2" width="1024" xmlns="http://www.w3.org/2000/svg" xmlns:ev="http://www.w3.org/2001/xml-events" xmlns:xlink="http://www.w3.org/1999/xlink"><defs /><rect fill="#fff" height="1024" width="1024" x="0" y="0" /><polygon fill="#000" fill-opacity="0.4" points="332,832 332,833 338,833 337,832 336,832 335,833 334,832" stroke="#000" stroke-width="5" /><polygon fill="#000" fill-opacity="0.4" points="271,797 269,799 269,800 266,803 266,804 262,808 261,808 258,811 257,811 256,812 255,812 251,816 251,818 255,822 255,823 260,818 261,818 263,816 264,816 266,814 267,814 273,808 273,807 274,806 274,805 275,804 275,801 273,799 273,798 272,797" stroke="#000" stroke-width="5" /><polygon fill="#000" fill-opacity="0.4" points="374,789 373,790 372,790 353,809 352,809 351,810 350,810 349,811 348,811 347,812 347,814 349,816 350,816 351,817 354,817 356,815 357,815 360,812 361,812 368,805 369,805 376,798 376,797 377,796 377,792 376,791 376,790 375,789" stroke="#000" stroke-width="5" /><polygon fill="#000" fill-opacity="0.4" points="461,787 458,790 458,791 443,806 443,807 441,809 441,811 442,812 443,812 444,813 446,813 448,811 449,811 451,809 452,809 454,807 455,807 458,804 459,804 462,801 462,800 463,799 463,798 464,797 464,789 462,787" stroke="#000" stroke-width="5" /><polygon fill="#000" fill-opacity="0.4" points="312,759 311,760 310,760 310,761 304,767 303,767 298,772 298,775 299,776 301,776 304,773 305,773 309,769 310,769 316,763 316,762 313,759" stroke="#000" stroke-width="5" /><polygon fill="#000" fill-opacity="0.4" points="272,714 268,718 268,719 258,729 257,729 254,732 253,732 253,733 251,735 251,736 252,737 252,738 253,738 254,739 255,739 259,735 260,735 261,734 262,734 263,733 264,733 265,732 266,732 272,726 272,725 273,724 273,723 274,722 274,720 275,719 274,718 274,715 273,714" stroke="#000" stroke-width="5" /><polygon fill="#000" fill-opacity="0.4" points="436,713 421,728 420,728 418,730 417,730 416,731 415,731 415,732 416,733 416,734 417,735 417,736 419,738 421,738 424,735 425,735 427,733 428,733 430,731 431,731 433,729 433,728 436,725 436,724 438,722 438,721 439,720 439,716 438,715 438,714 437,713" stroke="#000" stroke-width="5" /><polygon fill="#000" fill-opacity="0.4" points="355,712 353,714 352,714 350,716 350,717 339,728 338,728 337,729 336,729 334,731 334,736 335,737 337,737 338,736 339,736 341,734 342,734 343,733 344,733 346,731 347,731 349,729 350,729 356,723 356,722 357,721 357,715 356,714 356,713" stroke="#000" stroke-width="5" /><polygon fill="#000" fill-opacity="0.4" points="669,665 664,670 664,671 661,674 661,675 659,677 659,678 658,679 658,680 657,681 657,683 656,684 656,688 655,689 655,699 656,700 656,701 658,703 663,703 663,690 662,689 662,688 663,687 663,683 665,681 665,680 669,676 669,675 671,673 671,671 672,670 672,669 673,668 673,666 672,665" stroke="#000" stroke-width="5" /><polygon fill="#000" fill-opacity="0.4" points="310,659 295,674 294,674 293,675 293,676 292,677 292,678 293,679 293,680 295,682 296,682 296,681 297,680 298,680 306,672 306,671 311,666 311,665 314,662 314,660 313,659" stroke="#000" stroke-width="5" /><polygon fill="#000" fill-opacity="0.4" points="234,659 231,662 230,662 229,663 229,664 219,674 218,674 216,676 215,676 214,677 216,679 216,680 217,681 217,682 218,683 218,682 221,679 222,679 225,676 226,676 230,672 230,671 234,667" stroke="#000" stroke-width="5" /><polygon fill="#000" fill-opacity="0.4" points="775,651 772,654 771,654 769,656 768,656 767,657 765,657 764,658 763,658 762,659 760,659 759,660 757,660 757,663 758,664 758,665 759,666 759,668 760,669 760,670 761,671 761,672 762,673 762,675 763,676 763,678 764,679 764,683 765,684 765,690 766,691 766,699 765,700 765,707 764,708 764,712 763,713 763,715 762,716 762,717 761,718 761,720 760,721 760,722 759,723 759,724 758,725 758,726 757,727 757,728 754,731 754,732 753,733 753,734 752,735 752,737 755,740 755,742 751,746 750,746 748,748 747,748 746,749 745,749 744,750 743,750 742,751 741,751 740,752 738,752 737,753 735,753 734,754 733,754 732,753 732,752 731,751 731,748 730,747 730,744 729,743 729,741 728,740 728,739 727,738 727,737 726,736 726,735 725,735 725,736 723,738 723,739 721,741 721,742 718,745 718,746 716,748 716,749 714,751 714,752 712,754 712,755 711,756 711,757 709,759 709,760 707,762 707,763 705,765 705,766 704,767 704,768 702,770 702,771 701,772 701,773 700,774 700,775 694,781 693,781 693,782 694,783 695,783 698,786 699,786 701,788 702,788 703,789 705,789 706,790 707,790 708,791 710,791 711,792 714,792 715,793 717,793 718,794 720,794 721,795 722,795 724,797 725,797 726,798 727,798 728,799 729,799 730,800 731,800 732,801 733,801 734,802 735,802 736,803 737,803 738,804 739,804 742,807 743,807 743,806 744,805 744,796 745,795 745,788 747,786 748,786 749,785 750,785 751,784 752,784 756,780 756,779 757,778 757,771 758,770 758,769 759,768 759,767 763,763 763,762 765,760 765,759 767,757 767,756 769,754 769,753 772,750 772,749 774,747 774,746 775,745 775,744 777,742 777,741 779,739 779,738 780,737 780,736 781,735 781,733 782,732 782,731 783,730 783,727 784,726 784,723 785,722 785,719 786,718 786,716 787,715 787,710 788,709 788,686 787,685 787,680 786,679 786,676 785,675 785,673 784,672 784,670 783,669 783,667 782,666 782,664 781,663 781,662 780,661 780,659 779,658 779,656 778,655 778,654 777,653 777,651" stroke="#000" stroke-width="5" /><polygon fill="#000" fill-opacity="0.4" points="387,651 386,652 385,652 382,655 382,656 377,661 377,662 375,664 374,664 372,666 371,666 369,668 368,668 367,669 367,671 368,672 368,673 369,674 369,675 370,676 371,676 378,669 379,669 381,667 382,667 383,666 383,665 387,661 387,660 390,657 390,652 389,651" stroke="#000" stroke-width="5" /><polygon fill="#000" fill-opacity="0.4" points="574,644 571,647 571,648 569,650 569,651 568,652 568,653 566,655 566,656 564,658 564,659 562,661 562,662 560,664 560,665 559,666 559,667 558,668 558,669 557,670 557,671 556,672 556,673 554,675 554,676 553,677 553,679 552,680 552,681 551,682 551,683 550,684 550,685 549,686 549,687 548,688 548,689 547,690 547,692 546,693 549,693 550,692 562,692 564,694 564,697 565,698 565,702 566,703 566,707 567,708 567,712 568,713 568,716 569,717 569,719 570,720 570,722 571,723 571,725 572,726 572,727 573,728 573,729 574,730 574,731 575,732 575,733 576,734 576,735 578,737 578,738 579,739 579,740 581,742 581,743 582,744 582,745 583,746 583,747 584,748 584,749 585,750 585,751 587,753 587,754 588,755 588,756 589,757 589,758 591,760 591,761 592,762 592,763 593,764 593,765 595,767 595,768 596,769 596,771 598,773 598,774 599,775 599,776 603,780 604,780 605,781 606,781 607,782 608,782 609,783 610,783 611,784 612,784 613,785 615,785 616,786 617,786 618,787 620,787 621,788 623,788 624,789 626,789 627,790 629,790 630,791 633,791 634,792 636,792 637,793 639,793 640,794 642,794 643,795 645,795 646,796 649,796 650,797 653,797 654,798 659,798 660,799 667,799 668,800 672,800 673,801 674,801 674,771 660,771 659,770 653,770 652,769 646,769 645,768 641,768 640,767 637,767 636,766 633,766 632,765 629,765 628,764 626,764 625,763 622,763 621,762 619,762 616,759 616,758 615,757 615,755 614,754 614,753 613,752 613,751 612,750 612,749 611,748 611,747 610,746 610,745 608,743 608,742 607,741 607,740 606,739 606,738 604,736 604,735 603,734 603,733 602,732 602,731 601,730 601,729 600,728 600,727 599,726 599,725 598,724 598,722 597,721 597,719 596,718 596,715 595,714 595,712 594,711 594,708 593,707 593,704 592,703 592,700 591,699 591,694 592,693 613,693 613,692 610,689 610,688 607,685 607,684 605,682 605,681 603,679 603,678 601,676 601,675 599,673 599,672 598,671 598,670 596,668 596,667 594,665 594,664 593,663 593,662 592,661 592,660 591,659 591,658 590,657 590,656 589,655 589,653 588,652 588,651 586,649 586,648 585,647 585,646 583,644" stroke="#000" stroke-width="5" /><polygon fill="#000" fill-opacity="0.4" points="273,633 257,649 257,651 258,652 261,652 263,650 264,650 266,648 267,648 270,645 271,645 275,641 275,640 276,639 276,635 275,634 275,633" stroke="#000" stroke-width="5" /><polygon fill="#000" fill-opacity="0.4" points="676,618 676,619 674,621 674,622 672,624 672,625 670,627 670,628 668,630 668,631 667,632 667,633 666,634 666,635 664,637 664,638 662,640 662,641 660,643 660,644 657,647 657,648 652,653 652,654 647,659 647,660 644,663 644,664 642,666 642,667 641,668 641,669 639,671 639,672 638,673 638,674 637,675 637,677 636,678 636,680 635,681 635,683 634,684 634,687 633,688 633,695 632,696 632,699 633,700 633,706 634,707 634,710 635,711 635,713 636,714 636,715 637,716 637,717 638,718 638,719 640,721 640,722 650,732 651,732 653,734 654,734 656,736 657,736 658,737 660,737 661,738 663,738 664,739 667,739 668,740 673,740 674,741 679,741 680,740 683,740 684,739 687,739 688,738 690,738 691,737 692,737 693,736 694,736 695,735 696,735 698,733 699,733 701,731 702,731 710,723 710,722 712,720 712,719 713,718 713,717 715,715 715,714 716,713 716,712 717,711 717,709 718,708 718,703 719,702 719,694 718,693 718,688 717,687 717,684 716,683 716,681 715,680 715,679 714,678 714,676 713,675 713,674 712,673 712,672 711,671 711,670 710,669 710,668 709,667 709,666 707,664 707,663 705,661 705,660 702,657 702,656 700,654 700,653 698,651 698,650 697,649 697,648 694,645 694,644 692,642 692,641 690,639 690,638 689,637 689,636 687,634 687,633 686,632 686,631 684,629 684,628 683,627 683,626 682,625 682,624 680,622 680,621 678,619 678,618" stroke="#000" stroke-width="5" /><polygon fill="#000" fill-opacity="0.4" points="675,642 676,641 678,643 678,644 681,647 681,648 683,650 683,651 686,654 686,655 688,657 688,658 690,660 690,661 693,664 693,665 695,667 695,668 697,670 697,671 699,673 699,674 701,676 701,677 702,678 702,679 703,680 703,682 704,683 704,684 705,685 705,688 706,689 706,693 707,694 707,701 706,702 706,705 705,706 705,708 704,709 704,710 703,711 703,712 700,715 700,716 695,721 694,721 692,723 691,723 690,724 689,724 688,725 687,725 686,726 685,726 684,727 681,727 680,728 671,728 670,727 668,727 667,726 665,726 664,725 663,725 662,724 661,724 660,723 659,723 658,722 657,722 650,715 650,714 647,711 647,710 646,709 646,708 645,707 645,706 644,705 644,702 643,701 643,692 644,691 644,687 645,686 645,684 646,683 646,682 647,681 647,679 648,678 648,677 649,676 649,675 651,673 651,672 653,670 653,669 661,661 661,660 666,655 666,654 671,649 671,648 673,646 673,645 675,643" stroke="#000" stroke-width="5" /><polygon fill="#000" fill-opacity="0.4" points="331,588 328,591 328,592 322,598 322,599 318,603 317,603 313,607 312,607 311,608 310,608 309,609 309,611 312,614 312,615 313,616 314,616 314,615 321,608 322,608 328,602 328,601 331,598 331,597 333,595 333,594 334,593 334,591 333,590 333,589 332,588" stroke="#000" stroke-width="5" /><polygon fill="#000" fill-opacity="0.4" points="664,574 663,575 660,575 659,576 656,576 655,577 652,577 651,578 649,578 648,579 646,579 645,580 643,580 642,581 641,581 640,582 639,582 638,583 637,583 636,584 634,584 633,585 632,585 631,586 630,586 629,587 627,587 626,588 625,588 623,590 622,590 621,591 620,591 618,593 617,593 615,595 614,595 610,599 609,599 597,611 597,612 594,615 594,616 591,619 591,620 590,621 590,622 589,623 589,624 587,626 587,627 586,628 586,629 585,630 585,631 584,632 584,633 583,634 583,635 584,635 585,636 586,636 590,640 591,640 599,648 599,649 601,647 602,647 602,646 605,643 605,642 607,640 607,639 609,637 609,636 612,633 612,632 614,630 614,629 625,618 626,618 631,613 632,613 634,611 635,611 637,609 638,609 639,608 640,608 641,607 642,607 643,606 644,606 645,605 646,605 647,604 648,604 649,603 651,603 652,602 654,602 655,601 657,601 658,600 663,600 664,599 683,599 684,600 688,600 689,601 693,601 694,602 697,602 698,603 700,603 701,604 703,604 704,605 707,605 708,606 709,606 710,607 712,607 713,608 714,608 715,609 717,609 718,610 719,610 720,611 721,611 723,613 723,614 721,616 720,616 719,617 718,617 715,620 714,620 709,625 709,626 706,629 706,630 707,630 708,631 716,631 717,632 727,632 728,633 743,633 744,634 753,634 754,635 758,635 759,634 759,629 760,628 760,621 761,620 761,614 762,613 762,609 763,608 763,603 764,602 764,598 765,597 765,592 766,591 766,586 767,585 767,581 766,582 763,582 762,583 759,583 758,584 755,584 754,585 753,585 752,586 751,586 748,589 745,589 744,588 743,588 742,587 739,587 738,586 736,586 735,585 732,585 731,584 728,584 727,583 724,583 723,582 720,582 719,581 716,581 715,580 711,580 710,579 707,579 706,578 703,578 702,577 698,577 697,576 693,576 692,575 687,575 686,574" stroke="#000" stroke-width="5" /><polygon fill="#000" fill-opacity="0.4" points="198,547 198,699 197,700 198,701 199,701 200,702 202,702 203,703 204,703 205,704 206,704 209,707 210,707 215,712 216,712 221,717 222,717 225,720 226,720 227,721 228,721 231,724 231,726 230,727 230,741 231,742 231,744 229,746 226,746 225,747 224,747 222,749 221,749 218,752 217,752 214,755 213,755 210,758 209,758 206,761 205,761 203,763 202,763 200,765 198,765 198,789 201,792 202,792 207,797 208,797 212,801 213,801 215,803 216,803 219,806 220,806 224,810 225,810 226,811 227,811 228,812 230,812 231,813 231,832 230,833 247,833 245,831 245,828 244,827 244,816 243,815 243,813 242,812 242,810 246,806 247,806 256,797 257,797 265,789 266,789 268,787 269,787 270,786 277,786 278,787 280,787 282,789 283,789 286,792 287,792 289,794 290,794 295,799 296,799 301,804 302,804 307,809 308,809 309,810 310,810 312,812 312,815 311,816 311,833 330,833 329,832 329,821 328,820 328,812 330,810 331,810 332,809 333,809 335,807 336,807 338,805 339,805 340,804 341,804 343,802 344,802 347,799 348,799 356,791 357,791 363,785 364,785 367,782 368,782 370,780 371,780 373,778 374,778 378,774 379,774 382,771 383,771 384,770 385,770 386,769 387,769 388,768 392,768 394,770 395,770 401,776 402,776 403,777 403,778 407,782 408,782 412,786 413,786 418,791 418,807 419,808 419,811 420,812 420,817 421,818 421,819 420,820 411,820 410,821 409,821 408,822 407,822 406,823 405,823 403,825 402,825 397,830 397,831 396,832 396,834 397,834 398,833 450,833 450,831 440,821 439,821 437,819 436,819 433,816 433,814 432,813 432,811 431,810 431,806 435,802 435,801 437,799 437,798 439,796 439,795 442,792 442,791 445,788 446,788 448,786 449,786 454,781 455,781 458,778 459,778 461,776 469,776 470,777 473,777 474,778 477,778 478,779 483,779 483,776 482,775 482,760 483,759 483,745 482,744 482,736 483,735 483,712 482,711 482,548 203,548 202,547" stroke="#000" stroke-width="5" /><polygon fill="#000" fill-opacity="0.4" points="441,790 442,791 442,792 440,794 439,793 439,792" stroke="#000" stroke-width="5" /><polygon fill="#000" fill-opacity="0.4" points="232,756 238,756 239,757 240,757 241,758 242,758 243,759 244,759 245,760 246,760 248,762 249,762 252,765 253,765 256,768 257,768 260,771 261,771 266,776 266,777 265,778 264,778 263,779 262,779 261,780 260,780 257,783 256,783 249,790 248,790 236,802 232,802 230,800 229,800 224,795 223,795 218,790 217,790 205,778 206,777 206,776 209,773 210,773 211,772 212,772 213,771 214,771 216,769 217,769 219,767 220,767 229,758 230,758" stroke="#000" stroke-width="5" /><polygon fill="#000" fill-opacity="0.4" points="310,752 311,751 317,751 318,752 321,752 322,753 325,753 326,754 327,754 328,755 329,755 333,759 334,759 343,768 344,768 347,771 348,771 351,774 351,777 350,778 350,780 346,784 345,784 337,792 336,792 330,798 329,798 325,802 324,802 323,803 320,803 319,802 318,802 316,800 315,800 312,797 311,797 306,792 305,792 301,788 300,788 298,786 297,786 293,782 292,782 289,779 289,778 288,777 288,776 287,775 287,773 288,772 288,771 298,761 299,761 302,758 303,758 309,752" stroke="#000" stroke-width="5" /><polygon fill="#000" fill-opacity="0.4" points="435,701 439,701 440,702 442,702 443,703 445,703 446,704 447,704 449,706 450,706 453,709 454,709 457,712 458,712 461,715 462,715 467,720 468,720 471,723 472,723 474,725 475,725 476,726 476,727 475,728 475,753 474,754 473,754 472,755 470,755 469,756 468,756 467,757 466,757 465,758 464,758 463,759 462,759 460,761 459,761 458,762 457,762 455,764 454,764 450,768 449,768 445,772 444,772 443,773 441,773 440,772 438,772 436,770 435,770 433,768 432,768 431,767 430,767 428,765 427,765 426,764 425,764 423,762 422,762 421,761 420,761 418,759 417,759 415,757 414,757 412,755 411,755 410,754 409,754 408,753 407,753 406,752 406,730 405,729 405,725 408,722 409,722 411,720 412,720 414,718 415,718 418,715 419,715 424,710 425,710 432,703 433,703" stroke="#000" stroke-width="5" /><polygon fill="#000" fill-opacity="0.4" points="356,701 357,700 359,700 360,701 361,701 362,702 363,702 364,703 365,703 367,705 368,705 370,707 371,707 374,710 375,710 376,711 377,711 381,715 382,715 386,719 387,719 389,721 390,721 391,722 392,722 393,723 393,725 392,726 392,732 391,733 391,743 392,744 392,752 390,754 388,754 387,755 386,755 385,756 384,756 382,758 381,758 379,760 378,760 377,761 376,761 374,763 373,763 370,766 369,766 368,767 367,767 366,768 365,768 362,771 361,770 361,767 360,766 360,764 352,756 351,756 349,754 348,754 344,750 343,750 339,746 338,746 337,745 336,745 335,744 333,744 332,743 326,743 324,741 324,723 325,722 327,722 329,720 330,720 332,718 333,718 336,715 337,715 341,711 342,711 346,707 347,707 352,702 353,702 354,701" stroke="#000" stroke-width="5" /><polygon fill="#000" fill-opacity="0.4" points="273,701 274,700 277,700 278,701 280,701 281,702 282,702 283,703 284,703 286,705 287,705 291,709 292,709 295,712 296,712 299,715 300,715 303,718 304,718 306,720 307,720 309,722 310,722 311,723 311,726 310,727 310,742 309,743 307,743 306,744 304,744 302,746 301,746 296,751 295,751 291,755 290,755 281,764 281,765 279,767 278,767 277,766 276,766 275,765 274,765 273,764 272,764 269,761 268,761 266,759 265,759 262,756 261,756 257,752 256,752 252,748 250,748 248,746 247,746 246,745 244,745 243,744 243,727 242,726 242,724 243,723 244,723 245,722 247,722 248,721 249,721 251,719 252,719 258,713 259,713 270,702 271,702 272,701" stroke="#000" stroke-width="5" /><polygon fill="#000" fill-opacity="0.4" points="229,651 231,651 233,653 233,654 234,655 234,656 236,658 238,658 239,659 241,659 242,660 243,660 244,661 246,661 247,662 248,662 250,664 251,664 257,670 258,670 260,672 261,672 262,673 263,673 265,675 266,675 267,676 268,676 270,678 270,688 269,689 269,690 268,691 267,691 266,692 265,692 263,694 262,694 260,696 259,696 255,700 254,700 249,705 248,705 241,712 238,712 237,711 236,711 234,709 233,709 231,707 230,707 227,704 226,704 223,701 222,701 217,696 216,696 213,693 212,693 211,692 209,692 207,690 208,689 208,686 207,685 207,677 206,676 206,674 205,673 205,670 208,667 209,667 210,666 211,666 212,665 213,665 215,663 216,663 220,659 221,659 223,657 223,656 226,653 227,653" stroke="#000" stroke-width="5" /><polygon fill="#000" fill-opacity="0.4" points="311,650 312,649 325,649 326,650 329,650 330,651 331,651 333,653 334,653 336,655 337,655 340,658 341,658 343,660 344,660 346,662 347,662 350,665 350,668 349,669 349,674 348,675 348,690 349,691 347,693 345,693 343,695 342,695 340,697 339,697 336,700 335,700 330,705 329,705 321,713 319,713 318,712 317,712 316,711 315,711 314,710 313,710 310,707 309,707 306,704 305,704 303,702 302,702 299,699 298,699 295,696 294,696 291,693 290,693 289,692 286,692 285,691 284,691 283,690 283,686 284,685 283,684 283,679 282,678 282,677 281,676 281,672 284,669 285,669 289,665 290,665 293,662 294,662 298,658 299,658 303,654 304,654 307,651 308,651 309,650" stroke="#000" stroke-width="5" /><polygon fill="#000" fill-opacity="0.4" points="386,639 387,638 389,638 390,639 391,639 392,640 393,640 394,641 396,641 397,642 400,642 401,643 402,643 412,653 413,653 417,657 418,657 421,660 422,660 424,662 425,662 427,664 428,664 430,666 430,669 429,670 429,690 428,691 424,691 423,692 422,692 421,693 420,693 418,695 417,695 413,699 412,699 402,709 401,709 399,711 397,711 396,710 395,710 394,709 393,709 389,705 388,705 385,702 384,702 382,700 381,700 380,699 379,699 377,697 376,697 374,695 373,695 371,693 370,693 369,692 368,692 367,691 366,691 365,690 363,690 362,689 361,689 360,688 360,672 359,671 359,667 358,666 358,664 357,663 359,661 360,661 362,659 363,659 367,655 368,655 372,651 373,651 373,650 383,640 384,640 385,639" stroke="#000" stroke-width="5" /><polygon fill="#000" fill-opacity="0.4" points="269,623 283,623 284,624 287,624 289,626 290,626 294,630 295,630 302,637 302,638 306,642 305,643 304,643 302,645 301,645 294,652 293,652 288,657 287,657 281,663 280,663 278,665 277,665 276,666 272,666 271,665 270,665 269,664 268,664 267,663 266,663 265,662 264,662 261,659 260,659 255,654 254,654 253,653 252,653 251,652 250,652 246,648 246,645 250,641 251,641 253,639 254,639 256,637 257,637 262,632 262,631 265,628 265,627" stroke="#000" stroke-width="5" /><polygon fill="#000" fill-opacity="0.4" points="444,607 445,606 449,606 450,607 452,607 456,611 456,612 457,613 457,619 456,620 456,621 452,625 450,625 449,626 444,626 443,625 442,625 438,621 438,620 437,619 437,612 442,607" stroke="#000" stroke-width="5" /><polygon fill="#000" fill-opacity="0.4" points="329,577 331,577 332,578 339,578 340,579 342,579 343,580 344,580 346,582 346,583 349,586 350,586 354,590 355,590 358,593 359,593 363,597 364,597 365,598 366,598 368,600 369,600 370,601 371,601 373,603 373,605 372,606 372,627 371,628 369,628 368,629 367,629 365,631 364,631 362,633 361,633 357,637 356,637 351,642 350,642 346,646 342,646 341,645 340,645 339,644 338,644 336,642 335,642 334,641 333,641 332,640 331,640 330,639 329,639 328,638 327,638 325,636 324,636 323,635 322,635 321,634 320,634 318,632 317,632 316,631 315,631 313,629 312,629 311,628 310,628 309,627 308,627 307,626 306,626 304,624 303,624 302,623 301,623 300,622 300,609 299,608 299,607 298,606 302,602 303,602 307,598 308,598 314,592 315,592 325,582 325,581" stroke="#000" stroke-width="5" /><polygon fill="#000" fill-opacity="0.4" points="420,573 421,572 426,572 427,573 429,573 431,575 432,575 433,576 433,577 435,579 435,581 436,582 436,586 435,587 435,588 434,589 434,590 429,595 427,595 426,596 421,596 420,595 418,595 413,590 413,589 412,588 412,580 413,579 413,578 417,574 418,574 419,573" stroke="#000" stroke-width="5" /><polygon fill="#000" fill-opacity="0.4" points="448,436 448,443 447,444 447,449 461,449 461,436 453,436 452,437 450,437 449,436" stroke="#000" stroke-width="5" /><polygon fill="#000" fill-opacity="0.4" points="480,435 480,450 494,450 494,436 481,436" stroke="#000" stroke-width="5" /><polygon fill="#000" fill-opacity="0.4" points="570,412 569,413 569,416 568,417 568,420 567,421 567,424 566,425 566,427 565,428 565,431 564,432 564,435 563,436 563,439 562,440 562,443 561,444 561,447 560,448 560,452 559,453 559,456 560,455 561,455 562,454 563,454 564,453 566,453 567,452 568,452 569,451 570,451 572,449 573,449 574,448 575,448 576,447 577,447 578,446 579,446 580,445 581,445 582,444 583,444 584,443 585,443 586,442 587,442 588,441 589,441 591,439 592,439 593,438 594,438 595,437 596,437 597,436 598,436 600,434 601,434 602,433 603,433 604,432 605,432 606,431 607,431 608,430 609,430 608,429 607,429 606,428 605,428 604,427 603,427 602,426 601,426 600,425 599,425 598,424 597,424 596,423 595,423 594,422 593,422 592,421 590,421 589,420 588,420 587,419 586,419 585,418 584,418 583,417 582,417 581,416 579,416 578,415 577,415 576,414 575,414 574,413 573,413 572,412" stroke="#000" stroke-width="5" /><polygon fill="#000" fill-opacity="0.4" points="677,411 676,412 675,412 674,413 673,413 672,414 671,414 670,415 669,415 668,416 667,416 666,417 664,417 663,418 662,418 661,419 660,419 659,420 658,420 656,422 654,422 653,423 652,423 651,424 650,424 649,425 648,425 647,426 646,426 645,427 644,427 643,428 641,428 639,430 640,431 642,431 643,432 644,432 645,433 646,433 647,434 648,434 649,435 650,435 651,436 652,436 653,437 654,437 655,438 656,438 657,439 658,439 659,440 660,440 661,441 662,441 663,442 664,442 665,443 666,443 668,445 669,445 670,446 671,446 672,447 673,447 674,448 675,448 676,449 677,449 678,450 679,450 680,451 681,451 682,452 683,452 684,453 685,453 686,454 687,454 688,455 689,455 690,456 691,456 691,454 690,453 690,451 689,450 689,447 688,446 688,443 687,442 687,439 686,438 686,436 685,435 685,432 684,431 684,429 683,428 683,425 682,424 682,421 681,420 681,417 680,416 680,414 679,413 679,411" stroke="#000" stroke-width="5" /><polygon fill="#000" fill-opacity="0.4" points="480,406 480,410 479,411 479,419 480,419 481,420 492,420 493,421 493,412 494,411 494,406" stroke="#000" stroke-width="5" /><polygon fill="#000" fill-opacity="0.4" points="447,406 447,415 448,416 448,420 454,420 455,421 461,421 462,420 462,410 461,409 461,406" stroke="#000" stroke-width="5" /><polygon fill="#000" fill-opacity="0.4" points="778,389 775,392 775,393 773,395 773,396 772,397 772,398 771,399 771,400 770,401 770,402 769,403 769,404 768,405 768,412 769,413 769,414 770,415 770,416 773,419 773,420 774,421 778,421 778,420 776,418 776,417 774,415 774,411 775,410 775,408 776,407 776,406 777,405 777,404 778,403 778,402 779,401 779,400 780,399 780,397 781,396 781,392 780,391 780,390 779,390" stroke="#000" stroke-width="5" /><polygon fill="#000" fill-opacity="0.4" points="622,376 619,379 618,379 617,380 616,380 614,382 613,382 612,383 611,383 610,384 609,384 607,386 606,386 605,387 604,387 603,388 602,388 600,390 599,390 598,391 597,391 596,392 595,392 593,394 592,394 591,395 590,395 588,397 587,397 586,398 585,398 584,399 582,399 582,400 583,401 586,401 587,402 588,402 589,403 590,403 591,404 592,404 593,405 594,405 595,406 596,406 597,407 598,407 599,408 600,408 601,409 602,409 603,410 604,410 605,411 606,411 608,413 609,413 610,414 611,414 612,415 613,415 614,416 615,416 616,417 617,417 618,418 619,418 620,419 621,419 622,420 626,420 627,419 628,419 630,417 631,417 632,416 633,416 634,415 635,415 636,414 637,414 638,413 639,413 640,412 641,412 642,411 643,411 644,410 645,410 646,409 647,409 649,407 650,407 651,406 652,406 653,405 655,405 656,404 657,404 658,403 659,403 660,402 661,402 662,401 663,401 664,400 665,400 666,399 666,398 665,398 664,397 663,397 662,396 661,396 660,395 659,395 658,394 657,394 656,393 655,393 654,392 653,392 652,391 651,391 649,389 648,389 647,388 646,388 644,386 643,386 642,385 641,385 640,384 639,384 638,383 637,383 636,382 635,382 634,381 633,381 632,380 631,380 629,378 628,378 627,377 626,377 625,376" stroke="#000" stroke-width="5" /><polygon fill="#000" fill-opacity="0.4" points="663,353 662,354 661,354 660,355 659,355 658,356 657,356 655,358 654,358 653,359 652,359 651,360 649,360 648,361 647,361 646,362 645,362 644,363 643,363 642,364 641,364 640,365 639,365 638,366 638,367 640,367 642,369 643,369 644,370 645,370 647,372 648,372 649,373 650,373 651,374 652,374 653,375 654,375 655,376 656,376 657,377 658,377 660,379 661,379 662,380 663,380 664,381 665,381 666,382 667,382 668,383 669,383 670,384 671,384 672,385 673,385 673,384 672,383 672,380 671,379 671,377 670,376 670,374 669,373 669,370 668,369 668,367 667,366 667,363 666,362 666,358 665,357 665,355 664,354 664,353" stroke="#000" stroke-width="5" /><polygon fill="#000" fill-opacity="0.4" points="583,353 583,356 582,357 582,360 581,361 581,364 580,365 580,368 579,369 579,372 578,373 578,376 577,377 577,380 576,381 576,385 577,385 578,384 579,384 581,382 582,382 583,381 584,381 585,380 586,380 587,379 588,379 589,378 590,378 591,377 592,377 593,376 594,376 595,375 596,375 598,373 599,373 601,371 602,371 603,370 604,370 606,368 607,368 608,367 609,367 610,366 611,366 610,366 609,365 608,365 607,364 606,364 605,363 604,363 603,362 602,362 601,361 600,361 599,360 598,360 597,359 596,359 595,358 594,358 593,357 592,357 591,356 590,356 589,355 587,355 586,354 585,354 584,353" stroke="#000" stroke-width="5" /><polygon fill="#000" fill-opacity="0.4" points="219,328 219,330 218,331 218,463 219,464 219,485 220,486 220,492 221,492 221,478 222,477 222,331 221,330 221,329 220,328" stroke="#000" stroke-width="5" /><polygon fill="#000" fill-opacity="0.4" points="343,322 342,323 342,379 343,380 347,380 347,378 348,377 348,324 347,323 347,322" stroke="#000" stroke-width="5" /><polygon fill="#000" fill-opacity="0.4" points="621,320 620,321 619,321 617,323 616,323 615,324 614,324 613,325 612,325 610,327 609,327 608,328 607,328 606,329 605,329 603,331 602,331 601,332 600,332 598,334 597,334 596,335 595,335 594,336 593,336 592,337 591,337 590,338 591,339 592,339 593,340 594,340 596,342 597,342 599,344 600,344 601,345 602,345 604,347 605,347 606,348 607,348 608,349 609,349 610,350 611,350 612,351 614,351 615,352 616,352 617,353 618,353 620,355 621,355 622,356 623,356 624,357 625,357 626,356 627,356 629,354 630,354 631,353 632,353 634,351 635,351 636,350 637,350 638,349 639,349 641,347 642,347 643,346 644,346 645,345 646,345 648,343 649,343 650,342 651,342 653,340 654,340 655,339 656,339 657,338 656,338 655,337 654,337 653,336 652,336 651,335 650,335 649,334 648,334 646,332 645,332 644,331 643,331 642,330 641,330 639,328 638,328 637,327 636,327 635,326 634,326 632,324 631,324 630,323 629,323 628,322 627,322 626,321 625,321 624,320" stroke="#000" stroke-width="5" /><polygon fill="#000" fill-opacity="0.4" points="649,301 648,302 646,302 644,304 643,304 642,305 641,305 640,306 639,306 638,307 637,307 636,308 636,310 637,310 638,311 639,311 640,312 641,312 642,313 643,313 644,314 646,314 647,315 648,315 649,316 650,316 651,317 652,317 654,319 655,319 656,320 656,319 655,318 655,316 654,315 654,313 653,312 653,310 652,309 652,307 651,306 651,303 650,302 650,301" stroke="#000" stroke-width="5" /><polygon fill="#000" fill-opacity="0.4" points="596,300 596,302 595,303 595,306 594,307 594,309 593,310 593,313 592,314 592,317 591,318 591,320 593,318 594,318 595,317 596,317 598,315 599,315 600,314 601,314 602,313 603,313 604,312 605,312 606,311 608,311 609,310 610,310 611,309 611,308 610,308 609,307 608,307 607,306 606,306 605,305 604,305 603,304 602,304 600,302 599,302 598,301 597,301" stroke="#000" stroke-width="5" /><polygon fill="#000" fill-opacity="0.4" points="491,292 490,293 486,293 485,294 479,294 478,295 471,295 470,296 471,297 471,381 493,381 494,380 494,292" stroke="#000" stroke-width="5" /><polygon fill="#000" fill-opacity="0.4" points="343,275 342,276 342,299 343,300 346,300 346,299 347,298 347,275" stroke="#000" stroke-width="5" /><polygon fill="#000" fill-opacity="0.4" points="484,264 483,265 480,265 479,266 474,266 473,267 469,267 468,268 464,268 463,269 460,269 459,270 457,270 456,271 455,271 454,272 453,272 453,273 452,274 452,275 453,276 454,276 455,275 460,275 461,274 464,274 465,273 468,273 469,272 473,272 474,271 479,271 480,270 483,270 484,269 487,269 488,268 489,268 490,267 491,267 492,266 492,264" stroke="#000" stroke-width="5" /><polygon fill="#000" fill-opacity="0.4" points="572,244 571,245 568,245 567,246 565,246 564,247 560,247 559,248 554,248 553,249 549,249 548,250 545,250 544,251 541,251 540,252 538,252 537,253 536,253 536,254 532,258 532,259 534,259 535,258 538,258 539,257 543,257 544,256 548,256 549,255 554,255 555,254 558,254 559,253 562,253 563,252 565,252 566,251 569,251 570,250 574,250 574,245 573,244" stroke="#000" stroke-width="5" /><polygon fill="#000" fill-opacity="0.4" points="297,201 297,202 296,203 297,202" stroke="#000" stroke-width="5" /><polygon fill="#000" fill-opacity="0.4" points="739,182 739,184 738,185 738,192 737,193 737,202 738,203 738,208 739,209 739,212 740,213 740,216 741,217 741,220 742,221 742,224 743,225 743,227 744,228 744,230 745,231 745,233 746,234 746,235 747,236 747,237 748,238 748,239 749,240 749,241 751,243 751,244 753,246 753,247 754,248 754,249 756,251 756,252 758,254 758,255 760,257 760,258 762,260 762,261 764,263 764,258 765,257 765,243 764,242 764,234 763,233 763,227 762,226 762,222 761,221 761,218 760,217 760,214 759,213 759,211 758,210 758,209 757,208 757,207 756,206 756,205 755,204 755,203 754,202 754,201 753,200 753,199 751,197 751,196 748,193 748,192 739,183" stroke="#000" stroke-width="5" /><polygon fill="#000" fill-opacity="0.4" points="0,0 0,1023 1023,1023 1023,0" stroke="#000" stroke-width="5" /><polygon fill="#000" fill-opacity="0.4" points="517,531 518,530 519,530 520,531 832,531 833,530 839,530 840,531 840,595 839,596 839,819 840,820 840,821 839,822 839,831 840,832 840,851 839,852 522,852 521,853 518,853 517,852" stroke="#000" stroke-width="5" /><polygon fill="#000" fill-opacity="0.4" points="178,531 179,530 182,530 183,531 210,531 211,530 309,530 310,531 314,531 315,530 339,530 340,531 417,531 418,530 455,530 456,531 499,531 500,532 500,846 501,847 501,852 500,853 478,853 477,852 344,852 343,853 308,853 307,852 194,852 193,853 180,853 179,852 179,534 178,533" stroke="#000" stroke-width="5" /><polygon fill="#000" fill-opacity="0.4" points="338,396 374,396 375,397 375,437 374,438 348,438 347,437 347,433 348,432 348,408 347,407 347,403 346,402 344,402 343,401 343,402 342,403 342,434 343,435 343,437 342,438 341,438 340,439 338,439 336,437 336,398" stroke="#000" stroke-width="5" /><polygon fill="#000" fill-opacity="0.4" points="782,359 784,361 784,362 786,364 786,365 787,366 787,367 788,368 788,369 790,371 790,372 791,373 791,374 793,376 793,377 794,378 794,379 795,380 795,381 797,383 797,384 798,385 798,386 799,387 799,388 801,390 801,391 802,392 802,393 803,394 803,395 804,396 804,397 805,398 805,400 806,401 806,404 807,405 807,414 806,415 806,418 805,419 805,421 804,422 804,423 803,424 803,425 801,427 801,428 796,433 795,433 793,435 792,435 791,436 790,436 789,437 787,437 786,438 776,438 775,437 773,437 772,436 771,436 770,435 769,435 767,433 766,433 762,429 762,428 760,426 760,425 759,424 759,423 758,422 758,421 757,420 757,417 756,416 756,408 757,407 757,403 758,402 758,401 759,400 759,398 760,397 760,396 761,395 761,394 762,393 762,392 763,391 763,390 764,389 764,388 765,387 765,386 766,385 766,384 767,383 767,382 769,380 769,379 770,378 770,377 771,376 771,375 773,373 773,372 774,371 774,370 776,368 776,367 778,365 778,364 779,363 779,362" stroke="#000" stroke-width="5" /><polygon fill="#000" fill-opacity="0.4" points="338,315 343,315 344,316 374,316 375,317 375,382 374,383 350,383 349,382 340,382 339,383 337,383 336,382 336,317" stroke="#000" stroke-width="5" /><polygon fill="#000" fill-opacity="0.4" points="212,297 213,296 238,296 239,297 239,310 237,312 234,312 233,311 220,311 219,312 214,312 212,310" stroke="#000" stroke-width="5" /><polygon fill="#000" fill-opacity="0.4" points="337,271 338,271 339,272 346,272 347,271 374,271 375,272 375,302 374,303 370,303 369,302 341,302 340,303 337,303 336,302 336,274 335,273" stroke="#000" stroke-width="5" /><polygon fill="#000" fill-opacity="0.4" points="258,272 259,271 301,271 302,272 302,299 303,300 303,301 302,302 272,302 271,301 271,276 265,276 265,280 264,281 264,295 265,296 265,301 264,302 259,302 258,301" stroke="#000" stroke-width="5" /><polygon fill="#000" fill-opacity="0.4" points="352,235 353,234 354,234 355,235 358,235 364,241 364,242 365,243 365,249 359,255 357,255 356,256 354,256 353,255 351,255 350,254 349,254 345,250 345,249 344,248 344,242 345,241 345,240 350,235" stroke="#000" stroke-width="5" /><polygon fill="#000" fill-opacity="0.4" points="617,227 618,226 625,226 626,227 628,227 629,228 630,228 631,229 632,229 636,233 636,234 637,235 637,237 638,238 638,241 639,242 639,244 638,245 638,248 637,249 637,251 636,252 636,253 630,259 629,259 628,260 627,260 626,261 624,261 623,262 617,262 616,261 615,261 614,260 613,260 611,258 610,258 607,255 607,254 605,252 605,250 604,249 604,240 605,239 605,237 607,235 607,234 613,228 614,228 615,227" stroke="#000" stroke-width="5" /><polygon fill="#000" fill-opacity="0.4" points="273,227 274,226 278,226 279,227 281,227 283,229 284,229 288,233 288,234 289,235 289,244 288,245 288,246 284,250 283,250 282,251 281,251 280,252 276,252 275,253 274,253 273,252 270,252 264,246 264,245 263,244 263,243 262,242 262,236 263,235 263,234 265,232 265,231 266,230 267,230 269,228 270,228 271,227" stroke="#000" stroke-width="5" /><polygon fill="#000" fill-opacity="0.4" points="374,214 375,213 382,213 384,215 385,215 387,217 387,218 388,219 388,220 389,221 389,226 388,227 388,229 384,233 381,233 380,234 378,234 377,233 375,233 374,232 373,232 371,230 371,229 369,227 369,224 368,223 368,222 369,221 369,219 370,218 370,217 373,214" stroke="#000" stroke-width="5" /><polygon fill="#000" fill-opacity="0.4" points="301,195 302,194 309,194 310,195 311,195 313,197 314,197 317,200 317,201 318,202 318,203 319,204 319,206 320,207 320,211 319,212 319,214 318,215 318,216 317,217 317,218 313,222 312,222 311,223 310,223 309,224 307,224 306,225 300,225 299,224 298,224 297,223 296,223 291,218 291,217 290,216 290,215 289,214 289,206 290,205 290,204 291,203 291,202 292,201 293,201 298,196 299,196 300,195" stroke="#000" stroke-width="5" /><polygon fill="#000" fill-opacity="0.4" points="686,176 687,175 694,175 695,176 694,177 694,178 682,190 681,190 680,191 679,191 678,192 674,192 673,193 660,193 659,194 335,194 334,193 334,192 333,191 333,190 331,188 331,187 330,186 330,185 328,183 328,182 326,180 326,179 325,178 325,177 326,176" stroke="#000" stroke-width="5" /><polygon fill="#000" fill-opacity="0.4" points="737,156 738,155 739,155 740,156 741,156 761,176 761,177 765,181 765,182 767,184 767,185 769,187 769,188 771,190 771,191 772,192 772,193 774,195 774,196 775,197 775,198 776,199 776,200 777,201 777,203 778,204 778,205 779,206 779,208 780,209 780,210 781,211 781,214 782,215 782,217 783,218 783,223 784,224 784,264 783,265 783,271 782,272 782,279 781,280 781,283 782,284 782,285 783,286 783,289 784,290 784,323 785,324 786,324 787,325 787,331 786,332 786,339 787,340 786,341 782,341 781,342 774,342 773,341 770,341 769,340 769,325 770,324 770,292 764,292 763,293 761,293 760,292 760,291 759,290 759,289 757,287 757,286 756,285 756,284 754,282 754,281 752,279 752,278 750,276 750,275 748,273 748,272 746,270 746,269 745,268 745,267 743,265 743,264 741,262 741,261 739,259 739,258 737,256 737,255 736,254 736,253 734,251 734,250 732,248 732,247 730,245 730,244 728,242 728,241 726,239 725,240 723,240 722,241 718,241 717,242 714,242 713,243 708,243 707,244 704,244 703,245 699,245 698,246 695,246 694,247 691,247 690,248 687,248 686,249 682,249 681,250 677,250 676,251 673,251 672,252 668,252 667,253 664,253 663,254 658,254 657,255 656,255 656,257 657,258 657,261 658,262 658,265 659,266 659,268 660,269 660,272 661,273 661,276 662,277 662,280 663,281 663,283 664,284 664,288 665,289 665,292 666,293 666,296 667,297 667,300 668,301 668,303 669,304 669,307 670,308 670,310 671,311 671,313 672,314 672,317 673,318 673,321 674,322 674,325 675,326 675,329 676,330 676,333 677,334 677,337 678,338 678,341 679,342 679,344 680,345 680,347 681,348 681,351 682,352 682,354 683,355 683,358 684,359 684,362 685,363 685,365 686,366 686,369 687,370 687,373 688,374 688,377 689,378 689,381 690,382 690,385 691,386 691,389 692,390 692,393 693,394 693,397 694,398 694,401 695,402 695,404 696,405 696,408 697,409 697,412 698,413 698,416 699,417 699,420 700,421 700,423 701,424 701,427 702,428 702,431 703,432 703,435 704,436 704,439 705,440 705,443 706,444 706,447 707,448 707,451 708,452 708,455 709,456 709,459 710,460 710,463 711,464 711,468 712,469 712,470 711,471 689,471 688,470 686,470 685,469 684,469 683,468 681,468 680,467 679,467 678,466 677,466 676,465 675,465 674,464 673,464 672,463 671,463 670,462 668,462 667,461 666,461 665,460 664,460 663,459 662,459 661,458 660,458 658,456 657,456 656,455 655,455 654,454 653,454 652,453 650,453 649,452 648,452 647,451 646,451 644,449 643,449 642,448 641,448 640,447 639,447 638,446 637,446 636,445 635,445 634,444 633,444 632,443 631,443 630,442 629,442 628,441 627,441 626,440 625,440 624,439 623,440 622,440 620,442 619,442 618,443 617,443 615,445 614,445 613,446 611,446 610,447 609,447 608,448 607,448 606,449 605,449 604,450 603,450 602,451 601,451 600,452 599,452 597,454 596,454 595,455 594,455 593,456 592,456 591,457 590,457 589,458 588,458 587,459 586,459 585,460 584,460 583,461 582,461 581,462 580,462 579,463 578,463 577,464 576,464 575,465 573,465 572,466 571,466 570,467 569,467 568,468 566,468 565,469 564,469 563,470 559,470 558,471 539,471 538,470 538,466 539,465 539,461 540,460 540,457 541,456 541,452 542,451 542,449 543,448 543,445 544,444 544,442 545,441 545,437 546,436 546,433 547,432 547,429 548,428 548,425 549,424 549,421 550,420 550,417 551,416 551,413 552,412 552,410 553,409 553,406 554,405 554,403 555,402 555,399 556,398 556,395 557,394 557,391 558,390 558,388 559,387 559,383 560,382 560,379 561,378 561,374 562,373 562,370 563,369 563,365 564,364 564,361 565,360 565,357 566,356 566,354 567,353 567,350 568,349 568,346 569,345 569,342 570,341 570,338 571,337 571,333 572,332 572,329 573,328 573,325 574,324 574,321 575,320 575,316 576,315 576,311 577,310 577,307 578,306 578,304 579,303 579,300 580,299 580,296 581,295 581,292 582,291 582,288 583,287 583,281 584,280 584,274 585,273 585,270 581,270 580,271 576,271 575,272 570,272 569,273 565,273 564,274 560,274 559,275 556,275 555,276 552,276 551,277 548,277 547,278 544,278 543,279 540,279 539,280 536,280 535,281 531,281 530,282 527,282 526,283 522,283 521,284 517,284 516,285 511,285 511,355 510,356 510,365 511,366 511,380 516,380 517,381 517,429 518,430 518,470 517,471 498,471 497,470 428,470 427,471 426,470 426,468 425,467 425,466 373,466 373,471 374,472 374,501 384,501 385,502 394,502 395,501 396,502 397,502 397,480 398,479 418,479 419,480 551,480 552,479 707,479 708,480 723,480 724,481 736,481 737,480 738,480 739,481 739,501 765,501 766,500 821,500 821,196 822,195 821,194 799,194 797,192 797,190 795,188 795,187 794,186 794,185 791,182 791,181 788,178 790,176 837,176 838,175 840,177 840,185 839,186 839,211 840,212 840,215 839,216 839,494 840,495 840,511 839,512 728,512 727,511 720,511 719,512 696,512 695,511 664,511 663,512 636,512 635,511 596,511 595,512 395,512 394,513 370,513 369,512 261,512 260,513 237,513 236,512 212,512 211,513 196,513 195,512 180,512 179,511 179,179 178,178 178,177 179,176 255,176 256,177 256,179 255,180 255,182 254,183 254,184 253,185 253,187 252,188 252,191 250,193 249,193 248,194 197,194 197,197 198,198 198,263 197,264 197,271 198,272 198,331 197,332 197,451 198,452 198,501 200,501 201,500 212,500 213,499 213,472 212,471 212,329 213,328 213,325 214,324 215,324 216,323 225,323 226,324 238,324 239,325 239,500 240,501 259,501 259,491 258,490 258,376 259,375 259,366 258,365 258,353 259,352 259,316 260,315 265,315 266,316 266,317 265,318 265,489 266,490 266,494 267,495 267,496 270,496 270,495 271,494 271,481 272,480 271,479 272,478 272,340 271,339 271,318 270,317 270,316 271,315 273,315 274,316 275,316 276,315 291,315 292,316 302,316 303,317 303,318 302,319 302,501 325,501 325,482 326,481 326,471 327,470 327,455 328,454 328,450 330,448 420,448 421,447 425,447 425,426 426,425 426,411 425,410 425,405 426,404 426,403 428,401 428,400 433,395 433,394 439,388 439,387 442,384 442,383 444,381 454,381 454,380 455,379 455,308 454,307 454,299 453,298 453,295 452,294 452,292 451,291 451,289 450,288 450,285 449,284 449,279 448,278 448,274 447,273 447,272 446,271 446,269 445,268 445,266 444,265 444,263 446,261 450,261 451,260 454,260 455,259 459,259 460,258 463,258 464,257 469,257 470,256 474,256 475,255 479,255 480,254 483,254 484,253 487,253 488,252 491,252 492,251 496,251 497,250 500,250 501,249 504,249 505,248 508,248 509,247 513,247 514,246 517,246 518,245 522,245 523,244 525,244 526,243 529,243 530,242 533,242 534,241 538,241 539,240 543,240 544,239 548,239 549,238 552,238 553,237 556,237 557,236 560,236 561,235 564,235 565,234 567,234 568,233 572,233 573,232 576,232 577,231 581,231 582,230 585,230 586,229 589,229 590,228 594,228 595,227 596,227 597,228 596,229 596,231 595,232 595,234 594,235 594,237 593,238 593,245 592,246 592,247 593,248 593,253 594,254 594,255 595,256 595,258 596,259 596,260 597,261 597,262 601,266 601,267 605,271 605,275 604,276 604,279 603,280 603,283 602,284 602,285 603,285 605,287 606,287 608,289 609,289 610,290 611,290 612,291 613,291 614,292 615,292 616,293 617,293 619,295 620,295 622,297 625,297 626,296 627,296 629,294 630,294 632,292 633,292 635,290 636,290 638,288 639,288 640,287 641,287 642,286 643,286 643,282 642,281 642,278 641,277 641,275 640,274 640,272 639,271 639,270 638,269 646,261 646,260 647,259 647,258 648,257 648,256 649,255 649,253 650,252 650,250 651,249 651,240 650,239 650,236 649,235 649,233 648,232 648,231 647,230 647,229 646,228 646,227 640,221 640,220 641,219 646,219 647,218 650,218 651,217 655,217 656,216 660,216 661,215 664,215 665,214 669,214 670,213 674,213 675,212 679,212 680,211 683,211 684,210 688,210 689,209 693,209 694,208 696,208 697,207 701,207 702,206 704,206 705,205 709,205 710,204 714,204 715,203 717,203 717,202 718,201 718,194 719,193 719,187 720,186 720,181 721,180 721,175 722,174 722,170 723,169 723,163 724,162 724,161 725,160 726,160 727,159 729,159 730,158 731,158 732,157 734,157 735,156" stroke="#000" stroke-width="5" /></svg>