<?xml version="1.0" encoding="UTF-8" standalone="no"?>
<!-- Created with Inkscape (http://www.inkscape.org/) -->

<svg
   width="39.952084mm"
   height="41.274998mm"
   viewBox="0 0 39.952084 41.274998"
   version="1.1"
   id="svg1"
   inkscape:version="1.3.2 (091e20ef0f, 2023-11-25)"
   sodipodi:docname="house3.svg"
   xmlns:inkscape="http://www.inkscape.org/namespaces/inkscape"
   xmlns:sodipodi="http://sodipodi.sourceforge.net/DTD/sodipodi-0.dtd"
   xmlns="http://www.w3.org/2000/svg"
   xmlns:svg="http://www.w3.org/2000/svg">
  <sodipodi:namedview
     id="namedview1"
     pagecolor="#ffffff"
     bordercolor="#000000"
     borderopacity="0.25"
     inkscape:showpageshadow="2"
     inkscape:pageopacity="0.0"
     inkscape:pagecheckerboard="0"
     inkscape:deskcolor="#d1d1d1"
     inkscape:document-units="mm"
     inkscape:zoom="0.79731341"
     inkscape:cx="307.28192"
     inkscape:cy="116.0146"
     inkscape:window-width="1920"
     inkscape:window-height="1141"
     inkscape:window-x="0"
     inkscape:window-y="0"
     inkscape:window-maximized="1"
     inkscape:current-layer="layer1" />
  <defs
     id="defs1" />
  <g
     inkscape:label="Ebene 1"
     inkscape:groupmode="layer"
     id="layer1"
     transform="translate(-23.547916,-117.73958)">
    <polygon
       fill="#000000"
       fill-opacity="0.4"
       points="115,414 115,442 117,444 118,444 119,445 132,445 133,444 134,444 135,443 135,442 136,441 136,423 139,420 153,420 156,423 156,439 157,440 157,442 158,443 158,444 159,444 160,445 196,445 197,444 198,444 199,443 199,442 200,441 200,414 191,405 190,405 168,383 167,383 158,374 157,374 154,377 153,377 127,403 126,403 126,404 125,405 124,405 "
       stroke="#000000"
       stroke-width="5"
       id="polygon4"
       transform="matrix(0.26458333,0,0,0.26458333,1.9843747,30.030208)" />
    <polygon
       fill="#000000"
       fill-opacity="0.4"
       points="162,430 163,429 164,429 165,428 192,428 194,430 194,433 192,435 164,435 162,433 "
       stroke="#000000"
       stroke-width="5"
       id="polygon5"
       transform="matrix(0.26458333,0,0,0.26458333,1.9843747,30.030208)" />
    <polygon
       fill="#000000"
       fill-opacity="0.4"
       points="119,426 120,425 121,425 122,424 129,424 132,427 132,438 130,440 121,440 119,438 "
       stroke="#000000"
       stroke-width="5"
       id="polygon6"
       transform="matrix(0.26458333,0,0,0.26458333,1.9843747,30.030208)" />
    <polygon
       fill="#000000"
       fill-opacity="0.4"
       points="171,406 172,406 173,407 171,409 171,410 169,412 169,413 167,415 165,415 162,418 161,417 161,416 158,413 158,411 160,409 160,408 162,406 163,407 167,407 168,408 168,409 168,408 169,407 170,407 "
       stroke="#000000"
       stroke-width="5"
       id="polygon7"
       transform="matrix(0.26458333,0,0,0.26458333,1.9843747,30.030208)" />
    <polygon
       fill="#000000"
       fill-opacity="0.4"
       points="153,405 150,405 150,406 147,409 146,409 147,410 149,408 156,408 157,409 157,416 156,417 152,417 151,416 148,416 146,414 146,412 145,412 144,411 144,410 143,409 144,408 142,406 142,403 144,401 144,399 143,399 142,398 143,397 151,397 152,398 152,401 153,402 153,403 154,404 "
       stroke="#000000"
       stroke-width="5"
       id="polygon8"
       transform="matrix(0.26458333,0,0,0.26458333,1.9843747,30.030208)" />
    <polygon
       fill="#000000"
       fill-opacity="0.4"
       points="171,406 168,406 167,405 167,404 164,401 164,400 163,399 165,397 166,397 167,396 168,396 169,395 170,395 173,398 173,399 174,400 174,401 175,402 "
       stroke="#000000"
       stroke-width="5"
       id="polygon9"
       transform="matrix(0.26458333,0,0,0.26458333,1.9843747,30.030208)" />
    <polygon
       fill="#000000"
       fill-opacity="0.4"
       points="168,393 167,394 167,395 166,396 159,396 158,395 160,393 160,392 159,391 159,390 158,389 159,390 159,392 157,394 157,395 154,398 153,397 152,397 151,396 149,396 148,395 148,394 149,393 149,392 150,391 150,390 154,386 156,386 157,387 158,386 163,386 166,389 167,389 168,390 "
       stroke="#000000"
       stroke-width="5"
       id="polygon10"
       transform="matrix(0.26458333,0,0,0.26458333,1.9843747,30.030208)" />
    <polygon
       fill="#000000"
       fill-opacity="0.4"
       points="104,405 102,407 102,408 101,409 101,411 103,413 106,413 115,404 116,404 137,383 138,383 156,365 158,365 164,371 165,371 181,387 182,387 201,406 202,406 209,413 212,413 214,411 214,409 197,392 196,392 191,387 191,377 190,377 189,376 188,376 187,377 186,377 186,379 185,380 184,380 178,374 177,374 163,360 162,360 160,358 155,358 154,359 153,359 142,370 141,370 120,391 119,391 105,405 "
       stroke="#000000"
       stroke-width="5"
       id="polygon18"
       transform="matrix(0.26458333,0,0,0.26458333,1.9843747,30.030208)" />
    <polygon
       fill="#000000"
       fill-opacity="0.4"
       points="225,337 227,339 227,340 229,342 229,343 230,344 230,475 229,476 229,477 228,478 228,479 224,483 223,483 222,484 220,484 219,485 95,485 94,484 93,484 92,483 91,483 86,478 86,477 85,476 85,474 84,473 84,346 85,345 85,343 86,342 86,341 90,337 91,337 92,336 93,336 94,335 96,335 97,334 218,334 219,335 221,335 222,336 223,336 224,337 "
       stroke="#000000"
       stroke-width="5"
       id="polygon38"
       transform="matrix(0.26458333,0,0,0.26458333,1.9843747,30.030208)" />
  </g>
</svg>
