<?xml version="1.0" encoding="utf-8" ?>
<svg baseProfile="tiny" height="1024" version="1.2" width="1024" xmlns="http://www.w3.org/2000/svg" xmlns:ev="http://www.w3.org/2001/xml-events" xmlns:xlink="http://www.w3.org/1999/xlink"><defs /><polygon fill="#fff" fill-opacity="0.4" points="158,772 157,773 157,775 158,776 158,784 159,785 159,788 160,789 160,790 164,794 166,794 167,795 175,795 176,796 201,796 202,795 255,795 256,794 301,794 302,793 330,793 331,794 355,794 356,795 381,795 382,796 427,796 428,795 444,795 445,794 456,794 457,793 460,793 461,792 460,791 460,772 409,772 408,773 364,773 363,772 254,772 253,773 228,773 227,774 224,774 223,773 172,773 171,772" stroke="#fff" stroke-width="5" /><polygon fill="#fff" fill-opacity="0.4" points="804,745 803,746 799,746 798,747 796,747 795,748 794,748 793,749 792,749 791,750 790,750 789,751 788,751 785,754 784,754 777,761 777,762 776,763 776,764 775,765 775,766 774,767 774,769 773,770 773,772 772,773 772,777 771,778 771,789 772,790 772,794 773,795 773,796 774,797 774,799 775,800 775,801 777,803 777,804 781,808 781,809 783,811 784,811 787,814 788,814 790,816 791,816 792,817 793,817 794,818 796,818 797,819 799,819 800,820 805,820 806,821 813,821 814,820 818,820 819,819 821,819 822,818 824,818 825,817 826,817 827,816 828,816 830,814 831,814 834,811 835,811 838,808 838,807 841,804 841,803 842,802 842,801 843,800 843,799 844,798 844,797 845,796 845,794 846,793 846,790 847,789 847,774 846,773 846,770 845,769 845,768 844,767 844,765 843,764 843,763 841,761 841,760 838,757 838,756 836,754 835,754 833,752 832,752 830,750 829,750 828,749 827,749 826,748 825,748 824,747 822,747 821,746 816,746 815,745" stroke="#fff" stroke-width="5" /><polygon fill="#fff" fill-opacity="0.4" points="803,766 804,765 814,765 815,766 816,766 817,767 818,767 819,768 820,768 825,773 825,774 826,775 826,777 827,778 827,788 826,789 826,790 825,791 825,792 823,794 823,795 822,796 821,796 819,798 818,798 817,799 816,799 815,800 813,800 812,801 807,801 806,800 803,800 802,799 801,799 800,798 799,798 794,793 794,792 793,791 793,790 792,789 792,786 791,785 791,780 792,779 792,777 793,776 793,774 800,767 801,767 802,766" stroke="#fff" stroke-width="5" /><polygon fill="#fff" fill-opacity="0.4" points="634,745 633,746 629,746 628,747 627,747 626,748 624,748 623,749 622,749 621,750 620,750 618,752 617,752 614,755 613,755 608,760 608,761 606,763 606,764 605,765 605,766 604,767 604,769 603,770 603,772 602,773 602,778 601,779 601,782 602,783 602,789 603,790 603,793 604,794 604,795 605,796 605,797 606,798 606,799 607,800 607,801 608,802 608,803 610,805 610,806 617,813 618,813 620,815 621,815 622,816 623,816 624,817 626,817 627,818 628,818 629,819 633,819 634,820 647,820 648,819 651,819 652,818 654,818 655,817 656,817 657,816 658,816 660,814 661,814 665,810 666,810 666,809 670,805 670,804 671,803 671,802 672,801 672,800 673,799 673,798 674,797 674,795 675,794 675,792 676,791 676,788 677,787 677,774 676,773 676,770 675,769 675,768 674,767 674,766 673,765 673,764 672,763 672,762 671,761 671,760 667,756 667,755 666,755 661,750 660,750 659,749 658,749 657,748 656,748 655,747 653,747 652,746 649,746 648,745" stroke="#fff" stroke-width="5" /><polygon fill="#fff" fill-opacity="0.4" points="636,765 637,764 643,764 644,765 646,765 648,767 649,767 655,773 655,774 656,775 656,776 657,777 657,786 656,787 656,789 655,790 655,791 648,798 647,798 646,799 644,799 643,800 637,800 636,799 634,799 633,798 632,798 631,797 630,797 625,792 625,791 623,789 623,788 622,787 622,783 621,782 622,781 622,778 623,777 623,775 625,773 625,772 630,767 631,767 632,766 633,766 634,765" stroke="#fff" stroke-width="5" /><polygon fill="#fff" fill-opacity="0.4" points="389,705 388,706 386,706 385,707 384,707 383,708 382,708 379,711 378,711 376,713 376,714 373,717 373,718 372,719 372,720 371,721 371,723 370,724 370,739 371,740 371,742 372,743 372,745 374,747 374,748 381,755 382,755 383,756 384,756 385,757 387,757 388,758 399,758 400,757 403,757 404,756 405,756 406,755 407,755 415,747 415,746 416,745 416,744 417,743 417,742 418,741 418,740 419,739 419,736 420,735 420,727 419,726 419,722 418,721 418,719 417,718 417,717 416,716 416,715 414,713 413,713 411,711 410,711 408,709 407,709 406,708 405,708 404,707 403,707 402,706 399,706 398,705" stroke="#fff" stroke-width="5" /><polygon fill="#fff" fill-opacity="0.4" points="224,703 223,704 220,704 219,705 218,705 217,706 216,706 212,710 211,710 210,711 210,712 207,715 207,716 206,717 206,718 205,719 205,720 204,721 204,723 203,724 203,728 202,729 202,735 203,736 203,740 204,741 204,743 205,744 205,745 206,746 206,747 207,748 207,749 210,752 210,753 211,754 212,754 214,756 215,756 216,757 217,757 218,758 221,758 222,759 232,759 233,758 236,758 237,757 238,757 239,756 240,756 242,754 243,754 248,749 248,748 250,746 250,745 251,744 251,743 252,742 252,740 253,739 253,735 254,734 254,722 253,721 253,718 252,717 252,715 251,714 251,713 245,707 244,707 243,706 242,706 241,705 240,705 239,704 236,704 235,703" stroke="#fff" stroke-width="5" /><polygon fill="#fff" fill-opacity="0.4" points="259,608 258,609 248,609 247,610 242,610 241,611 239,611 238,612 236,612 235,613 234,613 233,614 231,614 229,616 227,616 225,618 224,618 222,620 221,620 219,622 218,622 214,626 213,626 200,639 200,640 196,644 196,645 193,648 193,649 190,652 190,653 188,655 188,656 185,659 185,660 181,664 171,664 170,663 166,663 165,664 163,664 163,736 162,737 189,737 189,736 188,735 189,734 189,725 190,724 190,720 191,719 191,717 192,716 192,714 193,713 193,712 195,710 195,709 197,707 197,706 199,704 199,703 206,696 207,696 209,694 210,694 211,693 212,693 214,691 215,691 216,690 218,690 219,689 220,689 221,688 224,688 225,687 237,687 238,688 240,688 241,689 243,689 245,691 246,691 247,692 248,692 251,695 252,695 258,701 258,702 261,705 261,706 263,708 263,709 264,710 264,712 265,713 265,714 266,715 266,718 267,719 267,724 268,725 268,737 356,737 356,723 357,722 357,719 358,718 358,717 359,716 359,714 361,712 361,711 362,710 362,709 365,706 365,705 372,698 373,698 375,696 376,696 377,695 378,695 379,694 380,694 381,693 383,693 384,692 386,692 387,691 401,691 402,692 405,692 406,693 407,693 408,694 409,694 410,695 412,695 414,697 415,697 417,699 418,699 426,707 426,708 428,710 428,711 429,712 429,713 430,714 430,715 431,716 431,717 432,718 432,721 433,722 433,726 434,727 434,736 447,736 448,737 456,737 456,688 455,687 455,683 454,682 454,681 450,677 449,677 448,676 447,676 446,675 445,675 444,674 443,674 442,673 440,673 439,672 437,672 436,671 434,671 433,670 429,670 428,669 424,669 423,668 416,668 415,667 407,667 406,666 395,666 394,665 393,665 392,664 392,663 389,660 389,659 386,656 386,655 383,652 383,651 380,648 380,647 377,644 377,643 374,640 374,639 369,634 369,633 360,624 359,624 355,620 354,620 352,618 351,618 349,616 348,616 347,615 346,615 345,614 344,614 343,613 341,613 340,612 338,612 337,611 335,611 334,610 332,610 331,609 322,609 321,608 312,608 311,609 281,609 280,608" stroke="#fff" stroke-width="5" /><polygon fill="#fff" fill-opacity="0.4" points="438,687 442,687 443,688 446,688 447,689 448,689 452,693 452,694 453,695 453,703 452,704 452,706 449,709 440,709 439,708 438,708 434,704 434,703 432,701 432,695 433,694 433,693 434,692 434,691" stroke="#fff" stroke-width="5" /><polygon fill="#fff" fill-opacity="0.4" points="303,627 304,626 332,626 333,627 334,627 337,630 338,630 356,648 356,649 359,652 359,653 362,656 362,657 365,660 365,661 368,664 368,666 367,667 311,667 310,668 304,668 303,667" stroke="#fff" stroke-width="5" /><polygon fill="#fff" fill-opacity="0.4" points="253,626 254,625 276,625 277,626 285,626 286,627 286,666 285,667 264,667 263,666 211,666 210,665 211,664 211,663 212,662 212,660 214,658 214,657 217,654 217,653 220,650 220,649 233,636 234,636 237,633 238,633 239,632 240,632 242,630 243,630 245,628 246,628 247,627 248,627 249,626" stroke="#fff" stroke-width="5" /><polygon fill="#fff" fill-opacity="0.4" points="611,588 610,589 604,589 603,590 601,590 600,591 598,591 597,592 596,592 595,593 594,593 592,595 591,595 588,598 587,598 581,604 581,605 578,608 578,609 577,610 577,611 576,612 576,614 575,615 575,616 574,617 574,619 573,620 573,623 572,624 572,634 571,635 571,647 572,648 572,707 571,708 571,793 572,792 588,792 587,791 587,789 586,788 586,782 585,781 585,777 586,776 586,769 587,768 587,765 588,764 588,762 589,761 589,760 590,759 590,758 591,757 591,756 593,754 593,753 594,752 594,751 597,748 597,747 602,742 603,742 607,738 608,738 610,736 611,736 613,734 614,734 615,733 616,733 617,732 619,732 620,731 623,731 624,730 627,730 628,729 650,729 651,730 654,730 655,731 657,731 658,732 660,732 661,733 662,733 663,734 664,734 665,735 666,735 668,737 669,737 671,739 672,739 683,750 683,751 686,754 686,755 687,756 687,757 688,758 688,759 689,760 689,761 690,762 690,764 691,765 691,767 692,768 692,771 693,772 693,791 711,791 712,792 756,792 755,791 755,772 756,771 756,768 757,767 757,765 758,764 758,762 759,761 759,760 760,759 760,758 761,757 761,756 763,754 763,753 766,750 766,749 774,741 775,741 778,738 779,738 781,736 782,736 783,735 784,735 785,734 786,734 787,733 788,733 789,732 792,732 793,731 795,731 796,730 801,730 802,729 817,729 818,730 823,730 824,731 827,731 828,732 829,732 830,733 831,733 832,734 833,734 834,735 835,735 836,736 837,736 839,738 840,738 843,741 844,741 853,750 853,751 856,754 856,755 857,756 857,757 858,758 858,759 859,760 859,761 860,762 860,764 861,765 861,769 862,770 862,790 861,791 861,793 863,793 864,792 867,792 868,793 869,793 869,789 870,788 870,775 871,774 871,763 870,762 870,667 869,666 869,662 868,661 868,658 867,657 867,654 866,653 866,651 865,650 865,648 864,647 864,646 863,645 863,643 862,642 862,641 861,640 861,639 860,638 860,637 859,636 859,635 857,633 857,632 856,631 856,630 854,628 854,627 851,624 851,623 847,619 847,618 837,608 836,608 832,604 831,604 830,603 829,603 827,601 826,601 825,600 824,600 822,598 821,598 820,597 819,597 818,596 817,596 816,595 814,595 813,594 811,594 810,593 808,593 807,592 805,592 804,591 801,591 800,590 796,590 795,589 787,589 786,588 762,588 761,589 750,589 749,588 720,588 719,589 708,589 707,588" stroke="#fff" stroke-width="5" /><polygon fill="#fff" fill-opacity="0.4" points="785,615 786,614 787,615 791,615 792,616 795,616 796,617 798,617 799,618 801,618 802,619 803,619 804,620 805,620 806,621 807,621 808,622 809,622 810,623 811,623 813,625 814,625 817,628 818,628 820,630 821,630 832,641 832,642 835,645 835,646 837,648 837,649 838,650 838,651 839,652 839,653 840,654 840,655 841,656 841,658 842,659 842,661 843,662 843,665 844,666 844,670 845,671 845,685 846,686 846,698 844,700 816,700 815,699 794,699 793,700 786,700 785,699" stroke="#fff" stroke-width="5" /><polygon fill="#fff" fill-opacity="0.4" points="692,615 693,614 694,615 742,615 743,616 759,616 760,615 762,617 762,671 761,672 761,679 762,680 762,699 761,700 736,700 735,699 693,699 692,698" stroke="#fff" stroke-width="5" /><polygon fill="#fff" fill-opacity="0.4" points="601,615 602,614 606,614 607,615 669,615 670,616 670,630 669,631 669,679 670,680 670,699 669,700 663,700 662,699 602,699 601,698" stroke="#fff" stroke-width="5" /><polygon fill="#fff" fill-opacity="0.4" points="898,553 898,647 899,648 899,769 898,770 898,777 897,778 897,782 896,783 896,787 895,788 895,791 894,792 894,795 893,796 893,798 892,799 892,802 891,803 891,805 890,806 890,807 889,808 889,810 888,811 888,813 887,814 887,815 886,816 886,817 885,818 885,819 884,820 884,821 883,822 883,823 882,824 882,825 881,826 881,827 879,829 879,830 878,831 878,832 876,834 876,835 874,837 874,838 872,840 872,841 870,843 870,844 865,849 865,850 861,854 861,855 849,867 848,867 844,871 843,871 840,874 839,874 836,877 835,877 833,879 832,879 830,881 829,881 827,883 826,883 825,884 824,884 823,885 822,885 820,887 819,887 818,888 816,888 815,889 814,889 813,890 812,890 811,891 810,891 809,892 807,892 806,893 805,893 804,894 802,894 801,895 800,895 799,896 797,896 796,897 794,897 793,898 791,898 790,899 788,899 787,900 783,900 782,901 779,901 778,902 770,902 769,903 720,903 719,902 712,902 711,903 688,903 687,902 674,902 673,903 616,903 615,902 592,902 591,903 571,903 570,902 569,903 569,907 570,908 570,936 569,937 569,938 571,938 572,937 603,937 604,938 607,938 608,937 689,937 690,938 705,938 706,937 731,937 732,938 745,938 746,937 769,937 770,936 779,936 780,935 785,935 786,934 790,934 791,933 794,933 795,932 798,932 799,931 802,931 803,930 805,930 806,929 808,929 809,928 811,928 812,927 814,927 815,926 817,926 818,925 819,925 820,924 822,924 823,923 824,923 825,922 826,922 827,921 828,921 829,920 831,920 832,919 833,919 834,918 835,918 836,917 837,917 839,915 840,915 841,914 842,914 843,913 844,913 846,911 847,911 849,909 850,909 852,907 853,907 855,905 856,905 858,903 859,903 863,899 864,899 867,896 868,896 875,889 876,889 883,882 883,881 891,873 891,872 896,867 896,866 898,864 898,863 900,861 900,860 902,858 902,857 904,855 904,854 905,853 905,852 907,850 907,849 909,847 909,846 910,845 910,844 911,843 911,842 913,840 913,839 914,838 914,837 915,836 915,835 916,834 916,833 917,832 917,830 918,829 918,828 919,827 919,826 920,825 920,824 921,823 921,821 922,820 922,819 923,818 923,816 924,815 924,814 925,813 925,811 926,810 926,807 927,806 927,803 928,802 928,800 929,799 929,795 930,794 930,791 931,790 931,786 932,785 932,779 933,778 933,772 934,771 934,761 935,760 935,712 934,711 934,680 935,679 935,656 934,655 934,555 935,554 935,553" stroke="#fff" stroke-width="5" /><polygon fill="#fff" fill-opacity="0.4" points="95,553 95,561 96,562 96,605 95,606 95,671 96,672 96,691 95,692 95,760 96,761 96,773 97,774 97,780 98,781 98,785 99,786 99,789 100,790 100,793 101,794 101,797 102,798 102,800 103,801 103,804 104,805 104,807 105,808 105,810 106,811 106,813 107,814 107,815 108,816 108,818 109,819 109,821 110,822 110,823 111,824 111,826 112,827 112,828 113,829 113,830 114,831 114,832 115,833 115,835 117,837 117,838 118,839 118,840 119,841 119,842 120,843 120,844 122,846 122,847 123,848 123,849 125,851 125,852 126,853 126,854 128,856 128,857 130,859 130,860 133,863 133,864 135,866 135,867 139,871 139,872 148,881 148,882 155,889 156,889 163,896 164,896 169,901 170,901 172,903 173,903 175,905 176,905 178,907 179,907 181,909 182,909 184,911 185,911 187,913 188,913 190,915 191,915 193,917 194,917 195,918 196,918 197,919 198,919 199,920 200,920 201,921 202,921 203,922 204,922 205,923 206,923 207,924 209,924 210,925 211,925 212,926 214,926 215,927 217,927 218,928 220,928 221,929 223,929 224,930 226,930 227,931 230,931 231,932 233,932 234,933 238,933 239,934 243,934 244,935 249,935 250,936 257,936 258,937 299,937 300,938 391,938 392,937 454,937 455,938 462,938 462,902 292,902 291,903 279,903 278,902 259,902 258,901 251,901 250,900 246,900 245,899 241,899 240,898 237,898 236,897 234,897 233,896 230,896 229,895 228,895 227,894 225,894 224,893 223,893 222,892 220,892 219,891 218,891 217,890 216,890 215,889 214,889 213,888 212,888 211,887 210,887 209,886 208,886 206,884 205,884 204,883 203,883 201,881 200,881 198,879 197,879 195,877 194,877 190,873 189,873 182,866 181,866 175,860 175,859 169,853 169,852 164,847 164,846 161,843 161,842 159,840 159,839 156,836 156,835 155,834 155,833 153,831 153,830 151,828 151,827 150,826 150,825 148,823 148,822 147,821 147,820 146,819 146,818 145,817 145,816 144,815 144,814 143,813 143,812 142,811 142,809 141,808 141,806 140,805 140,804 139,803 139,801 138,800 138,797 137,796 137,794 136,793 136,790 135,789 135,786 134,785 134,782 133,781 133,776 132,775 132,769 131,768 131,553" stroke="#fff" stroke-width="5" /><polygon fill="#fff" fill-opacity="0.4" points="739,390 737,392 736,392 732,396 731,396 726,401 726,404 732,410 732,411 739,418 739,419 746,426 746,427 751,432 751,433 754,436 754,437 760,443 767,443 768,442 769,442 771,440 772,440 772,439 774,437 774,436 775,435 775,431 774,430 774,429 773,428 773,427 771,425 771,424 767,420 767,419 762,414 762,413 759,410 759,409 753,403 753,402 749,398 749,397 742,390" stroke="#fff" stroke-width="5" /><polygon fill="#fff" fill-opacity="0.4" points="393,387 392,388 389,388 388,389 387,389 386,390 385,390 377,398 377,399 376,400 376,401 375,402 375,403 374,404 374,414 375,415 375,417 376,418 376,420 377,421 377,422 379,424 379,425 384,430 385,430 386,431 387,431 388,432 389,432 390,433 401,433 402,432 404,432 405,431 406,431 407,430 408,430 415,423 415,422 416,421 416,420 417,419 417,418 418,417 418,414 419,413 419,407 418,406 418,403 417,402 417,401 416,400 416,399 415,398 415,397 413,395 413,394 409,390 408,390 407,389 405,389 404,388 400,388 399,387" stroke="#fff" stroke-width="5" /><polygon fill="#fff" fill-opacity="0.4" points="393,400 399,400 400,401 402,401 406,405 406,407 407,408 406,409 406,411 405,412 405,413 402,416 401,416 400,417 394,417 393,416 392,416 388,412 388,405" stroke="#fff" stroke-width="5" /><polygon fill="#fff" fill-opacity="0.4" points="226,387 225,388 223,388 221,390 220,390 213,397 213,398 212,399 212,400 211,401 211,402 210,403 210,406 209,407 209,411 210,412 210,416 211,417 211,419 212,420 212,421 213,422 213,423 215,425 215,426 219,430 220,430 221,431 222,431 223,432 224,432 225,433 236,433 237,432 239,432 240,431 241,431 243,429 244,429 249,424 249,423 251,421 251,420 252,419 252,418 253,417 253,416 254,415 254,413 255,412 255,406 254,405 254,403 253,402 253,401 252,400 252,399 251,398 251,397 249,395 249,394 246,391 245,391 243,389 242,389 241,388 239,388 238,387" stroke="#fff" stroke-width="5" /><polygon fill="#fff" fill-opacity="0.4" points="229,400 230,399 236,399 241,404 241,406 242,407 242,410 241,411 241,412 240,413 240,414 238,416 237,416 236,417 235,417 234,418 232,418 231,417 229,417 228,416 227,416 223,412 223,411 222,410 222,408 223,407 223,405 228,400" stroke="#fff" stroke-width="5" /><polygon fill="#fff" fill-opacity="0.4" points="772,358 769,361 769,362 768,363 768,365 767,366 767,375 768,376 768,380 769,381 769,382 773,386 774,386 776,388 776,389 784,397 785,397 789,401 790,401 795,406 796,406 807,417 808,417 818,427 819,427 826,434 826,435 829,438 830,438 833,441 834,441 835,442 837,442 838,443 839,443 840,442 841,442 842,441 843,441 845,439 846,439 852,433 852,432 854,430 854,428 855,427 855,423 850,418 849,418 847,416 846,416 845,415 844,415 843,414 842,414 823,395 822,395 810,383 809,383 804,378 804,377 802,375 797,375 796,376 795,376 793,378 792,378 790,380 789,380 785,384 783,384 782,383 782,382 781,381 781,380 780,379 780,377 779,376 779,373 778,372 778,368 777,367 777,363 776,362 776,359 775,358" stroke="#fff" stroke-width="5" /><polygon fill="#fff" fill-opacity="0.4" points="776,388 777,387 778,387 779,388 778,389 777,389" stroke="#fff" stroke-width="5" /><polygon fill="#fff" fill-opacity="0.4" points="258,324 256,326 255,326 254,327 253,327 252,328 251,328 249,330 248,330 247,331 246,331 245,332 244,332 242,334 241,334 239,336 238,336 236,338 235,338 233,340 232,340 230,342 229,342 227,344 226,344 224,346 223,346 220,349 219,349 216,352 215,352 210,357 166,357 166,387 165,388 162,388 162,392 163,393 163,399 164,400 164,402 165,403 165,405 168,408 169,408 170,409 172,409 173,410 176,410 177,411 183,411 184,412 197,412 197,411 196,410 196,408 197,407 197,400 198,399 198,397 199,396 199,395 200,394 200,392 202,390 202,389 204,387 204,386 211,379 212,379 214,377 215,377 216,376 218,376 219,375 220,375 221,374 224,374 225,373 229,373 230,372 239,372 240,373 243,373 244,374 245,374 246,375 247,375 249,377 250,377 252,379 253,379 261,387 261,388 263,390 263,391 264,392 264,393 265,394 265,396 266,397 266,399 267,400 267,404 268,405 268,411 358,411 359,412 361,412 361,403 362,402 362,399 363,398 363,396 364,395 364,394 365,393 365,392 366,391 366,390 367,389 367,388 371,384 371,383 372,382 373,382 376,379 377,379 379,377 380,377 381,376 382,376 383,375 385,375 386,374 388,374 389,373 404,373 405,374 407,374 408,375 410,375 411,376 412,376 413,377 414,377 416,379 417,379 427,389 427,390 428,391 428,392 430,394 430,396 431,397 431,399 432,400 432,412 442,412 443,411 447,411 448,410 449,410 449,409 451,407 451,406 452,405 452,404 453,403 453,401 454,400 454,397 455,396 455,384 454,383 454,381 452,379 452,378 450,376 449,376 447,374 446,374 445,373 444,373 443,372 442,372 441,371 439,371 438,370 435,370 434,369 432,369 431,368 427,368 426,367 423,367 422,366 419,366 418,365 414,365 413,364 408,364 407,363 398,363 397,362 387,362 386,361 380,361 378,359 378,358 374,354 373,354 370,351 369,351 367,349 366,349 363,346 362,346 359,343 358,343 356,341 355,341 353,339 352,339 349,336 348,336 346,334 345,334 343,332 342,332 340,330 339,330 337,328 336,328 335,327 334,327 333,326 332,326 330,324" stroke="#fff" stroke-width="5" /><polygon fill="#fff" fill-opacity="0.4" points="304,340 305,339 325,339 327,341 328,341 330,343 331,343 333,345 334,345 336,347 337,347 339,349 340,349 342,351 343,351 346,354 347,354 350,357 351,357 355,361 354,362 305,362 304,361" stroke="#fff" stroke-width="5" /><polygon fill="#fff" fill-opacity="0.4" points="264,339 287,339 288,340 288,361 287,362 238,362 236,360 236,359 238,357 239,357 242,354 243,354 246,351 247,351 250,348 251,348 253,346 254,346 255,345 256,345 258,343 259,343 261,341 262,341" stroke="#fff" stroke-width="5" /><polygon fill="#fff" fill-opacity="0.4" points="707,317 706,318 704,318 703,319 702,319 701,320 700,320 699,321 698,321 697,322 696,322 695,323 694,323 693,324 691,324 690,325 689,325 688,326 687,326 686,327 684,327 683,328 681,328 680,329 678,329 677,330 673,330 672,331 668,331 667,332 660,332 659,333 656,333 655,334 653,334 652,335 651,335 650,336 649,336 648,337 647,337 644,340 643,340 641,342 641,344 640,345 640,359 639,360 639,395 638,396 638,415 637,416 637,419 634,422 633,422 631,424 630,424 629,425 628,425 627,426 625,426 624,427 614,427 611,424 611,422 610,421 610,417 611,416 611,415 615,411 622,411 623,412 629,412 629,410 628,409 628,408 625,405 624,405 623,404 622,404 621,403 612,403 611,404 608,404 607,405 606,405 601,410 601,411 600,412 600,413 599,414 599,417 598,418 598,424 599,425 599,427 600,428 600,430 601,431 601,432 604,435 604,436 606,438 607,438 610,441 611,441 612,442 613,442 614,443 624,443 625,442 629,442 630,441 633,441 634,440 635,440 636,439 637,439 638,438 639,438 642,435 643,435 645,433 645,432 647,430 647,429 648,428 648,426 649,425 649,399 650,398 650,386 651,385 651,375 652,374 652,363 653,362 653,350 655,348 665,348 666,347 671,347 672,346 677,346 678,345 681,345 682,344 687,344 688,343 691,343 692,342 693,342 695,344 695,345 696,346 696,347 697,348 697,349 698,350 698,351 699,352 699,354 700,355 700,356 701,357 701,358 702,359 702,361 703,362 703,363 704,364 704,365 705,366 705,367 706,368 706,369 707,370 707,371 708,372 708,373 709,374 709,375 710,376 706,380 706,381 702,385 702,386 700,388 700,389 698,391 698,392 696,394 696,395 694,397 694,398 693,399 693,400 692,401 692,402 690,404 690,405 689,406 689,407 687,409 687,410 686,411 686,412 685,413 685,414 683,416 683,417 682,418 682,419 681,420 681,421 679,423 679,424 678,425 678,426 676,428 676,430 675,431 675,434 676,435 676,436 682,442 683,442 684,443 685,443 686,444 688,444 689,443 690,443 694,439 694,438 696,436 696,435 697,434 697,433 698,432 698,431 700,429 700,428 701,427 701,426 703,424 703,423 704,422 704,421 706,419 706,418 707,417 707,416 709,414 709,413 711,411 711,410 714,407 714,406 716,404 716,403 723,396 724,396 726,394 727,394 728,393 729,393 730,392 731,392 732,391 733,391 735,389 736,389 738,387 739,387 740,386 740,385 742,383 742,380 743,379 743,376 742,375 742,368 741,367 741,364 740,363 740,361 739,360 739,358 738,357 738,355 737,354 737,351 736,350 736,348 737,347 742,352 743,352 744,353 745,353 746,354 747,354 748,355 751,355 752,356 757,356 757,351 752,346 751,346 748,343 747,343 745,341 744,341 742,339 741,339 740,338 739,338 737,336 736,336 728,328 728,327 725,324 725,323 720,318 718,318 717,317" stroke="#fff" stroke-width="5" /><polygon fill="#fff" fill-opacity="0.4" points="688,275 687,276 686,276 685,277 684,277 678,283 678,284 677,285 677,286 676,287 676,288 675,289 675,291 674,292 674,299 675,300 675,302 676,303 676,304 681,309 682,309 683,310 684,310 685,311 687,311 688,312 696,312 697,311 699,311 701,309 702,309 705,306 706,306 707,305 707,304 709,302 709,301 710,300 710,296 711,295 711,290 710,289 710,287 709,286 709,285 708,284 708,283 703,278 702,278 701,277 700,277 699,276 697,276 696,275" stroke="#fff" stroke-width="5" /><polygon fill="#fff" fill-opacity="0.4" points="309,271 308,272 306,272 305,273 294,273 293,274 289,274 289,281 290,282 290,286 309,286 310,285 314,285 315,284 316,284 317,283 318,283 320,281 320,278 313,271" stroke="#fff" stroke-width="5" /><polygon fill="#fff" fill-opacity="0.4" points="679,152 679,159 678,160 672,160 671,161 602,161 601,162 599,162 598,163 597,163 596,164 595,164 594,165 593,165 584,174 584,175 581,178 581,179 579,181 579,182 578,183 578,184 577,185 577,186 576,187 576,188 580,188 581,189 583,189 584,190 585,189 585,188 586,187 586,186 587,185 587,184 592,179 603,179 604,180 604,187 603,188 603,207 602,208 602,227 601,228 574,228 574,237 575,238 575,243 576,244 576,245 577,246 577,247 586,256 587,256 588,257 589,257 590,258 603,258 604,257 620,257 621,258 624,258 624,244 623,243 623,179 624,178 644,178 645,179 645,184 646,185 646,240 647,241 647,243 646,244 646,246 645,247 644,247 643,248 640,248 638,250 637,250 636,251 636,252 635,253 635,259 636,260 636,261 637,262 637,263 639,265 639,266 640,267 641,267 643,269 645,269 646,270 653,270 654,269 655,269 658,266 659,266 662,263 662,262 663,261 663,260 664,259 664,258 665,257 665,251 664,250 664,249 663,248 663,247 660,244 660,243 659,242 659,237 658,236 658,221 657,220 657,197 656,196 656,179 657,178 679,178 680,179 680,239 681,240 681,249 682,250 682,255 683,256 687,256 688,257 707,257 708,258 716,258 717,257 773,257 773,246 774,245 774,243 775,242 775,241 776,240 776,239 777,238 777,237 778,236 778,226 777,225 777,179 778,178 798,178 799,179 799,244 798,245 795,245 794,246 791,246 790,247 789,247 788,248 787,248 784,251 784,257 785,258 785,261 786,262 786,264 791,269 792,269 793,270 794,270 795,271 799,271 800,272 801,272 802,271 805,271 807,269 808,269 813,264 813,263 814,262 814,260 815,259 815,252 814,251 814,249 813,248 813,247 812,246 812,245 811,244 811,232 810,231 810,179 811,178 831,178 832,179 832,235 831,236 831,254 832,255 832,258 867,258 867,205 866,204 866,202 864,200 864,199 862,197 862,196 860,194 860,193 858,191 858,190 856,188 856,187 855,186 855,185 852,182 852,181 838,167 837,167 834,164 833,164 831,162 830,162 829,161 824,161 823,160 779,160 778,161 753,161 751,159 751,152" stroke="#fff" stroke-width="5" /><polygon fill="#fff" fill-opacity="0.4" points="702,178 703,177 704,177 705,178 711,178 712,179 759,179 760,180 760,218 759,219 750,219 749,218 703,218 702,217 702,214 701,213 701,204 702,203 702,200 701,199 701,188 702,187" stroke="#fff" stroke-width="5" /><polygon fill="#fff" fill-opacity="0.4" points="272,147 271,148 232,148 232,149 231,150 231,154 230,155 230,160 231,161 231,163 232,164 234,164 235,165 239,165 240,164 246,164 247,165 247,167 248,168 248,170 249,171 249,173 250,174 250,175 252,177 252,178 253,179 253,181 247,187 247,188 244,191 244,192 243,193 243,194 241,196 240,196 239,195 237,195 236,194 234,194 233,193 231,193 230,192 218,192 217,191 216,191 215,192 206,192 205,193 202,193 201,194 199,194 198,195 197,195 196,196 195,196 194,197 193,197 192,198 191,198 190,199 189,199 187,201 186,201 183,204 182,204 175,211 175,212 172,215 172,216 170,218 170,219 168,221 168,222 167,223 167,225 166,226 166,227 165,228 165,230 164,231 164,234 163,235 163,239 162,240 162,253 163,254 163,259 164,260 164,263 165,264 165,266 166,267 166,268 167,269 167,271 168,272 168,273 169,274 169,275 170,276 170,277 171,278 171,279 174,282 174,283 185,294 186,294 187,295 188,295 190,297 191,297 192,298 193,298 194,299 196,299 197,300 198,300 199,301 202,301 203,302 205,302 206,303 212,303 213,304 221,304 222,303 228,303 229,302 232,302 233,301 235,301 236,300 238,300 239,299 240,299 241,298 242,298 243,297 244,297 246,295 247,295 249,293 250,293 261,282 261,281 264,278 264,277 266,275 266,274 267,273 267,272 268,271 268,270 269,269 269,268 270,267 270,266 271,265 271,263 272,262 272,260 275,257 276,258 285,258 288,261 288,262 289,263 290,263 291,264 293,264 294,265 302,265 303,264 304,264 305,263 306,263 308,261 308,260 310,258 319,258 320,259 326,259 328,257 328,256 329,255 329,248 328,247 326,247 325,246 319,246 318,245 317,245 316,244 316,243 330,229 330,228 353,205 353,204 364,193 366,195 366,196 367,197 367,198 368,199 368,200 369,201 359,211 359,212 356,215 356,216 354,218 354,219 352,221 352,222 350,224 350,226 349,227 349,228 348,229 348,231 347,232 347,235 346,236 346,242 345,243 345,251 346,252 346,258 347,259 347,262 348,263 348,265 349,266 349,268 350,269 350,270 351,271 351,273 352,274 352,275 354,277 354,278 356,280 356,281 360,285 360,286 361,287 362,287 368,293 369,293 371,295 372,295 373,296 374,296 375,297 376,297 377,298 378,298 379,299 380,299 381,300 383,300 384,301 386,301 387,302 390,302 391,303 395,303 396,304 407,304 408,303 413,303 414,302 418,302 419,301 421,301 422,300 423,300 424,299 425,299 426,298 427,298 428,297 429,297 430,296 431,296 433,294 434,294 437,291 438,291 444,285 444,284 447,281 447,280 450,277 450,276 451,275 451,274 452,273 452,272 453,271 453,269 454,268 454,266 455,265 455,263 456,262 456,260 457,259 457,254 458,253 458,242 457,241 457,235 456,234 456,231 455,230 455,227 454,226 454,225 453,224 453,223 452,222 452,221 451,220 451,219 450,218 450,217 447,214 447,213 442,208 442,207 441,207 436,202 435,202 433,200 432,200 430,198 429,198 428,197 427,197 426,196 424,196 423,195 422,195 421,194 419,194 418,193 415,193 414,192 392,192 391,193 388,193 387,194 384,194 383,193 383,191 382,190 382,189 381,188 381,186 380,185 380,184 379,183 379,182 378,181 378,180 377,179 377,178 376,177 376,176 375,175 375,174 374,173 374,171 373,170 373,169 372,168 372,167 371,166 371,165 370,164 370,163 369,162 370,161 389,161 390,162 392,162 394,164 394,165 395,166 395,169 394,170 394,171 391,174 390,174 388,176 387,176 386,177 385,177 384,178 384,182 385,183 385,184 387,186 395,186 396,185 398,185 399,184 400,184 404,180 404,179 405,178 405,177 406,176 406,175 407,174 407,173 408,172 408,168 409,167 409,164 408,163 408,160 407,159 407,158 406,157 406,156 405,155 405,154 399,148 397,148 396,147 354,147 353,148 352,148 352,150 351,151 351,154 352,155 352,158 353,159 353,160 354,161 354,163 355,164 355,165 356,166 356,168 357,169 357,171 356,172 352,172 351,171 300,171 299,172 289,172 288,171 268,171 267,170 267,169 266,168 266,166 264,164 265,163 276,163 277,162 280,162 281,161 281,149 280,148 280,147" stroke="#fff" stroke-width="5" /><polygon fill="#fff" fill-opacity="0.4" points="244,222 245,222 249,226 249,227 251,229 251,230 252,231 252,232 253,233 253,235 254,236 254,240 255,241 255,242 254,243 231,243 230,242 230,240 232,238 232,237 235,234 235,233 238,230 238,229 240,227 240,226" stroke="#fff" stroke-width="5" /><polygon fill="#fff" fill-opacity="0.4" points="394,208 395,207 409,207 410,208 413,208 414,209 416,209 417,210 418,210 419,211 420,211 421,212 422,212 425,215 426,215 433,222 433,223 435,225 435,226 437,228 437,229 438,230 438,232 439,233 439,235 440,236 440,239 441,240 441,254 440,255 440,259 439,260 439,261 438,262 438,264 437,265 437,266 436,267 436,268 434,270 434,271 429,276 429,277 428,278 427,278 423,282 422,282 420,284 419,284 418,285 416,285 415,286 414,286 413,287 410,287 409,288 396,288 395,287 392,287 391,286 389,286 388,285 386,285 385,284 384,284 382,282 381,282 378,279 377,279 369,271 369,270 367,268 367,267 366,266 366,265 365,264 365,263 364,262 364,260 363,259 363,257 362,256 362,252 361,251 361,243 362,242 362,238 363,237 363,235 364,234 364,232 365,231 365,230 366,229 366,228 368,226 368,225 370,223 370,222 374,218 376,218 377,219 377,220 378,221 378,222 380,224 380,225 381,226 381,228 382,229 382,230 383,231 383,232 384,233 384,234 385,235 385,236 386,237 386,238 387,239 387,241 388,242 388,243 389,244 389,246 390,247 390,248 391,249 391,251 395,255 396,255 397,256 405,256 407,254 408,254 408,253 410,251 410,244 409,243 409,242 407,240 406,240 402,236 402,235 401,234 401,232 400,231 400,229 399,228 399,227 398,226 398,225 397,224 397,223 396,222 396,220 395,219 395,218 394,217 394,216 393,215 393,214 392,213 392,212 391,211 391,209 392,208" stroke="#fff" stroke-width="5" /><polygon fill="#fff" fill-opacity="0.4" points="210,208 211,207 224,207 225,208 227,208 228,209 231,209 232,210 231,211 231,212 230,213 230,214 227,217 227,218 224,221 224,222 222,224 222,225 220,227 220,228 218,230 218,231 216,233 216,234 215,235 215,236 211,240 210,240 210,241 209,242 209,243 208,244 208,250 209,251 209,252 210,253 210,254 213,257 214,257 215,258 217,258 218,259 253,259 254,260 254,264 253,265 253,266 252,267 252,268 249,271 249,272 240,281 239,281 237,283 236,283 235,284 234,284 233,285 232,285 231,286 229,286 228,287 225,287 224,288 212,288 211,287 208,287 207,286 204,286 203,285 202,285 201,284 200,284 198,282 197,282 194,279 193,279 189,275 189,274 186,271 186,270 184,268 184,267 183,266 183,265 182,264 182,263 181,262 181,260 180,259 180,256 179,255 179,250 178,249 178,243 179,242 179,238 180,237 180,234 181,233 181,231 182,230 182,229 184,227 184,226 186,224 186,223 194,215 195,215 197,213 198,213 200,211 201,211 202,210 203,210 204,209 206,209 207,208" stroke="#fff" stroke-width="5" /><polygon fill="#fff" fill-opacity="0.4" points="261,198 263,200 263,201 264,202 264,203 265,204 265,205 266,206 266,207 267,208 267,209 268,210 268,211 269,212 269,213 270,214 270,215 271,216 271,217 272,218 272,219 273,220 273,221 274,222 274,223 275,224 275,225 276,226 276,228 278,230 278,231 279,232 279,234 280,235 280,236 281,237 281,239 282,240 282,242 281,243 273,243 272,242 272,240 271,239 271,235 270,234 270,232 269,231 269,229 268,228 268,226 267,225 267,224 266,223 266,222 264,220 264,219 262,217 262,216 255,209 255,208 254,207 254,206 257,203 257,202" stroke="#fff" stroke-width="5" /><polygon fill="#fff" fill-opacity="0.4" points="275,188 276,187 345,187 346,188 346,189 334,201 334,202 333,203 332,203 331,204 331,205 311,225 311,226 307,230 306,230 305,231 305,232 302,235 301,235 300,236 299,236 297,234 297,233 296,232 296,231 295,230 295,229 294,228 294,227 293,226 293,225 292,224 292,223 291,222 291,221 290,220 290,219 289,218 289,217 287,215 287,214 286,213 286,212 285,211 285,210 284,209 284,207 283,206 283,205 282,204 282,203 281,202 281,201 280,200 280,199 279,198 279,197 278,196 278,195 277,194 277,192 276,191 276,189" stroke="#fff" stroke-width="5" /><polygon fill="#fff" fill-opacity="0.4" points="588,82 587,83 570,83 570,115 569,116 766,116 767,117 774,117 775,118 779,118 780,119 784,119 785,120 788,120 789,121 792,121 793,122 795,122 796,123 798,123 799,124 801,124 802,125 804,125 805,126 807,126 808,127 809,127 810,128 811,128 812,129 813,129 814,130 816,130 817,131 818,131 819,132 820,132 821,133 822,133 824,135 825,135 826,136 827,136 829,138 830,138 831,139 832,139 834,141 835,141 837,143 838,143 842,147 843,147 847,151 848,151 857,160 857,161 864,168 864,169 869,174 869,175 872,178 872,179 874,181 874,182 876,184 876,185 878,187 878,188 880,190 880,191 881,192 881,193 882,194 882,195 883,196 883,197 884,198 884,199 885,200 885,201 886,202 886,203 887,204 887,205 888,206 888,207 889,208 889,210 890,211 890,213 891,214 891,215 892,216 892,218 893,219 893,222 894,223 894,226 895,227 895,230 896,231 896,235 897,236 897,243 898,244 898,395 899,396 899,403 898,404 898,407 899,408 899,448 900,447 934,447 934,250 933,249 933,242 932,241 932,236 931,235 931,231 930,230 930,226 929,225 929,222 928,221 928,218 927,217 927,214 926,213 926,211 925,210 925,208 924,207 924,205 923,204 923,203 922,202 922,200 921,199 921,197 920,196 920,195 919,194 919,193 918,192 918,191 917,190 917,189 916,188 916,187 915,186 915,185 914,184 914,183 913,182 913,181 912,180 912,179 911,178 911,177 910,176 910,175 908,173 908,172 907,171 907,170 905,168 905,167 904,166 904,165 902,163 902,162 900,160 900,159 897,156 897,155 894,152 894,151 890,147 890,146 885,141 885,140 870,125 869,125 864,120 863,120 859,116 858,116 855,113 854,113 852,111 851,111 849,109 848,109 846,107 845,107 843,105 842,105 841,104 840,104 839,103 838,103 837,102 836,102 834,100 832,100 831,99 830,99 829,98 828,98 827,97 826,97 825,96 824,96 823,95 822,95 821,94 819,94 818,93 817,93 816,92 813,92 812,91 810,91 809,90 806,90 805,89 803,89 802,88 799,88 798,87 794,87 793,86 789,86 788,85 784,85 783,84 777,84 776,83 765,83 764,82" stroke="#fff" stroke-width="5" /><polygon fill="#fff" fill-opacity="0.4" points="484,82 484,436 485,437 485,438 482,441 481,441 480,442 479,442 477,444 476,444 473,447 472,447 456,463 456,464 454,466 454,467 453,468 448,468 447,467 436,467 435,468 96,468 96,481 95,482 95,492 96,492 97,491 141,491 142,490 143,491 143,510 142,511 141,511 140,510 139,511 109,511 108,510 100,510 99,511 95,511 95,534 105,534 106,533 119,533 120,534 131,534 132,533 151,533 152,534 199,534 200,533 239,533 240,534 441,534 442,533 452,533 453,534 453,535 454,536 454,537 455,538 455,539 456,540 456,541 460,545 460,546 468,554 469,554 473,558 474,558 476,560 477,560 478,561 479,561 480,562 481,562 482,563 483,563 484,564 484,938 485,938 486,937 506,937 506,863 507,862 525,862 526,863 526,937 548,937 549,938 549,931 548,930 548,688 549,687 549,680 548,679 548,634 549,633 549,608 548,607 548,580 549,579 549,563 551,561 552,561 555,558 556,558 570,544 570,543 573,540 573,539 576,536 576,535 579,532 580,532 581,533 585,533 586,534 933,534 934,535 934,468 578,468 577,467 577,466 574,463 574,462 571,459 571,458 560,447 559,447 555,443 554,443 553,442 552,442 551,441 550,441 548,439 548,409 549,408 549,380 548,379 548,124 549,123 549,108 548,107 548,84 549,83 525,83 526,84 526,144 525,145 507,145 506,144 506,83 486,83 485,82" stroke="#fff" stroke-width="5" /><polygon fill="#fff" fill-opacity="0.4" points="505,790 506,789 507,790 511,790 512,791 524,791 525,790 526,791 526,814 527,815 527,831 525,833 506,833 505,832 505,811 506,810 506,792 505,791" stroke="#fff" stroke-width="5" /><polygon fill="#fff" fill-opacity="0.4" points="505,721 506,720 507,721 511,721 512,722 524,722 525,721 526,721 527,722 527,762 526,763 506,763 505,762 506,761 506,760 505,759 505,736 506,735 506,724 505,723" stroke="#fff" stroke-width="5" /><polygon fill="#fff" fill-opacity="0.4" points="506,655 507,654 508,655 526,655 527,656 527,657 526,658 526,672 527,673 527,693 525,695 508,695 507,696 506,695 506,688 505,687 505,678 506,677" stroke="#fff" stroke-width="5" /><polygon fill="#fff" fill-opacity="0.4" points="507,585 508,586 525,586 526,585 527,586 527,628 526,629 507,629 506,628 506,616 505,615 505,604 506,603 506,588 505,587" stroke="#fff" stroke-width="5" /><polygon fill="#fff" fill-opacity="0.4" points="873,491 874,490 875,490 876,491 913,491 914,492 914,504 915,505 915,510 914,511 884,511 883,510 880,510 879,511 873,511 872,510 872,506 873,505" stroke="#fff" stroke-width="5" /><polygon fill="#fff" fill-opacity="0.4" points="800,491 801,490 829,490 830,491 842,491 843,492 843,510 842,511 818,511 817,510 803,510 802,511 801,511 800,510" stroke="#fff" stroke-width="5" /><polygon fill="#fff" fill-opacity="0.4" points="727,491 728,490 769,490 770,491 770,510 769,511 766,511 765,510 731,510 730,511 728,511 727,510" stroke="#fff" stroke-width="5" /><polygon fill="#fff" fill-opacity="0.4" points="657,491 658,490 695,490 696,491 696,509 695,510 658,510 657,509" stroke="#fff" stroke-width="5" /><polygon fill="#fff" fill-opacity="0.4" points="588,491 589,490 628,490 629,491 629,493 628,494 628,510 627,511 626,510 592,510 591,511 589,511 588,510" stroke="#fff" stroke-width="5" /><polygon fill="#fff" fill-opacity="0.4" points="386,491 387,490 409,490 410,491 430,491 431,492 431,507 432,508 432,510 431,511 387,511 386,510" stroke="#fff" stroke-width="5" /><polygon fill="#fff" fill-opacity="0.4" points="314,491 315,490 356,490 357,491 357,510 356,511 316,511 315,510 315,492" stroke="#fff" stroke-width="5" /><polygon fill="#fff" fill-opacity="0.4" points="243,491 244,490 265,490 266,491 284,491 285,492 285,510 284,511 244,511 243,510" stroke="#fff" stroke-width="5" /><polygon fill="#fff" fill-opacity="0.4" points="172,491 173,490 195,490 196,491 209,491 210,490 213,490 214,491 214,510 213,511 212,511 211,510 191,510 190,511 173,511 172,510 172,504 173,503 173,492" stroke="#fff" stroke-width="5" /><polygon fill="#fff" fill-opacity="0.4" points="508,453 509,452 522,452 523,453 527,453 528,454 530,454 531,455 533,455 534,456 536,456 538,458 539,458 540,459 541,459 544,462 545,462 555,472 555,473 557,475 557,476 558,477 558,478 559,479 559,480 560,481 560,482 561,483 561,486 562,487 562,491 563,492 563,507 562,508 562,512 561,513 561,516 560,517 560,519 559,520 559,522 558,523 558,524 557,525 557,526 555,528 555,529 552,532 552,533 546,539 545,539 543,541 542,541 540,543 539,543 538,544 536,544 535,545 534,545 533,546 531,546 530,547 528,547 527,548 524,548 523,549 522,549 521,550 519,550 518,551 510,551 509,550 507,550 506,549 504,549 503,548 501,548 500,547 498,547 497,546 496,546 495,545 494,545 493,544 492,544 491,543 490,543 489,542 488,542 486,540 485,540 481,536 480,536 477,533 477,532 475,530 475,529 474,528 474,527 473,526 473,525 472,524 472,523 471,522 471,521 470,520 470,518 469,517 469,515 468,514 468,511 467,510 467,492 468,491 468,488 469,487 469,484 470,483 470,482 471,481 471,480 472,479 472,478 473,477 473,476 475,474 475,473 477,471 477,470 486,461 487,461 489,459 490,459 491,458 492,458 493,457 494,457 495,456 496,456 497,455 499,455 500,454 502,454 503,453" stroke="#fff" stroke-width="5" /><polygon fill="#fff" fill-opacity="0.4" points="505,380 506,379 526,379 527,380 527,422 526,423 506,423 505,422 506,421 506,381" stroke="#fff" stroke-width="5" /><polygon fill="#fff" fill-opacity="0.4" points="506,311 507,310 508,310 509,311 526,311 527,312 527,352 526,353 512,353 511,354 507,354 506,353" stroke="#fff" stroke-width="5" /><polygon fill="#fff" fill-opacity="0.4" points="506,243 507,242 508,243 526,243 527,244 527,283 526,284 517,284 516,285 507,285 506,284" stroke="#fff" stroke-width="5" /><polygon fill="#fff" fill-opacity="0.4" points="506,174 507,173 509,173 510,174 526,174 527,175 527,179 526,180 526,194 527,195 527,215 525,217 507,217 505,215 505,198 506,197" stroke="#fff" stroke-width="5" /><polygon fill="#fff" fill-opacity="0.4" points="266,82 265,83 255,83 254,84 248,84 247,85 242,85 241,86 237,86 236,87 233,87 232,88 229,88 228,89 226,89 225,90 222,90 221,91 219,91 218,92 215,92 214,93 213,93 212,94 210,94 209,95 208,95 207,96 206,96 205,97 203,97 202,98 201,98 200,99 199,99 198,100 197,100 195,102 194,102 193,103 192,103 191,104 190,104 189,105 188,105 186,107 185,107 184,108 183,108 181,110 180,110 178,112 177,112 175,114 174,114 171,117 170,117 167,120 166,120 161,125 160,125 143,142 143,143 137,149 137,150 134,153 134,154 131,157 131,158 129,160 129,161 127,163 127,164 125,166 125,167 124,168 124,169 122,171 122,172 121,173 121,174 119,176 119,177 118,178 118,179 117,180 117,181 116,182 116,183 115,184 115,185 114,186 114,187 113,188 113,189 112,190 112,191 111,192 111,194 110,195 110,196 109,197 109,199 108,200 108,202 107,203 107,204 106,205 106,207 105,208 105,210 104,211 104,213 103,214 103,216 102,217 102,220 101,221 101,224 100,225 100,229 99,230 99,233 98,234 98,239 97,240 97,248 96,249 96,447 131,447 131,248 132,247 132,242 133,241 133,237 134,236 134,232 135,231 135,228 136,227 136,224 137,223 137,220 138,219 138,217 139,216 139,214 140,213 140,212 141,211 141,209 142,208 142,206 143,205 143,204 144,203 144,202 145,201 145,200 146,199 146,198 147,197 147,195 148,194 148,193 149,192 149,191 151,189 151,188 152,187 152,186 154,184 154,183 156,181 156,180 159,177 159,176 162,173 162,172 166,168 166,167 183,150 184,150 188,146 189,146 192,143 193,143 195,141 196,141 197,140 198,140 200,138 201,138 202,137 203,137 204,136 205,136 206,135 207,135 209,133 210,133 211,132 212,132 213,131 214,131 215,130 216,130 217,129 219,129 220,128 221,128 222,127 224,127 225,126 227,126 228,125 229,125 230,124 232,124 233,123 235,123 236,122 238,122 239,121 242,121 243,120 245,120 246,119 250,119 251,118 255,118 256,117 261,117 262,116 463,116 463,115 462,114 462,83 456,83 455,82" stroke="#fff" stroke-width="5" /></svg>