<?xml version="1.0" encoding="utf-8" ?>
<svg baseProfile="tiny" height="1024" version="1.2" width="1024" xmlns="http://www.w3.org/2000/svg" xmlns:ev="http://www.w3.org/2001/xml-events" xmlns:xlink="http://www.w3.org/1999/xlink"><defs /><rect fill="#fff" height="1024" width="1024" x="0" y="0" /><polygon fill="#000" fill-opacity="0.4" points="360,358 358,360 358,361 357,362 357,365 360,368 362,368 363,369 366,369 367,370 383,370 384,371 393,371 394,370 398,370 399,369 399,363 398,362 397,362 395,360 366,360 365,359 362,359 361,358" stroke="#000" stroke-width="5" /><polygon fill="#000" fill-opacity="0.4" points="662,357 661,358 659,358 658,359 640,359 639,360 633,360 632,361 632,362 631,363 631,368 632,368 633,369 663,369 664,368 666,368 669,365 669,362 668,361 668,360 666,358 665,358 664,357" stroke="#000" stroke-width="5" /><polygon fill="#000" fill-opacity="0.4" points="0,0 0,1023 1023,1023 1023,0" stroke="#000" stroke-width="5" /><polygon fill="#000" fill-opacity="0.4" points="699,681 700,680 706,680 707,681 710,681 711,682 712,682 714,684 715,684 719,688 719,689 721,691 721,692 723,694 723,703 722,704 722,706 721,707 721,708 720,709 720,710 714,716 713,716 712,717 711,717 710,718 708,718 707,719 698,719 697,718 695,718 694,717 693,717 692,716 691,716 685,710 685,709 684,708 684,707 683,706 683,704 682,703 682,700 683,699 683,696 684,695 684,693 686,691 686,690 693,683 694,683 695,682 696,682 697,681" stroke="#000" stroke-width="5" /><polygon fill="#000" fill-opacity="0.4" points="723,395 724,394 726,394 727,395 730,395 731,396 732,396 738,402 738,403 739,404 739,406 740,407 740,410 741,411 741,414 742,415 742,419 743,420 743,424 744,425 744,429 745,430 745,433 746,434 746,438 747,439 747,444 748,445 748,450 749,451 749,459 750,460 750,468 751,469 751,498 752,499 751,500 751,516 750,517 750,521 749,522 749,525 748,526 748,529 747,530 747,532 746,533 746,535 745,536 745,538 744,539 744,541 743,542 743,543 742,544 742,546 741,547 741,548 740,549 740,550 739,551 739,552 738,553 738,554 736,556 736,557 734,559 734,560 733,561 733,562 729,566 729,567 724,572 724,573 722,575 721,575 721,576 720,577 719,577 717,579 717,580 714,583 713,583 713,584 712,585 711,585 709,587 709,588 708,589 707,589 691,605 691,606 690,607 689,607 689,608 657,640 657,641 653,645 653,646 649,650 649,651 646,654 646,655 645,656 645,657 643,659 643,660 640,663 640,664 638,666 638,667 637,668 637,669 636,670 636,671 635,672 635,673 634,674 634,675 633,676 633,678 632,679 632,680 631,681 631,683 630,684 630,686 629,687 629,689 628,690 628,692 627,693 627,695 626,696 626,697 625,698 625,701 624,702 624,704 623,705 623,708 622,709 622,714 621,715 621,720 620,721 620,728 619,729 619,759 620,760 620,763 618,765 617,764 530,764 529,763 529,753 530,752 530,710 529,709 529,678 530,677 530,664 531,663 531,652 532,651 531,650 532,649 532,644 533,643 533,636 534,635 534,631 535,630 535,625 536,624 536,621 537,620 537,617 538,616 538,613 539,612 539,609 540,608 540,605 541,604 541,602 542,601 542,598 543,597 543,595 544,594 544,592 545,591 545,589 546,588 546,587 547,586 547,584 548,583 548,582 549,581 549,579 550,578 550,577 551,576 551,575 552,574 552,573 553,572 553,571 554,570 554,569 555,568 555,567 556,566 556,565 557,564 557,563 558,562 558,561 559,560 559,559 561,557 561,556 562,555 562,554 563,553 563,552 565,550 565,549 567,547 567,546 570,543 570,542 573,539 573,538 577,534 577,533 582,528 582,527 596,513 596,512 627,481 628,481 628,480 658,450 659,450 660,449 661,449 662,448 670,448 671,449 673,449 674,450 675,450 681,456 681,457 683,459 683,461 684,462 684,465 685,466 685,472 684,473 684,476 683,477 683,479 682,480 682,482 681,483 681,484 680,485 680,486 678,488 678,489 675,492 675,493 666,502 666,503 658,511 658,512 651,519 651,520 646,525 646,526 640,532 640,533 634,539 634,540 629,545 629,546 626,549 626,550 619,557 619,558 614,563 614,564 613,565 613,566 612,567 612,572 616,572 617,571 620,571 621,570 622,570 623,569 625,569 626,568 627,568 629,566 630,566 631,565 632,565 634,563 635,563 636,562 637,562 639,560 640,560 642,558 643,558 646,555 647,555 650,552 651,552 654,549 655,549 658,546 659,546 663,542 664,542 684,522 684,521 690,515 690,514 692,512 692,511 694,509 694,508 695,507 695,506 697,504 697,503 699,501 699,500 700,499 700,498 701,497 701,496 702,495 702,494 703,493 703,492 704,491 704,489 705,488 705,487 706,486 706,484 707,483 707,480 708,479 708,477 709,476 709,472 710,471 710,467 711,466 711,423 710,422 710,407 711,406 711,404 712,403 712,402 718,396 719,396 720,395" stroke="#000" stroke-width="5" /><polygon fill="#000" fill-opacity="0.4" points="297,395 298,394 301,394 302,395 306,395 307,396 308,396 314,402 314,404 315,405 315,425 314,426 314,445 315,446 315,460 316,461 316,468 317,469 317,473 318,474 318,478 319,479 319,482 320,483 320,485 321,486 321,487 322,488 322,490 323,491 323,492 324,493 324,494 325,495 325,496 326,497 326,498 327,499 327,500 329,502 329,503 330,504 330,505 332,507 332,508 334,510 334,511 337,514 337,515 341,519 341,520 344,523 344,524 370,550 371,550 379,558 380,558 382,560 383,560 385,562 386,562 388,564 389,564 390,565 391,565 392,566 393,566 394,567 396,567 397,568 399,568 400,569 403,569 404,570 406,570 407,571 411,571 412,572 415,572 416,571 415,570 415,569 413,567 413,566 406,559 406,558 398,550 398,549 394,545 394,544 389,539 389,538 386,535 386,534 380,528 380,527 377,524 377,523 371,517 371,516 366,511 366,510 363,507 363,506 360,503 360,502 357,499 357,498 353,494 353,493 351,491 351,490 348,487 348,486 346,484 346,483 345,482 345,481 344,480 344,479 343,478 343,477 342,476 342,473 341,472 341,464 342,463 342,460 343,459 343,457 345,455 345,454 347,452 348,452 351,449 353,449 354,448 362,448 363,449 365,449 366,450 367,450 368,451 369,451 371,453 372,453 377,458 377,459 386,468 386,469 407,490 407,491 436,520 436,521 444,529 444,530 448,534 448,535 452,539 452,540 455,543 455,544 457,546 457,547 458,548 458,549 460,551 460,552 461,553 461,554 463,556 463,557 464,558 464,559 465,560 465,561 467,563 467,564 468,565 468,566 469,567 469,568 470,569 470,570 471,571 471,572 472,573 472,574 473,575 473,576 474,577 474,579 475,580 475,581 476,582 476,584 477,585 477,586 478,587 478,588 479,589 479,591 480,592 480,593 481,594 481,596 482,597 482,599 483,600 483,602 484,603 484,605 485,606 485,609 486,610 486,612 487,613 487,616 488,617 488,619 489,620 489,624 490,625 490,629 491,630 491,635 492,636 492,641 493,642 493,647 494,648 494,657 495,658 495,676 496,677 496,705 497,706 497,724 496,725 496,759 497,760 497,764 496,765 495,764 409,764 408,765 407,764 407,741 406,740 406,728 405,727 405,722 404,721 404,717 403,716 403,712 402,711 402,709 401,708 401,705 400,704 400,702 399,701 399,699 398,698 398,696 397,695 397,693 396,692 396,690 395,689 395,687 394,686 394,685 393,684 393,682 392,681 392,679 391,678 391,677 390,676 390,674 389,673 389,672 388,671 388,670 387,669 387,668 386,667 386,666 385,665 385,664 383,662 383,661 381,659 381,658 379,656 379,655 377,653 377,652 374,649 374,648 370,644 370,643 351,624 350,624 333,607 333,606 327,600 326,600 325,599 325,598 300,573 300,572 295,567 295,566 292,563 292,562 290,560 290,559 289,558 289,557 287,555 287,554 286,553 286,552 285,551 285,550 284,549 284,547 283,546 283,545 282,544 282,542 281,541 281,539 280,538 280,536 279,535 279,532 278,531 278,527 277,526 277,520 276,519 276,512 275,511 275,494 274,493 274,465 275,464 275,457 276,456 276,451 277,450 277,444 278,443 278,439 279,438 279,433 280,432 280,428 281,427 281,424 282,423 282,420 283,419 283,415 284,414 284,411 285,410 285,407 286,406 286,405 287,404 287,402 289,400 289,399 290,398 291,398 293,396 294,396 295,395" stroke="#000" stroke-width="5" /><polygon fill="#000" fill-opacity="0.4" points="598,383 599,382 600,383 599,384" stroke="#000" stroke-width="5" /><polygon fill="#000" fill-opacity="0.4" points="599,382 600,381 601,382 600,383" stroke="#000" stroke-width="5" /><polygon fill="#000" fill-opacity="0.4" points="507,333 519,333 520,334 520,454 521,455 521,626 520,627 519,627 518,628 506,628 505,627 505,584 504,583 504,420 505,419 505,380 504,379 504,375 505,374 504,373 504,340 505,339 505,335" stroke="#000" stroke-width="5" /><polygon fill="#000" fill-opacity="0.4" points="313,267 314,266 323,266 324,267 336,267 337,268 345,268 346,269 354,269 355,270 361,270 362,271 368,271 369,272 373,272 374,273 377,273 378,274 381,274 382,275 386,275 387,276 389,276 390,277 393,277 394,278 396,278 397,279 399,279 400,280 401,280 402,281 404,281 405,282 407,282 408,283 410,283 411,284 412,284 413,285 414,285 415,286 416,286 417,287 419,287 420,288 421,288 422,289 423,289 424,290 425,290 427,292 428,292 429,293 430,293 431,294 432,294 434,296 435,296 437,298 438,298 441,301 442,301 445,304 446,304 449,307 450,307 469,326 469,327 472,330 472,331 474,333 474,334 476,336 476,337 477,338 477,339 478,340 478,341 479,342 479,343 480,344 480,345 481,346 481,347 482,348 482,349 483,350 483,351 484,352 484,354 485,355 485,357 486,358 486,360 487,361 487,364 488,365 488,369 489,370 489,374 490,375 490,380 491,381 491,389 492,390 492,402 491,403 491,415 490,416 490,423 488,425 487,425 465,403 465,402 463,400 463,372 462,371 462,370 463,369 463,344 462,343 462,340 458,336 455,336 454,337 453,337 453,338 451,340 451,387 450,388 449,388 436,375 435,375 433,373 433,372 432,372 427,367 427,343 426,342 426,309 424,307 424,306 418,306 416,308 416,309 415,310 415,353 414,354 413,354 403,344 402,344 365,307 364,307 348,291 347,291 346,290 345,290 342,293 342,294 341,295 341,300 384,343 385,343 393,351 393,352 406,365 407,365 415,373 416,373 417,374 417,375 422,380 421,381 403,381 402,382 392,382 391,383 387,383 386,384 384,384 384,385 382,387 382,389 383,390 385,390 386,391 391,391 392,392 424,392 425,391 427,391 429,389 429,388 430,387 433,390 434,390 450,406 450,407 449,408 442,408 441,409 428,409 427,410 414,410 413,411 412,411 410,413 410,414 409,415 409,416 410,417 410,418 411,419 411,420 442,420 443,419 452,419 453,420 454,419 457,419 458,418 458,417 459,416 460,416 461,417 462,417 479,434 479,435 480,435 481,436 481,437 480,438 478,438 477,439 474,439 473,440 468,440 467,441 456,441 455,442 444,442 443,441 432,441 431,440 427,440 426,439 424,439 423,438 421,438 420,437 419,437 418,436 416,436 415,435 414,435 413,434 411,434 410,433 409,433 408,432 406,432 405,431 404,431 403,430 402,430 401,429 400,429 399,428 398,428 397,427 396,427 394,425 393,425 392,424 391,424 390,423 389,423 387,421 386,421 384,419 383,419 381,417 380,417 377,414 376,414 372,410 371,410 354,393 354,392 349,387 349,386 346,383 346,382 345,381 345,380 343,378 343,377 341,375 341,374 339,372 339,371 338,370 338,369 336,367 336,366 335,365 335,364 334,363 334,362 333,361 333,360 332,359 332,358 331,357 331,355 330,354 330,353 329,352 329,351 328,350 328,348 327,347 327,346 326,345 326,343 325,342 325,340 324,339 324,337 323,336 323,334 322,333 322,330 321,329 321,327 320,326 320,323 319,322 319,318 318,317 318,313 317,312 317,306 316,305 316,298 315,297 315,288 314,287 314,277 313,276" stroke="#000" stroke-width="5" /><polygon fill="#000" fill-opacity="0.4" points="708,266 709,265 711,265 712,266 712,278 711,279 711,292 710,293 710,300 709,301 709,306 708,307 708,312 707,313 707,317 706,318 706,321 705,322 705,324 704,325 704,328 703,329 703,331 702,332 702,334 701,335 701,337 700,338 700,340 699,341 699,343 698,344 698,346 697,347 697,348 696,349 696,350 695,351 695,353 694,354 694,355 693,356 693,357 692,358 692,359 691,360 691,361 690,362 690,363 689,364 689,365 688,366 688,367 687,368 687,369 686,370 686,371 684,373 684,374 682,376 682,377 679,380 679,381 677,383 677,384 673,388 673,389 670,392 670,393 666,397 666,398 651,413 650,413 645,418 644,418 641,421 640,421 638,423 637,423 635,425 634,425 633,426 632,426 630,428 629,428 628,429 627,429 626,430 625,430 624,431 622,431 621,432 620,432 619,433 617,433 616,434 615,434 614,435 612,435 611,436 609,436 608,437 606,437 605,438 602,438 601,439 598,439 597,440 592,440 591,441 582,441 581,442 566,442 565,441 557,441 556,440 552,440 551,439 550,439 549,438 547,438 545,436 546,435 546,434 551,429 551,428 566,413 566,412 571,407 572,408 572,411 571,412 571,419 572,420 594,420 595,421 608,421 609,420 615,420 617,418 617,413 616,412 616,411 614,409 577,409 576,408 573,408 572,407 589,390 590,390 595,385 596,385 598,383 599,384 599,385 598,386 599,387 599,390 600,391 601,391 602,392 633,392 634,393 641,393 642,392 644,392 646,390 646,388 645,387 645,386 644,385 644,384 635,384 634,383 624,383 623,382 616,382 615,381 603,381 602,382 601,382 600,381 614,367 615,367 617,365 617,364 622,359 623,359 631,351 632,351 634,349 634,348 640,342 641,342 669,314 669,313 671,311 672,311 685,298 685,296 680,291 677,291 676,292 675,292 672,295 671,295 663,303 662,303 611,354 610,354 609,353 610,352 609,351 609,310 606,307 602,307 598,311 598,365 575,388 574,387 574,382 573,381 573,347 574,346 574,342 573,341 573,339 571,337 570,337 569,336 568,336 566,338 565,338 565,339 563,341 563,344 562,345 562,398 561,399 561,400 548,413 548,414 540,422 540,423 539,424 537,424 536,423 536,422 535,421 535,417 534,416 534,409 533,408 533,394 534,393 534,382 535,381 535,374 536,373 536,369 537,368 537,364 538,363 538,361 539,360 539,357 540,356 540,354 541,353 541,352 542,351 542,349 543,348 543,347 544,346 544,345 545,344 545,343 546,342 546,341 547,340 547,339 549,337 549,336 550,335 550,334 553,331 553,330 557,326 557,325 576,306 577,306 581,302 582,302 585,299 586,299 587,298 588,298 590,296 591,296 592,295 593,295 594,294 595,294 596,293 597,293 598,292 599,292 600,291 601,291 602,290 603,290 604,289 605,289 606,288 607,288 608,287 609,287 610,286 611,286 612,285 614,285 615,284 616,284 617,283 618,283 619,282 621,282 622,281 624,281 625,280 627,280 628,279 630,279 631,278 633,278 634,277 637,277 638,276 640,276 641,275 644,275 645,274 649,274 650,273 654,273 655,272 659,272 660,271 664,271 665,270 669,270 670,269 679,269 680,268 692,268 693,267 701,267 702,266" stroke="#000" stroke-width="5" /><polygon fill="#000" fill-opacity="0.4" points="197,198 279,198 280,199 449,199 450,198 456,198 457,199 457,200 456,201 456,202 454,204 454,205 451,208 451,209 450,210 450,211 449,212 449,213 448,214 448,215 447,216 447,217 446,218 446,219 445,220 445,221 444,222 444,224 443,225 443,226 442,227 442,229 441,230 441,232 440,233 440,237 439,238 439,241 438,242 437,241 432,241 431,240 237,240 238,241 238,455 237,456 237,467 238,468 238,575 237,576 237,591 238,592 238,599 237,600 237,603 238,604 238,707 237,708 237,747 238,748 238,755 237,756 237,787 257,787 258,786 371,786 372,787 379,787 380,786 407,786 408,787 412,787 413,786 414,787 423,787 424,786 787,786 787,785 788,784 788,776 787,775 787,576 788,575 788,364 787,363 787,271 788,270 788,240 594,240 593,241 585,241 584,240 584,238 583,237 583,233 582,232 582,230 581,229 581,227 580,226 580,225 579,224 579,222 578,221 578,220 577,219 577,218 576,217 576,216 575,215 575,214 573,212 573,211 572,210 572,209 570,207 570,206 567,203 567,202 566,201 566,200 567,199 803,199 804,198 829,198 830,199 830,826 829,827 196,827 195,826 195,824 196,823 196,604 195,603 195,500 196,499 196,488 195,487 195,333 196,332 196,290 195,289 195,280 196,279 196,205 195,204 195,200" stroke="#000" stroke-width="5" /><polygon fill="#000" fill-opacity="0.4" points="511,181 513,181 521,189 522,189 529,196 529,197 535,203 535,204 539,208 539,209 542,212 542,213 544,215 544,216 546,218 546,219 548,221 548,222 549,223 549,224 550,225 550,226 551,227 551,228 552,229 552,230 553,231 553,233 554,234 554,235 555,236 555,238 556,239 556,241 557,242 557,245 558,246 558,251 559,252 559,273 558,274 558,279 557,280 557,282 556,283 556,285 555,286 555,287 554,288 554,290 553,291 553,292 551,294 551,295 549,297 549,298 547,300 547,301 538,310 537,310 535,312 534,312 533,313 532,313 531,314 530,314 529,315 527,315 526,316 523,316 522,317 519,317 517,315 517,301 518,300 519,300 521,298 522,298 524,296 525,296 528,293 529,293 539,283 540,283 543,280 543,279 545,277 544,276 544,275 542,273 541,273 540,272 539,272 527,284 526,284 521,289 520,289 518,291 517,290 517,273 518,272 519,272 522,269 522,268 540,250 540,249 541,248 541,246 539,244 538,244 537,243 532,248 531,248 519,260 518,259 518,255 517,254 517,216 515,214 510,214 509,215 509,216 508,217 508,260 507,261 506,261 491,246 490,246 488,244 486,244 485,245 485,246 484,247 484,250 485,251 485,252 499,266 500,266 501,267 501,268 502,268 508,274 508,277 507,278 507,287 508,288 508,289 507,290 506,290 505,289 504,289 501,286 500,286 488,274 487,274 486,273 484,273 483,274 483,275 481,277 481,278 483,280 483,281 487,285 487,286 488,286 497,295 498,295 500,297 501,297 502,298 503,298 504,299 506,299 508,301 508,302 507,303 507,316 506,317 503,317 502,316 500,316 499,315 497,315 496,314 494,314 493,313 492,313 491,312 490,312 489,311 488,311 485,308 484,308 479,303 479,302 476,299 476,298 474,296 474,295 472,293 472,292 471,291 471,290 470,289 470,288 469,287 469,284 468,283 468,281 467,280 467,276 466,275 466,270 465,269 465,260 466,259 466,252 467,251 467,247 468,246 468,243 469,242 469,240 470,239 470,237 471,236 471,235 472,234 472,233 473,232 473,230 474,229 474,228 475,227 475,226 476,225 476,224 477,223 477,222 479,220 479,219 480,218 480,217 482,215 482,214 485,211 485,210 487,208 487,207 491,203 491,202 499,194 499,193" stroke="#000" stroke-width="5" /></svg>