<?xml version="1.0" encoding="utf-8" ?>
<svg baseProfile="tiny" height="1024" version="1.2" width="1024" xmlns="http://www.w3.org/2000/svg" xmlns:ev="http://www.w3.org/2001/xml-events" xmlns:xlink="http://www.w3.org/1999/xlink"><defs /><polygon fill="#fff" fill-opacity="0.4" points="700,681 699,682 697,682 696,683 695,683 694,684 693,684 687,690 687,691 685,693 685,695 684,696 684,699 683,700 683,703 684,704 684,706 685,707 685,708 686,709 686,710 691,715 692,715 693,716 694,716 695,717 697,717 698,718 707,718 708,717 710,717 711,716 712,716 713,715 714,715 719,710 719,709 720,708 720,707 721,706 721,704 722,703 722,694 720,692 720,691 718,689 718,688 715,685 714,685 712,683 711,683 710,682 707,682 706,681" stroke="#fff" stroke-width="5" /><polygon fill="#fff" fill-opacity="0.4" points="724,395 723,396 720,396 719,397 718,397 713,402 713,403 712,404 712,406 711,407 711,422 712,423 712,466 711,467 711,471 710,472 710,476 709,477 709,479 708,480 708,483 707,484 707,486 706,487 706,488 705,489 705,491 704,492 704,493 703,494 703,495 702,496 702,497 701,498 701,499 700,500 700,501 698,503 698,504 696,506 696,507 695,508 695,509 693,511 693,512 691,514 691,515 685,521 685,522 664,543 663,543 659,547 658,547 655,550 654,550 651,553 650,553 647,556 646,556 643,559 642,559 640,561 639,561 637,563 636,563 635,564 634,564 632,566 631,566 630,567 629,567 627,569 626,569 625,570 623,570 622,571 621,571 620,572 617,572 616,573 612,573 611,572 611,567 612,566 612,565 613,564 613,563 618,558 618,557 625,550 625,549 628,546 628,545 633,540 633,539 639,533 639,532 645,526 645,525 650,520 650,519 657,512 657,511 665,503 665,502 674,493 674,492 677,489 677,488 679,486 679,485 680,484 680,483 681,482 681,480 682,479 682,477 683,476 683,473 684,472 684,466 683,465 683,462 682,461 682,459 680,457 680,456 675,451 674,451 673,450 671,450 670,449 662,449 661,450 660,450 659,451 658,451 629,480 629,481 628,482 627,482 597,512 597,513 583,527 583,528 578,533 578,534 574,538 574,539 571,542 571,543 568,546 568,547 566,549 566,550 564,552 564,553 563,554 563,555 562,556 562,557 560,559 560,560 559,561 559,562 558,563 558,564 557,565 557,566 556,567 556,568 555,569 555,570 554,571 554,572 553,573 553,574 552,575 552,576 551,577 551,578 550,579 550,581 549,582 549,583 548,584 548,586 547,587 547,588 546,589 546,591 545,592 545,594 544,595 544,597 543,598 543,601 542,602 542,604 541,605 541,608 540,609 540,612 539,613 539,616 538,617 538,620 537,621 537,624 536,625 536,630 535,631 535,635 534,636 534,643 533,644 533,649 532,650 533,651 532,652 532,663 531,664 531,677 530,678 530,709 531,710 531,752 530,753 530,763 617,763 618,764 619,763 619,760 618,759 618,729 619,728 619,721 620,720 620,715 621,714 621,709 622,708 622,705 623,704 623,702 624,701 624,698 625,697 625,696 626,695 626,693 627,692 627,690 628,689 628,687 629,686 629,684 630,683 630,681 631,680 631,679 632,678 632,676 633,675 633,674 634,673 634,672 635,671 635,670 636,669 636,668 637,667 637,666 639,664 639,663 642,660 642,659 644,657 644,656 645,655 645,654 648,651 648,650 652,646 652,645 656,641 656,640 688,608 688,607 689,606 690,606 690,605 707,588 708,588 708,587 711,584 712,584 712,583 713,582 714,582 716,580 716,579 719,576 720,576 720,575 721,574 722,574 723,573 723,572 728,567 728,566 732,562 732,561 733,560 733,559 735,557 735,556 737,554 737,553 738,552 738,551 739,550 739,549 740,548 740,547 741,546 741,544 742,543 742,542 743,541 743,539 744,538 744,536 745,535 745,533 746,532 746,530 747,529 747,526 748,525 748,522 749,521 749,517 750,516 750,500 751,499 750,498 750,469 749,468 749,460 748,459 748,451 747,450 747,445 746,444 746,439 745,438 745,434 744,433 744,430 743,429 743,425 742,424 742,420 741,419 741,415 740,414 740,411 739,410 739,407 738,406 738,404 737,403 737,402 732,397 731,397 730,396 727,396 726,395" stroke="#fff" stroke-width="5" /><polygon fill="#fff" fill-opacity="0.4" points="298,395 297,396 295,396 294,397 293,397 291,399 290,399 290,400 288,402 288,404 287,405 287,406 286,407 286,410 285,411 285,414 284,415 284,419 283,420 283,423 282,424 282,427 281,428 281,432 280,433 280,438 279,439 279,443 278,444 278,450 277,451 277,456 276,457 276,464 275,465 275,493 276,494 276,511 277,512 277,519 278,520 278,526 279,527 279,531 280,532 280,535 281,536 281,538 282,539 282,541 283,542 283,544 284,545 284,546 285,547 285,549 286,550 286,551 287,552 287,553 288,554 288,555 290,557 290,558 291,559 291,560 293,562 293,563 296,566 296,567 301,572 301,573 326,598 326,599 327,599 334,606 334,607 350,623 351,623 371,643 371,644 375,648 375,649 378,652 378,653 380,655 380,656 382,658 382,659 384,661 384,662 386,664 386,665 387,666 387,667 388,668 388,669 389,670 389,671 390,672 390,673 391,674 391,676 392,677 392,678 393,679 393,681 394,682 394,684 395,685 395,686 396,687 396,689 397,690 397,692 398,693 398,695 399,696 399,698 400,699 400,701 401,702 401,704 402,705 402,708 403,709 403,711 404,712 404,716 405,717 405,721 406,722 406,727 407,728 407,740 408,741 408,764 409,763 495,763 496,764 496,760 495,759 495,725 496,724 496,706 495,705 495,677 494,676 494,658 493,657 493,648 492,647 492,642 491,641 491,636 490,635 490,630 489,629 489,625 488,624 488,620 487,619 487,617 486,616 486,613 485,612 485,610 484,609 484,606 483,605 483,603 482,602 482,600 481,599 481,597 480,596 480,594 479,593 479,592 478,591 478,589 477,588 477,587 476,586 476,585 475,584 475,582 474,581 474,580 473,579 473,577 472,576 472,575 471,574 471,573 470,572 470,571 469,570 469,569 468,568 468,567 467,566 467,565 466,564 466,563 464,561 464,560 463,559 463,558 462,557 462,556 460,554 460,553 459,552 459,551 457,549 457,548 456,547 456,546 454,544 454,543 451,540 451,539 447,535 447,534 443,530 443,529 435,521 435,520 406,491 406,490 385,469 385,468 376,459 376,458 372,454 371,454 369,452 368,452 367,451 366,451 365,450 363,450 362,449 354,449 353,450 351,450 348,453 347,453 346,454 346,455 344,457 344,459 343,460 343,463 342,464 342,472 343,473 343,476 344,477 344,478 345,479 345,480 346,481 346,482 347,483 347,484 349,486 349,487 352,490 352,491 354,493 354,494 358,498 358,499 361,502 361,503 364,506 364,507 367,510 367,511 372,516 372,517 378,523 378,524 381,527 381,528 387,534 387,535 390,538 390,539 395,544 395,545 399,549 399,550 407,558 407,559 414,566 414,567 416,569 416,570 417,571 415,573 412,573 411,572 407,572 406,571 404,571 403,570 400,570 399,569 397,569 396,568 394,568 393,567 392,567 391,566 390,566 389,565 388,565 386,563 385,563 383,561 382,561 380,559 379,559 371,551 370,551 343,524 343,523 340,520 340,519 336,515 336,514 333,511 333,510 331,508 331,507 329,505 329,504 328,503 328,502 326,500 326,499 325,498 325,497 324,496 324,495 323,494 323,493 322,492 322,491 321,490 321,488 320,487 320,486 319,485 319,483 318,482 318,479 317,478 317,474 316,473 316,469 315,468 315,461 314,460 314,446 313,445 313,426 314,425 314,405 313,404 313,402 308,397 307,397 306,396 302,396 301,395" stroke="#fff" stroke-width="5" /><polygon fill="#fff" fill-opacity="0.4" points="507,334 506,335 506,339 505,340 505,373 506,374 505,375 505,379 506,380 506,419 505,420 505,583 506,584 506,627 518,627 519,626 520,626 520,455 519,454 519,334" stroke="#fff" stroke-width="5" /><polygon fill="#fff" fill-opacity="0.4" points="314,267 314,276 315,277 315,287 316,288 316,297 317,298 317,305 318,306 318,312 319,313 319,317 320,318 320,322 321,323 321,326 322,327 322,329 323,330 323,333 324,334 324,336 325,337 325,339 326,340 326,342 327,343 327,345 328,346 328,347 329,348 329,350 330,351 330,352 331,353 331,354 332,355 332,357 333,358 333,359 334,360 334,361 335,362 335,363 336,364 336,365 337,366 337,367 339,369 339,370 340,371 340,372 342,374 342,375 344,377 344,378 346,380 346,381 347,382 347,383 350,386 350,387 355,392 355,393 371,409 372,409 376,413 377,413 380,416 381,416 383,418 384,418 386,420 387,420 389,422 390,422 391,423 392,423 393,424 394,424 396,426 397,426 398,427 399,427 400,428 401,428 402,429 403,429 404,430 405,430 406,431 408,431 409,432 410,432 411,433 413,433 414,434 415,434 416,435 418,435 419,436 420,436 421,437 423,437 424,438 426,438 427,439 431,439 432,440 443,440 444,441 455,441 456,440 467,440 468,439 473,439 474,438 477,438 478,437 480,437 480,436 479,436 478,435 478,434 462,418 461,418 460,417 459,417 459,418 457,420 454,420 453,421 452,420 443,420 442,421 411,421 410,420 410,419 409,418 409,417 408,416 408,415 409,414 409,413 412,410 413,410 414,409 427,409 428,408 441,408 442,407 449,407 449,406 434,391 433,391 430,388 430,389 427,392 425,392 424,393 392,393 391,392 386,392 385,391 383,391 381,389 381,387 383,385 383,384 384,383 386,383 387,382 391,382 392,381 402,381 403,380 421,380 416,375 416,374 415,374 407,366 406,366 392,352 392,351 385,344 384,344 340,300 340,295 341,294 341,293 345,289 346,289 347,290 348,290 364,306 365,306 402,343 403,343 413,353 414,353 414,310 415,309 415,308 418,305 424,305 425,306 425,307 427,309 427,342 428,343 428,367 432,371 433,371 434,372 434,373 435,374 436,374 449,387 450,387 450,340 452,338 452,337 453,336 454,336 455,335 458,335 463,340 463,343 464,344 464,369 463,370 463,371 464,372 464,400 466,402 466,403 487,424 488,424 489,423 489,416 490,415 490,403 491,402 491,390 490,389 490,381 489,380 489,375 488,374 488,370 487,369 487,365 486,364 486,361 485,360 485,358 484,357 484,355 483,354 483,352 482,351 482,350 481,349 481,348 480,347 480,346 479,345 479,344 478,343 478,342 477,341 477,340 476,339 476,338 475,337 475,336 473,334 473,333 471,331 471,330 468,327 468,326 450,308 449,308 446,305 445,305 442,302 441,302 438,299 437,299 435,297 434,297 432,295 431,295 430,294 429,294 428,293 427,293 425,291 424,291 423,290 422,290 421,289 420,289 419,288 417,288 416,287 415,287 414,286 413,286 412,285 411,285 410,284 408,284 407,283 405,283 404,282 402,282 401,281 400,281 399,280 397,280 396,279 394,279 393,278 390,278 389,277 387,277 386,276 382,276 381,275 378,275 377,274 374,274 373,273 369,273 368,272 362,272 361,271 355,271 354,270 346,270 345,269 337,269 336,268 324,268 323,267" stroke="#fff" stroke-width="5" /><polygon fill="#fff" fill-opacity="0.4" points="360,357 361,357 362,358 365,358 366,359 395,359 397,361 398,361 400,363 400,369 398,371 394,371 393,372 384,372 383,371 367,371 366,370 363,370 362,369 360,369 356,365 356,362 357,361 357,360" stroke="#fff" stroke-width="5" /><polygon fill="#fff" fill-opacity="0.4" points="709,266 708,267 702,267 701,268 693,268 692,269 680,269 679,270 670,270 669,271 665,271 664,272 660,272 659,273 655,273 654,274 650,274 649,275 645,275 644,276 641,276 640,277 638,277 637,278 634,278 633,279 631,279 630,280 628,280 627,281 625,281 624,282 622,282 621,283 619,283 618,284 617,284 616,285 615,285 614,286 612,286 611,287 610,287 609,288 608,288 607,289 606,289 605,290 604,290 603,291 602,291 601,292 600,292 599,293 598,293 597,294 596,294 595,295 594,295 593,296 592,296 591,297 590,297 588,299 587,299 586,300 585,300 582,303 581,303 577,307 576,307 558,325 558,326 554,330 554,331 551,334 551,335 550,336 550,337 548,339 548,340 547,341 547,342 546,343 546,344 545,345 545,346 544,347 544,348 543,349 543,351 542,352 542,353 541,354 541,356 540,357 540,360 539,361 539,363 538,364 538,368 537,369 537,373 536,374 536,381 535,382 535,393 534,394 534,408 535,409 535,416 536,417 536,421 537,422 537,423 539,423 539,422 547,414 547,413 560,400 560,399 561,398 561,345 562,344 562,341 564,339 564,338 565,337 566,337 568,335 569,335 570,336 571,336 574,339 574,341 575,342 575,346 574,347 574,381 575,382 575,387 597,365 597,311 602,306 606,306 610,310 610,351 611,352 610,353 611,353 662,302 663,302 671,294 672,294 675,291 676,291 677,290 680,290 686,296 686,298 672,312 671,312 670,313 670,314 641,343 640,343 635,348 635,349 632,352 631,352 623,360 622,360 618,364 618,365 615,368 614,368 596,386 595,386 590,391 589,391 573,407 576,407 577,408 614,408 617,411 617,412 618,413 618,418 615,421 609,421 608,422 595,422 594,421 572,421 570,419 570,412 571,411 571,408 567,412 567,413 552,428 552,429 547,434 547,435 546,436 547,437 549,437 550,438 551,438 552,439 556,439 557,440 565,440 566,441 581,441 582,440 591,440 592,439 597,439 598,438 601,438 602,437 605,437 606,436 608,436 609,435 611,435 612,434 614,434 615,433 616,433 617,432 619,432 620,431 621,431 622,430 624,430 625,429 626,429 627,428 628,428 629,427 630,427 632,425 633,425 634,424 635,424 637,422 638,422 640,420 641,420 644,417 645,417 650,412 651,412 665,398 665,397 669,393 669,392 672,389 672,388 676,384 676,383 678,381 678,380 681,377 681,376 683,374 683,373 685,371 685,370 686,369 686,368 687,367 687,366 688,365 688,364 689,363 689,362 690,361 690,360 691,359 691,358 692,357 692,356 693,355 693,354 694,353 694,351 695,350 695,349 696,348 696,347 697,346 697,344 698,343 698,341 699,340 699,338 700,337 700,335 701,334 701,332 702,331 702,329 703,328 703,325 704,324 704,322 705,321 705,318 706,317 706,313 707,312 707,307 708,306 708,301 709,300 709,293 710,292 710,279 711,278 711,266" stroke="#fff" stroke-width="5" /><polygon fill="#fff" fill-opacity="0.4" points="602,381 603,380 615,380 616,381 623,381 624,382 634,382 635,383 644,383 645,384 645,385 646,386 646,387 647,388 647,390 644,393 642,393 641,394 634,394 633,393 602,393 601,392 600,392 598,390 598,387 597,386 598,385 598,384 601,381" stroke="#fff" stroke-width="5" /><polygon fill="#fff" fill-opacity="0.4" points="661,357 662,356 664,356 665,357 666,357 669,360 669,361 670,362 670,365 666,369 664,369 663,370 633,370 632,369 631,369 630,368 630,363 631,362 631,361 633,359 639,359 640,358 658,358 659,357" stroke="#fff" stroke-width="5" /><polygon fill="#fff" fill-opacity="0.4" points="197,199 196,200 196,204 197,205 197,279 196,280 196,289 197,290 197,332 196,333 196,487 197,488 197,499 196,500 196,603 197,604 197,823 196,824 196,826 829,826 829,199 804,199 803,200 567,200 567,201 568,202 568,203 571,206 571,207 573,209 573,210 574,211 574,212 576,214 576,215 577,216 577,217 578,218 578,219 579,220 579,221 580,222 580,224 581,225 581,226 582,227 582,229 583,230 583,232 584,233 584,237 585,238 585,240 593,240 594,239 788,239 789,240 789,270 788,271 788,363 789,364 789,575 788,576 788,775 789,776 789,784 788,785 788,786 787,787 424,787 423,788 414,788 413,787 412,788 408,788 407,787 380,787 379,788 372,788 371,787 258,787 257,788 237,788 236,787 236,756 237,755 237,748 236,747 236,708 237,707 237,604 236,603 236,600 237,599 237,592 236,591 236,576 237,575 237,468 236,467 236,456 237,455 237,241 236,240 237,239 431,239 432,240 437,240 438,241 438,238 439,237 439,233 440,232 440,230 441,229 441,227 442,226 442,225 443,224 443,222 444,221 444,220 445,219 445,218 446,217 446,216 447,215 447,214 448,213 448,212 449,211 449,210 450,209 450,208 453,205 453,204 455,202 455,201 456,200 456,199 450,199 449,200 280,200 279,199" stroke="#fff" stroke-width="5" /><polygon fill="#fff" fill-opacity="0.4" points="511,182 500,193 500,194 492,202 492,203 488,207 488,208 486,210 486,211 483,214 483,215 481,217 481,218 480,219 480,220 478,222 478,223 477,224 477,225 476,226 476,227 475,228 475,229 474,230 474,232 473,233 473,234 472,235 472,236 471,237 471,239 470,240 470,242 469,243 469,246 468,247 468,251 467,252 467,259 466,260 466,269 467,270 467,275 468,276 468,280 469,281 469,283 470,284 470,287 471,288 471,289 472,290 472,291 473,292 473,293 475,295 475,296 477,298 477,299 480,302 480,303 484,307 485,307 488,310 489,310 490,311 491,311 492,312 493,312 494,313 496,313 497,314 499,314 500,315 502,315 503,316 506,316 506,303 507,302 507,301 506,300 504,300 503,299 502,299 501,298 500,298 498,296 497,296 488,287 487,287 486,286 486,285 482,281 482,280 480,278 480,277 482,275 482,274 484,272 486,272 487,273 488,273 500,285 501,285 504,288 505,288 506,289 507,289 507,288 506,287 506,278 507,277 507,274 502,269 501,269 500,268 500,267 499,267 484,252 484,251 483,250 483,247 484,246 484,245 486,243 488,243 490,245 491,245 506,260 507,260 507,217 508,216 508,215 510,213 515,213 518,216 518,254 519,255 519,259 531,247 532,247 537,242 538,243 539,243 542,246 542,248 541,249 541,250 523,268 523,269 519,273 518,273 518,290 520,288 521,288 526,283 527,283 539,271 540,271 541,272 542,272 545,275 545,276 546,277 544,279 544,280 540,284 539,284 529,294 528,294 525,297 524,297 522,299 521,299 519,301 518,301 518,315 519,316 522,316 523,315 526,315 527,314 529,314 530,313 531,313 532,312 533,312 534,311 535,311 537,309 538,309 546,301 546,300 548,298 548,297 550,295 550,294 552,292 552,291 553,290 553,288 554,287 554,286 555,285 555,283 556,282 556,280 557,279 557,274 558,273 558,252 557,251 557,246 556,245 556,242 555,241 555,239 554,238 554,236 553,235 553,234 552,233 552,231 551,230 551,229 550,228 550,227 549,226 549,225 548,224 548,223 547,222 547,221 545,219 545,218 543,216 543,215 541,213 541,212 538,209 538,208 534,204 534,203 528,197 528,196 522,190 521,190 513,182" stroke="#fff" stroke-width="5" /></svg>