<?xml version="1.0" encoding="utf-8" ?>
<svg baseProfile="tiny" height="1024" version="1.2" width="1024" xmlns="http://www.w3.org/2000/svg" xmlns:ev="http://www.w3.org/2001/xml-events" xmlns:xlink="http://www.w3.org/1999/xlink"><defs /><polygon fill="#000" fill-opacity="0.4" points="719,480 718,481 717,481 716,482 715,482 712,485 711,485 702,494 702,498 707,498 708,497 710,497 711,496 712,496 713,495 714,495 715,494 716,494 717,493 718,493 719,492 720,492 722,490 722,488 723,487 723,482 722,481 722,480" stroke="#000" stroke-width="5" /><polygon fill="#000" fill-opacity="0.4" points="645,440 644,441 643,441 614,470 614,471 605,480 605,481 594,492 594,493 591,496 591,497 589,499 589,501 588,502 588,504 591,504 592,503 593,503 594,502 595,502 596,501 598,501 600,499 602,499 603,498 606,498 607,499 607,501 606,502 606,503 603,506 603,507 602,508 601,508 594,515 593,515 585,523 585,524 576,533 576,534 574,536 574,537 573,538 573,540 574,541 577,541 578,540 579,540 580,539 581,539 583,537 584,537 586,535 587,535 591,531 592,531 597,526 598,526 615,509 616,509 620,505 620,504 623,501 623,500 625,498 625,497 627,495 627,494 628,493 628,492 629,491 629,490 630,489 630,488 631,487 631,486 632,485 632,484 633,483 633,481 634,480 634,479 635,478 635,477 636,476 636,475 637,474 637,472 638,471 638,470 639,469 639,468 640,467 640,465 641,464 641,463 642,462 642,460 643,459 643,456 644,455 644,453 645,452 645,449 646,448 646,445 647,444 647,440" stroke="#000" stroke-width="5" /><polygon fill="#000" fill-opacity="0.4" points="685,253 684,254 681,254 680,255 679,255 678,256 677,256 676,257 675,257 674,258 673,258 668,263 668,264 666,266 666,267 665,268 665,270 664,271 664,280 665,281 665,282 667,282 667,281 668,280 668,278 669,277 669,276 670,275 670,274 671,273 671,272 679,264 680,264 683,261 684,261 685,260 686,260 687,259 688,259 689,258 690,258 691,257 692,257 692,256 690,254 688,254 687,253" stroke="#000" stroke-width="5" /><polygon fill="#000" fill-opacity="0.4" points="0,0 0,1023 1023,1023 1023,0" stroke="#000" stroke-width="5" /><polygon fill="#000" fill-opacity="0.4" points="671,690 672,690 673,691 731,691 732,690 735,690 737,692 737,693 736,694 736,696 735,697 735,698 734,699 734,701 733,702 733,704 732,705 732,707 731,708 731,710 730,711 730,713 729,714 729,716 728,717 728,719 727,720 727,722 726,723 726,725 725,726 725,728 724,729 724,731 723,732 723,734 722,735 722,737 721,738 721,740 719,742 652,742 651,741 651,738 652,737 652,736 653,735 653,733 654,732 654,731 655,730 655,728 656,727 656,726 657,725 657,723 658,722 658,721 659,720 659,718 660,717 660,716 661,715 661,713 662,712 662,710 663,709 663,707 664,706 664,705 665,704 665,702 666,701 666,699 667,698 667,697 668,696 668,695 669,694 669,692" stroke="#000" stroke-width="5" /><polygon fill="#000" fill-opacity="0.4" points="588,690 591,690 592,691 644,691 645,690 651,690 652,691 652,694 651,695 651,696 650,697 650,698 649,699 649,701 648,702 648,703 647,704 647,706 646,707 646,708 645,709 645,711 644,712 644,713 643,714 643,715 642,716 642,718 641,719 641,720 640,721 640,723 639,724 639,725 638,726 638,728 637,729 637,730 636,731 636,732 635,733 635,735 634,736 634,737 633,738 633,739 632,740 632,741 631,742 563,742 562,741 563,740 563,739 564,738 564,737 565,736 565,735 566,734 566,733 567,732 567,731 568,730 568,729 569,728 569,727 570,726 570,725 571,724 571,723 572,722 572,720 573,719 573,718 574,717 574,716 575,715 575,714 576,713 576,712 577,711 577,710 578,709 578,708 579,707 579,706 580,705 580,704 581,703 581,702 582,701 582,700 583,699 583,697 584,696 584,695 586,693 586,692" stroke="#000" stroke-width="5" /><polygon fill="#000" fill-opacity="0.4" points="505,690 511,690 512,691 531,691 532,690 541,690 542,691 560,691 561,690 567,690 569,692 569,693 568,694 568,695 567,696 567,697 565,699 565,700 564,701 564,702 563,703 563,704 562,705 562,706 561,707 561,709 560,710 560,711 559,712 559,713 557,715 557,716 556,717 556,718 555,719 555,720 553,722 553,723 552,724 552,725 551,726 551,727 550,728 550,729 549,730 549,732 548,733 548,734 547,735 547,736 545,738 545,739 544,740 544,741 543,742 540,742 539,741 476,741 475,740 475,738 476,737 476,736 478,734 478,733 480,731 480,730 483,727 483,726 484,725 484,724 486,722 486,721 487,720 487,719 489,717 489,716 490,715 490,714 492,712 492,711 493,710 493,709 494,708 494,707 495,706 495,705 497,703 497,702 498,701 498,700 500,698 500,697 501,696 501,695 503,693 503,692" stroke="#000" stroke-width="5" /><polygon fill="#000" fill-opacity="0.4" points="696,629 698,629 699,630 748,630 749,629 755,629 757,631 756,632 756,635 755,636 755,637 754,638 754,640 753,641 753,643 752,644 752,645 751,646 751,648 750,649 750,651 749,652 749,654 748,655 748,657 747,658 747,660 746,661 746,663 745,664 745,666 744,667 744,669 743,670 743,672 742,673 742,675 740,677 739,677 738,676 677,676 676,675 676,673 677,672 677,671 678,670 678,669 679,668 679,666 680,665 680,664 681,663 681,662 682,661 682,660 683,659 683,658 684,657 684,655 685,654 685,653 686,652 686,650 687,649 687,647 688,646 688,645 689,644 689,642 690,641 690,640 691,639 691,638 692,637 692,635 693,634 693,633 694,632 694,631" stroke="#000" stroke-width="5" /><polygon fill="#000" fill-opacity="0.4" points="618,629 625,629 626,630 676,630 677,631 677,633 676,634 676,636 675,637 675,638 674,639 674,640 673,641 673,643 672,644 672,645 671,646 671,648 670,649 670,650 669,651 669,652 668,653 668,654 667,655 667,656 666,657 666,658 665,659 665,661 664,662 664,663 663,664 663,665 662,666 662,668 661,669 661,671 660,672 660,673 659,674 659,675 657,677 656,676 604,676 603,677 597,677 596,676 594,676 593,675 594,674 594,673 595,672 595,671 597,669 597,668 598,667 598,666 599,665 599,664 600,663 600,662 601,661 601,660 602,659 602,658 604,656 604,655 605,654 605,653 606,652 606,651 607,650 607,648 608,647 608,646 609,645 609,644 610,643 610,642 611,641 611,640 613,638 613,637 614,636 614,635 615,634 615,632" stroke="#000" stroke-width="5" /><polygon fill="#000" fill-opacity="0.4" points="541,628 542,629 559,629 560,630 593,630 594,629 598,629 599,630 599,631 598,632 598,633 597,634 597,635 596,636 596,637 595,638 595,639 594,640 594,641 593,642 593,643 592,644 592,645 591,646 591,647 590,648 590,649 589,650 589,651 588,652 588,653 587,654 587,655 586,656 586,657 584,659 584,660 583,661 583,662 582,663 582,664 581,665 581,667 580,668 580,669 579,670 579,671 578,672 578,673 577,674 577,675 575,677 574,676 523,676 522,677 514,677 512,675 512,674 514,672 514,671 517,668 517,667 518,666 518,665 520,663 520,662 521,661 521,660 523,658 523,657 524,656 524,655 525,654 525,653 527,651 527,650 528,649 528,648 529,647 529,646 531,644 531,643 533,641 533,640 535,638 535,637 536,636 536,635 538,633 538,632 539,631 539,630" stroke="#000" stroke-width="5" /><polygon fill="#000" fill-opacity="0.4" points="301,590 304,590 307,593 308,593 310,595 311,595 313,597 314,597 316,599 317,599 319,601 320,601 322,603 323,603 325,605 326,605 328,607 329,607 331,609 332,609 334,611 335,611 337,613 338,613 340,615 341,615 343,617 344,617 346,619 347,619 350,622 351,622 353,624 354,624 356,626 357,626 359,628 360,628 362,630 363,630 365,632 366,632 369,635 370,635 372,637 373,637 376,640 377,640 379,642 380,642 383,645 384,645 387,648 388,648 391,651 392,651 394,653 395,653 398,656 399,656 401,658 402,658 404,660 405,660 407,662 408,662 409,663 410,663 415,668 412,671 412,672 411,673 411,703 410,704 410,708 411,709 411,789 410,790 393,790 392,789 392,715 393,714 393,693 392,692 392,671 391,670 391,664 390,663 390,661 387,658 384,658 383,657 382,658 381,658 380,659 380,661 379,662 379,670 378,671 378,687 379,688 379,715 378,716 378,728 379,729 379,761 378,762 378,789 377,790 333,790 332,789 332,775 331,774 331,704 332,703 332,683 331,682 331,681 332,680 332,677 333,676 333,675 332,674 332,671 330,669 330,668 326,664 275,664 274,665 273,665 272,666 271,666 268,669 268,670 267,671 267,674 268,675 268,677 270,679 276,679 277,680 323,680 324,681 323,682 322,682 321,683 320,683 320,693 319,694 319,707 318,708 318,781 319,782 319,788 318,789 318,790 317,791 316,790 279,790 278,789 278,761 277,760 277,689 276,688 276,686 275,685 268,685 268,687 267,688 267,693 266,694 266,703 265,704 265,768 266,769 266,789 265,790 231,790 230,791 217,791 215,789 215,778 216,777 216,672 217,671 217,666 216,665 216,662 215,661 215,660 213,658 221,650 222,650 226,646 227,646 231,642 232,642 235,639 236,639 239,636 240,636 242,634 243,634 246,631 247,631 249,629 250,629 253,626 254,626 257,623 258,623 261,620 262,620 264,618 265,618 267,616 268,616 270,614 271,614 273,612 274,612 277,609 278,609 281,606 282,606 284,604 285,604 289,600 290,600 295,595 296,595" stroke="#000" stroke-width="5" /><polygon fill="#000" fill-opacity="0.4" points="718,574 743,574 744,575 747,575 748,574 777,574 778,575 777,576 777,577 776,578 776,580 775,581 775,582 774,583 774,585 773,586 773,587 772,588 772,589 771,590 771,592 770,593 770,594 769,595 769,596 768,597 768,599 767,600 767,602 766,603 766,605 765,606 765,608 764,609 764,610 763,611 763,613 762,614 762,615 761,616 702,616 700,614 701,613 701,612 702,611 702,609 703,608 703,607 704,606 704,605 705,604 705,602 706,601 706,600 707,599 707,598 708,597 708,595 709,594 709,593 710,592 710,590 711,589 711,588 712,587 712,585 713,584 713,583 714,582 714,581 715,580 715,578 716,577 716,576" stroke="#000" stroke-width="5" /><polygon fill="#000" fill-opacity="0.4" points="645,574 668,574 669,575 695,575 696,574 699,574 701,576 700,577 700,578 699,579 699,580 698,581 698,582 697,583 697,585 696,586 696,587 695,588 695,589 694,590 694,592 693,593 693,594 692,595 692,596 691,597 691,599 690,600 690,601 689,602 689,603 688,604 688,606 687,607 687,609 686,610 686,611 685,612 685,614 683,616 652,616 651,615 644,615 643,616 625,616 624,615 624,614 625,613 625,612 626,611 626,610 627,609 627,608 628,607 628,606 629,605 629,604 630,603 630,602 631,601 631,600 632,599 632,598 633,597 633,596 634,595 634,594 635,593 635,592 637,590 637,588 639,586 639,584 640,583 640,582 641,581 641,580 642,579 642,578 643,577 643,576" stroke="#000" stroke-width="5" /><polygon fill="#000" fill-opacity="0.4" points="574,574 626,574 627,575 627,576 626,577 626,578 625,579 625,580 624,581 624,582 623,583 623,584 622,585 622,586 621,587 621,588 620,589 620,590 619,591 619,592 617,594 617,595 616,596 616,597 615,598 615,599 614,600 614,601 613,602 613,603 612,604 612,605 611,606 611,607 610,608 610,609 609,610 609,612 608,613 608,614 606,616 603,616 602,615 584,615 583,616 564,616 563,615 556,615 555,616 554,615 550,615 549,614 550,613 550,612 551,611 551,610 554,607 554,606 556,604 556,603 557,602 557,601 559,599 559,598 561,596 561,595 563,593 563,592 565,590 565,589 566,588 566,587 567,586 567,585 569,583 569,582 570,581 570,580 571,579 571,578 572,577 572,576" stroke="#000" stroke-width="5" /><polygon fill="#000" fill-opacity="0.4" points="467,547 468,548 468,555 467,556 467,566 466,567 466,587 465,588 465,606 464,607 464,610 463,611 462,611 461,610 461,609 455,603 454,603 450,599 449,599 447,597 446,597 444,595 443,595 442,594 441,594 439,592 438,592 436,590 435,590 433,588 432,588 425,581 425,580 424,579 424,578 426,576 427,576 428,575 429,575 431,573 432,573 433,572 434,572 435,571 436,571 439,568 440,568 443,565 444,565 448,561 449,561 452,558 453,558 456,555 457,555 459,553 460,553 463,550 464,550" stroke="#000" stroke-width="5" /><polygon fill="#000" fill-opacity="0.4" points="170,505 171,504 172,504 173,505 174,505 180,511 181,511 188,518 189,518 193,522 194,522 196,524 197,524 199,526 200,526 201,527 202,527 203,528 203,531 202,532 202,563 201,564 201,582 202,583 202,595 201,596 201,623 202,624 202,805 209,805 210,806 247,806 248,805 414,805 415,806 436,806 437,807 437,808 436,809 435,809 435,810 433,812 433,814 432,815 432,816 433,817 433,818 434,818 448,832 448,833 449,834 449,835 448,836 418,836 417,835 388,835 387,836 384,836 383,835 173,835 172,834 171,834 170,833 170,832 169,831 169,511 170,510" stroke="#000" stroke-width="5" /><polygon fill="#000" fill-opacity="0.4" points="408,504 409,503 417,503 419,505 419,550 420,551 419,552 420,553 420,578 418,580 416,580 415,579 414,579 413,578 411,578 410,577 409,577 408,576 408,574 407,573 407,529 408,528" stroke="#000" stroke-width="5" /><polygon fill="#000" fill-opacity="0.4" points="826,502 828,504 828,832 825,835 736,835 735,836 612,836 611,835 592,835 591,836 557,836 556,835 553,835 552,834 552,833 556,829 556,828 560,824 561,824 567,818 567,817 569,815 569,813 567,811 566,811 563,808 562,808 561,807 560,807 559,806 560,805 569,805 570,806 613,806 614,805 715,805 716,806 751,806 752,805 795,805 795,800 796,799 796,676 795,675 795,632 796,631 796,622 795,621 795,615 796,614 796,580 795,579 795,562 796,561 796,526 799,523 800,523 801,522 802,522 805,519 806,519 809,516 810,516 813,513 814,513 820,507 821,507" stroke="#000" stroke-width="5" /><polygon fill="#000" fill-opacity="0.4" points="429,492 431,492 432,493 434,493 435,494 436,494 437,495 438,495 439,496 440,496 441,497 442,497 444,499 445,499 448,502 449,502 458,511 458,512 457,513 450,513 449,512 447,512 446,511 444,511 443,510 441,510 440,509 439,509 438,508 436,508 435,507 434,507 432,505 431,505 430,504 429,504 427,502 426,502 424,500 424,498 426,496 426,495" stroke="#000" stroke-width="5" /><polygon fill="#000" fill-opacity="0.4" points="396,487 397,486 399,486 400,487 400,488 401,489 401,490 403,492 403,493 404,494 404,496 402,498 401,498 400,499 399,499 398,500 396,500 395,501 392,501 391,502 388,502 387,503 378,503 376,501 376,498 381,493 382,493 383,492 384,492 385,491 386,491 387,490 389,490 390,489 391,489 392,488 393,488 394,487" stroke="#000" stroke-width="5" /><polygon fill="#000" fill-opacity="0.4" points="411,483 412,482 416,482 417,483 418,483 422,487 422,492 421,493 421,494 420,495 419,495 418,496 417,496 416,497 412,497 411,496 410,496 406,492 406,487 410,483" stroke="#000" stroke-width="5" /><polygon fill="#000" fill-opacity="0.4" points="294,476 295,475 297,475 298,476 304,476 306,478 306,536 305,537 303,537 302,536 298,536 297,535 294,535 293,534 293,533 292,532 292,516 293,515 293,512 292,511 293,510 293,478 294,477" stroke="#000" stroke-width="5" /><polygon fill="#000" fill-opacity="0.4" points="278,460 279,459 282,459 283,460 283,461 284,462 284,463 286,465 286,466 287,467 287,468 288,469 288,471 287,472 286,472 285,473 284,473 282,475 281,475 280,476 279,476 278,477 277,477 276,478 275,478 274,479 272,479 271,480 270,480 269,481 267,481 266,482 265,482 264,483 262,483 261,484 260,484 259,485 257,485 256,486 252,486 251,487 239,487 238,486 240,484 240,483 243,480 244,480 247,477 248,477 250,475 251,475 253,473 254,473 256,471 257,471 258,470 259,470 261,468 262,468 263,467 264,467 266,465 267,465 268,464 269,464 270,463 271,463 272,462 273,462 274,461 276,461 277,460" stroke="#000" stroke-width="5" /><polygon fill="#000" fill-opacity="0.4" points="295,452 296,451 302,451 303,452 304,452 305,453 305,454 306,455 306,462 305,463 305,464 304,465 303,465 301,467 296,467 295,466 294,466 291,463 291,462 290,461 290,456 291,455 291,454 293,452" stroke="#000" stroke-width="5" /><polygon fill="#000" fill-opacity="0.4" points="570,427 571,426 575,426 576,427 578,427 580,429 580,436 579,437 578,437 577,438 572,438 571,437 568,437 567,436 566,436 565,435 565,428 566,427" stroke="#000" stroke-width="5" /><polygon fill="#000" fill-opacity="0.4" points="414,423 415,422 417,422 420,425 420,428 421,429 421,475 420,476 420,477 419,478 412,478 411,477 409,477 408,476 408,474 407,473 407,460 408,459 408,437 409,436 409,427 413,423" stroke="#000" stroke-width="5" /><polygon fill="#000" fill-opacity="0.4" points="645,419 646,418 649,418 663,432 663,433 679,449 679,450 699,470 700,470 702,472 705,472 706,471 707,471 708,470 709,470 711,468 712,468 713,467 714,467 716,465 717,465 720,462 721,462 723,460 729,466 729,467 741,479 741,480 752,491 752,492 756,496 756,497 759,500 759,501 761,503 761,504 762,505 762,506 764,508 764,509 765,510 765,512 766,513 766,518 767,519 767,522 768,523 768,524 772,528 775,528 776,529 782,529 783,530 783,558 781,560 780,560 779,559 768,559 767,560 752,560 751,559 572,559 571,560 569,560 568,561 567,561 560,568 560,569 557,572 557,573 554,576 554,577 552,579 552,580 551,581 551,582 550,583 550,584 549,585 549,586 548,587 548,588 546,590 546,591 545,592 545,593 543,595 543,596 541,598 541,599 539,601 539,602 537,604 537,605 536,606 536,607 534,609 534,611 533,612 533,614 531,616 530,615 530,614 529,613 529,594 528,593 528,549 527,548 527,538 528,537 529,537 539,527 540,527 542,525 543,525 551,517 551,516 555,512 555,511 557,509 557,505 558,504 558,501 559,500 559,494 557,494 540,511 540,512 529,523 528,522 528,521 527,520 527,518 526,517 526,515 525,514 525,510 526,509 526,508 528,506 529,506 539,496 539,495 553,481 554,481 554,480 561,473 562,474 563,474 565,476 566,476 570,480 571,480 575,484 576,484 579,487 581,487 586,482 586,481 595,472 595,471 612,454 612,453 631,434 631,433 643,421 644,421 645,420" stroke="#000" stroke-width="5" /><polygon fill="#000" fill-opacity="0.4" points="221,411 222,410 223,410 224,411 224,414 223,415 223,442 222,443 222,461 221,462 221,490 222,491 222,504 223,505 223,511 222,512 222,518 221,519 220,519 218,517 217,517 212,512 211,512 209,510 208,510 206,508 205,508 204,507 203,507 201,505 200,505 198,503 197,503 196,502 195,502 192,499 191,499 188,496 187,496 186,495 185,495 182,492 181,492 179,490 178,490 176,488 175,488 173,486 172,486 170,484 169,484 167,482 166,482 163,479 162,479 159,476 158,476 156,474 155,474 152,471 151,471 149,469 148,469 145,466 146,465 147,465 149,463 150,463 151,462 152,462 153,461 154,461 156,459 157,459 159,457 160,457 162,455 163,455 165,453 166,453 168,451 169,451 172,448 173,448 176,445 177,445 180,442 181,442 184,439 185,439 188,436 189,436 192,433 193,433 198,428 199,428 202,425 203,425 207,421 208,421 210,419 211,419 218,412 219,412 220,411" stroke="#000" stroke-width="5" /><polygon fill="#000" fill-opacity="0.4" points="765,410 766,409 767,409 769,411 770,411 773,414 774,414 776,416 777,416 779,418 780,418 782,420 783,420 785,422 786,422 788,424 789,424 791,426 792,426 794,428 795,428 797,430 798,430 800,432 801,432 804,435 805,435 807,437 808,437 810,439 811,439 815,443 816,443 818,445 819,445 823,449 824,449 826,451 827,451 829,453 830,453 832,455 833,455 835,457 836,457 837,458 838,458 840,460 841,460 842,461 843,461 845,463 846,463 850,467 847,470 846,470 843,473 842,473 840,475 839,475 837,477 836,477 835,478 834,478 832,480 831,480 830,481 829,481 827,483 826,483 824,485 823,485 820,488 819,488 815,492 814,492 810,496 809,496 806,499 805,499 802,502 801,502 799,504 798,504 796,506 795,506 793,508 792,508 791,509 790,509 788,511 787,511 785,513 784,513 782,515 781,515 779,517 778,517 777,518 776,518 775,517 775,516 774,515 774,508 773,507 773,502 772,501 772,497 771,496 771,489 770,488 770,482 769,481 769,475 768,474 768,466 767,465 767,448 766,447 766,416 765,415" stroke="#000" stroke-width="5" /><polygon fill="#000" fill-opacity="0.4" points="773,390 774,389 775,389 776,390 777,390 782,395 782,398 780,400 779,400 778,399 775,399 774,398 772,398 771,397 770,397 769,396 766,396 765,395 766,394 771,394 773,392" stroke="#000" stroke-width="5" /><polygon fill="#000" fill-opacity="0.4" points="296,389 297,388 298,389 300,389 305,394 305,396 306,397 306,415 307,416 307,442 306,443 306,445 305,446 293,446 291,444 291,443 290,442 290,422 291,421 291,408 292,407 292,398 293,397 293,394 294,393 294,392 296,390" stroke="#000" stroke-width="5" /><polygon fill="#000" fill-opacity="0.4" points="412,380 413,379 422,379 423,380 424,380 425,381 426,381 430,385 431,385 433,387 434,387 436,389 437,389 439,391 440,391 442,393 443,393 444,394 445,394 446,395 447,395 449,397 450,397 452,399 452,401 449,404 448,404 447,405 438,405 437,404 434,404 433,403 430,403 429,402 427,402 426,401 425,401 424,400 423,400 422,399 421,399 420,398 419,398 418,397 417,397 416,396 415,396 413,394 412,394 411,393 410,393 409,392 408,392 406,390 405,390 404,389 402,389 401,388 402,387 403,387 403,386 406,383 407,383 409,381 410,381 411,380" stroke="#000" stroke-width="5" /><polygon fill="#000" fill-opacity="0.4" points="317,345 318,344 325,344 326,345 326,347 327,348 327,352 328,353 328,355 329,356 329,359 330,360 330,361 331,362 331,364 332,365 331,366 330,366 329,367 327,367 326,368 325,368 324,369 322,369 321,370 318,370 317,371 314,371 313,372 310,372 309,373 304,373 303,374 300,374 299,375 295,375 294,376 290,376 289,377 284,377 283,378 280,378 279,379 275,379 274,380 271,380 270,381 266,381 265,382 257,382 256,381 255,381 254,380 254,378 255,377 255,376 259,372 260,372 262,370 263,370 264,369 265,369 267,367 268,367 269,366 270,366 271,365 272,365 273,364 274,364 275,363 276,363 277,362 278,362 279,361 280,361 281,360 282,360 283,359 284,359 285,358 286,358 287,357 288,357 289,356 290,356 291,355 293,355 294,354 295,354 296,353 297,353 298,352 299,352 300,351 302,351 303,350 304,350 305,349 306,349 307,348 308,348 309,347 311,347 312,346 314,346 315,345" stroke="#000" stroke-width="5" /><polygon fill="#000" fill-opacity="0.4" points="488,337 489,337 490,338 500,338 501,337 506,337 507,338 507,342 508,343 508,371 509,372 509,398 510,399 510,422 511,423 511,448 512,449 512,488 513,489 513,528 514,529 513,530 513,536 514,537 514,581 515,582 515,643 510,648 510,649 508,651 508,652 507,653 507,654 505,656 505,657 503,659 503,660 502,661 502,662 500,664 500,665 498,667 498,668 497,669 497,670 495,672 495,673 494,674 494,675 493,676 493,677 491,679 491,680 489,682 489,683 487,685 487,686 486,687 486,688 485,689 485,690 483,692 483,693 481,695 481,696 480,697 480,698 478,700 478,701 477,702 477,703 476,704 476,705 474,707 474,708 472,710 472,711 471,712 471,713 469,715 469,716 468,717 468,718 466,720 466,721 464,723 464,724 463,725 463,726 462,727 462,728 460,730 460,731 458,733 458,734 457,735 457,736 455,738 455,739 454,740 454,741 453,742 453,743 452,744 452,745 451,746 451,747 450,748 450,752 451,753 451,754 454,757 481,757 482,758 488,758 489,757 499,757 500,758 527,758 528,757 561,757 562,758 581,758 582,757 595,757 596,758 615,758 616,757 639,757 640,758 723,758 724,757 731,757 733,755 733,754 734,753 734,752 735,751 735,749 736,748 736,746 737,745 737,743 738,742 738,740 739,739 739,737 740,736 740,734 741,733 741,731 742,730 742,728 743,727 743,724 744,723 744,721 745,720 745,717 746,716 746,714 747,713 747,711 748,710 748,708 749,707 749,704 750,703 750,701 751,700 751,698 752,697 752,694 753,693 753,691 754,690 754,688 755,687 755,685 756,684 756,683 757,682 757,680 758,679 758,678 759,677 759,674 760,673 760,671 761,670 761,668 762,667 762,665 763,664 763,662 764,661 764,659 765,658 765,655 766,654 766,652 767,651 767,648 768,647 768,645 769,644 769,642 770,641 770,639 771,638 771,635 772,634 772,632 773,631 773,628 774,627 774,626 775,625 775,623 776,622 776,620 777,619 777,616 778,615 778,614 779,613 779,611 780,610 781,610 782,611 782,626 783,627 783,639 782,640 782,659 783,660 783,667 782,668 782,699 783,700 783,711 782,712 782,727 783,728 783,731 782,732 782,782 783,783 783,790 782,791 778,791 777,790 596,790 595,791 559,791 558,792 553,792 552,791 546,791 545,790 542,790 541,789 540,789 539,788 538,788 536,786 535,786 533,784 532,784 531,783 530,783 529,782 528,782 527,781 524,781 523,780 516,780 515,779 506,779 505,778 497,778 496,777 493,777 494,778 494,781 495,782 495,783 496,783 497,784 498,784 499,785 501,785 502,786 503,786 505,788 506,788 509,791 510,791 512,793 513,793 514,794 515,794 517,796 518,796 519,797 520,797 525,802 525,803 526,804 525,805 524,805 525,805 526,804 527,804 528,805 529,805 530,806 532,806 533,807 535,807 536,808 538,808 539,809 540,809 541,810 542,810 543,811 544,811 545,812 546,812 550,816 550,817 545,822 545,823 542,826 542,827 534,835 534,836 524,846 524,847 520,851 520,852 517,855 517,856 514,859 514,860 510,864 510,865 507,868 507,869 503,873 503,874 499,878 498,878 497,879 496,878 495,878 492,875 492,874 491,873 491,872 489,870 489,869 488,868 488,867 487,866 487,864 486,863 486,859 485,858 485,842 486,841 470,841 464,835 464,834 447,817 447,816 445,814 445,813 444,812 444,811 443,810 443,808 444,807 447,807 448,806 481,806 482,805 491,805 491,801 490,800 490,796 489,795 489,790 488,789 488,782 487,781 487,775 486,774 485,774 485,775 484,776 484,777 482,779 479,779 478,780 475,780 474,781 472,781 471,782 470,782 469,783 468,783 467,784 466,784 465,785 464,785 463,784 463,786 462,787 462,789 461,790 460,789 460,790 459,791 456,791 455,792 449,792 448,791 426,791 425,790 425,687 426,686 426,676 425,675 426,674 429,674 430,673 432,673 434,671 435,671 435,670 436,669 436,665 435,664 435,663 434,662 434,661 433,660 432,660 428,656 427,656 425,654 424,654 422,652 421,652 419,650 418,650 415,647 414,647 412,645 411,645 409,643 408,643 405,640 404,640 402,638 401,638 399,636 398,636 394,632 393,632 391,630 390,630 388,628 387,628 385,626 384,626 383,625 382,625 380,623 379,623 377,621 376,621 375,620 374,620 372,618 371,618 369,616 368,616 365,613 364,613 363,612 362,612 360,610 359,610 358,609 357,609 356,608 356,607 355,606 355,587 354,586 354,585 353,585 352,584 349,584 348,583 338,583 337,584 330,584 329,583 322,583 321,582 320,582 319,581 318,581 317,580 316,580 315,579 314,579 312,577 311,577 310,576 309,576 307,574 306,574 305,573 304,573 303,572 302,572 301,573 300,573 299,574 298,574 296,576 295,576 293,578 292,578 289,581 288,581 285,584 284,584 280,588 279,588 275,592 274,592 272,594 271,594 268,597 267,597 265,599 264,599 261,602 260,602 257,605 256,605 253,608 252,608 250,610 249,610 246,613 245,613 242,616 241,616 239,618 238,618 235,621 234,621 231,624 230,624 227,627 226,627 224,629 223,629 222,630 221,630 219,632 218,632 217,633 216,632 216,608 215,607 215,600 216,599 216,552 215,551 215,540 216,539 216,533 217,532 220,532 221,531 223,531 226,528 226,527 228,525 241,525 242,526 245,526 246,527 250,527 251,528 253,528 254,529 257,529 258,530 260,530 261,531 264,531 265,532 267,532 268,533 269,533 270,534 272,534 273,535 276,535 277,536 279,536 280,537 282,537 283,538 285,538 286,539 288,539 289,540 290,540 291,541 293,541 294,542 297,542 298,543 300,543 301,544 303,544 304,545 307,545 308,546 310,546 311,547 315,547 316,548 318,548 319,549 322,549 323,550 326,550 327,551 330,551 331,552 333,552 334,553 337,553 338,554 342,554 342,552 343,551 343,489 342,488 342,487 341,486 341,485 339,485 338,486 334,486 333,485 330,485 329,484 327,484 326,483 325,483 324,482 322,482 321,481 320,481 319,480 318,480 317,479 316,479 315,478 314,478 309,473 309,472 308,471 309,470 309,469 310,468 310,466 311,465 311,464 312,463 312,462 313,461 313,460 315,458 316,459 317,459 318,460 319,460 320,461 321,461 323,463 324,463 327,466 328,466 335,473 336,473 342,479 343,478 343,467 344,466 344,436 345,435 345,415 344,414 344,411 346,409 349,409 350,408 353,408 354,407 356,407 358,405 359,405 362,402 363,403 363,416 364,417 364,450 365,451 365,485 366,486 366,511 367,512 367,564 369,566 370,566 371,567 373,567 374,568 376,568 377,569 378,569 379,570 380,570 381,571 382,571 383,572 384,572 385,573 386,573 387,574 388,574 389,575 390,575 391,576 392,576 393,577 394,577 395,578 396,578 397,579 398,579 399,580 400,580 401,581 402,581 404,583 405,583 406,584 407,584 408,585 409,585 410,586 411,586 412,587 413,587 415,589 416,589 417,590 418,590 419,591 420,591 421,592 422,592 423,593 424,593 425,594 426,594 427,595 428,595 430,597 431,597 432,598 433,598 434,599 435,599 436,600 437,600 438,601 439,601 440,602 441,602 442,603 443,603 444,604 445,604 446,605 447,605 449,607 450,607 451,608 452,608 453,609 454,609 455,610 456,610 457,611 458,611 459,612 461,612 462,613 463,613 464,614 464,615 465,616 465,638 464,639 464,654 463,655 463,668 464,669 464,670 465,671 476,671 477,670 478,670 479,669 479,668 480,667 480,616 481,615 481,556 482,555 482,514 483,513 482,512 482,510 483,509 483,478 484,477 484,441 485,440 485,439 484,438 484,437 485,436 485,401 486,400 486,368 487,367 487,340 486,339" stroke="#000" stroke-width="5" /><polygon fill="#000" fill-opacity="0.4" points="347,334 348,333 356,333 357,334 358,334 359,335 360,335 361,336 362,336 365,339 365,341 366,342 366,343 365,344 365,354 364,355 364,356 363,357 363,358 360,361 359,361 357,363 356,363 355,364 353,364 352,365 348,365 347,364 344,364 338,358 338,357 337,356 337,354 336,353 336,346 337,345 337,342 338,341 338,340 343,335 344,335 345,334" stroke="#000" stroke-width="5" /><polygon fill="#000" fill-opacity="0.4" points="690,332 691,331 692,331 693,332 695,332 699,336 699,352 700,353 700,357 699,358 699,359 696,362 695,362 694,363 691,363 690,362 689,362 686,359 686,358 685,357 685,336 686,335 686,334 688,332" stroke="#000" stroke-width="5" /><polygon fill="#000" fill-opacity="0.4" points="731,315 732,314 733,314 734,315 735,315 736,316 737,316 743,322 744,322 754,332 754,336 752,338 752,339 748,343 744,343 740,339 739,339 725,325 725,324 724,323 724,322 725,321 725,320 730,315" stroke="#000" stroke-width="5" /><polygon fill="#000" fill-opacity="0.4" points="648,315 649,314 652,314 654,316 655,316 657,318 657,319 659,321 659,322 658,323 658,324 642,340 641,340 639,342 636,342 630,336 630,332 647,315" stroke="#000" stroke-width="5" /><polygon fill="#000" fill-opacity="0.4" points="274,314 275,313 276,313 277,314 279,314 280,315 280,316 281,317 281,330 279,332 271,332 269,330 269,326 268,325 268,319 269,318 269,315 270,314" stroke="#000" stroke-width="5" /><polygon fill="#000" fill-opacity="0.4" points="532,303 533,304 535,304 536,305 538,305 539,306 540,306 541,307 542,307 543,308 544,308 545,309 546,309 547,310 548,310 549,311 550,311 552,313 553,313 554,314 555,314 556,315 557,315 558,316 559,316 561,318 562,318 563,319 564,319 566,321 567,321 568,322 569,322 571,324 572,324 574,326 575,326 577,328 578,328 580,330 581,330 583,332 584,332 586,334 587,334 589,336 590,336 593,339 594,339 596,341 597,341 599,343 600,343 603,346 604,346 606,348 607,348 609,350 610,350 612,352 613,352 615,354 616,354 618,356 619,356 622,359 623,359 626,362 627,362 630,365 631,365 637,371 637,374 636,375 636,376 635,377 634,377 633,378 631,378 630,377 626,377 625,376 622,376 621,375 618,375 617,374 615,374 614,373 612,373 611,372 609,372 608,371 606,371 605,370 603,370 602,369 601,369 600,368 598,368 597,367 596,367 595,366 593,366 592,365 591,365 590,364 588,364 587,363 585,363 584,362 583,362 582,361 580,361 579,360 577,360 576,359 575,359 574,358 572,358 571,357 569,357 568,356 567,356 566,355 565,355 564,354 562,354 561,353 560,353 559,352 558,352 557,351 555,351 554,350 553,350 552,349 551,349 550,348 548,348 547,347 546,347 545,346 544,346 543,345 542,345 541,344 540,344 539,343 538,343 537,342 536,342 535,341 534,341 533,340 532,340 531,339 530,339 529,338 528,338 527,337 526,337 524,335 523,335 522,334 521,334 520,333 519,333 517,331 517,329 523,323 523,322 524,321 524,320 525,319 525,318 527,316 527,314 528,313 528,311 529,310 529,308 530,307 530,305" stroke="#000" stroke-width="5" /><polygon fill="#000" fill-opacity="0.4" points="456,304 457,303 458,303 461,306 461,307 463,309 463,310 464,311 464,312 465,313 465,314 466,315 466,316 467,317 467,318 469,320 469,321 471,323 471,324 475,328 475,329 473,331 472,331 469,334 468,334 466,336 465,336 463,338 462,338 461,339 460,339 458,341 457,341 456,342 455,342 454,343 453,343 452,344 451,344 450,345 449,345 448,346 447,346 446,347 445,347 444,348 443,348 442,349 441,349 440,350 439,350 438,351 437,351 436,352 434,352 433,353 432,353 431,354 430,354 429,355 427,355 426,356 425,356 424,357 422,357 421,358 420,358 419,359 417,359 416,360 414,360 413,361 412,361 411,362 409,362 408,363 407,363 406,364 404,364 403,365 402,365 401,366 399,366 398,367 397,367 396,368 394,368 393,369 392,369 391,370 390,370 389,371 387,371 386,372 385,372 384,373 382,373 381,374 380,374 379,375 378,375 377,376 376,376 375,377 374,377 373,378 372,378 370,380 369,380 367,382 366,382 363,385 362,385 360,387 359,387 358,388 357,388 356,389 355,389 354,390 352,390 351,391 348,391 347,392 346,391 346,388 347,387 347,384 346,383 346,375 348,373 349,374 350,373 351,374 352,373 354,373 356,371 357,371 359,369 360,369 371,358 372,358 376,354 377,354 379,352 380,352 382,350 383,350 384,349 385,349 387,347 388,347 391,344 392,344 394,342 395,342 396,341 397,341 399,339 400,339 402,337 403,337 405,335 406,335 409,332 410,332 412,330 413,330 415,328 416,328 418,326 419,326 421,324 422,324 424,322 425,322 426,321 427,321 429,319 430,319 432,317 433,317 434,316 435,316 437,314 438,314 439,313 440,313 442,311 443,311 444,310 445,310 446,309 447,309 448,308 449,308 450,307 451,307 452,306 453,306 455,304" stroke="#000" stroke-width="5" /><polygon fill="#000" fill-opacity="0.4" points="298,301 299,300 300,301 302,301 313,312 313,314 307,320 304,320 295,311 294,311 293,310 293,309 292,308 293,307 293,306 295,304 295,303 297,301" stroke="#000" stroke-width="5" /><polygon fill="#000" fill-opacity="0.4" points="247,299 248,299 249,300 250,300 253,303 253,304 254,305 254,306 255,307 255,309 243,321 242,321 240,319 239,319 235,315 235,314 234,313 234,312 236,310 236,309 243,302 244,302" stroke="#000" stroke-width="5" /><polygon fill="#000" fill-opacity="0.4" points="493,281 494,280 500,280 501,281 503,281 504,282 506,282 508,284 509,284 515,290 515,291 516,292 516,294 517,295 517,299 518,300 518,305 517,306 517,310 516,311 516,312 514,314 514,315 508,321 507,321 506,322 505,322 504,323 502,323 501,324 490,324 489,323 488,323 487,322 486,322 485,321 484,321 480,317 480,316 479,315 479,314 478,313 478,311 477,310 477,307 476,306 476,298 477,297 477,295 478,294 478,293 479,292 479,291 487,283 488,283 489,282 490,282 491,281" stroke="#000" stroke-width="5" /><polygon fill="#000" fill-opacity="0.4" points="614,276 636,276 637,277 638,277 641,280 641,282 642,283 641,284 641,286 640,287 640,288 637,291 618,291 617,290 613,290 611,288 611,287 609,285 609,282 610,281 610,280" stroke="#000" stroke-width="5" /><polygon fill="#000" fill-opacity="0.4" points="225,276 242,276 243,277 243,278 244,279 244,285 242,287 240,287 239,288 225,288 223,286 223,278" stroke="#000" stroke-width="5" /><polygon fill="#000" fill-opacity="0.4" points="760,276 761,275 767,275 768,276 769,276 772,279 772,280 773,281 773,285 772,286 772,287 771,288 771,289 769,291 744,291 742,289 742,288 741,287 741,280 745,276" stroke="#000" stroke-width="5" /><polygon fill="#000" fill-opacity="0.4" points="315,276 316,275 320,275 321,276 323,276 324,277 324,278 325,279 325,283 324,284 324,286 322,288 307,288 304,285 304,278 306,276" stroke="#000" stroke-width="5" /><polygon fill="#000" fill-opacity="0.4" points="683,246 684,245 697,245 698,246 701,246 702,247 703,247 704,248 705,248 706,249 707,249 708,250 709,250 711,252 712,252 719,259 719,260 721,262 721,263 723,265 723,266 724,267 724,269 725,270 725,273 726,274 726,290 725,291 725,293 724,294 724,296 723,297 723,298 722,299 722,300 721,301 721,302 711,312 710,312 709,313 708,313 707,314 706,314 705,315 703,315 702,316 700,316 699,317 697,317 696,318 684,318 683,317 681,317 680,316 678,316 677,315 676,315 675,314 674,314 673,313 672,313 671,312 670,312 663,305 663,304 661,302 661,301 660,300 660,299 659,298 659,297 658,296 658,294 657,293 657,291 656,290 656,286 655,285 655,276 656,275 656,271 657,270 657,268 658,267 658,266 659,265 659,264 660,263 660,262 663,259 663,258 667,254 668,254 671,251 672,251 673,250 674,250 675,249 676,249 677,248 678,248 679,247 680,247 681,246" stroke="#000" stroke-width="5" /><polygon fill="#000" fill-opacity="0.4" points="240,245 241,244 244,244 245,245 246,245 250,249 250,250 253,253 253,254 255,256 255,259 250,264 249,264 248,265 247,264 246,264 235,253 235,250 237,248 237,247 239,245" stroke="#000" stroke-width="5" /><polygon fill="#000" fill-opacity="0.4" points="349,243 350,242 355,242 356,243 359,243 362,246 362,247 363,248 363,256 364,257 364,283 365,284 365,302 366,303 366,307 365,308 365,318 364,319 364,320 362,322 362,323 359,326 358,326 357,327 355,327 353,325 352,325 351,324 350,324 349,323 348,323 347,322 346,322 344,320 344,317 343,316 343,306 342,305 342,294 343,293 343,279 344,278 344,270 345,269 345,260 346,259 346,252 347,251 347,247 348,246 348,245 349,244" stroke="#000" stroke-width="5" /><polygon fill="#000" fill-opacity="0.4" points="305,242 307,242 309,244 310,244 314,248 314,249 315,250 315,251 306,260 305,260 302,263 300,263 299,264 298,263 297,263 296,262 295,262 292,259 292,256 295,253 295,252" stroke="#000" stroke-width="5" /><polygon fill="#000" fill-opacity="0.4" points="273,230 274,229 276,229 277,230 278,230 280,232 280,233 281,234 281,238 280,239 280,250 279,251 277,251 276,252 271,252 268,249 268,240 267,239 267,234 268,233 268,232 270,230" stroke="#000" stroke-width="5" /><polygon fill="#000" fill-opacity="0.4" points="637,228 639,228 647,236 648,236 655,243 655,244 656,245 656,248 655,249 655,250 650,255 647,255 645,253 644,253 639,248 638,248 631,241 631,240 629,238 629,236 630,235 630,234 633,231 634,231" stroke="#000" stroke-width="5" /><polygon fill="#000" fill-opacity="0.4" points="745,227 748,227 755,234 755,237 738,254 737,254 735,256 733,256 731,254 730,254 728,252 728,251 727,250 727,249 726,248 726,245 736,235 737,235" stroke="#000" stroke-width="5" /><polygon fill="#000" fill-opacity="0.4" points="685,219 686,218 697,218 699,220 699,223 700,224 699,225 699,229 696,232 695,232 694,233 690,233 689,232 688,232 685,229 685,228 684,227 684,223 685,222" stroke="#000" stroke-width="5" /><polygon fill="#000" fill-opacity="0.4" points="583,180 584,179 824,179 825,180 826,180 828,182 828,184 829,185 829,186 828,187 828,431 827,432 826,432 820,426 819,426 815,422 814,422 808,416 807,416 801,410 800,410 797,407 796,407 795,406 795,397 796,396 796,388 795,387 795,217 796,216 796,214 795,213 795,212 794,212 793,211 555,211 554,210 554,209 551,206 551,205 542,196 541,196 533,188 532,188 528,184 528,183 527,182 527,181 528,180" stroke="#000" stroke-width="5" /><polygon fill="#000" fill-opacity="0.4" points="255,180 256,179 447,179 448,180 462,180 463,179 464,180 465,180 466,181 466,182 462,186 461,186 460,187 460,188 444,204 444,205 442,207 442,208 441,209 441,210 440,211 206,211 205,212 203,212 202,213 202,405 201,406 199,406 196,409 195,409 193,411 192,411 186,417 185,417 180,422 179,422 172,429 171,429 170,428 170,376 169,375 169,185 170,184 170,183 173,180" stroke="#000" stroke-width="5" /><polygon fill="#000" fill-opacity="0.4" points="498,151 500,151 501,152 502,152 504,154 504,155 506,157 506,158 507,159 507,161 508,162 508,168 509,169 509,184 510,185 510,199 511,200 511,219 512,220 512,257 511,258 511,259 509,261 509,262 508,263 508,264 507,265 507,266 506,267 506,269 505,270 488,270 486,268 486,265 485,264 485,263 484,262 484,261 483,260 483,259 482,258 482,250 483,249 483,227 484,226 484,209 485,208 485,190 486,189 486,177 487,176 487,169 488,168 488,166 489,165 489,163 490,162 490,161 491,160 491,159 493,157 493,156" stroke="#000" stroke-width="5" /></svg>