<?xml version="1.0" encoding="utf-8" ?>
<svg baseProfile="tiny" height="1024" version="1.2" width="1024" xmlns="http://www.w3.org/2000/svg" xmlns:ev="http://www.w3.org/2001/xml-events" xmlns:xlink="http://www.w3.org/1999/xlink"><defs /><rect fill="#000" height="1024" width="1024" x="0" y="0" /><polygon fill="#fff" fill-opacity="0.4" points="671,691 670,692 670,694 669,695 669,696 668,697 668,698 667,699 667,701 666,702 666,704 665,705 665,706 664,707 664,709 663,710 663,712 662,713 662,715 661,716 661,717 660,718 660,720 659,721 659,722 658,723 658,725 657,726 657,727 656,728 656,730 655,731 655,732 654,733 654,735 653,736 653,737 652,738 652,741 719,741 720,740 720,738 721,737 721,735 722,734 722,732 723,731 723,729 724,728 724,726 725,725 725,723 726,722 726,720 727,719 727,717 728,716 728,714 729,713 729,711 730,710 730,708 731,707 731,705 732,704 732,702 733,701 733,699 734,698 734,697 735,696 735,694 736,693 736,692 735,691 732,691 731,692 673,692 672,691" stroke="#fff" stroke-width="5" /><polygon fill="#fff" fill-opacity="0.4" points="588,691 587,692 587,693 585,695 585,696 584,697 584,699 583,700 583,701 582,702 582,703 581,704 581,705 580,706 580,707 579,708 579,709 578,710 578,711 577,712 577,713 576,714 576,715 575,716 575,717 574,718 574,719 573,720 573,722 572,723 572,724 571,725 571,726 570,727 570,728 569,729 569,730 568,731 568,732 567,733 567,734 566,735 566,736 565,737 565,738 564,739 564,740 563,741 631,741 631,740 632,739 632,738 633,737 633,736 634,735 634,733 635,732 635,731 636,730 636,729 637,728 637,726 638,725 638,724 639,723 639,721 640,720 640,719 641,718 641,716 642,715 642,714 643,713 643,712 644,711 644,709 645,708 645,707 646,706 646,704 647,703 647,702 648,701 648,699 649,698 649,697 650,696 650,695 651,694 651,691 645,691 644,692 592,692 591,691" stroke="#fff" stroke-width="5" /><polygon fill="#fff" fill-opacity="0.4" points="505,691 504,692 504,693 502,695 502,696 501,697 501,698 499,700 499,701 498,702 498,703 496,705 496,706 495,707 495,708 494,709 494,710 493,711 493,712 491,714 491,715 490,716 490,717 488,719 488,720 487,721 487,722 485,724 485,725 484,726 484,727 481,730 481,731 479,733 479,734 477,736 477,737 476,738 476,740 539,740 540,741 543,741 543,740 544,739 544,738 546,736 546,735 547,734 547,733 548,732 548,730 549,729 549,728 550,727 550,726 551,725 551,724 552,723 552,722 554,720 554,719 555,718 555,717 556,716 556,715 558,713 558,712 559,711 559,710 560,709 560,707 561,706 561,705 562,704 562,703 563,702 563,701 564,700 564,699 566,697 566,696 567,695 567,694 568,693 568,692 567,691 561,691 560,692 542,692 541,691 532,691 531,692 512,692 511,691" stroke="#fff" stroke-width="5" /><polygon fill="#fff" fill-opacity="0.4" points="696,630 695,631 695,632 694,633 694,634 693,635 693,637 692,638 692,639 691,640 691,641 690,642 690,644 689,645 689,646 688,647 688,649 687,650 687,652 686,653 686,654 685,655 685,657 684,658 684,659 683,660 683,661 682,662 682,663 681,664 681,665 680,666 680,668 679,669 679,670 678,671 678,672 677,673 677,675 738,675 739,676 740,676 741,675 741,673 742,672 742,670 743,669 743,667 744,666 744,664 745,663 745,661 746,660 746,658 747,657 747,655 748,654 748,652 749,651 749,649 750,648 750,646 751,645 751,644 752,643 752,641 753,640 753,638 754,637 754,636 755,635 755,632 756,631 755,630 749,630 748,631 699,631 698,630" stroke="#fff" stroke-width="5" /><polygon fill="#fff" fill-opacity="0.4" points="618,630 616,632 616,634 615,635 615,636 614,637 614,638 612,640 612,641 611,642 611,643 610,644 610,645 609,646 609,647 608,648 608,650 607,651 607,652 606,653 606,654 605,655 605,656 603,658 603,659 602,660 602,661 601,662 601,663 600,664 600,665 599,666 599,667 598,668 598,669 596,671 596,672 595,673 595,674 594,675 596,675 597,676 603,676 604,675 656,675 657,676 658,675 658,674 659,673 659,672 660,671 660,669 661,668 661,666 662,665 662,664 663,663 663,662 664,661 664,659 665,658 665,657 666,656 666,655 667,654 667,653 668,652 668,651 669,650 669,649 670,648 670,646 671,645 671,644 672,643 672,641 673,640 673,639 674,638 674,637 675,636 675,634 676,633 676,631 626,631 625,630" stroke="#fff" stroke-width="5" /><polygon fill="#fff" fill-opacity="0.4" points="541,629 540,630 540,631 539,632 539,633 537,635 537,636 536,637 536,638 534,640 534,641 532,643 532,644 530,646 530,647 529,648 529,649 528,650 528,651 526,653 526,654 525,655 525,656 524,657 524,658 522,660 522,661 521,662 521,663 519,665 519,666 518,667 518,668 515,671 515,672 513,674 513,675 514,676 522,676 523,675 574,675 575,676 576,675 576,674 577,673 577,672 578,671 578,670 579,669 579,668 580,667 580,665 581,664 581,663 582,662 582,661 583,660 583,659 585,657 585,656 586,655 586,654 587,653 587,652 588,651 588,650 589,649 589,648 590,647 590,646 591,645 591,644 592,643 592,642 593,641 593,640 594,639 594,638 595,637 595,636 596,635 596,634 597,633 597,632 598,631 598,630 594,630 593,631 560,631 559,630 542,630" stroke="#fff" stroke-width="5" /><polygon fill="#fff" fill-opacity="0.4" points="301,591 296,596 295,596 290,601 289,601 285,605 284,605 282,607 281,607 278,610 277,610 274,613 273,613 271,615 270,615 268,617 267,617 265,619 264,619 262,621 261,621 258,624 257,624 254,627 253,627 250,630 249,630 247,632 246,632 243,635 242,635 240,637 239,637 236,640 235,640 232,643 231,643 227,647 226,647 222,651 221,651 214,658 216,660 216,661 217,662 217,665 218,666 218,671 217,672 217,777 216,778 216,789 217,790 230,790 231,789 265,789 265,769 264,768 264,704 265,703 265,694 266,693 266,688 267,687 267,685 268,684 275,684 277,686 277,688 278,689 278,760 279,761 279,789 316,789 317,790 317,789 318,788 318,782 317,781 317,708 318,707 318,694 319,693 319,683 320,682 321,682 322,681 323,681 277,681 276,680 270,680 267,677 267,675 266,674 266,671 267,670 267,669 271,665 272,665 273,664 274,664 275,663 326,663 331,668 331,669 333,671 333,674 334,675 334,676 333,677 333,680 332,681 332,682 333,683 333,703 332,704 332,774 333,775 333,789 377,789 377,762 378,761 378,729 377,728 377,716 378,715 378,688 377,687 377,671 378,670 378,662 379,661 379,659 381,657 382,657 383,656 384,657 387,657 391,661 391,663 392,664 392,670 393,671 393,692 394,693 394,714 393,715 393,789 410,789 410,709 409,708 409,704 410,703 410,673 411,672 411,671 414,668 410,664 409,664 408,663 407,663 405,661 404,661 402,659 401,659 399,657 398,657 395,654 394,654 392,652 391,652 388,649 387,649 384,646 383,646 380,643 379,643 377,641 376,641 373,638 372,638 370,636 369,636 366,633 365,633 363,631 362,631 360,629 359,629 357,627 356,627 354,625 353,625 351,623 350,623 347,620 346,620 344,618 343,618 341,616 340,616 338,614 337,614 335,612 334,612 332,610 331,610 329,608 328,608 326,606 325,606 323,604 322,604 320,602 319,602 317,600 316,600 314,598 313,598 311,596 310,596 308,594 307,594 304,591" stroke="#fff" stroke-width="5" /><polygon fill="#fff" fill-opacity="0.4" points="718,575 717,576 717,577 716,578 716,580 715,581 715,582 714,583 714,584 713,585 713,587 712,588 712,589 711,590 711,592 710,593 710,594 709,595 709,597 708,598 708,599 707,600 707,601 706,602 706,604 705,605 705,606 704,607 704,608 703,609 703,611 702,612 702,613 701,614 702,615 761,615 761,614 762,613 762,611 763,610 763,609 764,608 764,606 765,605 765,603 766,602 766,600 767,599 767,597 768,596 768,595 769,594 769,593 770,592 770,590 771,589 771,588 772,587 772,586 773,585 773,583 774,582 774,581 775,580 775,578 776,577 776,576 777,575 748,575 747,576 744,576 743,575" stroke="#fff" stroke-width="5" /><polygon fill="#fff" fill-opacity="0.4" points="645,575 644,576 644,577 643,578 643,579 642,580 642,581 641,582 641,583 640,584 640,586 638,588 638,590 636,592 636,593 635,594 635,595 634,596 634,597 633,598 633,599 632,600 632,601 631,602 631,603 630,604 630,605 629,606 629,607 628,608 628,609 627,610 627,611 626,612 626,613 625,614 625,615 643,615 644,614 651,614 652,615 683,615 684,614 684,612 685,611 685,610 686,609 686,607 687,606 687,604 688,603 688,602 689,601 689,600 690,599 690,597 691,596 691,595 692,594 692,593 693,592 693,590 694,589 694,588 695,587 695,586 696,585 696,583 697,582 697,581 698,580 698,579 699,578 699,577 700,576 699,575 696,575 695,576 669,576 668,575" stroke="#fff" stroke-width="5" /><polygon fill="#fff" fill-opacity="0.4" points="574,575 573,576 573,577 572,578 572,579 571,580 571,581 570,582 570,583 568,585 568,586 567,587 567,588 566,589 566,590 564,592 564,593 562,595 562,596 560,598 560,599 558,601 558,602 557,603 557,604 555,606 555,607 552,610 552,611 551,612 551,613 550,614 554,614 555,615 556,614 563,614 564,615 583,615 584,614 602,614 603,615 606,615 607,614 607,613 608,612 608,610 609,609 609,608 610,607 610,606 611,605 611,604 612,603 612,602 613,601 613,600 614,599 614,598 615,597 615,596 616,595 616,594 618,592 618,591 619,590 619,589 620,588 620,587 621,586 621,585 622,584 622,583 623,582 623,581 624,580 624,579 625,578 625,577 626,576 626,575" stroke="#fff" stroke-width="5" /><polygon fill="#fff" fill-opacity="0.4" points="467,548 464,551 463,551 460,554 459,554 457,556 456,556 453,559 452,559 449,562 448,562 444,566 443,566 440,569 439,569 436,572 435,572 434,573 433,573 432,574 431,574 429,576 428,576 427,577 426,577 425,578 425,579 426,580 426,581 432,587 433,587 435,589 436,589 438,591 439,591 441,593 442,593 443,594 444,594 446,596 447,596 449,598 450,598 454,602 455,602 462,609 462,610 463,610 463,607 464,606 464,588 465,587 465,567 466,566 466,556 467,555" stroke="#fff" stroke-width="5" /><polygon fill="#fff" fill-opacity="0.4" points="171,505 171,510 170,511 170,831 171,832 171,833 172,833 173,834 383,834 384,835 387,835 388,834 417,834 418,835 448,835 448,834 447,833 447,832 434,819 433,819 432,818 432,817 431,816 431,815 432,814 432,812 434,810 434,809 435,808 436,808 436,807 415,807 414,806 248,806 247,807 210,807 209,806 202,806 201,805 201,624 200,623 200,596 201,595 201,583 200,582 200,564 201,563 201,532 202,531 202,528 201,528 200,527 199,527 197,525 196,525 194,523 193,523 189,519 188,519 181,512 180,512 174,506 173,506 172,505" stroke="#fff" stroke-width="5" /><polygon fill="#fff" fill-opacity="0.4" points="409,504 409,528 408,529 408,573 409,574 409,576 410,576 411,577 413,577 414,578 415,578 416,579 418,579 419,578 419,553 418,552 419,551 418,550 418,505 417,504" stroke="#fff" stroke-width="5" /><polygon fill="#fff" fill-opacity="0.4" points="826,503 821,508 820,508 814,514 813,514 810,517 809,517 806,520 805,520 802,523 801,523 800,524 799,524 797,526 797,561 796,562 796,579 797,580 797,614 796,615 796,621 797,622 797,631 796,632 796,675 797,676 797,799 796,800 796,805 795,806 752,806 751,807 716,807 715,806 614,806 613,807 570,807 569,806 560,806 561,806 562,807 563,807 566,810 567,810 570,813 570,815 568,817 568,818 561,825 560,825 557,828 557,829 553,833 553,834 556,834 557,835 591,835 592,834 611,834 612,835 735,835 736,834 825,834 827,832 827,504" stroke="#fff" stroke-width="5" /><polygon fill="#fff" fill-opacity="0.4" points="429,493 427,495 427,496 425,498 425,500 426,501 427,501 429,503 430,503 431,504 432,504 434,506 435,506 436,507 438,507 439,508 440,508 441,509 443,509 444,510 446,510 447,511 449,511 450,512 457,512 457,511 449,503 448,503 445,500 444,500 442,498 441,498 440,497 439,497 438,496 437,496 436,495 435,495 434,494 432,494 431,493" stroke="#fff" stroke-width="5" /><polygon fill="#fff" fill-opacity="0.4" points="397,487 396,488 394,488 393,489 392,489 391,490 390,490 389,491 387,491 386,492 385,492 384,493 383,493 382,494 381,494 377,498 377,501 378,502 387,502 388,501 391,501 392,500 395,500 396,499 398,499 399,498 400,498 401,497 402,497 403,496 403,494 402,493 402,492 400,490 400,489 399,488 399,487" stroke="#fff" stroke-width="5" /><polygon fill="#fff" fill-opacity="0.4" points="412,483 411,484 410,484 407,487 407,492 410,495 411,495 412,496 416,496 417,495 418,495 419,494 420,494 420,493 421,492 421,487 418,484 417,484 416,483" stroke="#fff" stroke-width="5" /><polygon fill="#fff" fill-opacity="0.4" points="295,476 295,477 294,478 294,510 293,511 294,512 294,515 293,516 293,532 294,533 294,534 297,534 298,535 302,535 303,536 305,536 305,478 304,477 298,477 297,476" stroke="#fff" stroke-width="5" /><polygon fill="#fff" fill-opacity="0.4" points="279,460 278,461 277,461 276,462 274,462 273,463 272,463 271,464 270,464 269,465 268,465 267,466 266,466 264,468 263,468 262,469 261,469 259,471 258,471 257,472 256,472 254,474 253,474 251,476 250,476 248,478 247,478 244,481 243,481 241,483 241,484 239,486 251,486 252,485 256,485 257,484 259,484 260,483 261,483 262,482 264,482 265,481 266,481 267,480 269,480 270,479 271,479 272,478 274,478 275,477 276,477 277,476 278,476 279,475 280,475 281,474 282,474 284,472 285,472 286,471 287,471 287,469 286,468 286,467 285,466 285,465 283,463 283,462 282,461 282,460" stroke="#fff" stroke-width="5" /><polygon fill="#fff" fill-opacity="0.4" points="296,452 295,453 293,453 292,454 292,455 291,456 291,461 292,462 292,463 294,465 295,465 296,466 301,466 303,464 304,464 304,463 305,462 305,455 304,454 304,453 303,453 302,452" stroke="#fff" stroke-width="5" /><polygon fill="#fff" fill-opacity="0.4" points="571,427 570,428 566,428 566,435 567,435 568,436 571,436 572,437 577,437 578,436 579,436 579,429 578,428 576,428 575,427" stroke="#fff" stroke-width="5" /><polygon fill="#fff" fill-opacity="0.4" points="415,423 414,424 413,424 410,427 410,436 409,437 409,459 408,460 408,473 409,474 409,476 411,476 412,477 419,477 419,476 420,475 420,429 419,428 419,425 417,423" stroke="#fff" stroke-width="5" /><polygon fill="#fff" fill-opacity="0.4" points="646,419 646,420 644,422 643,422 632,433 632,434 613,453 613,454 596,471 596,472 587,481 587,482 581,488 579,488 576,485 575,485 571,481 570,481 566,477 565,477 563,475 562,475 561,474 555,480 555,481 554,482 553,482 540,495 540,496 529,507 528,507 527,508 527,509 526,510 526,514 527,515 527,517 528,518 528,520 529,521 529,522 539,512 539,511 557,493 559,493 560,494 560,500 559,501 559,504 558,505 558,509 556,511 556,512 552,516 552,517 543,526 542,526 540,528 539,528 529,538 528,538 528,548 529,549 529,593 530,594 530,613 531,614 531,615 532,614 532,612 533,611 533,609 535,607 535,606 536,605 536,604 538,602 538,601 540,599 540,598 542,596 542,595 544,593 544,592 545,591 545,590 547,588 547,587 548,586 548,585 549,584 549,583 550,582 550,581 551,580 551,579 553,577 553,576 556,573 556,572 559,569 559,568 567,560 568,560 569,559 571,559 572,558 751,558 752,559 767,559 768,558 779,558 780,559 781,559 782,558 782,530 776,530 775,529 772,529 767,524 767,523 766,522 766,519 765,518 765,513 764,512 764,510 763,509 763,508 761,506 761,505 760,504 760,503 758,501 758,500 755,497 755,496 751,492 751,491 740,480 740,479 728,467 728,466 723,461 721,463 720,463 717,466 716,466 714,468 713,468 712,469 711,469 709,471 708,471 707,472 706,472 705,473 702,473 700,471 699,471 678,450 678,449 662,433 662,432 649,419" stroke="#fff" stroke-width="5" /><polygon fill="#fff" fill-opacity="0.4" points="718,480 719,479 722,479 723,480 723,481 724,482 724,487 723,488 723,490 720,493 719,493 718,494 717,494 716,495 715,495 714,496 713,496 712,497 711,497 710,498 708,498 707,499 702,499 701,498 701,494 711,484 712,484 715,481 716,481 717,480" stroke="#fff" stroke-width="5" /><polygon fill="#fff" fill-opacity="0.4" points="644,440 645,439 647,439 648,440 648,444 647,445 647,448 646,449 646,452 645,453 645,455 644,456 644,459 643,460 643,462 642,463 642,464 641,465 641,467 640,468 640,469 639,470 639,471 638,472 638,474 637,475 637,476 636,477 636,478 635,479 635,480 634,481 634,483 633,484 633,485 632,486 632,487 631,488 631,489 630,490 630,491 629,492 629,493 628,494 628,495 626,497 626,498 624,500 624,501 621,504 621,505 616,510 615,510 598,527 597,527 592,532 591,532 587,536 586,536 584,538 583,538 581,540 580,540 579,541 578,541 577,542 574,542 572,540 572,538 573,537 573,536 575,534 575,533 584,524 584,523 593,514 594,514 601,507 602,507 602,506 605,503 605,502 606,501 606,499 603,499 602,500 600,500 598,502 596,502 595,503 594,503 593,504 592,504 591,505 588,505 587,504 587,502 588,501 588,499 590,497 590,496 593,493 593,492 604,481 604,480 613,471 613,470 643,440" stroke="#fff" stroke-width="5" /><polygon fill="#fff" fill-opacity="0.4" points="222,411 221,412 220,412 219,413 218,413 211,420 210,420 208,422 207,422 203,426 202,426 199,429 198,429 193,434 192,434 189,437 188,437 185,440 184,440 181,443 180,443 177,446 176,446 173,449 172,449 169,452 168,452 166,454 165,454 163,456 162,456 160,458 159,458 157,460 156,460 154,462 153,462 152,463 151,463 150,464 149,464 147,466 146,466 148,468 149,468 151,470 152,470 155,473 156,473 158,475 159,475 162,478 163,478 166,481 167,481 169,483 170,483 172,485 173,485 175,487 176,487 178,489 179,489 181,491 182,491 185,494 186,494 187,495 188,495 191,498 192,498 195,501 196,501 197,502 198,502 200,504 201,504 203,506 204,506 205,507 206,507 208,509 209,509 211,511 212,511 217,516 218,516 220,518 221,518 221,512 222,511 222,505 221,504 221,491 220,490 220,462 221,461 221,443 222,442 222,415 223,414 223,411" stroke="#fff" stroke-width="5" /><polygon fill="#fff" fill-opacity="0.4" points="766,410 766,415 767,416 767,447 768,448 768,465 769,466 769,474 770,475 770,481 771,482 771,488 772,489 772,496 773,497 773,501 774,502 774,507 775,508 775,515 776,516 776,517 777,517 778,516 779,516 781,514 782,514 784,512 785,512 787,510 788,510 790,508 791,508 792,507 793,507 795,505 796,505 798,503 799,503 801,501 802,501 805,498 806,498 809,495 810,495 814,491 815,491 819,487 820,487 823,484 824,484 826,482 827,482 829,480 830,480 831,479 832,479 834,477 835,477 836,476 837,476 839,474 840,474 842,472 843,472 846,469 847,469 849,467 846,464 845,464 843,462 842,462 841,461 840,461 838,459 837,459 836,458 835,458 833,456 832,456 830,454 829,454 827,452 826,452 824,450 823,450 819,446 818,446 816,444 815,444 811,440 810,440 808,438 807,438 805,436 804,436 801,433 800,433 798,431 797,431 795,429 794,429 792,427 791,427 789,425 788,425 786,423 785,423 783,421 782,421 780,419 779,419 777,417 776,417 774,415 773,415 770,412 769,412 767,410" stroke="#fff" stroke-width="5" /><polygon fill="#fff" fill-opacity="0.4" points="774,390 774,392 771,395 766,395 769,395 770,396 771,396 772,397 774,397 775,398 778,398 779,399 780,399 781,398 781,395 777,391 776,391 775,390" stroke="#fff" stroke-width="5" /><polygon fill="#fff" fill-opacity="0.4" points="297,389 297,390 295,392 295,393 294,394 294,397 293,398 293,407 292,408 292,421 291,422 291,442 292,443 292,444 293,445 305,445 305,443 306,442 306,416 305,415 305,397 304,396 304,394 300,390 298,390" stroke="#fff" stroke-width="5" /><polygon fill="#fff" fill-opacity="0.4" points="413,380 412,381 411,381 410,382 409,382 407,384 406,384 404,386 404,387 403,388 402,388 404,388 405,389 406,389 408,391 409,391 410,392 411,392 412,393 413,393 415,395 416,395 417,396 418,396 419,397 420,397 421,398 422,398 423,399 424,399 425,400 426,400 427,401 429,401 430,402 433,402 434,403 437,403 438,404 447,404 448,403 449,403 451,401 451,399 450,398 449,398 447,396 446,396 445,395 444,395 443,394 442,394 440,392 439,392 437,390 436,390 434,388 433,388 431,386 430,386 426,382 425,382 424,381 423,381 422,380" stroke="#fff" stroke-width="5" /><polygon fill="#fff" fill-opacity="0.4" points="318,345 317,346 315,346 314,347 312,347 311,348 309,348 308,349 307,349 306,350 305,350 304,351 303,351 302,352 300,352 299,353 298,353 297,354 296,354 295,355 294,355 293,356 291,356 290,357 289,357 288,358 287,358 286,359 285,359 284,360 283,360 282,361 281,361 280,362 279,362 278,363 277,363 276,364 275,364 274,365 273,365 272,366 271,366 270,367 269,367 268,368 267,368 265,370 264,370 263,371 262,371 260,373 259,373 256,376 256,377 255,378 255,380 256,380 257,381 265,381 266,380 270,380 271,379 274,379 275,378 279,378 280,377 283,377 284,376 289,376 290,375 294,375 295,374 299,374 300,373 303,373 304,372 309,372 310,371 313,371 314,370 317,370 318,369 321,369 322,368 324,368 325,367 326,367 327,366 329,366 330,365 331,365 330,364 330,362 329,361 329,360 328,359 328,356 327,355 327,353 326,352 326,348 325,347 325,345" stroke="#fff" stroke-width="5" /><polygon fill="#fff" fill-opacity="0.4" points="488,338 487,339 488,340 488,367 487,368 487,400 486,401 486,436 485,437 485,438 486,439 486,440 485,441 485,477 484,478 484,509 483,510 483,512 484,513 483,514 483,555 482,556 482,615 481,616 481,667 480,668 480,669 478,671 477,671 476,672 465,672 463,670 463,669 462,668 462,655 463,654 463,639 464,638 464,616 463,615 463,614 462,614 461,613 459,613 458,612 457,612 456,611 455,611 454,610 453,610 452,609 451,609 450,608 449,608 447,606 446,606 445,605 444,605 443,604 442,604 441,603 440,603 439,602 438,602 437,601 436,601 435,600 434,600 433,599 432,599 431,598 430,598 428,596 427,596 426,595 425,595 424,594 423,594 422,593 421,593 420,592 419,592 418,591 417,591 416,590 415,590 413,588 412,588 411,587 410,587 409,586 408,586 407,585 406,585 405,584 404,584 402,582 401,582 400,581 399,581 398,580 397,580 396,579 395,579 394,578 393,578 392,577 391,577 390,576 389,576 388,575 387,575 386,574 385,574 384,573 383,573 382,572 381,572 380,571 379,571 378,570 377,570 376,569 374,569 373,568 371,568 370,567 369,567 366,564 366,512 365,511 365,486 364,485 364,451 363,450 363,417 362,416 362,403 359,406 358,406 356,408 354,408 353,409 350,409 349,410 346,410 345,411 345,414 346,415 346,435 345,436 345,466 344,467 344,478 342,480 336,474 335,474 328,467 327,467 324,464 323,464 321,462 320,462 319,461 318,461 317,460 316,460 315,459 314,460 314,461 313,462 313,463 312,464 312,465 311,466 311,468 310,469 310,470 309,471 310,472 310,473 314,477 315,477 316,478 317,478 318,479 319,479 320,480 321,480 322,481 324,481 325,482 326,482 327,483 329,483 330,484 333,484 334,485 338,485 339,484 341,484 342,485 342,486 343,487 343,488 344,489 344,551 343,552 343,554 342,555 338,555 337,554 334,554 333,553 331,553 330,552 327,552 326,551 323,551 322,550 319,550 318,549 316,549 315,548 311,548 310,547 308,547 307,546 304,546 303,545 301,545 300,544 298,544 297,543 294,543 293,542 291,542 290,541 289,541 288,540 286,540 285,539 283,539 282,538 280,538 279,537 277,537 276,536 273,536 272,535 270,535 269,534 268,534 267,533 265,533 264,532 261,532 260,531 258,531 257,530 254,530 253,529 251,529 250,528 246,528 245,527 242,527 241,526 228,526 227,527 227,528 223,532 221,532 220,533 217,533 217,539 216,540 216,551 217,552 217,599 216,600 216,607 217,608 217,632 218,631 219,631 221,629 222,629 223,628 224,628 226,626 227,626 230,623 231,623 234,620 235,620 238,617 239,617 241,615 242,615 245,612 246,612 249,609 250,609 252,607 253,607 256,604 257,604 260,601 261,601 264,598 265,598 267,596 268,596 271,593 272,593 274,591 275,591 279,587 280,587 284,583 285,583 288,580 289,580 292,577 293,577 295,575 296,575 298,573 299,573 300,572 301,572 302,571 303,571 304,572 305,572 306,573 307,573 309,575 310,575 311,576 312,576 314,578 315,578 316,579 317,579 318,580 319,580 320,581 321,581 322,582 329,582 330,583 337,583 338,582 348,582 349,583 352,583 353,584 354,584 355,585 355,586 356,587 356,606 357,607 357,608 358,608 359,609 360,609 362,611 363,611 364,612 365,612 368,615 369,615 371,617 372,617 374,619 375,619 376,620 377,620 379,622 380,622 382,624 383,624 384,625 385,625 387,627 388,627 390,629 391,629 393,631 394,631 398,635 399,635 401,637 402,637 404,639 405,639 408,642 409,642 411,644 412,644 414,646 415,646 418,649 419,649 421,651 422,651 424,653 425,653 427,655 428,655 432,659 433,659 435,661 435,662 436,663 436,664 437,665 437,669 436,670 436,671 435,672 434,672 432,674 430,674 429,675 426,675 427,676 427,686 426,687 426,790 448,790 449,791 455,791 456,790 459,790 459,789 460,788 461,789 461,787 462,786 462,784 463,783 464,784 465,784 466,783 467,783 468,782 469,782 470,781 471,781 472,780 474,780 475,779 478,779 479,778 482,778 483,777 483,776 484,775 484,774 485,773 486,773 488,775 488,781 489,782 489,789 490,790 490,795 491,796 491,800 492,801 492,805 491,806 482,806 481,807 448,807 447,808 444,808 444,810 445,811 445,812 446,813 446,814 448,816 448,817 465,834 465,835 470,840 486,840 487,841 486,842 486,858 487,859 487,863 488,864 488,866 489,867 489,868 490,869 490,870 492,872 492,873 493,874 493,875 495,877 496,877 497,878 498,877 499,877 502,874 502,873 506,869 506,868 509,865 509,864 513,860 513,859 516,856 516,855 519,852 519,851 523,847 523,846 533,836 533,835 541,827 541,826 544,823 544,822 549,817 549,816 546,813 545,813 544,812 543,812 542,811 541,811 540,810 539,810 538,809 536,809 535,808 533,808 532,807 530,807 529,806 528,806 527,805 526,805 524,803 524,802 520,798 519,798 518,797 517,797 515,795 514,795 513,794 512,794 510,792 509,792 506,789 505,789 503,787 502,787 501,786 499,786 498,785 497,785 496,784 495,784 494,783 494,782 493,781 493,778 492,777 493,776 496,776 497,777 505,777 506,778 515,778 516,779 523,779 524,780 527,780 528,781 529,781 530,782 531,782 532,783 533,783 535,785 536,785 538,787 539,787 540,788 541,788 542,789 545,789 546,790 552,790 553,791 558,791 559,790 595,790 596,789 777,789 778,790 782,790 782,783 781,782 781,732 782,731 782,728 781,727 781,712 782,711 782,700 781,699 781,668 782,667 782,660 781,659 781,640 782,639 782,627 781,626 781,611 780,611 780,613 779,614 779,615 778,616 778,619 777,620 777,622 776,623 776,625 775,626 775,627 774,628 774,631 773,632 773,634 772,635 772,638 771,639 771,641 770,642 770,644 769,645 769,647 768,648 768,651 767,652 767,654 766,655 766,658 765,659 765,661 764,662 764,664 763,665 763,667 762,668 762,670 761,671 761,673 760,674 760,677 759,678 759,679 758,680 758,682 757,683 757,684 756,685 756,687 755,688 755,690 754,691 754,693 753,694 753,697 752,698 752,700 751,701 751,703 750,704 750,707 749,708 749,710 748,711 748,713 747,714 747,716 746,717 746,720 745,721 745,723 744,724 744,727 743,728 743,730 742,731 742,733 741,734 741,736 740,737 740,739 739,740 739,742 738,743 738,745 737,746 737,748 736,749 736,751 735,752 735,753 734,754 734,755 731,758 724,758 723,759 640,759 639,758 616,758 615,759 596,759 595,758 582,758 581,759 562,759 561,758 528,758 527,759 500,759 499,758 489,758 488,759 482,759 481,758 454,758 450,754 450,753 449,752 449,748 450,747 450,746 451,745 451,744 452,743 452,742 453,741 453,740 454,739 454,738 456,736 456,735 457,734 457,733 459,731 459,730 461,728 461,727 462,726 462,725 463,724 463,723 465,721 465,720 467,718 467,717 468,716 468,715 470,713 470,712 471,711 471,710 473,708 473,707 475,705 475,704 476,703 476,702 477,701 477,700 479,698 479,697 480,696 480,695 482,693 482,692 484,690 484,689 485,688 485,687 486,686 486,685 488,683 488,682 490,680 490,679 492,677 492,676 493,675 493,674 494,673 494,672 496,670 496,669 497,668 497,667 499,665 499,664 501,662 501,661 502,660 502,659 504,657 504,656 506,654 506,653 507,652 507,651 509,649 509,648 514,643 514,582 513,581 513,537 512,536 512,530 513,529 512,528 512,489 511,488 511,449 510,448 510,423 509,422 509,399 508,398 508,372 507,371 507,343 506,342 506,338 501,338 500,339 490,339 489,338" stroke="#fff" stroke-width="5" /><polygon fill="#fff" fill-opacity="0.4" points="523,805 524,804 525,804 526,805 525,806 524,806" stroke="#fff" stroke-width="5" /><polygon fill="#fff" fill-opacity="0.4" points="348,334 347,335 345,335 344,336 343,336 339,340 339,341 338,342 338,345 337,346 337,353 338,354 338,356 339,357 339,358 344,363 347,363 348,364 352,364 353,363 355,363 356,362 357,362 359,360 360,360 362,358 362,357 363,356 363,355 364,354 364,344 365,343 365,342 364,341 364,339 362,337 361,337 360,336 359,336 358,335 357,335 356,334" stroke="#fff" stroke-width="5" /><polygon fill="#fff" fill-opacity="0.4" points="691,332 690,333 688,333 687,334 687,335 686,336 686,357 687,358 687,359 689,361 690,361 691,362 694,362 695,361 696,361 698,359 698,358 699,357 699,353 698,352 698,336 695,333 693,333 692,332" stroke="#fff" stroke-width="5" /><polygon fill="#fff" fill-opacity="0.4" points="732,315 731,316 730,316 726,320 726,321 725,322 725,323 726,324 726,325 739,338 740,338 744,342 748,342 751,339 751,338 753,336 753,332 744,323 743,323 737,317 736,317 735,316 734,316 733,315" stroke="#fff" stroke-width="5" /><polygon fill="#fff" fill-opacity="0.4" points="649,315 648,316 647,316 631,332 631,336 636,341 639,341 641,339 642,339 657,324 657,323 658,322 658,321 656,319 656,318 655,317 654,317 652,315" stroke="#fff" stroke-width="5" /><polygon fill="#fff" fill-opacity="0.4" points="275,314 274,315 270,315 270,318 269,319 269,325 270,326 270,330 271,331 279,331 280,330 280,317 279,316 279,315 277,315 276,314" stroke="#fff" stroke-width="5" /><polygon fill="#fff" fill-opacity="0.4" points="532,304 531,305 531,307 530,308 530,310 529,311 529,313 528,314 528,316 526,318 526,319 525,320 525,321 524,322 524,323 518,329 518,331 519,332 520,332 521,333 522,333 523,334 524,334 526,336 527,336 528,337 529,337 530,338 531,338 532,339 533,339 534,340 535,340 536,341 537,341 538,342 539,342 540,343 541,343 542,344 543,344 544,345 545,345 546,346 547,346 548,347 550,347 551,348 552,348 553,349 554,349 555,350 557,350 558,351 559,351 560,352 561,352 562,353 564,353 565,354 566,354 567,355 568,355 569,356 571,356 572,357 574,357 575,358 576,358 577,359 579,359 580,360 582,360 583,361 584,361 585,362 587,362 588,363 590,363 591,364 592,364 593,365 595,365 596,366 597,366 598,367 600,367 601,368 602,368 603,369 605,369 606,370 608,370 609,371 611,371 612,372 614,372 615,373 617,373 618,374 621,374 622,375 625,375 626,376 630,376 631,377 633,377 634,376 635,376 635,375 636,374 636,371 631,366 630,366 627,363 626,363 623,360 622,360 619,357 618,357 616,355 615,355 613,353 612,353 610,351 609,351 607,349 606,349 604,347 603,347 600,344 599,344 597,342 596,342 594,340 593,340 590,337 589,337 587,335 586,335 584,333 583,333 581,331 580,331 578,329 577,329 575,327 574,327 572,325 571,325 569,323 568,323 567,322 566,322 564,320 563,320 562,319 561,319 559,317 558,317 557,316 556,316 555,315 554,315 553,314 552,314 550,312 549,312 548,311 547,311 546,310 545,310 544,309 543,309 542,308 541,308 540,307 539,307 538,306 536,306 535,305 533,305" stroke="#fff" stroke-width="5" /><polygon fill="#fff" fill-opacity="0.4" points="457,304 456,305 455,305 453,307 452,307 451,308 450,308 449,309 448,309 447,310 446,310 445,311 444,311 443,312 442,312 440,314 439,314 438,315 437,315 435,317 434,317 433,318 432,318 430,320 429,320 427,322 426,322 425,323 424,323 422,325 421,325 419,327 418,327 416,329 415,329 413,331 412,331 410,333 409,333 406,336 405,336 403,338 402,338 400,340 399,340 397,342 396,342 395,343 394,343 392,345 391,345 388,348 387,348 385,350 384,350 383,351 382,351 380,353 379,353 377,355 376,355 372,359 371,359 360,370 359,370 357,372 356,372 354,374 352,374 351,375 350,374 349,375 348,374 347,375 347,383 348,384 348,387 347,388 347,391 348,390 351,390 352,389 354,389 355,388 356,388 357,387 358,387 359,386 360,386 362,384 363,384 366,381 367,381 369,379 370,379 372,377 373,377 374,376 375,376 376,375 377,375 378,374 379,374 380,373 381,373 382,372 384,372 385,371 386,371 387,370 389,370 390,369 391,369 392,368 393,368 394,367 396,367 397,366 398,366 399,365 401,365 402,364 403,364 404,363 406,363 407,362 408,362 409,361 411,361 412,360 413,360 414,359 416,359 417,358 419,358 420,357 421,357 422,356 424,356 425,355 426,355 427,354 429,354 430,353 431,353 432,352 433,352 434,351 436,351 437,350 438,350 439,349 440,349 441,348 442,348 443,347 444,347 445,346 446,346 447,345 448,345 449,344 450,344 451,343 452,343 453,342 454,342 455,341 456,341 457,340 458,340 460,338 461,338 462,337 463,337 465,335 466,335 468,333 469,333 472,330 473,330 474,329 474,328 470,324 470,323 468,321 468,320 466,318 466,317 465,316 465,315 464,314 464,313 463,312 463,311 462,310 462,309 460,307 460,306 458,304" stroke="#fff" stroke-width="5" /><polygon fill="#fff" fill-opacity="0.4" points="299,301 298,302 297,302 296,303 296,304 294,306 294,307 293,308 294,309 294,310 295,310 304,319 307,319 312,314 312,312 302,302 300,302" stroke="#fff" stroke-width="5" /><polygon fill="#fff" fill-opacity="0.4" points="247,300 244,303 243,303 237,309 237,310 235,312 235,313 236,314 236,315 239,318 240,318 242,320 243,320 254,309 254,307 253,306 253,305 252,304 252,303 250,301 249,301 248,300" stroke="#fff" stroke-width="5" /><polygon fill="#fff" fill-opacity="0.4" points="494,281 493,282 491,282 490,283 489,283 488,284 487,284 480,291 480,292 479,293 479,294 478,295 478,297 477,298 477,306 478,307 478,310 479,311 479,313 480,314 480,315 481,316 481,317 484,320 485,320 486,321 487,321 488,322 489,322 490,323 501,323 502,322 504,322 505,321 506,321 507,320 508,320 513,315 513,314 515,312 515,311 516,310 516,306 517,305 517,300 516,299 516,295 515,294 515,292 514,291 514,290 509,285 508,285 506,283 504,283 503,282 501,282 500,281" stroke="#fff" stroke-width="5" /><polygon fill="#fff" fill-opacity="0.4" points="614,277 611,280 611,281 610,282 610,285 612,287 612,288 613,289 617,289 618,290 637,290 639,288 639,287 640,286 640,284 641,283 640,282 640,280 638,278 637,278 636,277" stroke="#fff" stroke-width="5" /><polygon fill="#fff" fill-opacity="0.4" points="225,277 224,278 224,286 225,287 239,287 240,286 242,286 243,285 243,279 242,278 242,277" stroke="#fff" stroke-width="5" /><polygon fill="#fff" fill-opacity="0.4" points="761,276 760,277 745,277 742,280 742,287 743,288 743,289 744,290 769,290 770,289 770,288 771,287 771,286 772,285 772,281 771,280 771,279 769,277 768,277 767,276" stroke="#fff" stroke-width="5" /><polygon fill="#fff" fill-opacity="0.4" points="316,276 315,277 306,277 305,278 305,285 307,287 322,287 323,286 323,284 324,283 324,279 323,278 323,277 321,277 320,276" stroke="#fff" stroke-width="5" /><polygon fill="#fff" fill-opacity="0.4" points="684,246 683,247 681,247 680,248 679,248 678,249 677,249 676,250 675,250 674,251 673,251 672,252 671,252 668,255 667,255 664,258 664,259 661,262 661,263 660,264 660,265 659,266 659,267 658,268 658,270 657,271 657,275 656,276 656,285 657,286 657,290 658,291 658,293 659,294 659,296 660,297 660,298 661,299 661,300 662,301 662,302 664,304 664,305 670,311 671,311 672,312 673,312 674,313 675,313 676,314 677,314 678,315 680,315 681,316 683,316 684,317 696,317 697,316 699,316 700,315 702,315 703,314 705,314 706,313 707,313 708,312 709,312 710,311 711,311 720,302 720,301 721,300 721,299 722,298 722,297 723,296 723,294 724,293 724,291 725,290 725,274 724,273 724,270 723,269 723,267 722,266 722,265 720,263 720,262 718,260 718,259 712,253 711,253 709,251 708,251 707,250 706,250 705,249 704,249 703,248 702,248 701,247 698,247 697,246" stroke="#fff" stroke-width="5" /><polygon fill="#fff" fill-opacity="0.4" points="684,253 685,252 687,252 688,253 690,253 693,256 693,257 692,258 691,258 690,259 689,259 688,260 687,260 686,261 685,261 684,262 683,262 680,265 679,265 672,272 672,273 671,274 671,275 670,276 670,277 669,278 669,280 668,281 668,282 667,283 665,283 664,282 664,281 663,280 663,271 664,270 664,268 665,267 665,266 667,264 667,263 673,257 674,257 675,256 676,256 677,255 678,255 679,254 680,254 681,253" stroke="#fff" stroke-width="5" /><polygon fill="#fff" fill-opacity="0.4" points="241,245 240,246 239,246 238,247 238,248 236,250 236,253 246,263 247,263 248,264 249,263 250,263 254,259 254,256 252,254 252,253 249,250 249,249 246,246 245,246 244,245" stroke="#fff" stroke-width="5" /><polygon fill="#fff" fill-opacity="0.4" points="350,243 350,244 349,245 349,246 348,247 348,251 347,252 347,259 346,260 346,269 345,270 345,278 344,279 344,293 343,294 343,305 344,306 344,316 345,317 345,320 346,321 347,321 348,322 349,322 350,323 351,323 352,324 353,324 355,326 357,326 358,325 359,325 361,323 361,322 363,320 363,319 364,318 364,308 365,307 365,303 364,302 364,284 363,283 363,257 362,256 362,248 361,247 361,246 359,244 356,244 355,243" stroke="#fff" stroke-width="5" /><polygon fill="#fff" fill-opacity="0.4" points="305,243 296,252 296,253 293,256 293,259 295,261 296,261 297,262 298,262 299,263 300,262 302,262 305,259 306,259 314,251 314,250 313,249 313,248 310,245 309,245 307,243" stroke="#fff" stroke-width="5" /><polygon fill="#fff" fill-opacity="0.4" points="274,230 273,231 270,231 269,232 269,233 268,234 268,239 269,240 269,249 271,251 276,251 277,250 279,250 279,239 280,238 280,234 279,233 279,232 278,231 277,231 276,230" stroke="#fff" stroke-width="5" /><polygon fill="#fff" fill-opacity="0.4" points="637,229 634,232 633,232 631,234 631,235 630,236 630,238 632,240 632,241 638,247 639,247 644,252 645,252 647,254 650,254 654,250 654,249 655,248 655,245 654,244 654,243 648,237 647,237 639,229" stroke="#fff" stroke-width="5" /><polygon fill="#fff" fill-opacity="0.4" points="745,228 737,236 736,236 727,245 727,248 728,249 728,250 729,251 729,252 730,253 731,253 733,255 735,255 737,253 738,253 754,237 754,234 748,228" stroke="#fff" stroke-width="5" /><polygon fill="#fff" fill-opacity="0.4" points="686,219 686,222 685,223 685,227 686,228 686,229 688,231 689,231 690,232 694,232 695,231 696,231 698,229 698,225 699,224 698,223 698,220 697,219" stroke="#fff" stroke-width="5" /><polygon fill="#fff" fill-opacity="0.4" points="584,180 583,181 528,181 528,182 529,183 529,184 532,187 533,187 541,195 542,195 552,205 552,206 555,209 555,210 793,210 794,211 795,211 796,212 796,213 797,214 797,216 796,217 796,387 797,388 797,396 796,397 796,406 797,406 800,409 801,409 807,415 808,415 814,421 815,421 819,425 820,425 826,431 827,431 827,187 828,186 828,185 827,184 827,182 826,181 825,181 824,180" stroke="#fff" stroke-width="5" /><polygon fill="#fff" fill-opacity="0.4" points="256,180 255,181 173,181 171,183 171,184 170,185 170,375 171,376 171,428 172,428 179,421 180,421 185,416 186,416 192,410 193,410 195,408 196,408 199,405 201,405 201,213 203,211 205,211 206,210 440,210 440,209 441,208 441,207 443,205 443,204 459,188 459,187 461,185 462,185 465,182 465,181 464,181 463,180 462,181 448,181 447,180" stroke="#fff" stroke-width="5" /><polygon fill="#fff" fill-opacity="0.4" points="498,152 494,156 494,157 492,159 492,160 491,161 491,162 490,163 490,165 489,166 489,168 488,169 488,176 487,177 487,189 486,190 486,208 485,209 485,226 484,227 484,249 483,250 483,258 484,259 484,260 485,261 485,262 486,263 486,264 487,265 487,268 488,269 505,269 505,267 506,266 506,265 507,264 507,263 508,262 508,261 510,259 510,258 511,257 511,220 510,219 510,200 509,199 509,185 508,184 508,169 507,168 507,162 506,161 506,159 505,158 505,157 503,155 503,154 502,153 501,153 500,152" stroke="#fff" stroke-width="5" /></svg>