<?xml version="1.0" encoding="UTF-8" standalone="no"?>
<svg
   height="1024"
   version="1.2"
   width="1024"
   id="svg29"
   sodipodi:docname="adaptation.svg"
   inkscape:version="1.3.2 (091e20ef0f, 2023-11-25)"
   xmlns:inkscape="http://www.inkscape.org/namespaces/inkscape"
   xmlns:sodipodi="http://sodipodi.sourceforge.net/DTD/sodipodi-0.dtd"
   xmlns="http://www.w3.org/2000/svg"
   xmlns:svg="http://www.w3.org/2000/svg">
  <sodipodi:namedview
     id="namedview29"
     pagecolor="#ffffff"
     bordercolor="#000000"
     borderopacity="0.25"
     inkscape:showpageshadow="2"
     inkscape:pageopacity="0.0"
     inkscape:pagecheckerboard="0"
     inkscape:deskcolor="#d1d1d1"
     inkscape:zoom="0.87402344"
     inkscape:cx="511.42793"
     inkscape:cy="512"
     inkscape:window-width="1920"
     inkscape:window-height="1141"
     inkscape:window-x="0"
     inkscape:window-y="0"
     inkscape:window-maximized="1"
     inkscape:current-layer="svg29" />
  <defs
     id="defs1" />
  <polygon
     fill="#000000"
     fill-opacity="0.2"
     points="490,169 491,170 491,221 492,222 491,223 474,223 473,224 466,224 465,225 458,225 457,226 453,226 452,227 448,227 447,228 443,228 442,229 439,229 438,230 435,230 434,231 431,231 430,232 427,232 426,233 424,233 423,234 421,234 420,235 418,235 417,236 415,236 414,237 412,237 411,238 409,238 408,239 407,239 406,240 405,240 404,241 402,241 401,242 400,242 399,243 397,243 396,244 395,244 394,245 393,245 392,246 391,246 390,247 389,247 388,248 387,248 386,249 385,249 384,250 383,250 382,251 381,251 380,252 379,252 378,253 377,253 375,255 374,255 372,257 371,257 369,259 368,259 367,260 366,260 364,262 363,262 360,265 359,265 357,267 356,267 353,270 352,270 347,275 346,275 339,282 338,282 329,291 329,292 320,301 320,302 316,306 316,307 311,312 311,313 307,317 307,318 303,322 303,323 301,325 301,326 299,328 299,329 298,330 298,331 297,332 297,333 295,335 295,336 294,337 294,338 292,340 292,341 291,342 291,343 290,344 290,345 289,346 289,347 288,348 288,349 287,350 287,351 286,352 286,353 285,354 285,355 284,356 284,357 283,358 283,359 282,360 282,362 281,363 281,364 280,365 280,367 279,368 279,370 278,371 278,372 277,373 277,375 276,376 276,378 275,379 275,381 274,382 274,384 273,385 273,387 272,388 272,391 271,392 271,395 270,396 270,400 269,401 269,405 268,406 268,411 267,412 267,419 266,420 266,438 265,439 265,450 266,451 266,463 267,464 267,471 268,472 268,477 269,478 269,483 270,484 270,489 271,490 271,494 272,495 272,498 273,499 273,502 274,503 274,505 275,506 275,508 276,509 276,511 277,512 277,514 278,515 278,516 279,517 279,518 280,519 280,520 281,521 281,522 283,524 283,525 284,526 284,527 285,528 285,529 286,530 286,531 287,532 287,533 288,534 288,535 289,536 289,537 290,538 290,539 291,540 291,541 292,542 292,543 293,544 293,545 294,546 294,547 296,549 296,550 297,551 297,552 298,553 298,554 300,556 300,557 307,564 307,565 311,569 311,570 312,571 312,572 313,573 313,574 315,576 315,577 316,578 316,579 318,581 318,582 319,583 319,584 320,585 320,586 322,588 322,589 324,591 324,592 328,596 328,597 335,604 335,605 336,606 337,606 353,622 354,622 356,624 357,624 359,626 360,626 361,627 362,627 364,629 365,629 366,630 368,630 369,631 370,631 371,632 372,632 373,633 379,633 380,632 381,632 381,626 379,624 379,623 371,615 370,615 366,611 365,611 348,594 348,593 343,588 343,587 340,584 340,583 339,582 339,581 338,580 338,579 337,578 337,576 336,575 337,574 337,573 340,570 343,570 344,569 353,569 353,556 354,555 354,548 355,547 355,544 354,543 354,532 355,531 356,532 356,533 357,534 357,535 358,536 358,537 359,538 359,540 360,541 360,542 361,543 361,544 362,545 362,546 364,548 364,549 365,550 365,551 367,553 367,554 368,555 368,556 370,558 370,559 371,560 371,561 373,563 373,564 375,566 375,567 378,570 378,571 380,573 380,574 382,576 382,577 384,579 384,580 388,584 388,585 392,589 392,590 397,595 397,596 421,620 422,620 426,624 427,624 429,626 430,626 432,628 433,628 434,629 435,629 437,631 438,631 439,632 440,632 442,634 443,634 444,635 445,635 446,636 448,636 449,637 450,637 451,638 452,638 453,639 454,639 455,640 456,640 457,641 458,641 459,642 460,642 461,643 463,643 464,644 465,644 466,645 468,645 469,646 471,646 472,647 474,647 475,648 477,648 478,649 480,649 481,650 484,650 485,651 489,651 490,652 498,652 499,653 517,653 518,654 513,659 513,660 511,662 511,663 510,664 510,665 509,666 509,669 508,670 508,676 509,677 513,677 515,675 516,675 517,674 519,674 520,673 522,673 523,672 524,672 525,671 527,671 528,670 529,670 530,669 531,669 532,668 533,668 534,667 536,667 537,666 539,666 540,665 542,665 543,664 545,664 546,663 548,663 549,662 553,662 554,661 566,661 567,662 593,662 594,661 601,661 602,660 606,660 607,659 611,659 612,658 615,658 616,657 620,657 621,656 624,656 625,655 627,655 628,654 631,654 632,653 634,653 635,652 637,652 638,651 640,651 641,650 643,650 644,649 646,649 647,648 650,648 651,647 653,647 654,646 655,646 656,645 658,645 659,644 660,644 661,643 663,643 665,641 667,641 669,639 670,639 671,638 672,638 673,637 674,637 676,635 677,635 678,634 679,634 681,632 682,632 683,631 684,631 686,629 687,629 688,628 689,628 691,626 692,626 694,624 695,624 697,622 698,622 701,619 702,619 706,615 707,615 710,612 711,612 715,608 716,608 722,602 722,596 720,594 720,593 719,592 718,592 716,590 715,590 714,589 707,589 703,593 702,593 695,600 694,600 691,603 690,603 688,605 687,605 685,607 684,607 682,609 681,609 679,611 678,611 676,613 675,613 673,615 672,615 669,618 668,618 665,621 664,621 662,623 661,623 659,625 658,625 657,626 656,626 655,627 654,627 652,629 651,629 650,630 648,630 647,631 646,631 645,632 643,632 642,633 639,633 638,634 636,634 635,635 632,635 631,636 628,636 627,637 624,637 623,638 620,638 619,639 614,639 613,640 608,640 607,641 597,641 596,642 586,642 585,643 577,643 576,644 568,644 567,643 564,643 563,642 562,642 561,641 560,641 559,640 557,640 555,638 554,638 552,636 551,636 547,632 546,632 541,627 540,627 535,622 534,622 527,615 526,615 521,610 520,610 515,605 514,605 512,603 510,603 509,602 508,603 507,603 505,605 505,606 504,607 504,608 505,609 505,611 506,612 506,613 507,614 507,615 511,619 511,620 515,624 515,625 517,627 517,628 519,630 519,631 520,632 520,633 519,634 518,633 509,633 508,632 503,632 502,631 498,631 497,630 495,630 494,629 492,629 491,628 489,628 488,627 486,627 485,626 483,626 482,625 481,625 480,624 478,624 477,623 476,623 475,622 473,622 472,621 470,621 469,620 468,620 467,619 466,619 465,618 464,618 463,617 462,617 461,616 460,616 459,615 458,615 457,614 456,614 455,613 454,613 452,611 451,611 450,610 449,610 447,608 446,608 445,607 444,607 443,606 442,606 440,604 439,604 437,602 436,602 434,600 433,600 428,595 427,595 421,589 420,589 413,582 412,582 404,574 404,573 401,570 401,569 398,566 398,565 396,563 396,562 393,559 393,558 391,556 391,555 389,553 389,552 387,550 387,549 386,548 386,547 384,545 384,544 382,542 382,541 380,539 380,538 378,536 378,535 376,533 376,532 374,530 374,529 372,527 372,526 371,525 371,524 369,522 369,521 368,520 368,519 367,518 367,516 366,515 366,514 365,513 365,512 364,511 364,509 363,508 363,506 362,505 362,503 361,502 361,500 360,499 360,496 359,495 359,493 358,492 358,491 357,490 357,489 356,488 356,487 354,485 353,485 352,484 350,484 349,483 347,483 346,482 333,482 332,483 330,483 328,485 327,484 327,483 328,482 328,467 329,466 329,457 330,456 330,451 331,450 331,446 332,445 332,442 333,441 333,437 334,436 334,433 335,432 335,429 336,428 336,426 337,425 337,422 338,421 338,419 339,418 339,416 340,415 340,413 341,412 341,410 342,409 342,408 343,407 343,405 344,404 344,403 345,402 345,401 346,400 346,399 347,398 347,397 348,396 348,395 349,394 349,393 350,392 350,391 351,390 351,389 353,387 353,386 354,385 354,384 356,382 356,381 358,379 358,378 359,377 359,376 362,373 362,372 365,369 365,368 370,363 370,362 389,343 390,343 394,339 395,339 399,335 400,335 402,333 403,333 406,330 407,330 410,327 411,327 412,326 413,326 415,324 416,324 418,322 419,322 420,321 421,321 422,320 423,320 424,319 425,319 426,318 427,318 428,317 429,317 430,316 431,316 432,315 433,315 434,314 435,314 436,313 437,313 438,312 439,312 440,311 442,311 443,310 444,310 445,309 447,309 448,308 450,308 451,307 454,307 455,306 457,306 458,305 462,305 463,304 467,304 468,303 474,303 475,302 482,302 483,301 490,301 491,302 491,352 492,353 492,368 493,369 493,370 494,371 494,372 495,373 496,373 497,374 498,374 499,375 501,375 502,376 508,376 509,375 511,375 512,374 513,374 514,373 515,373 517,371 518,371 519,370 520,370 522,368 523,368 526,365 527,365 530,362 531,362 534,359 535,359 538,356 539,356 541,354 542,354 545,351 546,351 548,349 549,349 551,347 552,347 555,344 556,344 559,341 560,341 562,339 563,339 566,336 567,336 569,334 570,334 573,331 574,331 577,328 578,328 581,325 582,325 585,322 586,322 588,320 589,320 592,317 593,317 595,315 596,315 598,313 599,313 601,311 602,311 605,308 606,308 609,305 610,305 613,302 614,302 617,299 618,299 620,297 621,297 623,295 624,295 626,293 627,293 631,289 632,289 635,286 636,286 639,283 640,283 642,281 643,281 646,278 647,278 650,275 651,275 652,274 652,273 654,271 654,270 655,269 655,258 654,257 654,256 649,251 648,251 647,250 646,250 645,249 644,249 642,247 641,247 639,245 638,245 636,243 635,243 633,241 632,241 631,240 630,240 628,238 627,238 625,236 624,236 623,235 622,235 620,233 619,233 618,232 617,232 615,230 614,230 612,228 611,228 609,226 608,226 607,225 606,225 605,224 604,224 602,222 601,222 600,221 599,221 598,220 597,220 595,218 594,218 592,216 591,216 589,214 588,214 587,213 586,213 584,211 583,211 582,210 581,210 579,208 578,208 576,206 575,206 574,205 573,205 571,203 570,203 569,202 568,202 566,200 565,200 564,199 563,199 562,198 561,198 560,197 559,197 557,195 556,195 555,194 554,194 552,192 551,192 550,191 549,191 548,190 547,190 545,188 544,188 543,187 542,187 540,185 539,185 537,183 536,183 535,182 534,182 532,180 531,180 530,179 529,179 528,178 527,178 525,176 524,176 522,174 523,173 526,173 527,172 534,172 535,171 548,171 549,172 557,172 558,173 564,173 565,174 571,174 572,175 577,175 578,176 582,176 583,177 587,177 588,178 590,178 591,179 595,179 596,180 598,180 599,181 603,181 604,182 607,182 608,183 611,183 612,184 614,184 615,185 617,185 618,186 620,186 621,187 623,187 624,188 626,188 627,189 629,189 630,190 631,190 632,191 634,191 635,192 637,192 638,193 640,193 641,194 643,194 644,195 645,195 646,196 648,196 649,197 650,197 651,198 652,198 653,199 655,199 656,200 657,200 658,201 659,201 660,202 661,202 662,203 664,203 665,204 666,204 667,205 668,205 669,206 670,206 671,207 672,207 673,208 674,208 676,210 677,210 678,211 679,211 680,212 681,212 683,214 684,214 685,215 686,215 687,216 688,216 690,218 691,218 692,219 693,219 695,221 696,221 698,223 699,223 701,225 702,225 703,226 704,226 706,228 707,228 709,230 710,230 712,232 713,232 715,234 716,234 719,237 720,237 723,240 724,240 727,243 728,243 732,247 733,247 739,253 740,253 762,275 762,276 771,285 771,286 775,290 775,291 778,294 778,295 780,297 780,298 783,301 783,302 786,305 786,306 789,309 789,310 792,313 792,314 794,316 794,317 796,319 796,320 797,321 797,322 799,324 799,325 800,326 800,327 801,328 801,329 803,331 803,332 804,333 804,334 806,336 806,337 807,338 807,339 808,340 808,341 810,343 810,344 811,345 811,346 812,347 812,348 813,349 813,350 815,352 815,354 817,356 817,358 818,359 818,360 819,361 819,362 820,363 820,364 821,365 821,366 822,367 822,368 823,369 823,370 824,371 824,372 825,373 825,375 826,376 826,377 827,378 827,379 828,380 828,382 829,383 829,384 830,385 830,387 831,388 831,390 832,391 832,392 833,393 833,395 834,396 834,398 835,399 835,401 836,402 836,404 837,405 837,407 838,408 838,410 839,411 839,413 840,414 840,416 841,417 841,420 842,421 842,423 843,424 843,427 844,428 844,431 845,432 845,434 846,435 846,438 847,439 847,443 848,444 848,449 849,450 849,455 850,456 850,461 851,462 851,468 852,469 852,476 853,477 853,489 854,490 854,535 853,536 853,545 852,546 852,554 851,555 851,562 850,563 850,569 849,570 849,574 848,575 848,579 847,580 847,584 846,585 846,589 845,590 845,593 844,594 844,597 843,598 843,600 842,601 842,603 841,604 841,607 840,608 840,610 839,611 839,613 838,614 838,616 837,617 837,619 836,620 836,622 835,623 835,624 834,625 834,627 833,628 833,630 832,631 832,632 831,633 831,635 830,636 830,638 829,639 829,640 828,641 828,642 827,643 827,645 826,646 826,647 825,648 825,649 824,650 824,652 823,653 823,654 822,655 822,656 821,657 821,658 820,659 820,660 819,661 819,662 818,663 818,664 817,665 817,666 816,667 816,668 815,669 815,670 814,671 814,672 813,673 813,674 812,675 812,676 810,678 810,679 809,680 809,681 807,683 807,684 806,685 806,686 805,687 805,688 803,690 803,691 802,692 802,693 800,695 800,696 799,697 799,698 797,700 797,701 795,703 795,704 793,706 793,707 791,709 791,710 789,712 789,713 787,715 787,716 783,720 783,721 781,723 781,724 777,728 777,729 773,733 773,734 769,738 769,739 753,755 753,756 752,757 751,757 740,768 739,768 731,776 730,776 727,779 726,779 723,782 722,782 719,785 718,785 715,788 714,788 711,791 710,791 708,793 707,793 705,795 704,795 702,797 701,797 699,799 698,799 696,801 695,801 693,803 692,803 691,804 690,804 688,806 687,806 686,807 685,807 683,809 682,809 681,810 680,810 679,811 678,811 677,812 676,812 675,813 674,813 672,815 671,815 670,816 669,816 668,817 667,817 666,818 665,818 664,819 663,819 662,820 661,820 660,821 658,821 657,822 656,822 655,823 654,823 653,824 652,824 651,825 650,825 649,826 647,826 646,827 645,827 644,828 643,828 642,829 640,829 639,830 638,830 637,831 635,831 634,832 633,832 632,833 630,833 629,834 627,834 626,835 625,835 624,836 622,836 621,837 619,837 618,838 616,838 615,839 612,839 611,840 609,840 608,841 605,841 604,842 601,842 600,843 597,843 596,844 594,844 593,845 589,845 588,846 585,846 584,847 580,847 579,848 576,848 575,849 569,849 568,850 562,850 561,851 554,851 553,852 546,852 545,853 535,853 534,854 492,854 491,853 481,853 480,852 472,852 471,851 464,851 463,850 458,850 457,849 453,849 452,848 448,848 447,847 443,847 442,846 438,846 437,845 435,845 434,844 431,844 430,843 427,843 426,842 424,842 423,841 420,841 419,840 417,840 416,839 414,839 413,838 411,838 410,837 408,837 407,836 405,836 404,835 402,835 401,834 399,834 398,833 397,833 396,832 394,832 393,831 392,831 391,830 390,830 389,829 387,829 386,828 385,828 384,827 382,827 381,826 379,826 378,825 377,825 376,824 374,824 373,823 372,823 371,822 370,822 369,821 368,821 367,820 365,820 364,819 363,819 362,818 361,818 360,817 359,817 358,816 357,816 355,814 354,814 353,813 352,813 351,812 350,812 349,811 348,811 347,810 346,810 344,808 343,808 342,807 341,807 340,806 339,806 337,804 336,804 335,803 334,803 333,802 332,802 330,800 329,800 328,799 327,799 324,796 323,796 321,794 320,794 318,792 317,792 315,790 314,790 311,787 310,787 308,785 307,785 305,783 304,783 301,780 300,780 296,776 295,776 288,769 287,769 263,745 263,744 257,738 257,737 252,732 252,731 248,727 248,726 245,723 245,722 241,718 241,717 238,714 238,713 235,710 235,709 233,707 233,706 231,704 231,703 229,701 229,700 228,699 228,698 226,696 226,695 224,693 224,692 222,690 222,689 220,687 220,686 219,685 219,684 218,683 218,682 217,681 217,680 215,678 215,677 214,676 214,675 213,674 213,673 212,672 212,671 211,670 211,669 209,667 209,666 208,665 208,664 207,663 207,662 206,661 206,659 205,658 205,657 204,656 204,655 203,654 203,653 202,652 202,651 201,650 201,649 200,648 200,647 199,646 199,644 198,643 198,642 197,641 197,639 196,638 196,636 195,635 195,634 194,633 194,631 193,630 193,629 192,628 192,627 191,626 191,624 190,623 190,622 189,621 189,618 188,617 188,615 187,614 187,612 186,611 186,609 185,608 185,606 184,605 184,603 183,602 183,599 182,598 182,596 181,595 181,591 180,590 180,587 179,586 179,582 178,581 178,576 177,575 177,570 176,569 176,564 175,563 175,558 174,557 174,549 173,548 173,532 172,531 172,494 173,493 173,481 174,480 174,472 175,471 175,465 176,464 176,458 177,457 177,451 178,450 178,446 179,445 179,441 180,440 180,437 181,436 181,433 182,432 182,430 183,429 183,426 184,425 184,422 185,421 185,418 186,417 186,415 187,414 187,411 188,410 188,408 189,407 189,405 190,404 190,403 191,402 191,400 192,399 192,397 193,396 193,394 194,393 194,392 195,391 195,389 196,388 196,386 197,385 197,384 198,383 198,381 199,380 199,379 200,378 200,376 201,375 201,374 202,373 202,372 203,371 203,370 204,369 204,368 205,367 205,366 206,365 206,364 207,363 207,361 209,359 209,358 210,357 210,356 211,355 211,354 212,353 212,352 213,351 213,350 214,349 214,348 215,347 215,346 217,344 217,343 218,342 218,341 220,339 220,338 221,337 221,336 223,334 223,333 224,332 224,331 226,329 226,328 228,326 228,325 230,323 230,322 231,321 231,320 234,317 234,316 236,314 236,313 238,311 238,310 241,307 241,306 244,303 244,302 247,299 247,298 250,295 250,294 254,290 254,289 259,284 259,283 287,255 288,255 294,249 295,249 299,245 300,245 304,241 305,241 308,238 309,238 312,235 313,235 315,233 316,233 318,231 319,231 322,228 323,228 325,226 326,226 328,224 329,224 331,222 332,222 333,221 334,221 336,219 337,219 338,218 339,218 341,216 342,216 343,215 344,215 346,213 347,213 348,212 349,212 350,211 351,211 352,210 353,210 354,209 355,209 356,208 357,208 358,207 359,207 361,205 362,205 363,204 364,204 365,203 367,203 368,202 369,202 370,201 371,201 372,200 373,200 374,199 375,199 376,198 377,198 378,197 380,197 381,196 382,196 383,195 385,195 386,194 387,194 388,193 390,193 391,192 392,192 393,191 395,191 396,190 397,190 398,189 400,189 401,188 403,188 404,187 406,187 407,186 409,186 410,185 412,185 413,184 415,184 416,183 418,183 419,182 422,182 423,181 425,181 426,180 429,180 430,179 432,179 433,178 435,178 436,177 439,177 440,176 443,176 444,175 447,175 448,174 451,174 452,173 456,173 457,172 461,172 462,171 467,171 468,170 474,170 475,169 "
     stroke="#000"
     stroke-width="10"
     id="polygon29"
     style="stroke:#000000;stroke-width:15;stroke-dasharray:none;stroke-opacity:1;fill:#000000;fill-opacity:0.15276764" />
  <polygon
     fill="#000"
     fill-opacity="0.2"
     points="484,709 483,710 482,710 481,711 480,711 478,713 477,713 474,716 473,716 471,718 470,718 469,719 468,719 467,720 466,720 465,721 463,721 462,722 460,722 459,723 458,723 457,724 455,724 454,725 453,725 452,726 451,726 450,727 449,727 448,728 447,728 445,730 444,730 442,732 441,732 440,733 439,733 437,735 436,735 434,737 433,737 431,739 430,739 420,749 420,750 417,753 417,754 416,755 416,756 415,757 415,758 414,759 414,760 413,761 413,763 412,764 412,766 411,767 411,769 410,770 410,773 409,774 409,783 412,786 414,786 415,787 437,787 438,786 441,786 442,785 445,785 446,784 447,784 448,783 450,783 451,782 452,782 453,781 455,781 456,780 457,780 458,779 460,779 461,778 462,778 463,777 464,777 466,775 467,775 469,773 470,773 476,767 476,766 479,763 479,762 480,761 480,760 481,759 481,758 483,756 483,755 484,754 484,753 485,752 485,751 486,750 486,749 487,748 487,746 488,745 488,743 489,742 489,736 490,735 490,716 489,715 489,712 486,709"
     stroke="#000"
     stroke-width="10"
     id="polygon1" />
  <polygon
     fill="#000"
     fill-opacity="0.2"
     points="468,742 469,741 470,742 470,743 469,744 469,746 468,747 468,749 466,751 466,752 454,764 453,764 450,767 449,767 448,768 447,768 446,769 445,769 444,770 443,770 442,771 438,771 437,772 436,772 435,771 435,769 436,768 436,767 437,766 437,765 439,763 439,762 444,757 445,757 448,754 449,754 451,752 452,752 454,750 455,750 456,749 457,749 459,747 460,747 461,746 462,746 464,744 465,744 467,742"
     stroke="#000"
     stroke-width="10"
     id="polygon2" />
  <polygon
     fill="#000"
     fill-opacity="0.2"
     points="390,681 389,682 386,682 385,683 383,683 382,684 380,684 379,685 378,685 377,686 376,686 375,687 374,687 373,688 372,688 371,689 370,689 369,690 368,690 366,692 365,692 364,693 363,693 361,695 360,695 358,697 357,697 355,699 354,699 352,701 351,701 350,702 349,702 347,704 346,704 345,705 344,705 339,710 339,715 340,716 340,719 344,723 345,723 346,724 347,724 348,725 349,725 350,726 352,726 353,727 355,727 356,728 358,728 359,729 361,729 362,730 365,730 366,731 372,731 373,732 384,732 385,731 392,731 393,730 398,730 399,729 402,729 403,728 404,728 405,727 407,727 408,726 409,726 410,725 411,725 413,723 414,723 416,721 417,721 420,718 421,718 425,714 425,713 431,707 431,706 433,704 433,703 434,702 434,701 435,700 435,694 433,692 432,692 430,690 429,690 428,689 427,689 426,688 425,688 424,687 422,687 421,686 418,686 417,685 414,685 413,684 409,684 408,683 405,683 404,682 398,682 397,681"
     stroke="#000"
     stroke-width="10"
     id="polygon3" />
  <polygon
     fill="#000"
     fill-opacity="0.2"
     points="395,703 396,702 407,702 408,703 410,703 411,704 404,711 403,711 401,713 400,713 399,714 398,714 397,715 395,715 394,716 390,716 389,717 380,717 379,718 378,717 373,717 372,716 372,714 377,709 378,709 379,708 381,708 382,707 385,707 386,706 387,706 388,705 390,705 391,704 393,704 394,703"
     stroke="#000"
     stroke-width="10"
     id="polygon4" />
  <polygon
     fill="#000"
     fill-opacity="0.2"
     points="610,677 609,678 607,678 606,679 605,679 603,681 602,681 601,682 600,682 599,683 598,683 595,686 594,686 594,687 592,689 592,697 594,699 595,699 596,700 597,700 598,701 601,701 602,702 604,702 609,707 609,708 611,710 611,715 610,716 596,716 595,715 588,715 587,714 583,714 582,713 580,713 579,712 577,712 576,711 575,711 574,710 573,710 571,708 570,708 568,706 567,706 566,705 565,705 563,703 562,703 561,702 560,702 558,700 557,700 555,698 554,698 553,697 551,697 550,696 546,696 545,697 543,697 542,698 541,698 538,701 538,710 541,713 542,713 544,715 545,715 546,716 547,716 548,717 549,717 550,718 551,718 552,719 553,719 554,720 555,720 556,721 558,721 559,722 560,722 561,723 564,723 565,724 568,724 569,725 571,725 572,726 574,726 575,727 577,727 578,728 580,728 581,729 583,729 584,730 587,730 588,731 593,731 594,732 618,732 619,731 624,731 625,730 628,730 629,729 632,729 633,728 635,728 636,727 639,727 640,726 642,726 643,725 645,725 646,724 647,724 648,723 649,723 651,721 651,717 650,716 650,713 649,712 649,709 648,708 648,707 649,706 648,707 644,707 643,708 638,708 637,709 633,709 632,710 630,710 629,711 624,711 623,710 624,709 624,700 623,699 623,691 622,690 622,684 621,683 621,680 618,677"
     stroke="#000"
     stroke-width="10"
     id="polygon5" />
  <polygon
     fill="#000"
     fill-opacity="0.2"
     points="398,651 398,653 400,655 401,655 403,657 404,657 405,658 406,658 407,659 408,659 409,660 410,660 411,661 412,661 413,662 414,662 415,663 416,663 417,664 419,664 420,665 421,665 422,666 424,666 425,667 426,667 427,668 429,668 430,669 433,669 434,670 436,670 437,671 440,671 441,672 443,672 444,673 446,673 447,674 449,674 450,675 455,675 456,676 462,676 463,677 468,677 469,678 475,678 476,679 481,679 482,678 484,678 484,676 482,674 481,674 480,673 478,673 477,672 475,672 474,671 472,671 471,670 467,670 466,669 462,669 461,668 457,668 456,667 453,667 452,666 448,666 447,665 442,665 441,664 435,664 434,663 430,663 429,662 425,662 424,661 421,661 420,660 418,660 417,659 415,659 414,658 412,658 411,657 410,657 408,655 407,655 406,654 405,654 404,653 403,653 402,652 399,652"
     stroke="#000"
     stroke-width="10"
     id="polygon6" />
  <polygon
     fill="#000"
     fill-opacity="0.2"
     points="665,650 664,651 663,651 662,652 661,652 656,657 656,662 655,663 655,674 656,675 656,679 657,680 657,683 658,684 658,688 659,689 659,693 660,694 660,696 661,697 661,698 662,699 662,700 663,701 663,702 666,705 667,705 668,706 673,706 674,705 677,705 678,704 679,704 680,703 682,703 684,701 685,701 687,699 688,699 689,698 689,696 690,695 690,690 689,689 689,688 688,687 688,686 687,685 687,684 684,681 683,681 681,679 680,679 679,678 678,678 677,677 677,676 676,675 676,674 675,673 675,671 674,670 674,667 673,666 673,663 672,662 672,659 671,658 671,656 670,655 670,654 666,650"
     stroke="#000"
     stroke-width="10"
     id="polygon7" />
  <polygon
     fill="#000"
     fill-opacity="0.2"
     points="715,646 714,647 712,647 710,649 709,649 694,664 694,670 695,671 695,672 701,678 702,678 703,679 709,679 710,678 711,678 713,676 714,676 724,666 724,665 727,662 727,661 728,660 728,659 729,658 729,655 721,647 719,647 718,646"
     stroke="#000"
     stroke-width="10"
     id="polygon8" />
  <polygon
     fill="#000"
     fill-opacity="0.2"
     points="312,625 311,626 306,626 305,627 302,627 301,628 298,628 297,629 294,629 293,630 292,630 291,631 289,631 288,632 287,632 286,633 285,633 284,634 283,634 282,635 281,635 280,636 279,636 278,637 276,637 275,638 274,638 272,640 271,640 269,642 269,643 268,644 268,645 267,646 267,653 268,654 268,655 271,658 272,658 273,659 274,659 275,660 276,660 277,661 278,661 279,662 280,662 281,663 283,663 284,664 285,664 286,665 287,665 288,666 289,666 290,667 291,667 292,668 293,668 294,669 296,669 297,670 299,670 300,671 305,671 306,672 329,672 330,671 333,671 334,670 336,670 337,669 339,669 340,668 341,668 342,667 343,667 344,666 345,666 348,663 349,663 352,660 353,660 354,659 355,659 356,658 357,658 358,657 359,657 361,655 362,655 366,651 367,651 364,648 362,648 360,646 359,646 357,644 356,644 355,643 354,643 352,641 351,641 349,639 348,639 347,638 346,638 344,636 343,636 341,634 340,634 338,632 337,632 336,631 335,631 334,630 333,630 332,629 331,629 330,628 328,628 327,627 326,627 325,626 321,626 320,625"
     stroke="#000"
     stroke-width="10"
     id="polygon9" />
  <polygon
     fill="#000"
     fill-opacity="0.2"
     points="313,644 314,643 320,643 321,644 323,644 324,645 326,645 329,648 329,649 330,650 331,650 334,653 335,653 336,654 334,656 330,656 329,657 324,657 323,658 314,658 313,657 307,657 306,656 302,656 301,655 299,655 298,654 296,654 295,653 297,651 298,651 299,650 300,650 301,649 302,649 303,648 304,648 305,647 306,647 308,645 310,645 311,644"
     stroke="#000"
     stroke-width="10"
     id="polygon10" />
  <polygon
     fill="#000"
     fill-opacity="0.2"
     points="569,579 568,580 566,580 562,584 562,585 561,586 561,587 560,588 560,589 559,590 559,593 558,594 558,597 559,598 560,598 561,599 562,599 563,600 564,600 565,601 567,601 568,602 573,602 574,601 576,601 581,596 581,595 582,594 582,589 581,588 581,587 580,586 580,585 577,582 576,582 574,580 571,580 570,579"
     stroke="#000"
     stroke-width="10"
     id="polygon11" />
  <polygon
     fill="#000"
     fill-opacity="0.2"
     points="649,576 648,577 647,577 645,579 645,580 643,582 643,584 642,585 642,591 643,592 643,593 644,594 644,595 646,597 647,597 649,599 650,599 651,600 660,600 661,599 662,599 666,595 666,594 667,593 667,587 666,586 666,585 665,584 665,583 660,578 659,578 658,577 656,577 655,576"
     stroke="#000"
     stroke-width="10"
     id="polygon12" />
  <polygon
     fill="#000"
     fill-opacity="0.2"
     points="602,559 601,560 599,560 598,561 598,562 596,564 596,565 595,566 595,575 598,578 599,578 600,579 601,579 602,580 604,580 605,581 613,581 614,580 615,580 617,578 617,577 618,576 618,575 619,574 619,567 618,566 618,565 616,563 616,562 615,562 613,560 612,560 611,559"
     stroke="#000"
     stroke-width="10"
     id="polygon13" />
  <polygon
     fill="#000"
     fill-opacity="0.2"
     points="210,509 209,510 207,510 206,511 205,511 205,512 204,513 204,514 203,515 203,520 204,521 204,523 205,524 205,525 206,526 206,527 207,528 207,529 209,531 209,532 212,535 212,536 217,541 217,542 221,546 222,546 226,550 227,550 230,553 231,553 232,554 233,554 235,556 236,556 238,558 239,558 240,559 241,559 242,560 243,560 244,561 247,561 248,562 251,562 252,563 257,563 258,564 269,564 270,563 274,563 275,562 283,562 284,561 291,561 292,562 295,562 296,561 297,562 298,562 298,560 297,559 297,557 295,555 295,554 293,552 293,551 292,550 292,549 291,548 291,547 287,543 287,542 280,535 279,535 271,527 270,527 266,523 265,523 263,521 262,521 260,519 259,519 257,517 256,517 255,516 254,516 253,515 252,515 251,514 249,514 248,513 246,513 245,512 241,512 240,511 234,511 233,510 224,510 223,509"
     stroke="#000"
     stroke-width="10"
     id="polygon14" />
  <polygon
     fill="#000"
     fill-opacity="0.2"
     points="227,530 228,529 231,529 232,530 238,530 239,531 243,531 244,532 246,532 247,533 249,533 250,534 251,534 252,535 254,535 256,537 257,537 258,538 259,538 261,540 262,540 267,545 267,546 269,548 268,549 259,549 258,548 254,548 253,547 250,547 249,546 248,546 247,545 245,545 244,544 243,544 241,542 240,542 239,541 238,541 236,539 235,539 233,537 232,537 228,533 228,532 227,531"
     stroke="#000"
     stroke-width="10"
     id="polygon15" />
  <polygon
     fill="#000"
     fill-opacity="0.2"
     points="758,482 757,483 755,483 754,484 754,485 752,487 752,490 751,491 751,495 750,496 750,503 749,504 749,510 748,511 748,516 747,517 747,520 746,521 746,524 745,525 745,527 744,528 744,530 743,531 743,532 742,533 742,535 741,536 741,537 740,538 740,540 739,541 739,542 738,543 738,544 737,545 737,546 736,547 736,548 735,549 735,551 734,552 734,553 733,554 733,556 732,557 732,565 735,568 736,568 737,569 739,569 740,570 742,570 743,571 745,571 746,570 747,570 751,566 751,565 752,564 752,563 753,562 753,561 755,559 755,558 756,557 756,555 757,554 757,553 758,552 758,551 759,550 759,548 760,547 760,545 761,544 761,541 762,540 762,538 763,537 763,534 764,533 764,530 765,529 765,526 766,525 766,521 767,520 767,515 768,514 768,508 769,507 769,486 766,483 765,483 764,482"
     stroke="#000"
     stroke-width="10"
     id="polygon16" />
  <polygon
     fill="#000"
     fill-opacity="0.2"
     points="217,418 215,420 215,421 214,422 214,426 213,427 213,433 212,434 212,439 211,440 211,445 212,446 212,452 213,453 213,455 214,456 214,458 215,459 215,460 216,461 216,462 217,463 217,464 218,465 218,466 219,467 219,468 220,469 220,470 229,479 230,479 232,481 233,481 234,482 236,482 237,483 240,483 241,484 247,484 248,483 248,482 249,481 249,479 250,478 250,475 251,474 251,469 252,468 252,460 253,459 253,453 252,452 252,448 251,447 251,446 250,445 250,443 249,442 249,441 248,440 248,439 246,437 246,436 244,434 244,433 242,431 241,431 236,426 236,425 232,421 231,421 230,420 229,420 228,419 226,419 225,418"
     stroke="#000"
     stroke-width="10"
     id="polygon17" />
  <polygon
     fill="#000"
     fill-opacity="0.2"
     points="230,434 231,434 233,436 234,436 236,438 236,439 237,440 237,441 238,442 238,446 239,447 239,457 238,458 238,461 236,463 235,463 234,462 233,462 231,460 231,459 229,457 229,455 228,454 228,452 227,451 227,447 226,446 226,441 227,440 227,437"
     stroke="#000"
     stroke-width="10"
     id="polygon18" />
  <polygon
     fill="#000"
     fill-opacity="0.2"
     points="229,376 225,380 225,381 224,382 224,383 223,384 223,385 222,386 222,388 221,389 221,392 220,393 220,397 219,398 219,407 220,406 221,406 222,407 223,407 224,406 235,406 236,405 240,405 241,404 243,404 243,401 242,400 242,397 241,396 241,394 240,393 240,391 239,390 239,388 238,387 238,386 237,385 237,384 235,382 235,381 232,378 232,377 231,376"
     stroke="#000"
     stroke-width="10"
     id="polygon19" />
  <polygon
     fill="#000"
     fill-opacity="0.2"
     points="750,306 749,307 741,307 740,308 734,308 733,309 726,309 725,310 718,310 717,311 712,311 711,312 705,312 704,313 699,313 698,314 694,314 693,315 689,315 688,316 685,316 684,317 681,317 680,318 677,318 676,319 673,319 672,320 669,320 668,321 665,321 664,322 661,322 660,323 658,323 657,324 655,324 654,325 652,325 651,326 649,326 648,327 646,327 645,328 643,328 642,329 640,329 639,330 637,330 636,331 635,331 634,332 632,332 631,333 630,333 629,334 627,334 626,335 625,335 624,336 623,336 622,337 620,337 619,338 618,338 617,339 616,339 615,340 614,340 613,341 612,341 610,343 609,343 608,344 607,344 605,346 604,346 602,348 601,348 598,351 597,351 594,354 593,354 590,357 589,357 575,371 575,372 570,377 570,378 568,380 568,381 566,383 566,384 565,385 565,386 564,387 564,388 562,390 562,391 561,392 561,393 560,394 560,395 559,396 559,398 558,399 558,401 557,402 557,404 556,405 556,408 555,409 555,412 554,413 554,418 553,419 553,427 552,428 552,440 553,441 553,449 554,450 554,455 555,456 555,460 556,461 556,464 557,465 557,467 558,468 558,470 559,471 559,472 560,473 560,475 561,476 561,478 562,479 562,480 563,481 561,483 560,483 554,489 553,489 549,493 548,493 543,498 542,498 536,504 535,504 527,512 526,512 508,530 508,531 503,536 503,537 500,540 500,541 497,544 497,545 496,546 496,547 495,548 495,549 494,550 494,553 495,554 496,554 497,555 498,555 499,556 500,556 501,557 502,557 503,558 507,558 508,559 509,559 510,558 512,558 517,553 517,552 524,545 524,544 543,525 544,525 550,519 551,519 553,517 554,517 559,512 560,512 565,507 566,507 572,501 573,501 577,497 580,497 581,498 582,498 586,502 587,502 588,503 589,503 590,504 591,504 592,505 593,505 594,506 595,506 596,507 597,507 598,508 599,508 600,509 602,509 603,510 604,510 605,511 606,511 607,512 609,512 610,513 612,513 613,514 615,514 616,515 619,515 620,516 623,516 624,517 630,517 631,518 652,518 653,517 659,517 660,516 663,516 664,515 667,515 668,514 670,514 671,513 674,513 675,512 676,512 677,511 679,511 680,510 681,510 682,509 683,509 684,508 685,508 686,507 687,507 689,505 690,505 691,504 692,504 694,502 695,502 697,500 698,500 701,497 702,497 706,493 707,493 721,479 721,478 725,474 725,473 728,470 728,469 730,467 730,466 732,464 732,463 733,462 733,461 734,460 734,459 735,458 735,457 737,455 737,454 738,453 738,452 739,451 739,450 740,449 740,447 741,446 741,445 742,444 742,443 743,442 743,440 744,439 744,437 745,436 745,434 746,433 746,431 747,430 747,428 748,427 748,424 749,423 749,420 750,419 750,417 751,416 751,412 752,411 752,408 753,407 753,402 754,401 754,397 755,396 755,391 756,390 756,385 757,384 757,378 758,377 758,372 759,371 759,364 760,363 760,356 761,355 761,344 762,343 762,328 763,327 763,310 762,309 762,308 761,308 760,307 758,307 757,306"
     stroke="#000"
     stroke-width="10"
     id="polygon20" />
  <polygon
     fill="#000"
     fill-opacity="0.2"
     points="629,451 630,450 631,451 630,452"
     stroke="#000"
     stroke-width="10"
     id="polygon21" />
  <polygon
     fill="#000"
     fill-opacity="0.2"
     points="635,444 636,443 637,443 638,444 637,445 636,445"
     stroke="#000"
     stroke-width="10"
     id="polygon22" />
  <polygon
     fill="#000"
     fill-opacity="0.2"
     points="733,330 734,329 739,329 740,330 740,333 739,334 739,343 738,344 738,353 737,354 737,364 736,365 736,375 735,376 735,384 734,385 734,391 733,392 733,396 732,397 732,401 731,402 731,406 730,407 730,411 729,412 729,415 728,416 728,419 727,420 727,422 726,423 726,426 725,427 725,429 724,430 724,431 723,432 723,434 722,435 722,436 721,437 721,439 720,440 720,441 719,442 719,443 718,444 718,445 717,446 717,447 715,449 715,450 714,451 714,452 712,454 712,455 710,457 710,458 709,459 709,460 706,463 706,464 701,469 701,470 695,476 694,476 691,479 690,479 686,483 685,483 682,486 681,486 679,488 678,488 677,489 676,489 675,490 674,490 673,491 672,491 671,492 669,492 668,493 666,493 665,494 664,494 663,495 660,495 659,496 654,496 653,497 630,497 629,496 624,496 623,495 621,495 620,494 617,494 616,493 615,493 614,492 613,492 612,491 611,491 610,490 609,490 607,488 606,488 604,486 603,486 601,484 600,484 597,481 608,470 609,470 620,459 621,459 625,455 626,455 627,454 627,453 629,451 630,452 630,454 629,455 629,458 630,459 631,459 632,460 633,460 634,461 639,461 640,462 655,462 656,463 684,463 685,462 686,462 689,459 689,458 690,457 690,452 689,451 689,449 687,447 686,447 685,446 684,446 683,445 669,445 668,446 655,446 654,445 646,445 645,444 638,444 637,443 643,437 644,437 650,431 651,431 657,425 658,425 664,419 665,419 669,415 670,415 676,409 677,409 682,404 683,404 696,391 696,390 699,387 700,387 711,376 711,371 710,370 710,368 705,363 704,363 703,362 699,362 698,363 697,363 695,365 694,365 688,371 687,371 674,384 673,384 669,388 668,388 665,391 664,391 662,393 662,394 651,405 651,406 650,407 649,407 641,415 640,415 638,417 637,417 635,419 634,419 631,422 630,422 629,421 630,420 630,395 628,393 628,392 626,390 625,390 623,388 615,388 611,392 611,393 610,394 610,439 609,440 609,441 594,456 593,456 583,466 582,466 581,467 579,465 579,464 578,463 578,462 577,461 577,458 576,457 576,455 575,454 575,449 574,448 574,422 575,421 575,416 576,415 576,412 577,411 577,409 578,408 578,406 579,405 579,404 580,403 580,401 581,400 581,399 582,398 582,397 583,396 583,395 585,393 585,392 588,389 588,388 591,385 591,384 601,374 602,374 608,368 609,368 611,366 612,366 614,364 615,364 617,362 618,362 619,361 620,361 622,359 623,359 624,358 625,358 626,357 627,357 628,356 629,356 630,355 631,355 632,354 633,354 634,353 635,353 636,352 638,352 639,351 640,351 641,350 643,350 644,349 645,349 646,348 648,348 649,347 651,347 652,346 653,346 654,345 657,345 658,344 660,344 661,343 663,343 664,342 667,342 668,341 671,341 672,340 674,340 675,339 678,339 679,338 682,338 683,337 686,337 687,336 691,336 692,335 697,335 698,334 703,334 704,333 711,333 712,332 719,332 720,331 726,331 727,330"
     stroke="#000"
     stroke-width="10"
     id="polygon23"
     style="fill:#000000;fill-opacity:0.21917668" />
  <polygon
     fill="#000"
     fill-opacity="0.2"
     points="325,540 326,539 328,541 328,542 329,543 329,544 332,547 332,548 336,552 337,552 339,554 340,554 341,555 342,555 344,557 343,558 342,558 341,559 339,559 338,560 335,557 335,556 334,555 334,554 331,551 331,550 329,548 329,547 327,545 327,544 326,543 326,542 325,541"
     stroke="#000"
     stroke-width="10"
     id="polygon25" />
  <polygon
     fill="#000"
     fill-opacity="0.2"
     points="340,511 342,511 343,512 343,514 344,515 344,521 345,522 345,524 344,525 344,532 343,533 343,534 342,535 339,532 339,531 338,530 338,513"
     stroke="#000"
     stroke-width="10"
     id="polygon26" />
  <polygon
     fill="#000"
     fill-opacity="0.2"
     points="325,490 326,489 327,490 327,500 326,501 326,507 325,508 325,513 324,514 324,531 325,532 325,536 326,537 326,539 325,540 324,539 324,538 323,537 323,533 322,532 322,531 321,530 321,496 322,495 322,494 323,493 323,492 324,491 325,491"
     stroke="#000"
     stroke-width="10"
     id="polygon27" />
  <polygon
     fill="#000"
     fill-opacity="0.2"
     points="512,194 513,193 514,193 515,194 516,194 517,195 518,195 519,196 520,196 521,197 522,197 524,199 525,199 527,201 528,201 529,202 530,202 532,204 533,204 534,205 535,205 537,207 538,207 539,208 540,208 542,210 543,210 544,211 545,211 546,212 547,212 549,214 550,214 551,215 552,215 553,216 554,216 555,217 556,217 557,218 558,218 560,220 561,220 562,221 563,221 565,223 566,223 567,224 568,224 570,226 571,226 572,227 573,227 574,228 575,228 577,230 578,230 579,231 580,231 582,233 583,233 584,234 585,234 587,236 588,236 590,238 591,238 592,239 593,239 595,241 596,241 598,243 599,243 601,245 602,245 604,247 605,247 606,248 607,248 609,250 610,250 611,251 612,251 614,253 615,253 617,255 618,255 619,256 620,256 621,257 622,257 624,259 625,259 626,260 627,260 628,261 629,261 631,263 631,264 630,265 629,265 628,266 627,266 625,268 624,268 623,269 622,269 619,272 618,272 616,274 615,274 613,276 612,276 608,280 607,280 604,283 603,283 600,286 599,286 597,288 596,288 593,291 592,291 590,293 589,293 586,296 585,296 583,298 582,298 579,301 578,301 576,303 575,303 573,305 572,305 569,308 568,308 566,310 565,310 561,314 560,314 557,317 556,317 553,320 552,320 550,322 549,322 547,324 546,324 543,327 542,327 538,331 537,331 535,333 534,333 531,336 530,336 528,338 527,338 524,341 523,341 521,343 520,343 518,345 516,345 515,346 514,346 513,347 512,346 512,291 511,290 511,286 510,285 510,284 508,282 506,282 505,281 494,281 493,282 476,282 475,283 468,283 467,284 462,284 461,285 456,285 455,286 452,286 451,287 449,287 448,288 445,288 444,289 442,289 441,290 439,290 438,291 436,291 435,292 433,292 432,293 431,293 430,294 429,294 428,295 427,295 426,296 425,296 424,297 423,297 422,298 421,298 420,299 419,299 418,300 417,300 416,301 414,301 412,303 411,303 410,304 409,304 408,305 407,305 405,307 404,307 402,309 401,309 400,310 399,310 396,313 395,313 393,315 392,315 389,318 388,318 384,322 383,322 378,327 377,327 353,351 353,352 349,356 349,357 346,360 346,361 344,363 344,364 341,367 341,368 338,371 338,372 336,374 336,375 335,376 335,377 334,378 334,379 333,380 333,381 331,383 331,384 330,385 330,386 329,387 329,388 328,389 328,391 327,392 327,393 326,394 326,395 325,396 325,398 324,399 324,400 323,401 323,402 322,403 322,405 321,406 321,408 320,409 320,411 319,412 319,414 318,415 318,417 317,418 317,421 316,422 316,424 315,425 315,428 314,429 314,432 313,433 313,436 312,437 312,441 311,442 311,449 310,450 310,457 309,458 309,469 308,470 308,482 309,483 309,486 310,487 310,488 311,489 312,488 313,489 313,493 311,495 311,498 310,499 310,502 309,503 309,515 308,516 308,519 307,520 306,519 305,519 301,515 301,514 299,512 299,511 298,510 298,509 297,508 297,507 296,506 296,504 295,503 295,501 294,500 294,498 293,497 293,495 292,494 292,492 291,491 291,488 290,487 290,483 289,482 289,474 288,473 288,464 287,463 287,451 286,450 286,433 287,432 287,420 288,419 288,413 289,412 289,407 290,406 290,403 291,402 291,398 292,397 292,394 293,393 293,390 294,389 294,387 295,386 295,383 296,382 296,381 297,380 297,378 298,377 298,375 299,374 299,372 300,371 300,370 301,369 301,367 302,366 302,365 303,364 303,362 304,361 304,360 305,359 305,358 306,357 306,356 307,355 307,354 308,353 308,352 309,351 309,350 310,349 310,348 311,347 311,346 313,344 313,343 315,341 315,340 316,339 316,338 318,336 318,335 321,332 321,331 323,329 323,328 326,325 326,324 329,321 329,320 336,313 336,312 343,305 343,304 346,301 347,301 357,291 358,291 362,287 363,287 366,284 367,284 369,282 370,282 372,280 373,280 375,278 376,278 378,276 379,276 380,275 381,275 383,273 384,273 385,272 386,272 388,270 389,270 391,268 392,268 393,267 394,267 395,266 396,266 397,265 398,265 399,264 400,264 401,263 403,263 404,262 405,262 406,261 407,261 408,260 409,260 410,259 412,259 413,258 414,258 415,257 417,257 418,256 420,256 421,255 423,255 424,254 426,254 427,253 429,253 430,252 432,252 433,251 435,251 436,250 439,250 440,249 443,249 444,248 447,248 448,247 452,247 453,246 458,246 459,245 465,245 466,244 475,244 476,243 492,243 493,242 508,242 509,241 511,241 512,240"
     stroke="#000"
     stroke-width="10"
     id="polygon28" />
  <rect
     style="fill:none;fill-opacity:0.219177;stroke:#000000;stroke-width:15.0547;stroke-dasharray:none;stroke-opacity:1"
     id="rect29"
     width="1008.1359"
     height="1008.3112"
     x="7.9704504"
     y="9.3623848" />
</svg>
