<?xml version="1.0" encoding="utf-8" ?>
<svg baseProfile="tiny" height="1024" version="1.2" width="1024" xmlns="http://www.w3.org/2000/svg" xmlns:ev="http://www.w3.org/2001/xml-events" xmlns:xlink="http://www.w3.org/1999/xlink"><defs /><polygon fill="#fff" fill-opacity="0.4" points="709,582 708,583 684,583 684,610 687,610 688,611 731,611 732,610 736,610 737,609 738,609 740,607 741,607 744,604 744,603 745,602 745,600 746,599 746,592 744,590 744,589 739,584 738,584 737,583 734,583 733,582" stroke="#fff" stroke-width="5" /><polygon fill="#fff" fill-opacity="0.4" points="684,507 684,514 685,515 685,531 684,532 684,534 685,535 700,535 701,534 712,534 713,535 732,535 733,534 736,534 737,533 738,533 739,532 740,532 744,528 744,527 745,526 745,525 746,524 746,517 745,516 745,515 743,513 743,512 741,510 740,510 739,509 738,509 737,508 734,508 733,507" stroke="#fff" stroke-width="5" /><polygon fill="#fff" fill-opacity="0.4" points="636,462 636,473 637,474 637,499 636,500 636,524 637,525 637,546 638,547 638,628 637,629 637,635 636,636 636,646 637,647 641,647 642,648 665,648 666,647 668,647 672,643 672,642 673,641 673,640 674,639 674,620 673,619 673,605 672,604 672,584 673,583 673,559 674,558 674,554 673,553 673,500 672,499 672,494 673,493 673,471 672,470 672,469 668,465 667,465 666,464 663,464 662,463 654,463 653,462" stroke="#fff" stroke-width="5" /><polygon fill="#fff" fill-opacity="0.4" points="524,204 523,205 522,205 520,207 520,208 518,210 518,219 519,220 519,221 520,222 520,223 521,224 521,225 522,226 523,226 524,227 529,227 530,228 535,228 536,227 541,227 550,236 550,238 549,239 543,239 542,240 449,240 448,239 448,238 449,237 449,235 450,234 450,232 451,231 451,229 450,228 450,227 446,223 445,223 444,222 442,222 441,221 382,221 381,222 380,222 379,223 378,223 374,227 374,228 373,229 373,238 374,239 374,240 375,241 375,242 380,247 381,247 382,248 397,248 398,249 398,250 396,252 396,253 393,256 393,257 391,259 391,260 389,262 389,263 388,264 388,265 386,267 385,267 383,265 382,265 381,264 380,264 379,263 377,263 376,262 374,262 373,261 370,261 369,260 364,260 363,259 336,259 335,260 330,260 329,261 326,261 325,262 323,262 322,263 321,263 320,264 318,264 317,265 316,265 315,266 314,266 313,267 312,267 311,268 310,268 308,270 307,270 306,271 305,271 303,273 302,273 299,276 298,276 292,282 291,282 289,284 289,285 283,291 283,292 280,295 280,296 278,298 278,299 277,300 277,301 276,302 276,303 275,304 275,305 274,306 274,307 273,308 273,310 272,311 272,313 271,314 271,316 270,317 270,321 269,322 269,327 268,328 268,350 269,351 269,356 270,357 270,360 271,361 271,364 272,365 272,367 273,368 273,370 274,371 274,372 275,373 275,375 276,376 276,377 277,378 277,379 279,381 279,382 280,383 280,384 283,387 283,388 286,391 286,392 299,405 300,405 302,407 303,407 305,409 306,409 307,410 308,410 309,411 310,411 312,413 314,413 315,414 316,414 317,415 319,415 320,416 322,416 323,417 326,417 327,418 328,418 329,419 330,419 331,420 330,421 330,429 331,430 331,432 330,433 330,453 329,454 329,455 330,456 330,471 331,472 331,479 332,480 332,485 333,486 333,489 334,490 334,493 335,494 335,497 336,498 336,500 337,501 337,503 338,504 338,506 339,507 339,508 340,509 340,510 341,511 341,512 342,513 342,514 343,515 343,516 345,518 345,519 346,520 346,521 348,523 348,524 350,526 350,527 354,531 354,532 359,537 359,538 366,545 367,545 371,549 372,549 376,553 377,553 379,555 380,555 381,556 382,556 383,557 384,557 385,558 386,558 387,559 388,559 390,561 392,561 393,562 394,562 395,563 397,563 398,564 400,564 401,565 403,565 404,566 407,566 408,567 410,567 411,568 415,568 416,569 423,569 424,570 452,570 453,571 465,571 466,570 472,570 473,571 473,573 474,574 474,578 475,579 475,582 476,583 476,585 477,586 477,588 478,589 478,590 479,591 479,593 480,594 480,595 481,596 481,597 482,598 482,599 483,600 483,601 485,603 485,604 486,605 486,606 489,609 489,610 492,613 492,614 501,623 502,623 506,627 507,627 509,629 510,629 512,631 513,631 515,633 516,633 517,634 518,634 519,635 521,635 522,636 524,636 525,637 526,637 527,638 529,638 530,639 533,639 534,640 537,640 538,641 542,641 543,642 551,642 552,643 571,643 572,642 624,642 625,641 631,641 632,640 633,640 633,638 627,632 626,632 623,629 623,628 622,627 622,626 621,625 621,624 620,623 620,622 619,621 619,620 618,619 618,618 617,617 617,614 616,613 616,605 617,604 617,600 618,599 618,597 619,596 619,594 620,593 620,587 621,586 621,582 620,581 620,572 621,571 621,529 622,528 622,514 623,513 623,501 624,500 624,492 625,491 625,485 626,484 626,483 623,483 622,482 610,482 609,481 600,481 599,480 590,480 589,479 544,479 543,480 538,480 537,481 534,481 533,482 530,482 529,483 527,483 526,484 524,484 523,485 522,485 521,486 520,486 519,487 518,487 517,488 516,488 515,489 514,489 513,490 512,490 510,492 509,492 507,494 506,494 491,509 491,510 488,513 488,514 485,517 485,518 483,520 483,521 482,522 482,523 481,524 481,525 480,526 480,527 479,528 479,529 478,530 478,531 477,532 477,534 476,535 476,537 475,538 475,540 474,541 474,542 472,544 456,544 455,543 442,543 441,542 432,542 431,541 426,541 425,540 419,540 418,539 415,539 414,538 412,538 411,537 409,537 408,536 406,536 405,535 404,535 403,534 402,534 401,533 400,533 399,532 398,532 397,531 396,531 395,530 394,530 393,529 392,529 390,527 389,527 386,524 385,524 372,511 372,510 370,508 370,507 368,505 368,504 367,503 367,502 366,501 366,500 364,498 364,496 363,495 363,494 362,493 362,491 361,490 361,488 360,487 360,484 359,483 359,480 358,479 358,475 357,474 357,468 356,467 356,452 355,451 355,444 356,443 356,428 357,427 357,420 358,419 360,419 361,418 368,418 369,417 371,417 372,416 374,416 375,415 377,415 378,414 380,414 381,413 382,413 383,412 385,412 386,411 387,411 389,409 390,409 391,408 392,408 395,405 396,405 408,393 408,392 412,388 412,387 414,385 414,384 416,382 416,381 417,380 417,379 418,378 418,377 419,376 419,375 420,374 420,373 421,372 421,371 422,370 422,369 423,368 423,366 424,365 424,364 425,363 425,361 426,360 426,357 427,356 452,356 453,357 453,358 458,363 459,363 460,364 462,364 463,365 463,378 462,379 460,379 459,380 449,380 449,383 448,384 448,398 449,398 450,399 491,399 491,382 490,381 483,381 482,380 481,380 480,379 480,365 481,364 486,364 487,363 489,363 490,362 491,362 493,360 494,360 501,353 501,352 503,350 503,349 504,348 504,347 505,346 505,344 506,343 506,342 507,341 507,331 506,330 507,329 507,328 509,326 509,325 514,320 514,319 541,292 541,291 549,283 549,282 554,277 554,276 566,264 567,265 567,266 568,267 568,268 570,270 570,271 573,274 573,275 576,278 576,280 572,284 572,285 567,290 567,291 565,293 565,294 563,296 563,297 562,298 562,299 560,301 560,303 559,304 559,305 558,306 558,307 557,308 557,309 556,310 556,312 555,313 555,314 554,315 554,319 553,320 553,325 552,326 552,353 553,354 553,358 554,359 554,362 555,363 555,365 556,366 556,368 557,369 557,370 558,371 558,373 559,374 559,375 561,377 561,378 562,379 562,380 563,381 563,382 565,384 565,385 567,387 567,388 569,390 569,391 574,396 574,397 578,401 579,401 583,405 584,405 586,407 587,407 589,409 590,409 591,410 592,410 593,411 594,411 595,412 596,412 597,413 598,413 599,414 600,414 601,415 603,415 604,416 606,416 607,417 610,417 611,418 614,418 615,419 620,419 621,420 643,420 644,419 649,419 650,418 653,418 654,417 657,417 658,416 660,416 661,415 663,415 664,414 665,414 666,413 667,413 668,412 670,412 671,411 672,411 674,409 675,409 677,407 678,407 680,405 681,405 694,392 694,391 698,387 698,386 699,385 699,384 701,382 701,381 702,380 702,379 704,377 704,376 705,375 705,373 706,372 706,371 707,370 707,368 708,367 708,365 709,364 709,361 710,360 710,355 711,354 711,347 712,346 712,330 711,329 711,323 710,322 710,318 709,317 709,315 708,314 708,312 707,311 707,310 706,309 706,308 705,307 705,306 704,305 704,304 703,303 703,302 702,301 702,300 701,299 701,298 700,297 700,296 699,295 699,294 697,292 697,291 695,289 695,288 682,275 681,275 678,272 677,272 675,270 674,270 673,269 672,269 670,267 669,267 668,266 667,266 666,265 665,265 664,264 662,264 661,263 660,263 659,262 657,262 656,261 653,261 652,260 648,260 647,259 640,259 639,258 628,258 627,259 619,259 618,260 613,260 612,261 609,261 608,262 606,262 605,263 603,263 602,264 600,264 599,265 597,265 595,263 595,262 592,259 592,258 590,256 590,255 587,252 587,251 585,249 585,248 582,245 582,244 580,242 580,241 578,239 578,238 576,236 576,235 575,234 575,233 574,232 574,231 572,229 572,228 571,227 571,226 570,225 570,224 568,222 568,221 567,220 567,219 566,218 566,217 564,215 564,214 563,213 563,212 562,211 562,210 559,207 559,206 558,205 557,205 556,204" stroke="#fff" stroke-width="5" /><polygon fill="#fff" fill-opacity="0.4" points="471,328 472,327 477,327 478,328 480,328 481,329 482,329 486,333 486,334 487,335 487,339 486,340 486,342 480,348 478,348 477,349 475,349 474,348 470,348 469,347 468,347 466,345 465,345 462,342 462,340 461,339 461,336 462,335 462,333 465,330 466,330 468,328" stroke="#fff" stroke-width="5" /><polygon fill="#fff" fill-opacity="0.4" points="386,306 387,305 388,305 393,310 393,311 395,313 395,314 396,315 396,316 397,317 397,318 398,319 398,320 399,321 399,323 400,324 400,328 401,329 400,330 371,330 370,329 371,328 371,327 372,326 372,325 374,323 374,322 376,320 376,319 379,316 379,315 383,311 383,310 386,307" stroke="#fff" stroke-width="5" /><polygon fill="#fff" fill-opacity="0.4" points="619,287 620,286 639,286 640,287 644,287 645,288 647,288 648,289 650,289 651,290 652,290 653,291 654,291 655,292 656,292 657,293 658,293 659,294 660,294 663,297 664,297 673,306 673,307 676,310 676,311 678,313 678,314 679,315 679,317 680,318 680,319 681,320 681,322 682,323 682,325 683,326 683,330 684,331 684,349 683,350 683,354 682,355 682,358 681,359 681,360 680,361 680,363 679,364 679,365 678,366 678,367 676,369 676,370 673,373 673,374 663,384 662,384 660,386 659,386 658,387 657,387 656,388 655,388 654,389 653,389 652,390 650,390 649,391 647,391 646,392 643,392 642,393 635,393 634,394 630,394 629,393 624,393 623,392 619,392 618,391 616,391 615,390 613,390 612,389 610,389 609,388 608,388 607,387 606,387 605,386 604,386 602,384 601,384 598,381 597,381 591,375 591,374 588,371 588,370 587,369 587,368 585,366 585,365 584,364 584,363 583,362 583,361 582,360 582,359 581,358 581,356 580,355 580,353 579,352 579,348 578,347 578,332 579,331 579,326 580,325 580,322 581,321 581,319 582,318 582,316 584,314 584,313 586,311 586,310 589,307 589,306 591,304 592,304 593,305 593,306 594,307 594,308 595,309 595,310 596,311 596,312 598,314 598,315 599,316 599,317 601,319 601,320 603,322 603,323 604,324 604,325 606,327 606,328 607,329 607,330 609,332 609,333 611,335 611,336 612,337 612,338 614,340 614,342 615,343 615,344 616,345 616,346 617,347 617,348 619,350 619,351 621,353 622,353 624,355 625,355 626,356 628,356 629,357 634,357 635,356 638,356 639,355 640,355 645,350 645,349 646,348 646,346 647,345 647,337 646,336 646,334 645,333 645,332 643,330 643,329 642,328 641,328 639,326 637,326 636,325 635,325 632,322 632,321 630,319 630,318 629,317 629,316 627,314 627,313 625,311 625,310 623,308 623,307 622,306 622,305 620,303 620,302 619,301 619,300 618,299 618,298 617,297 617,296 615,294 615,293 614,292 614,291 612,289 613,288 615,288 616,287" stroke="#fff" stroke-width="5" /><polygon fill="#fff" fill-opacity="0.4" points="338,287 339,286 355,286 356,287 362,287 363,288 365,288 366,289 367,289 368,290 367,291 367,292 363,296 363,297 359,301 359,302 357,304 357,305 354,308 354,309 352,311 352,312 350,314 350,315 349,316 349,317 346,320 346,321 343,324 342,324 340,326 339,326 335,330 335,331 334,332 334,333 333,334 333,337 332,338 332,343 333,344 333,346 334,347 334,348 335,349 335,350 340,355 341,355 342,356 344,356 345,357 356,357 357,356 397,356 398,357 398,359 397,360 397,362 396,363 396,364 395,365 395,366 394,367 394,368 392,370 392,371 390,373 390,374 384,380 383,380 379,384 378,384 376,386 375,386 374,387 373,387 372,388 370,388 369,389 368,389 367,390 365,390 364,391 362,391 361,392 357,392 356,393 351,393 350,394 343,394 342,393 336,393 335,392 332,392 331,391 330,391 329,390 327,390 325,388 324,388 323,387 322,387 321,386 320,386 318,384 317,384 312,379 311,379 308,376 308,375 303,370 303,369 301,367 301,366 299,364 299,363 298,362 298,360 297,359 297,357 296,356 296,353 295,352 295,345 294,344 294,339 295,338 295,330 296,329 296,325 297,324 297,322 298,321 298,319 299,318 299,317 300,316 300,315 301,314 301,313 302,312 302,311 306,307 306,306 314,298 315,298 317,296 318,296 320,294 321,294 323,292 324,292 325,291 326,291 327,290 329,290 330,289 331,289 332,288 334,288 335,287" stroke="#fff" stroke-width="5" /><polygon fill="#fff" fill-opacity="0.4" points="412,272 413,271 414,271 416,273 416,274 418,276 418,277 420,279 420,280 421,281 421,282 423,284 423,285 424,286 424,287 426,289 426,290 428,292 428,293 429,294 429,295 431,297 431,298 433,300 433,301 435,303 435,304 436,305 436,306 438,308 438,309 439,310 439,311 441,313 441,314 443,316 443,317 444,318 444,319 445,320 445,322 446,323 446,325 445,326 445,327 443,329 429,329 428,328 428,327 427,326 427,323 426,322 426,320 425,319 425,317 424,316 424,314 423,313 423,311 422,310 422,309 421,308 421,307 420,306 420,305 419,304 419,303 418,302 418,301 417,300 417,299 416,298 416,297 414,295 414,294 411,291 411,290 408,287 408,286 404,282 404,280 405,279 406,279 412,273" stroke="#fff" stroke-width="5" /><polygon fill="#fff" fill-opacity="0.4" points="439,264 440,263 444,263 445,264 492,264 493,265 524,265 525,264 526,264 527,265 528,264 530,264 531,265 531,267 530,268 529,268 524,273 524,274 523,275 522,275 522,276 510,288 510,289 502,297 502,298 490,310 490,311 489,312 488,312 487,311 486,311 485,310 484,310 483,309 481,309 480,308 470,308 469,309 468,309 463,304 463,303 461,301 461,300 459,298 459,297 458,296 458,295 456,293 456,292 454,290 454,289 453,288 453,287 451,285 451,284 449,282 449,281 447,279 447,278 445,276 445,275 444,274 444,273 442,271 442,270 441,269 441,268 440,267 440,266 439,265" stroke="#fff" stroke-width="5" /><polygon fill="#fff" fill-opacity="0.4" points="351,152 350,153 344,153 343,154 336,154 335,155 330,155 329,156 325,156 324,157 320,157 319,158 316,158 315,159 312,159 311,160 309,160 308,161 306,161 305,162 302,162 301,163 299,163 298,164 296,164 295,165 293,165 292,166 290,166 289,167 288,167 287,168 286,168 285,169 284,169 283,170 281,170 280,171 279,171 278,172 277,172 275,174 274,174 273,175 272,175 271,176 270,176 269,177 268,177 267,178 266,178 264,180 263,180 262,181 261,181 259,183 258,183 255,186 254,186 250,190 249,190 245,194 244,194 231,207 230,207 229,208 229,209 221,217 221,218 217,222 217,223 214,226 214,227 211,230 211,231 208,234 208,235 206,237 206,238 204,240 204,241 203,242 203,243 202,244 202,245 200,247 200,248 199,249 199,250 198,251 198,252 197,253 197,254 196,255 196,256 194,258 194,260 193,261 193,262 192,263 192,264 191,265 191,266 190,267 190,269 189,270 189,271 188,272 188,274 187,275 187,276 186,277 186,279 185,280 185,282 184,283 184,286 183,287 183,289 182,290 182,293 181,294 181,297 180,298 180,301 179,302 179,305 178,306 178,309 177,310 177,314 176,315 176,320 175,321 175,324 174,325 174,331 173,332 173,338 172,339 172,379 171,380 171,383 172,384 172,399 171,400 171,411 172,412 172,431 171,432 171,463 172,464 172,495 171,496 171,563 172,564 172,599 171,600 171,649 172,650 172,660 173,661 173,667 174,668 174,672 175,673 175,677 176,678 176,681 177,682 177,685 178,686 178,689 179,690 179,693 180,694 180,696 181,697 181,699 182,700 182,702 183,703 183,705 184,706 184,708 185,709 185,711 186,712 186,713 187,714 187,716 188,717 188,719 189,720 189,721 190,722 190,723 191,724 191,725 192,726 192,727 193,728 193,729 194,730 194,731 195,732 195,733 196,734 196,735 197,736 197,737 198,738 198,739 199,740 199,741 200,742 200,743 201,744 201,745 203,747 203,748 205,750 205,751 207,753 207,754 209,756 209,757 211,759 211,760 213,762 213,763 216,766 216,767 221,772 221,773 230,782 230,783 231,783 242,794 243,794 248,799 249,799 253,803 254,803 257,806 258,806 260,808 261,808 262,809 263,809 265,811 266,811 267,812 268,812 270,814 271,814 272,815 273,815 274,816 275,816 276,817 277,817 278,818 279,818 280,819 281,819 282,820 284,820 285,821 286,821 287,822 288,822 289,823 290,823 291,824 293,824 294,825 295,825 296,826 298,826 299,827 301,827 302,828 303,828 304,829 307,829 308,830 311,830 312,831 315,831 316,832 319,832 320,833 324,833 325,834 329,834 330,835 334,835 335,836 339,836 340,837 345,837 346,838 351,838 352,839 361,839 362,840 614,840 615,839 619,839 620,840 639,840 640,839 659,839 660,838 666,838 667,837 673,837 674,836 679,836 680,835 684,835 685,834 689,834 690,833 693,833 694,832 697,832 698,831 700,831 701,830 704,830 705,829 706,829 707,828 710,828 711,827 712,827 713,826 715,826 716,825 718,825 719,824 721,824 722,823 723,823 724,822 725,822 726,821 727,821 728,820 729,820 730,819 731,819 732,818 733,818 734,817 735,817 736,816 737,816 738,815 739,815 741,813 742,813 743,812 744,812 746,810 747,810 748,809 749,809 751,807 752,807 754,805 755,805 757,803 758,803 761,800 762,800 766,796 767,796 774,789 775,789 786,778 786,777 791,772 791,771 794,768 794,767 797,764 797,763 800,760 800,759 803,756 803,755 804,754 804,753 806,751 806,750 808,748 808,747 810,745 810,744 811,743 811,742 812,741 812,740 813,739 813,738 815,736 815,735 816,734 816,733 817,732 817,731 818,730 818,729 819,728 819,727 820,726 820,725 821,724 821,723 822,722 822,720 823,719 823,718 824,717 824,715 825,714 825,712 826,711 826,710 827,709 827,707 828,706 828,703 829,702 829,699 830,698 830,695 831,694 831,692 832,691 832,688 833,687 833,685 834,684 834,681 835,680 835,676 836,675 836,671 837,670 837,664 838,663 838,659 839,658 839,650 840,649 840,341 839,340 839,337 838,336 838,330 837,329 837,324 836,323 836,318 835,317 835,313 834,312 834,308 833,307 833,303 832,302 832,299 831,298 831,295 830,294 830,292 829,291 829,289 828,288 828,285 827,284 827,282 826,281 826,279 825,278 825,277 824,276 824,275 823,274 823,272 822,271 822,270 821,269 821,268 820,267 820,265 819,264 819,263 818,262 818,261 817,260 817,259 815,257 815,256 814,255 814,254 813,253 813,252 812,251 812,250 811,249 811,248 809,246 809,245 807,243 807,242 806,241 806,240 803,237 803,236 801,234 801,233 798,230 798,229 796,227 796,226 794,224 794,223 791,220 791,219 787,215 787,214 770,197 769,197 764,192 763,192 759,188 758,188 755,185 754,185 752,183 751,183 748,180 747,180 746,179 745,179 743,177 742,177 741,176 740,176 739,175 738,175 736,173 735,173 734,172 733,172 732,171 731,171 730,170 728,170 727,169 726,169 725,168 724,168 723,167 722,167 721,166 719,166 718,165 717,165 716,164 714,164 713,163 711,163 710,162 707,162 706,161 704,161 703,160 701,160 700,159 697,159 696,158 693,158 692,157 690,157 689,156 684,156 683,155 679,155 678,154 670,154 669,153 659,153 658,152" stroke="#fff" stroke-width="5" /><polygon fill="#fff" fill-opacity="0.4" points="510,178 511,177 574,177 575,178 577,178 578,179 580,179 581,180 582,180 584,182 585,182 588,185 589,185 590,186 590,187 596,193 596,194 601,199 609,199 610,198 654,198 655,199 661,199 662,200 667,200 668,201 673,201 674,202 677,202 678,203 681,203 682,204 685,204 686,205 687,205 688,206 690,206 691,207 693,207 694,208 695,208 696,209 698,209 699,210 700,210 701,211 702,211 703,212 704,212 705,213 706,213 707,214 708,214 709,215 710,215 711,216 712,216 714,218 715,218 716,219 717,219 719,221 720,221 722,223 723,223 725,225 726,225 729,228 730,228 734,232 735,232 752,249 752,250 756,254 756,255 760,259 760,260 762,262 762,263 764,265 764,266 766,268 766,269 767,270 767,271 769,273 769,274 770,275 770,276 772,278 772,279 773,280 773,281 774,282 774,283 775,284 775,285 776,286 776,288 777,289 777,290 778,291 778,292 779,293 779,294 780,295 780,297 781,298 781,299 782,300 782,302 783,303 783,306 784,307 784,310 785,311 785,313 786,314 786,317 787,318 787,321 788,322 788,326 789,327 789,331 790,332 790,337 791,338 791,344 792,345 792,391 791,392 791,651 790,652 790,658 789,659 789,663 788,664 788,667 787,668 787,671 786,672 786,675 785,676 785,679 784,680 784,682 783,683 783,684 782,685 782,687 781,688 781,690 780,691 780,693 779,694 779,695 778,696 778,698 777,699 777,700 776,701 776,702 775,703 775,704 774,705 774,706 773,707 773,708 772,709 772,710 771,711 771,712 770,713 770,714 768,716 768,717 766,719 766,720 764,722 764,723 762,725 762,726 760,728 760,729 757,732 757,733 751,739 751,740 737,754 736,754 731,759 730,759 728,761 727,761 724,764 723,764 721,766 720,766 718,768 717,768 715,770 714,770 713,771 712,771 711,772 709,772 708,773 707,773 706,774 705,774 704,775 703,775 702,776 701,776 700,777 698,777 697,778 695,778 694,779 692,779 691,780 689,780 688,781 686,781 685,782 683,782 682,783 680,783 679,784 677,784 676,785 673,785 672,786 669,786 668,787 664,787 663,788 653,788 652,789 631,789 630,790 362,790 361,789 357,789 356,788 350,788 349,787 345,787 344,786 341,786 340,785 337,785 336,784 333,784 332,783 329,783 328,782 325,782 324,781 322,781 321,780 319,780 318,779 316,779 315,778 313,778 312,777 311,777 310,776 309,776 308,775 307,775 306,774 305,774 304,773 303,773 302,772 301,772 299,770 298,770 297,769 296,769 295,768 294,768 292,766 291,766 289,764 288,764 285,761 284,761 280,757 279,757 273,751 272,751 261,740 261,739 256,734 256,733 253,730 253,729 250,726 250,725 248,723 248,722 246,720 246,719 244,717 244,716 242,714 242,713 241,712 241,711 240,710 240,709 239,708 239,707 238,706 238,705 237,704 237,703 236,702 236,701 235,700 235,699 234,698 234,697 233,696 233,694 232,693 232,692 231,691 231,689 230,688 230,686 229,685 229,683 228,682 228,680 227,679 227,676 226,675 226,673 225,672 225,669 224,668 224,666 223,665 223,661 222,660 222,655 221,654 221,649 220,648 220,338 221,337 221,330 222,329 222,324 223,323 223,319 224,318 224,316 225,315 225,312 226,311 226,309 227,308 227,306 228,305 228,303 229,302 229,300 230,299 230,297 231,296 231,295 232,294 232,292 233,291 233,289 234,288 234,287 235,286 235,285 236,284 236,283 237,282 237,281 238,280 238,279 239,278 239,277 240,276 240,275 241,274 241,273 242,272 242,271 244,269 244,268 246,266 246,265 247,264 247,263 249,261 249,260 251,258 251,257 254,254 254,253 259,248 259,247 273,233 274,233 278,229 279,229 281,227 282,227 286,223 287,223 289,221 290,221 292,219 293,219 294,218 295,218 296,217 297,217 298,216 299,216 300,215 301,215 302,214 303,214 304,213 305,213 306,212 307,212 308,211 309,211 310,210 312,210 313,209 314,209 315,208 317,208 318,207 320,207 321,206 323,206 324,205 326,205 327,204 329,204 330,203 333,203 334,202 337,202 338,201 342,201 343,200 349,200 350,199 363,199 364,198 407,198 408,199 455,199 456,198 482,198 483,197 485,197 486,196 486,195 488,193 488,192 491,189 491,188 498,181 499,181 500,180 501,180 502,179 504,179 505,178" stroke="#fff" stroke-width="5" /></svg>