<?xml version="1.0" encoding="UTF-8" standalone="no"?>
<!-- Created with Inkscape (http://www.inkscape.org/) -->

<svg
   width="25.929167mm"
   height="31.220833mm"
   viewBox="0 0 25.929167 31.220833"
   version="1.1"
   id="svg1"
   inkscape:version="1.3.2 (091e20ef0f, 2023-11-25)"
   sodipodi:docname="car.svg"
   xmlns:inkscape="http://www.inkscape.org/namespaces/inkscape"
   xmlns:sodipodi="http://sodipodi.sourceforge.net/DTD/sodipodi-0.dtd"
   xmlns="http://www.w3.org/2000/svg"
   xmlns:svg="http://www.w3.org/2000/svg">
  <sodipodi:namedview
     id="namedview1"
     pagecolor="#ffffff"
     bordercolor="#000000"
     borderopacity="0.25"
     inkscape:showpageshadow="2"
     inkscape:pageopacity="0.0"
     inkscape:pagecheckerboard="0"
     inkscape:deskcolor="#d1d1d1"
     inkscape:document-units="mm"
     inkscape:zoom="0.79731341"
     inkscape:cx="48.914266"
     inkscape:cy="59.575067"
     inkscape:window-width="1920"
     inkscape:window-height="1141"
     inkscape:window-x="0"
     inkscape:window-y="0"
     inkscape:window-maximized="1"
     inkscape:current-layer="layer1" />
  <defs
     id="defs1" />
  <g
     inkscape:label="Ebene 1"
     inkscape:groupmode="layer"
     id="layer1"
     transform="translate(-91.810417,-132.82083)">
    <polygon
       fill="#000000"
       fill-opacity="0.4"
       points="253,353 249,357 248,357 245,360 227,360 226,361 224,361 223,362 222,362 221,363 220,363 218,365 217,365 213,369 213,371 212,372 212,375 213,376 223,376 224,377 224,378 225,379 225,380 228,383 229,383 230,384 237,384 238,383 239,383 242,380 242,379 243,378 243,377 244,376 275,376 277,378 277,379 278,380 278,381 279,382 280,382 281,383 282,383 283,384 289,384 290,383 291,383 292,382 293,382 294,381 294,380 295,379 295,378 297,376 302,376 303,375 303,369 300,366 299,366 297,364 296,364 293,361 292,361 289,358 288,358 285,355 284,355 282,353 281,353 278,350 277,350 274,347 273,347 271,345 270,345 269,344 266,344 265,345 264,345 263,346 262,346 258,350 257,350 254,353 "
       stroke="#000000"
       stroke-width="5"
       id="polygon2"
       transform="matrix(0.26458333,0,0,0.26458333,36.380209,61.780208)" />
    <polygon
       fill="#000000"
       fill-opacity="0.4"
       points="289,380 288,380 287,381 285,381 284,380 283,380 280,377 280,376 279,375 279,372 280,371 280,370 283,367 288,367 289,368 290,368 292,370 292,371 293,372 293,376 "
       stroke="#000000"
       stroke-width="5"
       id="polygon3"
       transform="matrix(0.26458333,0,0,0.26458333,36.380209,61.780208)" />
    <polygon
       fill="#000000"
       fill-opacity="0.4"
       points="235,381 232,381 231,380 230,380 228,378 228,377 227,376 227,371 231,367 236,367 240,371 240,376 239,377 239,378 237,380 236,380 "
       stroke="#000000"
       stroke-width="5"
       id="polygon4"
       transform="matrix(0.26458333,0,0,0.26458333,36.380209,61.780208)" />
    <polygon
       fill="#000000"
       fill-opacity="0.4"
       points="283,359 282,360 253,360 252,359 255,356 256,356 258,354 259,354 263,350 264,350 266,348 269,348 272,351 273,351 276,354 277,354 279,356 280,356 "
       stroke="#000000"
       stroke-width="5"
       id="polygon5"
       transform="matrix(0.26458333,0,0,0.26458333,36.380209,61.780208)" />
    <polygon
       fill="#000000"
       fill-opacity="0.4"
       points="260,327 262,327 262,325 258,321 256,321 256,323 "
       stroke="#000000"
       stroke-width="5"
       id="polygon6"
       transform="matrix(0.26458333,0,0,0.26458333,36.380209,61.780208)" />
    <polygon
       fill="#000000"
       fill-opacity="0.4"
       points="228,321 227,320 225,322 225,323 223,325 223,327 225,327 225,326 228,323 "
       stroke="#000000"
       stroke-width="5"
       id="polygon7"
       transform="matrix(0.26458333,0,0,0.26458333,36.380209,61.780208)" />
    <polygon
       fill="#000000"
       fill-opacity="0.4"
       points="219,312 218,311 216,311 215,312 214,312 212,314 212,315 215,315 217,313 218,313 "
       stroke="#000000"
       stroke-width="5"
       id="polygon8"
       transform="matrix(0.26458333,0,0,0.26458333,36.380209,61.780208)" />
    <polygon
       fill="#000000"
       fill-opacity="0.4"
       points="267,306 265,308 265,309 264,310 264,313 267,316 302,316 304,314 304,313 305,312 305,310 304,309 304,308 302,306 300,306 299,305 299,303 295,299 291,299 290,300 288,300 287,299 287,298 285,296 284,296 283,295 282,295 281,294 278,294 277,295 275,295 271,299 271,300 270,301 270,304 268,306 "
       stroke="#000000"
       stroke-width="5"
       id="polygon11"
       transform="matrix(0.26458333,0,0,0.26458333,36.380209,61.780208)" />
    <polygon
       fill="#000000"
       fill-opacity="0.4"
       points="214,293 212,293 212,295 213,295 214,296 218,296 219,295 218,294 215,294 "
       stroke="#000000"
       stroke-width="5"
       id="polygon12"
       transform="matrix(0.26458333,0,0,0.26458333,36.380209,61.780208)" />
    <polygon
       fill="#000000"
       fill-opacity="0.4"
       points="266,289 267,289 268,288 269,288 269,286 267,286 266,287 265,287 264,288 263,288 262,289 262,290 265,290 "
       stroke="#000000"
       stroke-width="5"
       id="polygon18"
       transform="matrix(0.26458333,0,0,0.26458333,36.380209,61.780208)" />
    <polygon
       fill="#000000"
       fill-opacity="0.4"
       points="226,292 225,293 225,303 226,304 226,306 232,312 232,313 234,315 234,320 235,321 235,322 236,323 237,323 238,324 238,327 239,327 240,328 240,343 241,344 243,344 243,340 244,339 244,328 245,327 246,327 246,325 250,321 250,315 251,314 251,313 256,308 256,307 258,305 258,304 259,303 259,294 258,293 258,292 257,291 257,290 255,288 255,287 254,286 253,286 251,284 250,284 249,283 248,283 247,282 237,282 236,283 234,283 232,285 231,285 227,289 227,290 226,291 "
       stroke="#000000"
       stroke-width="5"
       id="polygon19"
       transform="matrix(0.26458333,0,0,0.26458333,36.380209,61.780208)" />
    <polygon
       fill="#000000"
       fill-opacity="0.4"
       points="253,306 249,310 249,311 248,312 248,313 247,314 247,319 246,320 244,320 243,321 242,321 241,320 238,320 237,319 237,314 236,313 236,312 235,311 235,310 229,304 229,302 228,301 228,300 229,299 255,299 256,300 256,301 255,302 255,303 253,305 "
       stroke="#000000"
       stroke-width="5"
       id="polygon20"
       transform="matrix(0.26458333,0,0,0.26458333,36.380209,61.780208)" />
    <polygon
       fill="#000000"
       fill-opacity="0.4"
       points="221,278 221,280 225,284 226,284 227,283 226,282 226,281 223,278 "
       stroke="#000000"
       stroke-width="5"
       id="polygon25"
       transform="matrix(0.26458333,0,0,0.26458333,36.380209,61.780208)" />
    <polygon
       fill="#000000"
       fill-opacity="0.4"
       points="256,280 256,279 258,277 258,274 257,274 255,276 255,277 254,278 254,279 253,280 254,281 255,281 "
       stroke="#000000"
       stroke-width="5"
       id="polygon37"
       transform="matrix(0.26458333,0,0,0.26458333,36.380209,61.780208)" />
    <polygon
       fill="#000000"
       fill-opacity="0.4"
       points="240,271 239,272 239,277 240,278 241,278 242,277 242,272 241,271 "
       stroke="#000000"
       stroke-width="5"
       id="polygon38"
       transform="matrix(0.26458333,0,0,0.26458333,36.380209,61.780208)" />
  </g>
</svg>
